<svg width="24" height="24" viewBox="0 0 24 24" fill="none" xmlns="http://www.w3.org/2000/svg">
<path fill-rule="evenodd" clip-rule="evenodd" d="M20.1213 2.70711C18.9497 1.53554 17.0503 1.53554 15.8787 2.70711L5.70711 12.8787C4.75172 13.8341 4.57543 15.2735 5.17823 16.4076L4.1441 17.4417C3.33139 18.2544 3.12991 19.496 3.64391 20.524C4.09623 21.4286 5.02082 22 6.03222 22H16.1715C16.9672 22 17.7303 21.6839 18.2929 21.1213L18.5448 20.8694C19.5772 19.837 19.5772 18.1631 18.5448 17.1306C17.7402 16.326 16.5109 16.1265 15.4931 16.6354L8.76391 20H6.03222C5.77837 20 5.5463 19.8566 5.43277 19.6295C5.30376 19.3715 5.35433 19.0599 5.55831 18.8559L6.59243 17.8218C7.72647 18.4246 9.16593 18.2483 10.1213 17.2929L20.2929 7.12132C21.4645 5.94975 21.4645 4.05025 20.2929 2.87868L20.1213 2.70711ZM17.2929 4.12132C17.6834 3.7308 18.3166 3.7308 18.7071 4.12132L18.8787 4.2929C19.2692 4.68342 19.2692 5.31659 18.8787 5.70711L18 6.58579L16.4142 5L17.2929 4.12132ZM15 6.41422L16.5858 8L15 9.58579L13.4142 8L15 6.41422ZM12 9.41422L13.5858 11L12 12.5858L10.4142 11L12 9.41422ZM9 12.4142L10.5858 14L8.70711 15.8787C8.31658 16.2692 7.68342 16.2692 7.2929 15.8787L7.12132 15.7071C6.7308 15.3166 6.7308 14.6834 7.12132 14.2929L9 12.4142ZM16.1715 20H13.236L16.3875 18.4243C16.6354 18.3004 16.9347 18.3489 17.1306 18.5448C17.382 18.7962 17.382 19.2038 17.1306 19.4552L16.8787 19.7071C16.6911 19.8947 16.4368 20 16.1715 20Z" fill="#2B2D34"/>
</svg>
