<svg width="24" height="24" viewBox="0 0 24 24" fill="none" xmlns="http://www.w3.org/2000/svg">
<path fill-rule="evenodd" clip-rule="evenodd" d="M2.00024 4C2.00024 3.44772 2.44796 3 3.00024 3H21.0002C21.5525 3 22.0002 3.44772 22.0002 4V8C22.5525 8 23.0002 8.44772 23.0002 9V13C23.0002 13.5523 22.5525 14 22.0002 14V18C22.0002 18.5523 21.5525 19 21.0002 19H15.0002V17H20.0002V14H18.0002C17.448 14 17.0002 13.5523 17.0002 13V9C17.0002 8.44772 17.448 8 18.0002 8H20.0002V5H4.00024V11H2.00024V4ZM19.0002 10V12H21.0002V10H19.0002Z" fill="#2B2D34"/>
<path fill-rule="evenodd" clip-rule="evenodd" d="M8.82517 9.43468C8.63871 9.16262 8.33011 9 8.00029 9C7.67048 9 7.36187 9.16262 7.17542 9.43468L5.26042 12.2289L2.0112 13.1867C1.69485 13.28 1.44482 13.5232 1.3429 13.8369C1.24098 14.1506 1.30028 14.4943 1.5014 14.7557L3.56709 17.4404L3.47396 20.8266C3.46489 21.1563 3.61897 21.4693 3.8858 21.6631C4.15262 21.857 4.49788 21.9068 4.80863 21.7963L8.00029 20.6613L11.192 21.7963C11.5027 21.9068 11.848 21.857 12.1148 21.6631C12.3816 21.4693 12.5357 21.1563 12.5266 20.8266L12.4335 17.4404L14.4992 14.7557C14.7003 14.4943 14.7596 14.1506 14.6577 13.8369C14.5558 13.5232 14.3057 13.28 13.9894 13.1867L10.7402 12.2289L8.82517 9.43468ZM6.70914 13.6529L8.00029 11.7689L9.29145 13.6529C9.42148 13.8426 9.61294 13.9817 9.83357 14.0467L12.0243 14.6925L10.6315 16.5027C10.4913 16.685 10.4182 16.91 10.4245 17.14L10.4873 19.423L8.33534 18.6578C8.11862 18.5807 7.88196 18.5807 7.66525 18.6578L5.51332 19.423L5.57611 17.14C5.58244 16.91 5.5093 16.685 5.36904 16.5027L3.97629 14.6925L6.16702 14.0467C6.38765 13.9817 6.57911 13.8426 6.70914 13.6529Z" fill="#2B2D34"/>
</svg>
