<svg width="24" height="25" viewBox="0 0 24 25" fill="none" xmlns="http://www.w3.org/2000/svg">
<path fill-rule="evenodd" clip-rule="evenodd" d="M4 5.74976C4 5.19747 4.44772 4.74976 5 4.74976H22V2.74976H5C3.34315 2.74976 2 4.0929 2 5.74976V21.7498C2 22.302 2.44772 22.7498 3 22.7498H11C11.5523 22.7498 12 22.302 12 21.7498V15.164L14.2929 17.4569L15.7071 16.0426L11.7071 12.0426C11.3166 11.6521 10.6834 11.6521 10.2929 12.0426L6.29289 16.0426L7.70711 17.4569L10 15.164V20.7498H4V8.57905C4.31278 8.6896 4.64936 8.74976 5 8.74976H20V11.7498H18C17.4477 11.7498 17 12.1975 17 12.7498V16.7498C17 17.302 17.4477 17.7498 18 17.7498H20V20.7498H14V22.7498H21C21.5523 22.7498 22 22.302 22 21.7498V17.7498C22.5523 17.7498 23 17.302 23 16.7498V12.7498C23 12.1975 22.5523 11.7498 22 11.7498V6.74976H5C4.44772 6.74976 4 6.30204 4 5.74976ZM19 13.7498V15.7498H21V13.7498H19Z" fill="#2B2D34"/>
</svg>
