<svg width="24" height="24" viewBox="0 0 24 24" fill="none" xmlns="http://www.w3.org/2000/svg">
<path fill-rule="evenodd" clip-rule="evenodd" d="M5.70684 2.37128C5.93652 2.23867 6.20948 2.20274 6.46566 2.27138L12.0023 3.75492L14.741 3.03411L17.5297 2.27263C17.7864 2.20255 18.0604 2.23763 18.2911 2.3701C18.5218 2.50257 18.6902 2.72152 18.7591 2.97849L20.5708 9.73997C21.1969 12.0765 20.0599 14.4701 17.9753 15.5083L18.7776 18.5027L21.6754 17.7262L22.1931 19.658L14.4657 21.7286L13.948 19.7968L16.8458 19.0203L16.0434 16.0257C15.1722 16.0792 14.3204 15.9014 13.5643 15.5354L14.4357 13.7352C15.0618 14.0382 15.793 14.126 16.5176 13.9318C18.118 13.503 19.0678 11.858 18.6389 10.2576L17.0873 4.46667L15.2545 4.96711L14.9031 5.05956C14.9446 5.22072 14.9463 5.39448 14.9002 5.56668L13.0884 12.3282C12.4624 14.6647 10.2809 16.1691 7.95653 16.0259L7.15418 19.0203L10.052 19.7967L9.53432 21.7286L1.80692 19.658L2.32455 17.7262L5.22233 18.5027L6.02467 15.5083C3.9401 14.4701 2.80311 12.0765 3.42918 9.73997L5.24091 2.97849C5.30956 2.72231 5.47715 2.50389 5.70684 2.37128ZM12.7095 6.01497L6.91395 4.46205L5.36103 10.2576C4.93221 11.858 5.88195 13.503 7.48235 13.9318C9.08275 14.3607 10.7278 13.4109 11.1566 11.8105L12.7095 6.01497Z" fill="#2B2D34"/>
</svg>
