<svg width="24" height="24" viewBox="0 0 24 24" fill="none" xmlns="http://www.w3.org/2000/svg">
<path fill-rule="evenodd" clip-rule="evenodd" d="M3.29289 3.29289C3.48043 3.10536 3.73478 3 4 3H12C12.5523 3 13 3.44772 13 4V8H11V5H5V11C5 12.6569 6.34315 14 8 14C8.54809 14 9.05903 13.8539 9.49927 13.5993L10.5007 15.3305C10.0414 15.5962 9.53594 15.7909 9 15.8998L9 19H12V21H4V19H7L7 15.9C4.71776 15.4367 3 13.419 3 11L3 4C3 3.73478 3.10536 3.48043 3.29289 3.29289Z" fill="#2B2D34"/>
<path fill-rule="evenodd" clip-rule="evenodd" d="M20.7071 2.29289C21.0976 2.68342 21.0976 3.31658 20.7071 3.70711L19.7071 4.70711C19.5453 4.86887 19.5453 5.13113 19.7071 5.29289C20.6499 6.2357 20.6499 7.7643 19.7071 8.70711L19.5448 8.86938C19.3489 9.0653 19.3003 9.36461 19.4242 9.61243L19.8944 10.5528C20.1414 11.0468 19.9412 11.6474 19.4472 11.8944C18.9532 12.1414 18.3526 11.9412 18.1056 11.4472L17.6354 10.5069C17.1265 9.48906 17.326 8.25981 18.1306 7.45517L18.2929 7.29289C18.4547 7.13113 18.4547 6.86887 18.2929 6.70711C17.3501 5.7643 17.3501 4.2357 18.2929 3.29289L19.2929 2.29289C19.6834 1.90237 20.3166 1.90237 20.7071 2.29289Z" fill="#2B2D34"/>
<path fill-rule="evenodd" clip-rule="evenodd" d="M8 9H10C12.2091 9 14 10.7909 14 13V16C14 17.1046 14.8954 18 16 18V14C16 13.4477 16.4477 13 17 13H21C21.5523 13 22 13.4477 22 14V19C22 19.5523 21.5523 20 21 20H16C13.7909 20 12 18.2091 12 16V13C12 11.8954 11.1046 11 10 11H8V9ZM18 18H20V15H18V18Z" fill="#2B2D34"/>
</svg>
