<svg width="24" height="24" viewBox="0 0 24 24" fill="none" xmlns="http://www.w3.org/2000/svg">
<path d="M14.961 5.77502C15.6408 5.028 16.1022 4.02497 15.9805 3C14.9853 3.04347 13.7708 3.57679 13.0677 4.32439C12.4364 4.9646 11.8777 6.00963 12.0233 6.99163C13.1405 7.07676 14.2566 6.50108 14.961 5.77502Z" fill="#2B2D34"/>
<path d="M15.8934 7.00606C14.2746 6.91559 12.8983 7.86803 12.1253 7.86803C11.3519 7.86803 10.1681 7.05165 8.88778 7.07365C7.22135 7.09662 5.67513 7.98064 4.82949 9.38666C3.09015 12.1994 4.37047 16.3716 6.06188 18.6624C6.88327 19.7958 7.87318 21.0437 9.17754 20.9988C10.4099 20.9535 10.893 20.2501 12.391 20.2501C13.888 20.2501 14.3231 20.9988 15.6277 20.9761C16.9805 20.9534 17.8263 19.8422 18.6477 18.7078C19.59 17.4159 19.9757 16.1684 20 16.0999C19.9757 16.0772 17.3913 15.147 17.3673 12.3576C17.3429 10.0221 19.3964 8.91117 19.493 8.84227C18.3334 7.23309 16.5215 7.05165 15.8934 7.00606Z" fill="#2B2D34"/>
</svg>
