<svg width="24" height="24" viewBox="0 0 24 24" fill="none" xmlns="http://www.w3.org/2000/svg">
<path d="M14.8215 16.7056C14.6331 17.0697 14.3327 17.4537 13.8681 17.7487C13.3632 18.0692 12.7389 18.2375 12.0001 18.2375V15.7865C12.3942 15.7865 12.5755 15.699 12.6435 15.6558C12.7088 15.6143 12.7373 15.5711 12.7556 15.5319L14.8215 16.7056Z" fill="#2B2D34"/>
<path fill-rule="evenodd" clip-rule="evenodd" d="M2 5.26797C2 3.46312 3.4046 2 5.13725 2H18.8627C20.5954 2 22 3.46313 22 5.26797V19.5654C22 21.3702 20.5954 22.8333 18.8627 22.8333H5.13725C3.40461 22.8333 2 21.3703 2 19.5654V5.26797ZM5.13725 4.45098C4.70409 4.45098 4.35294 4.81676 4.35294 5.26797V6.08519H19.6471V5.26797C19.6471 4.81675 19.2959 4.45098 18.8627 4.45098H5.13725ZM4.35294 10.1695V8.53618H19.6471V10.1695H4.35294ZM4.35294 12.6204V14.2547H9.45105C10.4501 14.2547 11.0273 15.0677 11.2444 15.5319L9.17848 16.7056H4.35294V19.5654C4.35294 20.0166 4.70408 20.3824 5.13725 20.3824H18.8627C19.2959 20.3824 19.6471 20.0166 19.6471 19.5654V16.7056H14.8215L12.7556 15.5319C12.9727 15.0677 13.5499 14.2547 14.549 14.2547H19.6471V12.6204H4.35294ZM9.17848 16.7056L11.2444 15.5319C11.2627 15.5711 11.2912 15.6143 11.3565 15.6558C11.4245 15.699 11.606 15.7865 12.0001 15.7865V18.2375C11.2612 18.2375 10.6368 18.0692 10.1319 17.7487C9.66733 17.4537 9.36686 17.0697 9.17848 16.7056Z" fill="#2B2D34"/>
</svg>
