<svg width="24" height="24" viewBox="0 0 24 24" fill="none" xmlns="http://www.w3.org/2000/svg">
<path fill-rule="evenodd" clip-rule="evenodd" d="M21 2H16V4H18.5858L15.4762 7.10964C12.7269 4.71308 9.88542 4.12426 7.65893 4.18788C6.45913 4.22215 5.44871 4.44468 4.73502 4.65964C4.54917 4.71562 4.38274 4.7713 4.23757 4.82336L2.70712 3.29291L1.29291 4.70712L9.5858 13L8.58581 14H5.00002C4.7348 14 4.48045 14.1054 4.29291 14.2929L1.29291 17.2929C1.04785 17.538 0.947144 17.8924 1.02677 18.2298C1.1064 18.5671 1.355 18.8391 1.68379 18.9487L4.20945 19.7906L5.05134 22.3162C5.16093 22.645 5.43296 22.8936 5.77027 22.9732C6.10757 23.0529 6.46206 22.9522 6.70713 22.7071L9.70713 19.7071C9.89466 19.5196 10 19.2652 10 19V15.4142L11 14.4142L19.2929 22.7071L20.7071 21.2929L19.1766 19.7624C19.2287 19.6172 19.2843 19.4508 19.3403 19.2649C19.5553 18.5512 19.7778 17.5408 19.8121 16.341C19.8757 14.1145 19.2869 11.2731 16.8904 8.52386L20 5.41421V8H22V3C22 2.44772 21.5523 2 21 2ZM14.058 8.52779C11.7669 6.5771 9.47799 6.13672 7.71605 6.18706C6.99915 6.20754 6.36357 6.30995 5.84595 6.43173L11 11.5858L14.058 8.52779ZM12.4142 13L15.4722 9.94201C17.4229 12.2331 17.8632 14.522 17.8129 16.2839C17.7924 17.0008 17.69 17.6364 17.5682 18.154L12.4142 13ZM5.41423 16H8.00002V18.5858L6.43704 20.1488L5.9487 18.6838C5.84917 18.3852 5.61485 18.1509 5.31625 18.0513L3.85125 17.563L5.41423 16Z" fill="#2B2D34"/>
</svg>
