<svg width="24" height="24" viewBox="0 0 24 24" fill="none" xmlns="http://www.w3.org/2000/svg">
<path fill-rule="evenodd" clip-rule="evenodd" d="M20 20C20.5523 20 21 19.5523 21 19L21 3C21 2.44772 20.5523 2 20 2H4C3.44772 2 3 2.44772 3 3V19C3 19.5523 3.44772 20 4 20H8V21C8 21.5523 8.44772 22 9 22H15C15.5523 22 16 21.5523 16 21V20H20ZM10 16L7 16V14H17V16H14V20H10L10 16ZM7 7C7 6.44772 7.44772 6 8 6H16C16.5523 6 17 6.44772 17 7V11C17 11.5523 16.5523 12 16 12H8C7.44772 12 7 11.5523 7 11V7Z" fill="#2B2D34"/>
<path d="M9 8H15V10H9V8Z" fill="#2B2D34"/>
<path d="M9 8H15V10H9V8Z" fill="#2B2D34"/>
</svg>
