<svg width="24" height="24" viewBox="0 0 24 24" fill="none" xmlns="http://www.w3.org/2000/svg">
<path d="M19 4L5 4L5 20H3V3C3 2.44772 3.44772 2 4 2H20C20.5523 2 21 2.44772 21 3V20H19V4Z" fill="#2B2D34"/>
<path fill-rule="evenodd" clip-rule="evenodd" d="M8 6C7.44772 6 7 6.44772 7 7V11C7 11.5523 7.44772 12 8 12H16C16.5523 12 17 11.5523 17 11V7C17 6.44772 16.5523 6 16 6H8ZM9 10V8H15V10H9Z" fill="#2B2D34"/>
<path fill-rule="evenodd" clip-rule="evenodd" d="M9 22C7.89543 22 7 21.1046 7 20V14L17 14V20C17 21.1046 16.1046 22 15 22H9ZM9 16L9 20H10L10 16H9ZM12 16L12 20H15L15 16L12 16Z" fill="#2B2D34"/>
</svg>
