<svg width="24" height="24" viewBox="0 0 24 24" fill="none" xmlns="http://www.w3.org/2000/svg">
<path d="M2 2V4H4V21C4 21.55 4.45 22 5 22H19C19.55 22 20 21.55 20 21V4H22V2H2ZM6 20V18C7.1 18 8 18.9 8 20H6ZM12 16C9.79 16 8 13.76 8 11C8 8.24 9.79 6 12 6C14.21 6 16 8.24 16 11C16 13.76 14.21 16 12 16ZM18 20H16C16 18.9 16.9 18 18 18V20Z" fill="#2B2D34"/>
<path d="M12 14C13.1046 14 14 12.6569 14 11C14 9.34315 13.1046 8 12 8C10.8954 8 10 9.34315 10 11C10 12.6569 10.8954 14 12 14Z" fill="#2B2D34"/>
</svg>
