<svg width="24" height="24" viewBox="0 0 24 24" fill="none" xmlns="http://www.w3.org/2000/svg">
<path d="M5.41421 2H3V4H4.58579L5 4.41421V5.58579L4.58579 6H3V8H5.41421L7 6.41421V6H17V6.41421L18.5858 8H21V6H19.4142L19 5.58579V4.41421L19.4142 4H21V2H18.5858L17 3.58579V4H7V3.58579L5.41421 2Z" fill="#2B2D34"/>
<path fill-rule="evenodd" clip-rule="evenodd" d="M8 8C7.53004 8 7.17541 8.23381 6.95604 8.43229C6.73139 8.63555 6.55138 8.88739 6.40813 9.12613C6.11933 9.60747 5.87346 10.2173 5.67632 10.8088C5.47584 11.4102 5.31007 12.0405 5.19364 12.5894C5.11921 12.9403 5.05792 13.2901 5.02536 13.5912C4.92134 13.7166 4.79515 13.8795 4.66795 14.0703C4.38804 14.4902 4.00894 15.1831 4.00016 15.9721C3.99972 15.988 3.99967 16.0039 4 16.0198V21C4 21.5523 4.44772 22 5 22H9C9.55228 22 10 21.5523 10 21H14C14 21.5523 14.4477 22 15 22H19C19.5523 22 20 21.5523 20 21V16.0204C20.0003 16.0041 20.0003 15.9877 19.9998 15.9714C19.9908 15.1827 19.6119 14.49 19.3321 14.0703C19.2048 13.8795 19.0787 13.7166 18.9746 13.5912C18.9421 13.2901 18.8808 12.9403 18.8064 12.5894C18.6899 12.0405 18.5242 11.4102 18.3237 10.8088C18.1265 10.2173 17.8807 9.60747 17.5919 9.12613C17.4486 8.88739 17.2686 8.63555 17.044 8.43229C16.8246 8.23381 16.47 8 16 8H8ZM6.55279 17.8944L6 17.618V20H8V19H16V20H18V17.618L17.4472 17.8944C16.9532 18.1414 16.3526 17.9412 16.1056 17.4472C15.8586 16.9532 16.0588 16.3525 16.5528 16.1055L17.836 15.464C17.7894 15.3731 17.7333 15.2777 17.6679 15.1797C17.6248 15.115 17.5814 15.0547 17.5399 15H6.46007C6.41861 15.0547 6.37519 15.115 6.33205 15.1797C6.26669 15.2777 6.21056 15.3731 6.16403 15.464L7.44722 16.1055C7.9412 16.3525 8.14142 16.9532 7.89443 17.4472C7.64744 17.9412 7.04677 18.1414 6.55279 17.8944ZM16.849 13H7.15104C7.25332 12.5186 7.39969 11.9632 7.57368 11.4412C7.75154 10.9077 7.94317 10.455 8.12312 10.1551C8.16327 10.0882 8.1978 10.0375 8.2257 10H15.7743C15.8022 10.0375 15.8367 10.0882 15.8769 10.1551C16.0568 10.455 16.2485 10.9077 16.4263 11.4412C16.6003 11.9632 16.7467 12.5186 16.849 13Z" fill="#2B2D34"/>
</svg>
