<svg width="24" height="24" viewBox="0 0 24 24" fill="none" xmlns="http://www.w3.org/2000/svg">
<path fill-rule="evenodd" clip-rule="evenodd" d="M7.00003 3C5.93568 3 5.27017 3.80022 4.89597 4.45952C4.49706 5.16235 4.22099 6.05363 4.02564 6.90014C3.71373 8.25173 3.56578 9.68106 3.51805 10.4989C3.36721 10.6286 3.18783 10.7965 3.00674 10.9977C2.57099 11.4819 2.00003 12.2986 2.00003 13.3333V13.9768C1.99966 13.9924 1.99967 14.008 2.00003 14.0235V20C2.00003 20.5523 2.44775 21 3.00003 21H7.00003C7.55232 21 8.00003 20.5523 8.00003 20V19H16V20C16 20.5523 16.4477 21 17 21H21C21.5523 21 22 20.5523 22 20V14.0232C22.0004 14.0079 22.0004 13.9925 22 13.9771V13.3333C22 12.2986 21.4291 11.4819 20.9933 10.9977C20.8122 10.7965 20.6329 10.6286 20.482 10.4989C20.4343 9.68107 20.2863 8.25173 19.9744 6.90014C19.7791 6.05363 19.503 5.16235 19.1041 4.45952C18.7299 3.80022 18.0644 3 17 3H7.00003ZM4.00003 15.3874V19H6.00003V17H18V19H20V15.3874L18.3163 15.9487C17.7923 16.1233 17.226 15.8402 17.0513 15.3162C16.8767 14.7923 17.1599 14.226 17.6838 14.0513L19.9982 13.2799C19.9784 12.9934 19.8024 12.6642 19.5067 12.3356C19.3856 12.201 19.2624 12.087 19.16 12H4.84002C4.73762 12.087 4.6145 12.201 4.49332 12.3356C4.19765 12.6642 4.02167 12.9934 4.0019 13.2799L6.31625 14.0513C6.8402 14.226 7.12336 14.7923 6.94871 15.3162C6.77406 15.8402 6.20774 16.1233 5.6838 15.9487L4.00003 15.3874ZM5.56191 10H18.4382C18.3707 9.27438 18.2423 8.28881 18.0256 7.34986C17.846 6.57137 17.6221 5.90015 17.3647 5.44673C17.2372 5.22211 17.1274 5.09764 17.0525 5.03701C17.0209 5.01145 17.0019 5.00243 16.9961 5H7.00391C6.99813 5.00243 6.97916 5.01145 6.94759 5.03701C6.8727 5.09764 6.76283 5.22211 6.63534 5.44673C6.378 5.90015 6.15407 6.57137 5.97442 7.34986C5.75774 8.28881 5.62937 9.27438 5.56191 10Z" fill="#2B2D34"/>
</svg>
