<svg width="24" height="24" viewBox="0 0 24 24" fill="none" xmlns="http://www.w3.org/2000/svg">
<path fill-rule="evenodd" clip-rule="evenodd" d="M4.82111 5.21216C5.13626 4.47679 5.85934 4 6.6594 4H13.382C14.1395 4 14.832 4.428 15.1708 5.10557L17.6887 10.1414L20.4851 10.8405C21.3754 11.0631 22 11.863 22 12.7808V16C22 16.7828 21.5503 17.4605 20.8952 17.789C20.5488 19.0631 19.3838 20 18 20C16.6938 20 15.5825 19.1652 15.1707 18L8.82929 18C8.41746 19.1652 7.30622 20 6 20C4.61619 20 3.45122 19.0631 3.10483 17.789C2.44969 17.4605 2 16.7828 2 16V12.2053C2 11.9344 2.05502 11.6664 2.16171 11.4174L4.82111 5.21216ZM4 14.7639C4.53076 14.2889 5.23165 14 6 14C7.30622 14 8.41746 14.8348 8.82929 16L15.1707 16C15.5825 14.8348 16.6938 14 18 14C18.7684 14 19.4692 14.2889 20 14.7639V12.7808L17.2037 12.0817C17.1169 12.06 17.0322 12.0326 16.95 12H4.08797L4 12.2053V14.7639ZM13.382 6L15.382 10H12V6H13.382ZM6.6594 6H10V10H4.94511L6.6594 6ZM18 16C17.4477 16 17 16.4477 17 17C17 17.5523 17.4477 18 18 18C18.5523 18 19 17.5523 19 17C19 16.4477 18.5523 16 18 16ZM5 17C5 16.4477 5.44772 16 6 16C6.55228 16 7 16.4477 7 17C7 17.5523 6.55228 18 6 18C5.44772 18 5 17.5523 5 17Z" fill="#2B2D34"/>
</svg>
