<svg width="24" height="24" viewBox="0 0 24 24" fill="none" xmlns="http://www.w3.org/2000/svg">
<path d="M1.2192 13.8753L2.3233 12.4952L0.683838 11.9487L1.31629 10.0513L3.00007 10.6126V9H5.00007V10.6126L6.68384 10.0513L7.31629 11.9487L5.67683 12.4952L6.78093 13.8753L5.2192 15.1247L4.00007 13.6008L2.78093 15.1247L1.2192 13.8753Z" fill="#2B2D34"/>
<path d="M10.3233 12.4952L9.2192 13.8753L10.7809 15.1247L12.0001 13.6008L13.2192 15.1247L14.7809 13.8753L13.6768 12.4952L15.3163 11.9487L14.6838 10.0513L13.0001 10.6126V9H11.0001V10.6126L9.31629 10.0513L8.68384 11.9487L10.3233 12.4952Z" fill="#2B2D34"/>
<path d="M18.3233 12.4952L17.2192 13.8753L18.7809 15.1247L20.0001 13.6008L21.2192 15.1247L22.7809 13.8753L21.6768 12.4952L23.3163 11.9487L22.6838 10.0513L21.0001 10.6126V9H19.0001V10.6126L17.3163 10.0513L16.6838 11.9487L18.3233 12.4952Z" fill="#2B2D34"/>
</svg>
