<svg width="24" height="24" viewBox="0 0 24 24" fill="none" xmlns="http://www.w3.org/2000/svg">
<path fill-rule="evenodd" clip-rule="evenodd" d="M13.6246 1.62771C12.5903 1.16804 11.4097 1.16804 10.3754 1.62771L4.37545 4.29438C2.93094 4.93638 2 6.36887 2 7.94963V16.0504C2 17.6311 2.93093 19.0636 4.37545 19.7056L10.3754 22.3723C11.4097 22.832 12.5903 22.832 13.6246 22.3723L19.6246 19.7056C21.0691 19.0636 22 17.6311 22 16.0504V7.94963C22 6.36887 21.0691 4.93638 19.6246 4.29438L13.6246 1.62771ZM11.1877 3.45534C11.7049 3.2255 12.2951 3.2255 12.8123 3.45534L18.8123 6.122C19.2252 6.3055 19.5541 6.61817 19.7602 7H14V9H20V11H14V13H20V15H14V17H19.7602C19.5541 17.3818 19.2252 17.6945 18.8123 17.878L12.8123 20.5447C12.5537 20.6596 12.2769 20.7171 12 20.7171V16C12 14.3431 10.6569 13 9 13C10.6569 13 12 11.6569 12 10C12 8.34315 10.6569 7 9 7C7.34315 7 6 8.34315 6 10C6 11.6569 7.34315 13 9 13C7.34315 13 6 14.3431 6 16V18.239L5.18772 17.878C4.46547 17.557 4 16.8408 4 16.0504V7.94963C4 7.15925 4.46547 6.443 5.18773 6.122L11.1877 3.45534ZM10 20.0168V16C10 15.4477 9.55228 15 9 15C8.44772 15 8 15.4477 8 16V19.1279L10 20.0168ZM9 9C8.44772 9 8 9.44772 8 10C8 10.5523 8.44772 11 9 11C9.55228 11 10 10.5523 10 10C10 9.44772 9.55228 9 9 9Z" fill="#2B2D34"/>
</svg>
