<svg width="24" height="24" viewBox="0 0 24 24" fill="none" xmlns="http://www.w3.org/2000/svg">
<path fill-rule="evenodd" clip-rule="evenodd" d="M6 12C6 10.3431 7.34315 9 9 9C10.3062 9 11.4175 9.83481 11.8293 11H17C17.5523 11 18 11.4477 18 12V15H16V13H11.8293C11.4175 14.1652 10.3062 15 9 15C7.34315 15 6 13.6569 6 12ZM9 11C8.44772 11 8 11.4477 8 12C8 12.5523 8.44772 13 9 13C9.55228 13 10 12.5523 10 12C10 11.4477 9.55228 11 9 11Z" fill="#2B2D34"/>
<path fill-rule="evenodd" clip-rule="evenodd" d="M10.3754 1.62771C11.4097 1.16804 12.5903 1.16804 13.6246 1.62771L19.6246 4.29438C21.0691 4.93638 22 6.36887 22 7.94963V16.0504C22 17.6311 21.0691 19.0636 19.6246 19.7056L13.6246 22.3723C12.5903 22.832 11.4097 22.832 10.3754 22.3723L4.37545 19.7056C2.93093 19.0636 2 17.6311 2 16.0504V7.94963C2 6.36887 2.93094 4.93638 4.37545 4.29438L10.3754 1.62771ZM12.8123 3.45534C12.2951 3.2255 11.7049 3.2255 11.1877 3.45534L5.18773 6.122C4.46547 6.443 4 7.15925 4 7.94963V16.0504C4 16.8408 4.46547 17.557 5.18772 17.878L11.1877 20.5447C11.7049 20.7745 12.2951 20.7745 12.8123 20.5447L18.8123 17.878C19.5345 17.557 20 16.8408 20 16.0504V7.94963C20 7.15925 19.5345 6.44301 18.8123 6.122L12.8123 3.45534Z" fill="#2B2D34"/>
</svg>
