<svg width="24" height="24" viewBox="0 0 24 24" fill="none" xmlns="http://www.w3.org/2000/svg">
<path d="M6 11H8V13H6V11Z" fill="#2B2D34"/>
<path d="M10 11H12V13H10V11Z" fill="#2B2D34"/>
<path d="M10 15H12V17H10V15Z" fill="#2B2D34"/>
<path fill-rule="evenodd" clip-rule="evenodd" d="M11 3C10.4477 3 10 3.44772 10 4V7H8V5H6V7H3C2.44772 7 2 7.44772 2 8V20C2 20.5523 2.44772 21 3 21H21C21.5523 21 22 20.5523 22 20V4C22 3.44772 21.5523 3 21 3H11ZM16 19H20V5H12V7H18V9H16V11H18V13H16V15H18V17H16V19ZM4 9V19H6V15H8V19H14V9H4Z" fill="#2B2D34"/>
</svg>
