<svg width="24" height="24" viewBox="0 0 24 24" fill="none" xmlns="http://www.w3.org/2000/svg">
<path d="M2 6C2 4.34315 3.34315 3 5 3H19C20.6569 3 22 4.34315 22 6V12H20V6C20 5.44772 19.5523 5 19 5H5C4.44772 5 4 5.44772 4 6V14C4 14.5523 4.44772 15 5 15H10V17H5C3.34315 17 2 15.6569 2 14V6Z" fill="#2B2D34"/>
<path fill-rule="evenodd" clip-rule="evenodd" d="M13.4743 11.1494C13.7691 10.9671 14.1372 10.9506 14.4472 11.1056L22.4472 15.1056C22.786 15.275 23 15.6212 23 16C23 16.3788 22.786 16.725 22.4472 16.8944L21.4604 17.3878L22.8321 19.4453C22.9912 19.684 23.0401 19.9794 22.9665 20.2567C22.8929 20.5339 22.7038 20.7662 22.4472 20.8944L18.4472 22.8944C17.9961 23.12 17.4477 22.9743 17.1679 22.5547L15.6576 20.2892L14.4472 20.8944C14.1372 21.0494 13.7691 21.0329 13.4743 20.8507C13.1795 20.6684 13 20.3466 13 20V12C13 11.6534 13.1795 11.3316 13.4743 11.1494ZM19.7639 16L15 13.618V18.382L16.3424 17.7108L18.3424 20.7108L20.5396 19.6122L18.5396 16.6122L19.7639 16Z" fill="#2B2D34"/>
<path fill-rule="evenodd" clip-rule="evenodd" d="M7 7C6.44772 7 6 7.44772 6 8V10C6 10.2652 6.10536 10.5196 6.29289 10.7071L8.29289 12.7071C8.68342 13.0976 9.31658 13.0976 9.70711 12.7071L11.7071 10.7071C11.8946 10.5196 12 10.2652 12 10C12 9.73478 12 8 12 8C12 7.44772 11.5523 7 11 7H7ZM8 9.58579V9H10V9.58579L9 10.5858L8 9.58579Z" fill="#2B2D34"/>
</svg>
