<svg width="24" height="24" viewBox="0 0 24 24" fill="none" xmlns="http://www.w3.org/2000/svg">
<path fill-rule="evenodd" clip-rule="evenodd" d="M12 2C6.47715 2 2 6.47715 2 12C2 17.5228 6.47715 22 12 22C17.5228 22 22 17.5228 22 12C22 6.47715 17.5228 2 12 2ZM11 4.06189C9.71329 4.22234 8.52148 4.68836 7.49947 5.38504C8.22808 6.21107 8.8162 7.15293 9.2388 8.17319C9.61331 9.07733 9.85237 10.0298 9.94988 11H11V4.06189ZM11 13H9.94988C9.85238 13.9702 9.61332 14.9227 9.2388 15.8269C8.8162 16.8471 8.2281 17.789 7.4995 18.615C8.5215 19.3116 9.7133 19.7777 11 19.9381V13ZM13 19.9381V13H14.0501C14.1476 13.9702 14.3867 14.9227 14.7612 15.8269C15.1838 16.8471 15.7719 17.7889 16.5005 18.615C15.4785 19.3116 14.2867 19.7777 13 19.9381ZM13 11V4.06189C14.2867 4.22234 15.4785 4.68837 16.5005 5.38505C15.7719 6.21108 15.1838 7.15293 14.7612 8.17319C14.3867 9.07733 14.1476 10.0298 14.0501 11H13ZM7.39104 8.93856C7.66487 9.59963 7.84819 10.293 7.93726 11H4.06189C4.26577 9.36504 4.96301 7.88329 5.99993 6.70843C6.58265 7.36916 7.05303 8.12251 7.39104 8.93856ZM7.93726 13H4.06189C4.26577 14.635 4.96302 16.1167 5.99995 17.2916C6.58267 16.6309 7.05303 15.8775 7.39104 15.0615C7.66488 14.4004 7.8482 13.707 7.93726 13ZM19.9381 13H16.0627C16.1518 13.707 16.3351 14.4004 16.609 15.0615C16.947 15.8775 17.4173 16.6309 18.0001 17.2916C19.037 16.1167 19.7342 14.635 19.9381 13ZM16.0628 11H19.9381C19.7342 9.36504 19.037 7.88329 18.0001 6.70844C17.4174 7.36917 16.947 8.12252 16.609 8.93856C16.3351 9.59963 16.1518 10.293 16.0628 11Z" fill="#2B2D34"/>
</svg>
