<svg width="24" height="24" viewBox="0 0 24 24" fill="none" xmlns="http://www.w3.org/2000/svg">
<path fill-rule="evenodd" clip-rule="evenodd" d="M17 6H14V8H16.4648L17.2582 9.19015C14.9957 9.69252 13.0937 11.153 12 13.124C10.6353 10.6646 8.01203 9 5 9H3V11H5C6.29585 11 7.49576 11.4108 8.47659 12.1093L7.03202 13.5539C6.4365 13.2019 5.74183 13 5 13C2.79086 13 1 14.7909 1 17C1 19.2091 2.79086 21 5 21C7.20914 21 9 19.2091 9 17C9 16.2582 8.79808 15.5636 8.44621 14.9681L9.89079 13.5235C10.5892 14.5043 11 15.7042 11 17C11 17.5523 11.4477 18 12 18C12.5523 18 13 17.5523 13 17C13 15.7042 13.4108 14.5043 14.1092 13.5235L15.5538 14.9681C15.2019 15.5636 15 16.2582 15 17C15 19.2091 16.7909 21 19 21C21.2091 21 23 19.2091 23 17C23 14.7909 21.2091 13 19 13C18.2582 13 17.5635 13.2019 16.968 13.5539L15.5234 12.1093C16.5042 11.4108 17.7041 11 19 11C19.3688 11 19.7077 10.797 19.8817 10.4719C20.0557 10.1467 20.0366 9.75216 19.8321 9.4453L17.8321 6.4453C17.6466 6.1671 17.3344 6 17 6ZM5 15C3.89543 15 3 15.8954 3 17C3 18.1046 3.89543 19 5 19C6.10457 19 7 18.1046 7 17C7 15.8954 6.10457 15 5 15ZM19 15C17.8954 15 17 15.8954 17 17C17 18.1046 17.8954 19 19 19C20.1046 19 21 18.1046 21 17C21 15.8954 20.1046 15 19 15Z" fill="#2B2D34"/>
</svg>
