<svg width="24" height="24" viewBox="0 0 24 24" fill="none" xmlns="http://www.w3.org/2000/svg">
<path d="M14 15C14.5523 15 15 14.5523 15 14C15 13.4477 14.5523 13 14 13C13.4477 13 13 13.4477 13 14C13 14.5523 13.4477 15 14 15Z" fill="#2B2D34"/>
<path d="M17 16C17 16.5523 16.5523 17 16 17C15.4477 17 15 16.5523 15 16C15 15.4477 15.4477 15 16 15C16.5523 15 17 15.4477 17 16Z" fill="#2B2D34"/>
<path d="M18 15C18.5523 15 19 14.5523 19 14C19 13.4477 18.5523 13 18 13C17.4477 13 17 13.4477 17 14C17 14.5523 17.4477 15 18 15Z" fill="#2B2D34"/>
<path fill-rule="evenodd" clip-rule="evenodd" d="M7.5 1C5.94772 1 4 2.44772 4 5C4 5.58416 4.1359 6.39883 4.25228 7.09646L4.26361 7.1644C4.39492 7.95227 4.5 8.60323 4.5 9C4.5 9.29524 4.40692 9.64442 4.19901 10.1018C4.03134 10.4707 3.82162 10.8442 3.57801 11.278C3.51299 11.3938 3.44554 11.5139 3.37584 11.6394C2.74539 12.7742 2 14.2215 2 16C2 18.175 2.54662 19.6227 3.16795 20.5547C3.47554 21.0161 3.79203 21.3367 4.04732 21.5495C4.17465 21.6556 4.28624 21.7344 4.3733 21.7904C4.41684 21.8184 4.45427 21.8407 4.48453 21.8578C4.49965 21.8664 4.513 21.8737 4.52441 21.8798L4.54009 21.888L4.54681 21.8914L4.5499 21.893L4.55136 21.8937L4.76393 22H10.2361L10.4491 21.8935L10.451 21.8925L10.4551 21.8904L10.4642 21.8857L10.4862 21.8741C10.5024 21.8653 10.5218 21.8544 10.5441 21.8413C10.5886 21.8151 10.6447 21.78 10.7099 21.7348C10.8405 21.6443 11.0078 21.5133 11.1927 21.3323C11.3495 21.1788 11.5174 20.9909 11.6855 20.7635C12.7565 21.5407 14.075 22 15.5 22C19.0899 22 22 19.0899 22 15.5C22 11.9101 19.0899 9 15.5 9C13.8055 9 12.2627 9.6489 11.1065 10.7098C11.0199 10.5493 10.9381 10.3913 10.8606 10.2295C10.6125 9.71133 10.5 9.32516 10.5 9C10.5 8.60323 10.6051 7.95227 10.7364 7.1644L10.7477 7.09648C10.8641 6.39886 11 5.58416 11 5C11 2.44772 9.05228 1 7.5 1ZM9.79371 19.903C9.75515 19.9407 9.71954 19.9729 9.68777 20H5.31223C5.1925 19.898 5.01636 19.7218 4.83205 19.4453C4.45338 18.8773 4 17.825 4 16C4 14.7785 4.50461 13.7258 5.12416 12.6106C5.18114 12.5081 5.24003 12.4033 5.29981 12.297C5.54856 11.8545 5.81318 11.3839 6.01974 10.9294C6.28058 10.3556 6.5 9.70476 6.5 9C6.5 8.41584 6.3641 7.60117 6.24772 6.90354L6.23639 6.8356C6.10508 6.04773 6 5.39677 6 5C6 3.55228 7.05228 3 7.5 3C7.94772 3 9 3.55228 9 5C9 5.39677 8.89492 6.04773 8.76361 6.8356L8.75228 6.90352C8.6359 7.60115 8.5 8.41584 8.5 9C8.5 9.76874 8.76144 10.4765 9.05672 11.0932C9.24438 11.4851 9.48506 11.914 9.71412 12.3222L9.77198 12.4253C9.27945 13.3413 9 14.3891 9 15.5C9 16.9293 9.46226 18.2523 10.2444 19.3254C10.081 19.5934 9.91966 19.7797 9.79371 19.903ZM11.7567 13.0014C12.5656 11.7925 13.9404 11 15.5 11C17.9853 11 20 13.0147 20 15.5C20 17.9853 17.9853 20 15.5 20C14.1801 20 12.9941 19.4331 12.1696 18.5263C11.4421 17.7264 11 16.666 11 15.5C11 14.5738 11.2787 13.7158 11.7567 13.0014Z" fill="#2B2D34"/>
</svg>
