<svg width="24" height="24" viewBox="0 0 24 24" fill="none" xmlns="http://www.w3.org/2000/svg">
<path fill-rule="evenodd" clip-rule="evenodd" d="M5.0002 13.3599C5.07155 13.2784 5.16136 13.1793 5.26906 13.0669C5.59605 12.7257 6.08301 12.2672 6.71337 11.8087C7.97793 10.8891 9.77573 10 12.0002 10C14.2247 10 16.0225 10.8891 17.287 11.8087C17.9174 12.2672 18.4043 12.7257 18.7313 13.0669C18.839 13.1793 18.9288 13.2784 19.0002 13.3599V16H21.0002L21.0002 9C21.0002 8.78363 20.93 8.5731 20.8002 8.4L20.7991 8.39856L20.7978 8.39676L20.7942 8.39206L20.7837 8.37835C20.7752 8.36733 20.7638 8.35259 20.7493 8.33438C20.7205 8.29795 20.6798 8.24757 20.6275 8.18525C20.523 8.06069 20.3716 7.88792 20.1753 7.68309C19.7835 7.2743 19.208 6.73282 18.4634 6.19126C16.9779 5.11094 14.7757 4 12.0002 4C9.22467 4 7.02246 5.11094 5.53702 6.19126C4.79238 6.73282 4.21685 7.2743 3.82508 7.68309C3.62879 7.88792 3.47744 8.06069 3.37289 8.18525C3.32059 8.24757 3.2799 8.29795 3.25106 8.33438L3.22188 8.37184C3.21332 8.38288 3.20859 8.38899 3.21669 8.37835L3.2062 8.39206L3.20263 8.39676L3.20127 8.39856C3.07145 8.57166 3.0002 8.78363 3.0002 9V16H5.0002V13.3599ZM5.26906 9.06691C5.16136 9.17928 5.07155 9.27839 5.0002 9.35986V10.6037C5.16796 10.4677 5.34699 10.3295 5.53702 10.1913C6.21381 9.69905 7.03939 9.20049 8.0002 8.80353V7.00848C7.52469 7.25675 7.09478 7.53135 6.71337 7.80874C6.08301 8.26718 5.59605 8.7257 5.26906 9.06691ZM10.0002 6.24476V8.19599C10.6284 8.07155 11.2958 8 12.0002 8C12.7046 8 13.372 8.07155 14.0002 8.19599V6.24476C13.3795 6.09095 12.7117 6 12.0002 6C11.2887 6 10.6209 6.09095 10.0002 6.24476ZM18.4634 10.1913C17.7866 9.69905 16.961 9.20049 16.0002 8.80353V7.00848C16.4757 7.25675 16.9056 7.53135 17.287 7.80874C17.9174 8.26718 18.4043 8.7257 18.7313 9.06691C18.839 9.17928 18.9288 9.27839 19.0002 9.35986V10.6037C18.8324 10.4677 18.6534 10.3295 18.4634 10.1913Z" fill="#2B2D34"/>
<path d="M16.4925 18.2812C15.8776 18.6325 15.1228 18.6325 14.5079 18.2812L13.9848 17.9822C12.755 17.2795 11.2454 17.2795 10.0157 17.9822L9.4925 18.2812C8.87763 18.6325 8.12281 18.6325 7.50794 18.2812L6.89037 17.9283C5.72917 17.2647 4.31318 17.2254 3.11696 17.8235L2.55301 18.1055C2.05903 18.3525 1.8588 18.9532 2.10579 19.4471C2.35278 19.9411 2.95345 20.1413 3.44743 19.8944L4.01139 19.6124C4.6095 19.3133 5.31749 19.333 5.89809 19.6647L6.51567 20.0176C7.7454 20.7204 9.25505 20.7204 10.4848 20.0176L11.0079 19.7187C11.6228 19.3673 12.3776 19.3673 12.9925 19.7187L13.5157 20.0176C14.7454 20.7204 16.255 20.7204 17.4848 20.0177L18.1024 19.6648C18.683 19.333 19.3909 19.3133 19.9891 19.6124L20.553 19.8944C21.047 20.1413 21.6477 19.9411 21.8946 19.4471C22.1416 18.9532 21.9414 18.3525 21.4474 18.1055L20.8835 17.8235C19.6873 17.2254 18.2713 17.2647 17.1101 17.9283L16.4925 18.2812Z" fill="#2B2D34"/>
<path d="M8.0002 16C9.0002 16 9.00019 16.0013 9.00019 16.0013L9.00019 16.0025L9.00018 16.0047L9.00015 16.0084L9.00009 16.0129L9.00019 16.0107C9.00046 16.0044 9.0013 15.9891 9.0035 15.9659C9.00795 15.9192 9.01775 15.8433 9.03888 15.7482C9.08173 15.5554 9.16686 15.3028 9.33225 15.0547C9.62411 14.6169 10.2915 14 12.0002 14C13.7089 14 14.3763 14.6169 14.6681 15.0547C14.8335 15.3028 14.9187 15.5554 14.9615 15.7482C14.9826 15.8433 14.9924 15.9192 14.9969 15.9659C14.9991 15.9891 14.9999 16.0044 15.0002 16.0107C15.0003 16.0127 15.0003 16.0138 15.0003 16.0138L15.0002 16.0084L15.0002 16.0047L15.0002 16.0025L15.0002 16.0013C15.0002 16.0013 15.0002 16 16.0002 16C17.0002 16 17.0002 15.9987 17.0002 15.9987L17.0002 15.9972L17.0002 15.9942L17.0001 15.9872L16.9998 15.9699C16.9996 15.9568 16.9991 15.9408 16.9982 15.9219C16.9966 15.8842 16.9935 15.8352 16.9879 15.7763C16.9767 15.6589 16.9552 15.5005 16.9139 15.3143C16.8317 14.9446 16.6669 14.4472 16.3322 13.9453C15.6241 12.8831 14.2915 12 12.0002 12C9.70889 12 8.37628 12.8831 7.66815 13.9453C7.33354 14.4472 7.16866 14.9446 7.08651 15.3143C7.04514 15.5005 7.02369 15.6589 7.01251 15.7763C7.00691 15.8352 7.00383 15.8842 7.00216 15.9219C7.00132 15.9408 7.00083 15.9568 7.00055 15.9699L7.00027 15.9872L7.00021 15.9942L7.0002 15.9972L7.0002 15.9987C7.0002 15.9987 7.0002 16 8.0002 16Z" fill="#2B2D34"/>
</svg>
