<svg width="24" height="24" viewBox="0 0 24 24" fill="none" xmlns="http://www.w3.org/2000/svg">
<path d="M10.0681 10.5176C9.97728 10.1785 9.97728 9.82148 10.0681 9.48236C10.159 9.14325 10.3375 8.83403 10.5858 8.58579C10.834 8.33754 11.1433 8.15902 11.4824 8.06815C11.8215 7.97729 12.1785 7.97729 12.5176 8.06815L13.0353 6.1363C12.3571 5.95457 11.6429 5.95457 10.9647 6.1363C10.2865 6.31803 9.66807 6.67508 9.17157 7.17157C8.67508 7.66807 8.31803 8.2865 8.1363 8.96473C7.95457 9.64295 7.95457 10.3571 8.1363 11.0353L10.0681 10.5176Z" fill="#2B2D34"/>
<path fill-rule="evenodd" clip-rule="evenodd" d="M7.12991 3.65317C8.52706 2.5811 10.2389 2 12 2C13.7611 2 15.4729 2.5811 16.8701 3.65317C18.2672 4.72525 19.2716 6.22838 19.7274 7.92945C20.1832 9.63051 20.065 11.4344 19.391 13.0615C18.8726 14.3132 18.0475 15.4063 17 16.245V17C17 18.1046 16.1046 19 15 19H9C7.89543 19 7 18.1046 7 17V16.245C5.95251 15.4063 5.12744 14.3132 4.60897 13.0615C3.93503 11.4344 3.8168 9.63052 4.2726 7.92945C4.7284 6.22838 5.73276 4.72525 7.12991 3.65317ZM12 4C10.6792 4 9.3953 4.43582 8.34743 5.23988C7.29957 6.04394 6.5463 7.17129 6.20445 8.44709C5.8626 9.72289 5.95128 11.0758 6.45673 12.2961C6.89718 13.3594 7.63266 14.2703 8.57142 14.9239L9 15.2223V17H15V15.2223L15.4286 14.9239C16.3673 14.2703 17.1028 13.3594 17.5433 12.2961C18.0487 11.0758 18.1374 9.72289 17.7956 8.44709C17.4537 7.17129 16.7004 6.04393 15.6526 5.23988C14.6047 4.43582 13.3208 4 12 4Z" fill="#2B2D34"/>
<path d="M15 23H9V21H15V23Z" fill="#2B2D34"/>
</svg>
