<svg width="24" height="24" viewBox="0 0 24 24" fill="none" xmlns="http://www.w3.org/2000/svg">
<path fill-rule="evenodd" clip-rule="evenodd" d="M4.10557 6.55279C4.27497 6.214 4.62123 6 5 6H8V8H5.61804L4.61804 10H19.382L18.382 8H17V6H19C19.3788 6 19.725 6.214 19.8944 6.55279L21.8944 10.5528C22.0494 10.8628 22.0329 11.2309 21.8507 11.5257C21.6684 11.8205 21.3466 12 21 12H3C2.65342 12 2.33156 11.8205 2.14935 11.5257C1.96714 11.2309 1.95058 10.8628 2.10557 10.5528L4.10557 6.55279Z" fill="#2B2D34"/>
<path fill-rule="evenodd" clip-rule="evenodd" d="M3 21V14H5V20H7L7 15C7 14.4477 7.44772 14 8 14H16C16.5523 14 17 14.4477 17 15L17 20H19V14H21V21C21 21.5523 20.5523 22 20 22H4C3.44772 22 3 21.5523 3 21ZM11 20H9L9 16H11V20ZM13 20H15L15 16H13V20Z" fill="#2B2D34"/>
<path fill-rule="evenodd" clip-rule="evenodd" d="M9 2H15V3H17V5H15C15 5.39397 14.9224 5.78407 14.7716 6.14805C14.6209 6.51203 14.3999 6.84274 14.1213 7.12132C13.8427 7.3999 13.512 7.62087 13.1481 7.77164C12.7841 7.9224 12.394 8 12 8C11.606 8 11.2159 7.9224 10.852 7.77164C10.488 7.62087 10.1573 7.3999 9.87868 7.12132C9.60011 6.84274 9.37913 6.51203 9.22836 6.14805C9.0776 5.78407 9 5.39397 9 5V2ZM13 4H11V5C11 5.13132 11.0259 5.26136 11.0761 5.38268C11.1264 5.50401 11.2 5.61425 11.2929 5.70711C11.3858 5.79997 11.496 5.87362 11.6173 5.92388C11.7386 5.97413 11.8687 6 12 6C12.1313 6 12.2614 5.97413 12.3827 5.92388C12.504 5.87362 12.6142 5.79997 12.7071 5.70711C12.8 5.61425 12.8736 5.50401 12.9239 5.38268C12.9741 5.26136 13 5.13132 13 5V4Z" fill="#2B2D34"/>
</svg>
