<svg width="24" height="24" viewBox="0 0 24 24" fill="none" xmlns="http://www.w3.org/2000/svg">
<path fill-rule="evenodd" clip-rule="evenodd" d="M22.7716 3.85195C22.9224 4.21593 23 4.60603 23 5C23 5.39397 22.9224 5.78407 22.7716 6.14805C22.6209 6.51203 22.3999 6.84274 22.1213 7.12132C21.8427 7.3999 21.512 7.62087 21.1481 7.77164C20.7841 7.9224 20.394 8 20 8H17V9H21V11H17V14H15V11H14V9H15V8H14V6H15V2H20C20.394 2 20.7841 2.0776 21.1481 2.22836C21.512 2.37913 21.8427 2.6001 22.1213 2.87868C22.3999 3.15726 22.6209 3.48797 22.7716 3.85195ZM17 6H20C20.1313 6 20.2614 5.97413 20.3827 5.92388C20.504 5.87363 20.6142 5.79997 20.7071 5.70711C20.8 5.61425 20.8736 5.50401 20.9239 5.38268C20.9741 5.26136 21 5.13132 21 5C21 4.86868 20.9741 4.73864 20.9239 4.61732C20.8736 4.49599 20.8 4.38575 20.7071 4.29289C20.6142 4.20003 20.504 4.12637 20.3827 4.07612C20.2614 4.02587 20.1313 4 20 4H17V6Z" fill="#2B2D34"/>
<path d="M4 5H2V7H4V5Z" fill="#2B2D34"/>
<path d="M4 21V22H6V21C7.65685 21 9 19.6569 9 18C9 16.3431 7.65685 15 6 15H4C3.44772 15 3 14.5523 3 14C3 13.4477 3.44772 13 4 13H6C6.55228 13 7 13.4477 7 14H9C9 12.3431 7.65685 11 6 11V10H4V11C2.34315 11 1 12.3431 1 14C1 15.6569 2.34315 17 4 17H6C6.55228 17 7 17.4477 7 18C7 18.5523 6.55228 19 6 19H4C3.44772 19 3 18.5523 3 18H1C1 19.6569 2.34315 21 4 21Z" fill="#2B2D34"/>
<path d="M14 18H12V20H14V18Z" fill="#2B2D34"/>
<path d="M6 5H8V7H6V5Z" fill="#2B2D34"/>
<path d="M12 5H10V7H12V5Z" fill="#2B2D34"/>
<path d="M18 18H16V20H18V18Z" fill="#2B2D34"/>
<path d="M20 18H22V20H20V18Z" fill="#2B2D34"/>
</svg>
