<svg width="24" height="24" viewBox="0 0 24 24" fill="none" xmlns="http://www.w3.org/2000/svg">
<path d="M1.29289 4.29297L4.79289 0.792969L6.20711 2.20718L4.41421 4.00008H10V6.00008H4.41421L6.20711 7.79297L4.79289 9.20718L1.29289 5.70718C1.10536 5.51965 1 5.26529 1 5.00008C1 4.73486 1.10536 4.48051 1.29289 4.29297Z" fill="#2B2D34"/>
<path d="M19.2071 14.793L22.7071 18.293C22.8946 18.4805 23 18.7349 23 19.0001C23 19.2653 22.8946 19.5196 22.7071 19.7072L19.2071 23.2072L17.7929 21.793L19.5858 20.0001H14V18.0001H19.5858L17.7929 16.2072L19.2071 14.793Z" fill="#2B2D34"/>
<path d="M2 15C2 13.3431 3.34315 12 5 12V11H7V12C8.65685 12 10 13.3431 10 15H8C8 14.4477 7.55228 14 7 14H5C4.44772 14 4 14.4477 4 15C4 15.5523 4.44772 16 5 16H7C8.65685 16 10 17.3431 10 19C10 20.6569 8.65685 22 7 22V23H5V22C3.34315 22 2 20.6569 2 19H4C4 19.5523 4.44772 20 5 20H7C7.55228 20 8 19.5523 8 19C8 18.4477 7.55228 18 7 18H5C3.34315 18 2 16.6569 2 15Z" fill="#2B2D34"/>
<path d="M19.4887 3.04008C18.8702 2.93797 18.2353 3.03215 17.6731 3.30939C17.111 3.58663 16.6497 4.033 16.3542 4.58582C16.2827 4.71968 16.2217 4.85816 16.1716 5H20L19 7H16.1716C16.3089 7.38852 16.5257 7.74675 16.8104 8.05078C17.2389 8.50828 17.7999 8.82007 18.4147 8.94236C19.0295 9.06465 19.6672 8.99129 20.2381 8.7326C20.8091 8.4739 21.2847 8.04286 21.5981 7.5L23.3301 8.5C22.8078 9.40476 22.0151 10.1232 21.0635 10.5543C20.1119 10.9855 19.0492 11.1077 18.0246 10.9039C16.9999 10.7001 16.0648 10.1805 15.3507 9.41796C14.717 8.74139 14.2855 7.90378 14.101 7H12L13 5H14.101C14.1971 4.5292 14.3612 4.07191 14.5904 3.64302C15.0829 2.72166 15.8516 1.97771 16.7886 1.51564C17.7255 1.05357 18.7837 0.896609 19.8145 1.06679C20.8452 1.23697 21.7968 1.72574 22.5355 2.46447L21.1213 3.87868C20.6781 3.43545 20.1071 3.14218 19.4887 3.04008Z" fill="#2B2D34"/>
</svg>
