<svg width="24" height="24" viewBox="0 0 24 24" fill="none" xmlns="http://www.w3.org/2000/svg">
<path fill-rule="evenodd" clip-rule="evenodd" d="M8 3V5H4C3.44772 5 3 5.44772 3 6V13H19V19H12V21H20C20.5523 21 21 20.5523 21 20V6C21 5.44772 20.5523 5 20 5H16V3H14V5H10V3H8ZM19 7H16V9H14V7H10V9H8V7H5V11H19V7Z" fill="#2B2D34"/>
<path d="M17 16C17 16.5523 16.5523 17 16 17C15.4477 17 15 16.5523 15 16C15 15.4477 15.4477 15 16 15C16.5523 15 17 15.4477 17 16Z" fill="#2B2D34"/>
<path d="M5 18V15H7V18H10V20H7V23H5V20H2V18H5Z" fill="#2B2D34"/>
</svg>
