<svg width="24" height="24" viewBox="0 0 24 24" fill="none" xmlns="http://www.w3.org/2000/svg">
<path fill-rule="evenodd" clip-rule="evenodd" d="M7.99989 5V3H9.99989V5H13.9999V3H15.9999V5H19.9999C20.5522 5 20.9999 5.44772 20.9999 6V20C20.9999 20.5523 20.5522 21 19.9999 21H11.9999V19H18.9999V13H2.99989V6C2.99989 5.44772 3.4476 5 3.99989 5H7.99989ZM15.9999 7H18.9999V11H4.99989V7H7.99989V9H9.99989V7H13.9999V9H15.9999V7ZM15.9999 17C16.5522 17 16.9999 16.5523 16.9999 16C16.9999 15.4477 16.5522 15 15.9999 15C15.4476 15 14.9999 15.4477 14.9999 16C14.9999 16.5523 15.4476 17 15.9999 17ZM8.12121 15.4646L5.99989 17.5859L3.87857 15.4646L2.46436 16.8788L4.58568 19.0001L2.46436 21.1214L3.87857 22.5357L5.99989 20.4143L8.12121 22.5357L9.53542 21.1214L7.4141 19.0001L9.53542 16.8788L8.12121 15.4646Z" fill="#2B2D34"/>
</svg>
