<svg width="24" height="24" viewBox="0 0 24 24" fill="none" xmlns="http://www.w3.org/2000/svg">
<path fill-rule="evenodd" clip-rule="evenodd" d="M12.5 14.9142L9.70706 17.7071L8.29285 16.2929L10.5858 14L8.29294 11.7071L9.70715 10.2929L12.5 13.0858L15.2928 10.2929L16.7071 11.7071L14.4142 14L16.7072 16.2929L15.2929 17.7071L12.5 14.9142Z" fill="#2B2D34"/>
<path fill-rule="evenodd" clip-rule="evenodd" d="M11.4142 3C10.8837 3 10.375 3.21071 9.99995 3.58579L4.29289 9.29289C4.10536 9.48043 4 9.73478 4 10V20C4 20.5523 4.44772 21 5 21H20C20.5523 21 21 20.5523 21 20V8C21 7.99677 21 7.99355 21 7.99033V5C21 3.89543 20.1045 3 19 3H11.4142ZM19 7V5H11.4142L9.41417 7H19ZM7.41421 9L6 10.4142V19H19V9H7.41421Z" fill="#2B2D34"/>
<path d="M3.70706 7.70712L6.70706 4.70712L5.29285 3.29291L2.29285 6.29291L3.70706 7.70712Z" fill="#2B2D34"/>
</svg>
