<svg width="24" height="24" viewBox="0 0 24 24" fill="none" xmlns="http://www.w3.org/2000/svg">
<path fill-rule="evenodd" clip-rule="evenodd" d="M20.4475 16.8944L20.0003 17.118V21C20.0003 21.5523 19.5526 22 19.0003 22H15.0003C14.448 22 14.0003 21.5523 14.0003 21V20H7.00027V21C7.00027 21.5523 6.55256 22 6.00027 22H2.00027C1.44799 22 1.00027 21.5523 1.00027 21V15.0235C0.999909 15.008 0.999907 14.9924 1.00027 14.9768V14.3333C1.00027 13.2986 1.57123 12.4819 2.00698 11.9977C2.18807 11.7965 2.36745 11.6286 2.51829 11.4989C2.56602 10.6811 2.71398 9.25173 3.02588 7.90014C3.22123 7.05363 3.49731 6.16235 3.89621 5.45952C4.27041 4.80022 4.93592 4 6.00027 4H12.5048C12.5185 3.69877 12.563 3.39835 12.6388 3.10405C12.8653 2.22331 13.3614 1.43512 14.063 0.869221C14.7659 0.302289 15.6342 -0.00762443 16.5332 0.000142532C17.4322 0.00790914 18.2952 0.332737 18.9888 0.911243C19.6811 1.4887 20.1649 2.2848 20.378 3.169C20.3928 3.2306 20.4063 3.29245 20.4184 3.35449C20.651 3.41814 20.8684 3.48528 21.0665 3.55132C21.4725 3.68663 21.8112 3.82206 22.0504 3.9246C22.1703 3.97599 22.2659 4.01941 22.3333 4.05085C22.367 4.06658 22.3937 4.07933 22.4129 4.08861L22.436 4.09987L22.4432 4.10344L22.4457 4.10469L22.4475 4.10557C22.7863 4.27496 23.0003 4.62123 23.0003 5V10C23.0003 10.3788 22.7863 10.725 22.4475 10.8944L21.0003 11.618V16C21.0003 16.3788 20.7863 16.725 20.4475 16.8944ZM6.00416 6H13.0003V10C13.0003 10.3788 13.2143 10.725 13.5531 10.8944L13.7642 11H4.56215C4.62961 10.2744 4.75799 9.28881 4.97467 8.34986C5.15432 7.57137 5.37824 6.90015 5.63559 6.44673C5.76307 6.22211 5.87294 6.09764 5.94783 6.03701C5.9794 6.01145 5.99838 6.00243 6.00416 6ZM3.84026 13H15.0003V16C15.0003 16.3788 15.2143 16.725 15.5531 16.8944L17.5531 17.8944C17.6938 17.9648 17.847 18 18.0003 18V20H16.0003V18H5.00027V20H3.00027V16.3874L4.68404 16.9487C5.20799 17.1233 5.77431 16.8402 5.94895 16.3162C6.1236 15.7923 5.84044 15.226 5.3165 15.0513L3.00214 14.2799C3.02191 13.9934 3.19789 13.6642 3.49357 13.3356C3.61475 13.201 3.73786 13.087 3.84026 13ZM15.3186 2.42595C15.671 2.14175 16.092 1.99641 16.5159 2.00007C16.9399 2.00373 17.3591 2.15638 17.7077 2.44712C17.8917 2.60056 18.0508 2.78841 18.1772 3.00221C18.1183 3.00075 18.0593 3 18.0003 3C16.849 3 15.734 3.28468 14.934 3.55132C14.8005 3.59585 14.6741 3.64039 14.5563 3.68377C14.5623 3.65654 14.5687 3.62939 14.5757 3.60234C14.6992 3.12224 14.965 2.71117 15.3186 2.42595ZM18.3586 5.01215C18.3497 5.03682 18.3403 5.06136 18.3306 5.08573C18.136 5.57137 17.8421 5.92923 17.4867 6.14195C17.0128 6.42558 16.8586 7.03967 17.1422 7.51356C17.4258 7.98745 18.0399 8.14168 18.5138 7.85805C19.3121 7.38024 19.8617 6.64159 20.1871 5.82965C20.2417 5.69344 20.2891 5.55483 20.3295 5.41444C20.3648 5.42579 20.3996 5.43722 20.434 5.44868C20.6474 5.51981 20.8385 5.59089 21.0002 5.65489V9.38197L19.553 10.1056C19.2142 10.275 19.0002 10.6212 19.0002 11V15.382L18.0002 15.882L17.0002 15.382V11C17.0002 10.6212 16.7862 10.275 16.4475 10.1056L15.0002 9.38197V5.65489C15.162 5.59089 15.3531 5.51981 15.5665 5.44868C16.2666 5.21532 17.1515 5 18.0002 5C18.1192 5 18.2389 5.00423 18.3586 5.01215Z" fill="#2B2D34"/>
</svg>
