<svg width="24" height="24" viewBox="0 0 24 24" fill="none" xmlns="http://www.w3.org/2000/svg">
<path fill-rule="evenodd" clip-rule="evenodd" d="M10.0002 2C9.57706 2 9.27164 2.21693 9.11754 2.34893C8.94597 2.49589 8.80642 2.67185 8.69778 2.82845C8.47747 3.14604 8.27835 3.53989 8.11563 3.91034C7.94963 4.28826 7.80384 4.68253 7.6978 5.02268C7.64482 5.19262 7.59889 5.3582 7.5652 5.50773C7.53577 5.63832 7.50024 5.82152 7.50024 6H9.50024C9.50024 6.0217 9.49929 6.03391 9.49929 6.03391C9.49929 6.03391 9.50265 6.00786 9.51628 5.94735C9.53496 5.86446 9.56515 5.7527 9.60716 5.61795C9.69109 5.34872 9.81078 5.02424 9.94676 4.71466C10.0775 4.41695 10.2084 4.16742 10.3197 4H17.7745C17.8024 4.03747 17.837 4.0882 17.8771 4.15512C18.0571 4.45503 18.2487 4.90767 18.4266 5.44123C18.6006 5.96322 18.7469 6.51862 18.8492 7H16.5002L17.5002 9H19.5402C19.5816 9.05467 19.625 9.11499 19.6682 9.17969C19.7336 9.27784 19.7898 9.37331 19.8363 9.46425L18.5532 10.1058C18.0593 10.3528 17.859 10.9535 18.106 11.4474C18.353 11.9414 18.9537 12.1416 19.4477 11.8946L20.0002 11.6184V14H17.2846C17.1739 13.8393 17.0659 13.7009 16.9749 13.5912C16.9423 13.2901 16.881 12.9403 16.8066 12.5894C16.6902 12.0405 16.5244 11.4102 16.3239 10.8088C16.1268 10.2173 15.8809 9.60747 15.5921 9.12613C15.4489 8.88739 15.2689 8.63555 15.0442 8.43229C14.8248 8.23381 14.4702 8 14.0002 8H6.00024C5.53028 8 5.17565 8.23381 4.95628 8.43229C4.73163 8.63555 4.55162 8.88739 4.40838 9.12613C4.11957 9.60747 3.87371 10.2173 3.67656 10.8088C3.47609 11.4102 3.31031 12.0405 3.19388 12.5894C3.11945 12.9403 3.05817 13.2901 3.0256 13.5912C2.92158 13.7166 2.7954 13.8795 2.66819 14.0703C2.3885 14.4898 2.00976 15.182 2.00042 15.9703C1.99993 15.9873 1.99987 16.0043 2.00024 16.0213V21C2.00024 21.5523 2.44796 22 3.00024 22H7.00024C7.55253 22 8.00024 21.5523 8.00024 21H12.0002C12.0002 21.5523 12.448 22 13.0002 22H17.0002C17.5525 22 18.0002 21.5523 18.0002 21V16.0189C18.0004 16.0126 18.0004 16.0063 18.0004 16H21.0002C21.5525 16 22.0002 15.5522 22.0002 15V10.03C22.0009 10.0066 22.0008 9.98323 21.9999 9.9598C21.9873 9.17588 21.6107 8.48799 21.3323 8.07031C21.2051 7.8795 21.0789 7.71661 20.9749 7.59123C20.9423 7.29007 20.881 6.94027 20.8066 6.58937C20.6902 6.04051 20.5244 5.41019 20.3239 4.80877C20.1268 4.21733 19.8809 3.60747 19.5921 3.12613C19.4489 2.88739 19.2689 2.63555 19.0442 2.43229C18.8248 2.23381 18.4702 2 18.0002 2H10.0002ZM4.55301 17.8944L4.00024 17.6181V20H6.00024V19H14.0002V20H16.0002V17.618L15.4474 17.8944C14.9535 18.1414 14.3528 17.9412 14.1058 17.4472C13.8588 16.9532 14.059 16.3526 14.553 16.1056L15.8362 15.464C15.7897 15.3731 15.7336 15.2777 15.6682 15.1797C15.6251 15.115 15.5816 15.0547 15.5402 15H4.46031C4.41886 15.0547 4.37543 15.115 4.33229 15.1797C4.26692 15.2778 4.21079 15.3731 4.16426 15.464L5.44743 16.1056C5.94141 16.3526 6.14164 16.9532 5.89465 17.4472C5.64766 17.9412 5.04698 18.1414 4.55301 17.8944ZM14.4266 11.4412C14.6006 11.9632 14.7469 12.5186 14.8492 13H5.15128C5.25357 12.5186 5.39993 11.9632 5.57393 11.4412C5.75178 10.9077 5.94342 10.455 6.12336 10.1551C6.16351 10.0882 6.19805 10.0375 6.22595 10H13.7745C13.8024 10.0375 13.837 10.0882 13.8771 10.1551C14.0571 10.455 14.2487 10.9077 14.4266 11.4412Z" fill="#2B2D34"/>
</svg>
