<svg width="24" height="24" viewBox="0 0 24 24" fill="none" xmlns="http://www.w3.org/2000/svg">
<path fill-rule="evenodd" clip-rule="evenodd" d="M17.9999 7H18.4999V10C18.4999 10.5523 18.9477 11 19.4999 11H21.9999V9H20.4999V7H20.9999C21.5522 7 21.9999 6.55228 21.9999 6V4C21.9999 3.98737 21.9999 3.99852 21.9999 3.99852L21.9999 3.99701L21.9999 3.99391L21.9999 3.98737L21.9996 3.97294C21.9994 3.96274 21.999 3.95134 21.9983 3.93883C21.9971 3.91384 21.9949 3.88418 21.9913 3.8505C21.9841 3.78346 21.9709 3.69843 21.9466 3.60121C21.8983 3.40788 21.8027 3.15366 21.6124 2.9C21.1973 2.3465 20.4939 2 19.4999 2C18.5059 2 17.8026 2.3465 17.3874 2.9C17.1972 3.15366 17.1016 3.40788 17.0532 3.60121C17.0289 3.69843 17.0157 3.78346 17.0086 3.8505C17.005 3.88418 17.0028 3.91384 17.0016 3.93883C17.0009 3.95134 17.0006 3.96274 17.0004 3.97294L17 3.98737L17 3.99391L16.9999 3.99701L16.9999 3.99852C16.9999 3.99852 16.9999 3.9981 16.9999 3.99701L16.9999 4V6C16.9999 6.55228 17.4477 7 17.9999 7ZM19.4999 4C19.1867 4 19.0495 4.05883 18.9999 4.09096V5H19.9999V4.09096C19.9504 4.05883 19.8132 4 19.4999 4Z" fill="#2B2D34"/>
<path d="M17.0004 3.97294C17.0001 3.99006 17 3.99514 16.9999 3.99701L17.0004 3.97294Z" fill="#2B2D34"/>
<path fill-rule="evenodd" clip-rule="evenodd" d="M6.6594 6C5.85934 6 5.13626 6.47679 4.82111 7.21216L2.16171 13.4174C2.05502 13.6664 2 13.9344 2 14.2053V18C2 18.7828 2.44969 19.4605 3.10483 19.789C3.45122 21.0631 4.61619 22 6 22C7.30622 22 8.41746 21.1652 8.82929 20H15.1707C15.5825 21.1652 16.6938 22 18 22C19.3838 22 20.5488 21.0631 20.8952 19.789C21.5503 19.4605 22 18.7828 22 18V14.7808C22 13.863 21.3754 13.0631 20.4851 12.8405L17.6887 12.1414L15.1708 7.10557C14.832 6.428 14.1395 6 13.382 6H6.6594ZM6 16C5.23165 16 4.53076 16.2889 4 16.7639V14.2053L4.08797 14H16.95C17.0322 14.0326 17.1169 14.06 17.2037 14.0817L20 14.7808V16.7639C19.4692 16.2889 18.7684 16 18 16C16.6938 16 15.5825 16.8348 15.1707 18H8.82929C8.41746 16.8348 7.30622 16 6 16ZM15.382 12L13.382 8H12V12H15.382ZM10 8H6.6594L4.94511 12H10V8ZM17 19C17 18.4477 17.4477 18 18 18C18.5523 18 19 18.4477 19 19C19 19.5523 18.5523 20 18 20C17.4477 20 17 19.5523 17 19ZM6 18C5.44772 18 5 18.4477 5 19C5 19.5523 5.44772 20 6 20C6.55228 20 7 19.5523 7 19C7 18.4477 6.55228 18 6 18Z" fill="#2B2D34"/>
</svg>
