<svg width="24" height="24" viewBox="0 0 24 24" fill="none" xmlns="http://www.w3.org/2000/svg">
<path d="M13.2072 12.7071L22.2072 3.70712L20.793 2.29291L11.793 11.2929L13.2072 12.7071Z" fill="#2B2D34"/>
<path d="M11 4.5C11 3.39543 11.8954 2.5 13 2.5C14.1046 2.5 15 3.39543 15 4.5C15 5.60457 14.1046 6.5 13 6.5C11.8954 6.5 11 5.60457 11 4.5Z" fill="#2B2D34"/>
<path d="M7 3C5.93564 3 5.27014 3.80022 4.89594 4.45952C4.49703 5.16235 4.22096 6.05363 4.02561 6.90014C3.7137 8.25173 3.56574 9.68106 3.51802 10.4989C3.36718 10.6286 3.1878 10.7965 3.00671 10.9977C2.57096 11.4819 2 12.2986 2 13.3333V13.9781C1.99967 13.9928 1.99968 14.0075 2 14.0221V20C2 20.5523 2.44772 21 3 21H7C7.55228 21 8 20.5523 8 20V19H16V20C16 20.5523 16.4477 21 17 21H21C21.5523 21 22 20.5523 22 20V14.3333H20V19H18V17H6V19H4V15.3874L5.6838 15.9487C6.20774 16.1233 6.77406 15.8402 6.94871 15.3162C7.12336 14.7923 6.8402 14.226 6.31625 14.0513L4.00187 13.2799C4.02164 12.9934 4.19762 12.6642 4.49329 12.3356C4.61447 12.201 4.73759 12.087 4.83999 12H10V10H5.56188C5.62934 9.27438 5.75771 8.28881 5.97439 7.34986C6.15404 6.57137 6.37797 5.90015 6.63531 5.44673C6.7628 5.22211 6.87267 5.09764 6.94756 5.03701C6.97913 5.01145 6.9981 5.00243 7.00388 5H9V3H7Z" fill="#2B2D34"/>
<path d="M21 8.5C19.8954 8.5 19 9.39543 19 10.5C19 11.6046 19.8954 12.5 21 12.5C22.1046 12.5 23 11.6046 23 10.5C23 9.39543 22.1046 8.5 21 8.5Z" fill="#2B2D34"/>
</svg>
