<svg width="24" height="24" viewBox="0 0 24 24" fill="none" xmlns="http://www.w3.org/2000/svg">
<path fill-rule="evenodd" clip-rule="evenodd" d="M5 3C3.34315 3 2 4.34315 2 6V9H20L20 16C20 16.5523 19.5523 17 19 17L16 17V19L19 19C20.6569 19 22 17.6569 22 16L22 6C22 4.34315 20.6569 3 19 3H5ZM20 6V7L4 7V6C4 5.44772 4.44772 5 5 5H19C19.5523 5 20 5.44772 20 6Z" fill="#2B2D34"/>
<path d="M12 17C10.8954 17 10 17.8954 10 19C10 20.1046 10.8954 21 12 21C13.1046 21 14 20.1046 14 19C14 17.8954 13.1046 17 12 17Z" fill="#2B2D34"/>
<path d="M2 13C2 11.8954 2.89543 11 4 11C5.10457 11 6 11.8954 6 13C6 14.1046 5.10457 15 4 15C2.89543 15 2 14.1046 2 13Z" fill="#2B2D34"/>
<path d="M4.20706 21.2071L13.2071 12.2071L11.7928 10.7929L2.79285 19.7929L4.20706 21.2071Z" fill="#2B2D34"/>
</svg>
