<svg width="24" height="24" viewBox="0 0 24 24" fill="none" xmlns="http://www.w3.org/2000/svg">
<path d="M22 4C22 3.44772 21.5523 3 21 3H3C2.44772 3 2 3.44772 2 4L2 9H4V6.91465C4.15639 6.96992 4.32468 7 4.5 7C5.32843 7 6 6.32843 6 5.5C6 5.32468 5.96992 5.15639 5.91465 5L18.0854 5C18.0301 5.15639 18 5.32468 18 5.5C18 6.32843 18.6716 7 19.5 7C19.6753 7 19.8436 6.96992 20 6.91465V12.0854C19.8436 12.0301 19.6753 12 19.5 12C18.6716 12 18 12.6716 18 13.5C18 13.6753 18.0301 13.8436 18.0854 14L16 14V16L21 16C21.2652 16 21.5196 15.8946 21.7071 15.7071C21.8946 15.5196 22 15.2652 22 15V4Z" fill="#2B2D34"/>
<path d="M1.29289 16.293L6.29289 11.293L7.70711 12.7072L4.41429 16H14V18H4.41414L7.70711 21.293L6.29289 22.7072L1.29289 17.7072C0.902369 17.3167 0.902369 16.6835 1.29289 16.293Z" fill="#2B2D34"/>
</svg>
