<svg width="24" height="24" viewBox="0 0 24 24" fill="none" xmlns="http://www.w3.org/2000/svg">
<path d="M10 13.5C10 14.0523 9.55229 14.5 9 14.5C8.44771 14.5 8 14.0523 8 13.5C8 12.9477 8.44771 12.5 9 12.5C9.55229 12.5 10 12.9477 10 13.5Z" fill="#2B2D34"/>
<path d="M13 14.5C13.5523 14.5 14 14.0523 14 13.5C14 12.9477 13.5523 12.5 13 12.5C12.4477 12.5 12 12.9477 12 13.5C12 14.0523 12.4477 14.5 13 14.5Z" fill="#2B2D34"/>
<path fill-rule="evenodd" clip-rule="evenodd" d="M13 1C12.4477 1 12 1.44772 12 2V6C12 6.55228 12.4477 7 13 7H16V9H5C4.44772 9 4 9.44771 4 10V16H3C2.44772 16 2 16.4477 2 17V21C2 21.5523 2.44772 22 3 22H21C21.5523 22 22 21.5523 22 21V17C22 16.4477 21.5523 16 21 16H20V10C20 9.44771 19.5523 9 19 9H18V7H21C21.5523 7 22 6.55228 22 6V2C22 1.44772 21.5523 1 21 1H13ZM14 5V3H20V5H14ZM4 18H20V20H4V18ZM6 11H18V16H6V11Z" fill="#2B2D34"/>
</svg>
