<svg width="24" height="24" viewBox="0 0 24 24" fill="none" xmlns="http://www.w3.org/2000/svg">
<path d="M12 15C12.5523 15 13 14.5523 13 14C13 13.4477 12.5523 13 12 13C11.4477 13 11 13.4477 11 14C11 14.5523 11.4477 15 12 15Z" fill="#2B2D34"/>
<path d="M16 11C15.4477 11 15 10.5523 15 10C15 9.44771 15.4477 9 16 9C16.5523 9 17 9.44771 17 10C17 10.5523 16.5523 11 16 11Z" fill="#2B2D34"/>
<path d="M8 11C8.55229 11 9 10.5523 9 10C9 9.44771 8.55229 9 8 9C7.44772 9 7 9.44771 7 10C7 10.5523 7.44772 11 8 11Z" fill="#2B2D34"/>
<path fill-rule="evenodd" clip-rule="evenodd" d="M4.70711 1.29292C4.43389 1.0197 4.02771 0.928334 3.66381 1.05823C3.29991 1.18813 3.04341 1.51605 3.00496 1.90052L2.00496 11.9005C2.00166 11.9336 2 11.9668 2 12H0C0 13.1046 0.89543 14 2 14H2.20003C2.34123 14.6956 2.55463 15.365 2.83207 16H1C1 17.1046 1.89543 18 3 18H3.99925C5.82366 20.4289 8.72835 22 12 22C15.2716 22 18.1763 20.4289 20.0008 18H21C22.1046 18 23 17.1046 23 16H21.1679C21.4454 15.365 21.6588 14.6956 21.8 14H22C23.1046 14 24 13.1046 24 12H22C22 11.9668 21.9983 11.9336 21.995 11.9005L20.995 1.90052C20.9566 1.51605 20.7001 1.18813 20.3362 1.05823C19.9723 0.928334 19.5661 1.0197 19.2929 1.29292L15.5858 5.00003H8.41421L4.70711 1.29292ZM18.9298 16C19.2878 15.381 19.5654 14.7095 19.748 14H16C16 12.8954 16.8954 12 18 12H19.995L19.2149 4.1993L16.7071 6.70713C16.5196 6.89467 16.2652 7.00003 16 7.00003H8C7.73478 7.00003 7.48043 6.89467 7.29289 6.70713L4.78506 4.1993L4.00499 12H6C7.10457 12 8 12.8954 8 14H4.25203C4.43465 14.7095 4.71216 15.381 5.07024 16H7C8.10457 16 9 16.8954 9 18H6.70832C8.11859 19.2447 9.97109 20 12 20C14.0289 20 15.8814 19.2447 17.2917 18H15C15 16.8954 15.8954 16 17 16H18.9298Z" fill="#2B2D34"/>
</svg>
