<svg width="24" height="24" viewBox="0 0 24 24" fill="none" xmlns="http://www.w3.org/2000/svg">
<path d="M2 19C2 19.5523 2.44772 20 3 20H12V18H4L4 6L20 6V12H22V5C22 4.44771 21.5523 4 21 4H3C2.44772 4 2 4.44771 2 5V19Z" fill="#2B2D34"/>
<path d="M6 10H18V8H6V10Z" fill="#2B2D34"/>
<path d="M14 12H6V14H14V12Z" fill="#2B2D34"/>
<path fill-rule="evenodd" clip-rule="evenodd" d="M14.4453 15.168L17.4453 13.168C17.7812 12.944 18.2188 12.944 18.5547 13.168L21.5547 15.1679C21.8329 15.3534 22 15.6656 22 16V19C22 19.3344 21.8329 19.6466 21.5547 19.8321L18.5547 21.8321C18.2188 22.056 17.7812 22.056 17.4453 21.8321L14.4453 19.8321C14.1671 19.6466 14 19.3344 14 19L14 16C14 15.6656 14.1671 15.3534 14.4453 15.168ZM20 18.4648V16.5352L18 15.2019L16 16.5352V18.4648L18 19.7982L20 18.4648Z" fill="#2B2D34"/>
</svg>
