<svg width="24" height="24" viewBox="0 0 24 24" fill="none" xmlns="http://www.w3.org/2000/svg">
<path fill-rule="evenodd" clip-rule="evenodd" d="M21 4C21 3.44772 20.5523 3 20 3H4C3.44772 3 3 3.44772 3 4V18C3 18.5523 3.44772 19 4 19H7V21C7 21.824 7.94076 22.2944 8.6 21.8L12.3333 19H20C20.5523 19 21 18.5523 21 18V4ZM5 5H19V17H12C11.7836 17 11.5731 17.0702 11.4 17.2L9 19V18C9 17.4477 8.55228 17 8 17H5V5ZM10.5518 6.97559H13.4505L15.9311 15.0188H13.826L13.2075 13H10.765C10.5717 13.6132 10.3707 14.2524 10.1318 15.0188H8.05859L10.5518 6.97559ZM11.3947 11H12.5948L12 9.05862C11.7687 9.80487 11.573 10.4317 11.3947 11Z" fill="#2B2D34"/>
</svg>
