<svg width="24" height="24" viewBox="0 0 24 24" fill="none" xmlns="http://www.w3.org/2000/svg">
<path d="M7 12C7.55228 12 8 12.4477 8 13V19C8 19.5523 7.55228 20 7 20H3C2.44772 20 2 19.5523 2 19V13C2 12.4477 2.44772 12 3 12H7ZM21 4C21.5523 4 22 4.44772 22 5V19C22 19.5523 21.5523 20 21 20H17C16.4477 20 16 19.5523 16 19V5C16 4.44772 16.4477 4 17 4H21ZM14 8C14.5523 8 15 8.44772 15 9V19C15 19.5523 14.5523 20 14 20H10C9.44772 20 9 19.5523 9 19V9C9 8.44772 9.44772 8 10 8H14ZM6 14H4V18H6V14ZM20 6H18V18H20V6ZM13 10H11V18H13V10Z" fill="#2B2D34"/>
</svg>
