<svg width="24" height="24" viewBox="0 0 24 24" fill="none" xmlns="http://www.w3.org/2000/svg">
<path fill-rule="evenodd" clip-rule="evenodd" d="M2 3C2 2.44772 2.44772 2 3 2H21C21.5523 2 22 2.44772 22 3V19C22 19.5523 21.5523 20 21 20H12.3333L8.6 22.8C8.29698 23.0273 7.89157 23.0638 7.55279 22.8944C7.214 22.725 7 22.3788 7 22V20H3C2.44772 20 2 19.5523 2 19V3ZM8.3117 16.3L11.9572 12.6238L15.6027 16.3L17.0489 14.843L13.4029 11.1656L14.1634 10.398V8.88247L14.692 8.3492V9.67086L15.1515 10.1347L17 8.27005L17.4572 8.73097C17.4537 8.38325 17.3849 7.37691 16.5384 6.53789C15.6251 5.65175 14.6388 6.05101 14.3016 6.39155L12.4545 8.25532L12.9256 8.73005L11.9572 9.70731L10.9886 8.73005L11.4598 8.25532L9.61246 6.39155C9.27518 6.05101 8.28888 5.65175 7.37559 6.53789C6.52928 7.37691 6.46048 8.38325 6.45719 8.73097L6.91439 8.27005L8.76268 10.1347L9.22243 9.67086V8.3492L9.75062 8.88247V10.398L10.5112 11.1656L6.86529 14.843L8.3117 16.3Z" fill="#2B2D34"/>
</svg>
