<svg width="24" height="24" viewBox="0 0 24 24" fill="none" xmlns="http://www.w3.org/2000/svg">
<path d="M21 2H6V4H20V16H22V3C22 2.44772 21.5523 2 21 2Z" fill="#2B2D34"/>
<path fill-rule="evenodd" clip-rule="evenodd" d="M3 6C2.44772 6 2 6.44772 2 7V19C2 19.5523 2.44772 20 3 20H6V22C6 22.3788 6.214 22.725 6.55279 22.8944C6.89157 23.0638 7.29698 23.0273 7.6 22.8L11.3333 20H17C17.5523 20 18 19.5523 18 19V7C18 6.44772 17.5523 6 17 6H3ZM4 18V8H16V18H11C10.7836 18 10.5731 18.0702 10.4 18.2L8 20V19C8 18.4477 7.55228 18 7 18H4Z" fill="#2B2D34"/>
</svg>
