<svg width="24" height="24" viewBox="0 0 24 24" fill="none" xmlns="http://www.w3.org/2000/svg">
<path d="M1.29289 3.29289C1.48043 3.10536 1.73478 3 2 3H22C22.5523 3 23 3.44772 23 4L23 20C23 20.5523 22.5523 21 22 21L7 21V19L21 19L21 5L3 5V10H1L1 4C1 3.73478 1.10536 3.48043 1.29289 3.29289Z" fill="#2B2D34"/>
<path d="M0.362305 14.9043C0.380534 14.043 0.676758 13.3571 1.25098 12.8467C1.84342 12.3135 2.65462 12.0469 3.68457 12.0469C4.65527 12.0469 5.44141 12.293 6.04297 12.7852C6.63542 13.2728 6.93164 13.9085 6.93164 14.6924C6.93164 15.6631 6.44401 16.4355 5.46875 17.0098C5.01302 17.2741 4.7054 17.5111 4.5459 17.7207C4.38639 17.9303 4.30664 18.2038 4.30664 18.541V18.9033H2.49512L2.48145 18.5068C2.43587 17.9782 2.51107 17.5384 2.70703 17.1875C2.89844 16.8548 3.2334 16.5472 3.71191 16.2646C4.15397 16.0003 4.45475 15.7633 4.61426 15.5537C4.77832 15.3441 4.86035 15.0775 4.86035 14.7539C4.86035 14.4258 4.74186 14.1569 4.50488 13.9473C4.26335 13.7376 3.94889 13.6328 3.56152 13.6328C3.1696 13.6328 2.85286 13.749 2.61133 13.9814C2.36979 14.2093 2.23763 14.5169 2.21484 14.9043H0.362305Z" fill="#2B2D34"/>
<path d="M3.4248 22.1709C3.11491 22.1709 2.85286 22.0661 2.63867 21.8564C2.41992 21.6514 2.31055 21.3984 2.31055 21.0977C2.31055 20.7969 2.41992 20.5417 2.63867 20.332C2.85286 20.127 3.11491 20.0244 3.4248 20.0244C3.7347 20.0244 3.99902 20.127 4.21777 20.332C4.43652 20.5417 4.5459 20.7969 4.5459 21.0977C4.5459 21.3984 4.43652 21.6514 4.21777 21.8564C3.99902 22.0661 3.7347 22.1709 3.4248 22.1709Z" fill="#2B2D34"/>
<path d="M12 13.6238L9.79343 15.8611L8.34702 14.4041L10.554 12.1656L9.79343 11.398V9.88247L9.26524 9.3492V10.6709L8.80549 11.1347L6.95719 9.27005L6.5 9.73097C6.50329 9.38325 6.57209 8.37691 7.4184 7.53789C8.33169 6.65175 9.31799 7.05101 9.65527 7.39155L11.5027 9.25532L11.0314 9.73005L12 10.7073L12.9684 9.73005L12.4973 9.25532L14.3444 7.39155C14.6816 7.05101 15.6679 6.65175 16.5812 7.53789C17.4277 8.37691 17.4965 9.38325 17.5 9.73097L17.0428 9.27005L15.1943 11.1347L14.7348 10.6709V9.3492L14.2062 9.88247V11.398L13.4457 12.1656L17.0917 15.843L15.6455 17.3L12 13.6238Z" fill="#2B2D34"/>
</svg>
