<svg width="24" height="24" viewBox="0 0 24 24" fill="none" xmlns="http://www.w3.org/2000/svg">
<path d="M12 2C11.1062 2 10.2382 2.11752 9.41154 2.3385L9.92802 4.27066C10.5878 4.09431 11.2821 4 12 4C12.7179 4 13.4122 4.09431 14.072 4.27067L14.5885 2.3385C13.7618 2.11752 12.8938 2 12 2Z" fill="#2B2D34"/>
<path d="M20.6611 6.99848C19.7833 5.48132 18.5187 4.21671 17.0015 3.3389L15.9999 5.07001C17.2143 5.77264 18.2274 6.78571 18.93 8.00009L20.6611 6.99848Z" fill="#2B2D34"/>
<path d="M6.99848 3.3389C5.48132 4.21671 4.21671 5.48132 3.3389 6.99848L5.07001 8.00009C5.77264 6.78571 6.78571 5.77264 8.00009 5.07001L6.99848 3.3389Z" fill="#2B2D34"/>
<path d="M2.3385 9.41154C2.11752 10.2382 2 11.1062 2 12C2 12.8938 2.11752 13.7618 2.3385 14.5885L4.27066 14.072C4.09431 13.4122 4 12.7179 4 12C4 11.2821 4.09431 10.5878 4.27067 9.92802L2.3385 9.41154Z" fill="#2B2D34"/>
<path d="M22 12C22 11.1062 21.8825 10.2382 21.6615 9.41154L19.7293 9.92802C19.9057 10.5878 20 11.2821 20 12C20 12.7179 19.9057 13.4122 19.7293 14.072L21.6615 14.5885C21.8825 13.7618 22 12.8938 22 12Z" fill="#2B2D34"/>
<path d="M3.3389 17.0015C4.21671 18.5187 5.48132 19.7833 6.99848 20.6611L8.00009 18.93C6.78571 18.2274 5.77264 17.2143 5.07001 15.9999L3.3389 17.0015Z" fill="#2B2D34"/>
<path d="M17.0015 20.6611C18.5187 19.7833 19.7833 18.5187 20.6611 17.0015L18.93 15.9999C18.2274 17.2143 17.2143 18.2274 15.9999 18.93L17.0015 20.6611Z" fill="#2B2D34"/>
<path d="M9.41154 21.6615C10.2382 21.8825 11.1062 22 12 22C12.8938 22 13.7618 21.8825 14.5885 21.6615L14.072 19.7293C13.4122 19.9057 12.7179 20 12 20C11.2821 20 10.5878 19.9057 9.92802 19.7293L9.41154 21.6615Z" fill="#2B2D34"/>
<path d="M11.7072 15.2071L16.7072 10.2071L15.293 8.79285L11.0001 13.0857L8.20718 10.2928L6.79297 11.7071L10.293 15.2071C10.6835 15.5976 11.3167 15.5976 11.7072 15.2071Z" fill="#2B2D34"/>
</svg>
