<svg width="24" height="24" viewBox="0 0 24 24" fill="none" xmlns="http://www.w3.org/2000/svg">
<path d="M12 2C11.1062 2 10.2382 2.11752 9.41154 2.3385L9.92802 4.27066C10.5878 4.09431 11.2821 4 12 4C12.0731 4 12.1459 4.00098 12.2185 4.00292C14.3408 4.05982 16.257 4.9433 17.6569 6.34315C17.7875 6.47377 17.9136 6.60889 18.035 6.74825C19.194 8.07894 19.92 9.79657 19.9938 11.6817C19.9979 11.7873 20 11.8934 20 12C20 12.0897 19.9985 12.1791 19.9956 12.2681C19.9329 14.1729 19.2042 15.9093 18.035 17.2517C17.7991 17.5226 17.5453 17.7774 17.2754 18.0143C15.9297 19.1956 14.1841 19.9325 12.2681 19.9956C12.1791 19.9985 12.0897 20 12 20C11.2821 20 10.5878 19.9057 9.92802 19.7293L9.41154 21.6615C10.2382 21.8825 11.1062 22 12 22C12.1336 22 12.2666 21.9974 12.3989 21.9922C14.7535 21.8998 16.899 20.9933 18.5617 19.5463C18.9012 19.2509 19.2206 18.9329 19.5175 18.5947C20.9812 16.9274 21.8992 14.7691 21.9922 12.3989C21.9974 12.2666 22 12.1336 22 12C22 11.8883 21.9982 11.7769 21.9945 11.6661C21.9159 9.27032 20.9946 7.08779 19.5175 5.4053C19.2228 5.06967 18.9061 4.75395 18.5694 4.46042C16.8123 2.9281 14.5145 2 12 2Z" fill="#2B2D34"/>
<path d="M3.3389 6.99848C4.21671 5.48132 5.48132 4.21671 6.99848 3.3389L8.00009 5.07001C6.78571 5.77264 5.77264 6.78571 5.07001 8.00009L3.3389 6.99848Z" fill="#2B2D34"/>
<path d="M2.3385 9.41154C2.11752 10.2382 2 11.1062 2 12C2 12.8938 2.11752 13.7618 2.3385 14.5885L4.27066 14.072C4.09431 13.4122 4 12.7179 4 12C4 11.2821 4.09431 10.5878 4.27067 9.92802L2.3385 9.41154Z" fill="#2B2D34"/>
<path d="M3.3389 17.0015C4.21671 18.5187 5.48132 19.7833 6.99848 20.6611L8.00009 18.93C6.78571 18.2274 5.77264 17.2143 5.07001 15.9999L3.3389 17.0015Z" fill="#2B2D34"/>
<path d="M16.7072 10.2071L11.7072 15.2071C11.3167 15.5976 10.6835 15.5976 10.293 15.2071L6.79297 11.7071L8.20718 10.2928L11.0001 13.0857L15.293 8.79285L16.7072 10.2071Z" fill="#2B2D34"/>
</svg>
