<svg width="24" height="24" viewBox="0 0 24 24" fill="none" xmlns="http://www.w3.org/2000/svg">
<path fill-rule="evenodd" clip-rule="evenodd" d="M12 1C10.3432 1 9.00002 2.34315 9.00002 4C9.00002 5.65685 10.3432 7 12 7H8.00001V9H9.00001V12.9966L8.99993 12.9954C8.99993 12.9954 8.99967 12.9965 8.99931 12.9989C8.99726 13.0123 8.98926 13.0642 8.95829 13.1649C8.91926 13.2918 8.85773 13.4517 8.7737 13.6407C8.60568 14.0188 8.37413 14.4547 8.13177 14.8789C7.89128 15.2997 7.64946 15.6928 7.46702 15.9816L7.45541 16H7.00001C6.54114 16 6.14116 16.3123 6.02987 16.7575L5.02987 20.7575C4.95518 21.0562 5.0223 21.3727 5.2118 21.6154C5.40131 21.8581 5.69207 22 6.00001 22H18C18.3079 22 18.5987 21.8581 18.7882 21.6154C18.9777 21.3727 19.0448 21.0562 18.9702 20.7575L17.9702 16.7575C17.8589 16.3123 17.4589 16 17 16H16.5446L16.533 15.9816C16.3506 15.6928 16.1087 15.2997 15.8683 14.8789C15.6259 14.4547 15.3943 14.0188 15.2263 13.6407C15.1423 13.4517 15.0808 13.2918 15.0417 13.1649C15.0108 13.0642 15.0028 13.0123 15.0007 12.9989C15.0003 12.9965 15.0001 12.9954 15.0001 12.9954L15 12.9966V9H16V7H12C13.6569 7 15 5.65685 15 4C15 2.34315 13.6569 1 12 1ZM11 4C11 3.44772 11.4477 3 12 3C12.5523 3 13 3.44772 13 4C13 4.55228 12.5523 5 12 5C11.4477 5 11 4.55228 11 4ZM11 13V9H13V13C13 13.486 13.2142 14.0379 13.3987 14.453C13.6057 14.9187 13.8741 15.4203 14.1318 15.8711C14.1565 15.9144 14.1812 15.9574 14.2059 16H9.79413C9.81879 15.9574 9.84351 15.9144 9.86825 15.8711C10.1259 15.4203 10.3943 14.9187 10.6013 14.453C10.7858 14.0379 11 13.486 11 13ZM7.28079 20L7.78079 18H16.2192L16.7192 20H7.28079Z" fill="#2B2D34"/>
</svg>
