<svg width="24" height="24" viewBox="0 0 24 24" fill="none" xmlns="http://www.w3.org/2000/svg">
<path d="M14 12H16V14H14V12Z" fill="#2B2D34"/>
<path d="M16 8H14V10H16V8Z" fill="#2B2D34"/>
<path d="M8 12H6V14H8V12Z" fill="#2B2D34"/>
<path fill-rule="evenodd" clip-rule="evenodd" d="M10 5C10 4.44772 10.4477 4 11 4H21C21.5523 4 22 4.44772 22 5V19C22 19.5523 21.5523 20 21 20H3C2.44772 20 2 19.5523 2 19V9C2 8.44772 2.44772 8 3 8H10V5ZM14 18H12V6H20V8H18V10H20V12H18V14H20V18H16V16H14V18ZM4 10H10V18H8V16H6V18H4V10Z" fill="#2B2D34"/>
</svg>
