<svg width="24" height="24" viewBox="0 0 24 24" fill="none" xmlns="http://www.w3.org/2000/svg">
<path d="M11.7071 15.7071L14 13.4142L16.2929 15.7071L17.7071 14.2928L15.4142 11.9999L17.7071 9.70706L16.2929 8.29285L14 10.5857L11.7071 8.29285L10.2929 9.70706L12.5858 11.9999L10.2929 14.2928L11.7071 15.7071Z" fill="#2B2D34"/>
<path fill-rule="evenodd" clip-rule="evenodd" d="M8.5 4C8.19314 4 7.90327 4.14089 7.71368 4.38218L2.21368 11.3822C1.92877 11.7448 1.92877 12.2552 2.21368 12.6178L7.71368 19.6178C7.90327 19.8591 8.19314 20 8.5 20H19C20.6569 20 22 18.6569 22 17V7C22 5.34315 20.6569 4 19 4H8.5ZM4.27175 12L8.98604 6H19C19.5523 6 20 6.44772 20 7V17C20 17.5523 19.5523 18 19 18H8.98604L4.27175 12Z" fill="#2B2D34"/>
</svg>
