<svg width="24" height="24" viewBox="0 0 24 24" fill="none" xmlns="http://www.w3.org/2000/svg">
<path fill-rule="evenodd" clip-rule="evenodd" d="M11.235 4.15224C11.6005 4.00087 12.0026 3.96126 12.3906 4.03843C12.7785 4.1156 13.1349 4.30608 13.4146 4.58579C13.6943 4.8655 13.8848 5.22186 13.962 5.60983C14.0391 5.99779 13.9995 6.39992 13.8482 6.76537C13.6968 7.13083 13.4404 7.44318 13.1115 7.66294C12.7826 7.88271 12.396 8 12.0004 8C11.7352 8 11.4808 8.10536 11.2933 8.2929C11.1057 8.48043 11.0004 8.73479 11.0004 9.00001L11.0004 10.5261L2.53535 17.4521C1.08064 18.6423 1.92226 21 3.80183 21H20.199C22.0786 21 22.9202 18.6423 21.4655 17.4521L13.0004 10.5261L13.0004 9.87299C13.4334 9.76119 13.8469 9.57698 14.2227 9.32589C14.8805 8.88636 15.3932 8.26165 15.6959 7.53074C15.9987 6.79984 16.0779 5.99557 15.9235 5.21965C15.7692 4.44372 15.3882 3.73099 14.8288 3.17158C14.2694 2.61217 13.5567 2.2312 12.7808 2.07686C12.0048 1.92252 11.2006 2.00173 10.4697 2.30448C9.73876 2.60723 9.11405 3.11992 8.67452 3.77772C8.23499 4.43552 8.0004 5.20888 8.0004 6H10.0004C10.0004 5.60444 10.1177 5.21776 10.3375 4.88886C10.5572 4.55996 10.8696 4.30362 11.235 4.15224ZM3.80182 19L12.0004 12.2921L20.199 19H3.80182Z" fill="#2B2D34"/>
</svg>
