<svg width="24" height="24" viewBox="0 0 24 24" fill="none" xmlns="http://www.w3.org/2000/svg">
<path fill-rule="evenodd" clip-rule="evenodd" d="M3 0C2.44772 0 2 0.447715 2 1V5C2 5.55228 2.44772 6 3 6H5V15C5 15.5523 5.44772 16 6 16H10V23C10 23.5523 10.4477 24 11 24H21C21.5523 24 22 23.5523 22 23V12C22 11.4477 21.5523 11 21 11H17V6H19C19.5523 6 20 5.55228 20 5V1C20 0.447715 19.5523 0 19 0H14C13.7348 0 13.4804 0.105357 13.2929 0.292893L11 2.58579L8.70711 0.292893C8.51957 0.105357 8.26522 0 8 0H3ZM15 11V4H18V2H14.4142L11.7071 4.70711C11.3166 5.09763 10.6834 5.09763 10.2929 4.70711L7.58579 2H4V4H7V14H10V12C10 11.4477 10.4477 11 11 11H15ZM12 22V13H20V22H17V15H15V22H12Z" fill="#2B2D34"/>
</svg>
