<svg width="24" height="24" viewBox="0 0 24 24" fill="none" xmlns="http://www.w3.org/2000/svg">
<path fill-rule="evenodd" clip-rule="evenodd" d="M6.75746 2.02986C6.83679 2.01003 6.91824 2 7 2H9C9 2.39397 9.0776 2.78407 9.22836 3.14805C9.37913 3.51203 9.6001 3.84274 9.87868 4.12132C10.1573 4.3999 10.488 4.62087 10.8519 4.77164C11.2159 4.9224 11.606 5 12 5C12.394 5 12.7841 4.9224 13.1481 4.77164C13.512 4.62087 13.8427 4.3999 14.1213 4.12132C14.3999 3.84275 14.6209 3.51203 14.7716 3.14805C14.9224 2.78407 15 2.39397 15 2H17C17.0818 2 17.1632 2.01003 17.2425 2.02986L20.4851 2.84049C21.3754 3.06308 22 3.86304 22 4.78078V9C22 10.1046 21.1046 11 20 11H19V20C19 21.1046 18.1046 22 17 22H7C5.89543 22 5 21.1046 5 20V11H4C2.89543 11 2 10.1046 2 9V4.78078C2 3.86304 2.62459 3.06307 3.51493 2.84049L6.75746 2.02986ZM16.5826 4C16.3327 4.57253 15.9776 5.09343 15.5355 5.53553C15.0712 5.99983 14.52 6.36812 13.9134 6.6194C13.6179 6.74183 13.3119 6.8353 13 6.89898V9H11V6.89898C10.6881 6.8353 10.3821 6.74183 10.0866 6.6194C9.47995 6.36812 8.92876 5.99983 8.46447 5.53553C8.02236 5.09343 7.66729 4.57253 7.41742 4H7.12311L4 4.78078V9H7V14H17V9H20V4.78078L16.8769 4H16.5826ZM7 20V16H17V20H13V18H11V20H7Z" fill="#2B2D34"/>
</svg>
