<svg width="24" height="24" viewBox="0 0 24 24" fill="none" xmlns="http://www.w3.org/2000/svg">
<path d="M12 18C12 18.5523 11.5523 19 11 19C10.4477 19 10 18.5523 10 18C10 17.4477 10.4477 17 11 17C11.5523 17 12 17.4477 12 18Z" fill="#2B2D34"/>
<path d="M14 15C14 15.5523 13.5523 16 13 16C12.4477 16 12 15.5523 12 15C12 14.4477 12.4477 14 13 14C13.5523 14 14 14.4477 14 15Z" fill="#2B2D34"/>
<path fill-rule="evenodd" clip-rule="evenodd" d="M8.22208 2.34254C7.39981 2.00195 6.49501 1.91283 5.6221 2.08647C4.74918 2.2601 3.94736 2.68869 3.31802 3.31802C2.68869 3.94736 2.2601 4.74918 2.08647 5.6221C1.91283 6.49501 2.00195 7.39981 2.34254 8.22208C2.68314 9.04434 3.25991 9.74715 3.99994 10.2416C4.60059 10.643 5.28688 10.8924 6 10.9721V19C6 20.6569 7.34315 22 9 22H15C16.6569 22 18 20.6569 18 19V6H15.943L16.693 4H21V2H16C15.5832 2 15.21 2.25857 15.0637 2.64888L13.807 6H10.9721C10.8924 5.28688 10.643 4.60059 10.2416 3.99994C9.74715 3.25991 9.04434 2.68314 8.22208 2.34254ZM8 8H13.057L12.307 10H8V8ZM15.193 8L14.443 10H16V8H15.193ZM8.94949 6C8.88499 5.684 8.75961 5.38187 8.57868 5.11108C8.30397 4.69995 7.91353 4.37952 7.45671 4.1903C6.9999 4.00108 6.49723 3.95158 6.01228 4.04804C5.52732 4.1445 5.08187 4.3826 4.73223 4.73223C4.3826 5.08187 4.1445 5.52732 4.04804 6.01228C3.95158 6.49723 4.00108 6.9999 4.1903 7.45671C4.37952 7.91353 4.69995 8.30397 5.11108 8.57868C5.38187 8.75962 5.684 8.88499 6 8.94949V6H8.94949ZM8 19V12H10C10 12.5523 10.4477 13 11 13C11.5523 13 12 12.5523 12 12H16V19C16 19.5523 15.5523 20 15 20H9C8.44772 20 8 19.5523 8 19Z" fill="#2B2D34"/>
</svg>
