<svg width="24" height="24" viewBox="0 0 24 24" fill="none" xmlns="http://www.w3.org/2000/svg">
<path fill-rule="evenodd" clip-rule="evenodd" d="M3 6.00001C2.44772 6.00001 2 6.44772 2 7.00001L2 17C2 17.5523 2.44772 18 3 18H10C10.5523 18 11 17.5523 11 17V7.00001C11 6.44772 10.5523 6.00001 10 6.00001L3 6.00001ZM4 16V8.00001L9 8.00001V16H4Z" fill="#2B2D34"/>
<path fill-rule="evenodd" clip-rule="evenodd" d="M14 6.00001C13.4477 6.00001 13 6.44772 13 7.00001L13 17C13 17.5523 13.4477 18 14 18L21 18C21.5523 18 22 17.5523 22 17V7.00001C22 6.44772 21.5523 6.00001 21 6.00001L14 6.00001ZM15 16V8.00001L20 8.00001V16H15Z" fill="#2B2D34"/>
</svg>
