<svg width="24" height="24" viewBox="0 0 24 24" fill="none" xmlns="http://www.w3.org/2000/svg">
<path d="M9 1V6H11V4L13 6H15V1H13V3L11 1H9Z" fill="#2B2D34"/>
<path d="M16.5842 5.44367C17.9779 6.41817 19.0248 7.81148 19.573 9.42135C19.7485 9.93672 19.8699 10.4657 19.9373 11H18V13H19.9373C19.8779 13.4713 19.7764 13.9386 19.6326 14.3965C19.1232 16.019 18.1099 17.437 16.7399 18.4446C15.6366 19.2561 14.3481 19.7674 13 19.9373V18H11V19.9373C9.66126 19.7686 8.38102 19.2632 7.2824 18.461C5.90892 17.4581 4.89077 16.0436 4.37571 14.4229C4.22756 13.9567 4.12326 13.4804 4.06274 13H6V11H4.06274C4.1289 10.4748 4.24738 9.95472 4.4181 9.44758C4.9607 7.83582 6.0028 6.4389 7.39317 5.45958L6.24146 3.82448C4.5035 5.04863 3.20087 6.79478 2.52263 8.80948C1.84439 10.8242 1.82583 13.0026 2.46964 15.0286C3.11346 17.0545 4.38615 18.8226 6.103 20.0762C7.81984 21.3298 9.89151 22.0037 12.0173 22C14.1431 21.9963 16.2124 21.3153 17.9249 20.0558C19.6374 18.7962 20.904 17.0238 21.5408 14.9956C22.1776 12.9674 22.1515 10.789 21.4663 8.77669C20.7811 6.76434 19.4724 5.02272 17.7302 3.80459L16.5842 5.44367Z" fill="#2B2D34"/>
<path fill-rule="evenodd" clip-rule="evenodd" d="M16.8805 8.4741C17.0898 8.08528 17.0194 7.60516 16.7071 7.29289C16.3948 6.98063 15.9147 6.91016 15.5259 7.11953L10.3259 9.91953C10.1536 10.0123 10.0123 10.1536 9.91952 10.3259L7.11952 15.5259C6.91016 15.9147 6.98062 16.3948 7.29289 16.7071C7.60515 17.0194 8.08527 17.0898 8.47409 16.8805L13.6741 14.0805C13.8464 13.9877 13.9877 13.8464 14.0805 13.6741L16.8805 8.4741ZM10.4608 13.5392L11.5382 11.5382L13.5392 10.4608L12.4618 12.4618L10.4608 13.5392Z" fill="#2B2D34"/>
</svg>
