<svg width="24" height="25" viewBox="0 0 24 25" fill="none" xmlns="http://www.w3.org/2000/svg">
<path fill-rule="evenodd" clip-rule="evenodd" d="M12.4693 1.59745C12.9546 1.39643 13.4747 1.29297 14 1.29297C14.5253 1.29297 15.0454 1.39643 15.5307 1.59745C16.016 1.79847 16.457 2.09311 16.8284 2.46454C17.1999 2.83598 17.4945 3.27693 17.6955 3.76223C17.8965 4.24754 18 4.76768 18 5.29297V6.29297H20C21.1046 6.29297 22 7.1884 22 8.29297V19.293C22 20.3975 21.1046 21.293 20 21.293H16V19.293H20V8.29297H18V10.293H16V8.29297H12V10.293H10V8.29297H8V11.293H6V8.29297C6 7.1884 6.89543 6.29297 8 6.29297H10V5.29297C10 4.76768 10.1035 4.24754 10.3045 3.76224C10.5055 3.27693 10.8001 2.83598 11.1716 2.46454C11.543 2.09311 11.984 1.79847 12.4693 1.59745ZM16 5.29297V6.29297H12V5.29297C12 5.03032 12.0517 4.77025 12.1522 4.5276C12.2528 4.28495 12.4001 4.06447 12.5858 3.87876C12.7715 3.69304 12.992 3.54572 13.2346 3.44521C13.4773 3.3447 13.7374 3.29297 14 3.29297C14.2626 3.29297 14.5227 3.3447 14.7654 3.44521C15.008 3.54572 15.2285 3.69304 15.4142 3.87876C15.5999 4.06447 15.7472 4.28495 15.8478 4.5276C15.9483 4.77025 16 5.03032 16 5.29297Z" fill="#2B2D34"/>
<path d="M12 18.793C10.8954 18.793 10 19.6884 10 20.793C10 21.8975 10.8954 22.793 12 22.793C13.1046 22.793 14 21.8975 14 20.793C14 19.6884 13.1046 18.793 12 18.793Z" fill="#2B2D34"/>
<path d="M2 14.793C2 13.6884 2.89543 12.793 4 12.793C5.10457 12.793 6 13.6884 6 14.793C6 15.8975 5.10457 16.793 4 16.793C2.89543 16.793 2 15.8975 2 14.793Z" fill="#2B2D34"/>
<path d="M4.20718 23.0001L13.2072 14.0001L11.793 12.5859L2.79297 21.5859L4.20718 23.0001Z" fill="#2B2D34"/>
</svg>
