<svg width="24" height="24" viewBox="0 0 24 24" fill="none" xmlns="http://www.w3.org/2000/svg">
<path fill-rule="evenodd" clip-rule="evenodd" d="M12 2C9.23858 2 7 4.23858 7 7C7 9.76142 9.23858 12 12 12C14.7614 12 17 9.76142 17 7C17 4.23858 14.7614 2 12 2ZM9 7C9 5.34315 10.3431 4 12 4C13.6569 4 15 5.34315 15 7C15 8.65685 13.6569 10 12 10C10.3431 10 9 8.65685 9 7Z" fill="#2B2D34"/>
<path d="M13 16V14H11V16H13Z" fill="#2B2D34"/>
<path d="M13 18V22H11V18H13Z" fill="#2B2D34"/>
<path d="M8.36557 13.8047C5.21005 15.3222 3.5 18.7013 3.5 22H5.5C5.5 19.3266 6.89001 16.7335 9.23235 15.6071L8.36557 13.8047Z" fill="#2B2D34"/>
<path d="M14.7678 15.6071C17.1101 16.7335 18.5 19.3265 18.5 22H20.5C20.5 18.7013 18.7901 15.3222 15.6346 13.8047L14.7678 15.6071Z" fill="#2B2D34"/>
</svg>
