<svg width="24" height="24" viewBox="0 0 24 24" fill="none" xmlns="http://www.w3.org/2000/svg">
<path d="M21.7071 6.29285L18.2071 2.79285L16.7929 4.20706L18.5858 5.99995H15C12.913 5.99995 11.0749 7.06547 9.99998 8.68218C8.92506 7.0655 7.08696 6 5 6H2V8H5C7.20912 8 8.99998 9.79084 9 12C9 14.2091 7.20914 16 5 16H2V18H5C7.08696 18 8.92506 16.9345 9.99999 15.3178C11.0749 16.9345 12.913 18 15 18H18.5858L16.7929 19.7929L18.2071 21.2071L21.7071 17.7071C22.0976 17.3166 22.0976 16.6834 21.7071 16.2929L18.2071 12.7929L16.7929 14.2071L18.5858 16H15C12.7909 16 11 14.2091 11 12C11 12 11 12 11 12C11 9.79086 12.7909 7.99995 15 7.99995L18.5858 7.99995L16.7929 9.79285L18.2071 11.2071L21.7071 7.70706C21.8946 7.51952 22 7.26517 22 6.99995C22 6.73474 21.8946 6.48038 21.7071 6.29285Z" fill="#2B2D34"/>
</svg>
