<svg width="24" height="24" viewBox="0 0 24 24" fill="none" xmlns="http://www.w3.org/2000/svg">
<path fill-rule="evenodd" clip-rule="evenodd" d="M10.2929 2.29289C10.6834 1.90237 11.3166 1.90237 11.7071 2.29289L15.7071 6.29289L14.2929 7.70711L12 5.41421V13H18.5858L16.2929 10.7071L17.7071 9.29289L21.7071 13.2929C22.0976 13.6834 22.0976 14.3166 21.7071 14.7071L17.7071 18.7071L16.2929 17.2929L18.5858 15H11.3699L6.70326 19H9V21H4C3.44772 21 3 20.5523 3 20V15H5V17.8258L10 13.5401V5.41421L7.70711 7.70711L6.29289 6.29289L10.2929 2.29289Z" fill="#2B2D34"/>
</svg>
