<svg width="24" height="24" viewBox="0 0 24 24" fill="none" xmlns="http://www.w3.org/2000/svg">
<path fill-rule="evenodd" clip-rule="evenodd" d="M4.44721 2.10557C4.13723 1.95058 3.76909 1.96714 3.47427 2.14935C3.17945 2.33156 3 2.65342 3 3V12C2.44772 12 2 12.4477 2 13V21C2 21.5523 2.44772 22 3 22H9C9.55228 22 10 21.5523 10 21V13C10 12.4477 9.55228 12 9 12V5C9 4.62123 8.786 4.27497 8.44721 4.10557L4.44721 2.10557ZM7 12V10H5V12H7ZM4 14V20H8V14H4ZM5 8V4.61804L7 5.61804V8H5Z" fill="#2B2D34"/>
<path fill-rule="evenodd" clip-rule="evenodd" d="M11.2681 2.31855C11.4573 2.11539 11.7224 2 12 2H21C21.2776 2 21.5427 2.11539 21.7319 2.31855C21.921 2.52171 22.0172 2.79436 21.9975 3.07125L20.9975 17.0712C20.9601 17.5946 20.5246 18 20 18L20 21C20 21.5523 19.5523 22 19 22H14C13.4477 22 13 21.5523 13 21L13 18C12.4754 18 12.0399 17.5946 12.0025 17.0712L11.0025 3.07125C10.9828 2.79436 11.079 2.52171 11.2681 2.31855ZM15 18H18V20H15V18ZM19.0689 16H13.9311L13.074 4H19.926L19.0689 16Z" fill="#2B2D34"/>
</svg>
