<svg width="24" height="24" viewBox="0 0 24 24" fill="none" xmlns="http://www.w3.org/2000/svg">
<path fill-rule="evenodd" clip-rule="evenodd" d="M14.2996 2.18752C13.1006 0.756424 10.8996 0.756421 9.70054 2.18752L8.84455 3.20917C8.68444 3.40026 8.45873 3.52466 8.21166 3.55797L7.20232 3.69406C5.36711 3.9415 4.19211 5.77615 4.73498 7.54662L5.09074 8.70687C5.14932 8.89792 5.14932 9.10213 5.09074 9.29318L4.73498 10.4534C4.19211 12.2239 5.36711 14.0586 7.20233 14.306L8.21166 14.4421C8.45873 14.4754 8.68444 14.5998 8.84455 14.7909L9.70054 15.8125C10.8996 17.2436 13.1006 17.2436 14.2996 15.8125L15.1556 14.7909C15.3157 14.5998 15.5415 14.4754 15.7885 14.4421L16.7979 14.306C18.6331 14.0586 19.8081 12.2239 19.2652 10.4534L18.9094 9.29318C18.8509 9.10213 18.8509 8.89792 18.9094 8.70687L19.2652 7.54662C19.8081 5.77615 18.6331 3.9415 16.7979 3.69406L15.7885 3.55797C15.5415 3.52466 15.3157 3.40026 15.1556 3.20917L14.2996 2.18752ZM11.2336 3.47197C11.6333 2.99494 12.3669 2.99494 12.7666 3.47197L13.6226 4.49362C14.1029 5.06691 14.7801 5.4401 15.5213 5.54004L16.5306 5.67612C17.1424 5.7586 17.534 6.37016 17.3531 6.96031L16.9973 8.12057C16.8216 8.69371 16.8216 9.30635 16.9973 9.87949L17.3531 11.0397C17.534 11.6299 17.1424 12.2415 16.5306 12.3239L15.5213 12.46C14.7801 12.5599 14.1029 12.9331 13.6226 13.5064L12.7666 14.5281C12.3669 15.0051 11.6333 15.0051 11.2336 14.5281L10.3776 13.5064C9.89725 12.9331 9.2201 12.5599 8.47889 12.46L7.46956 12.3239C6.85782 12.2415 6.46616 11.6299 6.64711 11.0397L7.00288 9.87949C7.17861 9.30635 7.17861 8.69371 7.00288 8.12057L6.64711 6.96031C6.46616 6.37016 6.85782 5.7586 7.46956 5.67612L8.47889 5.54004C9.2201 5.4401 9.89725 5.06691 10.3776 4.49362L11.2336 3.47197Z" fill="#2B2D34"/>
<path d="M9.00009 17V20.382L11.5529 19.1056C11.8344 18.9648 12.1658 18.9648 12.4473 19.1056L15.0001 20.382V17L17.0001 16V22C17.0001 22.3466 16.8206 22.6684 16.5258 22.8507C16.231 23.0329 15.8629 23.0494 15.5529 22.8944L12.0001 21.118L8.44731 22.8944C8.13732 23.0494 7.76918 23.0329 7.47436 22.8507C7.17954 22.6684 7.00009 22.3466 7.00009 22V16L9.00009 17Z" fill="#2B2D34"/>
</svg>
