<svg width="24" height="24" viewBox="0 0 24 24" fill="none" xmlns="http://www.w3.org/2000/svg">
<path fill-rule="evenodd" clip-rule="evenodd" d="M13.8944 1.5528C13.7506 1.26529 13.4774 1.06441 13.1601 1.01292C12.8428 0.961435 12.5201 1.06561 12.2928 1.29291L7.29282 6.29291C6.9023 6.68343 6.9023 7.31659 7.29282 7.70712L8.99993 9.41423V9.55095L1.9209 15.8434C0.630675 16.9903 0.572376 18.9867 1.79282 20.2071C3.01327 21.4276 5.00966 21.3693 6.15652 20.079L12.449 13H12.5857L14.2928 14.7071C14.6833 15.0976 15.3165 15.0976 15.707 14.7071L20.707 9.70712C20.9343 9.47982 21.0385 9.15712 20.987 8.83983C20.9355 8.52254 20.7347 8.24934 20.4471 8.10558L18.9999 7.38198V7.00001C18.9999 6.7348 18.8946 6.48044 18.707 6.29291L15.707 3.29291C15.5195 3.10537 15.2651 3.00001 14.9999 3.00001H14.618L13.8944 1.5528ZM10.707 8.29291L9.41414 7.00001L12.726 3.68818L13.1055 4.44723C13.2749 4.78601 13.6212 5.00001 13.9999 5.00001H14.5857L16.9999 7.41423V8.00001C16.9999 8.37878 17.2139 8.72505 17.5527 8.89444L18.3118 9.27396L14.9999 12.5858L13.707 11.2929C13.5195 11.1054 13.2651 11 12.9999 11H11.9999C11.7143 11 11.4423 11.1222 11.2525 11.3356L4.66171 18.7503C4.27954 19.1802 3.61399 19.1999 3.20704 18.7929C2.80008 18.386 2.8197 17.7204 3.24963 17.3382L10.6643 10.7474C10.8778 10.5577 10.9999 10.2857 10.9999 10V9.00001C10.9999 8.7348 10.8946 8.48044 10.707 8.29291Z" fill="#2B2D34"/>
<path fill-rule="evenodd" clip-rule="evenodd" d="M12.9999 17C12.6656 17 12.3533 17.1671 12.1679 17.4453L10.1679 20.4453C9.96331 20.7522 9.94424 21.1467 10.1183 21.4719C10.2923 21.797 10.6311 22 10.9999 22H21.9999C22.3687 22 22.7076 21.797 22.8816 21.4719C23.0556 21.1467 23.0366 20.7522 22.832 20.4453L20.832 17.4453C20.6465 17.1671 20.3343 17 19.9999 17H12.9999ZM12.8685 20L13.5351 19H19.4647L20.1314 20H12.8685Z" fill="#2B2D34"/>
</svg>
