<svg width="24" height="24" viewBox="0 0 24 24" fill="none" xmlns="http://www.w3.org/2000/svg">
<path fill-rule="evenodd" clip-rule="evenodd" d="M3 3V5H6.46482L7.79815 7H3V9H21V7C21 6.80258 20.9416 6.60957 20.8321 6.4453L18.8321 3.4453C18.6466 3.1671 18.3344 3 18 3H3ZM13.1315 5H8.86852L9.83205 6.4453C9.94156 6.60957 10 6.80258 10 7H12C12 6.80258 12.0584 6.60957 12.1679 6.4453L13.1315 5ZM15.5352 5L14.2018 7H18.7982L17.4648 5H15.5352Z" fill="#2B2D34"/>
<path d="M13 13H12V11H16V13H15V14.5359C15.0754 14.5794 15.1496 14.6255 15.2223 14.6741C15.8801 15.1136 16.3928 15.7384 16.6955 16.4693C16.9983 17.2002 17.0775 18.0044 16.9231 18.7804C16.7688 19.5563 16.3878 20.269 15.8284 20.8284C15.269 21.3878 14.5563 21.7688 13.7804 21.9231C13.0044 22.0775 12.2002 21.9983 11.4693 21.6955C10.7384 21.3928 10.1136 20.8801 9.67412 20.2223C9.23459 19.5645 9 18.7911 9 18H11C11 18.3956 11.1173 18.7822 11.3371 19.1111C11.5568 19.44 11.8692 19.6964 12.2346 19.8478C12.6001 19.9991 13.0022 20.0387 13.3902 19.9616C13.7781 19.8844 14.1345 19.6939 14.4142 19.4142C14.6939 19.1345 14.8844 18.7781 14.9616 18.3902C15.0387 18.0022 14.9991 17.6001 14.8478 17.2346C14.6964 16.8692 14.44 16.5568 14.1111 16.3371C13.7822 16.1173 13.3956 16 13 16L13 13Z" fill="#2B2D34"/>
</svg>
