<svg width="24" height="24" viewBox="0 0 24 24" fill="none" xmlns="http://www.w3.org/2000/svg">
<path d="M21 2C21.5523 2 22 2.44772 22 3V15C22 15.2652 21.8946 15.5196 21.7071 15.7071C21.5196 15.8946 21.2652 16 21 16L16 16V14L18.0854 14C18.0301 13.8436 18 13.6753 18 13.5C18 12.6716 18.6716 12 19.5 12C19.6753 12 19.8436 12.0301 20 12.0854V5.91465C19.8436 5.96992 19.6753 6 19.5 6C18.6716 6 18 5.32843 18 4.5C18 4.32468 18.0301 4.15639 18.0854 4L5.91465 4C5.96992 4.15639 6 4.32468 6 4.5C6 5.32843 5.32843 6 4.5 6C4.32468 6 4.15639 5.96992 4 5.91465V9H2L2 3C2 2.44772 2.44772 2 3 2H21Z" fill="#2B2D34"/>
<path d="M12 17.5C10.8954 17.5 10 18.3954 10 19.5C10 20.6046 10.8954 21.5 12 21.5C13.1046 21.5 14 20.6046 14 19.5C14 18.3954 13.1046 17.5 12 17.5Z" fill="#2B2D34"/>
<path d="M2 13.5C2 12.3954 2.89543 11.5 4 11.5C5.10457 11.5 6 12.3954 6 13.5C6 14.6046 5.10457 15.5 4 15.5C2.89543 15.5 2 14.6046 2 13.5Z" fill="#2B2D34"/>
<path d="M4.20718 21.7071L13.2072 12.7071L11.793 11.2928L2.79297 20.2928L4.20718 21.7071Z" fill="#2B2D34"/>
</svg>
