<svg width="24" height="24" viewBox="0 0 24 24" fill="none" xmlns="http://www.w3.org/2000/svg">
<rect width="24" height="24" fill="#EBEBEB"/>
<g id="Shopping and clothes">
<rect x="-379" y="-302" width="608" height="2549" rx="40" fill="white"/>
<rect x="-378.5" y="-301.5" width="607" height="2548" rx="39.5" stroke="#9C967F" stroke-opacity="0.24"/>
<g id="credit-consumer">
<rect x="-64.5" y="-19.5" width="108" height="63" rx="4.5" stroke="#9747FF" stroke-opacity="0.2" stroke-dasharray="10 5"/>
<g id="Style=Filled">
<g id="Subtract">
<path fill-rule="evenodd" clip-rule="evenodd" d="M12.4693 1.30448C12.9546 1.10346 13.4747 1 14 1C14.5253 1 15.0454 1.10346 15.5307 1.30448C16.016 1.5055 16.457 1.80014 16.8284 2.17157C17.1999 2.54301 17.4945 2.98396 17.6955 3.46927C17.8965 3.95457 18 4.47471 18 5V6H20C21.1046 6 22 6.89543 22 8V19C22 20.1046 21.1046 21 20 21H16V11H6V8C6 6.89543 6.89543 6 8 6H10V5C10 4.47471 10.1035 3.95457 10.3045 3.46927C10.5055 2.98396 10.8001 2.54301 11.1716 2.17157C11.543 1.80014 11.984 1.5055 12.4693 1.30448ZM16 5V6H12V5C12 4.73736 12.0517 4.47728 12.1522 4.23463C12.2528 3.99198 12.4001 3.7715 12.5858 3.58579C12.7715 3.40007 12.992 3.25275 13.2346 3.15224C13.4773 3.05173 13.7374 3 14 3C14.2626 3 14.5227 3.05173 14.7654 3.15224C15.008 3.25275 15.2285 3.40007 15.4142 3.58579C15.5999 3.7715 15.7472 3.99198 15.8478 4.23463C15.9483 4.47728 16 4.73736 16 5ZM10 8H12V10H10V8ZM18 8H16V10H18V8Z" fill="#2B2D34"/>
<path d="M12 18.5C10.8954 18.5 10 19.3954 10 20.5C10 21.6046 10.8954 22.5 12 22.5C13.1046 22.5 14 21.6046 14 20.5C14 19.3954 13.1046 18.5 12 18.5Z" fill="#2B2D34"/>
<path d="M4 12.5C2.89543 12.5 2 13.3954 2 14.5C2 15.6046 2.89543 16.5 4 16.5C5.10457 16.5 6 15.6046 6 14.5C6 13.3954 5.10457 12.5 4 12.5Z" fill="#2B2D34"/>
<path d="M4.20718 22.7071L13.2072 13.7071L11.793 12.2929L2.79297 21.2929L4.20718 22.7071Z" fill="#2B2D34"/>
</g>
</g>
</g>
</g>
</svg>
