<svg width="24" height="24" viewBox="0 0 24 24" fill="none" xmlns="http://www.w3.org/2000/svg">
<path fill-rule="evenodd" clip-rule="evenodd" d="M17.1995 14.7648C16.5956 14.7648 16.1119 15.271 16.1119 15.8869C16.1119 16.9204 15.3004 17.7551 14.311 17.7551H8.97617C7.98678 17.7551 7.17518 16.9204 7.17518 15.8869V8.11365C7.17518 7.08006 7.98681 6.24495 8.97617 6.24495H14.311C15.3003 6.24495 16.1119 7.07957 16.1119 8.11365C16.1119 8.72947 16.5956 9.23569 17.1995 9.23569C17.8034 9.23569 18.2871 8.72947 18.2871 8.11365C18.2871 5.8495 16.5067 4.00087 14.311 4.00087H12.7312V2.12204C12.7312 1.50622 12.2475 1 11.6436 1C11.0397 1 10.556 1.50622 10.556 2.12204V4.00087H8.97617C6.77994 4.00087 5 5.84899 5 8.11365V15.8869C5 18.1505 6.77994 19.9991 8.97617 19.9991H10.556V21.878C10.556 22.4938 11.0397 23 11.6436 23C12.2475 23 12.7312 22.4938 12.7312 21.878V19.9991H14.311C16.5067 19.9991 18.2871 18.1505 18.2871 15.8869C18.2871 15.2705 17.8039 14.7648 17.1995 14.7648Z" fill="#2B2D34"/>
</svg>
