<svg width="24" height="24" viewBox="0 0 24 24" fill="none" xmlns="http://www.w3.org/2000/svg">
<path fill-rule="evenodd" clip-rule="evenodd" d="M11.5098 2.1284C11.8142 1.95717 12.1859 1.95717 12.4903 2.1284L20.4903 6.6284C20.8051 6.80552 21 7.13871 21 7.49998V16.5C21 16.8612 20.8051 17.1944 20.4903 17.3716L12.4903 21.8716C12.1859 22.0428 11.8142 22.0428 11.5098 21.8716L3.50974 17.3716C3.19486 17.1944 3 16.8613 3 16.5V7.49998C3 7.1387 3.19486 6.80552 3.50974 6.6284L11.5098 2.1284ZM5 15.9151V9.2098L11 12.5848V19.2901L5 15.9151ZM13 19.2901L19 15.9151V9.20984L13 12.5849V19.2901ZM12 4.14732L17.9603 7.49998L12.0001 10.8526L6.03975 7.49997L12 4.14732Z" fill="#2B2D34"/>
</svg>
