<svg width="24" height="24" viewBox="0 0 24 24" fill="none" xmlns="http://www.w3.org/2000/svg">
<path fill-rule="evenodd" clip-rule="evenodd" d="M18 22H4V20H18V22Z" fill="#2B2D34"/>
<path fill-rule="evenodd" clip-rule="evenodd" d="M4 7V13.4C4 14.4397 4.24441 15.5381 4.79864 16.411C5.37071 17.312 6.30358 18 7.57143 18H14.4286C15.6964 18 16.6293 17.312 17.2014 16.411C17.4847 15.9648 17.687 15.4596 17.8172 14.9336C20.1899 14.5435 22 12.4831 22 10C22 8.34315 20.6569 7 19 7H4ZM18 9V12.8293C19.1652 12.4175 20 11.3062 20 10C20 9.44772 19.5523 9 19 9H18ZM6 13.4V9H16V13.4C16 14.1603 15.8158 14.8619 15.5129 15.339C15.2279 15.788 14.875 16 14.4286 16H7.57143C7.12499 16 6.77215 15.788 6.48707 15.339C6.18416 14.8619 6 14.1603 6 13.4Z" fill="#2B2D34"/>
<path fill-rule="evenodd" clip-rule="evenodd" d="M8 2V5H6V2H8Z" fill="#2B2D34"/>
<path fill-rule="evenodd" clip-rule="evenodd" d="M12 2V5H10V2H12Z" fill="#2B2D34"/>
<path fill-rule="evenodd" clip-rule="evenodd" d="M16 2V5H14V2H16Z" fill="#2B2D34"/>
</svg>
