<svg width="24" height="24" viewBox="0 0 24 24" fill="none" xmlns="http://www.w3.org/2000/svg">
<path fill-rule="evenodd" clip-rule="evenodd" d="M2 12C2 6.47715 6.47715 2 12 2C17.5228 2 22 6.47715 22 12C22 17.5228 17.5228 22 12 22C11.4477 22 11 21.5523 11 21V13H3C2.44772 13 2 12.5523 2 12ZM6.02876 11H4.06189C4.34981 8.69112 5.62162 6.68779 7.44453 5.42283C6.65497 6.95491 6.15066 8.89199 6.02876 11ZM9.33862 6.12168C9.85487 5.19244 10.4318 4.59631 11 4.27967V11H8.0325C8.15924 9.06476 8.64763 7.36547 9.33862 6.12168ZM13 19.7203V13H15.9675C15.8408 14.9352 15.3524 16.6345 14.6614 17.8783C14.1451 18.8076 13.5682 19.4037 13 19.7203ZM13 11H15.9675C15.8408 9.06476 15.3524 7.36547 14.6614 6.12168C14.1451 5.19244 13.5682 4.59631 13 4.27967V11ZM16.5555 5.42283C17.345 6.95491 17.8493 8.89199 17.9712 11H19.9381C19.6502 8.69112 18.3784 6.68779 16.5555 5.42283ZM16.5555 18.5772C17.345 17.0451 17.8493 15.108 17.9712 13H19.9381C19.6502 15.3089 18.3784 17.3122 16.5555 18.5772Z" fill="#2B2D34"/>
<path d="M8.70711 19.707L4.70711 23.707L3.29289 22.2928L5.58579 19.9999H0V17.9999H5.58579L3.29289 15.707L4.70711 14.2928L8.70711 18.2928C9.09763 18.6833 9.09763 19.3165 8.70711 19.707Z" fill="#2B2D34"/>
</svg>
