<svg width="24" height="24" viewBox="0 0 24 24" fill="none" xmlns="http://www.w3.org/2000/svg">
<path fill-rule="evenodd" clip-rule="evenodd" d="M5 10C5 6.13401 8.13401 3 12 3C15.866 3 19 6.13401 19 10V11.5918L20 11.2708V10C20 9.44772 20.4477 9 21 9C21.5523 9 22 9.44772 22 10V11.9761C22.0004 11.9923 22.0004 12.0083 22 12.0244V14.05C22 14.6023 21.5523 15.05 21 15.05C20.4477 15.05 20 14.6023 20 14.05V13.3713L19 13.6923V14C19 17.866 15.866 21 12 21C8.13401 21 5 17.866 5 14V10ZM17 10V12.2338L14.0193 13.1906C13.712 12.9461 13.3228 12.8 12.8996 12.8C11.9055 12.8 11.0996 13.6059 11.0996 14.6C11.0996 15.5942 11.9055 16.4 12.8996 16.4C13.7221 16.4 14.4158 15.8484 14.6308 15.0948L16.9888 14.3379C16.815 16.9418 14.6479 19 12 19C9.23858 19 7 16.7614 7 14V10C7 7.23858 9.23858 5 12 5C14.7614 5 17 7.23858 17 10Z" fill="#2B2D34"/>
<path d="M4 10C4 9.44772 3.55228 9 3 9C2.44772 9 2 9.44772 2 10V14.05C2 14.6023 2.44772 15.05 3 15.05C3.55228 15.05 4 14.6023 4 14.05V10Z" fill="#2B2D34"/>
</svg>
