<svg width="24" height="24" viewBox="0 0 24 24" fill="none" xmlns="http://www.w3.org/2000/svg">
<path fill-rule="evenodd" clip-rule="evenodd" d="M18.9487 1.68379C18.8391 1.355 18.5671 1.1064 18.2298 1.02677C17.8924 0.947144 17.538 1.04785 17.2929 1.29291L14.2929 4.29291C14.1054 4.48045 14 4.7348 14 5.00002V8.58581L12.0835 10.5023C12.0559 10.5008 12.028 10.5 12 10.5C11.1716 10.5 10.5 11.1716 10.5 12C10.5 12.8284 11.1716 13.5 12 13.5C12.8284 13.5 13.5 12.8284 13.5 12C13.5 11.972 13.4992 11.9442 13.4977 11.9165L15.4142 10H19C19.2652 10 19.5196 9.89466 19.7071 9.70713L22.7071 6.70713C22.9522 6.46206 23.0529 6.10757 22.9732 5.77027C22.8936 5.43296 22.645 5.16093 22.3162 5.05134L19.7906 4.20945L18.9487 1.68379ZM20.1488 6.43704L18.5858 8.00002H16V5.41423L17.563 3.85125L18.0513 5.31625C18.1509 5.61485 18.3852 5.84917 18.6838 5.9487L20.1488 6.43704Z" fill="#2B2D34"/>
<path d="M7.55545 5.34824C8.87104 4.46919 10.4178 4 12 4L12 2C10.0222 2 8.0888 2.58649 6.44431 3.6853C4.79981 4.78412 3.51809 6.3459 2.76121 8.17316C2.00433 10.0004 1.8063 12.0111 2.19215 13.9509C2.578 15.8907 3.53041 17.6725 4.92893 19.0711C6.32746 20.4696 8.10929 21.422 10.0491 21.8079C11.9889 22.1937 13.9996 21.9957 15.8268 21.2388C17.6541 20.4819 19.2159 19.2002 20.3147 17.5557C21.4135 15.9112 22 13.9778 22 12H20C20 13.5823 19.5308 15.129 18.6518 16.4446C17.7727 17.7602 16.5233 18.7855 15.0615 19.391C13.5997 19.9965 11.9911 20.155 10.4393 19.8463C8.88743 19.5376 7.46197 18.7757 6.34315 17.6569C5.22433 16.538 4.4624 15.1126 4.15372 13.5607C3.84504 12.0089 4.00347 10.4003 4.60897 8.93853C5.21447 7.47672 6.23985 6.22729 7.55545 5.34824Z" fill="#2B2D34"/>
<path d="M9.77772 8.67412C10.4355 8.2346 11.2089 8 12 8V6C10.8133 6 9.65328 6.35189 8.66658 7.01118C7.67989 7.67047 6.91085 8.60754 6.45673 9.7039C6.0026 10.8003 5.88378 12.0067 6.11529 13.1705C6.3468 14.3344 6.91825 15.4035 7.75736 16.2426C8.59648 17.0818 9.66557 17.6532 10.8295 17.8847C11.9933 18.1162 13.1997 17.9974 14.2961 17.5433C15.3925 17.0892 16.3295 16.3201 16.9888 15.3334C17.6481 14.3467 18 13.1867 18 12H16C16 12.7911 15.7654 13.5645 15.3259 14.2223C14.8864 14.8801 14.2616 15.3928 13.5307 15.6955C12.7998 15.9983 11.9956 16.0775 11.2196 15.9231C10.4437 15.7688 9.73099 15.3878 9.17158 14.8284C8.61217 14.269 8.2312 13.5563 8.07686 12.7804C7.92252 12.0044 8.00173 11.2002 8.30448 10.4693C8.60723 9.73836 9.11993 9.11365 9.77772 8.67412Z" fill="#2B2D34"/>
</svg>
