<svg width="24" height="24" viewBox="0 0 24 24" fill="none" xmlns="http://www.w3.org/2000/svg">
<path d="M3 3C3 2.44772 3.44772 2 4 2H20C20.5523 2 21 2.44772 21 3V21C21 21.5523 20.5523 22 20 22H4C3.44772 22 3 21.5523 3 21V15H5V20H19V4H5V9H3V3Z" fill="#2B2D34"/>
<path fill-rule="evenodd" clip-rule="evenodd" d="M11 15V18H9V15H7V13H9V12H7V10H9V6L14 6C14.394 6 14.7841 6.0776 15.1481 6.22836C15.512 6.37913 15.8427 6.6001 16.1213 6.87868C16.3999 7.15726 16.6209 7.48797 16.7716 7.85195C16.9224 8.21593 17 8.60603 17 9C17 9.39397 16.9224 9.78407 16.7716 10.1481C16.6209 10.512 16.3999 10.8427 16.1213 11.1213C15.8427 11.3999 15.512 11.6209 15.1481 11.7716C14.7841 11.9224 14.394 12 14 12H11V13H15V15H11ZM14 10C14.1313 10 14.2614 9.97413 14.3827 9.92388C14.504 9.87362 14.6142 9.79997 14.7071 9.70711C14.8 9.61425 14.8736 9.50401 14.9239 9.38268C14.9741 9.26136 15 9.13132 15 9C15 8.86868 14.9741 8.73864 14.9239 8.61732C14.8736 8.49599 14.8 8.38575 14.7071 8.29289C14.6142 8.20003 14.504 8.12637 14.3827 8.07612C14.2614 8.02587 14.1313 8 14 8L11 8V10H14Z" fill="#2B2D34"/>
<path d="M1 13V11H5V13H1Z" fill="#2B2D34"/>
</svg>
