<svg width="24" height="24" viewBox="0 0 24 24" fill="none" xmlns="http://www.w3.org/2000/svg">
<path fill-rule="evenodd" clip-rule="evenodd" d="M2.70711 21.1213C1.53554 19.9497 1.53554 18.0502 2.70711 16.8786L6.5858 13L1.29289 7.70705C0.902369 7.31652 0.902369 6.68336 1.29289 6.29283L6.29289 1.29283C6.68342 0.902309 7.31658 0.902309 7.70711 1.29283L13 6.58574L17.2929 2.29285C17.4211 2.1647 17.5816 2.07378 17.7575 2.02982L21.7575 1.02982C22.0982 0.944624 22.4587 1.04447 22.7071 1.29285C22.9555 1.54123 23.0553 1.90172 22.9701 2.2425L21.9701 6.2425C21.9262 6.41833 21.8353 6.57891 21.7071 6.70707L17.4142 11L22.7071 16.2928C23.0976 16.6834 23.0976 17.3165 22.7071 17.707L17.7071 22.707C17.3166 23.0976 16.6834 23.0976 16.2929 22.707L11 17.4142L7.12133 21.2929C5.94975 22.4644 4.05026 22.4644 2.87868 21.2929L2.70711 21.1213ZM9.5858 16L8.00001 14.4142L4.12133 18.2929C3.7308 18.6834 3.7308 19.3165 4.12132 19.7071L4.2929 19.8786C4.68342 20.2692 5.31659 20.2692 5.70711 19.8786L9.5858 16ZM16 9.58574L20.097 5.48871L20.6256 3.37433L18.5113 3.90293L14.4142 7.99995L16 9.58574ZM17 20.5857L20.5858 16.9999L7 3.41415L3.41421 6.99994L5.00005 8.58577L7.29291 6.29291L8.70712 7.70712L6.41426 9.99998L8.00005 11.5858L9.29291 10.2929L10.7071 11.7071L9.41426 13L11 14.5858L13.2929 12.2929L14.7071 13.7071L12.4143 16L14 17.5858L15.2929 16.2929L16.7071 17.7071L15.4143 19L17 20.5857Z" fill="#2B2D34"/>
</svg>
