<svg width="24" height="24" viewBox="0 0 24 24" fill="none" xmlns="http://www.w3.org/2000/svg">
<path d="M15 16H20.1446C21.5325 16 22.4985 14.6209 22.0242 13.3165L19.4787 6.31651C19.1913 5.52613 18.4402 5 17.5991 5H10L7 6.5V6C7 5.44771 6.55228 5 6 5H3C2.44772 5 2 5.44772 2 6V16C2 16.5523 2.44772 17 3 17H6C6.55228 17 7 16.5523 7 16H9L12.1797 21.5644C12.6399 22.3698 13.6492 22.6754 14.4789 22.2606C14.8171 22.0914 15.0914 21.8171 15.2606 21.4789L15.474 21.052C15.8134 20.3732 15.8988 19.5953 15.7147 18.8589L15 16Z" fill="#2B2D34"/>
</svg>
