<svg width="24" height="24" viewBox="0 0 24 24" fill="none" xmlns="http://www.w3.org/2000/svg">
<path fill-rule="evenodd" clip-rule="evenodd" d="M9.75746 3.02985C9.58163 3.07381 9.42105 3.16473 9.29289 3.29289L6.29295 6.29289C5.90243 6.68342 5.90243 7.31657 6.29295 7.70709L16.2928 17.7071L16.2994 17.7136L17.2929 18.7071C17.4804 18.8946 17.7348 19 18 19H21C21.2652 19 21.5196 18.8946 21.7071 18.7071C21.8946 18.5196 22 18.2652 22 18V15C22 14.7348 21.8946 14.4804 21.7071 14.2929L20.7071 13.2929L20.7003 13.2862L11.956 4.54177L13.6933 4.10745L17.2929 7.7071L18.7071 6.29288L14.7071 2.29288C14.4587 2.0445 14.0982 1.94465 13.7575 2.02985L9.75746 3.02985ZM10 5.41421L18.5857 14L16.9999 15.5858L8.41426 6.99999L10 5.41421ZM20 15.4142V17H18.4142L20 15.4142Z" fill="#2B2D34"/>
<path fill-rule="evenodd" clip-rule="evenodd" d="M4 21C4 20.8481 4.04681 20.4265 4.15615 19.8173C4.26094 19.2334 4.41094 18.5438 4.58976 17.8881C4.7125 17.4381 4.84357 17.0237 4.97581 16.678C5.15866 17.1403 5.34815 17.7067 5.55132 18.3162L5.56253 18.3499C5.80412 19.0747 6.06645 19.8617 6.33619 20.4686C6.47144 20.773 6.63378 21.0912 6.82957 21.3482C6.98506 21.5523 7.37128 22 8 22C8.50053 22 8.86077 21.7374 9.07797 21.4941C9.28398 21.2634 9.42122 20.9891 9.51683 20.7596C9.70237 20.3143 9.84254 19.7532 9.95915 19.2865L9.97014 19.2425C10.0036 19.1085 10.0356 18.9815 10.0665 18.8619C10.1803 19.2038 10.3302 19.6536 10.5321 20.0169C10.7222 20.3592 11.1665 21 12 21H15L14.9996 19H12.2562C12.1633 18.8179 12.0724 18.5548 11.9487 18.1838L11.9343 18.1404C11.8203 17.7983 11.6702 17.3472 11.4679 16.9831C11.2778 16.6408 10.8335 16 10 16C9.49947 16 9.13923 16.2626 8.92203 16.5059C8.71602 16.7366 8.57878 17.0109 8.48317 17.2404C8.29763 17.6857 8.15746 18.2467 8.04085 18.7135L8.02986 18.7575C7.99923 18.88 7.96993 18.9966 7.94146 19.1072C7.7842 18.6888 7.62138 18.2019 7.44868 17.6838L7.43747 17.6501C7.19588 16.9253 6.93355 16.1383 6.66381 15.5314C6.52856 15.227 6.36622 14.9087 6.17043 14.6518C6.01494 14.4477 5.62872 14 5 14C4.44591 14 4.06969 14.3381 3.87896 14.5531C3.66838 14.7904 3.50035 15.0825 3.36547 15.3613C3.09151 15.9275 2.85373 16.6524 2.66024 17.3619C2.46406 18.0812 2.30156 18.8291 2.1876 19.464C2.07819 20.0735 2 20.6518 2 21C2 21.5523 2.44772 22 3 22C3.55228 22 4 21.5523 4 21Z" fill="#2B2D34"/>
</svg>
