<svg width="24" height="24" viewBox="0 0 24 24" fill="none" xmlns="http://www.w3.org/2000/svg">
<path d="M11 8C11 9.10457 10.1046 10 9 10C7.89543 10 7 9.10457 7 8C7 6.89543 7.89543 6 9 6C10.1046 6 11 6.89543 11 8Z" fill="#2B2D34"/>
<path fill-rule="evenodd" clip-rule="evenodd" d="M8.99245 2C10.3706 1.99827 11.7073 2.47099 12.7779 3.33872C13.8485 4.20645 14.5878 5.41629 14.8715 6.76489C15.1552 8.11349 14.966 9.51864 14.3357 10.7442C13.8069 11.7724 12.99 12.619 12 13.1915V16H13C13.5523 16 14 16.4477 14 17V21C14 21.5523 13.5523 22 13 22H7.00001C6.44772 22 6.00001 21.5523 6.00001 21V13.1997C5.00887 12.6273 4.20035 11.78 3.67125 10.7576C3.03787 9.53366 2.84513 8.12899 3.12542 6.77968C3.40571 5.43037 4.14194 4.21868 5.21039 3.34825C6.27883 2.47783 7.61434 2.00174 8.99245 2ZM12 18H10V11.9255L10.5983 11.663C11.443 11.2924 12.1386 10.6432 12.5571 9.82945C12.9773 9.01243 13.1035 8.07566 12.9143 7.17659C12.7252 6.27753 12.2324 5.47097 11.5186 4.89248C10.8049 4.314 9.91371 3.99885 8.99497 4C8.07623 4.00116 7.18589 4.31855 6.47359 4.89883C5.7613 5.47912 5.27047 6.28691 5.08361 7.18645C4.89675 8.086 5.02525 9.02244 5.44751 9.8384C5.87077 10.6563 6.55916 11.3031 7.39943 11.6692L8.00001 11.9308V20H12V18Z" fill="#2B2D34"/>
<path fill-rule="evenodd" clip-rule="evenodd" d="M22.7071 12.7071L18.7071 16.7071C18.3166 17.0976 17.6834 17.0976 17.2929 16.7071L15.2929 14.7071L16.7071 13.2929L18 14.5858L21.2929 11.2929L22.7071 12.7071Z" fill="#2B2D34"/>
</svg>
