<svg width="24" height="24" viewBox="0 0 24 24" fill="none" xmlns="http://www.w3.org/2000/svg">
<path fill-rule="evenodd" clip-rule="evenodd" d="M18 3C18 2.44772 17.5523 2 17 2H3C2.44771 2 2 2.44772 2 3V21C2 21.5523 2.44771 22 3 22H11V20H4V4H16V8H18V3Z" fill="#2B2D34"/>
<path d="M15 13C15 12.4477 15.4477 12 16 12C16.5523 12 17 12.4477 17 13V19H19V13C19 11.3431 17.6569 10 16 10C14.3431 10 13 11.3431 13 13V18C13 20.7614 15.2386 23 18 23C20.7614 23 23 20.7614 23 18V11H21V18C21 19.6569 19.6569 21 18 21C16.3431 21 15 19.6569 15 18V13Z" fill="#2B2D34"/>
</svg>
