<svg width="24" height="24" viewBox="0 0 24 24" fill="none" xmlns="http://www.w3.org/2000/svg">
<path fill-rule="evenodd" clip-rule="evenodd" d="M6 3C6 2.44772 6.44772 2 7 2H21C21.5523 2 22 2.44772 22 3V21C22 21.5523 21.5523 22 21 22H12V20H20V4H8V9H6V3Z" fill="#2B2D34"/>
<path fill-rule="evenodd" clip-rule="evenodd" d="M10.2929 9.29289C10.6834 8.90237 11.3166 8.90237 11.7071 9.29289L14.7071 12.2929C15.0976 12.6834 15.0976 13.3166 14.7071 13.7071L6.70711 21.7071C6.51957 21.8946 6.26522 22 6 22H3C2.44772 22 2 21.5523 2 21V18C2 17.7348 2.10536 17.4804 2.29289 17.2929L10.2929 9.29289ZM4 18.4142V20H5.58579L12.5858 13L11 11.4142L4 18.4142Z" fill="#2B2D34"/>
</svg>
