<svg width="24" height="24" viewBox="0 0 24 24" fill="none" xmlns="http://www.w3.org/2000/svg">
<path fill-rule="evenodd" clip-rule="evenodd" d="M6 3C6 2.44772 6.44772 2 7 2H21C21.5523 2 22 2.44772 22 3V20C22 20.5523 21.5523 21 21 21H20V4H8V9H6V3Z" fill="#2B2D34"/>
<path fill-rule="evenodd" clip-rule="evenodd" d="M2.73307 10.8696C3.16624 10.7496 3.62624 10.9334 3.85749 11.3188L7 16.5563V11H9V20.1667C9 20.6161 8.70011 21.0104 8.26693 21.1304C7.83376 21.2504 7.37376 21.0666 7.14251 20.6812L4 15.4437V21H2V11.8333C2 11.3839 2.29989 10.9896 2.73307 10.8696Z" fill="#2B2D34"/>
<path fill-rule="evenodd" clip-rule="evenodd" d="M18 21H11V19H18V21Z" fill="#2B2D34"/>
<path fill-rule="evenodd" clip-rule="evenodd" d="M14.5 13C13.6716 13 13 13.6716 13 14.5C13 15.3284 13.6716 16 14.5 16C15.3284 16 16 15.3284 16 14.5C16 13.6716 15.3284 13 14.5 13ZM11 14.5C11 12.567 12.567 11 14.5 11C16.433 11 18 12.567 18 14.5C18 16.433 16.433 18 14.5 18C12.567 18 11 16.433 11 14.5Z" fill="#2B2D34"/>
</svg>
