<svg width="24" height="24" viewBox="0 0 24 24" fill="none" xmlns="http://www.w3.org/2000/svg">
<path fill-rule="evenodd" clip-rule="evenodd" d="M18 3C18 2.44772 17.5523 2 17 2H3C2.44771 2 2 2.44772 2 3V21C2 21.5523 2.44771 22 3 22H9V20H4V4H16V9H18V3Z" fill="#2B2D34"/>
<path fill-rule="evenodd" clip-rule="evenodd" d="M16.481 11.6452C16.7999 11.4516 17.2001 11.4516 17.519 11.6452L21.519 14.0738C21.8176 14.2551 22 14.5792 22 14.9286V19.0714C22 19.4208 21.8176 19.7449 21.519 19.9262L17.519 22.3548C17.2001 22.5484 16.7999 22.5484 16.481 22.3548L12.481 19.9262C12.1824 19.7449 12 19.4208 12 19.0714V14.9286C12 14.5792 12.1824 14.2551 12.481 14.0738L16.481 11.6452ZM14 15.4913V18.5087L17 20.3301L20 18.5087V15.4913L17 13.6699L14 15.4913Z" fill="#2B2D34"/>
</svg>
