<svg width="24" height="24" viewBox="0 0 24 24" fill="none" xmlns="http://www.w3.org/2000/svg">
<path fill-rule="evenodd" clip-rule="evenodd" d="M6 3C6 2.44772 6.44772 2 7 2H21C21.5523 2 22 2.44772 22 3V21C22 21.5523 21.5523 22 21 22H12V20H20V4H8V9H6V3Z" fill="#2B2D34"/>
<path fill-rule="evenodd" clip-rule="evenodd" d="M6 17V19H10V21H6V23H4V21H2V19H4V17H2V15H4V11H9C9.39397 11 9.78407 11.0776 10.1481 11.2284C10.512 11.3791 10.8427 11.6001 11.1213 11.8787C11.3999 12.1573 11.6209 12.488 11.7716 12.8519C11.9224 13.2159 12 13.606 12 14C12 14.394 11.9224 14.7841 11.7716 15.1481C11.6209 15.512 11.3999 15.8427 11.1213 16.1213C10.8427 16.3999 10.512 16.6209 10.1481 16.7716C9.78407 16.9224 9.39397 17 9 17H6ZM9 15C9.13132 15 9.26136 14.9741 9.38268 14.9239C9.50401 14.8736 9.61425 14.8 9.70711 14.7071C9.79997 14.6142 9.87362 14.504 9.92388 14.3827C9.97413 14.2614 10 14.1313 10 14C10 13.8687 9.97413 13.7386 9.92388 13.6173C9.87362 13.496 9.79997 13.3858 9.70711 13.2929C9.61425 13.2 9.50401 13.1264 9.38268 13.0761C9.26136 13.0259 9.13132 13 9 13H6V15H9Z" fill="#2B2D34"/>
</svg>
