<svg width="24" height="24" viewBox="0 0 24 24" fill="none" xmlns="http://www.w3.org/2000/svg">
<path fill-rule="evenodd" clip-rule="evenodd" d="M2.65264 2.93324C3.29529 2.29059 4.22431 2.02546 5.10935 2.23213L6.54735 2.56793C8.96294 1.78732 11.2228 2.30964 12.84 2.99432C13.6857 3.35241 14.3789 3.76394 14.8617 4.08634C14.9654 4.15564 15.0599 4.22108 15.1445 4.28132C16.683 3.70192 18.1676 3.72835 19.2819 3.90523C19.911 4.00509 20.4357 4.15482 20.8065 4.28095C20.9924 4.34419 21.1412 4.40202 21.2468 4.44561C21.2997 4.46742 21.3418 4.48572 21.3726 4.49942C21.388 4.50627 21.4005 4.51197 21.4101 4.5164L21.4223 4.52207L21.4267 4.52415L21.4285 4.525L21.43 4.52572C21.7477 4.67698 21.9625 4.98404 21.9956 5.33429C22.0288 5.68455 21.8755 6.02647 21.5919 6.23468L18.7095 8.35067C18.7462 8.42259 18.784 8.49876 18.8227 8.57904C19.1388 9.23459 19.518 10.173 19.7756 11.3158C20.2568 13.4505 20.3132 16.3089 18.7421 19.3278L19.4143 20H21.0001C21.5524 20 22.0001 20.4477 22.0001 21V22H19.0001C18.7349 22 18.4805 21.8946 18.293 21.7071L17.5001 20.9142L16.7072 21.7071C16.5197 21.8946 16.2653 22 16.0001 22H13.0001V21C13.0001 20.4477 13.4478 20 14.0001 20H15.5859L16.3823 19.2036C16.3466 19.0849 16.3041 18.9494 16.2545 18.8006C16.0631 18.2263 15.7716 17.4707 15.3696 16.7241C14.6005 15.2958 13.6076 14.2181 12.3849 14.0294L10.7072 15.7071C10.4181 15.9963 9.98201 16.0802 9.60617 15.9192L9.59462 15.9141L9.60498 15.9186L9.60371 15.9181L9.60097 15.9169L9.59462 15.9141L9.57859 15.907C9.56645 15.9015 9.55143 15.8945 9.53377 15.886C9.4985 15.8691 9.45253 15.846 9.398 15.8164C9.28932 15.7574 9.1444 15.6713 8.98135 15.5548C8.65853 15.3242 8.24349 14.9594 7.90643 14.4297C7.27674 13.4402 7.03799 12.0687 7.74044 10.3292L2.98353 6.93137C1.66163 5.98715 1.50394 4.08194 2.65264 2.93324ZM9.87964 13.7062L11.293 12.2929C11.4805 12.1054 11.7349 12 12.0001 12C14.5994 12 16.2288 14.1012 17.1306 15.7759C17.3197 16.1271 17.4865 16.4769 17.6324 16.8115C18.238 14.9064 18.14 13.1547 17.8246 11.7556C17.6072 10.7913 17.2864 9.99756 17.0212 9.44775C16.889 9.17358 16.7717 8.96226 16.6899 8.82315C16.6491 8.75367 16.6172 8.7024 16.597 8.67054C16.5908 8.6609 16.5858 8.65304 16.5819 8.647C16.5793 8.64307 16.5772 8.63991 16.5757 8.63753L16.5729 8.63332L16.5722 8.63233C16.2708 8.18744 16.3748 7.58355 16.8083 7.26533L18.7391 5.84786C17.7789 5.72681 16.5965 5.77597 15.43 6.33144C15.0737 6.5011 14.6511 6.44534 14.351 6.18928L14.3493 6.18783L14.3472 6.18607L14.3228 6.16604C14.2994 6.14694 14.2616 6.11674 14.2105 6.07745C14.1081 5.99879 13.9526 5.8842 13.751 5.7496C13.3463 5.47937 12.7644 5.13421 12.0602 4.83605C10.642 4.23559 8.81891 3.86132 6.94318 4.54645C6.76042 4.6132 6.56216 4.62519 6.37269 4.58095L4.65455 4.17974C4.44283 4.13029 4.22059 4.19372 4.06685 4.34746C3.79206 4.62225 3.82978 5.07802 4.14601 5.3039L9.58133 9.18627C9.99111 9.47897 10.1193 10.0307 9.88056 10.4741C9.02473 12.0635 9.3174 12.9217 9.59375 13.356C9.67984 13.4913 9.77906 13.6078 9.87964 13.7062ZM16.5729 8.63332L16.5738 8.63463C16.5757 8.63753 16.5729 8.63332 16.5729 8.63332Z" fill="#2B2D34"/>
</svg>
