<svg width="24" height="24" viewBox="0 0 24 24" fill="none" xmlns="http://www.w3.org/2000/svg">
<path d="M17 16C19.7614 16 22 13.7614 22 11C22 8.75435 20.51 6.82121 18.4194 6.2044C17.3228 3.68588 14.8226 2 12 2C8.43478 2 5.49209 4.66532 5.05578 8.11209C3.30232 8.53643 2 10.1161 2 12C2 14.2091 3.79086 16 6 16H9V14H6C4.89543 14 4 13.1046 4 12C4 10.8954 4.89543 10 6 10C6.55228 10 7 9.55228 7 9C7 6.23858 9.23858 4 12 4C14.1545 4 16.0463 5.37526 16.7323 7.38093C16.8508 7.72737 17.1492 7.98136 17.5101 8.04303C18.939 8.28719 20 9.53287 20 11C20 12.6569 18.6569 14 17 14H15V16H17Z" fill="#2B2D34"/>
<path d="M11 12V18.4858L9.71421 17.2L8.3 18.6142L11.3 21.6142C11.6905 22.0047 12.3237 22.0047 12.7142 21.6142L15.7142 18.6142L14.3 17.2L13 18.5V12H11Z" fill="#2B2D34"/>
</svg>
