<svg width="24" height="24" viewBox="0 0 24 24" fill="none" xmlns="http://www.w3.org/2000/svg">
<path fill-rule="evenodd" clip-rule="evenodd" d="M6 11C6 9.34315 7.34315 8 9 8C10.6569 8 12 9.34315 12 11C12 11.9356 11.5717 12.7712 10.9005 13.3213C12.1669 13.7925 13 14.7521 13 16H11C11 15.8 10.7333 15 9 15C7.26667 15 7 15.8 7 16H5C5 14.7521 5.83313 13.7925 7.0995 13.3213C6.42829 12.7712 6 11.9356 6 11ZM9 10C8.44772 10 8 10.4477 8 11C8 11.5523 8.44772 12 9 12C9.55228 12 10 11.5523 10 11C10 10.4477 9.55228 10 9 10Z" fill="#2B2D34"/>
<path d="M14 11H18V9H14V11Z" fill="#2B2D34"/>
<path d="M17 15H14V13H17V15Z" fill="#2B2D34"/>
<path fill-rule="evenodd" clip-rule="evenodd" d="M2 7C2 5.34315 3.34315 4 5 4H19C20.6569 4 22 5.34315 22 7V17C22 18.6569 20.6569 20 19 20H5C3.34315 20 2 18.6569 2 17V7ZM5 6C4.44772 6 4 6.44772 4 7V17C4 17.5523 4.44772 18 5 18H19C19.5523 18 20 17.5523 20 17V7C20 6.44772 19.5523 6 19 6H5Z" fill="#2B2D34"/>
</svg>
