<svg width="24" height="24" viewBox="0 0 24 24" fill="none" xmlns="http://www.w3.org/2000/svg">
<path d="M13 6H12C10.9459 6 9.92041 6.27738 9.02109 6.79171L8.97864 6.81622C8.53648 7.07392 8.12547 7.38925 7.75736 7.75736C7.39037 8.12435 7.07583 8.53399 6.81856 8.97463L6.7894 9.02513C6.27655 9.92348 6 10.9475 6 12C6 13.5913 6.63214 15.1174 7.75736 16.2426C8.12663 16.6119 8.53907 16.9281 8.98282 17.1862L9.01689 17.2059C9.91721 17.7218 10.9443 18 12 18H13V22H11V19.9373C10.2736 19.8458 9.56646 19.6554 8.89745 19.3739L7.86608 21.1603L6.13403 20.1603L7.16538 18.3739C6.87691 18.1551 6.60207 17.9158 6.34315 17.6569C6.08422 17.3979 5.84487 17.1231 5.62607 16.8346L3.83961 17.866L2.83961 16.134L4.62611 15.1025C4.34463 14.4335 4.15421 13.7264 4.06272 13H2V11H4.06272C4.15422 10.2736 4.34466 9.56635 4.62618 8.89731L2.83984 7.86597L3.83984 6.13392L5.62617 7.16525C5.84495 6.87683 6.08426 6.60203 6.34315 6.34315C6.60207 6.08422 6.87691 5.84489 7.16537 5.62608L6.13403 3.83975L7.86608 2.83975L8.89744 4.62612C9.56645 4.34464 10.2736 4.15421 11 4.06272V2H13V6Z" fill="#2B2D34"/>
<path fill-rule="evenodd" clip-rule="evenodd" d="M12 8C9.79086 8 8 9.79086 8 12C8 14.2091 9.79086 16 12 16C14.2091 16 16 14.2091 16 12C16 9.79086 14.2091 8 12 8ZM10 12C10 10.8954 10.8954 10 12 10C13.1046 10 14 10.8954 14 12C14 13.1046 13.1046 14 12 14C10.8954 14 10 13.1046 10 12Z" fill="#2B2D34"/>
<path d="M20 14V13H18V11H21C21.5523 11 22 11.4477 22 12V14H20Z" fill="#2B2D34"/>
<path d="M17.3818 19.5283L15.8817 16.7244L14.1182 17.6679L15.1901 19.6714L14.4453 20.1679L15.5547 21.832L17.0547 20.832C17.4831 20.5464 17.6247 19.9822 17.3818 19.5283Z" fill="#2B2D34"/>
<path d="M20.168 9.55471L19.6715 8.8099L17.6679 9.88173L16.7245 8.11823L19.5283 6.61825C19.9823 6.37539 20.5465 6.51692 20.8321 6.94531L21.8321 8.44531L20.168 9.55471Z" fill="#2B2D34"/>
<path d="M20.4719 15.6183L17.6681 14.1182L16.7246 15.8817L18.5569 16.862L18.1681 17.4453L19.8322 18.5547L20.8322 17.0547C20.9886 16.8201 21.0387 16.5303 20.9701 16.2567C20.9014 15.9832 20.7205 15.7513 20.4719 15.6183Z" fill="#2B2D34"/>
<path d="M17.0548 3.16795C16.8201 3.01152 16.5303 2.96144 16.2568 3.03005C15.9832 3.09866 15.7514 3.27958 15.6183 3.52824L14.1182 6.33204L15.8816 7.27557L16.862 5.44317L17.4454 5.83205L18.5548 4.16795L17.0548 3.16795Z" fill="#2B2D34"/>
</svg>
