<svg width="24" height="24" viewBox="0 0 24 24" fill="none" xmlns="http://www.w3.org/2000/svg">
<path d="M10.5558 3.68509C12.2004 3.0039 14.01 2.82567 15.7558 3.17294C17.5016 3.5202 19.1053 4.37737 20.364 5.63604L18.9497 7.05026C17.9708 6.07129 16.7235 5.4046 15.3656 5.13451C14.0078 4.86441 12.6003 5.00303 11.3212 5.53285C10.0421 6.06266 8.94888 6.95987 8.17971 8.11101C7.98941 8.39583 7.82105 8.69302 7.67544 9H17L16 11H7.07179C7.02418 11.3299 7 11.664 7 12C7 12.336 7.02418 12.6701 7.07179 13H15L14 15H7.67544C7.82105 15.307 7.98941 15.6042 8.17971 15.889C8.94888 17.0401 10.0421 17.9373 11.3212 18.4672C12.6003 18.997 14.0078 19.1356 15.3656 18.8655C16.7235 18.5954 17.9708 17.9287 18.9497 16.9498L20.364 18.364C19.1053 19.6226 17.5016 20.4798 15.7558 20.8271C14.01 21.1743 12.2004 20.9961 10.5559 20.3149C8.91132 19.6337 7.50571 18.4802 6.51677 17.0001C6.09865 16.3744 5.76294 15.7021 5.51472 15H3V13H5.05572C5.01872 12.6691 5 12.3352 5 12C5 11.6648 5.01872 11.3309 5.05572 11H3V9H5.51472C5.76295 8.2979 6.09865 7.62564 6.51677 6.99987C7.50571 5.51983 8.91131 4.36628 10.5558 3.68509Z" fill="#2B2D34"/>
</svg>
