<svg width="24" height="24" viewBox="0 0 24 24" fill="none" xmlns="http://www.w3.org/2000/svg">
<path fill-rule="evenodd" clip-rule="evenodd" d="M15.9994 9V8H18.9994C19.3934 8 19.7835 7.9224 20.1474 7.77164C20.5114 7.62087 20.8421 7.3999 21.1207 7.12132C21.3993 6.84274 21.6203 6.51203 21.771 6.14805C21.9218 5.78407 21.9994 5.39397 21.9994 5C21.9994 4.60603 21.9218 4.21593 21.771 3.85195C21.6203 3.48797 21.3993 3.15726 21.1207 2.87868C20.8421 2.6001 20.5114 2.37913 20.1474 2.22836C19.7835 2.0776 19.3934 2 18.9994 2H13.9994V6H12.9994V8H13.9994V9H12.9994V11H13.9994V14H15.9994V11H18.9994V9H15.9994ZM19.3821 5.92388C19.2607 5.97413 19.1307 6 18.9994 6H15.9994V4L18.9994 4C19.1307 4 19.2607 4.02587 19.3821 4.07612C19.5034 4.12637 19.6136 4.20003 19.7065 4.29289C19.7994 4.38575 19.873 4.49599 19.9233 4.61732C19.9735 4.73864 19.9994 4.86868 19.9994 5C19.9994 5.13132 19.9735 5.26136 19.9233 5.38268C19.873 5.50401 19.7994 5.61425 19.7065 5.70711C19.6136 5.79997 19.5034 5.87362 19.3821 5.92388Z" fill="#2B2D34"/>
<path d="M5.99939 21V22H7.99939V21C9.65624 21 10.9994 19.6569 10.9994 18C10.9994 16.3431 9.65624 15 7.99939 15H5.99939C5.4471 15 4.99939 14.5523 4.99939 14C4.99939 13.4477 5.4471 13 5.99939 13H7.99939C8.55167 13 8.99939 13.4477 8.99939 14H10.9994C10.9994 12.3431 9.65624 11 7.99939 11V10H5.99939V11C4.34254 11 2.99939 12.3431 2.99939 14C2.99939 15.6569 4.34254 17 5.99939 17H7.99939C8.55167 17 8.99939 17.4477 8.99939 18C8.99939 18.5523 8.55167 19 7.99939 19H5.99939C5.4471 19 4.99939 18.5523 4.99939 18H2.99939C2.99939 19.6569 4.34254 21 5.99939 21Z" fill="#2B2D34"/>
<path d="M4.27194 9.9295C4.72774 8.22844 5.7321 6.7253 7.12926 5.65323C8.52641 4.58115 10.2383 4.00006 11.9993 4.00006V2.00006C9.79801 2.00006 7.65818 2.72643 5.91173 4.06652C4.16529 5.40661 2.90984 7.28553 2.34009 9.41187L4.27194 9.9295Z" fill="#2B2D34"/>
<path d="M16.8695 18.3468C18.2667 17.2747 19.271 15.7716 19.7268 14.0705L21.6587 14.5881C21.0889 16.7145 19.8335 18.5934 18.087 19.9335C16.3406 21.2736 14.2008 21.9999 11.9994 21.9999L11.9994 19.9999C13.7605 19.9999 15.4724 19.4188 16.8695 18.3468Z" fill="#2B2D34"/>
</svg>
