<svg width="24" height="24" viewBox="0 0 24 24" fill="none" xmlns="http://www.w3.org/2000/svg">
<path d="M10 10.5C10 11.3284 9.32843 12 8.5 12C7.67157 12 7 11.3284 7 10.5C7 9.67157 7.67157 9 8.5 9C9.32843 9 10 9.67157 10 10.5Z" fill="#2B2D34"/>
<path d="M15.5 12C16.3284 12 17 11.3284 17 10.5C17 9.67157 16.3284 9 15.5 9C14.6716 9 14 9.67157 14 10.5C14 11.3284 14.6716 12 15.5 12Z" fill="#2B2D34"/>
<path d="M11.9998 16C10.8262 16 9.77177 15.4959 9.03866 14.6892L7.55859 16.0343C8.65477 17.2405 10.2393 18 11.9998 18C13.7603 18 15.3449 17.2405 16.441 16.0343L14.961 14.6892C14.2279 15.4959 13.1734 16 11.9998 16Z" fill="#2B2D34"/>
<path fill-rule="evenodd" clip-rule="evenodd" d="M2 12C2 6.47715 6.47715 2 12 2C17.5228 2 22 6.47715 22 12C22 17.5228 17.5228 22 12 22C6.47715 22 2 17.5228 2 12ZM12 4C7.58172 4 4 7.58172 4 12C4 16.4183 7.58172 20 12 20C16.4183 20 20 16.4183 20 12C20 7.58172 16.4183 4 12 4Z" fill="#2B2D34"/>
</svg>
