<svg width="24" height="24" viewBox="0 0 24 24" fill="none" xmlns="http://www.w3.org/2000/svg">
<path d="M3 5H2V3H22V5H21V17H19V5H5V17H3V5Z" fill="#2B2D34"/>
<path d="M22 19V21H2V19H22Z" fill="#2B2D34"/>
<path d="M9 17V10.3746C9.14729 10.2214 9.36702 10.015 9.65067 9.80874C10.2277 9.38906 11.0255 9 12 9C12.9745 9 13.7723 9.38906 14.3493 9.80874C14.633 10.015 14.8527 10.2214 15 10.3746V17H17V9.66667L16.8 9.4L16.7879 9.38409C16.7666 9.35684 16.799 9.39866 16.799 9.39866L16.7978 9.39712L16.7951 9.39351L16.7879 9.38409L16.7666 9.35684C16.7493 9.33506 16.726 9.30617 16.6966 9.27119C16.638 9.20132 16.555 9.10667 16.4486 8.99559C16.2365 8.7743 15.9266 8.48282 15.5257 8.19126C14.7277 7.61094 13.5255 7 12 7C10.4745 7 9.27227 7.61094 8.47433 8.19126C8.07343 8.48282 7.76353 8.7743 7.55145 8.99559C7.445 9.10667 7.36201 9.20132 7.30336 9.27119C7.27401 9.30617 7.25065 9.33506 7.23341 9.35684L7.21211 9.38409L7.2049 9.39351L7.20216 9.39712L7.20101 9.39866L7.2 9.4L7.29981 9.47505C7.20149 9.40138 7.2 9.4 7.2 9.4L7 9.66667V17H9Z" fill="#2B2D34"/>
<path d="M12.4744 11.8419C12.4063 11.6377 12.2152 11.5 12 11.5C11.7848 11.5 11.5937 11.6377 11.5257 11.8419L10.6283 14.534C10.5518 14.7636 10.4665 15.1051 10.575 15.4639C10.6355 15.6638 10.754 15.9257 10.9908 16.14C11.2379 16.3636 11.5749 16.5 12 16.5C12.4252 16.5 12.7622 16.3636 13.0092 16.14C13.246 15.9257 13.3646 15.6638 13.4251 15.4639C13.5336 15.1051 13.4483 14.7636 13.3717 14.534L12.4744 11.8419Z" fill="#2B2D34"/>
</svg>
