<svg width="24" height="24" viewBox="0 0 24 24" fill="none" xmlns="http://www.w3.org/2000/svg">
<path fill-rule="evenodd" clip-rule="evenodd" d="M6.14935 4.47427C6.33156 4.17945 6.65342 4 7 4H13C16.419 4 18.9215 5.99685 20.5093 7.84921C21.3108 8.78435 21.9085 9.71488 22.3057 10.4101C22.505 10.7588 22.6555 11.0512 22.7574 11.2594C22.8084 11.3635 22.8474 11.4467 22.8743 11.5056L22.9184 11.6045C23.0263 11.856 23.0135 12.1731 22.9057 12.4247C22.8982 12.4415 22.8878 12.4649 22.8743 12.4944C22.8474 12.5533 22.8084 12.6365 22.7574 12.7406C22.6555 12.9488 22.505 13.2412 22.3057 13.5899C21.9085 14.2851 21.3108 15.2157 20.5093 16.1508C18.9215 18.0031 16.419 20 13 20H7C6.65342 20 6.33156 19.8205 6.14935 19.5257C5.96714 19.2309 5.95058 18.8628 6.10557 18.5528L6.84604 17.0718L5.72265 15.3868L3.5547 16.8321C3.24784 17.0366 2.8533 17.0557 2.52814 16.8817C2.20298 16.7077 2 16.3688 2 16V8C2 7.6312 2.20298 7.29234 2.52814 7.11833C2.8533 6.94431 3.24784 6.96338 3.5547 7.16795L5.72265 8.61325L6.84604 6.92816L6.10557 5.44721C5.95058 5.13723 5.96714 4.76909 6.14935 4.47427ZM20.5693 11.4024C20.7028 11.6362 20.8104 11.8393 20.892 12C20.8104 12.1607 20.7028 12.3638 20.5693 12.5976C20.2165 13.2149 19.6892 14.0343 18.9907 14.8492C18.5198 15.3987 17.9837 15.9321 17.3826 16.399C16.3859 15.9158 15.5417 15.1658 14.9445 14.2314C14.3308 13.2713 14.0032 12.1563 14 11.0168L12 11.0225C12.0043 12.5418 12.4411 14.0284 13.2594 15.3086C13.8226 16.1898 14.5506 16.9481 15.3989 17.5444C14.6649 17.8311 13.8652 18 13 18H8.61803L8.89443 17.4472C9.05491 17.1262 9.03111 16.7439 8.83205 16.4453L6.83205 13.4453C6.5257 12.9858 5.90483 12.8616 5.4453 13.1679L4 14.1315V9.86852L5.4453 10.8321C5.90483 11.1384 6.5257 11.0142 6.83205 10.5547L8.83205 7.5547C9.03111 7.25611 9.05491 6.87376 8.89443 6.55279L8.61803 6H13C15.581 6 17.5785 7.50315 18.9907 9.15079C19.6892 9.96565 20.2165 10.7851 20.5693 11.4024Z" fill="#2B2D34"/>
<path d="M18 11C18 11.5523 17.5523 12 17 12C16.4477 12 16 11.5523 16 11C16 10.4477 16.4477 10 17 10C17.5523 10 18 10.4477 18 11Z" fill="#2B2D34"/>
</svg>
