<svg width="24" height="24" viewBox="0 0 24 24" fill="none" xmlns="http://www.w3.org/2000/svg">
<path fill-rule="evenodd" clip-rule="evenodd" d="M10.9957 6.51341C10.9033 6.52293 10.5158 6.55897 10.1346 6.5935C7.38063 6.8429 4.86298 7.75334 3.39322 9.03134C2.37028 9.92084 1.8859 10.9679 2.02271 11.994C2.16884 13.0904 2.87499 14.0325 4.19123 14.8871C5.60311 15.8039 7.64349 16.4613 9.83574 16.7058C10.1218 16.7378 10.362 16.77 10.3696 16.7776C10.3771 16.7851 10.3863 17.1444 10.3901 17.5761C10.3944 18.0605 10.4129 18.361 10.4386 18.361C10.4741 18.361 11.645 17.6949 13.5579 16.5863C13.8351 16.4257 14.2509 16.1852 14.4819 16.0519C14.7129 15.9186 15.1653 15.6566 15.4872 15.4699C15.8091 15.2831 16.0879 15.1303 16.1068 15.1303C16.1256 15.1303 16.1409 15.1067 16.1408 15.0778C16.1406 15.0311 15.4815 14.6422 12.1718 12.7362C11.6635 12.4435 11.0681 12.0997 10.8487 11.9722C10.6292 11.8447 10.435 11.7492 10.417 11.7601C10.3991 11.7711 10.3864 12.1012 10.3888 12.4939C10.3912 12.8865 10.3817 13.2192 10.3676 13.2332C10.325 13.2758 9.46679 13.165 8.81091 13.0323C7.02168 12.6703 5.5081 12.0037 4.72379 11.2323C4.08572 10.6047 4.08723 10.201 4.73 9.57968C5.78562 8.55931 8.08132 7.75196 10.5337 7.53869C11.1813 7.48234 12.7394 7.48158 13.4363 7.53722C14.7042 7.6385 16.1805 7.96108 17.182 8.35573C17.6326 8.53326 18.365 8.89963 18.6612 9.09574C19.0877 9.37799 19.5217 9.81352 19.6681 10.1063C19.7381 10.2461 19.7953 10.3811 19.7952 10.4063C19.7952 10.4314 19.741 10.5653 19.6748 10.7037C19.3512 11.3801 18.1934 12.1407 16.7711 12.6114C16.2765 12.7751 15.7092 12.9311 15.385 12.9925C14.9615 13.0726 14.9583 13.0842 15.3054 13.2858C16.4338 13.9414 17.9666 14.8263 18.1673 14.938C18.2538 14.986 18.3241 15.0443 18.3237 15.0674C18.3233 15.0904 18.1362 15.2117 17.908 15.3369C17.6797 15.4621 17.4538 15.5943 17.4059 15.6306L17.3188 15.6967L17.424 15.8305L17.5291 15.9642L17.7697 15.8823C18.6397 15.5861 19.7309 15.0008 20.379 14.4827C20.7079 14.2199 21.2387 13.6719 21.4195 13.4087C22.0714 12.4594 22.1772 11.4234 21.7219 10.4467C21.1909 9.30759 19.9103 8.29338 18.0736 7.5574C16.9044 7.08886 15.3895 6.73956 13.8729 6.58872C13.2212 6.52394 11.3651 6.47535 10.9957 6.51341Z" fill="#2B2D34"/>
</svg>
