<svg width="24" height="24" viewBox="0 0 24 24" fill="none" xmlns="http://www.w3.org/2000/svg">
<path fill-rule="evenodd" clip-rule="evenodd" d="M15 2C13.3431 2 12 3.34315 12 5V12H7.00001C6.71317 12 6.44015 12.1232 6.25033 12.3382C6.0605 12.5532 5.97215 12.8394 6.00773 13.124L7.00773 21.124C7.07028 21.6245 7.49568 22 8.00001 22H18C18.5043 22 18.9297 21.6245 18.9923 21.124L19.9923 13.124C20.0279 12.8394 19.9395 12.5532 19.7497 12.3382C19.5599 12.1232 19.2868 12 19 12H14V8H17C18.6569 8 20 6.65685 20 5V2H15ZM14 6H17C17.5523 6 18 5.55228 18 5V4H15C14.4477 4 14 4.44772 14 5V6ZM8.88279 20L8.13279 14H17.8672L17.1172 20H8.88279Z" fill="#2B2D34"/>
<path fill-rule="evenodd" clip-rule="evenodd" d="M11 7C11 5.34315 9.65685 4 8 4H3V7C3 8.65685 4.34315 10 6 10H11V7ZM8 6C8.55228 6 9 6.44772 9 7V8H6C5.44772 8 5 7.55228 5 7V6H8Z" fill="#2B2D34"/>
</svg>
