<svg width="24" height="24" viewBox="0 0 24 24" fill="none" xmlns="http://www.w3.org/2000/svg">
<path fill-rule="evenodd" clip-rule="evenodd" d="M15 2H9V4H11V6.05009C8.71511 6.27966 6.5671 7.29077 4.92893 8.92893C3.05357 10.8043 2 13.3478 2 16C2 16.5523 2.44772 17 3 17L21 17C21.5523 17 22 16.5523 22 16C22 13.3478 20.9464 10.8043 19.0711 8.92893C17.4329 7.29077 15.2849 6.27966 13 6.05009V4H15V2ZM12 8C9.87827 8 7.84344 8.84285 6.34315 10.3431C5.08052 11.6058 4.28353 13.247 4.06272 15L19.9373 15C19.7165 13.247 18.9195 11.6058 17.6569 10.3431C16.1566 8.84286 14.1217 8 12 8Z" fill="#2B2D34"/>
<path d="M22 21H2V19H22V21Z" fill="#2B2D34"/>
</svg>
