<svg width="24" height="24" viewBox="0 0 24 24" fill="none" xmlns="http://www.w3.org/2000/svg">
<path d="M22 3V15C22 15.2652 21.8946 15.5196 21.7071 15.7071C21.5196 15.8946 21.2652 16 21 16L15 16V14L18.0854 14C18.0301 13.8436 18 13.6753 18 13.5C18 12.6716 18.6716 12 19.5 12C19.6753 12 19.8436 12.0301 20 12.0854V5.91465C19.8436 5.96992 19.6753 6 19.5 6C18.6716 6 18 5.32843 18 4.5C18 4.32468 18.0301 4.15639 18.0854 4L5.91465 4C5.96992 4.15639 6 4.32468 6 4.5C6 5.32843 5.32843 6 4.5 6C4.32468 6 4.15639 5.96992 4 5.91465L4 13H2V3C2 2.44772 2.44772 2 3 2H21C21.5523 2 22 2.44772 22 3Z" fill="#2B2D34"/>
<path d="M10.4887 14.0401C9.87023 13.938 9.23533 14.0321 8.67314 14.3094C8.11095 14.5866 7.64973 15.033 7.35424 15.5858C7.28269 15.7197 7.22172 15.8582 7.17158 16H11L10 18H7.17157C7.30894 18.3885 7.52566 18.7467 7.81041 19.0508C8.23891 19.5083 8.79995 19.8201 9.41473 19.9424C10.0295 20.0646 10.6672 19.9913 11.2381 19.7326C11.8091 19.4739 12.2847 19.0429 12.5981 18.5L14.3301 19.5C13.8078 20.4048 13.0151 21.1232 12.0635 21.5543C11.1119 21.9855 10.0492 22.1077 9.02455 21.9039C7.99991 21.7001 7.06485 21.1805 6.35069 20.418C5.71701 19.7414 5.28549 18.9038 5.10102 18H3L4 16H5.10103C5.19713 15.5292 5.36116 15.0719 5.5904 14.643C6.08287 13.7217 6.85158 12.9777 7.78856 12.5156C8.72554 12.0536 9.78372 11.8966 10.8145 12.0668C11.8452 12.237 12.7968 12.7257 13.5355 13.4645L12.1213 14.8787C11.6781 14.4354 11.1071 14.1422 10.4887 14.0401Z" fill="#2B2D34"/>
</svg>
