<svg width="24" height="24" viewBox="0 0 24 24" fill="none" xmlns="http://www.w3.org/2000/svg">
<path d="M13.0739 9.27596C12.5281 9.18406 11.9677 9.26882 11.4715 9.51834C10.9753 9.76785 10.5683 10.1696 10.3075 10.6671C10.2443 10.7876 10.1905 10.9122 10.1463 11.0399H13.5252L12.6426 12.8399H10.1463C10.2675 13.1896 10.4588 13.512 10.7101 13.7856C11.0883 14.1973 11.5835 14.4779 12.1261 14.588C12.6687 14.6981 13.2315 14.632 13.7354 14.3992C14.2393 14.1664 14.6591 13.7785 14.9357 13.2899L16.4644 14.1899C16.0034 15.0042 15.3038 15.6507 14.4639 16.0388C13.624 16.4268 12.686 16.5369 11.7817 16.3534C10.8773 16.17 10.0521 15.7023 9.42173 15.0161C8.86245 14.4071 8.48159 13.6533 8.31878 12.8399H6.46441L7.34701 11.0399H8.31878C8.4036 10.6162 8.54837 10.2046 8.7507 9.81861C9.18536 8.98939 9.86383 8.31983 10.6908 7.90397C11.5178 7.48811 12.4517 7.34684 13.3615 7.5C14.2712 7.65316 15.1111 8.09306 15.7631 8.75791L14.5149 10.0307C14.1237 9.63179 13.6198 9.36785 13.0739 9.27596Z" fill="#2B2D34"/>
<path d="M13 20L22 20C22.2652 20 22.5196 19.8946 22.7071 19.7071C22.8946 19.5196 23 19.2652 23 19V5C23 4.44772 22.5523 4 22 4H13V6L19.0854 6C19.0301 6.15639 19 6.32468 19 6.5C19 7.32843 19.6716 8 20.5 8C20.6753 8 20.8436 7.96992 21 7.91465V16.0854C20.8436 16.0301 20.6753 16 20.5 16C19.6716 16 19 16.6716 19 17.5C19 17.6753 19.0301 17.8436 19.0854 18H13V20Z" fill="#2B2D34"/>
<path d="M13 20L2 20C1.73479 20 1.48043 19.8946 1.29289 19.7071C1.10536 19.5196 1 19.2652 1 19V5C1 4.44772 1.44772 4 2 4H13V6L4.91465 6C4.96992 6.15639 5 6.32468 5 6.5C5 7.32843 4.32843 8 3.5 8C3.32468 8 3.15639 7.96992 3 7.91465V16.0854C3.15639 16.0301 3.32468 16 3.5 16C4.32843 16 5 16.6716 5 17.5C5 17.6753 4.96992 17.8436 4.91465 18H13V20Z" fill="#2B2D34"/>
</svg>
