<svg width="24" height="24" viewBox="0 0 24 24" fill="none" xmlns="http://www.w3.org/2000/svg">
<path d="M22 4C22.5523 4 23 4.44772 23 5V19C23 19.2652 22.8946 19.5195 22.707 19.707C22.5195 19.8946 22.2652 20 22 20H2C1.73479 20 1.4805 19.8946 1.29297 19.707C1.10543 19.5195 1 19.2652 1 19V5C1 4.44772 1.44772 4 2 4H22ZM13.5869 7.06641C12.5863 6.89794 11.559 7.05337 10.6494 7.51074C9.7398 7.96816 8.99278 8.70415 8.51465 9.61621C8.2921 10.0408 8.13334 10.4939 8.04004 10.96H6.9707L6 12.9404H8.04004C8.21919 13.835 8.63782 14.6643 9.25293 15.334C9.94618 16.0887 10.854 16.6029 11.8486 16.8047C12.8434 17.0065 13.8759 16.8858 14.7998 16.459C15.7236 16.0321 16.4929 15.3204 17 14.4248L15.3184 13.4346C15.0141 13.972 14.5524 14.3992 13.998 14.6553C13.4437 14.9114 12.8244 14.9843 12.2275 14.8633C11.6307 14.7422 11.0859 14.4333 10.6699 13.9805C10.3936 13.6796 10.1832 13.3249 10.0498 12.9404H12.7959L13.7666 10.96H10.0498C10.0985 10.8195 10.1581 10.6823 10.2275 10.5498C10.5144 10.0026 10.9621 9.56057 11.5078 9.28613C12.0536 9.01168 12.6701 8.91845 13.2705 9.01953C13.8709 9.1206 14.4252 9.41091 14.8555 9.84961L16.2285 8.4502C15.5114 7.7189 14.5876 7.23491 13.5869 7.06641Z" fill="#2B2D34"/>
</svg>
