<svg width="24" height="24" viewBox="0 0 24 24" fill="none" xmlns="http://www.w3.org/2000/svg">
<path fill-rule="evenodd" clip-rule="evenodd" d="M3 3C3 2.44772 3.44772 2 4 2H14C14.5523 2 15 2.44772 15 3V14H15.5C16.8807 14 18 15.1193 18 16.5C18 16.7762 18.2239 17 18.5 17H19C19.5523 17 20 16.5523 20 16V13.7208L17.6838 12.9487C17.2754 12.8126 17 12.4304 17 12V9.00001C17 8.66566 17.1671 8.35343 17.4453 8.16796L19.4304 6.84459L17.2929 4.70712L18.7071 3.29291L21.7071 6.29291C21.8946 6.48044 22 6.7348 22 7.00001V16C22 17.6569 20.6569 19 19 19H18.5C17.1193 19 16 17.8807 16 16.5C16 16.2239 15.7761 16 15.5 16H15V20H22V22L2 22V20H3V3ZM13 4V10H5V4H13ZM5 12H13V20L5 20V16H9V14H5V12ZM19 9.5352L20 8.86853V11.6126L19 11.2793V9.5352Z" fill="#2B2D34"/>
</svg>
