<svg width="24" height="24" viewBox="0 0 24 24" fill="none" xmlns="http://www.w3.org/2000/svg">
<path fill-rule="evenodd" clip-rule="evenodd" d="M18.9684 3.51715C19.5709 3.85693 20.0931 4.35754 20.464 4.99994C20.4701 5.01048 20.4761 5.02103 20.4821 5.0316L21.5708 4.73988L22.0884 6.67173L21.0004 6.96326C21.0064 7.6893 20.8143 8.40613 20.4461 9.03191L21.2427 9.82844L19.8285 11.2427L19.0314 10.4456C19.021 10.4518 19.0104 10.4579 18.9999 10.464C18.3575 10.8349 17.655 11.0074 16.9634 11.0004L16.6719 12.0884L14.74 11.5708L15.0315 10.4828C14.429 10.1431 13.9067 9.64241 13.5358 8.99994C13.5297 8.98942 13.5237 8.97889 13.5177 8.96834L12.4292 9.26002L11.9115 7.32816L12.9994 7.03669C12.9934 6.31056 13.1855 5.59364 13.5537 4.9678L12.7574 4.1715L14.1716 2.75729L14.9685 3.55414C14.9789 3.548 14.9894 3.5419 14.9999 3.53584C15.6423 3.16492 16.3449 2.99248 17.0366 2.99948L17.3281 1.9115L19.26 2.42914L18.9684 3.51715ZM15.5497 5.62188C15.0832 6.11236 14.8961 6.81174 15.0553 7.46969L15.0803 7.563C15.1243 7.71243 15.1865 7.85908 15.2678 7.99994C15.5417 8.47432 15.9806 8.79405 16.4701 8.9285L16.4944 8.935C16.9856 9.06333 17.5255 9.00587 17.9999 8.73199C18.1442 8.64865 18.2743 8.55003 18.3891 8.43935L18.4411 8.3874C18.9163 7.89429 19.1064 7.18606 18.9423 6.52132L18.922 6.44564C18.8779 6.29318 18.8149 6.14356 18.7319 5.99994C18.1797 5.04335 16.9565 4.7156 15.9999 5.26789C15.8595 5.34896 15.7326 5.44449 15.6201 5.55152L15.5497 5.62188Z" fill="#2B2D34"/>
<path fill-rule="evenodd" clip-rule="evenodd" d="M10 8.00001V10.1C11.9591 10.4977 13.5023 12.0409 13.9 14H16V16H13.9C13.7704 16.6384 13.5192 17.2326 13.1716 17.7574L14.6569 19.2427L13.2426 20.6569L11.7574 19.1716C11.2326 19.5192 10.6384 19.7704 10 19.9V22H8V19.9C7.36163 19.7704 6.76743 19.5192 6.24263 19.1716L4.75737 20.6569L3.34316 19.2427L4.82841 17.7574C4.48081 17.2326 4.2296 16.6384 4.10002 16H2V14H4.10002C4.22961 13.3616 4.48083 12.7674 4.82843 12.2426L3.34325 10.7574L4.75746 9.34317L6.24267 10.8284C6.76746 10.4808 7.36165 10.2296 8 10.1V8.00001H10ZM9 12C7.34315 12 6 13.3432 6 15C6 16.6569 7.34315 18 9 18C10.6569 18 12 16.6569 12 15C12 13.3432 10.6569 12 9 12Z" fill="#2B2D34"/>
</svg>
