<svg width="24" height="24" viewBox="0 0 24 24" fill="none" xmlns="http://www.w3.org/2000/svg">
<path d="M17.3641 2.63602C19.0519 4.32384 20.0001 6.61303 20.0001 8.99998C20.0001 11.3869 19.0519 13.6761 17.3641 15.3639C15.6762 17.0518 13.387 18 11.0001 18C8.61315 18 6.32396 17.0518 4.63614 15.3639L3.22192 16.7782C5.28482 18.8411 8.08272 20 11.0001 20L11.0001 21H8.00009V23H16.0001V21H13.0001V19.8167C15.174 19.4147 17.1931 18.3633 18.7783 16.7782C20.8412 14.7152 22.0001 11.9174 22.0001 8.99998C22.0001 6.08259 20.8412 3.2847 18.7783 1.2218L17.3641 2.63602Z" fill="#2B2D34"/>
<path fill-rule="evenodd" clip-rule="evenodd" d="M11.0001 2C10.0808 2 9.17059 2.18106 8.32131 2.53284C7.47203 2.88463 6.70035 3.40024 6.05034 4.05025C5.40033 4.70026 4.88472 5.47194 4.53293 6.32122C4.18115 7.1705 4.00009 8.08075 4.00009 9C4.00009 9.91925 4.18115 10.8295 4.53294 11.6788C4.88472 12.5281 5.40033 13.2997 6.05034 13.9497C6.70035 14.5998 7.47203 15.1154 8.32131 15.4672C9.17059 15.8189 10.0808 16 11.0001 16C11.9193 16 12.8296 15.8189 13.6789 15.4672C14.5282 15.1154 15.2998 14.5998 15.9498 13.9497C16.5998 13.2997 17.1155 12.5281 17.4672 11.6788C17.819 10.8295 18.0001 9.91925 18.0001 9C18.0001 8.08075 17.819 7.17049 17.4672 6.32122C17.1155 5.47194 16.5998 4.70026 15.9498 4.05025C15.2998 3.40024 14.5282 2.88463 13.6789 2.53284C12.8296 2.18106 11.9193 2 11.0001 2ZM9.08667 4.3806C9.6933 4.12933 10.3435 4 11.0001 4C11.6567 4 12.3069 4.12933 12.9135 4.3806C13.5201 4.63188 14.0713 5.00017 14.5356 5.46447C14.9999 5.92876 15.3682 6.47995 15.6195 7.08658C15.8708 7.69321 16.0001 8.34339 16.0001 9C16.0001 9.65661 15.8708 10.3068 15.6195 10.9134C15.3682 11.52 14.9999 12.0712 14.5356 12.5355C14.0713 12.9998 13.5201 13.3681 12.9135 13.6194C12.3069 13.8707 11.6567 14 11.0001 14C10.3435 14 9.6933 13.8707 9.08667 13.6194C8.48005 13.3681 7.92885 12.9998 7.46456 12.5355C7.00026 12.0712 6.63197 11.52 6.38069 10.9134C6.12942 10.3068 6.00009 9.65661 6.00009 9C6.00009 8.34339 6.12942 7.69321 6.38069 7.08658C6.63197 6.47995 7.00026 5.92876 7.46456 5.46447C7.92885 5.00017 8.48005 4.63188 9.08667 4.3806Z" fill="#2B2D34"/>
</svg>
