<svg width="24" height="24" viewBox="0 0 24 24" fill="none" xmlns="http://www.w3.org/2000/svg">
<path d="M12 13.5C12.8284 13.5 13.5 12.8284 13.5 12C13.5 11.1716 12.8284 10.5 12 10.5C11.1716 10.5 10.5 11.1716 10.5 12C10.5 12.8284 11.1716 13.5 12 13.5Z" fill="#2B2D34"/>
<path fill-rule="evenodd" clip-rule="evenodd" d="M3.05493 11C3.51608 6.82838 6.82838 3.51608 11 3.05493V1L13 1V3.05493C17.1716 3.51608 20.4839 6.82838 20.9451 11H23V13H20.9451C20.4839 17.1716 17.1716 20.4839 13 20.9451V23H11V20.9451C6.82838 20.4839 3.51608 17.1716 3.05493 13H1L1 11H3.05493ZM11 7V5.07089C7.93431 5.5094 5.5094 7.93431 5.07089 11H7V13H5.07089C5.5094 16.0657 7.93431 18.4906 11 18.9291V17H13V18.9291C16.0657 18.4906 18.4906 16.0657 18.9291 13H17V11H18.9291C18.4906 7.93431 16.0657 5.5094 13 5.07089V7H11Z" fill="#2B2D34"/>
</svg>
