<svg width="24" height="24" viewBox="0 0 24 24" fill="none" xmlns="http://www.w3.org/2000/svg">
<path fill-rule="evenodd" clip-rule="evenodd" d="M8.35112 2.06368C8.04403 1.94852 7.69998 1.99126 7.43041 2.17808C7.16083 2.3649 7 2.67203 7 3.00001V14.0535C5.85112 14.1777 4.79467 14.5144 3.94997 15.0212C2.88493 15.6602 2 16.6823 2 18C2 19.3177 2.88493 20.3398 3.94997 20.9788C5.03492 21.6298 6.46921 22 8 22C9.53079 22 10.9651 21.6298 12.05 20.9788C13.1151 20.3398 14 19.3177 14 18C14 16.6823 13.1151 15.6602 12.05 15.0212C11.2053 14.5144 10.1489 14.1777 9 14.0535V9.69301L16.3511 6.93634C16.7414 6.78997 17 6.41685 17 6.00001C17 5.58316 16.7414 5.21004 16.3511 5.06368L8.35112 2.06368ZM7 16.0684V18H9V16.0684C9.80583 16.181 10.5012 16.4243 11.021 16.7362C11.7656 17.1829 12 17.6608 12 18C12 18.3392 11.7656 18.8171 11.021 19.2638C10.2963 19.6986 9.23063 20 8 20C6.76937 20 5.70366 19.6986 4.97896 19.2638C4.23436 18.8171 4 18.3392 4 18C4 17.6608 4.23436 17.1829 4.97896 16.7362C5.49883 16.4243 6.19417 16.181 7 16.0684ZM13.152 6.00001L9 7.557V4.44301L13.152 6.00001Z" fill="#2B2D34"/>
<path fill-rule="evenodd" clip-rule="evenodd" d="M16 19C16 17.3431 17.3431 16 19 16C20.6569 16 22 17.3431 22 19C22 20.6569 20.6569 22 19 22C17.3431 22 16 20.6569 16 19ZM19 18C18.4477 18 18 18.4477 18 19C18 19.5523 18.4477 20 19 20C19.5523 20 20 19.5523 20 19C20 18.4477 19.5523 18 19 18Z" fill="#2B2D34"/>
</svg>
