<svg width="24" height="24" viewBox="0 0 24 24" fill="none" xmlns="http://www.w3.org/2000/svg">
<path d="M8 8V12H10V8H8Z" fill="#2B2D34"/>
<path d="M12 12V8H14V12H12Z" fill="#2B2D34"/>
<path d="M16 8V12H18V8H16Z" fill="#2B2D34"/>
<path fill-rule="evenodd" clip-rule="evenodd" d="M0 2H2.38197C3.13951 2 3.83204 2.428 4.17082 3.10557L4.61803 4H20.7802C22.0423 4 22.9889 5.15465 22.7414 6.39223L21.3021 13.5883C21.0217 14.9904 19.7911 16 18.3608 16H6C5.44772 16 5 16.4477 5 17C5 17.5523 5.44772 18 6 18H21V20H19.9146C19.9699 20.1564 20 20.3247 20 20.5C20 21.3284 19.3284 22 18.5 22C17.6716 22 17 21.3284 17 20.5C17 20.3247 17.0301 20.1564 17.0854 20H7.91465C7.96992 20.1564 8 20.3247 8 20.5C8 21.3284 7.32843 22 6.5 22C5.67157 22 5 21.3284 5 20.5C5 20.2765 5.04888 20.0644 5.13653 19.8739C3.90057 19.503 3 18.3567 3 17C3 15.7591 3.7534 14.6942 4.82773 14.2377L3.04568 5.32743L2.38197 4H0V2ZM5.2198 6L6.8198 14H18.3608C18.8372 14 19.2474 13.6638 19.341 13.1961L20.7802 6H5.2198Z" fill="#2B2D34"/>
</svg>
