<svg width="24" height="24" viewBox="0 0 24 24" fill="none" xmlns="http://www.w3.org/2000/svg">
<path fill-rule="evenodd" clip-rule="evenodd" d="M2.38197 2H0V4H2.38197L3.06697 5.37002L5.66163 14.0189C4.16406 14.187 3 15.4575 3 17C3 18.3567 3.90057 19.503 5.13653 19.8739C5.04888 20.0644 5 20.2765 5 20.5C5 21.3284 5.67157 22 6.5 22C7.32843 22 8 21.3284 8 20.5C8 20.3247 7.96992 20.1564 7.91465 20H17.0854C17.0301 20.1564 17 20.3247 17 20.5C17 21.3284 17.6716 22 18.5 22C19.3284 22 20 21.3284 20 20.5C20 20.3247 19.9699 20.1564 19.9146 20H21V18H6C5.44772 18 5 17.5523 5 17C5 16.4477 5.44771 16 5.99999 16H18.3603C19.7902 16 21.0217 14.9907 21.3021 13.5883L22.7414 6.39223C22.9889 5.15465 22.0423 4 20.7802 4H4.61803L4.17082 3.10557C3.83204 2.428 3.13951 2 2.38197 2ZM7.74403 14L5.34403 6H20.7802L19.341 13.1961C19.2475 13.6635 18.837 14 18.3603 14H7.74403Z" fill="#2B2D34"/>
</svg>
