<svg width="24" height="24" viewBox="0 0 24 24" fill="none" xmlns="http://www.w3.org/2000/svg">
<path d="M7 18C7.55228 18 8 17.5523 8 17C8 16.4477 7.55228 16 7 16C6.44772 16 6 16.4477 6 17C6 17.5523 6.44772 18 7 18Z" fill="#2B2D34"/>
<path fill-rule="evenodd" clip-rule="evenodd" d="M14 4L17.1802 4L19.4038 15.1181L19.3218 15.0933C19.2463 15.0705 19.1357 15.0371 18.9943 14.9947C18.7116 14.91 18.3058 14.789 17.8127 14.6438C16.8269 14.3536 15.4905 13.9664 14.0903 13.5788C12.6917 13.1918 11.2214 12.8021 9.97019 12.5085C9.12983 12.3113 8.32583 12.1415 7.69986 12.057L6.47705 9H8V7H2V9H4.32298L5.60477 12.2045C4.81127 12.4381 4.06201 12.8669 3.46447 13.4645C2.52678 14.4021 2 15.6739 2 17C2 18.3261 2.52678 19.5979 3.46447 20.5355C4.40215 21.4732 5.67392 22 7 22H18.5C19.3491 22 20.1693 21.6913 20.8077 21.1314C21.4461 20.5716 21.8592 19.7987 21.9701 18.9568C22.0206 18.5731 22.0067 18.1871 21.932 17.8136L19.2198 4L22 4V2H14V4ZM4.87868 14.8787C5.43711 14.3203 6.24362 14 7 14C7.36172 14 8.25141 14.1595 9.51327 14.4556C10.7271 14.7405 12.1685 15.1221 13.5568 15.5064C14.9433 15.8901 16.2686 16.2741 17.2479 16.5624C17.7374 16.7065 18.1399 16.8265 18.4199 16.9105C18.5599 16.9525 18.6693 16.9854 18.7434 17.0078L18.8562 17.0419L18.8721 17.0468L18.8882 17.0511C19.2397 17.1453 19.545 17.3641 19.7472 17.6666C19.9494 17.9692 20.0347 18.335 19.9872 18.6958C19.9397 19.0566 19.7626 19.3878 19.489 19.6278C19.2154 19.8677 18.8639 20 18.5 20H7C6.20435 20 5.44129 19.6839 4.87868 19.1213C4.31607 18.5587 4 17.7956 4 17C4 16.2044 4.31607 15.4413 4.87868 14.8787Z" fill="#2B2D34"/>
</svg>
