<svg width="24" height="24" viewBox="0 0 24 24" fill="none" xmlns="http://www.w3.org/2000/svg">
<path fill-rule="evenodd" clip-rule="evenodd" d="M3.10557 2.32919C3.66863 2.04766 4.33137 2.04766 4.89443 2.32919L5.89443 2.82919C6.572 3.16797 7 3.8605 7 4.61804V5.00001H9V4.61804C9 3.8605 9.42801 3.16797 10.1056 2.82919L11.1056 2.32919C11.6686 2.04766 12.3314 2.04766 12.8944 2.32919L13.8944 2.82919C14.572 3.16797 15 3.8605 15 4.61804V5.00001H17V4.61804C17 3.8605 17.428 3.16797 18.1056 2.82919L19.1056 2.32919C19.6686 2.04766 20.3314 2.04766 20.8944 2.32919L21.8944 2.82919C22.572 3.16797 23 3.8605 23 4.61804V19.382C23 20.1395 22.572 20.832 21.8944 21.1708L20.8944 21.6708C20.3314 21.9524 19.6686 21.9524 19.1056 21.6708L18.1056 21.1708C17.428 20.832 17 20.1395 17 19.382V19H15V19.382C15 20.1395 14.572 20.832 13.8944 21.1708L12.8944 21.6708C12.3314 21.9524 11.6686 21.9524 11.1056 21.6708L10.1056 21.1708C9.428 20.832 9 20.1395 9 19.382V19H7V19.382C7 20.1395 6.572 20.832 5.89443 21.1708L4.89443 21.6708C4.33137 21.9524 3.66863 21.9524 3.10557 21.6708L2.10557 21.1708C1.428 20.832 1 20.1395 1 19.382V4.61804C1 3.8605 1.428 3.16797 2.10557 2.82919L3.10557 2.32919ZM13 4.61804L12 4.11804L11 4.61804V6.00001C11 6.55229 10.5523 7.00001 10 7.00001H7V9.00001H10C10.5523 9.00001 11 9.44772 11 10V14C11 14.5523 10.5523 15 10 15H7V17H10C10.5523 17 11 17.4477 11 18V19.382L12 19.882L13 19.382V4.61804ZM15 11V13H17V11H15ZM15 15V17H18C18.5523 17 19 17.4477 19 18V19.382L20 19.882L21 19.382V4.61804L20 4.11804L19 4.61804V6.00001C19 6.55229 18.5523 7.00001 18 7.00001H15V9.00001H18C18.5523 9.00001 19 9.44772 19 10V14C19 14.5523 18.5523 15 18 15H15ZM9 13H7V11H9V13ZM5 19.382L4 19.882L3 19.382V4.61804L4 4.11804L5 4.61804V19.382Z" fill="#2B2D34"/>
</svg>
