<svg width="24" height="24" viewBox="0 0 24 24" fill="none" xmlns="http://www.w3.org/2000/svg">
<path fill-rule="evenodd" clip-rule="evenodd" d="M7.89443 2.21115C7.33137 1.92962 6.66863 1.92962 6.10557 2.21115L5.10557 2.71115C4.428 3.04993 4 3.74246 4 4.5V4.88196H1V6.88196H4V16.882H2C1.44772 16.882 1 17.3297 1 17.882V21.882H3V18.882H4V19.2639C4 20.0215 4.428 20.714 5.10557 21.0528L6.10557 21.5528C6.66863 21.8343 7.33137 21.8343 7.89443 21.5528L8.89443 21.0528C8.93033 21.0348 8.96553 21.0159 9 20.996C9.03448 21.0159 9.06967 21.0348 9.10557 21.0528L10.1056 21.5528C10.6686 21.8343 11.3314 21.8343 11.8944 21.5528L12.8944 21.0528C12.9303 21.0348 12.9655 21.0159 13 20.996C13.0345 21.0159 13.0697 21.0348 13.1056 21.0528L14.1056 21.5528C14.6686 21.8343 15.3314 21.8343 15.8944 21.5528L16.8944 21.0528C16.9303 21.0348 16.9655 21.0159 17 20.996C17.0345 21.0159 17.0697 21.0348 17.1056 21.0528L18.1056 21.5528C18.6686 21.8343 19.3314 21.8343 19.8944 21.5528L20.8944 21.0528C21.572 20.714 22 20.0215 22 19.2639V4.5C22 3.74246 21.572 3.04993 20.8944 2.71115L19.8944 2.21115C19.3314 1.92962 18.6686 1.92962 18.1056 2.21115L17.1056 2.71115C17.0697 2.7291 17.0345 2.74804 17 2.76794C16.9655 2.74804 16.9303 2.7291 16.8944 2.71115L15.8944 2.21115C15.3314 1.92962 14.6686 1.92962 14.1056 2.21115L13.1056 2.71115C13.0697 2.7291 13.0345 2.74804 13 2.76793C12.9655 2.74804 12.9303 2.7291 12.8944 2.71115L11.8944 2.21115C11.3314 1.92962 10.6686 1.92962 10.1056 2.21115L9.10557 2.71115C9.06967 2.7291 9.03447 2.74804 9 2.76793C8.96553 2.74804 8.93033 2.7291 8.89443 2.71115L7.89443 2.21115ZM6 19.2639L7 19.7639L8 19.2639V4.5L7 4L6 4.5V19.2639ZM10 19.2639L11 19.7639L12 19.2639V4.5L11 4L10 4.5V19.2639ZM16 4.5V19.2639L15 19.7639L14 19.2639V4.5L15 4L16 4.5ZM18 19.2639V4.5L19 4L20 4.5V19.2639L19 19.7639L18 19.2639Z" fill="#2B2D34"/>
</svg>
