<svg width="24" height="24" viewBox="0 0 24 24" fill="none" xmlns="http://www.w3.org/2000/svg">
<path fill-rule="evenodd" clip-rule="evenodd" d="M3.99994 5H11.9999V6.00001H11.5857L10.5857 7.00001H3.2807L2.97007 5.75748L1.02979 6.24255L1.71915 9.00001H5.46474L6.99993 11.3028V13.4142L9.89248 16.3068L9.21918 19H6.99994V21H20.9999V19H18.7807L18.2807 17H20.618L20.8944 16.4472L20.8965 16.4429L20.9001 16.4357L20.9113 16.4126C20.9206 16.3934 20.9334 16.3668 20.9491 16.3331C20.9805 16.2657 21.0239 16.1701 21.0753 16.0502C21.1779 15.8109 21.3133 15.4722 21.4486 15.0662C21.7152 14.2663 21.9999 13.1513 21.9999 12C21.9999 9.87701 20.2407 8.62736 18.9471 7.98059C18.255 7.6345 17.5723 7.39644 17.0685 7.24531C16.8149 7.16922 16.6022 7.11387 16.4508 7.07709C16.3749 7.05867 16.3142 7.04484 16.2709 7.03533C16.2493 7.03057 16.2321 7.02689 16.2195 7.02426L16.2042 7.02108L16.1992 7.02006L16.0989 7.00001H15.4141L14.4141 6.00001H13.9999V5H21.9999V3H3.99994V5ZM11.2807 19H16.7191L16.2192 17H11.7807L11.2807 19ZM16.3074 9.10684L16.7807 11H19.655C19.325 10.5405 18.7715 10.1288 18.0527 9.76944C17.4949 9.49053 16.9276 9.29109 16.4938 9.16096C16.428 9.14123 16.3657 9.1232 16.3074 9.10684ZM19.9128 13H15.9999C15.5411 13 15.1411 12.6877 15.0298 12.2425L14.097 8.51126L13.5857 8.00001H12.4141L11.4141 9.00001H7.86844L8.99993 10.6972V12.5858L11.4141 15H19.345C19.409 14.8383 19.4801 14.6472 19.5512 14.4338C19.6933 14.0077 19.8286 13.5132 19.9128 13Z" fill="#2B2D34"/>
</svg>
