<svg width="24" height="24" viewBox="0 0 24 24" fill="none" xmlns="http://www.w3.org/2000/svg">
<path d="M10.321 1.2659C10.7061 0.909618 11.3012 0.911609 11.6839 1.27046L19.6839 8.77046L18.3161 10.2295L10.9954 3.36644L4 9.83721V10H6V18H10V20H5C4.44772 20 4 19.5523 4 19V12H3C2.73478 12 2.48043 11.8946 2.29289 11.7071C2.10536 11.5196 2 11.2652 2 11L2 9.4C2 9.12126 2.11634 8.85518 2.32096 8.6659L10.321 1.2659Z" fill="#2B2D34"/>
<path fill-rule="evenodd" clip-rule="evenodd" d="M11.2929 11.2929C11.5111 11.0747 11.8178 10.9695 12.124 11.0077L20.124 12.0077C20.503 12.0551 20.8219 12.3142 20.9459 12.6755C21.0698 13.0367 20.9772 13.437 20.7071 13.7071L19.4142 15L21.7071 17.2929C22.0976 17.6834 22.0976 18.3166 21.7071 18.7071L18.7071 21.7071C18.3166 22.0976 17.6834 22.0976 17.2929 21.7071L15 19.4142L13.7071 20.7071C13.437 20.9772 13.0367 21.0698 12.6755 20.9459C12.3142 20.8219 12.0551 20.503 12.0077 20.124L11.0077 12.124C10.9695 11.8178 11.0747 11.5111 11.2929 11.2929ZM13.1518 13.1518L13.7387 17.8471L14.2929 17.2929C14.6834 16.9024 15.3166 16.9024 15.7071 17.2929L18 19.5858L19.5858 18L17.2929 15.7071C16.9024 15.3166 16.9024 14.6834 17.2929 14.2929L17.8471 13.7387L13.1518 13.1518Z" fill="#2B2D34"/>
</svg>
