<svg width="24" height="24" viewBox="0 0 24 24" fill="none" xmlns="http://www.w3.org/2000/svg">
<path fill-rule="evenodd" clip-rule="evenodd" d="M16.3366 15.4904C15.4735 16.9902 13.8547 18 12 18C9.23858 18 7 15.7614 7 13C7 10.2386 9.23858 8 12 8C13.8547 8 15.4735 9.00982 16.3366 10.5096C16.7368 11.0484 17 11.9627 17 13C17 14.0373 16.7368 14.9516 16.3366 15.4904ZM9 13C9 11.3431 10.3431 10 12 10C12.9424 10 13.7833 10.4346 14.3333 11.1142C14.1249 11.6295 14 12.2856 14 13C14 13.7144 14.1249 14.3705 14.3333 14.8858C13.7833 15.5654 12.9424 16 12 16C10.3431 16 9 14.6569 9 13Z" fill="#2B2D34"/>
<path d="M7 6C7 5.44772 7.44772 5 8 5C8.55229 5 9 5.44772 9 6C9 6.55228 8.55229 7 8 7C7.44772 7 7 6.55228 7 6Z" fill="#2B2D34"/>
<path d="M16 5C15.4477 5 15 5.44772 15 6C15 6.55228 15.4477 7 16 7C16.5523 7 17 6.55228 17 6C17 5.44772 16.5523 5 16 5Z" fill="#2B2D34"/>
<path d="M11 6C11 5.44772 11.4477 5 12 5C12.5523 5 13 5.44772 13 6C13 6.55228 12.5523 7 12 7C11.4477 7 11 6.55228 11 6Z" fill="#2B2D34"/>
<path fill-rule="evenodd" clip-rule="evenodd" d="M4 2C3.44772 2 3 2.44772 3 3V21C3 21.5523 3.44772 22 4 22H20C20.5523 22 21 21.5523 21 21V3C21 2.44772 20.5523 2 20 2H4ZM5 20V4H19V20H5Z" fill="#2B2D34"/>
</svg>
