<svg width="24" height="24" viewBox="0 0 24 24" fill="none" xmlns="http://www.w3.org/2000/svg">
<path d="M15.3753 2.21913C15.7405 1.92696 16.2595 1.92696 16.6247 2.21913L21.6247 6.21913C21.8619 6.40891 22 6.69622 22 7V8L21 8V13C21 13.5523 20.5523 14 20 14H16V12H19V8L20 8V7.48063L16 4.28063L12 7.48063V8H10L10 7C10 6.69622 10.1381 6.4089 10.3753 6.21913L15.3753 2.21913Z" fill="#2B2D34"/>
<path fill-rule="evenodd" clip-rule="evenodd" d="M3 15L2 15V14C2 13.6962 2.13809 13.4089 2.37531 13.2191L7.3753 9.21913C7.74052 8.92696 8.25948 8.92696 8.6247 9.21913L13.6247 13.2191C13.8619 13.4089 14 13.6962 14 14V15L13 15V20C13 20.5523 12.5523 21 12 21H4C3.73478 21 3.48043 20.8946 3.29289 20.7071C3.10536 20.5196 3 20.2652 3 20V15ZM5 15V19H11V15L12 15V14.4806L8 11.2806L4 14.4806V15L5 15Z" fill="#2B2D34"/>
<path d="M9.92953 4.27255C8.57308 4.63601 7.33621 5.35012 6.34322 6.3431C5.35024 7.33609 4.63613 8.57296 4.27267 9.9294L2.34082 9.41177C2.79514 7.71621 3.68778 6.17012 4.92901 4.92889C6.17024 3.68766 7.71633 2.79502 9.41189 2.3407L9.92953 4.27255Z" fill="#2B2D34"/>
<path d="M19.2206 15.4441C18.3072 17.3591 16.6704 18.8329 14.6704 19.5411L15.338 21.4264C17.8381 20.5411 19.884 18.6989 21.0258 16.3051L19.2206 15.4441Z" fill="#2B2D34"/>
</svg>
