<svg width="24" height="24" viewBox="0 0 24 24" fill="none" xmlns="http://www.w3.org/2000/svg">
<path fill-rule="evenodd" clip-rule="evenodd" d="M11 2C8.23858 2 6 4.23858 6 7C6 9.76142 8.23858 12 11 12C13.7614 12 16 9.76142 16 7C16 4.23858 13.7614 2 11 2ZM8 7C8 5.34315 9.34315 4 11 4C12.6569 4 14 5.34315 14 7C14 8.65685 12.6569 10 11 10C9.34315 10 8 8.65685 8 7Z" fill="#2B2D34"/>
<path d="M12 16V14H10V16H12Z" fill="#2B2D34"/>
<path d="M12 18V22H10V18H12Z" fill="#2B2D34"/>
<path d="M7.36557 13.8047C4.21005 15.3222 2.5 18.7013 2.5 22H4.5C4.5 19.3266 5.89001 16.7336 8.23235 15.6071L7.36557 13.8047Z" fill="#2B2D34"/>
<path d="M18 19.5857V13H20V19.5859L21.793 17.7929L23.2072 19.2071L19.7072 22.7071C19.3167 23.0976 18.6835 23.0976 18.293 22.7071L14.793 19.2071L16.2072 17.7929L18 19.5857Z" fill="#2B2D34"/>
</svg>
