<svg width="24" height="24" viewBox="0 0 24 24" fill="none" xmlns="http://www.w3.org/2000/svg">
<path fill-rule="evenodd" clip-rule="evenodd" d="M9 6.5C8.44772 6.5 8 6.94772 8 7.5V9.5C8 9.76522 8.10536 10.0196 8.29289 10.2071L10.0858 12L8.29289 13.7929C8.10536 13.9804 8 14.2348 8 14.5V16.5C8 17.0523 8.44772 17.5 9 17.5H15C15.5523 17.5 16 17.0523 16 16.5V14.5C16 14.2348 15.8946 13.9804 15.7071 13.7929L13.9142 12L15.7071 10.2071C15.8946 10.0196 16 9.76522 16 9.5V7.5C16 6.94772 15.5523 6.5 15 6.5H9ZM10 14.9142L12 12.9142L14 14.9142V15.5H10V14.9142ZM10 9.08579L12 11.0858L14 9.08579V8.5H10V9.08579Z" fill="#2B2D34"/>
<path fill-rule="evenodd" clip-rule="evenodd" d="M12 2C6.47715 2 2 6.47715 2 12C2 17.5228 6.47715 22 12 22C17.5228 22 22 17.5228 22 12C22 6.47715 17.5228 2 12 2ZM4 12C4 7.58172 7.58172 4 12 4C16.4183 4 20 7.58172 20 12C20 16.4183 16.4183 20 12 20C7.58172 20 4 16.4183 4 12Z" fill="#2B2D34"/>
</svg>
