<svg width="24" height="24" viewBox="0 0 24 24" fill="none" xmlns="http://www.w3.org/2000/svg">
<path d="M12.9881 23C13.2042 23 13.3809 22.8232 13.3809 22.6071V9.25C13.3809 9.03393 13.2042 8.85714 12.9881 8.85714H10.6309C10.4149 8.85714 10.2381 9.03393 10.2381 9.25V22.6071C10.2381 22.8232 10.4149 23 10.6309 23H12.9881Z" fill="#2B2D34"/>
<path d="M10.1736 5.00714C10.6054 5.44782 11.1927 5.70169 11.8095 5.71429C12.4263 5.70169 13.0137 5.44782 13.4454 5.00714C13.8772 4.56646 14.119 3.97409 14.119 3.35714C14.119 2.74019 13.8772 2.14782 13.4454 1.70714C13.0137 1.26647 12.4263 1.01259 11.8095 1C11.1927 1.01259 10.6054 1.26647 10.1736 1.70714C9.74183 2.14782 9.5 2.74019 9.5 3.35714C9.5 3.97409 9.74183 4.56646 10.1736 5.00714Z" fill="#2B2D34"/>
</svg>
