<svg width="24" height="24" viewBox="0 0 24 24" fill="none" xmlns="http://www.w3.org/2000/svg">
<path d="M11.9973 6.86903C9.15796 6.86903 6.86646 9.16058 6.86646 12C6.86646 14.8394 9.15796 17.131 11.9973 17.131C14.8367 17.131 17.1282 14.8394 17.1282 12C17.1282 9.16058 14.8367 6.86903 11.9973 6.86903ZM11.9973 15.3348C10.1611 15.3348 8.66264 13.8362 8.66264 12C8.66264 10.1638 10.1611 8.66524 11.9973 8.66524C13.8335 8.66524 15.332 10.1638 15.332 12C15.332 13.8362 13.8335 15.3348 11.9973 15.3348ZM17.3383 5.46308C16.6754 5.46308 16.1401 5.99844 16.1401 6.66139C16.1401 7.32434 16.6754 7.8597 17.3383 7.8597C18.0013 7.8597 18.5366 7.32684 18.5366 6.66139C18.5368 6.50397 18.506 6.34806 18.4458 6.20258C18.3857 6.05711 18.2974 5.92493 18.1861 5.81362C18.0748 5.70231 17.9426 5.61404 17.7971 5.55389C17.6517 5.49374 17.4957 5.46288 17.3383 5.46308ZM21.9989 12C21.9989 10.6191 22.0114 9.25064 21.9338 7.8722C21.8563 6.27112 21.4911 4.85016 20.3203 3.67937C19.147 2.50608 17.7286 2.14334 16.1275 2.06579C14.7466 1.98823 13.3782 2.00074 11.9998 2.00074C10.6189 2.00074 9.25051 1.98823 7.87211 2.06579C6.27106 2.14334 4.85013 2.50858 3.67936 3.67937C2.50609 4.85266 2.14336 6.27112 2.0658 7.8722C1.98825 9.25314 2.00074 10.6216 2.00074 12C2.00074 13.3784 1.98825 14.7494 2.0658 16.1278C2.14336 17.7289 2.50859 19.1498 3.67936 20.3206C4.85263 21.4939 6.27106 21.8567 7.87211 21.9342C9.25302 22.0118 10.6214 21.9992 11.9998 21.9992C13.3807 21.9992 14.7491 22.0118 16.1275 21.9342C17.7286 21.8567 19.1495 21.4914 20.3203 20.3206C21.4936 19.1473 21.8563 17.7289 21.9338 16.1278C22.0139 14.7494 21.9989 13.3809 21.9989 12ZM19.7974 17.899C19.6148 18.3543 19.3947 18.6945 19.0419 19.0448C18.6892 19.3975 18.3515 19.6176 17.8962 19.8003C16.5803 20.3231 13.4558 20.2055 11.9973 20.2055C10.5389 20.2055 7.41182 20.3231 6.09596 19.8028C5.64066 19.6201 5.30043 19.4 4.9502 19.0473C4.59747 18.6945 4.3773 18.3568 4.19468 17.9015C3.67434 16.5831 3.79194 13.4585 3.79194 12C3.79194 10.5415 3.67434 7.4144 4.19468 6.09851C4.3773 5.6432 4.59747 5.30297 4.9502 4.95273C5.30294 4.6025 5.64066 4.37985 6.09596 4.19722C7.41182 3.67687 10.5389 3.79445 11.9973 3.79445C13.4558 3.79445 16.5828 3.67687 17.8987 4.19722C18.354 4.37985 18.6942 4.59999 19.0444 4.95273C19.3972 5.30547 19.6173 5.6432 19.7999 6.09851C20.3203 7.4144 20.2027 10.5415 20.2027 12C20.2027 13.4585 20.3203 16.5831 19.7974 17.899Z" fill="#2B2D34"/>
</svg>
