<svg width="24" height="24" viewBox="0 0 24 24" fill="none" xmlns="http://www.w3.org/2000/svg">
<path fill-rule="evenodd" clip-rule="evenodd" d="M18 3C18 2.44772 17.5523 2 17 2H3C2.44771 2 2 2.44772 2 3V21C2 21.5523 2.44771 22 3 22H10V20H4V4H16V9H18V3Z" fill="#2B2D34"/>
<path fill-rule="evenodd" clip-rule="evenodd" d="M18.1247 11.2191C17.7596 10.9272 17.2407 10.927 16.8756 11.2189L16.873 11.221L16.8568 11.2337C16.8415 11.2456 16.8174 11.2642 16.7852 11.2885C16.7208 11.3373 16.6243 11.4088 16.5014 11.4955C16.2548 11.6696 15.9071 11.9013 15.5039 12.1318C14.6553 12.6166 13.7237 13 13 13C12.4477 13 12 13.4477 12 14V17.5C12 19.724 13.4347 21.235 14.6645 22.1232C15.293 22.5771 15.915 22.9046 16.3768 23.1184C16.609 23.2259 16.8042 23.3063 16.9442 23.3607C17.0143 23.388 17.0707 23.4088 17.1114 23.4234C17.1317 23.4307 17.1481 23.4365 17.1602 23.4407L17.1753 23.4458L17.1803 23.4475L17.1823 23.4482C17.1826 23.4483 17.1838 23.4487 17.5 22.5L17.1838 23.4487C17.389 23.5171 17.611 23.5171 17.8162 23.4487L17.5 22.5C17.8162 23.4487 17.8159 23.4488 17.8162 23.4487L17.8177 23.4482L17.8197 23.4475L17.8247 23.4458L17.8398 23.4407C17.8519 23.4365 17.8683 23.4307 17.8886 23.4234C17.9293 23.4088 17.9857 23.388 18.0558 23.3607C18.1958 23.3063 18.391 23.2259 18.6232 23.1184C19.085 22.9046 19.707 22.5771 20.3355 22.1232C21.5653 21.235 23 19.724 23 17.5V14C23 13.4477 22.5523 13 22 13C21.2763 13 20.3447 12.6166 19.4961 12.1318C19.0929 11.9013 18.7452 11.6696 18.4986 11.4955C18.3757 11.4088 18.2792 11.3373 18.2148 11.2885C18.1826 11.2642 18.1585 11.2456 18.1432 11.2337L18.127 11.221L18.1247 11.2191ZM17.5 21.4283C17.582 21.394 17.6774 21.3524 17.783 21.3035C18.165 21.1266 18.668 20.8604 19.1645 20.5018C20.1847 19.765 21 18.776 21 17.5V14.8867C20.0638 14.685 19.17 14.2489 18.5039 13.8682C18.1122 13.6444 17.7683 13.4215 17.5 13.2372C17.2317 13.4215 16.8878 13.6444 16.4961 13.8682C15.83 14.2489 14.9362 14.685 14 14.8867V17.5C14 18.776 14.8153 19.765 15.8355 20.5018C16.332 20.8604 16.835 21.1266 17.217 21.3035C17.3226 21.3524 17.4179 21.394 17.5 21.4283ZM17.818 21.5519C17.8182 21.552 17.8183 21.552 17.818 21.5519V21.5519ZM17.1818 21.552C17.1814 21.5521 17.1816 21.552 17.1818 21.552V21.552Z" fill="#2B2D34"/>
</svg>
