<svg width="24" height="24" viewBox="0 0 24 24" fill="none" xmlns="http://www.w3.org/2000/svg">
<path fill-rule="evenodd" clip-rule="evenodd" d="M13.0589 2.27185C12.8165 2.18517 12.5746 2.09654 12.3357 2.00064L11.6659 2C11.4266 2.09648 11.184 2.18496 10.9411 2.27185C10.4763 2.43807 9.81911 2.66011 9.05276 2.88199C7.50387 3.33048 5.57424 3.75897 3.9 3.75897C3.40295 3.75897 3.00001 4.16731 3 4.67103V11.9675C3 15.5921 5.30373 18.1102 7.42306 19.6614C8.49494 20.4459 9.56101 21.0154 10.3563 21.3885C10.7551 21.5757 11.089 21.7149 11.3258 21.8082C11.3523 21.8186 11.3791 21.8295 11.4062 21.8404L11.4157 21.8443C11.6027 21.9202 11.7995 22 12 22C12.2005 22 12.3923 21.9222 12.5814 21.8454L12.589 21.8424C12.6174 21.8309 12.6459 21.8194 12.6742 21.8082C12.911 21.7149 13.2449 21.5757 13.6437 21.3885C14.439 21.0154 15.5051 20.4459 16.5769 19.6614C18.6963 18.1102 21 15.5921 21 11.9675V4.67103C21 4.16731 20.5971 3.75897 20.1 3.75897C18.4258 3.75897 16.4961 3.33048 14.9472 2.88199C14.1809 2.66011 13.5237 2.43807 13.0589 2.27185ZM19 11.9675C19 14.6487 17.3064 16.6438 15.3982 18.0403C14.6414 18.5943 13.8266 19.0443 13 19.4761V4.36594C13.4605 4.52399 13.9236 4.67404 14.3927 4.80985C15.7025 5.18911 17.3689 5.58502 19 5.71845V11.9675ZM11 4.36594V19.4761C10.1734 19.0443 9.35857 18.5943 8.60177 18.0403C6.69364 16.6438 5 14.6487 5 11.9675V5.71845C6.63107 5.58502 8.29748 5.18911 9.60732 4.80985C10.0764 4.67404 10.5395 4.52399 11 4.36594Z" fill="#2B2D34"/>
</svg>
