<svg width="24" height="24" viewBox="0 0 24 24" fill="none" xmlns="http://www.w3.org/2000/svg">
<path d="M17 2C17.5523 2 18 2.44772 18 3V10H16V4H4V20H10V22H3C2.44771 22 2 21.5523 2 21V3C2 2.44772 2.44771 2 3 2H17Z" fill="#2B2D34"/>
<path fill-rule="evenodd" clip-rule="evenodd" d="M12 18C12 14.6863 14.6863 12 18 12C21.3137 12 24 14.6863 24 18C24 18.5523 23.5523 19 23 19H19V21C19 22.6569 17.6569 24 16 24C15.1038 24 14.2985 23.6058 13.7503 22.9846L15.2497 21.6612C15.4344 21.8704 15.7015 22 16 22C16.5523 22 17 21.5523 17 21V19H13C12.4477 19 12 18.5523 12 18ZM21.874 17C21.4299 15.2748 19.8638 14 18 14C16.1362 14 14.5701 15.2748 14.126 17H21.874Z" fill="#2B2D34"/>
</svg>
