<svg width="24" height="24" viewBox="0 0 24 24" fill="none" xmlns="http://www.w3.org/2000/svg">
<path d="M6.19813 5.17995C4.35942 5.95873 2.69019 7.09959 1.28516 8.53627L2.71503 9.93465C3.93644 8.68572 5.38525 7.69624 6.97814 7.02157C8.57098 6.34693 10.2774 6 12.0001 6C13.7228 6 15.4292 6.34693 17.0221 7.02157C18.6149 7.69624 20.0638 8.68572 21.2852 9.93464L22.715 8.53627C21.31 7.09958 19.6408 5.95872 17.8021 5.17995C15.9633 4.40115 13.9917 4 12.0001 4C10.0085 4 8.03689 4.40115 6.19813 5.17995Z" fill="#2B2D34"/>
<path d="M7.7444 8.99709C6.39592 9.56823 5.17213 10.4048 4.1423 11.4578L5.57218 12.8562C6.41838 11.9909 7.42175 11.3057 8.52442 10.8387C9.62703 10.3717 10.808 10.1316 12.0001 10.1316C13.1922 10.1316 14.3732 10.3717 15.4758 10.8387C16.5784 11.3057 17.5818 11.9909 18.428 12.8562L19.8579 11.4578C18.8281 10.4048 17.6043 9.56823 16.2558 8.99709C14.9073 8.42592 13.4611 8.13164 12.0001 8.13164C10.5391 8.13164 9.09294 8.42592 7.7444 8.99709Z" fill="#2B2D34"/>
<path d="M9.29068 12.8142C8.43242 13.1777 7.65406 13.7099 6.99944 14.3793L8.42932 15.7777C8.90032 15.2961 9.45826 14.9152 10.0707 14.6559C10.6831 14.3965 11.3386 14.2633 12.0001 14.2633C12.6616 14.2633 13.3171 14.3965 13.9295 14.6559C14.5419 14.9152 15.0999 15.2961 15.5709 15.7777L17.0007 14.3793C16.3461 13.7099 15.5678 13.1777 14.7095 12.8142C13.8512 12.4507 12.9305 12.2633 12.0001 12.2633C11.0697 12.2633 10.149 12.4507 9.29068 12.8142Z" fill="#2B2D34"/>
<path d="M12.0001 20C13.1047 20 14.0001 19.1046 14.0001 18C14.0001 16.8954 13.1047 16 12.0001 16C10.8955 16 10.0001 16.8954 10.0001 18C10.0001 19.1046 10.8955 20 12.0001 20Z" fill="#2B2D34"/>
</svg>
