<svg width="24" height="24" viewBox="0 0 24 24" fill="none" xmlns="http://www.w3.org/2000/svg">
<path d="M10.5 10.5C10.5 11.3284 9.82843 12 9 12C8.17157 12 7.5 11.3284 7.5 10.5C7.5 9.67157 8.17157 9 9 9C9.82843 9 10.5 9.67157 10.5 10.5Z" fill="#2B2D34"/>
<path d="M16.5 16.5C16.5 17.3284 15.8284 18 15 18C14.1716 18 13.5 17.3284 13.5 16.5C13.5 15.6716 14.1716 15 15 15C15.8284 15 16.5 15.6716 16.5 16.5Z" fill="#2B2D34"/>
<path d="M9.20711 17.7071L16.2071 10.7071L14.7929 9.29291L7.79289 16.2929L9.20711 17.7071Z" fill="#2B2D34"/>
<path fill-rule="evenodd" clip-rule="evenodd" d="M3 3C3 2.44772 3.44772 2 4 2H20C20.5523 2 21 2.44772 21 3V21C21 21.5523 20.5523 22 20 22H4C3.44772 22 3 21.5523 3 21V3ZM5 4V20H19V4H17V6H15V4H13V6H11V4H9V6H7L7 4H5Z" fill="#2B2D34"/>
</svg>
