<svg width="24" height="25" viewBox="0 0 24 25" fill="none" xmlns="http://www.w3.org/2000/svg">
<path d="M2 3.5C2 2.94772 2.44772 2.5 3 2.5H19C19.5523 2.5 20 2.94772 20 3.5V9.5H18V4.5H4V5.26393L4.89443 7.05279C5.03519 7.33431 5.03519 7.66569 4.89443 7.94721L4.11803 9.5L4.89443 11.0528C5.03519 11.3343 5.03519 11.6657 4.89443 11.9472L4.11803 13.5L4.89443 15.0528C5.03519 15.3343 5.03519 15.6657 4.89443 15.9472L4 17.7361V18.5H9V20.5H3C2.44772 20.5 2 20.0523 2 19.5V17.5C2 17.3448 2.03615 17.1916 2.10557 17.0528L2.88197 15.5L2.10557 13.9472C1.96481 13.6657 1.96481 13.3343 2.10557 13.0528L2.88197 11.5L2.10557 9.94721C1.96481 9.66569 1.96481 9.33431 2.10557 9.05279L2.88197 7.5L2.10557 5.94721C2.03615 5.80836 2 5.65525 2 5.5V3.5Z" fill="#2B2D34"/>
<path fill-rule="evenodd" clip-rule="evenodd" d="M15 23.5C13.6938 23.5 12.5825 22.6652 12.1707 21.5H11V19.5H12.1707C12.5825 18.3348 13.6938 17.5 15 17.5C16.3062 17.5 17.4175 18.3348 17.8293 19.5H23V21.5H17.8293C17.4175 22.6652 16.3062 23.5 15 23.5ZM15 19.5C14.4477 19.5 14 19.9477 14 20.5C14 21.0523 14.4477 21.5 15 21.5C15.5523 21.5 16 21.0523 16 20.5C16 19.9477 15.5523 19.5 15 19.5Z" fill="#2B2D34"/>
<path fill-rule="evenodd" clip-rule="evenodd" d="M21.8293 13.5C21.4175 12.3348 20.3062 11.5 19 11.5C17.6938 11.5 16.5825 12.3348 16.1707 13.5H11V15.5H16.1707C16.5825 16.6652 17.6938 17.5 19 17.5C20.3062 17.5 21.4175 16.6652 21.8293 15.5H23V13.5H21.8293ZM20 14.5C20 15.0523 19.5523 15.5 19 15.5C18.4477 15.5 18 15.0523 18 14.5C18 13.9477 18.4477 13.5 19 13.5C19.5523 13.5 20 13.9477 20 14.5Z" fill="#2B2D34"/>
</svg>
