<svg width="24" height="24" viewBox="0 0 24 24" fill="none" xmlns="http://www.w3.org/2000/svg">
<path fill-rule="evenodd" clip-rule="evenodd" d="M3 4C3 3.44772 3.44772 3 4 3H20C20.5523 3 21 3.44772 21 4V20C21 20.5523 20.5523 21 20 21H4C3.44772 21 3 20.5523 3 20V18.4721C3 18.0064 3.10844 17.5471 3.31672 17.1305L3.65836 16.4472C3.79912 16.1657 3.79912 15.8343 3.65836 15.5528L3.55279 15.3416C3.1305 14.4971 3.1305 13.5029 3.55279 12.6584L3.65836 12.4472C3.79912 12.1657 3.79912 11.8343 3.65836 11.5528L3.55279 11.3416C3.1305 10.4971 3.1305 9.50294 3.55279 8.65836L3.65836 8.44721C3.79912 8.16569 3.79912 7.83431 3.65836 7.55279L3.31672 6.8695C3.10844 6.45294 3 5.9936 3 5.52786V4ZM5 5V5.52786C5 5.68311 5.03614 5.83622 5.10557 5.97508L5.44721 6.65836C5.8695 7.50294 5.8695 8.49706 5.44721 9.34164L5.34164 9.55279C5.20088 9.83431 5.20088 10.1657 5.34164 10.4472L5.44721 10.6584C5.8695 11.5029 5.8695 12.4971 5.44721 13.3416L5.34164 13.5528C5.20088 13.8343 5.20088 14.1657 5.34164 14.4472L5.44721 14.6584C5.8695 15.5029 5.8695 16.4971 5.44721 17.3416L5.10557 18.0249C5.03614 18.1638 5 18.3169 5 18.4721V19H19V5H5Z" fill="#2B2D34"/>
<path fill-rule="evenodd" clip-rule="evenodd" d="M17 9L12 9V7L17 7V9Z" fill="#2B2D34"/>
<path fill-rule="evenodd" clip-rule="evenodd" d="M16 13H12V11H16V13Z" fill="#2B2D34"/>
<path fill-rule="evenodd" clip-rule="evenodd" d="M17 17H12V15L17 15V17Z" fill="#2B2D34"/>
<path fill-rule="evenodd" clip-rule="evenodd" d="M10 11V17H8V11H10Z" fill="#2B2D34"/>
<path d="M10.25 8.25C10.25 8.94036 9.69036 9.5 9 9.5C8.30964 9.5 7.75 8.94036 7.75 8.25C7.75 7.55964 8.30964 7 9 7C9.69036 7 10.25 7.55964 10.25 8.25Z" fill="#2B2D34"/>
</svg>
