<svg width="24" height="24" viewBox="0 0 24 24" fill="none" xmlns="http://www.w3.org/2000/svg">
<path d="M4 3C3.44772 3 3 3.44772 3 4V5.52786C3 5.9936 3.10844 6.45294 3.31672 6.8695L3.65836 7.55279C3.79912 7.83431 3.79912 8.16569 3.65836 8.44721L3.55279 8.65836C3.1305 9.50294 3.1305 10.4971 3.55279 11.3416L3.65836 11.5528C3.79912 11.8343 3.79912 12.1657 3.65836 12.4472L3.55279 12.6584C3.1305 13.5029 3.1305 14.4971 3.55279 15.3416L3.65836 15.5528C3.79912 15.8343 3.79912 16.1657 3.65836 16.4472L3.31672 17.1305C3.10844 17.5471 3 18.0064 3 18.4721V20C3 20.5523 3.44772 21 4 21H12V19H5V18.4721C5 18.3169 5.03614 18.1638 5.10557 18.0249L5.44721 17.3416C5.8695 16.4971 5.8695 15.5029 5.44721 14.6584L5.34164 14.4472C5.20088 14.1657 5.20088 13.8343 5.34164 13.5528L5.44721 13.3416C5.8695 12.4971 5.8695 11.5029 5.44721 10.6584L5.34164 10.4472C5.20088 10.1657 5.20088 9.83431 5.34164 9.55279L5.44721 9.34164C5.8695 8.49706 5.8695 7.50294 5.44721 6.65836L5.10557 5.97508C5.03614 5.83622 5 5.68311 5 5.52786V5H19V11.5H21V4C21 3.44772 20.5523 3 20 3H4Z" fill="#2B2D34"/>
<path d="M8 9H17V7H8V9Z" fill="#2B2D34"/>
<path d="M14 13H8V11H14V13Z" fill="#2B2D34"/>
<path fill-rule="evenodd" clip-rule="evenodd" d="M18.5039 13.1362C18.1925 12.9546 17.8075 12.9546 17.4961 13.1362L14.4961 14.8862C14.1889 15.0654 14 15.3943 14 15.75V19.25C14 19.6057 14.1889 19.9346 14.4961 20.1138L17.4961 21.8638C17.8075 22.0454 18.1925 22.0454 18.5039 21.8638L21.5039 20.1138C21.8111 19.9346 22 19.6057 22 19.25V15.75C22 15.3943 21.8111 15.0654 21.5039 14.8862L18.5039 13.1362ZM16 18.6756V16.3244L18 15.1577L20 16.3244V18.6756L18 19.8423L16 18.6756Z" fill="#2B2D34"/>
</svg>
