<svg width="24" height="24" viewBox="0 0 24 24" fill="none" xmlns="http://www.w3.org/2000/svg">
<path d="M15 16.5C15.8284 16.5 16.5 15.8284 16.5 15C16.5 14.1716 15.8284 13.5 15 13.5C14.1716 13.5 13.5 14.1716 13.5 15C13.5 15.8284 14.1716 16.5 15 16.5Z" fill="#2B2D34"/>
<path d="M10.5 9C10.5 9.82843 9.82843 10.5 9 10.5C8.17157 10.5 7.5 9.82843 7.5 9C7.5 8.17157 8.17157 7.5 9 7.5C9.82843 7.5 10.5 8.17157 10.5 9Z" fill="#2B2D34"/>
<path d="M9.20711 16.2071L16.2071 9.20712L14.7929 7.79291L7.79289 14.7929L9.20711 16.2071Z" fill="#2B2D34"/>
<path fill-rule="evenodd" clip-rule="evenodd" d="M2 4H4L4 21C4 21.5523 4.44772 22 5 22H6C6.15525 22 6.30836 21.9639 6.44721 21.8944L8 21.118L9.55279 21.8944C9.83431 22.0352 10.1657 22.0352 10.4472 21.8944L12 21.118L13.5528 21.8944C13.8343 22.0352 14.1657 22.0352 14.4472 21.8944L16 21.118L17.5528 21.8944C17.6916 21.9639 17.8448 22 18 22H19C19.5523 22 20 21.5523 20 21V4H22V2H2V4ZM18 19.882V4L6 4L6 19.882L7.55279 19.1056C7.83431 18.9648 8.16569 18.9648 8.44721 19.1056L10 19.882L11.5528 19.1056C11.8343 18.9648 12.1657 18.9648 12.4472 19.1056L14 19.882L15.5528 19.1056C15.8343 18.9648 16.1657 18.9648 16.4472 19.1056L18 19.882Z" fill="#2B2D34"/>
</svg>
