<svg width="24" height="24" viewBox="0 0 24 24" fill="none" xmlns="http://www.w3.org/2000/svg">
<path d="M1.00049 20L15.0005 20V22H2.00049C1.73527 22 1.48092 21.8946 1.29338 21.7071C1.10585 21.5196 1.00049 21.2652 1.00049 21L1.00049 20Z" fill="#2B2D34"/>
<path d="M17.0005 3V8H15.0005L15.0005 4L3.00049 4L3.00049 8H1.00049L1.00049 3C1.00049 2.73478 1.10584 2.48043 1.29338 2.29289C1.48092 2.10536 1.73527 2 2.00049 2H16.0005C16.5528 2 17.0005 2.44772 17.0005 3Z" fill="#2B2D34"/>
<path d="M21.1409 17.8604C21.5849 17.6921 21.9591 17.4432 22.2634 17.1138V13.8857H19.5725V15.0781H20.6789V16.5122L20.5393 16.6089C20.3459 16.7342 20.0935 16.7969 19.782 16.7969C19.295 16.7969 18.9441 16.6357 18.7292 16.3135C18.518 15.9876 18.4123 15.4684 18.4123 14.7559V13.3379C18.4195 12.6576 18.5198 12.1616 18.7131 11.8501C18.9065 11.5386 19.2162 11.3828 19.6423 11.3828C19.9932 11.3828 20.2511 11.4741 20.4158 11.6567C20.5805 11.8358 20.6843 12.1742 20.7273 12.6719H22.2634C22.1954 11.7767 21.9447 11.1196 21.5115 10.7007C21.0818 10.2817 20.4426 10.0723 19.594 10.0723C18.6916 10.0723 18.0041 10.3641 17.5315 10.9478C17.0624 11.5278 16.8279 12.3568 16.8279 13.4346V14.8418C16.8422 15.9053 17.0982 16.7163 17.5959 17.2749C18.0937 17.8299 18.7919 18.1074 19.6907 18.1074C20.217 18.1074 20.7004 18.0251 21.1409 17.8604Z" fill="#2B2D34"/>
<path d="M5.0293 10.1797H3.4502V15.5186C3.4502 16.3708 3.22103 16.7969 2.7627 16.7969C2.30794 16.7969 2.08057 16.4281 2.08057 15.6904H0.496094C0.496094 16.4495 0.694824 17.0422 1.09229 17.4683C1.48975 17.8944 2.04655 18.1074 2.7627 18.1074C3.42871 18.1074 3.97298 17.8783 4.39551 17.4199C4.81803 16.9616 5.0293 16.3529 5.0293 15.5938V10.1797Z" fill="#2B2D34"/>
<path fill-rule="evenodd" clip-rule="evenodd" d="M7.51912 18V15.25H8.57186C9.37752 15.25 10.0077 15.028 10.4625 14.584C10.9172 14.14 11.1446 13.5348 11.1446 12.7686C11.1446 12.0023 10.9137 11.3792 10.4517 10.8994C9.99341 10.4196 9.37752 10.1797 8.60408 10.1797H5.94002V18H7.51912ZM8.60408 13.9341H7.51912V11.4956H8.6202C8.90307 11.4992 9.12866 11.6174 9.29695 11.8501C9.46525 12.0793 9.54939 12.389 9.54939 12.7793C9.54939 13.1553 9.46704 13.4417 9.30232 13.6387C9.13761 13.8356 8.90486 13.9341 8.60408 13.9341Z" fill="#2B2D34"/>
<path d="M15.9118 14.6162H13.4518V16.6895H16.3629V18H11.8727V10.1797H16.3522V11.4956H13.4518V13.3433H15.9118V14.6162Z" fill="#2B2D34"/>
</svg>
