<svg width="24" height="24" viewBox="0 0 24 24" fill="none" xmlns="http://www.w3.org/2000/svg">
<path d="M15 20L3 20L3 4L15 4V8H17V3C17 2.44772 16.5523 2 16 2H2C1.73478 2 1.48043 2.10536 1.29289 2.29289C1.10536 2.48043 1 2.73478 1 3V21C1 21.5523 1.44772 22 2 22L15 22L15 20Z" fill="#2B2D34"/>
<path d="M21.6536 17.8604C22.0976 17.6921 22.4718 17.4432 22.7762 17.1138V13.8857H20.0853V15.0781H21.1917V16.5122L21.0521 16.6089C20.8587 16.7342 20.6063 16.7969 20.2947 16.7969C19.8078 16.7969 19.4568 16.6357 19.242 16.3135C19.0307 15.9876 18.9251 15.4684 18.9251 14.7559V13.3379C18.9323 12.6576 19.0325 12.1616 19.2259 11.8501C19.4192 11.5386 19.729 11.3828 20.1551 11.3828C20.506 11.3828 20.7638 11.4741 20.9285 11.6567C21.0932 11.8358 21.1971 12.1742 21.24 12.6719H22.7762C22.7081 11.7767 22.4575 11.1196 22.0242 10.7007C21.5945 10.2817 20.9554 10.0723 20.1067 10.0723C19.2044 10.0723 18.5169 10.3641 18.0442 10.9478C17.5752 11.5278 17.3406 12.3568 17.3406 13.4346V14.8418C17.355 15.9053 17.611 16.7163 18.1087 17.2749C18.6064 17.8299 19.3047 18.1074 20.2034 18.1074C20.7298 18.1074 21.2132 18.0251 21.6536 17.8604Z" fill="#2B2D34"/>
<path d="M7.93628 10.1797H9.51538V15.5938C9.51538 16.3529 9.30412 16.9616 8.88159 17.4199C8.45907 17.8783 7.9148 18.1074 7.24878 18.1074C6.53264 18.1074 5.97583 17.8944 5.57837 17.4683C5.18091 17.0422 4.98218 16.4495 4.98218 15.6904H6.56665C6.56665 16.4281 6.79403 16.7969 7.24878 16.7969C7.70711 16.7969 7.93628 16.3708 7.93628 15.5186V10.1797Z" fill="#2B2D34"/>
<path fill-rule="evenodd" clip-rule="evenodd" d="M12.5552 15.25V18H10.9761V10.1797H13.6402C14.4136 10.1797 15.0295 10.4196 15.4878 10.8994C15.9497 11.3792 16.1807 12.0023 16.1807 12.7686C16.1807 13.5348 15.9533 14.14 15.4986 14.584C15.0438 15.028 14.4136 15.25 13.6079 15.25H12.5552ZM12.5552 13.9341H13.6402C13.9409 13.9341 14.1737 13.8356 14.3384 13.6387C14.5031 13.4417 14.5855 13.1553 14.5855 12.7793C14.5855 12.389 14.5013 12.0793 14.333 11.8501C14.1647 11.6174 13.9392 11.4992 13.6563 11.4956H12.5552V13.9341Z" fill="#2B2D34"/>
</svg>
