<svg width="24" height="24" viewBox="0 0 24 24" fill="none" xmlns="http://www.w3.org/2000/svg">
<path fill-rule="evenodd" clip-rule="evenodd" d="M14 9C14 7.15569 14.4611 5.92021 15.1276 5.1585C15.7429 4.45531 16.6283 4.04668 17.7932 4.00376C17.8629 4.0766 17.9566 4.19072 18.0714 4.35471C18.3572 4.76306 18.6752 5.33641 18.9806 5.94721C19.2821 6.55034 19.5555 7.15747 19.7543 7.61636C19.7769 7.66855 19.7985 7.71873 19.8191 7.76669L19.8025 7.78324L18.4472 7.10557C18.1634 6.96365 17.829 6.96488 17.5462 7.10889C17.2634 7.25289 17.0658 7.52257 17.0136 7.8356L16.5136 10.8356C16.491 10.9709 16.4966 11.1094 16.5298 11.2425L18.0298 17.2425L19.9701 16.7575L18.5206 10.9592L18.7638 9.49994L19.5528 9.89443C19.9378 10.0869 20.4027 10.0115 20.7071 9.70711L21.7071 8.70711C21.99 8.42424 22.0768 7.99948 21.9282 7.62807L21.9278 7.62707L21.9217 7.61169L21.9036 7.56714C21.888 7.52864 21.8652 7.47291 21.836 7.40242C21.7776 7.26148 21.6934 7.06116 21.5894 6.82114C21.382 6.34253 21.0929 5.69966 20.7694 5.05279C20.4498 4.41359 20.0802 3.73694 19.7098 3.20779C19.5266 2.94608 19.3176 2.683 19.0887 2.4749C18.8944 2.29832 18.5139 2 18 2C16.2675 2 14.7212 2.58572 13.6224 3.8415C12.7115 4.88251 12.1855 6.29542 12.041 8H7.82841C7.81081 7.95021 7.79188 7.90085 7.77162 7.85195C7.62086 7.48797 7.39988 7.15726 7.1213 6.87868C6.84273 6.6001 6.51201 6.37913 6.14804 6.22836C5.78406 6.0776 5.39395 6 4.99998 6C4.60602 6 4.21591 6.0776 3.85193 6.22836C3.48796 6.37913 3.15724 6.6001 2.87866 6.87868C2.60009 7.15726 2.37911 7.48797 2.22835 7.85195C2.07758 8.21593 1.99998 8.60603 1.99998 9V11H3.99998V9C3.99998 8.86868 4.02585 8.73864 4.07611 8.61732C4.12636 8.49599 4.20002 8.38575 4.29288 8.29289C4.38574 8.20003 4.49598 8.12638 4.6173 8.07612C4.73863 8.02587 4.86866 8 4.99998 8C5.13131 8 5.26134 8.02587 5.38267 8.07612C5.50399 8.12638 5.61423 8.20003 5.70709 8.29289C5.79995 8.38575 5.87361 8.49599 5.92386 8.61732C5.96104 8.70706 5.98487 8.80157 5.99475 8.89784L4.02985 16.7575L5.97013 17.2425L7.78077 10H13C13.5523 10 14 9.55228 14 9ZM17.7012 3.92105C17.7012 3.92105 17.7065 3.92369 17.7175 3.93254C17.7068 3.92606 17.7012 3.92105 17.7012 3.92105Z" fill="#2B2D34"/>
<path d="M8.83914 14.4486C9.69492 13.5457 10.8021 13 12 13C13.1979 13 14.305 13.5457 15.1608 14.4486C16.0114 15.346 16.5874 16.5621 16.8452 17.8852L14.8821 18.2678C14.6842 17.2519 14.2558 16.4012 13.7092 15.8245C13.1679 15.2533 12.5632 15 12 15C11.4368 15 10.8321 15.2533 10.2907 15.8245C9.74411 16.4012 9.31578 17.2519 9.11781 18.2678L7.15474 17.8852C7.41257 16.5621 7.9886 15.346 8.83914 14.4486Z" fill="#2B2D34"/>
<path d="M17.7612 19.1249C19.4205 18.5519 20.4086 17.8105 20.8 17.1531L22.5185 18.1763C21.7704 19.4326 20.2475 20.3822 18.414 21.0153C16.5446 21.6608 14.2917 22 12 22C9.70824 22 7.45533 21.6608 5.58598 21.0153C3.75244 20.3822 2.22955 19.4326 1.48151 18.1763L3.19994 17.1531C3.59139 17.8105 4.57941 18.5519 6.23875 19.1249C7.86229 19.6855 9.88904 20 12 20C14.1109 20 16.1377 19.6855 17.7612 19.1249Z" fill="#2B2D34"/>
</svg>
