<svg width="24" height="24" viewBox="0 0 24 24" fill="none" xmlns="http://www.w3.org/2000/svg">
<path fill-rule="evenodd" clip-rule="evenodd" d="M4.79838 3.0177L18.9999 18.0383L19.008 18.0297L19.3295 18.3698C19.7688 18.8345 19.7688 19.5878 19.3295 20.0525C18.8902 20.5172 18.1779 20.5172 17.7385 20.0525L14.6936 16.832L9.7974 22.9521C9.51318 23.3073 9.04281 23.4244 8.63865 23.2404C8.2345 23.0564 7.99154 22.6146 8.04013 22.1521L8.91674 13.8075H5.03401C4.7179 13.8075 4.42041 13.6494 4.23172 13.3812C4.04302 13.1129 3.98535 12.7661 4.07618 12.4459L5.56937 7.18151L3.3295 4.81246C2.89017 4.34778 2.89017 3.59439 3.3295 3.12971C3.73013 2.70597 4.35775 2.66863 4.79838 3.0177ZM7.17557 8.88035L6.37804 11.6921H9.83401L7.17557 8.88035ZM11.0195 12.946L10.3903 18.9362L13.2745 15.331L11.0195 12.946Z" fill="#2B2D34"/>
<path d="M6.78947 2.87996L8.39567 4.5788L8.77804 3.23071H15.416L13.1396 8.04608C12.9846 8.37395 13.0012 8.76332 13.1834 9.07514C13.3656 9.38696 13.6874 9.57677 14.034 9.57677H17.8779L15.6977 12.302L17.1168 13.8029L20.7974 9.20229C21.0489 8.8879 21.105 8.44768 20.9412 8.07408C20.7774 7.70047 20.4234 7.46141 20.034 7.46141H15.652L17.9284 2.64604C18.0834 2.31817 18.0669 1.9288 17.8847 1.61698C17.7025 1.30516 17.3806 1.11536 17.034 1.11536H8.03401C7.5924 1.11536 7.20308 1.42173 7.07618 1.86911L6.78947 2.87996Z" fill="#2B2D34"/>
</svg>
