<svg width="24" height="24" viewBox="0 0 24 24" fill="none" xmlns="http://www.w3.org/2000/svg">
<path d="M15 8H20.1446C21.5325 8 22.4985 9.37912 22.0242 10.6835L19.4787 17.6835C19.1913 18.4739 18.4402 19 17.5991 19H10L7 17.5V18C7 18.5523 6.55228 19 6 19H3C2.44772 19 2 18.5523 2 18V8C2 7.44772 2.44772 7 3 7H6C6.55228 7 7 7.44772 7 8H9L12.1797 2.4356C12.6399 1.63017 13.6492 1.32459 14.4789 1.73945C14.8171 1.90857 15.0914 2.18285 15.2606 2.52111L15.474 2.94797C15.8134 3.62684 15.8988 4.40475 15.7147 5.14109L15 8Z" fill="#2B2D34"/>
</svg>
