<svg width="24" height="24" viewBox="0 0 24 24" fill="none" xmlns="http://www.w3.org/2000/svg">
<path fill-rule="evenodd" clip-rule="evenodd" d="M6.00006 9.75001V16.3358L2.29297 20.0429L3.70718 21.4571L7.41428 17.75H14.0001C14.2653 17.75 14.5197 17.6446 14.7072 17.4571L14.7079 17.4563L15.7072 16.4571C15.8947 16.2696 16.0001 16.0152 16.0001 15.75V14.75H17.0001C17.2653 14.75 17.5196 14.6447 17.7072 14.4571L20.7072 11.4571C20.967 11.1973 21.1383 10.8705 21.2567 10.5745C21.3797 10.267 21.4727 9.92316 21.5431 9.57112C21.684 8.86679 21.7501 8.04887 21.7501 7.25C21.7501 6.45114 21.684 5.63322 21.5431 4.92889C21.4727 4.57684 21.3797 4.23304 21.2567 3.92548C21.1383 3.62948 20.967 3.3027 20.7072 3.04289C20.4474 2.78308 20.1206 2.6118 19.8246 2.4934C19.517 2.37038 19.1732 2.27733 18.8212 2.20692C18.1168 2.06605 17.2989 2 16.5001 2C15.7012 2 14.8833 2.06605 14.1789 2.20692C13.8269 2.27733 13.4831 2.37037 13.1755 2.4934C12.8795 2.6118 12.5528 2.78308 12.293 3.04289L10.293 5.0429C10.1054 5.23043 10.0001 5.48478 10.0001 5.75L10.0001 6.75H9.00006C8.73484 6.75 8.48049 6.85536 8.29295 7.0429L6.29296 9.04289C6.10543 9.23043 6.00006 9.48479 6.00006 9.75001ZM13.7072 4.45711L12.0001 6.16422L12.0001 7.75001C12.0001 8.30229 11.5523 8.75 11.0001 8.75L9.41428 8.75L8.00006 10.1642V14.3358L14.793 7.54289L16.2072 8.95711L9.41428 15.75H13.5858L13.9994 15.3364L14.0001 13.75C14.0001 13.1977 14.4478 12.75 15.0001 12.75H16.5858L19.293 10.0429C19.3007 10.0323 19.3429 9.97381 19.3997 9.83174C19.4642 9.67055 19.5274 9.45185 19.582 9.17889C19.6911 8.63323 19.7501 7.95114 19.7501 7.25C19.7501 6.54886 19.6911 5.86678 19.582 5.32112C19.5274 5.04816 19.4642 4.82946 19.3997 4.66826C19.3429 4.5262 19.3007 4.46835 19.2929 4.45774C19.282 4.44979 19.2234 4.40698 19.0818 4.35035C18.9206 4.28587 18.7019 4.22267 18.4289 4.16808C17.8833 4.05895 17.2012 4 16.5001 4C15.7989 4 15.1168 4.05895 14.5712 4.16808C14.2982 4.22267 14.0795 4.28587 13.9183 4.35035C13.7763 4.40718 13.7178 4.44937 13.7072 4.45711Z" fill="#2B2D34"/>
<path d="M8.00006 21.75H21.0001V19.75H8.00006V21.75Z" fill="#2B2D34"/>
</svg>
