<svg width="24" height="24" viewBox="0 0 24 24" fill="none" xmlns="http://www.w3.org/2000/svg">
<path fill-rule="evenodd" clip-rule="evenodd" d="M21.7142 2.28578C21.9914 2.56291 22.0757 2.97897 21.9285 3.34218L14.6114 21.3909C14.451 21.7867 14.0518 22.0321 13.6262 21.9966C13.2006 21.9611 12.8476 21.6529 12.7549 21.236L10.9384 13.0616L2.76399 11.2451C2.34709 11.1524 2.03891 10.7994 2.0034 10.3738C1.96789 9.94822 2.21331 9.54901 2.60909 9.38856L20.6578 2.0715C21.021 1.92426 21.4371 2.00865 21.7142 2.28578ZM6.2453 10.0199L11.9677 11.2915C12.3375 11.3737 12.6263 11.6625 12.7085 12.0323L13.9801 17.7547L19.2539 4.74614L6.2453 10.0199Z" fill="#2B2D34"/>
</svg>
