<svg width="24" height="24" viewBox="0 0 24 24" fill="none" xmlns="http://www.w3.org/2000/svg">
<path d="M13 12V18H15V12H13Z" fill="#2B2D34"/>
<path d="M9 18V12H11V18H9Z" fill="#2B2D34"/>
<path fill-rule="evenodd" clip-rule="evenodd" d="M15 3H16V1H8V3H9V8H7C5.89543 8 5 8.89543 5 10V20C5 21.1046 5.89543 22 7 22H7.08535C7.29127 22.5826 7.84689 23 8.5 23C9.15311 23 9.70873 22.5826 9.91465 22H14.0854C14.2913 22.5826 14.8469 23 15.5 23C16.1531 23 16.7087 22.5826 16.9146 22H17C18.1046 22 19 21.1046 19 20V10C19 8.89543 18.1046 8 17 8H15V3ZM11 8H13V3H11V8ZM17 20H7V10H17V20Z" fill="#2B2D34"/>
</svg>
