<svg width="24" height="24" viewBox="0 0 24 24" fill="none" xmlns="http://www.w3.org/2000/svg">
<path fill-rule="evenodd" clip-rule="evenodd" d="M12 7.5C10.067 7.5 8.5 9.067 8.5 11C8.5 12.933 10.067 14.5 12 14.5C13.933 14.5 15.5 12.933 15.5 11C15.5 9.067 13.933 7.5 12 7.5ZM10.5 11C10.5 10.1716 11.1716 9.5 12 9.5C12.8284 9.5 13.5 10.1716 13.5 11C13.5 11.8284 12.8284 12.5 12 12.5C11.1716 12.5 10.5 11.8284 10.5 11Z" fill="#2B2D34"/>
<path fill-rule="evenodd" clip-rule="evenodd" d="M2 12C2 6.47715 6.47715 2 12 2C17.5228 2 22 6.47715 22 12C22 17.5228 17.5228 22 12 22C6.47715 22 2 17.5228 2 12ZM12 4C7.58172 4 4 7.58172 4 12C4 14.2342 4.91589 16.2546 6.3927 17.706C6.42129 17.6464 6.45017 17.5878 6.47879 17.5309C6.98208 16.5305 8.01122 16 9.03834 16H14.9617C15.9888 16 17.0179 16.5305 17.5212 17.5309C17.5498 17.5878 17.5787 17.6464 17.6073 17.706C19.0841 16.2546 20 14.2342 20 12C20 7.58172 16.4183 4 12 4ZM8.04604 18.9127C8.04119 18.9254 8.03674 18.9373 8.03265 18.9485C9.20194 19.6176 10.5563 20 12 20C13.4437 20 14.7981 19.6176 15.9674 18.9485C15.9633 18.9373 15.9588 18.9254 15.954 18.9127C15.9024 18.778 15.8257 18.6109 15.7346 18.4297C15.6116 18.1853 15.328 18 14.9617 18H9.03834C8.67199 18 8.38839 18.1853 8.26544 18.4297C8.17428 18.6109 8.09761 18.778 8.04604 18.9127Z" fill="#2B2D34"/>
</svg>
