<svg width="24" height="24" viewBox="0 0 24 24" fill="none" xmlns="http://www.w3.org/2000/svg">
<path d="M12 10H10V12H11V16H10V18H14V16H13V11C13 10.4477 12.5523 10 12 10Z" fill="#2B2D34"/>
<path fill-rule="evenodd" clip-rule="evenodd" d="M7.29291 2.70712L10.6922 6.10638C6.89601 6.73061 4 10.0271 4 14C4 18.4183 7.58172 22 12 22C16.4183 22 20 18.4183 20 14C20 10.0271 17.104 6.73063 13.3079 6.10638L16.7071 2.70712L15.2929 1.29291L12 4.5858L8.70712 1.29291L7.29291 2.70712ZM12 8C8.68629 8 6 10.6863 6 14C6 17.3137 8.68629 20 12 20C15.3137 20 18 17.3137 18 14C18 10.6863 15.3137 8 12 8Z" fill="#2B2D34"/>
</svg>
