<svg width="24" height="24" viewBox="0 0 24 24" fill="none" xmlns="http://www.w3.org/2000/svg">
<path d="M13.7071 8.70706L8.70712 13.7071L7.29291 12.2928L12.2929 7.29285L13.7071 8.70706Z" fill="#2B2D34"/>
<path d="M16.7071 10.7071L11.7071 15.7071L10.2929 14.2928L15.2929 9.29285L16.7071 10.7071Z" fill="#2B2D34"/>
<path fill-rule="evenodd" clip-rule="evenodd" d="M3 3.5C3 4.15311 3.4174 4.70873 4 4.91465V19.0854C3.4174 19.2913 3 19.8469 3 20.5C3 21.3284 3.67157 22 4.5 22C5.15311 22 5.70873 21.5826 5.91465 21H18.0854C18.2913 21.5826 18.8469 22 19.5 22C20.3284 22 21 21.3284 21 20.5C21 19.8469 20.5826 19.2913 20 19.0854V4.91465C20.5826 4.70873 21 4.15311 21 3.5C21 2.67157 20.3284 2 19.5 2C18.8469 2 18.2913 2.4174 18.0854 3H5.91465C5.70873 2.4174 5.15311 2 4.5 2C3.67157 2 3 2.67157 3 3.5ZM6 19V5H18V19H6Z" fill="#2B2D34"/>
</svg>
