<svg width="24" height="24" viewBox="0 0 24 24" fill="none" xmlns="http://www.w3.org/2000/svg">
<path d="M13.7071 7.70706L8.70712 12.7071L7.29291 11.2928L12.2929 6.29285L13.7071 7.70706Z" fill="#2B2D34"/>
<path d="M16.7071 9.70706L11.7071 14.7071L10.2929 13.2928L15.2929 8.29285L16.7071 9.70706Z" fill="#2B2D34"/>
<path fill-rule="evenodd" clip-rule="evenodd" d="M12 2C10.8267 2 9.66363 2.21658 8.57654 2.63872C7.48939 3.06089 6.49756 3.6812 5.65921 4.46716C4.82071 5.25325 4.15189 6.18999 3.69427 7.22573C3.23656 8.26167 3 9.37447 3 10.5C3 11.6255 3.23656 12.7383 3.69427 13.7743C4.15189 14.81 4.82071 15.7468 5.6592 16.5328C6.49756 17.3188 7.48939 17.9391 8.57654 18.3613C9.35354 18.663 10.1694 18.8597 11 18.9474V20H6V22H18V20H13V18.9474C13.8306 18.8597 14.6465 18.663 15.4235 18.3613C16.5106 17.9391 17.5024 17.3188 18.3408 16.5328C19.1793 15.7468 19.8481 14.81 20.3057 13.7743C20.7634 12.7383 21 11.6255 21 10.5C21 9.37447 20.7634 8.26167 20.3057 7.22574C19.8481 6.18999 19.1793 5.25325 18.3408 4.46716C17.5024 3.6812 16.5106 3.06089 15.4235 2.63872C14.3364 2.21658 13.1733 2 12 2ZM9.30052 4.50309C10.1546 4.17141 11.0721 4 12 4C12.9279 4 13.8454 4.17141 14.6995 4.50309C15.5535 4.83474 16.3255 5.31932 16.9729 5.92624C17.6202 6.53303 18.1299 7.24987 18.4763 8.03401C18.8227 8.81796 19 9.6557 19 10.5C19 11.3443 18.8227 12.182 18.4763 12.966C18.1299 13.7501 17.6202 14.467 16.9729 15.0738C16.3255 15.6807 15.5535 16.1653 14.6995 16.4969C13.8454 16.8286 12.9279 17 12 17C11.0721 17 10.1546 16.8286 9.30052 16.4969C8.44646 16.1653 7.67447 15.6807 7.02709 15.0738C6.37984 14.467 5.87012 13.7501 5.52366 12.966C5.17729 12.182 5 11.3443 5 10.5C5 9.6557 5.17729 8.81796 5.52366 8.03401C5.87012 7.24987 6.37984 6.53303 7.02709 5.92624C7.67447 5.31932 8.44647 4.83474 9.30052 4.50309Z" fill="#2B2D34"/>
</svg>
