<svg width="24" height="24" viewBox="0 0 24 24" fill="none" xmlns="http://www.w3.org/2000/svg">
<path fill-rule="evenodd" clip-rule="evenodd" d="M15.7071 12.2071L12.7071 15.2071L11.2929 13.7929L14.2929 10.7929L15.7071 12.2071Z" fill="#2B2D34"/>
<path fill-rule="evenodd" clip-rule="evenodd" d="M14.7071 8.20711L9.05025 13.864L7.63604 12.4497L13.2929 6.79289L14.7071 8.20711Z" fill="#2B2D34"/>
<path fill-rule="evenodd" clip-rule="evenodd" d="M4 10C4 5.58172 7.58172 2 12 2C16.4183 2 20 5.58172 20 10V22H18V20H6V22H4V10ZM6 18H18V10C18 6.68629 15.3137 4 12 4C8.68629 4 6 6.68629 6 10V18Z" fill="#2B2D34"/>
</svg>
