<svg width="24" height="24" viewBox="0 0 24 24" fill="none" xmlns="http://www.w3.org/2000/svg">
<path fill-rule="evenodd" clip-rule="evenodd" d="M7.99965 2C7.63938 2 7.30696 2.19379 7.12945 2.5073C6.95195 2.82081 6.9568 3.20556 7.14216 3.5145L9.78962 7.92693L5.06553 14.0008C3.69333 15.765 3.67171 18.2294 5.01275 20.0175C5.94878 21.2655 7.41778 22 8.97782 22H15.0215C16.5815 22 18.0505 21.2655 18.9866 20.0175C20.3276 18.2294 20.306 15.765 18.9338 14.0008L15.0443 9H17.9998V7H14.7658L16.8571 3.5145C17.0425 3.20556 17.0474 2.82081 16.8699 2.5073C16.6923 2.19379 16.3599 2 15.9997 2H7.99965ZM6.64423 15.2287L11.4887 9H12.5106L17.3551 15.2287C18.1736 16.281 18.1865 17.7509 17.3866 18.8175C16.8282 19.5619 15.952 20 15.0215 20H8.97782C8.04729 20 7.17107 19.5619 6.61275 18.8175C5.81285 17.7509 5.82575 16.281 6.64423 15.2287ZM14.2335 4L12.4335 7H11.5658L9.76584 4H14.2335Z" fill="#2B2D34"/>
</svg>
