<svg width="24" height="24" viewBox="0 0 24 24" fill="none" xmlns="http://www.w3.org/2000/svg">
<path fill-rule="evenodd" clip-rule="evenodd" d="M8.1298 2.5073C8.30731 2.19379 8.63973 2 9 2H17C17.3603 2 17.6927 2.19379 17.8702 2.5073C18.0477 2.82081 18.0429 3.20556 17.8575 3.5145L15.7662 7H19V9H16.0446L19.9341 14.0008C21.3063 15.765 21.3279 18.2294 19.9869 20.0175C19.0509 21.2655 17.5819 22 16.0218 22H12V20H16.0218C16.9524 20 17.8286 19.5619 18.3869 18.8175C19.1868 17.7509 19.1739 16.281 18.3554 15.2287L13.5109 9H12C11.6487 9 11.3232 8.8157 11.1425 8.5145L8.14251 3.5145C7.95715 3.20556 7.95229 2.82081 8.1298 2.5073ZM13.4338 7L15.2338 4H10.7662L12.5662 7H13.4338Z" fill="#2B2D34"/>
<path fill-rule="evenodd" clip-rule="evenodd" d="M6 22V19H10V17H6V16H9C9.39397 16 9.78407 15.9224 10.1481 15.7716C10.512 15.6209 10.8427 15.3999 11.1213 15.1213C11.3999 14.8427 11.6209 14.512 11.7716 14.1481C11.9224 13.7841 12 13.394 12 13C12 12.606 11.9224 12.2159 11.7716 11.8519C11.6209 11.488 11.3999 11.1573 11.1213 10.8787C10.8427 10.6001 10.512 10.3791 10.1481 10.2284C9.78407 10.0776 9.39397 10 9 10H4V14H2V16H4V17H2V19H4V22H6ZM9 14C9.13132 14 9.26136 13.9741 9.38268 13.9239C9.50401 13.8736 9.61425 13.8 9.70711 13.7071C9.79997 13.6142 9.87362 13.504 9.92388 13.3827C9.97413 13.2614 10 13.1313 10 13C10 12.8687 9.97413 12.7386 9.92388 12.6173C9.87362 12.496 9.79997 12.3858 9.70711 12.2929C9.61425 12.2 9.50401 12.1264 9.38268 12.0761C9.26136 12.0259 9.13132 12 9 12H6V14H9Z" fill="#2B2D34"/>
</svg>
