<svg width="24" height="24" viewBox="0 0 24 24" fill="none" xmlns="http://www.w3.org/2000/svg">
<path fill-rule="evenodd" clip-rule="evenodd" d="M7.12945 2.5073C7.30696 2.19379 7.63938 2 7.99965 2H15.9997C16.3599 2 16.6923 2.19379 16.8699 2.5073C17.0474 2.82081 17.0425 3.20556 16.8571 3.5145L14.7658 7H17.9998V9H15.0443L19.2673 14.0008H16.6867L12.5106 9H11.4887L6.64423 15.2287C5.82575 16.281 5.81285 17.7509 6.61275 18.8175C7.17107 19.5619 8.04729 20 8.97782 20H11.9614V22H8.97782C7.41778 22 5.94878 21.2655 5.01275 20.0175C3.67171 18.2294 3.69333 15.765 5.06553 14.0008L9.78962 7.92693L7.14216 3.5145C6.9568 3.20556 6.95195 2.82081 7.12945 2.5073ZM12.4335 7L14.2335 4H9.76584L11.5658 7H12.4335Z" fill="#2B2D34"/>
<path fill-rule="evenodd" clip-rule="evenodd" d="M22.0264 18.9753H13.9769V16.9753H22.0264V18.9753Z" fill="#2B2D34"/>
</svg>
