<svg width="24" height="24" viewBox="0 0 24 24" fill="none" xmlns="http://www.w3.org/2000/svg">
<path d="M21.0034 8V4.41421L16.7466 8.69298L15.3324 7.27877L19.5892 3H15.977V1H22.0034C22.2687 1 22.523 1.10536 22.7106 1.29289C22.8981 1.48043 23.0034 1.73478 23.0034 2V8H21.0034Z" fill="#2B2D34"/>
<path fill-rule="evenodd" clip-rule="evenodd" d="M2.44775 17.9377C2.10719 17.7928 1.79509 17.6201 1.56978 17.4147L2.91738 15.9369C2.91456 15.9343 2.91505 15.9346 2.9194 15.9376C2.93802 15.9502 3.0273 16.0108 3.23089 16.0974C3.46443 16.1968 3.80553 16.3123 4.27142 16.4218C5.20252 16.6407 6.5967 16.827 8.55604 16.827C10.5154 16.827 11.9096 16.6407 12.8407 16.4218C13.3065 16.3123 13.6476 16.1968 13.8812 16.0974C14.0848 16.0108 14.1741 15.9502 14.1927 15.9376C14.197 15.9346 14.1975 15.9343 14.1947 15.9369L15.5423 17.4147C15.317 17.6201 15.0049 17.7928 14.6643 17.9377C14.3061 18.0902 13.8529 18.2384 13.2982 18.3688C12.1883 18.6296 10.6367 18.827 8.55604 18.827C6.4754 18.827 4.92377 18.6296 3.81384 18.3688C3.25922 18.2384 2.806 18.0902 2.44775 17.9377Z" fill="#2B2D34"/>
<path fill-rule="evenodd" clip-rule="evenodd" d="M12.3189 12.371C12.1938 12.3991 12.0632 12.4259 11.9274 12.4512C10.992 12.6253 9.81145 12.7292 8.52823 12.7292C7.24502 12.7292 6.06449 12.6253 5.12907 12.4512C4.99326 12.4259 4.86262 12.3991 4.73758 12.371C3.68614 12.1343 3.03084 11.8003 3.03084 11.4301C3.03084 11.0598 3.68614 10.7258 4.73758 10.4891C4.86262 10.461 4.99326 10.4342 5.12907 10.4089C6.06449 10.2348 7.24502 10.1309 8.52823 10.1309C9.81145 10.1309 10.992 10.2348 11.9274 10.4089C12.0632 10.4342 12.1938 10.461 12.3189 10.4891C13.3703 10.7258 14.0256 11.0598 14.0256 11.4301C14.0256 11.8003 13.3703 12.1343 12.3189 12.371ZM12.8755 14.2951C11.69 14.5753 10.154 14.7292 8.52823 14.7292C6.90243 14.7292 5.36642 14.5753 4.181 14.2951C3.60416 14.1588 2.99793 13.967 2.48732 13.6817C2.14458 13.4902 1.03084 12.8087 1.03084 11.4301C1.03084 10.0514 2.14458 9.3699 2.48732 9.1784C2.99793 8.8931 3.60416 8.70132 4.181 8.565C5.36642 8.28485 6.90243 8.13086 8.52823 8.13086C10.154 8.13086 11.69 8.28485 12.8755 8.565C13.4523 8.70132 14.0585 8.8931 14.5692 9.1784C14.9119 9.3699 16.0256 10.0514 16.0256 11.4301C16.0256 12.8087 14.9119 13.4902 14.5692 13.6817C14.0585 13.967 13.4523 14.1588 12.8755 14.2951Z" fill="#2B2D34"/>
<path fill-rule="evenodd" clip-rule="evenodd" d="M1.02734 19.93V11.3387H3.02734V19.8423C3.06402 19.8975 3.21323 20.0864 3.73393 20.3181C4.53033 20.6726 5.99872 21.0128 8.52734 21.0128C11.056 21.0128 12.5244 20.6726 13.3208 20.3181C13.8415 20.0864 13.9907 19.8975 14.0273 19.8423V11.3387H16.0273V19.93C16.0273 20.8849 15.2238 21.6603 14.1339 22.1454C12.9803 22.6588 11.1987 23.0128 8.52734 23.0128C5.85597 23.0128 4.07436 22.6588 2.92076 22.1454C1.83088 21.6603 1.02734 20.8849 1.02734 19.93Z" fill="#2B2D34"/>
<path d="M14.2155 21.9706C14.619 21.99 15.0469 22.0002 15.5005 22.0002C18.1719 22.0002 19.9535 21.6462 21.1071 21.1328C22.197 20.6478 23.0005 19.8723 23.0005 18.9175V14.4905H22.995C22.9325 13.1926 21.874 12.5454 21.5414 12.3596C21.0308 12.0743 20.4246 11.8825 19.8477 11.7462C18.6623 11.466 17.1263 11.312 15.5005 11.312C15.064 11.312 14.634 11.3231 14.2155 11.3448V13.3477C14.6277 13.3244 15.058 13.312 15.5005 13.312C16.7837 13.312 17.9642 13.4159 18.8996 13.5901C19.0355 13.6154 19.1661 13.6421 19.2911 13.6703C20.3426 13.9069 20.9979 14.241 20.9979 14.6112C20.9979 14.9814 20.3426 15.3155 19.2911 15.5521C19.1661 15.5803 19.0355 15.6071 18.8996 15.6323C17.9642 15.8065 16.7837 15.9104 15.5005 15.9104C15.058 15.9104 14.6277 15.898 14.2155 15.8747V17.8776C14.634 17.8993 15.064 17.9104 15.5005 17.9104C17.1263 17.9104 18.6623 17.7564 19.8477 17.4763C20.2312 17.3856 20.6277 17.2705 21.0005 17.1196V18.8298C20.9638 18.885 20.8146 19.0739 20.2939 19.3056C19.4975 19.66 18.0291 20.0002 15.5005 20.0002C15.0374 20.0002 14.6098 19.9888 14.2155 19.968V21.9706Z" fill="#2B2D34"/>
</svg>
