<svg width="24" height="24" viewBox="0 0 24 24" fill="none" xmlns="http://www.w3.org/2000/svg">
<path d="M5.04072 13.1478C4.23457 13.1478 3.5292 12.9772 2.9246 12.6362C2.32774 12.2874 1.86266 11.8029 1.52935 11.1828C1.20379 10.5549 1.04102 9.83407 1.04102 9.02018C1.04102 8.20628 1.20767 7.48928 1.54098 6.86917C1.87429 6.24131 2.34324 5.75685 2.94785 5.41579C3.56021 5.06698 4.2617 4.89258 5.05234 4.89258C5.71896 4.89258 6.31969 5.0166 6.85453 5.26464C7.38938 5.51269 7.82345 5.85375 8.15676 6.28782L6.91267 7.76446C6.63362 7.41565 6.3507 7.17148 6.06389 7.03195C5.78485 6.88468 5.46704 6.81104 5.11048 6.81104C4.46712 6.81104 3.99816 7.01257 3.70361 7.41565C3.41681 7.81096 3.27341 8.34581 3.27341 9.02018C3.27341 9.69454 3.42068 10.2333 3.71523 10.6363C4.00979 11.0317 4.47487 11.2293 5.11048 11.2293C5.47479 11.2293 5.80422 11.1557 6.09878 11.0084C6.39333 10.8611 6.67238 10.6247 6.93592 10.2991L8.18002 11.7758C7.8312 12.2409 7.38163 12.5858 6.83128 12.8106C6.28868 13.0354 5.69183 13.1478 5.04072 13.1478Z" fill="#2B2D34"/>
<path d="M14.7121 6.81104L11.3519 11.1596H14.84V12.9734H8.91025V11.2293L12.2821 6.8808H9.03815V5.06698H14.7121V6.81104Z" fill="#2B2D34"/>
<path d="M22.872 12.9734L20.1047 8.83414L22.7557 5.06698H20.4419L18.2328 8.28767V5.06698H16.105V12.9734H18.2328V9.53177L20.4768 12.9734H22.872Z" fill="#2B2D34"/>
<path d="M1 17H3V19H1V17Z" fill="#2B2D34"/>
<path d="M7 19H5V17H7V19Z" fill="#2B2D34"/>
<path d="M9 19V17H11V19H9Z" fill="#2B2D34"/>
<path d="M13 19V17H15V19H13Z" fill="#2B2D34"/>
<path d="M17 19V17H19V19H17Z" fill="#2B2D34"/>
<path d="M21 19V17H23V19H21Z" fill="#2B2D34"/>
</svg>
