<svg width="24" height="24" viewBox="0 0 24 24" fill="none" xmlns="http://www.w3.org/2000/svg">
<path fill-rule="evenodd" clip-rule="evenodd" d="M8.57157 9.07868C9.48455 8.39395 10.7 8 12 8C13.3 8 14.5155 8.39396 15.4284 9.0787C16.3417 9.76366 17 10.7863 17 12C17 13.2138 16.3417 14.2364 15.4284 14.9213C14.5155 15.6061 13.3 16 12 16C10.7 16 9.48455 15.6061 8.57157 14.9213C7.65829 14.2364 7 13.2138 7 12C7 10.7862 7.65829 9.76364 8.57157 9.07868ZM12 14C12.9091 14 13.6937 13.7224 14.2284 13.3213C14.7629 12.9205 15 12.4431 15 12C15 11.5569 14.7629 11.0795 14.2284 10.6787C13.6937 10.2776 12.9091 10 12 10C11.0909 10 10.3063 10.2776 9.77157 10.6787C9.23714 11.0795 9 11.5569 9 12C9 12.4431 9.23714 12.9205 9.77157 13.3213C10.3063 13.7224 11.0909 14 12 14Z" fill="#2B2D34"/>
<path fill-rule="evenodd" clip-rule="evenodd" d="M2 4L22 4.00002C22.5523 4.00002 23 4.44773 23 5.00002V19C23 19.2652 22.8946 19.5196 22.7071 19.7071C22.5196 19.8947 22.2652 20 22 20L2 20C1.44772 20 1 19.5523 1 19V5C1 4.73479 1.10536 4.48043 1.29289 4.2929C1.48043 4.10536 1.73478 4 2 4ZM17 18C17 17.4747 17.1035 16.9546 17.3045 16.4693C17.5055 15.984 17.8001 15.543 18.1716 15.1716C18.543 14.8002 18.984 14.5055 19.4693 14.3045C19.9546 14.1035 20.4747 14 21 14V10C20.4747 10 19.9546 9.89655 19.4693 9.69554C18.984 9.49452 18.543 9.19988 18.1716 8.82844C17.8001 8.45701 17.5055 8.01605 17.3045 7.53075C17.1035 7.04545 17 6.5253 17 6.00002L7 6C7 6.52529 6.89654 7.04543 6.69552 7.53074C6.4945 8.01604 6.19986 8.45699 5.82842 8.82843C5.45699 9.19986 5.01604 9.4945 4.53073 9.69552C4.04543 9.89654 3.52529 10 3 10V14C3.52529 14 4.04543 14.1035 4.53073 14.3045C5.01604 14.5055 5.45699 14.8001 5.82843 15.1716C6.19986 15.543 6.4945 15.984 6.69552 16.4693C6.89654 16.9546 7 17.4747 7 18L17 18ZM3 8C3.26264 8 3.52271 7.94827 3.76537 7.84776C4.00802 7.74725 4.22849 7.59993 4.41421 7.41422C4.59993 7.2285 4.74725 7.00802 4.84776 6.76537C4.94827 6.52272 5 6.26264 5 6H3L3 8ZM3 18L3 16C3.26264 16 3.52271 16.0517 3.76537 16.1522C4.00802 16.2528 4.22849 16.4001 4.41421 16.5858C4.59993 16.7715 4.74725 16.992 4.84776 17.2346C4.94827 17.4773 5 17.7374 5 18L3 18ZM21 16C20.7374 16 20.4773 16.0517 20.2346 16.1523C19.992 16.2528 19.7715 16.4001 19.5858 16.5858C19.4001 16.7715 19.2527 16.992 19.1522 17.2346C19.0517 17.4773 19 17.7374 19 18H21L21 16ZM21 6.00002L21 8.00002C20.7374 8.00002 20.4773 7.94829 20.2346 7.84778C19.992 7.74727 19.7715 7.59995 19.5858 7.41423C19.4001 7.22851 19.2527 7.00803 19.1522 6.76538C19.0517 6.52273 19 6.26266 19 6.00002L21 6.00002Z" fill="#2B2D34"/>
</svg>
