<svg width="24" height="24" viewBox="0 0 24 24" fill="none" xmlns="http://www.w3.org/2000/svg">
<path d="M1 3H16V1H1V3Z" fill="#2B2D34"/>
<path d="M15 15.5V19.5H17V15.5H15Z" fill="#2B2D34"/>
<path d="M15 13.5C15 12.9477 15.4477 12.5 16 12.5C16.5523 12.5 17 12.9477 17 13.5C17 14.0523 16.5523 14.5 16 14.5C15.4477 14.5 15 14.0523 15 13.5Z" fill="#2B2D34"/>
<path fill-rule="evenodd" clip-rule="evenodd" d="M16 9C12.134 9 9 12.134 9 16C9 19.866 12.134 23 16 23C19.866 23 23 19.866 23 16C23 12.134 19.866 9 16 9ZM11 16C11 13.2386 13.2386 11 16 11C18.7614 11 21 13.2386 21 16C21 18.7614 18.7614 21 16 21C13.2386 21 11 18.7614 11 16Z" fill="#2B2D34"/>
<path d="M16 7H1V5H16V7Z" fill="#2B2D34"/>
<path d="M1 11H9V9H1V11Z" fill="#2B2D34"/>
</svg>
