<svg width="24" height="24" viewBox="0 0 24 24" fill="none" xmlns="http://www.w3.org/2000/svg">
<path d="M11.6247 2.21913C11.2595 1.92696 10.7405 1.92696 10.3753 2.21913L2.37531 8.61913C2.13809 8.8089 2 9.09622 2 9.4V12C2 12.2652 2.10536 12.5196 2.29289 12.7071C2.48043 12.8946 2.73478 13 3 13H4V20C4 20.5523 4.44772 21 5 21H9V19H6V11H4L4 9.88063L11 4.28062L18.3753 10.1809L19.6247 8.61913L11.6247 2.21913Z" fill="#2B2D34"/>
<path d="M20 17.5C18.8954 17.5 18 18.3954 18 19.5C18 20.6046 18.8954 21.5 20 21.5C21.1046 21.5 22 20.6046 22 19.5C22 18.3954 21.1046 17.5 20 17.5Z" fill="#2B2D34"/>
<path d="M10 13.5C10 12.3954 10.8954 11.5 12 11.5C13.1046 11.5 14 12.3954 14 13.5C14 14.6046 13.1046 15.5 12 15.5C10.8954 15.5 10 14.6046 10 13.5Z" fill="#2B2D34"/>
<path d="M12.2072 21.7071L21.2072 12.7071L19.793 11.2928L10.793 20.2928L12.2072 21.7071Z" fill="#2B2D34"/>
</svg>
