<svg width="24" height="24" viewBox="0 0 24 24" fill="none" xmlns="http://www.w3.org/2000/svg">
<path fill-rule="evenodd" clip-rule="evenodd" d="M14.0197 4.0002C14.3715 4.00713 14.6937 4.1984 14.8682 4.50386L22.8682 18.5039C23.0451 18.8134 23.0438 19.1936 22.8649 19.5019C22.686 19.8102 22.3565 20 22 20H2C1.65342 20 1.33156 19.8205 1.14935 19.5257C0.967144 19.2309 0.95058 18.8628 1.10557 18.5528L6.10557 8.55279C6.27497 8.214 6.62123 8 7 8C7.37877 8 7.72504 8.214 7.89443 8.55279L9.09702 10.958L13.152 4.47C13.3385 4.17166 13.668 3.99326 14.0197 4.0002ZM12.8198 8.77518L13.9713 9.69638L15.0117 8.78601L13.9616 6.9483L12.8198 8.77518ZM16.0241 10.5577L14.6585 11.7526C14.294 12.0715 13.7535 12.0834 13.3753 11.7809L11.7526 10.4827L9.848 13.53C9.65629 13.8367 9.31386 14.016 8.95254 13.9989C8.59122 13.9817 8.26734 13.7708 8.10557 13.4472L7 11.2361L3.61803 18H20.2768L16.0241 10.5577Z" fill="#2B2D34"/>
</svg>
