<svg width="24" height="24" viewBox="0 0 24 24" fill="none" xmlns="http://www.w3.org/2000/svg">
<path fill-rule="evenodd" clip-rule="evenodd" d="M21.0002 3C21.0002 2.66818 20.8356 2.35797 20.5609 2.17194C20.2861 1.98591 19.9369 1.94829 19.6289 2.07153L9.62885 6.07153C9.2492 6.22339 9.00024 6.5911 9.00024 7V16.2022C8.17316 15.943 7.19146 15.9319 6.22796 16.1752C5.25813 16.4201 4.39889 16.8998 3.80802 17.5334C3.22457 18.1591 2.81164 19.0554 3.08563 20.0191C3.356 20.9701 4.16788 21.5324 4.98156 21.7918C5.81253 22.0568 6.80178 22.0699 7.77256 21.8248C8.74239 21.5799 9.60163 21.1002 10.1925 20.4666C10.6696 19.9549 11.0326 19.2624 10.9994 18.5L11.0002 11.677L19.0002 8.47704V12.2022C18.1732 11.943 17.1915 11.9319 16.228 12.1752C15.2581 12.4201 14.3989 12.8998 13.808 13.5334C13.2246 14.1591 12.8116 15.0554 13.0856 16.0191C13.356 16.9701 14.1679 17.5324 14.9816 17.7918C15.8125 18.0568 16.8018 18.0699 17.7726 17.8248C18.7424 17.5799 19.6016 17.1002 20.1925 16.4666C20.6696 15.9549 21.0326 15.2624 20.9994 14.5L21.0002 3ZM19.0002 6.32297L11.0002 9.52297V7.67704L19.0002 4.47704V6.32297ZM18.4114 14.1136C17.9828 13.977 17.3776 13.9477 16.7176 14.1143C16.0567 14.2812 15.5577 14.5897 15.2707 14.8974C14.9764 15.213 14.9921 15.4113 15.0094 15.4722C15.0303 15.5458 15.1432 15.7442 15.5891 15.8863C16.0177 16.023 16.6229 16.0523 17.2829 15.8857C17.9438 15.7188 18.4429 15.4103 18.7298 15.1026C19.0241 14.7869 19.0084 14.5887 18.9911 14.5278C18.9702 14.4542 18.8573 14.2558 18.4114 14.1136ZM8.41144 18.1136C7.98283 17.977 7.37763 17.9477 6.71765 18.1143C6.05671 18.2812 5.55766 18.5897 5.27075 18.8974C4.97641 19.213 4.99208 19.4113 5.00939 19.4722C5.03033 19.5458 5.14317 19.7442 5.58908 19.8863C6.01769 20.023 6.62289 20.0523 7.28287 19.8857C7.94381 19.7188 8.44286 19.4103 8.72977 19.1026C9.02411 18.7869 9.00844 18.5887 8.99113 18.5278C8.97019 18.4542 8.85735 18.2558 8.41144 18.1136Z" fill="#2B2D34"/>
</svg>
