<svg width="24" height="24" viewBox="0 0 24 24" fill="none" xmlns="http://www.w3.org/2000/svg">
<path d="M9.50076 18.0352L10.915 16.621L7.37943 13.0854L5.96522 14.4996L9.50076 18.0352Z" fill="#2B2D34"/>
<path fill-rule="evenodd" clip-rule="evenodd" d="M20.8145 3.18593C18.4723 0.843786 14.6713 0.843786 12.3292 3.18593L1.72258 13.7925C1.33206 14.1831 1.33206 14.8162 1.72258 15.2067L8.79365 22.2778C9.18417 22.6683 9.81734 22.6683 10.2079 22.2778L17.2789 15.2067C17.5946 14.891 17.6628 14.4043 17.446 14.014L15.3674 10.2725C15.0074 9.62463 14.7804 9.21266 14.6442 8.88296C14.5179 8.5772 14.514 8.44179 14.5259 8.35175L14.528 8.33715C14.5412 8.24729 14.5822 8.11817 14.7876 7.85887C15.0091 7.57926 15.3407 7.24552 15.8647 6.72146C16.252 6.33417 16.8916 6.33417 17.2789 6.72146C17.6662 7.10875 17.6662 7.74838 17.2789 8.13567L17.2224 8.19224C16.2449 9.16966 16.2449 10.7504 17.2224 11.7278C18.1998 12.7052 19.7805 12.7052 20.7579 11.7278L20.8145 11.6712C23.1566 9.32907 23.1566 5.52806 20.8145 3.18593ZM13.7434 4.60014C15.3045 3.03905 17.8392 3.03905 19.4002 4.60014C20.9613 6.16123 20.9613 8.6959 19.4002 10.257L19.3437 10.3136C19.1473 10.5099 18.8329 10.5099 18.6366 10.3136C18.4402 10.1172 18.4402 9.80283 18.6366 9.60645L18.6931 9.54989C19.8615 8.38155 19.8615 6.47559 18.6931 5.30725C17.5248 4.1389 15.6188 4.1389 14.4505 5.30725L14.4126 5.34515C13.9376 5.82014 13.522 6.23563 13.2199 6.61698C12.8937 7.02873 12.6327 7.48057 12.5494 8.04515C12.5472 8.05974 12.5452 8.07434 12.5433 8.08895C12.4683 8.6547 12.5951 9.16086 12.7956 9.64638C12.9813 10.096 13.2667 10.6097 13.593 11.1969L15.3313 14.3259L9.50076 20.1565L3.8439 14.4996L13.7434 4.60014Z" fill="#2B2D34"/>
</svg>
