<svg width="24" height="24" viewBox="0 0 24 24" fill="none" xmlns="http://www.w3.org/2000/svg">
<path d="M5.38422 21.308L19.0357 3.18381L17.4381 1.98053L14.6164 5.72673C13.7547 5.57239 12.8794 5.4942 12.0001 5.4942C10.0085 5.4942 8.03689 5.89535 6.19813 6.67415C4.35942 7.45293 2.69019 8.59379 1.28516 10.0305L2.71503 11.4288C3.93644 10.1799 5.38525 9.19044 6.97814 8.51577C8.57098 7.84113 10.2774 7.4942 12.0001 7.4942C12.4148 7.4942 12.8285 7.5143 13.2399 7.55424L11.6759 9.63068C10.3255 9.67093 8.99311 9.9624 7.7444 10.4913C6.39592 11.0624 5.17213 11.899 4.1423 12.952L5.57218 14.3504C6.41838 13.4851 7.42175 12.7999 8.52442 12.3329C9.00385 12.1299 9.49811 11.9697 10.0016 11.8535L3.78669 20.1048L5.38422 21.308Z" fill="#2B2D34"/>
<path d="M17.3885 8.67768L18.616 7.04795C20.1345 7.80107 21.5203 8.80882 22.715 10.0305L21.2852 11.4288C20.1581 10.2764 18.8373 9.3448 17.3885 8.67768Z" fill="#2B2D34"/>
<path d="M16.0778 10.4177L14.8216 12.0855C15.0423 12.1592 15.2606 12.2418 15.4758 12.3329C16.5784 12.7999 17.5818 13.4851 18.428 14.3504L19.8579 12.952C18.8281 11.899 17.6043 11.0624 16.2558 10.4913C16.1966 10.4662 16.1373 10.4417 16.0778 10.4177Z" fill="#2B2D34"/>
<path d="M13.4472 13.9103L12.0556 15.7578C12.6982 15.765 13.3342 15.8979 13.9295 16.1501C14.5419 16.4095 15.0999 16.7903 15.5709 17.2719L17.0007 15.8735C16.3461 15.2041 15.5678 14.6719 14.7095 14.3084C14.301 14.1354 13.8783 14.0023 13.4472 13.9103Z" fill="#2B2D34"/>
<path d="M12.0001 21.4942C13.1047 21.4942 14.0001 20.5988 14.0001 19.4942C14.0001 18.3896 13.1047 17.4942 12.0001 17.4942C10.8955 17.4942 10.0001 18.3896 10.0001 19.4942C10.0001 20.5988 10.8955 21.4942 12.0001 21.4942Z" fill="#2B2D34"/>
</svg>
