<svg width="24" height="24" viewBox="0 0 24 24" fill="none" xmlns="http://www.w3.org/2000/svg">
<path fill-rule="evenodd" clip-rule="evenodd" d="M7.57085 15.334C6.07601 15.035 5 13.7225 5 12.198C5 10.4318 6.43181 9 8.19804 9C9.38853 9 10.4498 9.65621 11 10.6557C11.5502 9.65621 12.6115 9 13.802 9C15.5682 9 17 10.4318 17 12.198C17 13.7225 15.924 15.035 14.4291 15.334L13.3893 15.542L15.6 17.2L14.4 18.8L11 16.25L7.59999 18.8L6.39999 17.2L8.61074 15.542L7.57085 15.334ZM8.19804 11C7.53638 11 7 11.5364 7 12.198C7 12.7691 7.40309 13.2608 7.96309 13.3728L9.72524 13.7252L9.37281 11.9631C9.26081 11.4031 8.76912 11 8.19804 11ZM15 12.198C15 11.5364 14.4636 11 13.802 11C13.2309 11 12.7392 11.4031 12.6272 11.9631L12.2748 13.7252L14.0369 13.3728C14.5969 13.2608 15 12.7691 15 12.198Z" fill="#2B2D34"/>
<path fill-rule="evenodd" clip-rule="evenodd" d="M3 2C2.44772 2 2 2.44772 2 3V21C2 21.5523 2.44772 22 3 22H21C21.5523 22 22 21.5523 22 21V3C22 2.44772 21.5523 2 21 2H3ZM4 20V4H9V8H11V4H20V13H18V15H20V20H4Z" fill="#2B2D34"/>
</svg>
