<svg width="24" height="24" viewBox="0 0 24 24" fill="none" xmlns="http://www.w3.org/2000/svg">
<path fill-rule="evenodd" clip-rule="evenodd" d="M16.7602 2.58343C16.2268 2.72637 15.9102 3.27471 16.0531 3.80817L16.5682 5.73057L14.3955 6.29013L13.9865 3.83561C13.9061 3.35343 13.4889 3.00001 13.0001 3.00001L10.0001 3.00001C9.49573 3.00001 9.07033 3.37555 9.00778 3.87598L8.51676 7.80415L3.75066 9.03162C3.30885 9.1454 3.00007 9.54378 3.00006 10L3 17L5 17L5.00005 10.7751L8.24999 9.93812L7.11725 19H3V21H21V19H15.8912L15 11.2759V11H14.9682L14.6553 8.28849L17.0859 7.66251L17.606 9.60373C17.749 10.1372 18.2973 10.4538 18.8308 10.3108L19 10.2655V17H21V9.7296L21.7286 9.53438C22.1443 9.42297 22.4422 9.05802 22.468 8.62837L22.6574 5.47177C22.6704 5.25579 22.6129 5.04143 22.4937 4.86086L20.7513 2.22191C20.5142 1.86271 20.0738 1.69557 19.658 1.80697L16.7602 2.58343ZM19.2791 8.12016L18.2438 4.25646L19.4795 3.92537L20.641 5.68467L20.5147 7.78907L19.2791 8.12016ZM10.5994 7.2678L12.4514 6.79082L12.1529 5.00001L10.8828 5.00001L10.5994 7.2678ZM12.7001 8.79202L12.9549 11L10.1328 11L10.3326 9.40176L12.7001 8.79202ZM9.13282 19L9.38282 17L13.6472 17L13.878 19H9.13282ZM13.4164 15L9.63282 15L9.88281 13L13.1857 13L13.4164 15Z" fill="#2B2D34"/>
</svg>
