<svg width="24" height="24" viewBox="0 0 24 24" fill="none" xmlns="http://www.w3.org/2000/svg">
<path d="M10.9995 1V6H12.9995V1H10.9995Z" fill="#2B2D34"/>
<path d="M10.2067 6.29289L6.70669 2.79289L5.29248 4.20711L8.79248 7.70711L10.2067 6.29289Z" fill="#2B2D34"/>
<path fill-rule="evenodd" clip-rule="evenodd" d="M4.49951 7C2.56652 7 0.999512 8.567 0.999512 10.5C0.999512 12.433 2.56652 14 4.49951 14C6.43251 14 7.99951 12.433 7.99951 10.5C7.99951 8.567 6.43251 7 4.49951 7ZM2.99951 10.5C2.99951 9.67157 3.67108 9 4.49951 9C5.32794 9 5.99951 9.67157 5.99951 10.5C5.99951 11.3284 5.32794 12 4.49951 12C3.67108 12 2.99951 11.3284 2.99951 10.5Z" fill="#2B2D34"/>
<path d="M11.1421 11.0145L14.4333 16.5H16.5287C17.5548 16.5 18.3383 16.5123 19.0018 16.8098C19.6065 17.081 20.1267 17.524 20.4906 18.2736C20.8655 19.0458 21.1038 20.2055 21.0017 21.9413L22.9983 22.0587C23.113 20.1082 22.8613 18.5773 22.2898 17.4001C21.7073 16.2004 20.8244 15.4352 19.8201 14.9849C18.7354 14.4985 17.5464 14.4993 16.6266 14.5L15.5657 14.5L12.8571 9.98552L11.1421 11.0145Z" fill="#2B2D34"/>
<path d="M3.91209 15.0839C5.71216 14.0452 7.86224 14.1618 9.25705 14.5338L8.74172 16.4663C7.63653 16.1715 6.0866 16.1382 4.91168 16.8162C3.84216 17.4333 2.81302 18.8025 2.99766 21.9413L1.00111 22.0587C0.785746 18.3975 2.0066 16.1834 3.91209 15.0839Z" fill="#2B2D34"/>
<path fill-rule="evenodd" clip-rule="evenodd" d="M15.9995 10.5C15.9995 8.567 17.5665 7 19.4995 7C21.4325 7 22.9995 8.567 22.9995 10.5C22.9995 12.433 21.4325 14 19.4995 14C17.5665 14 15.9995 12.433 15.9995 10.5ZM19.4995 9C18.6711 9 17.9995 9.67157 17.9995 10.5C17.9995 11.3284 18.6711 12 19.4995 12C20.3279 12 20.9995 11.3284 20.9995 10.5C20.9995 9.67157 20.3279 9 19.4995 9Z" fill="#2B2D34"/>
<path d="M17.2923 2.79289L13.7923 6.29289L15.2065 7.70711L18.7065 4.20711L17.2923 2.79289Z" fill="#2B2D34"/>
</svg>
