<svg width="24" height="24" viewBox="0 0 24 24" fill="none" xmlns="http://www.w3.org/2000/svg">
<path fill-rule="evenodd" clip-rule="evenodd" d="M4.76388 5.64546C4.76413 5.64517 4.76438 5.64487 4.00009 5C3.2358 4.35513 3.23607 4.35481 3.23634 4.35449L3.23819 4.3523L3.24123 4.34874L3.24924 4.33943L3.27297 4.31245C3.29219 4.29087 3.31824 4.26222 3.35099 4.22753C3.41644 4.15822 3.50901 4.06438 3.62767 3.95433C3.86432 3.73483 4.20865 3.44714 4.65251 3.1602C5.53843 2.58748 6.84993 2 8.50009 2C10.1503 2 11.4618 2.58748 12.3477 3.1602C12.3999 3.19394 12.4507 3.22768 12.5001 3.26133C12.5495 3.22768 12.6003 3.19394 12.6525 3.1602C13.5384 2.58748 14.8499 2 16.5001 2C18.1503 2 19.4618 2.58748 20.3477 3.1602C20.7915 3.44714 21.1359 3.73483 21.3725 3.95433C21.4912 4.06438 21.5837 4.15822 21.6492 4.22753C21.6819 4.26222 21.708 4.29087 21.7272 4.31245L21.7509 4.33943L21.759 4.34874L21.762 4.3523L21.7633 4.35381C21.7635 4.35413 21.7644 4.35513 21.0001 5C20.2358 5.64487 20.2361 5.64517 20.2363 5.64546L20.2376 5.64697L20.2388 5.64836L20.2337 5.64263C20.2268 5.63491 20.2139 5.62059 20.195 5.60059C20.1572 5.56053 20.0959 5.49812 20.0124 5.42067C19.8448 5.26517 19.5915 5.05286 19.2619 4.8398C18.6009 4.41252 17.6624 4 16.5001 4C16.1048 4 15.7354 4.04771 15.394 4.12749C16.032 4.43172 16.6919 4.86336 17.3034 5.47487C18.4702 6.64172 18.9822 7.9845 19.2036 9.01592C19.3146 9.53266 19.3546 9.97957 19.3668 10.3021C19.3728 10.4638 19.372 10.5956 19.3692 10.6909C19.3679 10.7386 19.366 10.7773 19.3644 10.8062L19.362 10.842L19.3611 10.8543L19.3608 10.8589L19.3606 10.8609C19.3606 10.8613 19.3605 10.8626 18.364 10.7782C17.3676 10.6937 17.3676 10.6941 17.3675 10.6945L17.3674 10.6965L17.3672 10.6983L17.3677 10.6907C17.3683 10.6803 17.3693 10.6611 17.37 10.6336C17.3716 10.5785 17.3725 10.4911 17.3682 10.3773C17.3596 10.1488 17.3306 9.81951 17.2482 9.43579C17.083 8.6663 16.711 7.71098 15.8892 6.88909C15.5297 6.52961 15.1447 6.25621 14.7609 6.04854C15.4257 7.31199 16.0001 8.98645 16.0001 11C16.0001 13.4224 15.1688 15.354 14.3487 16.6696C14.2415 16.8416 14.1342 17.0035 14.0286 17.1551C15.801 17.429 17.2611 18.026 18.3539 18.6221C19.0968 19.0273 19.6738 19.434 20.0695 19.7437C20.2676 19.8988 20.421 20.03 20.5278 20.1254C20.5812 20.1732 20.623 20.212 20.6529 20.2404C20.6679 20.2546 20.6799 20.2662 20.689 20.275L20.7003 20.2861L20.7043 20.29L20.7059 20.2916C20.7062 20.2919 20.7072 20.2929 20.0001 21C19.293 21.7071 19.2933 21.7074 19.2935 21.7076L19.2774 21.6923C19.261 21.6767 19.2335 21.6511 19.1951 21.6168C19.1182 21.5481 18.9982 21.445 18.8369 21.3188C18.5139 21.066 18.0284 20.7227 17.3962 20.3779C16.1316 19.6881 14.2956 19 12.0001 19C9.70459 19 7.86857 19.6881 6.60394 20.3779C5.97179 20.7227 5.48629 21.066 5.16328 21.3188C5.00199 21.445 4.88194 21.5481 4.8051 21.6168C4.7667 21.6511 4.73917 21.6767 4.72275 21.6923L4.70666 21.7076C4.70692 21.7074 4.7072 21.7071 4.00009 21C3.29299 20.2929 3.29329 20.2926 3.2936 20.2923L3.29585 20.29L3.29984 20.2861L3.31118 20.275C3.32024 20.2662 3.33227 20.2546 3.34726 20.2404C3.37723 20.212 3.41903 20.1732 3.47243 20.1254C3.57919 20.03 3.73257 19.8988 3.93066 19.7437C4.32639 19.434 4.90339 19.0273 5.64624 18.6221C7.05465 17.8539 9.07318 17.0841 11.5841 17.0064C11.6263 16.9618 11.673 16.9112 11.7235 16.8548C11.9734 16.5754 12.312 16.1563 12.6515 15.6116C13.3314 14.521 14.0001 12.9526 14.0001 11C14.0001 9.28995 13.4872 7.8746 12.9031 6.81676C12.4471 6.93599 11.9929 7.15431 11.6161 7.5311C11.0662 8.08104 10.8538 8.79587 10.7944 9.4404C10.7652 9.75758 10.7753 10.0372 10.7927 10.2354C10.8014 10.3338 10.8116 10.4099 10.819 10.458C10.8226 10.482 10.8256 10.4989 10.8272 10.5078L10.8285 10.5151C10.8286 10.5153 10.8285 10.5149 10.8283 10.5141L10.828 10.5124L10.8278 10.5112C10.8277 10.5109 10.8275 10.5099 9.84835 10.7131C8.86921 10.9163 8.86914 10.9159 8.86906 10.9155L8.86852 10.9129L8.86766 10.9087L8.86545 10.8975L8.85935 10.865C8.8546 10.8389 8.8486 10.8039 8.84201 10.7608C8.82883 10.6748 8.81316 10.5558 8.80039 10.4104C8.77499 10.1211 8.76028 9.71852 8.80285 9.25678C8.87317 8.4941 9.10651 7.5108 9.76204 6.6267C9.51072 6.72913 9.2558 6.85237 9.0001 7C7.8363 7.67192 7.11781 8.58255 6.68786 9.33304C6.47309 9.70792 6.33325 10.038 6.24855 10.2689C6.20633 10.384 6.17818 10.4734 6.16152 10.5302C6.15319 10.5585 6.14777 10.5785 6.14491 10.5894L6.14252 10.5987L6.14311 10.5963L6.1434 10.595C6.14349 10.5947 6.14375 10.5936 5.16998 10.366C4.19621 10.1385 4.1963 10.1381 4.1964 10.1377L4.19707 10.1348L4.19819 10.1302L4.20118 10.1179L4.21038 10.0819C4.21798 10.0529 4.2286 10.0141 4.24262 9.96638C4.27064 9.871 4.31237 9.73966 4.37091 9.58009C4.48775 9.26158 4.67301 8.82665 4.95247 8.33883C5.511 7.36392 6.45758 6.15852 8.0001 5.26795C8.80437 4.8036 9.60175 4.52236 10.34 4.36004C9.81517 4.14871 9.19798 4 8.50009 4C7.33776 4 6.39925 4.41252 5.7383 4.8398C5.40872 5.05286 5.1554 5.26517 4.98775 5.42067C4.90426 5.49812 4.84302 5.56053 4.8052 5.60059C4.78632 5.62059 4.77337 5.63491 4.7665 5.64263L4.7608 5.64909C4.7602 5.64979 4.76062 5.6493 4.7608 5.64909L4.76261 5.64697L4.76388 5.64546ZM19.2948 21.7089L19.2935 21.7076C19.2946 21.7087 19.2946 21.7087 19.2948 21.7089Z" fill="#2B2D34"/>
</svg>
