<svg width="24" height="24" viewBox="0 0 24 24" fill="none" xmlns="http://www.w3.org/2000/svg">
<path fill-rule="evenodd" clip-rule="evenodd" d="M11 3H10V5H11V5.83772L8.27924 14H6V16H7.21044L4.14834 20.9759C4.05135 21.1335 4 21.3149 4 21.5V22H5.8125L5.85166 22.0241L5.86649 22H6V21.783L9.5588 16H14.4412L18 21.783V22H18.1335L18.1483 22.0241L18.1875 22H20V21.5C20 21.3149 19.9486 21.1335 19.8517 20.9759L16.7896 16H18V14H15.7208L13 5.83772V5H14V3H13V1H11V3ZM13.6126 14L12 9.16228L10.3874 14H13.6126Z" fill="#2B2D34"/>
<path d="M10.4693 18.3045C10.9546 18.1035 11.4747 18 12 18C12.5253 18 13.0454 18.1035 13.5307 18.3045C14.016 18.5055 14.457 18.8001 14.8284 19.1716C15.1999 19.543 15.4945 19.984 15.6955 20.4693C15.8965 20.9546 16 21.4747 16 22H14C14 21.7374 13.9483 21.4773 13.8478 21.2346C13.7472 20.992 13.5999 20.7715 13.4142 20.5858C13.2285 20.4001 13.008 20.2528 12.7654 20.1522C12.5227 20.0517 12.2626 20 12 20C11.7374 20 11.4773 20.0517 11.2346 20.1522C10.992 20.2528 10.7715 20.4001 10.5858 20.5858C10.4001 20.7715 10.2528 20.992 10.1522 21.2346C10.0517 21.4773 10 21.7374 10 22H8C8 21.4747 8.10346 20.9546 8.30448 20.4693C8.5055 19.984 8.80014 19.543 9.17157 19.1716C9.54301 18.8001 9.98396 18.5055 10.4693 18.3045Z" fill="#2B2D34"/>
</svg>
