<svg width="24" height="24" viewBox="0 0 24 24" fill="none" xmlns="http://www.w3.org/2000/svg">
<path fill-rule="evenodd" clip-rule="evenodd" d="M7.29289 4.29289C7.42105 4.16473 7.58163 4.07381 7.75746 4.02985L11.7575 3.02985C12.0982 2.94465 12.4587 3.0445 12.7071 3.29288L16.7071 7.29288L15.2929 8.7071L11.6933 5.10745L9.95599 5.54177L19.7003 15.2862L19.7071 15.2929L20.7071 16.2929C20.8946 16.4804 21 16.7348 21 17V20C21 20.2652 20.8946 20.5196 20.7071 20.7071C20.5196 20.8946 20.2652 21 20 21H17C16.7348 21 16.4804 20.8946 16.2929 20.7071L15.2995 19.7137L15.2928 19.7071L4.29295 8.7071C3.90243 8.31657 3.90243 7.68342 4.29295 7.29289L7.29289 4.29289ZM17.5857 16L8.00001 6.41421L6.41426 7.99999L15.9999 17.5858L17.5857 16ZM19 19V17.4142L17.4142 19H19Z" fill="#2B2D34"/>
<path d="M6 13V18H4V13H6Z" fill="#2B2D34"/>
<path d="M5 21C5.55228 21 6 20.5523 6 20C6 19.4477 5.55228 19 5 19C4.44772 19 4 19.4477 4 20C4 20.5523 4.44772 21 5 21Z" fill="#2B2D34"/>
</svg>
