<svg width="24" height="24" viewBox="0 0 24 24" fill="none" xmlns="http://www.w3.org/2000/svg">
<path fill-rule="evenodd" clip-rule="evenodd" d="M5.29295 3.29292C5.42111 3.16476 5.58169 3.07384 5.75753 3.02988L9.75753 2.02988C10.0983 1.94468 10.4588 2.04453 10.7072 2.29291L14.7072 6.29291L13.293 7.70713L9.69331 4.10748L7.95605 4.5418L16.7071 13.2929C16.8946 13.4805 17 13.7348 17 14V17C17 17.5523 16.5523 18 16 18H13C12.7348 18 12.4804 17.8947 12.2929 17.7071L6.58585 12H4V20H20V12L17 12V10H21C21.5523 10 22 10.4477 22 11V21C22 21.5523 21.5523 22 21 22H3C2.44772 22 2 21.5523 2 21V11C2 10.4477 2.44772 10 3 10H4.58588L2.29301 7.70712C1.90249 7.3166 1.90249 6.68345 2.29301 6.29292L5.29295 3.29292ZM12 14.5858L13.5858 13L6.00007 5.41424L4.41432 7.00002L12 14.5858ZM13.4142 16L15 16V14.4142L13.4142 16Z" fill="#2B2D34"/>
</svg>
