<svg width="24" height="24" viewBox="0 0 24 24" fill="none" xmlns="http://www.w3.org/2000/svg">
<path d="M21 3H12V5H21V3Z" fill="#2B2D34"/>
<path d="M5 9V21H3V8C3 7.73478 3.10536 7.48043 3.29289 7.29289C3.48043 7.10536 3.73478 7 4 7L8 7L6.20711 5.20711L7.62132 3.79289L11.1213 7.29289C11.3089 7.48043 11.4142 7.73478 11.4142 8C11.4142 8.26522 11.3089 8.51957 11.1213 8.70711L7.62132 12.2071L6.20711 10.7929L8 9L5 9Z" fill="#2B2D34"/>
<path d="M21 15H12V17H21V15Z" fill="#2B2D34"/>
<path d="M21 19H12V21H21V19Z" fill="#2B2D34"/>
<path d="M21 11H12V13H21V11Z" fill="#2B2D34"/>
<path d="M16 7L21 7V9L16 9V7Z" fill="#2B2D34"/>
</svg>
