<svg width="24" height="24" viewBox="0 0 24 24" fill="none" xmlns="http://www.w3.org/2000/svg">
<path d="M4.00064 12C4.00064 7.58172 7.58236 4 12.0006 4C15.3407 4 18.2043 6.04764 19.4018 8.95673L17.0561 8.54311L16.7088 10.5127L21.6328 11.381C22.1767 11.4769 22.6953 11.1137 22.7912 10.5698L23.6595 5.64577L21.6899 5.29847L21.2004 8.07445C19.6745 4.50312 16.1308 2 12.0006 2C6.4778 2 2.00064 6.47715 2.00064 12H4.00064Z" fill="#2B2D34"/>
<path d="M19.9518 12.8901C19.5097 16.889 16.1178 20 12.0006 20C9.15562 20 6.65583 18.5145 5.23726 16.2752L7.94524 16.7527L8.29253 14.783L3.36849 13.9148C2.8246 13.8189 2.30594 14.1821 2.21004 14.726L1.3418 19.65L3.31141 19.9973L3.73014 17.6226C5.52943 20.2643 8.56153 22 12.0006 22C17.1486 22 21.3868 18.1109 21.9397 13.1099L19.9518 12.8901Z" fill="#2B2D34"/>
<path d="M16.2078 14.7929L13.0006 11.5858V7H11.0006V12C11.0006 12.2652 11.106 12.5196 11.2935 12.7071L14.7935 16.2071L16.2078 14.7929Z" fill="#2B2D34"/>
</svg>
