<svg width="24" height="24" viewBox="0 0 24 24" fill="none" xmlns="http://www.w3.org/2000/svg">
<path fill-rule="evenodd" clip-rule="evenodd" d="M5.75753 3.02985C5.58169 3.07381 5.42111 3.16473 5.29295 3.29289L2.29301 6.29289C1.90249 6.68342 1.90249 7.31657 2.29301 7.70709L4.58588 9.99999H2V15H4V12H6.58585L11.2929 16.7071L11.2937 16.7079L12.2929 17.7071C12.4804 17.8946 12.7348 18 13 18H16C16.5523 18 17 17.5523 17 17V14C17 13.7348 16.8946 13.4804 16.7071 13.2929L7.95605 4.54177L9.69331 4.10745L13.293 7.7071L14.7072 6.29288L10.7072 2.29288C10.4588 2.0445 10.0983 1.94465 9.75753 2.02985L5.75753 3.02985ZM13.5858 13L12 14.5858L4.41432 6.99999L6.00007 5.41421L13.5858 13ZM15 16L13.4142 16L15 14.4142V16Z" fill="#2B2D34"/>
<path d="M17 9.99999V12H20V15H22V9.99999H17Z" fill="#2B2D34"/>
<path d="M17 20H20V17H22V22H17V20Z" fill="#2B2D34"/>
<path d="M4 20H7V22H2V17H4V20Z" fill="#2B2D34"/>
<path d="M9 20H15V22H9V20Z" fill="#2B2D34"/>
</svg>
