<svg width="24" height="24" viewBox="0 0 24 24" fill="none" xmlns="http://www.w3.org/2000/svg">
<path fill-rule="evenodd" clip-rule="evenodd" d="M17.9701 5.75747C17.9262 5.58163 17.8353 5.42105 17.7071 5.29289L14.7071 2.29295C14.3166 1.90243 13.6834 1.90243 13.2929 2.29295L3.2929 12.2928L3.28632 12.2995L2.29289 13.2929C2.10536 13.4804 2 13.7348 2 14V17C2 17.2652 2.10536 17.5196 2.29289 17.7071C2.48043 17.8946 2.73478 18 3 18H6C6.26522 18 6.51957 17.8946 6.70711 17.7071L7.70711 16.7071L7.71376 16.7004L16.4582 7.95599L16.8925 9.69325L13.2929 13.2929L14.7071 14.7071L18.7071 10.7071C18.9555 10.4587 19.0553 10.0982 18.9701 9.75747L17.9701 5.75747ZM15.5858 6.00001L7 14.5857L5.41422 12.9999L14 4.41426L15.5858 6.00001ZM5.58579 16H4L4 14.4142L5.58579 16Z" fill="#2B2D34"/>
<path d="M14.7071 21.7072L22.2071 14.2072L20.7929 12.793L14 19.5859L11.7071 17.293L10.2929 18.7072L13.2929 21.7072C13.6834 22.0977 14.3166 22.0977 14.7071 21.7072Z" fill="#2B2D34"/>
</svg>
