<svg width="24" height="24" viewBox="0 0 24 24" fill="none" xmlns="http://www.w3.org/2000/svg">
<path d="M15 20L3 20L3 4L15 4V8H17V3C17 2.44772 16.5523 2 16 2H2C1.73478 2 1.48043 2.10536 1.29289 2.29289C1.10536 2.48043 1 2.73478 1 3V21C1 21.5523 1.44772 22 2 22L15 22L15 20Z" fill="#2B2D34"/>
<path fill-rule="evenodd" clip-rule="evenodd" d="M7.13062 15.25V18H5.55152V10.1797H8.21558C8.98902 10.1797 9.6049 10.4196 10.0632 10.8994C10.5251 11.3792 10.7561 12.0023 10.7561 12.7686C10.7561 13.5348 10.5287 14.14 10.074 14.584C9.61922 15.028 8.98902 15.25 8.18335 15.25H7.13062ZM7.13062 13.9341H8.21558C8.51636 13.9341 8.74911 13.8356 8.91382 13.6387C9.07853 13.4417 9.16089 13.1553 9.16089 12.7793C9.16089 12.389 9.07674 12.0793 8.90845 11.8501C8.74015 11.6174 8.51457 11.4992 8.23169 11.4956H7.13062V13.9341Z" fill="#2B2D34"/>
<path fill-rule="evenodd" clip-rule="evenodd" d="M12.0342 18V10.1797H14.1021C15.0152 10.1797 15.7421 10.4697 16.2827 11.0498C16.827 11.6299 17.1045 12.4248 17.1153 13.4346V14.7022C17.1153 15.7298 16.8431 16.5373 16.2989 17.1245C15.7582 17.7082 15.0116 18 14.0591 18H12.0342ZM13.6133 11.4956V16.6895H14.086C14.6123 16.6895 14.9829 16.5516 15.1978 16.2759C15.4126 15.9966 15.5254 15.5168 15.5362 14.8364V13.4775C15.5362 12.7471 15.4341 12.2386 15.23 11.9522C15.0259 11.6621 14.6786 11.5099 14.188 11.4956H13.6133Z" fill="#2B2D34"/>
<path d="M20.053 14.8096H22.5076V13.499H20.053V11.4956H22.803V10.1797H18.4739V18H20.053V14.8096Z" fill="#2B2D34"/>
</svg>
