<svg width="24" height="24" viewBox="0 0 24 24" fill="none" xmlns="http://www.w3.org/2000/svg">
<path fill-rule="evenodd" clip-rule="evenodd" d="M12 2C11.4477 2 11 2.44772 11 3V5.10002C8.71776 5.56329 7 7.58104 7 10L7 10.384C6.52129 10.6511 6.1217 10.9499 5.77348 11.3047C5.29796 11.7891 4.96144 12.3348 4.64824 12.9289C3.93365 14.2844 3.80211 15.8096 4.29204 17.2463C4.77851 18.6728 5.83116 19.8811 7.22235 20.7198C8.61305 21.5583 10.2921 22 12 22C13.7079 22 15.3869 21.5583 16.7776 20.7198C18.1688 19.8811 19.2215 18.6728 19.708 17.2463C20.1979 15.8096 20.0663 14.2844 19.3518 12.9289C19.0385 12.3348 18.702 11.7891 18.2265 11.3047C17.8783 10.9499 17.4787 10.6511 17 10.384V10C17 7.58104 15.2822 5.56329 13 5.10002V4H15V2H12ZM11 7.1707V9H13V7.17071C14.1652 7.58254 15 8.69378 15 10V11.6444L15.5869 11.9107C16.1696 12.175 16.5284 12.4298 16.7992 12.7057C17.0763 12.9879 17.3061 13.3371 17.5826 13.8616C18.0474 14.7433 18.1227 15.6984 17.815 16.6007C17.5038 17.5132 16.7988 18.3717 15.745 19.007C14.6907 19.6427 13.374 20 12 20C10.626 20 9.30931 19.6427 8.25499 19.007C7.20116 18.3717 6.49617 17.5132 6.18499 16.6007C5.87727 15.6984 5.95264 14.7433 6.41744 13.8616C6.69393 13.3371 6.92374 12.9879 7.20076 12.7057C7.47159 12.4298 7.83035 12.175 8.41311 11.9107L8.99999 11.6444L9 10C9 8.69378 9.83481 7.58254 11 7.1707Z" fill="#2B2D34"/>
</svg>
