<svg width="24" height="24" viewBox="0 0 24 24" fill="none" xmlns="http://www.w3.org/2000/svg">
<path fill-rule="evenodd" clip-rule="evenodd" d="M2 5.5C2 3.567 3.567 2 5.5 2C7.433 2 9 3.567 9 5.5C9 7.433 7.433 9 5.5 9C3.567 9 2 7.433 2 5.5ZM5.5 4C4.67157 4 4 4.67157 4 5.5C4 6.32843 4.67157 7 5.5 7C6.32843 7 7 6.32843 7 5.5C7 4.67157 6.32843 4 5.5 4Z" fill="#2B2D34"/>
<path d="M17.5001 10C17.278 10 17.0598 10.01 16.8456 10.0297V12.0416C17.054 12.0144 17.2722 12 17.5001 12C20.2687 12 22 14.2017 22 17H24C24 13.3983 21.6522 10 17.5001 10Z" fill="#2B2D34"/>
<path d="M12.0001 15C7.84797 15 5.5 18.3983 5.5 22H7.5C7.5 19.2017 9.23138 17 12.0001 17C14.7687 17 16.5 19.2017 16.5 22H18.5C18.5 18.3983 16.1522 15 12.0001 15Z" fill="#2B2D34"/>
<path fill-rule="evenodd" clip-rule="evenodd" d="M18.5 2C16.567 2 15 3.567 15 5.5C15 7.433 16.567 9 18.5 9C20.433 9 22 7.433 22 5.5C22 3.567 20.433 2 18.5 2ZM17 5.5C17 4.67157 17.6716 4 18.5 4C19.3284 4 20 4.67157 20 5.5C20 6.32843 19.3284 7 18.5 7C17.6716 7 17 6.32843 17 5.5Z" fill="#2B2D34"/>
<path fill-rule="evenodd" clip-rule="evenodd" d="M8.5 10.5C8.5 8.567 10.067 7 12 7C13.933 7 15.5 8.567 15.5 10.5C15.5 12.433 13.933 14 12 14C10.067 14 8.5 12.433 8.5 10.5ZM12 9C11.1716 9 10.5 9.67157 10.5 10.5C10.5 11.3284 11.1716 12 12 12C12.8284 12 13.5 11.3284 13.5 10.5C13.5 9.67157 12.8284 9 12 9Z" fill="#2B2D34"/>
<path d="M6.49993 10C6.72198 10 6.94021 10.01 7.1544 10.0297V12.0416C6.94597 12.0144 6.72783 12 6.49993 12C3.73127 12 2 14.2017 2 17H0C0 13.3983 2.34779 10 6.49993 10Z" fill="#2B2D34"/>
</svg>
