<svg width="24" height="24" viewBox="0 0 24 24" fill="none" xmlns="http://www.w3.org/2000/svg">
<path fill-rule="evenodd" clip-rule="evenodd" d="M6 7C6 4.23858 8.23858 2 11 2C13.7614 2 16 4.23858 16 7C16 9.76142 13.7614 12 11 12C8.23858 12 6 9.76142 6 7ZM11 4C9.34315 4 8 5.34315 8 7C8 8.65685 9.34315 10 11 10C12.6569 10 14 8.65685 14 7C14 5.34315 12.6569 4 11 4Z" fill="#2B2D34"/>
<path fill-rule="evenodd" clip-rule="evenodd" d="M14 17C14 14.7909 15.7909 13 18 13C20.2091 13 22 14.7909 22 17C22 17.7418 21.7981 18.4364 21.4462 19.0319L23.7072 21.2929L22.293 22.7071L20.032 20.4462C19.4365 20.7981 18.7418 21 18 21C15.7909 21 14 19.2091 14 17ZM18 15C16.8954 15 16 15.8954 16 17C16 18.1046 16.8954 19 18 19C19.1046 19 20 18.1046 20 17C20 15.8954 19.1046 15 18 15Z" fill="#2B2D34"/>
<path d="M12 16V14H10V16H12Z" fill="#2B2D34"/>
<path d="M12 18V22H10V18H12Z" fill="#2B2D34"/>
<path d="M7.36557 13.8047C4.21005 15.3222 2.5 18.7013 2.5 22H4.5C4.5 19.3266 5.89001 16.7336 8.23235 15.6071L7.36557 13.8047Z" fill="#2B2D34"/>
</svg>
