<svg width="24" height="24" viewBox="0 0 24 24" fill="none" xmlns="http://www.w3.org/2000/svg">
<path fill-rule="evenodd" clip-rule="evenodd" d="M3.79289 18.7929L18.7929 3.79289L20.2071 5.20711L5.20711 20.2071L3.79289 18.7929Z" fill="#2B2D34"/>
<path fill-rule="evenodd" clip-rule="evenodd" d="M6.75 5C5.7835 5 5 5.7835 5 6.75C5 7.7165 5.7835 8.5 6.75 8.5C7.7165 8.5 8.5 7.7165 8.5 6.75C8.5 5.7835 7.7165 5 6.75 5ZM3 6.75C3 4.67893 4.67893 3 6.75 3C8.82107 3 10.5 4.67893 10.5 6.75C10.5 8.82107 8.82107 10.5 6.75 10.5C4.67893 10.5 3 8.82107 3 6.75Z" fill="#2B2D34"/>
<path fill-rule="evenodd" clip-rule="evenodd" d="M17.25 15.5C16.2835 15.5 15.5 16.2835 15.5 17.25C15.5 18.2165 16.2835 19 17.25 19C18.2165 19 19 18.2165 19 17.25C19 16.2835 18.2165 15.5 17.25 15.5ZM13.5 17.25C13.5 15.1789 15.1789 13.5 17.25 13.5C19.3211 13.5 21 15.1789 21 17.25C21 19.3211 19.3211 21 17.25 21C15.1789 21 13.5 19.3211 13.5 17.25Z" fill="#2B2D34"/>
</svg>
