<svg width="24" height="24" viewBox="0 0 24 24" fill="none" xmlns="http://www.w3.org/2000/svg">
<path fill-rule="evenodd" clip-rule="evenodd" d="M6 7C6 4.23858 8.23858 2 11 2C13.7614 2 16 4.23858 16 7C16 9.76142 13.7614 12 11 12C8.23858 12 6 9.76142 6 7ZM11 4C9.34315 4 8 5.34315 8 7C8 8.65685 9.34315 10 11 10C12.6569 10 14 8.65685 14 7C14 5.34315 12.6569 4 11 4Z" fill="#2B2D34"/>
<path fill-rule="evenodd" clip-rule="evenodd" d="M19.0083 13.2102C18.3282 12.7508 17.4131 13.0769 17.1488 13.8727L16.6324 15.4269C16.446 15.9881 16.6516 16.609 17.1311 16.933L17.3762 17.0985C17.2955 17.2947 17.1548 17.5795 16.9107 17.9686C16.6668 18.3574 16.4729 18.6061 16.3328 18.7621L16.0881 18.5968C15.6084 18.2727 14.9778 18.3289 14.5585 18.7332L13.3981 19.8522C12.8038 20.4253 12.887 21.4251 13.5668 21.8844L14.8166 22.7287C15.1806 22.9746 15.6722 23.0914 16.1625 22.9159C16.9142 22.6468 18.549 21.8713 19.7941 19.9252C21.0546 17.9552 21.0505 16.0562 20.9707 15.233C20.9197 14.7068 20.6205 14.2994 20.2646 14.059L19.0083 13.2102ZM19.3315 15.4758C19.3816 16.1028 19.3567 17.5066 18.4163 18.9763C17.4741 20.4489 16.2589 21.0544 15.688 21.2702L14.9052 20.7413L15.4519 20.2142L15.7728 20.4309C16.0177 20.5964 16.3258 20.4978 16.7801 20.2142C17.9343 19.4936 18.6942 18.2676 18.8556 16.933C18.9215 16.3875 18.8654 16.0574 18.6205 15.892L18.2993 15.675L18.5425 14.9428L19.3315 15.4758Z" fill="#2B2D34"/>
<path d="M3 22C3 17.5983 6.08967 13 11.5001 13C12.6208 13 13.6572 13.2015 14.5941 13.5691L13.8636 15.4309C13.1657 15.1571 12.3776 15 11.5001 15C7.47308 15 5 18.4017 5 22H3Z" fill="#2B2D34"/>
</svg>
