<svg width="24" height="24" viewBox="0 0 24 24" fill="none" xmlns="http://www.w3.org/2000/svg">
<path fill-rule="evenodd" clip-rule="evenodd" d="M6 7C6 4.23858 8.23858 2 11 2C13.7614 2 16 4.23858 16 7C16 9.76142 13.7614 12 11 12C8.23858 12 6 9.76142 6 7ZM11 4C9.34314 4 8 5.34315 8 7C8 8.65685 9.34314 10 11 10C12.6569 10 14 8.65685 14 7C14 5.34315 12.6569 4 11 4Z" fill="#2B2D34"/>
<path d="M3 22C3 17.5983 6.08967 13 11.5001 13V15C7.47308 15 5 18.4017 5 22H3Z" fill="#2B2D34"/>
<path fill-rule="evenodd" clip-rule="evenodd" d="M19.1153 15.8696C20.2869 17.0412 20.2869 18.9407 19.1153 20.1123C17.9437 21.2839 16.0442 21.2839 14.8727 20.1123C13.7011 18.9407 13.7011 17.0412 14.8727 15.8696C16.0442 14.6981 17.9437 14.6981 19.1153 15.8696ZM20.5295 21.5265C22.4821 19.5739 22.4821 16.4081 20.5295 14.4554C18.5769 12.5028 15.4111 12.5028 13.4584 14.4554C11.5058 16.4081 11.5058 19.5739 13.4584 21.5265C15.4111 23.4791 18.5769 23.4791 20.5295 21.5265Z" fill="#2B2D34"/>
<path fill-rule="evenodd" clip-rule="evenodd" d="M14.7913 21.5536L20.5024 15.8425L19.0882 14.4283L13.3771 20.1394L14.7913 21.5536Z" fill="#2B2D34"/>
</svg>
