<svg width="24" height="24" viewBox="0 0 24 24" fill="none" xmlns="http://www.w3.org/2000/svg">
<path fill-rule="evenodd" clip-rule="evenodd" d="M12 2C9.23858 2 7 4.23858 7 7C7 9.76142 9.23858 12 12 12C14.7614 12 17 9.76142 17 7C17 4.23858 14.7614 2 12 2ZM9 7C9 5.34315 10.3431 4 12 4C13.6569 4 15 5.34315 15 7C15 8.65685 13.6569 10 12 10C10.3431 10 9 8.65685 9 7Z" fill="#2B2D34"/>
<path d="M12.0001 13H11.5859L3.29297 21.2929L4.70718 22.7071L12.4028 15.0115C16.1913 15.23 18.5 18.5232 18.5 22H20.5C20.5 17.5983 17.4105 13 12.0001 13Z" fill="#2B2D34"/>
<path d="M6.5 13.75C6.5 14.7165 5.7165 15.5 4.75 15.5C3.7835 15.5 3 14.7165 3 13.75C3 12.7835 3.7835 12 4.75 12C5.7165 12 6.5 12.7835 6.5 13.75Z" fill="#2B2D34"/>
<path d="M12.75 22.5C13.7165 22.5 14.5 21.7165 14.5 20.75C14.5 19.7835 13.7165 19 12.75 19C11.7835 19 11 19.7835 11 20.75C11 21.7165 11.7835 22.5 12.75 22.5Z" fill="#2B2D34"/>
</svg>
