<svg width="24" height="24" viewBox="0 0 24 24" fill="none" xmlns="http://www.w3.org/2000/svg">
<path fill-rule="evenodd" clip-rule="evenodd" d="M4 7C4 4.23858 6.23858 2 9 2C11.7614 2 14 4.23858 14 7C14 9.76142 11.7614 12 9 12C6.23858 12 4 9.76142 4 7ZM9 4C7.34315 4 6 5.34315 6 7C6 8.65685 7.34315 10 9 10C10.6569 10 12 8.65685 12 7C12 5.34315 10.6569 4 9 4Z" fill="#2B2D34"/>
<path d="M1 22C1 17.5983 4.08967 13 9.5001 13C10.6208 13 11.6572 13.2015 12.5941 13.5691L11.8636 15.4309C11.1657 15.1571 10.3776 15 9.5001 15C5.47308 15 3 18.4017 3 22H1Z" fill="#2B2D34"/>
<path fill-rule="evenodd" clip-rule="evenodd" d="M15 15C14.6657 15 14.3534 15.1671 14.168 15.4453L13.168 16.9453C12.9036 17.3419 12.9558 17.87 13.2929 18.2071L17.2929 22.2071C17.6834 22.5976 18.3166 22.5976 18.7071 22.2071L22.7071 18.2071C23.0442 17.87 23.0965 17.3419 22.8321 16.9453L21.8321 15.4453C21.6466 15.1671 21.3344 15 21 15H15ZM15.2868 17.3726L15.5352 17H20.4648L20.7132 17.3726L18 20.0858L15.2868 17.3726Z" fill="#2B2D34"/>
</svg>
