<svg width="24" height="24" viewBox="0 0 24 24" fill="none" xmlns="http://www.w3.org/2000/svg">
<path d="M17.0619 2.60896C16.0913 2.20693 15.051 2 14.0004 2V4C14.7884 4 15.5686 4.15519 16.2965 4.45672C17.0245 4.75825 17.6859 5.20021 18.2431 5.75736C18.8002 6.31451 19.2422 6.97595 19.5437 7.7039C19.8452 8.43185 20.0004 9.21207 20.0004 10H22.0004C22.0004 8.94943 21.7935 7.90914 21.3915 6.93853C20.9894 5.96793 20.4002 5.08601 19.6573 4.34315C18.9144 3.60028 18.0325 3.011 17.0619 2.60896Z" fill="#2B2D34"/>
<path fill-rule="evenodd" clip-rule="evenodd" d="M5.38766 3.19854C6.30771 2.27849 7.84743 2.46804 8.51686 3.58376L10.4562 6.816C10.9284 7.60295 10.8044 8.61026 10.1554 9.2592L9.12903 10.2856C9.33879 10.7157 9.86503 11.5457 11.1599 12.8405C12.4547 14.1354 13.2847 14.6616 13.7148 14.8714L14.7412 13.845C15.3901 13.196 16.3975 13.072 17.1844 13.5442L20.4167 15.4836C21.5324 16.153 21.7219 17.6927 20.8019 18.6128L18.2933 21.1213C17.7369 21.6777 16.9334 22.037 16.0529 21.9273C14.3062 21.7098 10.36 20.8308 6.73853 17.2747C3.08293 13.6852 2.2473 9.66616 2.05696 7.91338C1.9629 7.0472 2.32168 6.26453 2.86594 5.72027L5.38766 3.19854ZM6.80188 4.61275L4.28015 7.13448C4.08988 7.32476 4.02719 7.53092 4.04527 7.69746C4.20564 9.17427 4.92512 12.6911 8.1398 15.8477C11.347 18.997 14.8233 19.7587 16.3001 19.9426C16.4723 19.9641 16.6854 19.9008 16.8791 19.7071L19.3877 17.1985L16.1554 15.2592L14.9771 16.4375C14.6379 16.7767 14.0188 17.1121 13.3028 16.8642C12.6091 16.6241 11.4672 15.9763 9.74566 14.2547C8.02413 12.5332 7.37633 11.3913 7.13618 10.6976C6.8883 9.98162 7.22373 9.36248 7.56292 9.02328L8.74121 7.84499L6.80188 4.61275Z" fill="#2B2D34"/>
<path d="M14.0004 6C14.5257 6 15.0459 6.10346 15.5312 6.30448C16.0165 6.5055 16.4574 6.80014 16.8289 7.17157C17.2003 7.54301 17.4949 7.98396 17.6959 8.46927C17.897 8.95457 18.0004 9.47471 18.0004 10H16.0004C16.0004 9.73736 15.9487 9.47728 15.8482 9.23463C15.7477 8.99198 15.6004 8.7715 15.4146 8.58579C15.2289 8.40007 15.0084 8.25275 14.7658 8.15224C14.5231 8.05173 14.2631 8 14.0004 8V6Z" fill="#2B2D34"/>
</svg>
