<svg width="24" height="24" viewBox="0 0 24 24" fill="none" xmlns="http://www.w3.org/2000/svg">
<path fill-rule="evenodd" clip-rule="evenodd" d="M5.67282 2.91896C6.59287 1.99891 8.13259 2.18846 8.80202 3.30418L10.7414 6.53641C11.2135 7.32337 11.0895 8.33068 10.4406 8.97962L9.41418 10.006C9.62395 10.4361 10.1502 11.2661 11.445 12.5609C12.7399 13.8558 13.5699 14.382 14 14.5918L15.0264 13.5654C15.6753 12.9165 16.6826 12.7925 17.4696 13.2646L20.7018 15.204C21.8175 15.8734 22.0071 17.4131 21.087 18.3332L18.5785 20.8417C18.022 21.3982 17.2186 21.7574 16.3381 21.6477C14.5913 21.4302 10.6451 20.5512 7.02369 16.9952C3.36808 13.4056 2.53246 9.38658 2.34212 7.6338C2.24806 6.76762 2.60684 5.98495 3.15109 5.44069L5.67282 2.91896ZM7.08703 4.33317L4.56531 6.8549C4.37504 7.04518 4.31234 7.25134 4.33043 7.41788C4.4908 8.89468 5.21028 12.4115 8.42496 15.5681C11.6322 18.7174 15.1085 19.4791 16.5852 19.6631C16.7574 19.6845 16.9705 19.6212 17.1642 19.4275L19.6728 16.919L16.4406 14.9796L15.2623 16.1579C14.9231 16.4971 14.3039 16.8325 13.5879 16.5846C12.8943 16.3445 11.7523 15.6967 10.0308 13.9751C8.30928 12.2536 7.66149 11.1117 7.42133 10.418C7.17346 9.70204 7.50888 9.0829 7.84807 8.7437L9.02637 7.5654L7.08703 4.33317Z" fill="#2B2D34"/>
</svg>
