<svg width="24" height="24" viewBox="0 0 24 24" fill="none" xmlns="http://www.w3.org/2000/svg">
<path d="M8 12C9.10457 12 10 11.1046 10 10C10 8.89543 9.10457 8 8 8C6.89543 8 6 8.89543 6 10C6 11.1046 6.89543 12 8 12Z" fill="#2B2D34"/>
<path fill-rule="evenodd" clip-rule="evenodd" d="M2 5C2 4.44772 2.44772 4 3 4H21C21.5523 4 22 4.44772 22 5V19C22 19.5523 21.5523 20 21 20H3C2.44772 20 2 19.5523 2 19V5ZM4 6V18H6.5858L12.2929 12.2929C12.6834 11.9024 13.3166 11.9024 13.7071 12.2929L15 13.5858L20 8.5858V6H4ZM20 18H9.41423L13 14.4142L14.2929 15.7071C14.6834 16.0976 15.3166 16.0976 15.7071 15.7071L20 11.4142V18Z" fill="#2B2D34"/>
</svg>
