<svg width="24" height="24" viewBox="0 0 24 24" fill="none" xmlns="http://www.w3.org/2000/svg">
<path fill-rule="evenodd" clip-rule="evenodd" d="M14.6797 21.9473L9 20.0541L3.31623 21.9487C3.01128 22.0503 2.67606 21.9992 2.41529 21.8112C2.15452 21.6233 2 21.3214 2 21V13H4L4 19.6126L8 18.2792L8 15H10V18.2792L14 19.6126V7.78078L12.7575 7.47014L13.2425 5.52986L14.96 5.95923L20.6838 4.05132C20.9887 3.94967 21.3239 4.00081 21.5847 4.18876C21.8455 4.37671 22 4.67856 22 5L22 19C22 19.4304 21.7246 19.8126 21.3162 19.9487L15.3162 21.9487C15.1256 22.0122 14.9232 22.0161 14.7345 21.9641C14.7161 21.9591 14.6979 21.9535 14.6797 21.9473ZM16 7.72076V19.6126L20 18.2792L20 6.38743L16 7.72076Z" fill="#2B2D34"/>
<path d="M6.5 7C7.05228 7 7.5 6.55229 7.5 6C7.5 5.44771 7.05228 5 6.5 5C5.94772 5 5.5 5.44771 5.5 6C5.5 6.55229 5.94772 7 6.5 7Z" fill="#2B2D34"/>
<path fill-rule="evenodd" clip-rule="evenodd" d="M5.9 12.8C6.25556 13.0667 6.7449 13.0663 7.10045 12.7997L7.10236 12.7982L7.10619 12.7953L7.11812 12.7863L7.15852 12.7551C7.19255 12.7287 7.24049 12.6909 7.30037 12.6426C7.42004 12.5459 7.58789 12.4063 7.78791 12.2292C8.18656 11.8762 8.72004 11.368 9.25636 10.7479C10.2921 9.55034 11.5 7.75175 11.5 5.75C11.5 3.06683 9.19965 1 6.5 1C3.80035 1 1.5 3.06683 1.5 5.75C1.5 7.75175 2.70791 9.55034 3.74364 10.7479C4.27996 11.368 4.81344 11.8762 5.21209 12.2292C5.41211 12.4063 5.57996 12.5459 5.69963 12.6426C5.7595 12.6909 5.80745 12.7287 5.84148 12.7551L5.88188 12.7863L5.89381 12.7953L5.89764 12.7982L5.899 12.7993L5.9 12.8ZM6.5 3C8.21863 3 9.5 4.29103 9.5 5.75C9.5 6.99825 8.70791 8.32466 7.74364 9.4396C7.29644 9.95667 6.84661 10.3889 6.5 10.6981C6.15339 10.3889 5.70356 9.95667 5.25636 9.4396C4.29209 8.32466 3.5 6.99825 3.5 5.75C3.5 4.29103 4.78137 3 6.5 3Z" fill="#2B2D34"/>
<path fill-rule="evenodd" clip-rule="evenodd" d="M7.5 6C7.5 6.55229 7.05228 7 6.5 7C5.94772 7 5.5 6.55229 5.5 6C5.5 5.44771 5.94772 5 6.5 5C7.05228 5 7.5 5.44771 7.5 6Z" fill="#2B2D34"/>
</svg>
