<svg width="24" height="24" viewBox="0 0 24 24" fill="none" xmlns="http://www.w3.org/2000/svg">
<path d="M21 4L13 4C12.7374 4 12.4773 4.05173 12.2346 4.15224C11.992 4.25275 11.7715 4.40007 11.5858 4.58579C11.4001 4.7715 11.2528 4.99198 11.1522 5.23463C11.0517 5.47728 11 5.73736 11 6H9C9 5.47471 9.10346 4.95457 9.30448 4.46927C9.5055 3.98396 9.80014 3.54301 10.1716 3.17157C10.543 2.80014 10.984 2.5055 11.4693 2.30448C11.9546 2.10346 12.4747 2 13 2H21V4Z" fill="#2B2D34"/>
<path fill-rule="evenodd" clip-rule="evenodd" d="M6.15291 8H13.8472L14.1805 10H17.8198L19.8198 20H22V22H2V20H4.15291L6.15291 8ZM15.8472 20H17.7802L16.1802 12H14.5138L15.8472 20ZM12.1529 10L13.8196 20H6.1805L6.51383 18H11V16H6.84717L7.84717 10H12.1529Z" fill="#2B2D34"/>
<path d="M16 8L22 8V6L16 6V8Z" fill="#2B2D34"/>
</svg>
