<svg width="24" height="24" viewBox="0 0 24 24" fill="none" xmlns="http://www.w3.org/2000/svg">
<path fill-rule="evenodd" clip-rule="evenodd" d="M10 1C9.54117 1 9.14118 1.3123 9.02989 1.75746L8.21926 5H7.00003C6.02354 5 5.35251 5.62374 4.93774 6.23603C4.51971 6.85312 4.23454 7.6312 4.03527 8.36188C3.72092 9.5145 3.57022 10.7418 3.51999 11.4972C3.36875 11.6272 3.1886 11.7956 3.00674 11.9977C2.57099 12.4819 2.00003 13.2986 2.00003 14.3333V14.9768C1.99966 14.9924 1.99967 15.008 2.00003 15.0235V21C2.00003 21.5523 2.44775 22 3.00003 22H7.00003C7.55232 22 8.00003 21.5523 8.00003 21V20H16V21C16 21.5523 16.4477 22 17 22H21C21.5523 22 22 21.5523 22 21V15.0235C22.0004 15.008 22.0004 14.9924 22 14.9768V14.3333C22 13.2986 21.4291 12.4819 20.9933 11.9977C20.8115 11.7956 20.6313 11.6272 20.4801 11.4972C20.4298 10.7418 20.2791 9.5145 19.9648 8.36188C19.7655 7.6312 19.4804 6.85312 19.0623 6.23603C18.6475 5.62374 17.9765 5 17 5H15.7808L14.9702 1.75746C14.8589 1.3123 14.4589 1 14 1H10ZM13.7193 5L13.2193 3H10.7808L10.2808 5H13.7193ZM17.6838 15.0513L19.9982 14.2799C19.9784 13.9934 19.8024 13.6642 19.5067 13.3356C19.3856 13.201 19.2624 13.087 19.16 13H4.84002C4.73762 13.087 4.6145 13.201 4.49332 13.3356C4.19764 13.6642 4.02166 13.9934 4.0019 14.2799L6.31625 15.0513C6.8402 15.226 7.12336 15.7923 6.94871 16.3163C6.77406 16.8402 6.20774 17.1234 5.6838 16.9487L4.00003 16.3875V20H6.00003V18H18V20H20V16.3875L18.3163 16.9487C17.7923 17.1234 17.226 16.8402 17.0514 16.3163C16.8767 15.7923 17.1599 15.226 17.6838 15.0513ZM18.4269 11H5.5732C5.64218 10.3928 5.76532 9.61952 5.96479 8.88812C6.14052 8.2438 6.35535 7.70938 6.59357 7.35772C6.83505 7.00126 6.97652 7 7.00003 7H17C17.0235 7 17.165 7.00126 17.4065 7.35772C17.6447 7.70938 17.8595 8.2438 18.0353 8.88812C18.2347 9.61952 18.3579 10.3928 18.4269 11Z" fill="#2B2D34"/>
</svg>
