<svg width="24" height="24" viewBox="0 0 24 24" fill="none" xmlns="http://www.w3.org/2000/svg">
<path d="M7 13C7.55228 13 8 12.5523 8 12C8 11.4477 7.55228 11 7 11C6.44772 11 6 11.4477 6 12C6 12.5523 6.44772 13 7 13Z" fill="#2B2D34"/>
<path fill-rule="evenodd" clip-rule="evenodd" d="M18 4V7H20C21.1046 7 22 7.89543 22 9V20C22 20.5523 21.5523 21 21 21H3C2.44772 21 2 20.5523 2 20V9C2 7.89543 2.89543 7 4 7H6L6 4C6 3.73478 6.10536 3.48043 6.29289 3.29289C6.48043 3.10536 6.73478 3 7 3L17 3C17.5523 3 18 3.44772 18 4ZM16 5V7H8L8 5L16 5ZM20 9H4V19H7V16C7 15.4477 7.44772 15 8 15H16C16.5523 15 17 15.4477 17 16V19H20V9ZM15 19V17H9V19H15Z" fill="#2B2D34"/>
</svg>
