<svg width="24" height="24" viewBox="0 0 24 24" fill="none" xmlns="http://www.w3.org/2000/svg">
<path fill-rule="evenodd" clip-rule="evenodd" d="M12 1C11.4477 1 11 1.44772 11 2V8.07177C9.51321 8.28635 8.12499 8.97552 7.05025 10.0503C6.2208 10.8797 5.621 11.8959 5.29178 13H4V15L5 15V18.5312L2.78307 19.0238C2.32553 19.1255 2 19.5313 2 20V23H4V20.8022L12 19.0244L20 20.8022V23H22V20C22 19.5313 21.6745 19.1255 21.2169 19.0238L19 18.5312V15H20V13H18.7082C18.379 11.8959 17.7792 10.8797 16.9497 10.0503C15.875 8.97552 14.4868 8.28635 13 8.07177V7H17C17.5523 7 18 6.55228 18 6V2C18 1.44772 17.5523 1 17 1H12ZM17 18.0867V15H15V17.6423L17 18.0867ZM13 17.1978V15H11V17.1978L11.7831 17.0238C11.9259 16.9921 12.0741 16.9921 12.2169 17.0238L13 17.1978ZM9 17.6423L7 18.0867V15L9 15V17.6423ZM15.5355 11.4645C15.9818 11.9107 16.3349 12.4326 16.5826 13H7.41742C7.66505 12.4326 8.01823 11.9107 8.46447 11.4645C9.40215 10.5268 10.6739 10 12 10C13.3261 10 14.5979 10.5268 15.5355 11.4645ZM16 5H13V3H16V5Z" fill="#2B2D34"/>
</svg>
