<svg width="24" height="24" viewBox="0 0 24 24" fill="none" xmlns="http://www.w3.org/2000/svg">
<path fill-rule="evenodd" clip-rule="evenodd" d="M12.8123 3.45534C12.2951 3.2255 11.7049 3.2255 11.1877 3.45534L4.31995 6.50768C4.12539 6.59415 4 6.78709 4 7.00001H2C2 5.99672 2.59086 5.08753 3.50767 4.68006L10.3754 1.62771C11.4097 1.16804 12.5903 1.16804 13.6246 1.62771L19.6246 4.29438C21.0691 4.93638 22 6.36887 22 7.94963V16.0504C22 17.6311 21.0691 19.0636 19.6246 19.7056L13.6246 22.3723C12.5903 22.832 11.4097 22.832 10.3754 22.3723L3.50767 19.32C2.59085 18.9125 2 18.0033 2 17H4C4 17.2129 4.12539 17.4059 4.31995 17.4923L11.1877 20.5447C11.7049 20.7745 12.2951 20.7745 12.8123 20.5447L18.8123 17.878C19.5345 17.557 20 16.8408 20 16.0504V7.94963C20 7.15925 19.5345 6.44301 18.8123 6.122L12.8123 3.45534ZM10 11H2V9.00001H10V11ZM18 13V15H2V13H18Z" fill="#2B2D34"/>
</svg>
