<svg width="24" height="24" viewBox="0 0 24 24" fill="none" xmlns="http://www.w3.org/2000/svg">
<path d="M10 15C10 15.5523 9.55228 16 9 16C8.44772 16 8 15.5523 8 15C8 14.4477 8.44772 14 9 14C9.55228 14 10 14.4477 10 15Z" fill="#2B2D34"/>
<path d="M15 16C15.5523 16 16 15.5523 16 15C16 14.4477 15.5523 14 15 14C14.4477 14 14 14.4477 14 15C14 15.5523 14.4477 16 15 16Z" fill="#2B2D34"/>
<path fill-rule="evenodd" clip-rule="evenodd" d="M10 1C9.44772 1 9 1.44772 9 2H6C4.89543 2 4 2.89543 4 4V17C4 18.5362 5.15461 19.8027 6.64336 19.979L4 23H6.5L9.125 20H15.625L17.5 23H20L18.015 19.824C19.1723 19.4079 20 18.3006 20 17V4C20 2.89543 19.1046 2 18 2H15C15 1.44772 14.5523 1 14 1H10ZM10 4C10.5523 4 11 3.55228 11 3H13C13 3.55228 13.4477 4 14 4H18V9.24619C17.6917 9.32626 17.2876 9.42268 16.8039 9.51942C15.6018 9.75984 13.9191 10 12 10C10.0809 10 8.39818 9.75984 7.19609 9.51942C6.7124 9.42269 6.30831 9.32627 6 9.24621V4H10ZM6 11.3061V17C6 17.5523 6.44772 18 7 18H17C17.5523 18 18 17.5523 18 17V11.3061C17.7603 11.3624 17.4914 11.4215 17.1961 11.4806C15.8982 11.7402 14.0809 12 12 12C9.91907 12 8.10177 11.7402 6.80386 11.4806C6.50861 11.4215 6.23967 11.3624 6 11.3061Z" fill="#2B2D34"/>
</svg>
