<svg width="24" height="24" viewBox="0 0 24 24" fill="none" xmlns="http://www.w3.org/2000/svg">
<path fill-rule="evenodd" clip-rule="evenodd" d="M9.7039 1.45672C10.4319 1.15519 11.2121 1 12 1C12.7879 1 13.5681 1.15519 14.2961 1.45672C15.0241 1.75825 15.6855 2.20021 16.2426 2.75736C16.7998 3.31451 17.2418 3.97595 17.5433 4.7039C17.8448 5.43185 18 6.21207 18 7C18.6566 7 19.3068 7.12933 19.9134 7.3806C20.52 7.63188 21.0712 8.00017 21.5355 8.46447C21.9998 8.92876 22.3681 9.47996 22.6194 10.0866C22.8707 10.6932 23 11.3434 23 12C23 12.6566 22.8707 13.3068 22.6194 13.9134C22.3681 14.52 21.9998 15.0712 21.5355 15.5355C21.0712 15.9998 20.52 16.3681 19.9134 16.6194C19.3068 16.8707 18.6566 17 18 17H6.5C5.77773 17 5.06253 16.8577 4.39524 16.5813C3.72795 16.3049 3.12163 15.8998 2.61091 15.3891C2.10019 14.8784 1.69506 14.272 1.41866 13.6048C1.14226 12.9375 1 12.2223 1 11.5C1 10.7777 1.14226 10.0625 1.41866 9.39524C1.69506 8.72795 2.10019 8.12163 2.61091 7.61091C3.12164 7.10019 3.72795 6.69506 4.39524 6.41866C4.93324 6.19582 5.50237 6.06017 6.08124 6.01597C6.15592 5.56681 6.28166 5.12654 6.45672 4.7039C6.75825 3.97594 7.20021 3.31451 7.75736 2.75736C8.31451 2.20021 8.97595 1.75825 9.7039 1.45672ZM12 3C11.4747 3 10.9546 3.10346 10.4693 3.30448C9.98396 3.5055 9.54301 3.80014 9.17157 4.17157C8.80014 4.54301 8.5055 4.98396 8.30448 5.46927C8.10346 5.95457 8 6.47471 8 7C8 7.55228 7.55229 8 7 8L6.5 8C6.04037 8 5.58525 8.09053 5.16061 8.26642C4.73597 8.44231 4.35013 8.70012 4.02513 9.02513C3.70012 9.35013 3.44231 9.73597 3.26642 10.1606C3.09053 10.5852 3 11.0404 3 11.5C3 11.9596 3.09053 12.4148 3.26642 12.8394C3.44231 13.264 3.70012 13.6499 4.02513 13.9749C4.35013 14.2999 4.73597 14.5577 5.16061 14.7336C5.58525 14.9095 6.04037 15 6.5 15H18C18.394 15 18.7841 14.9224 19.1481 14.7716C19.512 14.6209 19.8427 14.3999 20.1213 14.1213C20.3999 13.8427 20.6209 13.512 20.7716 13.1481C20.9224 12.7841 21 12.394 21 12C21 11.606 20.9224 11.2159 20.7716 10.8519C20.6209 10.488 20.3999 10.1573 20.1213 9.87868C19.8427 9.6001 19.512 9.37913 19.1481 9.22836C18.7841 9.0776 18.394 9 18 9C17.7106 9 17.4232 9.04188 17.1468 9.1239C16.8042 9.22551 16.4335 9.13667 16.1743 8.89086C15.915 8.64504 15.8066 8.27959 15.8899 7.93216C15.9629 7.62754 16 7.31469 16 7C16 6.47471 15.8965 5.95457 15.6955 5.46927C15.4945 4.98396 15.1999 4.54301 14.8284 4.17157C14.457 3.80014 14.016 3.5055 13.5307 3.30448C13.0454 3.10346 12.5253 3 12 3Z" fill="#2B2D34"/>
<path d="M21.1056 23.4472L19.1056 19.4472L20.8944 18.5528L22.8944 22.5528L21.1056 23.4472Z" fill="#2B2D34"/>
<path d="M9.10556 19.4472L11.1056 23.4472L12.8944 22.5528L10.8944 18.5528L9.10556 19.4472Z" fill="#2B2D34"/>
<path d="M16.1056 23.4472L14.1056 19.4472L15.8944 18.5528L17.8944 22.5528L16.1056 23.4472Z" fill="#2B2D34"/>
<path d="M4.10556 19.4472L6.10556 23.4472L7.89441 22.5528L5.89441 18.5528L4.10556 19.4472Z" fill="#2B2D34"/>
</svg>
