<svg width="24" height="24" viewBox="0 0 24 24" fill="none" xmlns="http://www.w3.org/2000/svg">
<path fill-rule="evenodd" clip-rule="evenodd" d="M5.29289 2.29289C5.48043 2.10536 5.73478 2 6 2L18 2C18.5523 2 19 2.44772 19 3C19 3.33439 18.9943 3.66794 18.9828 4L22 4C22.2652 4 22.5196 4.10536 22.7071 4.2929C22.8946 4.48043 23 4.73479 23 5C23 7.46814 21.7729 9.77598 19.6958 11.4377C19.2918 11.7609 18.7509 12.0501 18.2722 12.284C17.9404 12.446 17.5865 12.6057 17.2862 12.7412C17.1973 12.7813 17.113 12.8193 17.0355 12.8546C16.4793 14 15.7948 14.9944 15 15.722V20H17V22H7V20H9V15.722C8.20522 14.9944 7.52073 14 6.96453 12.8546C6.8871 12.8194 6.80301 12.7814 6.71422 12.7414C6.414 12.6059 6.0595 12.446 5.72784 12.284C5.24911 12.0501 4.70821 11.7609 4.30424 11.4377C2.22706 9.77598 1 7.46813 1 5C1 4.73478 1.10536 4.48043 1.29289 4.29289C1.48043 4.10536 1.73478 4 2 4L5.01716 4C5.00575 3.66794 5 3.33439 5 3C5 2.73478 5.10536 2.48043 5.29289 2.29289ZM11 20H13V16.8688C12.6775 16.9548 12.3439 17 12 17C11.6561 17 11.3225 16.9548 11 16.8688V20ZM18.0579 10.1355C18.4261 8.85132 18.6905 7.45363 18.8438 6L20.9067 6C20.6399 7.42466 19.8044 8.78958 18.4464 9.87599C18.3463 9.95603 18.2151 10.0431 18.0579 10.1355ZM5.1562 6C5.30947 7.45362 5.57388 8.85132 5.94206 10.1355C5.78493 10.0431 5.65368 9.95603 5.55363 9.87599C4.19561 8.78957 3.36007 7.42465 3.09328 6L5.1562 6ZM7.01841 4C7.12789 6.96721 7.72075 9.72676 8.66532 11.7733C9.74782 14.1188 11.0219 15 12 15C12.9781 15 14.2522 14.1188 15.3347 11.7733C16.2792 9.72677 16.8721 6.96722 16.9816 4L7.01841 4Z" fill="#2B2D34"/>
</svg>
