<svg width="24" height="24" viewBox="0 0 24 24" fill="none" xmlns="http://www.w3.org/2000/svg">
<path d="M21.0429 2.89645H19.0429V6.39446C17.3699 4.29366 14.8033 3.00001 12 3.00001C7.02944 3.00001 3 7.02944 3 12C3 16.9706 7.02944 21 12 21C16.9706 21 21 16.9706 21 12H19C19 15.866 15.866 19 12 19C8.13401 19 5 15.866 5 12C5 8.13401 8.13401 5.00001 12 5.00001C14.2924 5.00001 16.3811 6.11188 17.6728 7.89645L14.0429 7.89645V9.89645L20.0429 9.89645C20.5952 9.89645 21.0429 9.44874 21.0429 8.89645V2.89645Z" fill="#2B2D34"/>
</svg>
