<svg width="24" height="24" viewBox="0 0 24 24" fill="none" xmlns="http://www.w3.org/2000/svg">
<path fill-rule="evenodd" clip-rule="evenodd" d="M3 2C2.44772 2 2 2.44772 2 3V9C2 9.55228 2.44772 10 3 10V16C2.44772 16 2 16.4477 2 17V21C2 21.5523 2.44772 22 3 22H12C12.5523 22 13 21.5523 13 21V17C13 16.4477 12.5523 16 12 16H10.618L9.78885 14.3416C9.7331 14.2301 9.68471 14.116 9.64368 14H11C13.2091 14 15 12.2091 15 10H17C18.8638 10 20.4299 8.72523 20.874 7L24 7V5L20.874 5C20.4299 3.27477 18.8638 2 17 2H3ZM13 4V8H4V4H13ZM17 8H15V4H17C18.1046 4 19 4.89543 19 6C19 7.10457 18.1046 8 17 8ZM13 10H10.618L9.78885 11.6584C9.7331 11.7699 9.68471 11.884 9.64368 12H11C12.1046 12 13 11.1046 13 10ZM8.38197 10H5V16H8.38197L8 15.2361C7.29618 13.8284 7.29618 12.1716 8 10.7639L8.38197 10ZM4 20V18H11V20H4Z" fill="#2B2D34"/>
</svg>
