<svg width="24" height="24" viewBox="0 0 24 24" fill="none" xmlns="http://www.w3.org/2000/svg">
<path fill-rule="evenodd" clip-rule="evenodd" d="M3.2925 8.00558L8.2925 3L9.7075 4.41342L5.41421 8.7115L9.70671 12.9992L8.29329 14.4142L3.29329 9.41979C3.10565 9.23236 3.00015 8.97807 3 8.71285C2.99985 8.44763 3.10507 8.19322 3.2925 8.00558Z" fill="#2B2D34"/>
<path fill-rule="evenodd" clip-rule="evenodd" d="M14 9.70671H5V7.70671H14C17.866 7.70671 21 10.8407 21 14.7067C21 18.5727 17.866 21.7067 14 21.7067H10V19.7067H14C16.7614 19.7067 19 17.4681 19 14.7067C19 11.9453 16.7614 9.70671 14 9.70671Z" fill="#2B2D34"/>
</svg>
