<svg width="24" height="24" viewBox="0 0 24 24" fill="none" xmlns="http://www.w3.org/2000/svg">
<path d="M5.00097 11.9063L7.07884 9.82838L8.49307 11.2426L4.95755 14.7782C4.77002 14.9657 4.51566 15.0711 4.25044 15.0711C3.98523 15.0711 3.73087 14.9657 3.54333 14.7782L0.0078125 11.2426L1.42203 9.82841L3.01679 11.4232C3.31562 6.16875 7.67119 2 13.0004 2C18.5233 2 23.0004 6.47715 23.0004 12C23.0004 17.5228 18.5233 22 13.0004 22C9.85861 22 7.05472 20.5499 5.22306 18.2864L6.7778 17.0283C8.24605 18.8427 10.4877 20 13.0004 20C17.4187 20 21.0004 16.4183 21.0004 12C21.0004 7.58172 17.4187 4 13.0004 4C8.61343 4 5.05119 7.53119 5.00097 11.9063Z" fill="#2B2D34"/>
<path d="M12.2933 12.7071C12.1058 12.5196 12.0004 12.2652 12.0004 12V7H14.0004V11.5858L17.2075 14.7929L15.7933 16.2071L12.2933 12.7071Z" fill="#2B2D34"/>
</svg>
