<svg width="26" height="24" viewBox="0 0 26 24" fill="none" xmlns="http://www.w3.org/2000/svg">
<path d="M13.0007 4.5C8.85855 4.5 5.50068 7.85786 5.50068 12C5.50068 12.2047 5.50886 12.4073 5.52488 12.6075L6.75752 11.0298L8.33354 12.2612L5.72157 15.6043C5.38156 16.0395 4.75312 16.1167 4.31792 15.7767L0.974609 13.1647L2.2059 11.5887L3.52034 12.6156C3.5073 12.412 3.50068 12.2067 3.50068 12C3.50068 6.75329 7.75398 2.5 13.0007 2.5C15.9034 2.5 18.5028 3.80306 20.2438 5.85258L18.7195 7.14742C17.3423 5.52612 15.2918 4.5 13.0007 4.5Z" fill="#2B2D34"/>
<path d="M22.481 11.3843L23.7955 12.4112L25.0267 10.8351L21.6835 8.2232C21.2483 7.8832 20.6198 7.96036 20.2798 8.39556L17.6678 11.7387L19.2438 12.9701L20.4765 11.3924C20.4925 11.5927 20.5007 11.7953 20.5007 12C20.5007 16.1421 17.1428 19.5 13.0007 19.5C10.7096 19.5 8.65911 18.4739 7.28185 16.8526L5.75758 18.1474C7.4986 20.1969 10.098 21.5 13.0007 21.5C18.2474 21.5 22.5007 17.2467 22.5007 12C22.5007 11.7932 22.4941 11.5879 22.481 11.3843Z" fill="#2B2D34"/>
</svg>
