<svg width="26" height="24" viewBox="0 0 26 24" fill="none" xmlns="http://www.w3.org/2000/svg">
<path d="M5.50069 12C5.50069 7.85786 8.85855 4.5 13.0007 4.5C15.2918 4.5 17.3423 5.52612 18.7195 7.14742L20.2438 5.85258C18.5028 3.80306 15.9034 2.5 13.0007 2.5C7.75398 2.5 3.50069 6.75329 3.50069 12C3.50069 12.2067 3.50731 12.412 3.52035 12.6157L2.2059 11.5887L0.974609 13.1648L4.31792 15.7767C4.75312 16.1167 5.38156 16.0396 5.72157 15.6044L8.33354 12.2612L6.75752 11.0299L5.52489 12.6076C5.50886 12.4073 5.50069 12.2047 5.50069 12Z" fill="#2B2D34"/>
<path d="M23.7954 12.4112L22.481 11.3843C22.4941 11.5879 22.5007 11.7932 22.5007 12C22.5007 17.2467 18.2474 21.5 13.0007 21.5C10.098 21.5 7.4986 20.1969 5.75758 18.1474L7.28186 16.8526C8.65911 18.4739 10.7096 19.5 13.0007 19.5C17.1428 19.5 20.5007 16.1421 20.5007 12C20.5007 11.7953 20.4925 11.5926 20.4765 11.3923L19.2438 12.97L17.6678 11.7387L20.2798 8.39553C20.6198 7.96033 21.2483 7.88317 21.6835 8.22317L25.0267 10.8351L23.7954 12.4112Z" fill="#2B2D34"/>
<path d="M9.2936 9.70711L11.5865 12L9.29357 14.2929L10.7078 15.7071L13.0007 13.4142L15.2936 15.7071L16.7078 14.2929L14.4149 12L16.7078 9.70711L15.2936 8.29289L13.0007 10.5858L10.7078 8.29289L9.2936 9.70711Z" fill="#2B2D34"/>
</svg>
