<svg width="24" height="24" viewBox="0 0 24 24" fill="none" xmlns="http://www.w3.org/2000/svg">
<path fill-rule="evenodd" clip-rule="evenodd" d="M6 10V9H9C9.39397 9 9.78407 8.9224 10.1481 8.77164C10.512 8.62087 10.8427 8.3999 11.1213 8.12132C11.3999 7.84274 11.6209 7.51203 11.7716 7.14805C11.9224 6.78407 12 6.39397 12 6C12 5.60603 11.9224 5.21593 11.7716 4.85195C11.6209 4.48797 11.3999 4.15726 11.1213 3.87868C10.8427 3.6001 10.512 3.37913 10.1481 3.22836C9.78407 3.0776 9.39397 3 9 3L4 3V7H2V9H4V10H2V12H4V15H6V12H10V10H6ZM9.38268 6.92388C9.26136 6.97413 9.13132 7 9 7H6V5L9 5C9.13132 5 9.26136 5.02587 9.38268 5.07612C9.50401 5.12638 9.61425 5.20003 9.70711 5.29289C9.79996 5.38575 9.87362 5.49599 9.92388 5.61732C9.97413 5.73864 10 5.86868 10 6C10 6.13132 9.97413 6.26136 9.92388 6.38268C9.87362 6.50401 9.79996 6.61425 9.70711 6.70711C9.61425 6.79997 9.50401 6.87362 9.38268 6.92388Z" fill="#2B2D34"/>
<path d="M14.5916 4.7883V9.28833H16.5916V6.71627C17.4055 7.42364 18.0498 8.31374 18.4672 9.32121C19.0568 10.7449 19.1603 12.3233 18.7615 13.8117C18.3627 15.3002 17.4838 16.6154 16.2613 17.5535C15.0388 18.4915 13.5409 19 12 19C10.1435 19 8.36301 18.2625 7.05025 16.9497L5.63604 18.364C7.32387 20.0518 9.61305 21 12 21C13.9812 21 15.9071 20.3463 17.4789 19.1402C19.0507 17.9341 20.1806 16.2431 20.6933 14.3294C21.2061 12.4157 21.0731 10.3862 20.3149 8.55585C19.8872 7.52325 19.274 6.58655 18.5127 5.78832L20.0915 5.78833L20.0916 3.78833L15.5916 3.7883C15.3263 3.7883 15.072 3.89365 14.8844 4.08119C14.6969 4.26873 14.5916 4.52308 14.5916 4.7883Z" fill="#2B2D34"/>
</svg>
