<svg width="24" height="24" viewBox="0 0 24 24" fill="none" xmlns="http://www.w3.org/2000/svg">
<path fill-rule="evenodd" clip-rule="evenodd" d="M8 17H5V15H8V13H5V11H8V3H15C16.3261 3 17.5979 3.52678 18.5355 4.46447C19.4732 5.40215 20 6.67392 20 8C20 9.32608 19.4732 10.5979 18.5355 11.5355C17.5979 12.4732 16.3261 13 15 13H10V15H17V17H10V21H8V17ZM15 11C15.7956 11 16.5587 10.6839 17.1213 10.1213C17.6839 9.55871 18 8.79565 18 8C18 7.20435 17.6839 6.44129 17.1213 5.87868C16.5587 5.31607 15.7956 5 15 5L10 5V11H15Z" fill="#2B2D34"/>
</svg>
