<svg width="24" height="24" viewBox="0 0 24 24" fill="none" xmlns="http://www.w3.org/2000/svg">
<path d="M14.0706 4.27261C15.427 4.63607 16.6639 5.35018 17.6569 6.34316C18.6498 7.33615 19.3639 8.57302 19.7274 9.92947L21.6593 9.41183C21.2049 7.71627 20.3123 6.17018 19.0711 4.92895C17.8298 3.68772 16.2837 2.79508 14.5882 2.34076L14.0706 4.27261Z" fill="#2B2D34"/>
<path fill-rule="evenodd" clip-rule="evenodd" d="M6 10V9.00002H9C9.39397 9.00002 9.78407 8.92242 10.1481 8.77166C10.512 8.62089 10.8427 8.39991 11.1213 8.12134C11.3999 7.84276 11.6209 7.51204 11.7716 7.14807C11.9224 6.78409 12 6.39398 12 6.00002C12 5.60605 11.9224 5.21594 11.7716 4.85197C11.6209 4.48799 11.3999 4.15727 11.1213 3.8787C10.8427 3.60012 10.512 3.37914 10.1481 3.22838C9.78407 3.07761 9.39397 3.00002 9 3.00002L4 3.00002V7.00002H2V9.00002H4V10H2V12H4V15H6V12H10V10H6ZM9.38268 6.9239C9.26136 6.97415 9.13132 7.00002 9 7.00002H6V5.00002L9 5.00002C9.13132 5.00002 9.26136 5.02588 9.38268 5.07614C9.50401 5.12639 9.61425 5.20005 9.70711 5.29291C9.79996 5.38577 9.87362 5.49601 9.92388 5.61733C9.97413 5.73866 10 5.8687 10 6.00002C10 6.13134 9.97413 6.26138 9.92388 6.3827C9.87362 6.50403 9.79996 6.61427 9.70711 6.70712C9.61425 6.79998 9.50401 6.87364 9.38268 6.9239Z" fill="#2B2D34"/>
<path d="M6.34315 17.6569C7.33613 18.6499 8.573 19.364 9.92945 19.7274C11.2859 20.0909 12.7141 20.0909 14.0706 19.7274L14.5882 21.6593C12.8926 22.1136 11.1074 22.1136 9.41181 21.6593C7.71626 21.205 6.17016 20.3123 4.92893 19.0711L6.34315 17.6569Z" fill="#2B2D34"/>
<path d="M21.7071 14.7929L18.2071 11.2929L16.7929 12.7071L18.5858 14.5H13V16.5H18.5858L16.7929 18.2929L18.2071 19.7071L21.7071 16.2071C21.8946 16.0196 22 15.7652 22 15.5C22 15.2348 21.8946 14.9804 21.7071 14.7929Z" fill="#2B2D34"/>
</svg>
