<svg width="24" height="24" viewBox="0 0 24 24" fill="none" xmlns="http://www.w3.org/2000/svg">
<path d="M12 4C7.58172 4 4 7.58172 4 12V17H2V12C2 6.47715 6.47715 2 12 2C17.5228 2 22 6.47715 22 12V17H20V12C20 7.58172 16.4183 4 12 4Z" fill="#2B2D34"/>
<path fill-rule="evenodd" clip-rule="evenodd" d="M11 14V15H14V17H11V19H22V21H2V19H9V17H8V15H9V14H8V12H9V8L13 8C13.394 8 13.7841 8.0776 14.1481 8.22836C14.512 8.37913 14.8427 8.6001 15.1213 8.87868C15.3999 9.15726 15.6209 9.48797 15.7716 9.85195C15.9224 10.2159 16 10.606 16 11C16 11.394 15.9224 11.7841 15.7716 12.1481C15.6209 12.512 15.3999 12.8427 15.1213 13.1213C14.8427 13.3999 14.512 13.6209 14.1481 13.7716C13.7841 13.9224 13.394 14 13 14H11ZM13 12C13.1313 12 13.2614 11.9741 13.3827 11.9239C13.504 11.8736 13.6142 11.8 13.7071 11.7071C13.8 11.6142 13.8736 11.504 13.9239 11.3827C13.9741 11.2614 14 11.1313 14 11C14 10.8687 13.9741 10.7386 13.9239 10.6173C13.8736 10.496 13.8 10.3858 13.7071 10.2929C13.6142 10.2 13.504 10.1264 13.3827 10.0761C13.2614 10.0259 13.1313 10 13 10H11V12H13Z" fill="#2B2D34"/>
</svg>
