<svg width="24" height="24" viewBox="0 0 24 24" fill="none" xmlns="http://www.w3.org/2000/svg">
<path fill-rule="evenodd" clip-rule="evenodd" d="M12 6C12 5.60603 11.9224 5.21593 11.7716 4.85195C11.6209 4.48797 11.3999 4.15726 11.1213 3.87868C10.8427 3.6001 10.512 3.37913 10.1481 3.22836C9.78407 3.0776 9.39397 3 9 3L4 3V7H2V9H4V10H2V12H4V15H6V12H10V10H6V9H9C9.39397 9 9.78407 8.9224 10.1481 8.77164C10.512 8.62087 10.8427 8.3999 11.1213 8.12132C11.3999 7.84274 11.6209 7.51203 11.7716 7.14805C11.9224 6.78407 12 6.39397 12 6ZM9 7H6V5H9C9.13132 5 9.26136 5.02587 9.38268 5.07612C9.50401 5.12637 9.61425 5.20003 9.70711 5.29289C9.79996 5.38575 9.87362 5.49599 9.92388 5.61732C9.97413 5.73864 10 5.86868 10 6C10 6.13132 9.97413 6.26136 9.92388 6.38268C9.87362 6.50401 9.79996 6.61425 9.70711 6.70711C9.61425 6.79997 9.50401 6.87363 9.38268 6.92388C9.26136 6.97413 9.13132 7 9 7Z" fill="#2B2D34"/>
<path d="M14.779 8.74365L14.1488 7.43342L15.9512 6.56653L16.5813 7.87676L17.8885 7.44832C18.2469 7.33085 18.6409 7.42501 18.9074 7.69182L20.3074 9.09322C20.575 9.36106 20.6684 9.75704 20.5487 10.1162L20.1229 11.3934L21.4472 12.0555C21.786 12.2249 22 12.5712 22 12.95V15.05C22 15.4343 21.7797 15.7846 21.4334 15.9512L20.1227 16.5816L20.5504 17.8891C20.6676 18.2472 20.5735 18.6407 20.3071 18.9071L18.9071 20.3071C18.6407 20.5735 18.2472 20.6675 17.8891 20.5504L16.5816 20.1227L15.9512 21.4334C15.7846 21.7797 15.4343 22 15.05 22H12.95C12.5657 22 12.2154 21.7797 12.0488 21.4334L11.4184 20.1227L10.1109 20.5504C9.75297 20.6675 9.35963 20.5736 9.09323 20.3074L7.69183 18.9074C7.42502 18.6409 7.33086 18.2469 7.44833 17.8885L8.14972 15.7486L10.0502 16.3715L9.54037 17.9271L10.0725 18.4587L10.7966 18.2218C11.7496 17.9101 12.7861 18.3522 13.2207 19.2558L13.5787 20H14.4213L14.7792 19.2558C15.2138 18.3522 16.2504 17.9101 17.2034 18.2218L17.9272 18.4586L18.4586 17.9271L18.2218 17.2034C17.9101 16.2504 18.3522 15.2138 19.2558 14.7792L20 14.4213V13.568L19.2285 13.1823C18.3383 12.7372 17.9108 11.7052 18.2256 10.761L18.456 10.0697L17.9271 9.54036L17.2043 9.77728C16.251 10.0897 15.2138 9.64766 14.779 8.74365Z" fill="#2B2D34"/>
<path d="M14 15.5C14.8284 15.5 15.5 14.8284 15.5 14C15.5 13.1716 14.8284 12.5 14 12.5C13.1716 12.5 12.5 13.1716 12.5 14C12.5 14.8284 13.1716 15.5 14 15.5Z" fill="#2B2D34"/>
</svg>
