<svg width="24" height="24" viewBox="0 0 24 24" fill="none" xmlns="http://www.w3.org/2000/svg">
<path d="M18 12H15.2361C14.0998 12 13.061 12.642 12.5528 13.6584C11.5554 15.6531 13.0059 18 15.2361 18H17.1716C18.0625 18 18.5086 19.0771 17.8787 19.7071C17.6911 19.8946 17.4368 20 17.1716 20H5V22H17.1716C17.9672 22 18.7303 21.6839 19.2929 21.1213C21.1828 19.2314 19.8443 16 17.1716 16H15.2361C14.4927 16 14.0092 15.2177 14.3416 14.5528C14.511 14.214 14.8573 14 15.2361 14H18V12Z" fill="#2B2D34"/>
<path d="M6 14C6.55228 14 7 13.5523 7 13C7 12.4477 6.55228 12 6 12C5.44772 12 5 12.4477 5 13C5 13.5523 5.44772 14 6 14Z" fill="#2B2D34"/>
<path fill-rule="evenodd" clip-rule="evenodd" d="M5.4 19.8C5.75556 20.0667 6.2449 20.0663 6.60045 19.7997L6.60236 19.7982L6.60619 19.7953L6.61812 19.7863L6.65852 19.7551C6.69255 19.7287 6.74049 19.6909 6.80037 19.6426C6.92004 19.5459 7.08789 19.4063 7.28791 19.2292C7.68656 18.8762 8.22004 18.368 8.75636 17.7479C9.79209 16.5503 11 14.7517 11 12.75C11 10.0668 8.69965 8 6 8C3.30035 8 1 10.0668 1 12.75C1 14.7517 2.20791 16.5503 3.24364 17.7479C3.77996 18.368 4.31344 18.8762 4.71209 19.2292C4.91211 19.4063 5.07996 19.5459 5.19963 19.6426C5.2595 19.6909 5.30745 19.7287 5.34148 19.7551L5.38188 19.7863L5.39381 19.7953L5.39764 19.7982L5.399 19.7993L5.4 19.8ZM6 10C7.71863 10 9 11.291 9 12.75C9 13.9983 8.20791 15.3247 7.24364 16.4396C6.79644 16.9567 6.34661 17.3889 6 17.6981C5.65339 17.3889 5.20356 16.9567 4.75636 16.4396C3.79209 15.3247 3 13.9983 3 12.75C3 11.291 4.28137 10 6 10Z" fill="#2B2D34"/>
<path fill-rule="evenodd" clip-rule="evenodd" d="M17.3731 11.7791L17.3749 11.7805C17.5575 11.9266 17.779 12 18 12C18.221 12 18.4425 11.9266 18.6251 11.7805L18.6269 11.7791L18.6301 11.7765L18.6399 11.7686L18.6719 11.7423C18.6985 11.7202 18.7356 11.689 18.7818 11.6493C18.874 11.5698 19.0025 11.4558 19.1554 11.3114C19.4598 11.0238 19.8671 10.6101 20.2768 10.1048C21.0654 9.13217 22 7.65439 22 6C22 3.79086 20.2091 2 18 2C15.7909 2 14 3.79086 14 6C14 7.65439 14.9346 9.13217 15.7232 10.1048C16.1329 10.6101 16.5402 11.0238 16.8446 11.3114C16.9975 11.4558 17.126 11.5698 17.2182 11.6493C17.2644 11.689 17.3015 11.7202 17.3281 11.7423L17.3601 11.7686L17.3699 11.7765L17.3731 11.7791ZM18 4C19.1046 4 20 4.89543 20 6C20 6.94561 19.4346 7.96783 18.7232 8.8452C18.4718 9.15536 18.219 9.42673 18 9.64562C17.781 9.42673 17.5282 9.15536 17.2768 8.8452C16.5654 7.96783 16 6.94561 16 6C16 4.89543 16.8954 4 18 4Z" fill="#2B2D34"/>
<path fill-rule="evenodd" clip-rule="evenodd" d="M7 13C7 13.5523 6.55228 14 6 14C5.44772 14 5 13.5523 5 13C5 12.4477 5.44772 12 6 12C6.55228 12 7 12.4477 7 13Z" fill="#2B2D34"/>
</svg>
