<svg width="24" height="24" viewBox="0 0 24 24" fill="none" xmlns="http://www.w3.org/2000/svg">
<path fill-rule="evenodd" clip-rule="evenodd" d="M17.6569 6.34315C14.5327 3.21895 9.46734 3.21895 6.34315 6.34315C3.21895 9.46734 3.21895 14.5327 6.34315 17.6569C9.46734 20.781 14.5327 20.781 17.6569 17.6569C20.781 14.5327 20.781 9.46734 17.6569 6.34315ZM4.92893 4.92893C8.83418 1.02369 15.1658 1.02369 19.0711 4.92893C22.9763 8.83418 22.9763 15.1658 19.0711 19.0711C15.1658 22.9763 8.83418 22.9763 4.92893 19.0711C1.02369 15.1658 1.02369 8.83418 4.92893 4.92893ZM16.9497 7.05026C17.2541 7.35462 17.3296 7.81959 17.1371 8.20458L14.3086 13.8614C14.2119 14.055 14.055 14.2119 13.8614 14.3086L8.20458 17.1371C7.81959 17.3296 7.35462 17.2541 7.05026 16.9498C6.7459 16.6454 6.67044 16.1804 6.86294 15.7954L9.69136 10.1386C9.78813 9.94505 9.94505 9.78813 10.1386 9.69137L15.7954 6.86294C16.1804 6.67045 16.6454 6.7459 16.9497 7.05026ZM11.3311 11.3312L9.99343 14.0066L12.6689 12.6689L14.0066 9.99343L11.3311 11.3312Z" fill="#2B2D34"/>
</svg>
