<svg width="24" height="24" viewBox="0 0 24 24" fill="none" xmlns="http://www.w3.org/2000/svg">
<path fill-rule="evenodd" clip-rule="evenodd" d="M3 5C3 4.44772 3.44772 4 4 4H9V6H5V19H19V6H15V4H20C20.5523 4 21 4.44772 21 5V20C21 20.5523 20.5523 21 20 21H4C3.44772 21 3 20.5523 3 20V5Z" fill="#2B2D34"/>
<path fill-rule="evenodd" clip-rule="evenodd" d="M11 14V2H13V14H11Z" fill="#2B2D34"/>
<path fill-rule="evenodd" clip-rule="evenodd" d="M11.2929 15.7071L7.29289 11.7071L8.70711 10.2929L12 13.5858L15.2929 10.2929L16.7071 11.7071L12.7071 15.7071C12.3166 16.0976 11.6834 16.0976 11.2929 15.7071Z" fill="#2B2D34"/>
</svg>
