<svg width="24" height="24" viewBox="0 0 24 24" fill="none" xmlns="http://www.w3.org/2000/svg">
<path d="M21.6287 12.7776C21.8492 12.5994 21.9836 12.3359 21.9986 12.0527C22.0136 11.7695 21.9076 11.4933 21.7071 11.2928L19.7071 9.29288L18.2929 10.7071L19.5069 11.9211L17.285 13.7171L17.9942 16.355L15.2663 16.4956L14.2896 19.0466L12 17.5569L9.7104 19.0466L8.7337 16.4956L6.00576 16.355L6.71501 13.7171L4.59071 11.9999L6.71501 10.2827L6.00576 7.64487L8.7337 7.50426L9.7104 4.95328L12 6.44297L14.5579 4.77872L15.2121 5.61578L16.7879 4.38422L15.5691 2.82465C15.2496 2.4159 14.6706 2.31931 14.2358 2.60223L12 4.05691L9.76421 2.60223C9.51107 2.43753 9.19705 2.39605 8.90983 2.48937C8.62261 2.5827 8.39294 2.80083 8.28496 3.08287L7.3312 5.57389L4.66737 5.7112C4.36577 5.72674 4.08734 5.87776 3.90983 6.12209C3.73232 6.36641 3.67473 6.67787 3.75314 6.96952L4.44573 9.54541L2.37135 11.2222C2.13648 11.4121 2 11.6979 2 11.9999C2 12.3019 2.13648 12.5878 2.37135 12.7776L4.44573 14.4545L3.75314 17.0304C3.67473 17.322 3.73232 17.6335 3.90983 17.8778C4.08734 18.1221 4.36577 18.2731 4.66737 18.2887L7.3312 18.426L8.28496 20.917C8.39294 21.1991 8.62261 21.4172 8.90983 21.5105C9.19705 21.6038 9.51107 21.5624 9.76421 21.3976L12 19.943L14.2358 21.3976C14.4889 21.5624 14.8029 21.6038 15.0902 21.5105C15.3774 21.4172 15.6071 21.1991 15.715 20.917L16.6688 18.426L19.3326 18.2887C19.6342 18.2731 19.9127 18.1221 20.0902 17.8778C20.2677 17.6335 20.3253 17.322 20.2469 17.0304L19.5543 14.4545L21.6287 12.7776Z" fill="#2B2D34"/>
<path d="M11.7072 14.7071L20.2072 6.20712L18.793 4.79291L11.0001 12.5858L8.70718 10.2929L7.29297 11.7071L10.293 14.7071C10.6835 15.0976 11.3167 15.0976 11.7072 14.7071Z" fill="#2B2D34"/>
</svg>
