<svg width="24" height="25" viewBox="0 0 24 25" fill="none" xmlns="http://www.w3.org/2000/svg">
<path fill-rule="evenodd" clip-rule="evenodd" d="M16 6.5C16 7.51438 15.6215 8.44132 15 9.14575V11.5C15 12.0523 15.4477 12.5 16 12.5H17C18.6569 12.5 20 13.8431 20 15.5V18.5H4V15.5C4 13.8431 5.34315 12.5 7 12.5H8C8.55228 12.5 9 12.0523 9 11.5V9.14575C8.37852 8.44132 8 7.51438 8 6.5C8 4.29086 9.79086 2.5 12 2.5C14.2091 2.5 16 4.29086 16 6.5ZM10 6.5C10 5.39543 10.8954 4.5 12 4.5C13.1046 4.5 14 5.39543 14 6.5C14 7.09224 13.7438 7.62333 13.3331 7.99097C13.1104 8.19028 12.998 8.46684 13 8.7439L13 8.75V11.5C13 13.1569 14.3431 14.5 16 14.5H17C17.5523 14.5 18 14.9477 18 15.5V16.5H6V15.5C6 14.9477 6.44772 14.5 7 14.5H8C9.65685 14.5 11 13.1569 11 11.5L10.9999 8.75C11.0037 8.47091 10.8912 8.19174 10.6669 7.99097C10.2561 7.62333 10 7.09224 10 6.5Z" fill="#2B2D34"/>
<path d="M4 20.5V22.5H20V20.5H4Z" fill="#2B2D34"/>
</svg>
