<svg width="24" height="24" viewBox="0 0 24 24" fill="none" xmlns="http://www.w3.org/2000/svg">
<path d="M10.7702 6.29607C10.7945 6.18649 10.8355 6.07474 10.8613 6.04774C10.9214 5.98468 11.0783 5.98394 11.1364 6.04645C11.1608 6.07275 11.2212 6.2672 11.2707 6.47858C11.7319 8.45003 12.8737 9.81837 14.6093 10.4794C14.9729 10.6178 15.2313 10.6932 15.6345 10.7782C15.9165 10.8376 16 10.8894 16 11.0051C16 11.1245 15.9189 11.1773 15.6523 11.2316C14.1134 11.545 12.8753 12.3429 12.107 13.5167C11.7544 14.0552 11.4093 14.8822 11.2747 15.511C11.1968 15.8754 11.1538 15.969 11.0533 15.9929C10.9242 16.0236 10.8323 15.9543 10.7941 15.7971L10.6975 15.4017C10.1541 13.1783 8.60408 11.6958 6.33848 11.2323C6.03776 11.1708 5.93159 11.0511 6.04344 10.8996C6.07643 10.8549 6.16736 10.8233 6.42528 10.7667C8.17091 10.3838 9.42107 9.45608 10.1799 7.98037C10.4531 7.44901 10.6203 6.97194 10.7702 6.29607Z" fill="#2B2D34"/>
<path fill-rule="evenodd" clip-rule="evenodd" d="M18.0319 16.6177C19.2635 15.078 20 13.125 20 11C20 6.02944 15.9706 2 11 2C6.02944 2 2 6.02944 2 11C2 15.9706 6.02944 20 11 20C13.125 20 15.078 19.2635 16.6177 18.0319L20.7929 22.2071L22.2071 20.7929L18.0319 16.6177ZM18 11C18 14.866 14.866 18 11 18C7.13401 18 4 14.866 4 11C4 7.13401 7.13401 4 11 4C14.866 4 18 7.13401 18 11Z" fill="#2B2D34"/>
</svg>
