<svg width="24" height="24" viewBox="0 0 24 24" fill="none" xmlns="http://www.w3.org/2000/svg">
<path d="M5 1H19V20H21V22H11V20H13V17H15V20H17V3H7V13H5V1Z" fill="#2B2D34"/>
<path d="M9 11H15V9H9V11Z" fill="#2B2D34"/>
<path d="M15 15H9V13H15V15Z" fill="#2B2D34"/>
<path d="M9 7H15V5L9 5V7Z" fill="#2B2D34"/>
<path d="M9.70711 19.7071L6.20711 23.2071L4.79289 21.7929L6.58579 20H0V18H6.58579L4.79289 16.2071L6.20711 14.7929L9.70711 18.2929C9.89464 18.4804 10 18.7348 10 19C10 19.2652 9.89464 19.5196 9.70711 19.7071Z" fill="#2B2D34"/>
</svg>
