<svg width="24" height="24" viewBox="0 0 24 24" fill="none" xmlns="http://www.w3.org/2000/svg">
<path d="M11.7072 15.2071L17.2072 9.70709L15.793 8.29291L11.0001 13.0858L8.70715 10.7929L7.29297 12.2071L10.293 15.2071C10.6835 15.5977 11.3167 15.5977 11.7072 15.2071Z" fill="#2B2D34"/>
<path fill-rule="evenodd" clip-rule="evenodd" d="M13.0589 2.27185C12.8165 2.18518 12.5746 2.09656 12.3357 2.00067L11.6659 2C11.5479 2.04755 11.4291 2.09314 11.3099 2.13757C11.1873 2.18329 11.0643 2.22778 10.9411 2.27185C10.4763 2.43805 9.81909 2.6601 9.05273 2.88202C7.50385 3.33051 5.57422 3.75897 3.90002 3.75897C3.40295 3.75897 3 4.1673 3 4.67102V11.9675C3 15.592 5.30371 18.1102 7.42303 19.6614C8.49493 20.4459 9.56104 21.0154 10.3563 21.3885C10.7551 21.5757 11.0891 21.7148 11.3257 21.8082C11.3555 21.8198 11.3854 21.832 11.4156 21.8443C11.6027 21.9202 11.7994 22 12 22C12.2005 22 12.3923 21.9222 12.5814 21.8455L12.5889 21.8424L12.5947 21.84C12.6212 21.8293 12.6478 21.8186 12.6743 21.8082C12.9109 21.7148 13.2449 21.5757 13.6437 21.3885C14.439 21.0154 15.5051 20.4459 16.5769 19.6614C18.6963 18.1102 21 15.592 21 11.9675V4.67102C21 4.1673 20.597 3.75897 20.1 3.75897C18.4258 3.75897 16.4961 3.33051 14.9473 2.88202C14.1809 2.6601 13.5237 2.43805 13.0589 2.27185ZM19 11.9675C19 14.6487 17.3064 16.6438 15.3983 18.0403C14.4725 18.718 13.46 19.2401 12.4451 19.7635C12.2967 19.8401 12.1483 19.9166 12 19.9937C11.8517 19.9166 11.7033 19.8401 11.5549 19.7635C10.54 19.2401 9.52753 18.718 8.60175 18.0403C6.69366 16.6438 5 14.6487 5 11.9675V5.71844C6.63104 5.58502 8.29749 5.18909 9.6073 4.80988C10.4168 4.5755 11.2083 4.29871 12 4.0116C12.7917 4.29871 13.5832 4.5755 14.3927 4.80988C15.7025 5.18909 17.3689 5.58502 19 5.71844V11.9675Z" fill="#2B2D34"/>
</svg>
