<svg width="24" height="24" viewBox="0 0 24 24" fill="none" xmlns="http://www.w3.org/2000/svg">
<path d="M11.5223 7.54593C11.6675 7.07609 12.3326 7.07609 12.4778 7.54593L13.0715 9.4673C13.1362 9.6768 13.3299 9.81968 13.5492 9.81968H15.5219C16.0002 9.81968 16.2055 10.4267 15.8254 10.717L14.187 11.9686C14.0205 12.0958 13.951 12.3134 14.0129 12.5136L14.6284 14.5054C14.7721 14.9705 14.234 15.3459 13.8471 15.0504L12.3036 13.8712C12.1244 13.7343 11.8757 13.7343 11.6965 13.8712L10.153 15.0504C9.76614 15.3459 9.22801 14.9705 9.37174 14.5054L9.98726 12.5136C10.0491 12.3134 9.97959 12.0958 9.81308 11.9686L8.17467 10.717C7.79462 10.4267 7.99994 9.81968 8.4782 9.81968H10.4509C10.6702 9.81968 10.8639 9.6768 10.9286 9.4673L11.5223 7.54593Z" fill="#2B2D34"/>
<path fill-rule="evenodd" clip-rule="evenodd" d="M12.4761 2.36954C12.16 2.19035 11.779 2.19035 11.4629 2.36954C11.3828 2.41498 11.3018 2.45887 11.2195 2.50002C10.7195 2.75005 9.96949 3.00002 8.96954 3.00002C7.96948 3.00002 6.96945 2.74999 6.21954 2.50002C5.99919 2.42657 5.78184 2.34511 5.56566 2.26052C5.19325 2.11479 4.77019 2.19938 4.48741 2.48216L2.62676 4.3428C2.26909 4.70048 2.23992 5.26494 2.54784 5.66625C2.69405 5.8568 2.83635 6.05022 2.96955 6.25002C3.46937 6.99976 3.96954 7.99985 3.96954 9.00002C3.96954 10 3.71938 10.5003 3.46954 11L3.45077 11.0375C3.34766 11.2435 3.21695 11.5047 3.12225 11.8244C3.0208 12.1669 2.96954 12.5401 2.96954 13C2.96954 16.4986 5.2177 18.7489 7.46954 20.125C8.59455 20.8125 9.71955 21.2813 10.5633 21.5781C10.9852 21.7266 11.3368 21.8321 11.5828 21.9004C11.6301 21.9135 11.6734 21.9253 11.7126 21.9357L11.9695 22.004L12.2265 21.9357C12.2657 21.9253 12.309 21.9135 12.3562 21.9004C12.6023 21.8321 12.9539 21.7266 13.3758 21.5781C14.2195 21.2813 15.3445 20.8125 16.4695 20.125C18.7214 18.7489 20.9695 16.4986 20.9695 13C20.9695 12.5401 20.9183 12.1669 20.8168 11.8244C20.7221 11.5047 20.5914 11.2435 20.4883 11.0375L20.4695 11C20.2197 10.5003 19.9695 10 19.9695 9.00002C19.9695 7.99985 20.4697 6.99976 20.9695 6.25002C21.1027 6.05022 21.245 5.8568 21.3912 5.66625C21.6992 5.26494 21.67 4.70047 21.3123 4.3428L19.4524 2.48286C19.1692 2.19972 18.7455 2.11532 18.3726 2.2611C18.1567 2.3455 17.9395 2.42669 17.7195 2.50002C16.9696 2.74999 15.9696 3.00002 14.9695 3.00002C13.9696 3.00002 13.2196 2.75005 12.7195 2.50002C12.6372 2.45887 12.5563 2.41498 12.4761 2.36954ZM12.712 19.6915C12.4186 19.7948 12.1657 19.8738 11.9696 19.931C11.7734 19.8738 11.5205 19.7948 11.2271 19.6915C10.4722 19.4259 9.48396 19.0122 8.51244 18.4185C6.53527 17.2102 4.96954 15.495 4.96954 13C4.96954 12.6958 5.00259 12.5184 5.0399 12.3924C5.08062 12.2549 5.13721 12.1368 5.25041 11.9104L5.2584 11.8944C5.56512 11.281 5.96954 10.453 5.96954 9.00002C5.96954 7.40794 5.20877 6.00618 4.64313 5.15487L5.44784 4.35015C5.49338 4.36587 5.53981 4.38163 5.58709 4.39739C6.43701 4.68069 7.6671 5.00002 8.96954 5.00002C10.2303 5.00002 11.2354 4.7025 11.9695 4.35877C12.7037 4.7025 13.7087 5.00002 14.9695 5.00002C16.272 5.00002 17.5021 4.68069 18.352 4.39739C18.3993 4.38163 18.4457 4.36587 18.4912 4.35015L19.2959 5.15487C18.7303 6.00618 17.9695 7.40794 17.9695 9.00002C17.9695 10.453 18.374 11.281 18.6807 11.8944L18.6887 11.9104C18.8019 12.1368 18.8585 12.2549 18.8992 12.3924C18.9365 12.5184 18.9695 12.6958 18.9695 13C18.9695 15.495 17.4038 17.2102 15.4266 18.4185C14.4551 19.0122 13.4669 19.4259 12.712 19.6915Z" fill="#2B2D34"/>
</svg>
