<svg width="24" height="24" viewBox="0 0 24 24" fill="none" xmlns="http://www.w3.org/2000/svg">
<path fill-rule="evenodd" clip-rule="evenodd" d="M5.99997 5H4.99997C4.52329 5 4.11288 5.33646 4.01939 5.80388L3.18017 10H1.99997C1.66815 10 1.35794 10.1646 1.17191 10.4394C0.985877 10.7141 0.948261 11.0633 1.0715 11.3714L2.59468 15.1793L2.44719 15.1056C1.95321 14.8586 1.35254 15.0588 1.10555 15.5528C0.858558 16.0468 1.05878 16.6475 1.55276 16.8945L2.21112 17.2236C3.33723 17.7867 4.66272 17.7867 5.78883 17.2236L7.10555 16.5653C7.6686 16.2837 8.33135 16.2837 8.8944 16.5653L10.2111 17.2236C11.3372 17.7867 12.6627 17.7867 13.7888 17.2236L15.1055 16.5653C15.6686 16.2837 16.3313 16.2837 16.8944 16.5653L18.2111 17.2236C19.3372 17.7867 20.6627 17.7867 21.7888 17.2236L22.4472 16.8945C22.9412 16.6475 23.1414 16.0468 22.8944 15.5528C22.6474 15.0588 22.0467 14.8586 21.5528 15.1056L21.4053 15.1793L22.9284 11.3714C23.0517 11.0633 23.0141 10.7141 22.828 10.4394C22.642 10.1646 22.3318 10 22 10H19.4669L15.5791 5.35793C15.3891 5.13106 15.1084 5 14.8125 5H12V3H9.99997V5H7.99997V3H5.99997V5ZM4.8944 15.4348C4.88232 15.4408 4.87019 15.4467 4.85801 15.4525L3.47701 12H20.5229L19.1419 15.4525C19.1298 15.4467 19.1176 15.4408 19.1055 15.4348L17.7888 14.7764C16.6627 14.2134 15.3372 14.2134 14.2111 14.7764L12.8944 15.4348C12.3313 15.7163 11.6686 15.7163 11.1055 15.4348L9.78883 14.7764C8.66272 14.2134 7.33723 14.2134 6.21112 14.7764L4.8944 15.4348ZM16.8581 10L14.3456 7H5.81978L5.21978 10H16.8581Z" fill="#2B2D34"/>
<path d="M15.1823 20.5269C15.5527 20.3417 16 20.4143 16.2929 20.7071C17.1944 21.6087 18.5717 21.8322 19.7121 21.262L20.4472 20.8944C20.9412 20.6474 21.1414 20.0468 20.8944 19.5528C20.6474 19.0588 20.0467 18.8586 19.5528 19.1056L18.8177 19.4731C18.4473 19.6583 17.9999 19.5857 17.7071 19.2929C16.8055 18.3913 15.4282 18.1678 14.2879 18.738L12.8944 19.4348C12.3313 19.7163 11.6686 19.7163 11.1055 19.4348L9.7121 18.738C8.57172 18.1678 7.19442 18.3913 6.29287 19.2929C6.00004 19.5857 5.55268 19.6583 5.18228 19.4731L4.44719 19.1056C3.95321 18.8586 3.35254 19.0588 3.10555 19.5528C2.85856 20.0468 3.05878 20.6474 3.55276 20.8944L4.28785 21.262C5.42823 21.8322 6.80553 21.6087 7.70708 20.7071C7.99991 20.4143 8.44727 20.3417 8.81767 20.5269L10.2111 21.2236C11.3372 21.7867 12.6627 21.7867 13.7888 21.2236L15.1823 20.5269Z" fill="#2B2D34"/>
</svg>
