<svg width="24" height="24" viewBox="0 0 24 24" fill="none" xmlns="http://www.w3.org/2000/svg">
<path fill-rule="evenodd" clip-rule="evenodd" d="M13 3.00001C13 2.61199 12.7755 2.259 12.4242 2.09442C12.0728 1.92984 11.6579 1.98339 11.3598 2.23179L5.63795 7.00001H3C2.44772 7.00001 2 7.44773 2 8.00001V16C2 16.5523 2.44772 17 3 17H5.63795L11.3598 21.7682C11.6579 22.0166 12.0728 22.0702 12.4242 21.9056C12.7755 21.741 13 21.388 13 21V3.00001ZM6.64018 8.76823L11 5.13505V18.865L6.64018 15.2318C6.46047 15.082 6.23394 15 6 15H4V9.00001H6C6.23394 9.00001 6.46047 8.918 6.64018 8.76823Z" fill="#2B2D34"/>
<path d="M17.3592 5.76771C17.3595 5.76796 17.3598 5.76823 18 5.00001C18.6402 4.23179 18.6405 4.23208 18.6409 4.23237L18.6417 4.23301L18.6434 4.23448L18.6477 4.23811L18.6596 4.24821C18.6689 4.2562 18.681 4.2667 18.6957 4.27971C18.7252 4.30573 18.7651 4.34178 18.814 4.38777C18.9117 4.47969 19.0457 4.61162 19.2036 4.78267C19.5188 5.12423 19.9329 5.62519 20.3455 6.27852C21.1714 7.58626 22 9.51908 22 12C22 14.4809 21.1714 16.4138 20.3455 17.7215C19.9329 18.3748 19.5188 18.8758 19.2036 19.2174C19.0457 19.3884 18.9117 19.5203 18.814 19.6123C18.7651 19.6582 18.7252 19.6943 18.6957 19.7203C18.6872 19.7278 18.6796 19.7345 18.6728 19.7404C18.6679 19.7446 18.6635 19.7484 18.6596 19.7518L18.6477 19.7619L18.6434 19.7655L18.6409 19.7676C18.6405 19.7679 18.6402 19.7682 18 19C17.3598 18.2318 17.3595 18.2321 17.3592 18.2323L17.3717 18.2214C17.3862 18.2086 17.4107 18.1865 17.4438 18.1553C17.5101 18.093 17.6106 17.9944 17.7339 17.8608C17.9812 17.593 18.3171 17.1877 18.6545 16.6535C19.3286 15.5863 20 14.0191 20 12C20 9.98094 19.3286 8.41376 18.6545 7.3465C18.3171 6.81233 17.9812 6.40704 17.7339 6.13923C17.6106 6.00559 17.5101 5.90705 17.4438 5.84468C17.4107 5.81351 17.3862 5.79146 17.3717 5.77866L17.3577 5.76646L17.3592 5.76771Z" fill="#2B2D34"/>
<path d="M14.3994 8.79957C14.3997 8.79979 14.4 8.80002 15 8.00002C15.6 7.20002 15.6003 7.20026 15.6007 7.20051L15.6029 7.20219L15.6065 7.20493L15.6159 7.21213L15.6432 7.23343C15.6649 7.25067 15.6938 7.27403 15.7288 7.30338C15.7987 7.36203 15.8933 7.44502 16.0044 7.55147C16.2257 7.76355 16.5172 8.07346 16.8087 8.47435C17.3891 9.27229 18 10.4745 18 12C18 13.5256 17.3891 14.7278 16.8087 15.5257C16.5172 15.9266 16.2257 16.2365 16.0044 16.4486C15.8933 16.555 15.7987 16.638 15.7288 16.6967C15.6938 16.726 15.6649 16.7494 15.6432 16.7666L15.6159 16.7879L15.6065 16.7951L15.6029 16.7979L15.6014 16.799C15.601 16.7993 15.6 16.8 15 16C14.4 15.2 14.3997 15.2003 14.3994 15.2005L14.3979 15.2016L14.3964 15.2027L14.4018 15.1985C14.4093 15.1926 14.4234 15.1813 14.4431 15.1647C14.4826 15.1316 14.5442 15.0778 14.6206 15.0046C14.7743 14.8573 14.9828 14.636 15.1913 14.3494C15.611 13.7723 16 12.9745 16 12C16 11.0256 15.611 10.2278 15.1913 9.65069C14.9828 9.36409 14.7743 9.14275 14.6206 8.99545C14.5442 8.92221 14.4826 8.86848 14.4431 8.83533C14.4234 8.81879 14.4093 8.80748 14.4018 8.80152L14.3964 8.79731L14.3979 8.79841L14.3994 8.79957Z" fill="#2B2D34"/>
</svg>
