<svg width="24" height="24" viewBox="0 0 24 24" fill="none" xmlns="http://www.w3.org/2000/svg">
<path fill-rule="evenodd" clip-rule="evenodd" d="M4 7C4 4.23858 6.23858 2 9 2C11.7614 2 14 4.23858 14 7C14 9.76142 11.7614 12 9 12C6.23858 12 4 9.76142 4 7ZM9 4C7.34315 4 6 5.34315 6 7C6 8.65685 7.34315 10 9 10C10.6569 10 12 8.65685 12 7C12 5.34315 10.6569 4 9 4Z" fill="#2B2D34"/>
<path d="M1 22C1 17.5983 4.08967 13 9.5001 13C10.6208 13 11.6572 13.2015 12.5941 13.5691L11.8636 15.4309C11.1657 15.1571 10.3776 15 9.5001 15C5.47308 15 3 18.4017 3 22H1Z" fill="#2B2D34"/>
<path fill-rule="evenodd" clip-rule="evenodd" d="M19.1869 13.555C18.75 12.9175 17.8091 12.9175 17.3722 13.555L16.0687 15.457L13.857 16.109C13.1156 16.3275 12.8249 17.2223 13.2962 17.8349L14.7023 19.6623L14.6389 21.9672C14.6176 22.7398 15.3788 23.2928 16.107 23.0339L18.2795 22.2613L20.452 23.0339C21.1803 23.2928 21.9414 22.7398 21.9202 21.9672L21.8568 19.6623L23.2629 17.8349C23.7342 17.2223 23.4434 16.3275 22.7021 16.109L20.4904 15.457L19.1869 13.555ZM17.3164 17.1743L18.2795 15.7689L19.2427 17.1743L20.877 17.656L19.838 19.0064L19.8848 20.7095L18.2795 20.1387L16.6742 20.7095L16.7211 19.0064L15.6821 17.656L17.3164 17.1743Z" fill="#2B2D34"/>
</svg>
