<svg width="24" height="24" viewBox="0 0 24 24" fill="none" xmlns="http://www.w3.org/2000/svg">
<path fill-rule="evenodd" clip-rule="evenodd" d="M4 7C4 4.23858 6.23858 2 9 2C11.7614 2 14 4.23858 14 7C14 9.76142 11.7614 12 9 12C6.23858 12 4 9.76142 4 7ZM9 4C7.34315 4 6 5.34315 6 7C6 8.65685 7.34315 10 9 10C10.6569 10 12 8.65685 12 7C12 5.34315 10.6569 4 9 4Z" fill="#2B2D34"/>
<path d="M1 22C1 17.5983 4.08967 13 9.5001 13C11.1152 13 12.5501 13.4186 13.7609 14.1413L12.7359 15.8587C11.839 15.3234 10.7591 15 9.5001 15C5.47308 15 3 18.4017 3 22H1Z" fill="#2B2D34"/>
<path d="M18.6095 14.4814C18.4506 14.2496 18.1084 14.2496 17.9496 14.4814L16.6925 16.3156L14.5596 16.9444C14.29 17.0239 14.1843 17.3492 14.3557 17.572L15.7117 19.3343L15.6505 21.5571C15.6428 21.8381 15.9196 22.0392 16.1844 21.945L18.2795 21.2L20.3746 21.945C20.6394 22.0392 20.9162 21.8381 20.9085 21.5571L20.8474 19.3343L22.2034 17.572C22.3747 17.3492 22.269 17.0239 21.9994 16.9444L19.8665 16.3156L18.6095 14.4814Z" fill="#2B2D34"/>
</svg>
