<svg width="24" height="24" viewBox="0 0 24 24" fill="none" xmlns="http://www.w3.org/2000/svg">
<path fill-rule="evenodd" clip-rule="evenodd" d="M19.9143 5.50002L22.7071 2.70718L21.2929 1.29297L18.5 4.08591L17.7071 3.29289C17.5196 3.10536 17.2652 3 17 3H12C11.7348 3 11.4804 3.10536 11.2929 3.29289L2.29289 12.2929C1.90237 12.6834 1.90237 13.3166 2.29289 13.7071L10.2928 21.7071C10.6834 22.0976 11.3165 22.0976 11.7071 21.7071L20.7071 12.7071C20.8946 12.5196 21 12.2652 21 12V7C21 6.73478 20.8946 6.48043 20.7071 6.29289L19.9143 5.50002ZM17.5181 5.06776L16.2929 6.29297L17.7071 7.70718L18.9323 6.48203C18.9764 6.64723 19 6.82087 19 7C19 8.10457 18.1046 9 17 9C15.8954 9 15 8.10457 15 7C15 5.89543 15.8954 5 17 5C17.1792 5 17.3529 5.02356 17.5181 5.06776Z" fill="#2B2D34"/>
</svg>
