<svg width="24" height="24" viewBox="0 0 24 24" fill="none" xmlns="http://www.w3.org/2000/svg">
<path fill-rule="evenodd" clip-rule="evenodd" d="M19.9142 5.50003L22.7071 2.70712L21.2929 1.29291L18.5 4.08582L17.7071 3.29292C17.5196 3.10539 17.2652 3.00003 17 3.00003H12C11.7348 3.00003 11.4804 3.10539 11.2929 3.29292L2.29289 12.2929C1.90237 12.6834 1.90237 13.3166 2.29289 13.7071L10.2928 21.7071C10.6834 22.0976 11.3165 22.0976 11.7071 21.7071L20.7071 12.7071C20.8946 12.5196 21 12.2652 21 12V7.00003C21 6.73481 20.8946 6.48046 20.7071 6.29292L19.9142 5.50003ZM17.0858 5.50003L16.5858 5.00003H12.4142L4.41421 13L11 19.5858L19 11.5858V7.41424L18.5 6.91424L17.9977 7.41653C17.9992 7.44416 18 7.47199 18 7.5C18 8.32843 17.3284 9 16.5 9C15.6716 9 15 8.32843 15 7.5C15 6.67157 15.6716 6 16.5 6C16.528 6 16.5559 6.00077 16.5835 6.00229L17.0858 5.50003Z" fill="#2B2D34"/>
</svg>
