<svg width="24" height="24" viewBox="0 0 24 24" fill="none" xmlns="http://www.w3.org/2000/svg">
<path d="M9.70718 17.7072L12 15.4144L14.2928 17.7072L15.707 16.293L13.4142 14.0002L15.7072 11.7072L14.293 10.293L12 12.5859L9.70703 10.293L8.29282 11.7072L10.5858 14.0002L8.29297 16.293L9.70718 17.7072Z" fill="#2B2D34"/>
<path fill-rule="evenodd" clip-rule="evenodd" d="M9 3C7.89543 3 7 3.89543 7 5V7H3C2.44772 7 2 7.44772 2 8V20C2 20.5523 2.44772 21 3 21H21C21.5523 21 22 20.5523 22 20V8C22 7.44772 21.5523 7 21 7H17V5C17 3.89543 16.1046 3 15 3H9ZM15 7V5H9V7H15ZM4 19V9H20V19H4Z" fill="#2B2D34"/>
</svg>
