<svg width="24" height="24" viewBox="0 0 24 24" fill="none" xmlns="http://www.w3.org/2000/svg">
<path d="M15.4623 5.88915L12.2803 9.07115L10.8661 7.65693L12.4332 6.08981C11.2231 6.01479 10.0057 6.255 8.90398 6.7983C7.38086 7.54942 6.18274 8.82864 5.53284 10.3976C4.88295 11.9666 4.8256 13.7184 5.37149 15.3265C5.91738 16.9346 7.02927 18.2895 8.5 19.1386C9.97074 19.9877 11.7 20.2732 13.3656 19.9419C15.0313 19.6106 16.5196 18.6851 17.5535 17.3377C18.5873 15.9904 19.0961 14.3132 18.985 12.6186C18.8739 10.924 18.1506 9.32751 16.9497 8.12666L18.364 6.71244C19.9079 8.25639 20.8379 10.309 20.9807 12.4878C21.1235 14.6666 20.4694 16.823 19.1402 18.5553C17.811 20.2875 15.8973 21.4775 13.7558 21.9035C11.6143 22.3294 9.39095 21.9624 7.5 20.8706C5.60906 19.7789 4.17949 18.037 3.47763 15.9694C2.77578 13.9018 2.84951 11.6495 3.68508 9.63226C4.52066 7.61499 6.0611 5.97028 8.0194 5.00455C9.33925 4.35368 10.7882 4.04114 12.2384 4.07955L10.8661 2.70719L12.2803 1.29297L15.4623 4.47493C15.6498 4.66246 15.7552 4.91682 15.7552 5.18204C15.7552 5.44725 15.6498 5.70161 15.4623 5.88915Z" fill="#2B2D34"/>
<path d="M9.87868 10.8787C9.45912 11.2982 9.1734 11.8328 9.05765 12.4147C8.94189 12.9967 9.0013 13.5999 9.22836 14.148C9.45543 14.6962 9.83994 15.1648 10.3333 15.4944C10.8266 15.824 11.4067 16 12 16C12.5933 16 13.1734 15.824 13.6667 15.4944C14.1601 15.1648 14.5446 14.6962 14.7716 14.148C14.9987 13.5999 15.0581 12.9967 14.9424 12.4147C14.8266 11.8328 14.5409 11.2982 14.1213 10.8787L15.5355 9.46446C16.2348 10.1637 16.711 11.0546 16.9039 12.0245C17.0969 12.9944 16.9978 13.9998 16.6194 14.9134C16.241 15.827 15.6001 16.6079 14.7779 17.1573C13.9556 17.7067 12.9889 18 12 18C11.0111 18 10.0444 17.7067 9.22215 17.1573C8.3999 16.6079 7.75904 15.827 7.3806 14.9134C7.00217 13.9998 6.90315 12.9944 7.09608 12.0245C7.289 11.0546 7.76521 10.1637 8.46447 9.46446L9.87868 10.8787Z" fill="#2B2D34"/>
<path d="M12 14C12.5523 14 13 13.5523 13 13C13 12.4477 12.5523 12 12 12C11.4477 12 11 12.4477 11 13C11 13.5523 11.4477 14 12 14Z" fill="#2B2D34"/>
</svg>
