<svg width="24" height="24" viewBox="0 0 24 24" fill="none" xmlns="http://www.w3.org/2000/svg">
<path d="M10 2C9.44772 2 9 2.44772 9 3V6H10C10.5523 6 11 5.55228 11 5V4H13V5C13 5.55228 13.4477 6 14 6H15V3C15 2.44772 14.5523 2 14 2H10Z" fill="#2B2D34"/>
<path d="M4 5C4 4.44772 4.44772 4 5 4H7V6H6V20H16V22H5C4.44772 22 4 21.5523 4 21V5Z" fill="#2B2D34"/>
<path d="M18 6H17V4H19C19.5523 4 20 4.44772 20 5V11.5H18V6Z" fill="#2B2D34"/>
<path d="M21.7071 16.2929L18.7071 13.2929L17.2929 14.7071L18.5858 16H12V18H18.5858L17.2929 19.2929L18.7071 20.7071L21.7071 17.7071C22.0976 17.3166 22.0976 16.6834 21.7071 16.2929Z" fill="#2B2D34"/>
</svg>
