<svg width="24" height="24" viewBox="0 0 24 24" fill="none" xmlns="http://www.w3.org/2000/svg">
<path d="M21.9417 5.46108L18.9241 19.0256C18.6915 19.9912 18.1372 20.2392 17.2614 19.7694L12.6632 16.5397L10.4462 18.5754C10.1452 18.8625 9.83726 19.006 9.52251 19.006L9.85095 14.5432L18.3699 7.20313C18.5204 7.07264 18.5478 6.97477 18.452 6.90952C18.3014 6.80513 18.0825 6.84428 17.7951 7.02696L7.26448 13.3492L2.72789 11.9987C2.39945 11.9073 2.1805 11.7801 2.07102 11.617C1.96154 11.4539 1.97864 11.281 2.12233 11.0983C2.26602 10.9156 2.5363 10.7525 2.93317 10.6089L20.6689 4.09092C21.1069 3.93433 21.4593 3.98001 21.7261 4.22794C21.993 4.47587 22.0648 4.88692 21.9417 5.46108Z" fill="#2B2D34"/>
</svg>
