<svg width="24" height="24" viewBox="0 0 24 24" fill="none" xmlns="http://www.w3.org/2000/svg">
<path d="M5.00023 3C5.00023 2.44772 5.44794 2 6.00023 2H9.00023V4H7.00023V8H5.00023V3Z" fill="#2B2D34"/>
<path d="M21.0002 3C21.0002 2.44772 20.5525 2 20.0002 2H17.0002V4H19.0002V6H21.0002V3Z" fill="#2B2D34"/>
<path d="M21.0002 21C21.0002 21.5523 20.5525 22 20.0002 22H15.0002V20H19.0002V18H21.0002V21Z" fill="#2B2D34"/>
<path d="M6.70718 22.2071L11.2072 17.7071L9.79297 16.2929L7.00008 19.0858V11H5.00007L5.00008 19.0858L2.20718 16.2929L0.792969 17.7071L5.29297 22.2071C5.68349 22.5976 6.31666 22.5976 6.70718 22.2071Z" fill="#2B2D34"/>
<path d="M11.0002 2H15.0002V4H11.0002V2Z" fill="#2B2D34"/>
<path d="M21.0002 8V11H19.0002V8H21.0002Z" fill="#2B2D34"/>
<path d="M21.0002 16V13H19.0002V16H21.0002Z" fill="#2B2D34"/>
</svg>
