<svg width="24" height="24" viewBox="0 0 24 24" fill="none" xmlns="http://www.w3.org/2000/svg">
<path fill-rule="evenodd" clip-rule="evenodd" d="M5.00008 3C5.00008 2.44772 5.44779 2 6.00008 2H9.00008V4H7.00008V6H5.00008V3ZM11.0001 2H15.0001V4H11.0001V2ZM17.0001 2H20.0001C20.5524 2 21.0001 2.44772 21.0001 3V6H19.0001V4H17.0001V2ZM5.00008 12V8H7.00008V12H5.00008ZM21.0001 8V11H19.0001V8H21.0001ZM21.0001 13V16H19.0001V13H21.0001ZM21.0001 18V21C21.0001 21.5523 20.5524 22 20.0001 22H15.0001V20H19.0001V18H21.0001Z" fill="#2B2D34"/>
<path fill-rule="evenodd" clip-rule="evenodd" d="M14.2072 13.2071L6.20718 21.2071C5.81666 21.5976 5.18349 21.5976 4.79297 21.2071L1.29297 17.7071L2.70718 16.2929L5.50008 19.0858L12.793 11.7929L14.2072 13.2071Z" fill="#2B2D34"/>
</svg>
