<svg width="24" height="24" viewBox="0 0 24 24" fill="none" xmlns="http://www.w3.org/2000/svg">
<path fill-rule="evenodd" clip-rule="evenodd" d="M12 2C14.7614 2 17 4.23858 17 7C17 9.76142 14.7614 12 12 12C9.23858 12 7 9.76142 7 7C7 4.23858 9.23858 2 12 2ZM15 7C15 5.34315 13.6569 4 12 4C10.3431 4 9 5.34315 9 7C9 8.65685 10.3431 10 12 10C13.6569 10 15 8.65685 15 7Z" fill="#2B2D34"/>
<path d="M11.4999 13C16.9103 13 20 17.5983 20 22H18C18 18.4017 15.5269 15 11.4999 15C10.4396 15 9.50628 15.2294 8.7024 15.6215L7.91845 13.7794C8.97533 13.2808 10.1771 13 11.4999 13Z" fill="#2B2D34"/>
<path d="M0 20H5.58586L3.29297 22.2929L4.70718 23.7071L8.70718 19.7071C9.09771 19.3166 9.09771 18.6834 8.70718 18.2929L4.70718 14.2929L3.29297 15.7071L5.58586 18H0V20Z" fill="#2B2D34"/>
</svg>
