<svg width="24" height="24" viewBox="0 0 24 24" fill="none" xmlns="http://www.w3.org/2000/svg">
<path fill-rule="evenodd" clip-rule="evenodd" d="M19.1412 19C20.9089 17.1968 22 14.7263 22 12C22 6.47715 17.5228 2 12 2C6.47715 2 2 6.47715 2 12C2 14.7263 3.09108 17.1968 4.85878 19H2V21H22V19H19.1412ZM12 4C7.58172 4 4 7.58172 4 12C4 15.0103 5.66244 17.6339 8.12361 19H9V17H8V15H9V14H8V12H9V8L13 8C13.394 8 13.7841 8.0776 14.1481 8.22836C14.512 8.37913 14.8427 8.6001 15.1213 8.87868C15.3999 9.15726 15.6209 9.48797 15.7716 9.85195C15.9224 10.2159 16 10.606 16 11C16 11.394 15.9224 11.7841 15.7716 12.1481C15.6209 12.512 15.3999 12.8427 15.1213 13.1213C14.8427 13.3999 14.512 13.6209 14.1481 13.7716C13.7841 13.9224 13.394 14 13 14H11V15H14V17H11V19H15.8764C18.3376 17.6339 20 15.0103 20 12C20 7.58172 16.4183 4 12 4ZM13 12C13.1313 12 13.2614 11.9741 13.3827 11.9239C13.504 11.8736 13.6142 11.8 13.7071 11.7071C13.8 11.6142 13.8736 11.504 13.9239 11.3827C13.9741 11.2614 14 11.1313 14 11C14 10.8687 13.9741 10.7386 13.9239 10.6173C13.8736 10.496 13.8 10.3858 13.7071 10.2929C13.6142 10.2 13.504 10.1264 13.3827 10.0761C13.2614 10.0259 13.1313 10 13 10H11V12H13Z" fill="#2B2D34"/>
</svg>
