<svg width="24" height="24" viewBox="0 0 24 24" fill="none" xmlns="http://www.w3.org/2000/svg">
<path d="M21 6.28182C20.3381 6.57472 19.6177 6.78552 18.8757 6.86762C19.6461 6.39817 20.223 5.65652 20.4981 4.78182C19.7753 5.22292 18.9834 5.53222 18.1575 5.69602C17.8124 5.31752 17.395 5.016 16.9312 4.81024C16.4675 4.60447 15.9675 4.49886 15.4622 4.50001C13.418 4.50001 11.7739 6.19971 11.7739 8.28551C11.7739 8.57841 11.8086 8.87131 11.8648 9.15312C8.80388 8.98891 6.07391 7.48891 4.25899 5.19232C3.92829 5.77171 3.75499 6.43143 3.75713 7.10282C3.75713 8.41643 4.40824 9.57471 5.40115 10.2559C4.81602 10.2323 4.24458 10.0673 3.73332 9.77442V9.82102C3.73332 11.6605 5.00095 13.1849 6.69041 13.5355C6.3732 13.62 6.04689 13.6633 5.71915 13.6642C5.47903 13.6642 5.2519 13.6398 5.0226 13.6065C5.48985 15.1065 6.8505 16.196 8.47073 16.2315C7.2031 17.25 5.61531 17.8491 3.89124 17.8491C3.5819 17.8491 3.29636 17.838 3 17.8025C4.63538 18.8787 6.57577 19.5 8.66542 19.5C15.4492 19.5 19.1613 13.7352 19.1613 8.73152C19.1613 8.56731 19.1613 8.40312 19.1505 8.23892C19.8687 7.69972 20.4981 7.03182 21 6.28182Z" fill="#2B2D34"/>
</svg>
