<svg width="24" height="24" viewBox="0 0 24 24" fill="none" xmlns="http://www.w3.org/2000/svg">
<path d="M3.07617 4C3.07617 3.44772 3.52389 3 4.07617 3H20.0762C20.6285 3 21.0762 3.44772 21.0762 4V8C21.0762 8.55228 20.6285 9 20.0762 9H17.0762L15.9297 7.85355C15.6147 7.53857 15.8378 7 16.2833 7H19.0762V5H5.07617V7H7.86906C8.31452 7 8.5376 7.53857 8.22262 7.85355L7.07617 9H4.07617C3.52389 9 3.07617 8.55228 3.07617 8V4Z" fill="#2B2D34"/>
<path d="M5.07617 19V11H3.07617V20C3.07617 20.5523 3.52389 21 4.07617 21H20.0762C20.6285 21 21.0762 20.5523 21.0762 20V11H19.0762V19H5.07617Z" fill="#2B2D34"/>
<path d="M12.7833 7.29289C12.3928 6.90237 11.7596 6.90237 11.3691 7.29289L7.36908 11.2929L8.78329 12.7071L11.0762 10.4142V17H13.0762V10.4142L15.3691 12.7071L16.7833 11.2929L12.7833 7.29289Z" fill="#2B2D34"/>
</svg>
