<svg width="24" height="24" viewBox="0 0 24 24" fill="none" xmlns="http://www.w3.org/2000/svg">
<path d="M6.34089 17.6546L4.92612 19.0683C3.06521 17.2059 2 14.686 2 12C2 6.47715 6.47715 2 12 2C17.5228 2 22 6.47715 22 12C22 14.6867 20.9342 17.2072 19.0724 19.0697L17.6579 17.6558C19.1485 16.1646 20 14.151 20 12C20 7.58172 16.4183 4 12 4C7.58172 4 4 7.58172 4 12C4 14.1504 4.851 16.1635 6.34089 17.6546Z" fill="#2B2D34"/>
<path d="M15.2929 12.7071L16.7071 11.2929L12.7071 7.29289C12.3166 6.90237 11.6834 6.90237 11.2929 7.29289L7.29289 11.2929L8.70711 12.7071L11 10.4142V21H13V10.4142L15.2929 12.7071Z" fill="#2B2D34"/>
</svg>
