<svg width="24" height="24" viewBox="0 0 24 24" fill="none" xmlns="http://www.w3.org/2000/svg">
<path d="M22 11C22 13.7614 19.7614 16 17 16V14C18.6569 14 20 12.6569 20 11C20 9.53287 18.939 8.28719 17.5101 8.04303C17.1492 7.98136 16.8508 7.72737 16.7323 7.38093C16.0463 5.37526 14.1545 4 12 4C9.23858 4 7 6.23858 7 9C7 9.55228 6.55228 10 6 10C4.89543 10 4 10.8954 4 12C4 13.1046 4.89543 14 6 14H7V16H6C3.79086 16 2 14.2091 2 12C2 10.1161 3.30232 8.53643 5.05578 8.11209C5.49209 4.66532 8.43478 2 12 2C14.8226 2 17.3228 3.68588 18.4194 6.2044C20.51 6.82121 22 8.75435 22 11Z" fill="#2B2D34"/>
<path d="M10.9998 15.4213V22H12.9998V15.4071L14.2998 16.7071L15.714 15.2929L12.714 12.2929C12.3235 11.9024 11.6903 11.9024 11.2998 12.2929L8.2998 15.2929L9.71402 16.7071L10.9998 15.4213Z" fill="#2B2D34"/>
</svg>
