<svg width="24" height="24" viewBox="0 0 24 24" fill="none" xmlns="http://www.w3.org/2000/svg">
<path d="M12 2C12.3631 2 12.6976 2.19718 12.874 2.51465L22.874 20.5146C23.0459 20.8242 23.0417 21.2016 22.8623 21.5068C22.6826 21.8122 22.3543 22 22 22H1.99998C1.64566 22 1.31736 21.8122 1.13767 21.5068C0.958254 21.2016 0.954051 20.8242 1.12595 20.5146L11.126 2.51465C11.3023 2.19718 11.6368 2 12 2ZM3.6992 20H20.3008L12 5.05957L3.6992 20ZM12 16.25C12.6903 16.25 13.25 16.8096 13.25 17.5C13.25 18.1904 12.6903 18.75 12 18.75C11.3096 18.75 10.75 18.1904 10.75 17.5C10.75 16.8096 11.3096 16.25 12 16.25ZM13 15H11V10H13V15Z" fill="#2B2D34"/>
</svg>
