<svg width="24" height="24" viewBox="0 0 24 24" fill="none" xmlns="http://www.w3.org/2000/svg">
<path fill-rule="evenodd" clip-rule="evenodd" d="M8.02985 1.75746C8.14114 1.3123 8.54112 1 8.99999 1H15C15.4589 1 15.8588 1.3123 15.9701 1.75746L16.8083 5.11015C18.0725 5.46302 19 6.6232 19 8V16C19 17.3768 18.0725 18.537 16.8083 18.8898L15.9701 22.2425C15.8588 22.6877 15.4589 23 15 23H8.99999C8.54112 23 8.14114 22.6877 8.02985 22.2425L7.19167 18.8898C5.92745 18.537 5 17.3768 5 16V8C5 6.62321 5.92745 5.46304 7.19167 5.11016L8.02985 1.75746ZM9.28077 5H14.7192L14.2192 3H9.78077L9.28077 5ZM9.28077 19L9.78077 21H14.2192L14.7192 19H9.28077ZM7 8C7 7.44772 7.44772 7 8 7H16C16.5523 7 17 7.44772 17 8V16C17 16.5523 16.5523 17 16 17H8C7.44772 17 7 16.5523 7 16V8Z" fill="#2B2D34"/>
</svg>
