<svg width="24" height="24" viewBox="0 0 24 24" fill="none" xmlns="http://www.w3.org/2000/svg">
<path d="M11 2C11.6566 2 12.3068 2.12933 12.9134 2.3806C13.52 2.63188 14.0712 3.00017 14.5355 3.46447C14.7032 3.63214 14.8584 3.81114 15 4C15.1416 3.81114 15.2968 3.63214 15.4645 3.46447C15.9288 3.00017 16.48 2.63188 17.0866 2.3806C17.6932 2.12933 18.3434 2 19 2V4C18.606 4 18.2159 4.0776 17.8519 4.22836C17.488 4.37913 17.1573 4.6001 16.8787 4.87868C16.6001 5.15726 16.3791 5.48797 16.2284 5.85195C16.0776 6.21593 16 6.60603 16 7H14C14 6.60603 13.9224 6.21593 13.7716 5.85195C13.6209 5.48797 13.3999 5.15726 13.1213 4.87868C12.8427 4.6001 12.512 4.37913 12.1481 4.22836C11.7841 4.0776 11.394 4 11 4V2Z" fill="#2B2D34"/>
<path d="M18 16C18 16.5523 17.5523 17 17 17C16.4477 17 16 16.5523 16 16C16 15.4477 16.4477 15 17 15C17.5523 15 18 15.4477 18 16Z" fill="#2B2D34"/>
<path d="M15.1056 19.4347C15.6686 19.7163 16.3314 19.7163 16.8944 19.4347L18.2111 18.7764C19.3373 18.2133 20.6627 18.2133 21.7889 18.7764L22.4472 19.1055C22.9412 19.3525 23.1414 19.9532 22.8944 20.4472C22.6474 20.9412 22.0468 21.1414 21.5528 20.8944L20.8944 20.5652C20.3314 20.2837 19.6686 20.2837 19.1056 20.5652L17.7889 21.2236C16.6627 21.7866 15.3373 21.7866 14.2111 21.2236L12.8944 20.5652C12.3314 20.2837 11.6686 20.2837 11.1056 20.5652L9.78886 21.2236C8.66275 21.7866 7.33726 21.7866 6.21115 21.2236L4.89443 20.5652C4.33137 20.2837 3.66863 20.2837 3.10558 20.5652L2.44722 20.8944C1.95324 21.1414 1.35256 20.9412 1.10558 20.4472C0.858585 19.9532 1.05881 19.3525 1.55279 19.1055L2.21115 18.7764C3.33726 18.2133 4.66275 18.2133 5.78886 18.7764L7.10557 19.4347C7.66863 19.7163 8.33137 19.7163 8.89443 19.4347L10.2111 18.7764C11.3373 18.2133 12.6627 18.2133 13.7889 18.7764L15.1056 19.4347Z" fill="#2B2D34"/>
<path d="M2.46482 9L3 9.80278V14C3 14.6604 3.21791 15.3024 3.61994 15.8263C4.02197 16.3502 4.58564 16.7269 5.22354 16.8978C5.86144 17.0687 6.53792 17.0244 7.14805 16.7716C7.37311 16.6784 7.55076 16.5214 7.63796 16.4418C7.75152 16.3381 7.86788 16.2162 7.97867 16.0929C8.20179 15.8447 8.44884 15.539 8.67985 15.2395C9.1295 14.6567 9.59047 14.0036 9.73686 13.75C10.3422 12.7015 11.2767 11.882 12.3952 11.4187C13.5138 10.9553 14.754 10.874 15.9235 11.1874C17.093 11.5008 18.1264 12.1913 18.8634 13.1518C19.6005 14.1124 20 15.2893 20 16.5V17H22V16.5C22 14.849 21.4552 13.2441 20.4502 11.9343C19.4451 10.6245 18.0359 9.68287 16.4411 9.25556C14.8464 8.82825 13.1552 8.93909 11.6299 9.57091C10.1045 10.2027 8.83031 11.3202 8.00481 12.75C7.93106 12.8777 7.54268 13.4393 7.09632 14.0179C6.87933 14.2991 6.6667 14.5608 6.49131 14.7559C6.41057 14.8457 6.3472 14.9108 6.30178 14.9534C6.1205 15.0108 5.92599 15.0154 5.74118 14.9659C5.52855 14.909 5.34066 14.7834 5.20665 14.6088C5.07264 14.4341 5 14.2201 5 14V9.80278L5.53518 9H7C7.55228 9 8 8.55228 8 8V7L5 7C4.66565 7 4.35342 7.1671 4.16795 7.4453L4 7.69722L3.83205 7.4453C3.64658 7.1671 3.33435 7 3 7H0V8C0 8.55228 0.447715 9 1 9H2.46482Z" fill="#2B2D34"/>
</svg>
