<svg width="24" height="24" viewBox="0 0 24 24" fill="none" xmlns="http://www.w3.org/2000/svg">
<path fill-rule="evenodd" clip-rule="evenodd" d="M12 3C11.2395 3 10.4829 3.11968 9.77203 3.35524C9.06132 3.59075 8.40336 3.93983 7.83977 4.3907C7.27592 4.84178 6.81368 5.3893 6.49258 6.00948C6.32821 6.32693 6.20323 6.65893 6.1203 7H5.03078L4.97014 6.75746C4.85885 6.3123 4.45887 6 4 6H1V8H3.21922L4.96922 15L4.02986 18.7575L5.97014 19.2425L6.72381 16.2279L16.0041 17.8418C16.0014 17.8942 16 17.9469 16 18C16 19.6569 17.3431 21 19 21C20.6569 21 22 19.6569 22 18C22 16.3431 20.6569 15 19 15C18.9043 15 18.8097 15.0045 18.7163 15.0132L20.9487 8.31623C21.0503 8.01128 20.9992 7.67606 20.8112 7.41529C20.6233 7.15452 20.3214 7 20 7H17.8797C17.7968 6.65893 17.6718 6.32693 17.5074 6.00948C17.1863 5.3893 16.7241 4.84178 16.1602 4.3907C15.5966 3.93983 14.9387 3.59075 14.228 3.35524C13.5171 3.11968 12.7605 3 12 3ZM15.7667 7C15.7554 6.97629 15.7436 6.95264 15.7314 6.92906C15.5499 6.57863 15.2756 6.24423 14.9108 5.95244C14.5458 5.66044 14.1014 5.42025 13.5989 5.25372C13.0965 5.08725 12.5527 5 12 5C11.4473 5 10.9035 5.08725 10.4011 5.25372C9.89859 5.42025 9.45416 5.66044 9.08916 5.95244C8.72442 6.24423 8.45007 6.57863 8.26863 6.92906C8.25642 6.95264 8.24463 6.97629 8.23326 7H15.7667ZM18.6126 9L16.3235 15.8673L6.83507 14.2172L5.53078 9H18.6126ZM19 17C18.4477 17 18 17.4477 18 18C18 18.5523 18.4477 19 19 19C19.5523 19 20 18.5523 20 18C20 17.4477 19.5523 17 19 17Z" fill="#2B2D34"/>
</svg>
