<svg width="24" height="24" viewBox="0 0 24 24" fill="none" xmlns="http://www.w3.org/2000/svg">
<path fill-rule="evenodd" clip-rule="evenodd" d="M10.6091 4.16346L14 6.47093V12H8.66756L6 10.006C6.00086 10.8522 6.1807 11.6947 6.53482 12.4763C7.10771 13.7407 8.1013 14.7673 9.34627 15.3813C9.37364 15.3947 9.40108 15.408 9.42861 15.4211L10 15.6921V22H8.00004V16.9282C6.55623 16.0947 5.40473 14.8281 4.71309 13.3017C3.94924 11.6158 3.79357 9.71724 4.2726 7.92946C4.35846 7.60901 4.59766 7.35201 4.91113 7.24339C5.2246 7.13478 5.57153 7.1887 5.83725 7.38732L9.33245 10H12V7.5291L7.93742 4.76458C7.65294 4.571 7.48797 4.24475 7.50069 3.90089C7.5134 3.55703 7.70201 3.24386 8 3.07181C9.60288 2.14639 11.477 1.80537 13.3032 2.10687C15.1293 2.40836 16.7944 3.33371 18.0147 4.72525C19.2351 6.11678 19.9352 7.88841 19.9957 9.73826C20.0563 11.5881 19.4736 13.4017 18.3468 14.8701C17.7026 15.7097 16.9033 16.4067 16 16.9282V22H14V15.6921L14.5714 15.4211C15.4255 15.0159 16.1774 14.412 16.7601 13.6526C17.6052 12.5513 18.0422 11.1911 17.9968 9.8037C17.9514 8.41631 17.4263 7.08759 16.511 6.04394C15.5958 5.00029 14.347 4.30627 12.9774 4.08015C12.1845 3.94926 11.3796 3.97984 10.6091 4.16346Z" fill="#2B2D34"/>
</svg>
