<svg width="24" height="24" viewBox="0 0 24 24" fill="none" xmlns="http://www.w3.org/2000/svg">
<path d="M7 2C6.44772 2 6 2.44772 6 3V9H8V4H20V20H13V22H21C21.5523 22 22 21.5523 22 21V3C22 2.44772 21.5523 2 21 2H7Z" fill="#2B2D34"/>
<path fill-rule="evenodd" clip-rule="evenodd" d="M3.12602 16C3.4878 14.5944 4.59439 13.4878 6 13.126V11H8V13.126C9.40561 13.4878 10.5122 14.5944 10.874 16H13V18H10.874C10.5122 19.4056 9.40561 20.5122 8 20.874V23H6V20.874C4.59439 20.5122 3.4878 19.4056 3.12602 18H1L1 16H3.12602ZM5 17C5 15.8954 5.89543 15 7 15C8.10457 15 9 15.8954 9 17C9 18.1046 8.10457 19 7 19C5.89543 19 5 18.1046 5 17Z" fill="#2B2D34"/>
</svg>
