<svg width="24" height="24" viewBox="0 0 24 24" fill="none" xmlns="http://www.w3.org/2000/svg">
<path d="M2.99942 1C2.44746 1 2 1.44772 2 2V19H3.99884V3H17.9919V1H2.99942Z" fill="#2B2D34"/>
<path d="M5.99769 6C5.99769 5.44772 6.44514 5 6.99711 5H20.9902C21.5421 5 21.9896 5.44772 21.9896 6V15H19.9908V7H7.99653V15H5.99769V6Z" fill="#2B2D34"/>
<path d="M16.0537 23.0104H21.0006C21.2656 23.0104 21.5198 22.905 21.7073 22.7175C21.8947 22.53 22 22.2756 22 22.0104V17.0606H20.0012V19.5962L17.1744 16.7678L15.761 18.182L18.5878 21.0104H16.0537V23.0104Z" fill="#2B2D34"/>
<path d="M6.96161 16.9645H11.9085V18.9645H9.37443L12.2012 21.7929L10.7878 23.2071L7.96103 20.3787V22.9142H5.96218V17.9645C5.96218 17.6993 6.06748 17.4449 6.25491 17.2574C6.44234 17.0698 6.69654 16.9645 6.96161 16.9645Z" fill="#2B2D34"/>
</svg>
