<svg width="24" height="24" viewBox="0 0 24 24" fill="none" xmlns="http://www.w3.org/2000/svg">
<path d="M11 9V12C11 12.2652 11.1054 12.5196 11.2929 12.7071L13.2929 14.7071L14.7071 13.2929L13 11.5858V9H11Z" fill="#2B2D34"/>
<path fill-rule="evenodd" clip-rule="evenodd" d="M7 2C7 1.44772 7.44772 1 8 1H16C16.5523 1 17 1.44772 17 2V7H16.899C18.1955 8.27052 19 10.0413 19 12C19 13.9587 18.1955 15.7295 16.899 17H17V22C17 22.5523 16.5523 23 16 23H8C7.44772 23 7 22.5523 7 22V17H7.10102C5.80447 15.7295 5 13.9587 5 12C5 10.0413 5.80447 8.27052 7.10102 7H7V2ZM9 18.3264V21H15V18.3264C14.0907 18.7583 13.0736 19 12 19C10.9264 19 9.90926 18.7583 9 18.3264ZM15 3V5.67363C14.0907 5.24169 13.0736 5 12 5C10.9264 5 9.90926 5.24169 9 5.67363V3H15ZM7 12C7 9.23858 9.23858 7 12 7C14.7614 7 17 9.23858 17 12C17 14.7614 14.7614 17 12 17C9.23858 17 7 14.7614 7 12Z" fill="#2B2D34"/>
</svg>
