<svg width="24" height="24" viewBox="0 0 24 24" fill="none" xmlns="http://www.w3.org/2000/svg">
<path fill-rule="evenodd" clip-rule="evenodd" d="M7 3C7 2.44772 7.44772 2 8 2H14C14.5523 2 15 2.44772 15 3V4L19 4C19.5523 4 20 4.44772 20 5V10H18V6L15 6V8H16V10H6V8H7V6L4 6L4 20H18V22H3C2.73478 22 2.48043 21.8946 2.29289 21.7071C2.10536 21.5196 2 21.2652 2 21V5C2 4.73478 2.10536 4.48043 2.29289 4.29289C2.48043 4.10536 2.73478 4 3 4L7 4V3ZM9 8H13V4H9V8Z" fill="#2B2D34"/>
<path d="M14.2929 15.7071L17.2929 18.7071L18.7071 17.2929L17.4142 16H22V14H17.4142L18.7071 12.7071L17.2929 11.2929L14.2929 14.2929C13.9024 14.6834 13.9024 15.3166 14.2929 15.7071Z" fill="#2B2D34"/>
<path d="M6 18V16H8V18H6Z" fill="#2B2D34"/>
<path d="M10 12V14H12V12H10Z" fill="#2B2D34"/>
<path d="M10 18V16H12V18H10Z" fill="#2B2D34"/>
<path d="M6 12V14H8V12H6Z" fill="#2B2D34"/>
</svg>
