<svg width="24" height="24" viewBox="0 0 24 24" fill="none" xmlns="http://www.w3.org/2000/svg">
<path fill-rule="evenodd" clip-rule="evenodd" d="M9 2C8.44772 2 8 2.44772 8 3V4H4C3.44772 4 3 4.44772 3 5V21C3 21.5523 3.44772 22 4 22H7V20H5V6H8V8H7V10H17V8H16V6H19V20H13V22H20C20.5523 22 21 21.5523 21 21V5C21 4.44772 20.5523 4 20 4H16V3C16 2.44772 15.5523 2 15 2H9ZM14 8H10V4H14V8Z" fill="#2B2D34"/>
<path d="M17 16V18H15V16H17Z" fill="#2B2D34"/>
<path d="M17 14V12H15V14H17Z" fill="#2B2D34"/>
<path d="M9.29297 12.2929L6.29297 15.2929L7.70718 16.7071L9.00008 15.4142V23H11.0001V15.4142L12.293 16.7071L13.7072 15.2929L10.7072 12.2929C10.3167 11.9024 9.68349 11.9024 9.29297 12.2929Z" fill="#2B2D34"/>
</svg>
