<svg width="24" height="24" viewBox="0 0 24 24" fill="none" xmlns="http://www.w3.org/2000/svg">
<path fill-rule="evenodd" clip-rule="evenodd" d="M6 7C6 4.23858 8.23858 2 11 2C13.7614 2 16 4.23858 16 7C16 9.76142 13.7614 12 11 12C8.23858 12 6 9.76142 6 7ZM11 4C9.34315 4 8 5.34315 8 7C8 8.65685 9.34315 10 11 10C12.6569 10 14 8.65685 14 7C14 5.34315 12.6569 4 11 4Z" fill="#2B2D34"/>
<path d="M18 19H15V17H18V14H20V17H23V19H20V22H18V19Z" fill="#2B2D34"/>
<path d="M11.5001 13C6.08967 13 3 17.5983 3 22H5C5 18.4017 7.47308 15 11.5001 15C12.7591 15 13.839 15.3234 14.7359 15.8587L15.7609 14.1413C14.5501 13.4186 13.1152 13 11.5001 13Z" fill="#2B2D34"/>
</svg>
