<svg width="24" height="24" viewBox="0 0 24 24" fill="none" xmlns="http://www.w3.org/2000/svg">
<path fill-rule="evenodd" clip-rule="evenodd" d="M6 7C6 4.23858 8.23858 2 11 2C13.7614 2 16 4.23858 16 7C16 9.76142 13.7614 12 11 12C8.23858 12 6 9.76142 6 7ZM11 4C9.34315 4 8 5.34315 8 7C8 8.65685 9.34315 10 11 10C12.6569 10 14 8.65685 14 7C14 5.34315 12.6569 4 11 4Z" fill="#2B2D34"/>
<path d="M12 14V16H10V14H12Z" fill="#2B2D34"/>
<path d="M12 22V18H10V22H12Z" fill="#2B2D34"/>
<path d="M2.5 22C2.5 18.7013 4.21005 15.3222 7.36557 13.8047L8.23235 15.6071C5.89001 16.7336 4.5 19.3266 4.5 22H2.5Z" fill="#2B2D34"/>
<path d="M15 19H18V22H20V19H23V17H20V14H18V17H15V19Z" fill="#2B2D34"/>
</svg>
