<svg width="24" height="24" viewBox="0 0 24 24" fill="none" xmlns="http://www.w3.org/2000/svg">
<path fill-rule="evenodd" clip-rule="evenodd" d="M17.9752 4.15791L14.3711 7.80014L6.60135 15.7542C6.41319 15.9469 6.15529 16.0555 5.88601 16.0555H4.34525L3.65627 16.769L5.74603 17.8386L11.066 13.3001C11.4658 12.9591 12.0614 12.9856 12.4292 13.361L18.1965 19.2458L15.6121 10.3386C15.5121 9.99408 15.6044 9.62241 15.8538 9.3646L19.4322 5.66611L19.4332 5.66502L19.4398 5.65798C19.4473 5.65002 19.4603 5.63582 19.4776 5.61605C19.5126 5.57622 19.5635 5.51562 19.6207 5.4397C19.7403 5.28083 19.8622 5.08775 19.9362 4.89895C20.0126 4.70384 20.0029 4.60453 19.9938 4.57225C19.9906 4.56062 19.9832 4.53914 19.9524 4.50452C19.9186 4.4666 19.8452 4.40054 19.696 4.3243C18.9368 3.93654 18.4692 3.98042 18.2488 4.03668C18.1271 4.06777 18.0452 4.11192 18.0022 4.13936C17.9898 4.14728 17.9808 4.15372 17.9752 4.15791ZM13.3726 5.96572L16.5714 2.73314L16.5724 2.73206L16.5741 2.73036L16.5794 2.72507L16.5901 2.71448C16.5979 2.70695 16.6067 2.69848 16.6168 2.68919C16.6368 2.67062 16.6616 2.64867 16.691 2.62422C16.7499 2.5754 16.8281 2.5161 16.9259 2.45364C17.1218 2.3286 17.3981 2.18976 17.754 2.09887C18.489 1.91117 19.4543 1.95505 20.6057 2.54318C21.2756 2.88536 21.7396 3.3889 21.9199 4.03355C22.09 4.64171 21.9609 5.21333 21.7985 5.62816C21.6336 6.0493 21.3973 6.40517 21.2184 6.64276C21.1263 6.76507 21.0429 6.86458 20.9808 6.9353C20.9496 6.97081 20.9235 6.99949 20.9038 7.0206L20.8793 7.04662L20.871 7.05528L20.8679 7.0585L20.8666 7.05983L17.6945 10.3384L20.4251 19.7496C20.5256 20.0957 20.4319 20.4692 20.1801 20.727L19.2308 21.6988C19.0429 21.8912 18.7853 21.9998 18.5163 22C18.2473 22.0002 17.9896 21.8921 17.8013 21.6999L11.654 15.4274L6.53503 19.7945C6.22696 20.0573 5.79082 20.1083 5.43036 19.9238L1.54437 17.9347C1.26245 17.7904 1.06556 17.5211 1.01358 17.2087C0.961591 16.8963 1.06066 16.5778 1.28065 16.3499L3.2014 14.3608C3.38984 14.1657 3.64948 14.0555 3.92076 14.0555H5.46491L8.3209 11.1317L2.31053 5.83758C2.1048 5.65637 1.98249 5.39863 1.97221 5.12467C1.96193 4.8507 2.06459 4.58453 2.25616 4.38841L3.20541 3.41663C3.46689 3.14895 3.85595 3.04965 4.21373 3.15928L13.3726 5.96572ZM9.72029 9.6991L11.7958 7.57434L4.91412 5.46567L9.72029 9.6991Z" fill="#2B2D34"/>
</svg>
