<svg width="24" height="24" viewBox="0 0 24 24" fill="none" xmlns="http://www.w3.org/2000/svg">
<path d="M10 12V14H12V12H14V10H12V8H10V10H8V12H10Z" fill="#2B2D34"/>
<path fill-rule="evenodd" clip-rule="evenodd" d="M12 4H15.2192C16.137 4 16.9369 4.62459 17.1595 5.51493L17.8586 8.31126L21.4472 10.1056C21.786 10.275 22 10.6212 22 11V16C22 17.1046 21.1046 18 20 18H19.8293C19.4175 19.1652 18.3062 20 17 20C15.6938 20 14.5825 19.1652 14.1707 18H8.82929C8.41746 19.1652 7.30622 20 6 20C4.69378 20 3.58254 19.1652 3.17071 18H3C2.44772 18 2 17.5523 2 17V5C2 4.44772 2.44772 4 3 4H10V3H12V4ZM20 16H19.8293C19.4175 14.8348 18.3062 14 17 14C15.6938 14 14.5825 14.8348 14.1707 16H8.82929C8.41746 14.8348 7.30622 14 6 14C5.23165 14 4.53076 14.2889 4 14.7639V6H15.2192L16.0299 9.24254C16.1007 9.52574 16.2917 9.76387 16.5528 9.89443L20 11.618V16ZM5 17C5 16.4477 5.44772 16 6 16C6.55228 16 7 16.4477 7 17C7 17.5523 6.55228 18 6 18C5.44772 18 5 17.5523 5 17ZM17 16C16.4477 16 16 16.4477 16 17C16 17.5523 16.4477 18 17 18C17.5523 18 18 17.5523 18 17C18 16.4477 17.5523 16 17 16Z" fill="#2B2D34"/>
</svg>
