<svg width="24" height="24" viewBox="0 0 24 24" fill="none" xmlns="http://www.w3.org/2000/svg">
<path fill-rule="evenodd" clip-rule="evenodd" d="M13 6C13 3.23858 10.7614 1 8 1H3V2C3 4.76142 5.23858 7 8 7H11V8.33453C9.78347 7.97837 8.42166 8.10616 7.37318 8.59293C5.34945 9.53246 4.00098 11.4787 4.00098 13.9999C4.00098 16.9498 5.5157 19.6485 7.92189 21.2797L7.9233 21.2806C8.60477 21.7409 9.40556 21.9999 10.2481 21.9999C10.8735 21.9999 11.4688 21.8617 11.9996 21.6132C12.5306 21.8617 13.1262 21.9999 13.7514 21.9999C14.594 21.9999 15.3948 21.7409 16.0763 21.2806L16.0777 21.2797C18.4839 19.6485 19.9986 16.9498 19.9986 13.9999C19.9986 11.4787 18.6501 9.53246 16.6264 8.59293C15.5781 8.10627 14.2165 7.97842 13 8.3343V6ZM5.17071 3C5.58254 4.16519 6.69378 5 8 5H10.8293C10.4175 3.83481 9.30622 3 8 3H5.17071ZM11 13V10.4973C10.2432 10.049 9.0909 10.0005 8.21536 10.407C6.89029 11.0221 6.00098 12.2653 6.00098 13.9999C6.00098 16.2529 7.15846 18.3455 9.0433 19.6236C9.40868 19.8702 9.82208 19.9999 10.2481 19.9999C10.6992 19.9999 11.1081 19.8637 11.4352 19.6401L11.9996 19.2542L12.5639 19.6401C12.8909 19.8636 13.3002 19.9999 13.7514 19.9999C14.1775 19.9999 14.591 19.8702 14.9564 19.6236C16.8411 18.3455 17.9986 16.2529 17.9986 13.9999C17.9986 12.2653 17.1093 11.0221 15.7842 10.407C14.909 10.0006 13.7569 10.049 13 10.4968V13H11Z" fill="#2B2D34"/>
</svg>
