<svg width="24" height="24" viewBox="0 0 24 24" fill="none" xmlns="http://www.w3.org/2000/svg">
<path fill-rule="evenodd" clip-rule="evenodd" d="M3.07617 4C3.07617 3.44772 3.52389 3 4.07617 3H20.0762C20.6285 3 21.0762 3.44772 21.0762 4V8C21.0762 8.55228 20.6285 9 20.0762 9H4.07617C3.52389 9 3.07617 8.55228 3.07617 8V4ZM5.07617 5V7H19.0762V5H5.07617Z" fill="#2B2D34"/>
<path d="M5.07617 19V11H3.07617V20C3.07617 20.5523 3.52389 21 4.07617 21H20.0762C20.6285 21 21.0762 20.5523 21.0762 20V11H19.0762V19H5.07617Z" fill="#2B2D34"/>
<path d="M15.0762 11H9.07617V13H15.0762V11Z" fill="#2B2D34"/>
</svg>
