<svg width="24" height="24" viewBox="0 0 24 24" fill="none" xmlns="http://www.w3.org/2000/svg">
<path fill-rule="evenodd" clip-rule="evenodd" d="M2.55279 13.1444C3.08188 13.409 3.60334 13.6071 4 13.7414V17C4 17.1974 4.05844 17.3904 4.16795 17.5547L4.1745 17.5644L4.1686 17.5557L4.1693 17.5567L4.17084 17.559L4.1745 17.5644L4.18418 17.5785C4.19167 17.5893 4.20127 17.6029 4.213 17.6192C4.23647 17.6517 4.2685 17.6947 4.30938 17.7467C4.39111 17.8507 4.50845 17.9911 4.66361 18.1554C4.97373 18.4837 5.43682 18.9097 6.0703 19.3321C7.34553 20.1822 9.28635 21 12 21C14.7136 21 16.6545 20.1822 17.9297 19.3321C18.5632 18.9097 19.0263 18.4837 19.3364 18.1554C19.4915 17.9911 19.6089 17.8507 19.6906 17.7467C19.7315 17.6947 19.7635 17.6517 19.787 17.6192L19.794 17.6095L19.8103 17.5865L19.8158 17.5785L19.8255 17.5644L19.8292 17.559L19.8307 17.5567L19.8314 17.5557L19.8321 17.5547C19.9416 17.3904 20 17.1974 20 17V13.7414C20.3967 13.6071 20.9181 13.409 21.4472 13.1444C21.9943 12.8709 22.6002 12.5016 23.0821 12.0196C23.5661 11.5356 24 10.8588 24 10C24 9.19808 23.6166 8.36518 23.0702 7.6249C22.507 6.86184 21.6986 6.09723 20.6797 5.41795C18.6363 4.05567 15.6924 3 12 3C8.30762 3 5.36371 4.05567 3.3203 5.41795C2.30138 6.09723 1.49301 6.86184 0.929801 7.6249C0.383399 8.36518 0 9.19808 0 10C0 10.8588 0.433896 11.5356 0.917893 12.0196C1.39984 12.5016 2.00573 12.8709 2.55279 13.1444ZM2.53895 8.8126C2.1166 9.38482 2 9.80192 2 10C2 10.1412 2.0661 10.3394 2.33211 10.6054C2.60016 10.8734 2.99427 11.1291 3.44721 11.3556C3.63278 11.4484 3.81982 11.5321 4 11.6066V11C4 10.6212 4.214 10.275 4.55279 10.1056L4.55368 10.1051L4.55463 10.1047L4.55665 10.1037L4.56126 10.1014L4.5727 10.0958C4.58133 10.0917 4.59196 10.0867 4.60462 10.0808C4.62994 10.0691 4.66337 10.0542 4.70515 10.0364C4.78872 10.001 4.90564 9.95447 5.05781 9.90076C5.36221 9.79332 5.8072 9.65734 6.40807 9.52381C7.61001 9.25671 9.43314 9 12 9C14.5669 9 16.39 9.25671 17.5919 9.52381C18.1928 9.65734 18.6378 9.79332 18.9422 9.90076C19.0944 9.95447 19.2113 10.001 19.2948 10.0364C19.3366 10.0542 19.3701 10.0691 19.3954 10.0808L19.4097 10.0875L19.4273 10.0958L19.4387 10.1014L19.4433 10.1037L19.4454 10.1047L19.4463 10.1051L19.4273 10.0958L19.4472 10.1056C19.786 10.275 20 10.6212 20 11V11.6066C20.1802 11.5321 20.3672 11.4484 20.5528 11.3556C21.0057 11.1291 21.3998 10.8734 21.6679 10.6054C21.9339 10.3394 22 10.1412 22 10C22 9.80192 21.8834 9.38482 21.4611 8.8126C21.0555 8.26316 20.4264 7.65277 19.5703 7.08205C17.8637 5.94433 15.3076 5 12 5C8.69238 5 6.13628 5.94433 4.4297 7.08205C3.57362 7.65277 2.94449 8.26316 2.53895 8.8126ZM6 14.2462V11.6958C6.21463 11.6299 6.49372 11.5536 6.84193 11.4762C7.88999 11.2433 9.56686 11 12 11C14.4331 11 16.11 11.2433 17.1581 11.4762C17.5063 11.5536 17.7854 11.6299 18 11.6958V14.2462C17.6917 14.3263 17.2876 14.4227 16.8039 14.5194C15.9109 14.698 14.7526 14.8765 13.4293 14.9564C13.4752 14.8125 13.5 14.6592 13.5 14.5C13.5 13.6716 12.8284 13 12 13C11.1716 13 10.5 13.6716 10.5 14.5C10.5 14.6592 10.5248 14.8125 10.5707 14.9564C9.24736 14.8765 8.08912 14.698 7.19612 14.5194C6.71242 14.4227 6.30831 14.3263 6 14.2462ZM6 16.3061V16.6528C6.03403 16.6917 6.0732 16.7351 6.11764 16.7821C6.33877 17.0163 6.68818 17.3403 7.1797 17.6679C8.15447 18.3178 9.71365 19 12 19C14.2864 19 15.8455 18.3178 16.8203 17.6679C17.3118 17.3403 17.6612 17.0163 17.8824 16.7821C17.9268 16.7351 17.966 16.6917 18 16.6528V16.3061C17.7603 16.3624 17.4914 16.4215 17.1961 16.4806C15.8982 16.7402 14.0809 17 12 17C9.91909 17 8.1018 16.7402 6.80388 16.4806C6.50862 16.4215 6.23967 16.3624 6 16.3061Z" fill="#2B2D34"/>
</svg>
