<svg width="24" height="24" viewBox="0 0 24 24" fill="none" xmlns="http://www.w3.org/2000/svg">
<path fill-rule="evenodd" clip-rule="evenodd" d="M3.52889 20.4994C8.22299 25.1779 15.821 25.1652 20.4994 20.4711C25.1779 15.777 25.1652 8.17904 20.4711 3.50057C15.777 -1.17789 8.17904 -1.16522 3.50057 3.52889C-1.17789 8.22299 -1.16522 15.821 3.52889 20.4994ZM9.70438 10.2968L7.40766 8.00778L18.9934 7.98845L18.9901 5.98845L7.40433 6.00779L9.69339 3.71107L8.27682 2.29922L4.2835 6.30589C3.89363 6.69706 3.89468 7.33023 4.28586 7.7201L8.29253 11.7134L9.70438 10.2968ZM19.7144 16.2802L15.7077 12.2868L14.2959 13.7034L16.5926 15.9925L5.0068 16.0118L5.01014 18.0118L16.5959 17.9925L14.3068 20.2892L15.7234 21.701L19.7167 17.6944C20.1066 17.3032 20.1056 16.67 19.7144 16.2802Z" fill="#2B2D34"/>
</svg>
