<svg width="24" height="24" viewBox="0 0 24 24" fill="none" xmlns="http://www.w3.org/2000/svg">
<path fill-rule="evenodd" clip-rule="evenodd" d="M12 24C18.6274 24 24 18.6274 24 12C24 5.37258 18.6274 0 12 0C5.37258 0 0 5.37258 0 12C0 18.6274 5.37258 24 12 24ZM9.17175 12.4142H5.92911L14.1215 4.22183L12.7073 2.80762L4.51489 11L4.51489 7.75737H2.51489L2.51489 13.4142C2.51489 13.9665 2.96261 14.4142 3.51489 14.4142L9.17175 14.4142V12.4142ZM20.4855 9.58579L14.8286 9.58579V11.5858H18.0712L9.87885 19.7782L11.2931 21.1924L19.4855 13V16.2426L21.4855 16.2426V10.5858C21.4855 10.0335 21.0377 9.58579 20.4855 9.58579Z" fill="#2B2D34"/>
</svg>
