<svg width="24" height="24" viewBox="0 0 24 24" fill="none" xmlns="http://www.w3.org/2000/svg">
<path fill-rule="evenodd" clip-rule="evenodd" d="M20.0004 3.91467C20.583 3.70875 21.5005 2.50002 20.5005 1.50002C19.5005 0.500015 18.2917 1.41742 18.0858 2.00002L5.91509 2.00002C5.70917 1.41742 4.50046 0.500019 3.50046 1.50002C2.50046 2.50002 3.41785 3.70875 4.00045 3.91467L4.00045 20.0854C3.41785 20.2913 2.50045 21.5 3.50045 22.5C4.50045 23.5 5.70917 22.5826 5.91509 22H18.0858C18.2917 22.5826 19.5004 23.5 20.5004 22.5C21.5004 21.5 20.583 20.2913 20.0004 20.0854V3.91467ZM6.00045 4.00002L18.0004 4.00002V16.9868C15.0004 17 18.0004 6.00002 11.5004 6.00002C9.00045 6.00002 8.00045 8.00002 8.00045 11C8.00045 14 8.50045 15.6431 8.50045 15.6431C7.00045 16 6.27542 17.3075 6.00045 17.8638L6.00045 4.00002ZM10.5017 16.1296C11.5004 16.5 12.9254 16.1375 13.7114 15.6286L15.0004 18C15.0004 18 14.0004 18 13.5004 19H11.0004C8.8021 18.9102 8.23784 18.3456 10.5004 17H10.5017C10.5017 17 10.5061 16.3105 10.5017 16.1296ZM11.5004 14.1431C13.0004 14.1431 13.7088 12.7999 13.7088 11.1431C13.7088 9.14308 13.0004 8.14309 11.5004 8.14309C10.0004 8.14309 10.0004 9.14308 10.0004 11.1431C10.0004 13.1431 10.0004 14.1431 11.5004 14.1431Z" fill="#2B2D34"/>
</svg>
