<svg width="24" height="24" viewBox="0 0 24 24" fill="none" xmlns="http://www.w3.org/2000/svg">
<path fill-rule="evenodd" clip-rule="evenodd" d="M8 6C7.44772 6 7 6.44772 7 7V11C7 11.5523 7.44772 12 8 12H16C16.5523 12 17 11.5523 17 11V7C17 6.44772 16.5523 6 16 6H8ZM9 10V8H15V10H9Z" fill="#2B2D34"/>
<path fill-rule="evenodd" clip-rule="evenodd" d="M20 20C20.5523 20 21 19.5523 21 19L21 3C21 2.44772 20.5523 2 20 2H4C3.44772 2 3 2.44772 3 3V19C3 19.5523 3.44772 20 4 20H8V21C8 21.5523 8.44772 22 9 22H15C15.5523 22 16 21.5523 16 21V20H20ZM16 18H19L19 4L5 4L5 18H8L8 16H7V14L17 14V16H16L16 18ZM10 20L10 16L14 16L14 20H10Z" fill="#2B2D34"/>
</svg>
