<svg width="24" height="24" viewBox="0 0 24 24" fill="none" xmlns="http://www.w3.org/2000/svg">
<path d="M2 22H4L4 2L2 2L2 22Z" fill="#2B2D34"/>
<path fill-rule="evenodd" clip-rule="evenodd" d="M6 18L16 18C16 17.4747 16.1035 16.9546 16.3045 16.4693C16.5055 15.984 16.8001 15.543 17.1716 15.1716C17.543 14.8001 17.984 14.5055 18.4693 14.3045C18.9546 14.1035 19.4747 14 20 14V10C19.4747 10 18.9546 9.89654 18.4693 9.69552C17.984 9.4945 17.543 9.19986 17.1716 8.82843C16.8001 8.45699 16.5055 8.01604 16.3045 7.53073C16.1035 7.04543 16 6.52529 16 6L6 6V4L21 4C21.5523 4 22 4.44772 22 5V19C22 19.5523 21.5523 20 21 20H6L6 18ZM20 18H18C18 17.7374 18.0517 17.4773 18.1522 17.2346C18.2528 16.992 18.4001 16.7715 18.5858 16.5858C18.7715 16.4001 18.992 16.2527 19.2346 16.1522C19.4773 16.0517 19.7374 16 20 16V18ZM18 6C18 6.26264 18.0517 6.52272 18.1522 6.76537C18.2528 7.00802 18.4001 7.2285 18.5858 7.41421C18.7715 7.59993 18.992 7.74725 19.2346 7.84776C19.4773 7.94827 19.7374 8 20 8V6H18Z" fill="#2B2D34"/>
<path fill-rule="evenodd" clip-rule="evenodd" d="M6 12C6 13.2138 6.65829 14.2364 7.57157 14.9213C8.48455 15.6061 9.69998 16 11 16C12.3 16 13.5155 15.6061 14.4284 14.9213C15.3417 14.2364 16 13.2138 16 12C16 10.7862 15.3417 9.76364 14.4284 9.07868C13.5155 8.39395 12.3 8 11 8C9.69998 8 8.48455 8.39395 7.57157 9.07868C6.65829 9.76364 6 10.7862 6 12ZM11 14C10.0909 14 9.30631 13.7224 8.77157 13.3213C8.23714 12.9205 8 12.4431 8 12C8 11.5569 8.23714 11.0795 8.77157 10.6787C9.30631 10.2776 10.0909 10 11 10C11.9091 10 12.6937 10.2776 13.2284 10.6787C13.7629 11.0795 14 11.5569 14 12C14 12.4431 13.7629 12.9205 13.2284 13.3213C12.6937 13.7224 11.9091 14 11 14Z" fill="#2B2D34"/>
</svg>
