<svg width="24" height="24" viewBox="0 0 24 24" fill="none" xmlns="http://www.w3.org/2000/svg">
<path d="M2 2V4H22V2H2Z" fill="#2B2D34"/>
<path fill-rule="evenodd" clip-rule="evenodd" d="M6 6V16C6.52529 16 7.04543 16.1035 7.53073 16.3045C8.01604 16.5055 8.45699 16.8001 8.82843 17.1716C9.19986 17.543 9.4945 17.984 9.69552 18.4693C9.89654 18.9546 10 19.4747 10 20H14C14 19.4747 14.1035 18.9546 14.3045 18.4693C14.5055 17.984 14.8001 17.543 15.1716 17.1716C15.543 16.8001 15.984 16.5055 16.4693 16.3045C16.9546 16.1035 17.4747 16 18 16V6H20V21C20 21.5523 19.5523 22 19 22H5C4.44772 22 4 21.5523 4 21V6H6ZM6 20V18C6.26264 18 6.52272 18.0517 6.76537 18.1522C7.00802 18.2528 7.2285 18.4001 7.41421 18.5858C7.59993 18.7715 7.74725 18.992 7.84776 19.2346C7.94827 19.4773 8 19.7374 8 20H6ZM18 18C17.7374 18 17.4773 18.0517 17.2346 18.1522C16.992 18.2528 16.7715 18.4001 16.5858 18.5858C16.4001 18.7715 16.2528 18.992 16.1522 19.2346C16.0517 19.4773 16 19.7374 16 20H18V18Z" fill="#2B2D34"/>
<path fill-rule="evenodd" clip-rule="evenodd" d="M12 6C10.7862 6 9.76364 6.65829 9.07868 7.57157C8.39395 8.48455 8 9.69998 8 11C8 12.3 8.39395 13.5155 9.07868 14.4284C9.76364 15.3417 10.7862 16 12 16C13.2138 16 14.2364 15.3417 14.9213 14.4284C15.6061 13.5155 16 12.3 16 11C16 9.69998 15.6061 8.48455 14.9213 7.57157C14.2364 6.65829 13.2138 6 12 6ZM10 11C10 10.0909 10.2776 9.30631 10.6787 8.77157C11.0795 8.23714 11.5569 8 12 8C12.4431 8 12.9205 8.23714 13.3213 8.77157C13.7224 9.30631 14 10.0909 14 11C14 11.9091 13.7224 12.6937 13.3213 13.2284C12.9205 13.7629 12.4431 14 12 14C11.5569 14 11.0795 13.7629 10.6787 13.2284C10.2776 12.6937 10 11.9091 10 11Z" fill="#2B2D34"/>
</svg>
