<svg width="24" height="24" viewBox="0 0 24 24" fill="none" xmlns="http://www.w3.org/2000/svg">
<path fill-rule="evenodd" clip-rule="evenodd" d="M11 21V18H7.99997C7.99997 18.5523 7.55225 19 6.99997 19H2.99997C2.44768 19 1.99997 18.5523 1.99997 18V13.0198C1.99964 13.0039 1.99969 12.988 2.00013 12.9721C2.00891 12.1831 2.38801 11.4902 2.66792 11.0703C2.79512 10.8795 2.92131 10.7166 3.02533 10.5912C3.05789 10.2901 3.11918 9.94027 3.19361 9.58937C3.31004 9.04051 3.47581 8.41019 3.67629 7.80877C3.87343 7.21733 4.1193 6.60747 4.4081 6.12613C4.55135 5.88739 4.73136 5.63555 4.95601 5.43229C5.17538 5.23381 5.53001 5 5.99997 5H11V3H14.2C14.5843 3 14.9346 3.22023 15.1011 3.56656L15.8756 5.17679L17.4885 4.64815C17.8469 4.53068 18.2409 4.62484 18.5074 4.89165L20.1074 6.49325C20.375 6.76108 20.4684 7.15706 20.3487 7.51623L19.8229 9.09344L21.4472 9.90557C21.786 10.075 22 10.4212 22 10.8V13.2C22 13.5843 21.7797 13.9346 21.4334 14.1012L19.8227 14.8759L20.3504 16.4891C20.4675 16.8472 20.3735 17.2407 20.1071 17.5071L18.5071 19.1071C18.2407 19.3735 17.8472 19.4676 17.4891 19.3504L15.8759 18.8227L15.1011 20.4334C14.9346 20.7798 14.5843 21 14.2 21H11ZM13.5713 5H13V9C14.6568 9 16 10.3431 16 12C16 13.6569 14.6568 15 13 15V19H13.5713L14.0735 17.9559C14.5081 17.0522 15.5447 16.6101 16.4977 16.9219L17.5271 17.2586L18.2586 16.5272L17.9218 15.4977C17.6101 14.5447 18.0522 13.5081 18.9558 13.0735L20 12.5713V11.418L18.9285 10.8823C18.0383 10.4372 17.6108 9.40521 17.9255 8.46098L18.256 7.46976L17.5271 6.74019L16.4985 7.07731C15.5453 7.38974 14.5081 6.94769 14.0733 6.04368L13.5713 5ZM11 7H6.22567C6.19777 7.03747 6.16324 7.0882 6.12309 7.15512C5.94314 7.45503 5.7515 7.90767 5.57365 8.44123C5.39965 8.96322 5.25329 9.51862 5.15101 10H11V7ZM11 12H4.46003C4.41858 12.0547 4.37516 12.115 4.33202 12.1797C4.26666 12.2777 4.21053 12.3731 4.164 12.464L5.44719 13.1055C5.94117 13.3525 6.14139 13.9532 5.8944 14.4472C5.64741 14.9412 5.04674 15.1414 4.55276 14.8944L3.99997 14.618V17H5.99997V16H11V12ZM13 13C13.5523 13 14 12.5523 14 12C14 11.4477 13.5523 11 13 11V13Z" fill="#2B2D34"/>
</svg>
