<svg width="24" height="24" viewBox="0 0 24 24" fill="none" xmlns="http://www.w3.org/2000/svg">
<path fill-rule="evenodd" clip-rule="evenodd" d="M6.6594 4C5.85934 4 5.13626 4.47679 4.82111 5.21216L2.16171 11.4174C2.05502 11.6664 2 11.9344 2 12.2053V16C2 16.7828 2.44969 17.4605 3.10483 17.789C3.45122 19.0631 4.61619 20 6 20C7.30622 20 8.41746 19.1652 8.82929 18L15.1707 18C15.5825 19.1652 16.6938 20 18 20C19.3838 20 20.5488 19.0631 20.8952 17.789C21.5503 17.4605 22 16.7828 22 16V12.7808C22 11.863 21.3754 11.0631 20.4851 10.8405L19.1206 10.4994L20.4477 9.36191L21.2929 10.2071L22.7071 8.7929L21.2071 7.2929C20.8376 6.92341 20.246 6.90069 19.8492 7.24075L17.3216 9.40723L15.1708 5.10557C14.832 4.428 14.1395 4 13.382 4H6.6594ZM8.82929 16L15.1707 16C15.5825 14.8348 16.6938 14 18 14C18.7684 14 19.4692 14.2889 20 14.7639V12.7808L17.2037 12.0817C17.1169 12.06 17.0322 12.0326 16.95 12H4.08797L4 12.2053V14.7639C4.53076 14.2889 5.23165 14 6 14C7.30622 14 8.41746 14.8348 8.82929 16ZM15.382 10L13.382 6H12V10H15.382ZM10 6H6.6594L4.94511 10H10V6ZM18 16C17.4477 16 17 16.4477 17 17C17 17.5523 17.4477 18 18 18C18.5523 18 19 17.5523 19 17C19 16.4477 18.5523 16 18 16ZM5 17C5 16.4477 5.44772 16 6 16C6.55228 16 7 16.4477 7 17C7 17.5523 6.55228 18 6 18C5.44772 18 5 17.5523 5 17Z" fill="#2B2D34"/>
</svg>
