<svg width="24" height="24" viewBox="0 0 24 24" fill="none" xmlns="http://www.w3.org/2000/svg">
<path d="M17.6546 17.6591L19.0683 19.0739C17.2059 20.9348 14.686 22 12 22C6.47715 22 2 17.5228 2 12C2 6.47715 6.47715 2 12 2C14.6867 2 17.2072 3.06579 19.0697 4.92759L17.6558 6.34207C16.1646 4.85147 14.151 4 12 4C7.58172 4 4 7.58172 4 12C4 16.4183 7.58172 20 12 20C14.1504 20 16.1635 19.149 17.6546 17.6591Z" fill="#2B2D34"/>
<path d="M12.7071 8.70711L11.2929 7.29289L7.29289 11.2929C6.90237 11.6834 6.90237 12.3166 7.29289 12.7071L11.2929 16.7071L12.7071 15.2929L10.4142 13H21V11H10.4142L12.7071 8.70711Z" fill="#2B2D34"/>
</svg>
