<svg width="24" height="24" viewBox="0 0 24 24" fill="none" xmlns="http://www.w3.org/2000/svg">
<path fill-rule="evenodd" clip-rule="evenodd" d="M8 6.07026V4C8 2.34315 9.34315 1 11 1H13C14.6569 1 16 2.34315 16 4V6.07026C18.3912 7.4535 20 10.0389 20 13V21C20 21.5523 19.5523 22 19 22H5C4.44772 22 4 21.5523 4 21V13C4 10.0389 5.60879 7.4535 8 6.07026ZM10 4C10 3.44772 10.4477 3 11 3H13C13.5523 3 14 3.44772 14 4V5.25204C13.3608 5.08751 12.6906 5 12 5C11.3094 5 10.6392 5.08751 10 5.25204V4ZM6 13C6 11.9947 6.24723 11.0472 6.68421 10.2149L7.59548 12.9487C8.00382 14.1737 9.15024 15 10.4415 15H11V17H13V15H13.5585C14.8498 15 15.9962 14.1737 16.4045 12.9487L17.3158 10.2149C17.7528 11.0472 18 11.9947 18 13V20H6V13ZM13 13H13.5585C13.9889 13 14.3711 12.7246 14.5072 12.3162L15.8213 8.37399C14.7834 7.51573 13.4519 7 12 7C10.5481 7 9.2166 7.51572 8.17876 8.37397L9.49285 12.3162C9.62896 12.7246 10.0111 13 10.4415 13H11V11H13V13Z" fill="#2B2D34"/>
</svg>
