<svg width="24" height="24" viewBox="0 0 24 24" fill="none" xmlns="http://www.w3.org/2000/svg">
<path d="M14.7808 20.8753L13.6767 19.4952L15.3162 18.9487L14.6837 17.0513L12.9999 17.6126V16H10.9999L10.9999 17.6126L9.31617 17.0513L8.68372 18.9487L10.3232 19.4952L9.21908 20.8753L10.7808 22.1247L11.9999 20.6008L13.2191 22.1247L14.7808 20.8753Z" fill="#2B2D34"/>
<path d="M5.67671 19.4952L6.78081 20.8753L5.21907 22.1247L3.99994 20.6008L2.78081 22.1247L1.21907 20.8753L2.32318 19.4952L0.683716 18.9487L1.31617 17.0513L2.99994 17.6126V16H4.99994L4.99994 17.6126L6.68372 17.0513L7.31617 18.9487L5.67671 19.4952Z" fill="#2B2D34"/>
<path d="M22.7808 20.8753L21.6767 19.4952L23.3162 18.9487L22.6837 17.0513L20.9999 17.6126V16H18.9999V17.6126L17.3162 17.0513L16.6837 18.9487L18.3232 19.4952L17.2191 20.8753L18.7808 22.1247L19.9999 20.6008L21.2191 22.1247L22.7808 20.8753Z" fill="#2B2D34"/>
<path fill-rule="evenodd" clip-rule="evenodd" d="M8.40754 2.9934L6.70705 1.29291L5.29283 2.70712L6.67606 4.09034C6.38643 4.30407 6.11348 4.52034 5.85976 4.73178C5.06958 5.39026 4.41409 6.04603 3.95639 6.53643C3.72693 6.78228 3.54564 6.98822 3.42037 7.13437C3.3577 7.20748 3.21907 7.37531 3.21907 7.37531C2.9269 7.74052 2.92768 8.26045 3.21985 8.62567C3.21985 8.62567 3.3577 8.79252 3.42037 8.86563C3.54564 9.01178 3.72693 9.21772 3.95639 9.46357C4.41409 9.95397 5.06958 10.6097 5.85976 11.2682C7.39277 12.5457 9.62794 14 11.9999 14C13.2649 14 14.4909 13.5864 15.5923 13.0066L17.2928 14.7071L18.707 13.2929L17.3238 11.9097C17.6134 11.6959 17.8864 11.4797 18.1401 11.2682C18.9303 10.6097 19.5858 9.95397 20.0435 9.46357C20.273 9.21772 20.4542 9.01178 20.5795 8.86563C20.6402 8.79478 20.7398 8.67437 20.7767 8.62971L20.78 8.62567C21.0722 8.26045 21.0726 7.74009 20.7805 7.37488L20.7723 7.36535C20.6393 7.2102 20.2682 6.77715 20.0435 6.53643C19.5858 6.04603 18.9303 5.39026 18.1401 4.73178C16.6071 3.45427 14.3719 2 11.9999 2C10.735 2 9.50893 2.41359 8.40754 2.9934ZM7.14013 6.26822C7.45102 6.00915 7.77528 5.75801 8.10879 5.52308L14.0951 11.5094C13.3941 11.8149 12.6849 12 11.9999 12C10.3719 12 8.60711 10.9543 7.14013 9.73178C6.4303 9.14026 5.83579 8.54603 5.4185 8.09893C5.38687 8.06505 5.3563 8.03205 5.32681 8C5.3563 7.96795 5.38687 7.93495 5.4185 7.90107C5.83579 7.45397 6.4303 6.85974 7.14013 6.26822ZM9.90477 4.49063L15.8911 10.4769C16.2246 10.242 16.5489 9.99086 16.8598 9.73178C17.5696 9.14026 18.1641 8.54603 18.5814 8.09893C18.613 8.06505 18.6436 8.03205 18.6731 8C18.6436 7.96795 18.613 7.93495 18.5814 7.90107C18.1641 7.45397 17.5696 6.85974 16.8598 6.26822C15.3928 5.04573 13.6279 4 11.9999 4C11.315 4 10.6058 4.18512 9.90477 4.49063Z" fill="#2B2D34"/>
</svg>
