<svg width="24" height="24" viewBox="0 0 24 24" fill="none" xmlns="http://www.w3.org/2000/svg">
<path d="M5.67671 10.4952L6.78081 11.8753L5.21907 13.1247L3.99994 11.6008L2.78081 13.1247L1.21907 11.8753L2.32318 10.4952L0.683716 9.94868L1.31617 8.05132L2.99994 8.61257V7H4.99994L4.99994 8.61257L6.68372 8.05132L7.31617 9.94868L5.67671 10.4952Z" fill="#2B2D34"/>
<path d="M14.7808 11.8753L13.6767 10.4952L15.3162 9.94868L14.6837 8.05132L12.9999 8.61257V7H10.9999L10.9999 8.61257L9.31617 8.05132L8.68372 9.94868L10.3232 10.4952L9.21908 11.8753L10.7808 13.1247L11.9999 11.6008L13.2191 13.1247L14.7808 11.8753Z" fill="#2B2D34"/>
<path d="M6.99993 15L0.999925 15.0001L0.999953 17.0001L6.99995 17L6.99993 15Z" fill="#2B2D34"/>
<path d="M14.9999 15L8.99993 15.0001L8.99995 17.0001L15 17L14.9999 15Z" fill="#2B2D34"/>
<path d="M16.9999 15.0001L22.9999 15L23 17L17 17.0001L16.9999 15.0001Z" fill="#2B2D34"/>
<path d="M22.7808 11.8753L21.6767 10.4952L23.3162 9.94868L22.6837 8.05132L20.9999 8.61257V7H18.9999V8.61257L17.3162 8.05132L16.6837 9.94868L18.3232 10.4952L17.2191 11.8753L18.7808 13.1247L19.9999 11.6008L21.2191 13.1247L22.7808 11.8753Z" fill="#2B2D34"/>
</svg>
