<svg width="24" height="24" viewBox="0 0 24 24" fill="none" xmlns="http://www.w3.org/2000/svg">
<path fill-rule="evenodd" clip-rule="evenodd" d="M17.5 3.20575C15.9934 2.33592 14.1976 2.13498 12.4632 2.6018C10.7333 3.06741 9.17732 4.16447 8.06413 5.66496C6.95094 7.16544 6.33621 8.99355 6.34618 10.8205C6.35332 12.127 6.45214 13.4149 7.1366 14.5776L5.78353 15.6423C5.52275 15.8475 5.38075 16.1687 5.40447 16.4997C5.42819 16.8306 5.61455 17.1283 5.90191 17.2942L7.30339 18.1034C7.06669 18.2741 6.79249 18.4583 6.4855 18.6425C5.32411 19.3394 3.75411 20 2 20V22C4.24589 22 6.17589 21.1607 7.5145 20.3575C8.18887 19.9529 8.72852 19.5483 9.10199 19.2427C9.1267 19.2225 9.15071 19.2027 9.174 19.1833L11.0981 20.2942C11.3854 20.4601 11.7364 20.4727 12.0349 20.3277C12.3334 20.1828 12.5405 19.8992 12.5878 19.5708L12.8334 17.8666C14.1825 17.8781 15.3473 17.3197 16.4823 16.6726C18.0695 15.7678 19.3453 14.3213 20.0882 12.607C20.831 10.8927 21.0031 8.99669 20.5414 7.26577C20.0785 5.53035 19.0066 4.07558 17.5 3.20575ZM12.983 4.53306C14.2411 4.19444 15.4853 4.35199 16.5 4.9378C17.5146 5.52362 18.2732 6.52237 18.609 7.78123C18.946 9.04458 18.8305 10.4793 18.2531 11.8118C17.6756 13.1443 16.6885 14.2529 15.4918 14.9351C14.1336 15.7094 13.2462 16.0282 12.2066 15.7887L11.1473 15.5446L10.8189 17.8236L8.18107 16.3007L9.9906 14.8768L9.24961 14.0815C8.52233 13.3008 8.35469 12.373 8.34615 10.8096C8.33863 9.43204 8.8051 8.02291 9.67036 6.8566C10.5356 5.69031 11.7204 4.8729 12.983 4.53306Z" fill="#2B2D34"/>
</svg>
