<svg width="24" height="24" viewBox="0 0 24 24" fill="none" xmlns="http://www.w3.org/2000/svg">
<path d="M17.6402 1.23178C17.2693 0.92274 16.7307 0.92274 16.3598 1.23178L10.3598 6.23178C10.1318 6.42177 10 6.70322 10 7V8H12V7.46838L17 3.30171L22 7.46838V9H21V13H19V9H17V13H16V15H22C22.5523 15 23 14.5523 23 14V9L24 9V7C24 6.70322 23.8682 6.42178 23.6402 6.23178L17.6402 1.23178Z" fill="#2B2D34"/>
<path fill-rule="evenodd" clip-rule="evenodd" d="M7.44721 8.10557C7.16569 7.96481 6.83431 7.96481 6.55279 8.10557L0.552787 11.1056C0.214003 11.275 0 11.6212 0 12V13C0 13.2652 0.105357 13.5196 0.292894 13.7071C0.48043 13.8946 0.734784 14 1 14L13 14C13.5523 14 14 13.5523 14 13V12C14 11.6212 13.786 11.275 13.4472 11.1056L7.44721 8.10557ZM10.7639 12L3.23607 12L7 10.118L10.7639 12Z" fill="#2B2D34"/>
<path d="M0 20V22H14V20H12V16H10V20H8L8 16H6L6 20H4L4 16H2L2 20H0Z" fill="#2B2D34"/>
</svg>
