<svg width="24" height="24" viewBox="0 0 24 24" fill="none" xmlns="http://www.w3.org/2000/svg">
<path fill-rule="evenodd" clip-rule="evenodd" d="M9.20711 13.7929L12.7071 17.2929C12.8946 17.4804 13 17.7348 13 18C13 18.2652 12.8946 18.5196 12.7071 18.7071L9.20711 22.2071L7.79289 20.7929L9.58579 19H2V17H9.58579L7.79289 15.2071L9.20711 13.7929Z" fill="#2B2D34"/>
<path d="M11 10H13V13H11V10Z" fill="#2B2D34"/>
<path d="M15 14H17V16H15V14Z" fill="#2B2D34"/>
<path d="M15 18H17V20H15V18Z" fill="#2B2D34"/>
<path d="M15 2H11V6H8C7.44772 6 7 6.44772 7 7V10H3C2.44772 10 2 10.4477 2 11V15H4V12H8C8.55228 12 9 11.5523 9 11V8H15V11C15 11.5523 15.4477 12 16 12H20V21H22V11C22 10.4477 21.5523 10 21 10H17V7C17 6.44772 16.5523 6 16 6H13V4H15V2Z" fill="#2B2D34"/>
</svg>
