<svg width="24" height="24" viewBox="0 0 24 24" fill="none" xmlns="http://www.w3.org/2000/svg">
<path d="M15 2H11V6H8C7.44772 6 7 6.44772 7 7V10H3C2.44772 10 2 10.4477 2 11V22H4V12H8C8.55228 12 9 11.5523 9 11V8H15V11C15 11.5523 15.4477 12 16 12H20V22H22V11C22 10.4477 21.5523 10 21 10H17V7C17 6.44772 16.5523 6 16 6H13V4H15V2Z" fill="#2B2D34"/>
<path d="M11 10H13V12H11V10Z" fill="#2B2D34"/>
<path d="M17 20V18H15V20H17Z" fill="#2B2D34"/>
<path d="M11 18H13V22H11V18Z" fill="#2B2D34"/>
<path d="M9 18H7V20H9V18Z" fill="#2B2D34"/>
<path d="M17 14V16H15V14H17Z" fill="#2B2D34"/>
<path d="M13 14H11V16H13V14Z" fill="#2B2D34"/>
<path d="M7 14H9V16H7V14Z" fill="#2B2D34"/>
</svg>
