<svg width="24" height="24" viewBox="0 0 24 24" fill="none" xmlns="http://www.w3.org/2000/svg">
<path d="M4 4C4 2.89543 4.89543 2 6 2H18C19.1046 2 20 2.89543 20 4V8H18V4H6V8H14V10H6V14H11V16H6V20H11V22H6C4.89543 22 4 21.1046 4 20V16H2V14H4V10H2V8H4V4Z" fill="#2B2D34"/>
<path fill-rule="evenodd" clip-rule="evenodd" d="M17 10C16.6962 10 16.4089 10.1381 16.2191 10.3753L16.2153 10.3801L16.2057 10.3922L16.1702 10.437C16.1395 10.4759 16.095 10.5325 16.0388 10.6048C15.9263 10.7494 15.7665 10.9572 15.575 11.2125C15.1928 11.7221 14.6813 12.4253 14.1679 13.1953C13.657 13.9617 13.1318 14.8128 12.7306 15.6153C12.3517 16.3731 12 17.2452 12 18C12 19.4308 12.8601 20.4351 13.5598 21.0182C13.9203 21.3186 14.2758 21.5402 14.5394 21.6867C14.6723 21.7605 14.7848 21.8169 14.8669 21.856C14.9081 21.8756 14.9418 21.8909 14.9669 21.9021L14.998 21.9157L15.0085 21.9202L15.0124 21.9218L15.0154 21.9231C15.4912 22.1213 16.0398 21.9254 16.2824 21.4706L17 20.125L17.7176 21.4706C17.9602 21.9254 18.5088 22.1213 18.9846 21.9231L18.986 21.9225L18.9876 21.9218L18.9915 21.9202L19.002 21.9157L19.0331 21.9021C19.0582 21.8909 19.0919 21.8756 19.1331 21.856C19.2152 21.8169 19.3277 21.7605 19.4606 21.6867C19.7242 21.5402 20.0797 21.3186 20.4402 21.0182C21.1399 20.4351 22 19.4308 22 18C22 17.2452 21.6483 16.3731 21.2694 15.6153C20.8682 14.8128 20.343 13.9617 19.8321 13.1953C19.3187 12.4253 18.8072 11.7221 18.425 11.2125C18.2335 10.9572 18.0737 10.7494 17.9612 10.6048C17.905 10.5325 17.8605 10.4759 17.8298 10.437L17.7943 10.3922L17.7847 10.3801L17.7809 10.3753C17.5911 10.1381 17.3038 10 17 10ZM14.8402 19.4818C14.8956 19.528 14.9513 19.5717 15.0065 19.6129L16.1176 17.5294C16.2914 17.2035 16.6307 17 17 17C17.3693 17 17.7086 17.2035 17.8824 17.5294L18.9935 19.6129C19.0487 19.5717 19.1044 19.528 19.1598 19.4818C19.6601 19.0649 20 18.5692 20 18C20 17.7548 19.8517 17.2519 19.4806 16.5097C19.1318 15.8122 18.657 15.0383 18.1679 14.3047C17.755 13.6853 17.3407 13.1077 17 12.6474C16.6593 13.1077 16.245 13.6853 15.8321 14.3047C15.343 15.0383 14.8682 15.8122 14.5194 16.5097C14.1483 17.2519 14 17.7548 14 18C14 18.5692 14.3399 19.0649 14.8402 19.4818Z" fill="#2B2D34"/>
</svg>
