<svg width="24" height="24" viewBox="0 0 24 24" fill="none" xmlns="http://www.w3.org/2000/svg">
<path d="M11 13V17H13V13H11Z" fill="#2B2D34"/>
<path d="M15 17V13H17V17H15Z" fill="#2B2D34"/>
<path d="M7.00002 13V17H9.00002V13H7.00002Z" fill="#2B2D34"/>
<path fill-rule="evenodd" clip-rule="evenodd" d="M5.41424 9L10.7071 3.70712L9.29291 2.29291L2.29741 9.2884C2.27262 9.31289 2.24899 9.33878 2.22667 9.36601C2.03673 9.5977 1.96067 9.90234 2.01943 10.1961L4.01943 20.1961C4.11291 20.6635 4.52333 21 5.00001 21H19C19.4767 21 19.8871 20.6635 19.9806 20.1961L21.9806 10.1961C22.0393 9.90234 21.9633 9.5977 21.7734 9.36601C21.7514 9.3392 21.7281 9.31369 21.7038 9.28954L14.7071 2.29291L13.2929 3.70712L18.5858 9H5.41424ZM5.81981 19L4.21981 11H19.7802L18.1802 19H5.81981Z" fill="#2B2D34"/>
</svg>
