<svg width="24" height="24" viewBox="0 0 24 24" fill="none" xmlns="http://www.w3.org/2000/svg">
<path d="M7.49994 12C8.32837 12 8.99994 11.3284 8.99994 10.5C8.99994 9.67155 8.32837 8.99997 7.49994 8.99997C6.67151 8.99997 5.99994 9.67155 5.99994 10.5C5.99994 11.3284 6.67151 12 7.49994 12Z" fill="#2B2D34"/>
<path d="M17.9999 10.5C17.9999 11.3284 17.3284 12 16.4999 12C15.6715 12 14.9999 11.3284 14.9999 10.5C14.9999 9.67155 15.6715 8.99997 16.4999 8.99997C17.3284 8.99997 17.9999 9.67155 17.9999 10.5Z" fill="#2B2D34"/>
<path d="M11.9999 16C12.5522 16 12.9999 15.5523 12.9999 15C12.9999 14.4477 12.5522 14 11.9999 14C11.4477 14 10.9999 14.4477 10.9999 15C10.9999 15.5523 11.4477 16 11.9999 16Z" fill="#2B2D34"/>
<path fill-rule="evenodd" clip-rule="evenodd" d="M17.9748 3.70711C19.1464 2.53554 21.0459 2.53554 22.2175 3.70711C23.389 4.87868 23.389 6.77818 22.2175 7.94975L21.4488 8.71838C21.8058 9.74635 21.9999 10.8506 21.9999 12C21.9999 16.8939 18.4844 20.9668 13.8409 21.8309C13.4757 21.9408 13.0878 22 12.685 22H11.3149C10.912 22 10.5242 21.9408 10.159 21.8309C5.51551 20.9668 1.99994 16.8939 1.99994 12C1.99994 10.8715 2.18705 9.78647 2.53177 8.77447L1.70705 7.94975C0.535476 6.77818 0.535476 4.87868 1.70705 3.70711C2.87862 2.53554 4.77812 2.53554 5.94969 3.70711L6.18501 3.94243C7.4731 3.2424 8.99463 3.24286 10.2859 3.55573L10.8225 3.68575C11.5963 3.87322 12.4036 3.87322 13.1773 3.68575L13.714 3.55573C14.9889 3.24682 16.4882 3.24246 17.7658 3.91615L17.9748 3.70711ZM19.9999 12C19.9999 14.6823 18.6798 17.0563 16.6538 18.5077C16.691 18.2138 16.696 17.9105 16.6651 17.602L16.2935 13.8856C16.0729 11.6798 14.2168 9.99997 11.9999 9.99997C9.78312 9.99997 7.92697 11.6798 7.70639 13.8856L7.33475 17.602C7.3039 17.9105 7.30884 18.2138 7.34605 18.5077C5.32006 17.0563 3.99994 14.6823 3.99994 12C3.99994 9.61788 5.03979 7.47994 6.69361 6.01294C7.43622 5.35421 8.58417 5.20127 9.81496 5.49949L10.3516 5.6295C11.4348 5.89197 12.5651 5.89197 13.6483 5.6295L14.1849 5.49949C15.4157 5.20127 16.5637 5.35421 17.3063 6.01294C18.9601 7.47994 19.9999 9.61788 19.9999 12ZM11.9999 20C12.461 20 12.9129 19.961 13.3526 19.8861C14.1941 19.5884 14.7694 18.7447 14.6751 17.801L14.3034 14.0846C14.1851 12.9012 13.1893 12 11.9999 12C10.8106 12 9.81481 12.9012 9.69647 14.0846L9.32483 17.801C9.23045 18.7447 9.8058 19.5884 10.6473 19.8861C11.087 19.961 11.5389 20 11.9999 20ZM4.64201 5.22786L4.53548 5.12132C4.14495 4.7308 3.51179 4.7308 3.12126 5.12132C2.73074 5.51185 2.73074 6.14501 3.12126 6.53554L3.42997 6.84424C3.77951 6.26439 4.18615 5.72298 4.64201 5.22786ZM20.8032 6.53554L20.5415 6.79732C20.189 6.2199 19.7798 5.68109 19.3216 5.18872L19.389 5.12132C19.7795 4.7308 20.4127 4.7308 20.8032 5.12132C21.1938 5.51185 21.1938 6.14501 20.8032 6.53554Z" fill="#2B2D34"/>
</svg>
