<svg width="24" height="24" viewBox="0 0 24 24" fill="none" xmlns="http://www.w3.org/2000/svg">
<path fill-rule="evenodd" clip-rule="evenodd" d="M15.2373 3.35363C15.4273 3.12933 15.7064 3 16.0003 3H19.5003C21.1572 3 22.5003 4.34315 22.5003 6C22.5003 7.65685 21.1572 9 19.5003 9H19.0003V7H19.5003C20.0526 7 20.5003 6.55228 20.5003 6C20.5003 5.44771 20.0526 5 19.5003 5H17.1808L18.1814 11.0032C20.8588 11.0987 23 13.2993 23 16C23 18.7614 20.7614 21 18 21C15.2386 21 13 18.7614 13 16C13 14.6805 13.5111 13.4804 14.3462 12.5868L10.7809 14.5315C10.9233 14.9959 11 15.489 11 16C11 18.7614 8.76142 21 6 21C3.23858 21 1 18.7614 1 16C1 13.2386 3.23858 11 6 11C6.42381 11 6.8353 11.0527 7.22828 11.152L6.09008 8.41622L5.38197 7H2V5H6C6.37877 5 6.72504 5.214 6.89443 5.55279L7.61803 7H15.4866L15.0139 4.1644C14.9656 3.87445 15.0473 3.57792 15.2373 3.35363ZM5.52148 15.1221L8.00437 13.7678C7.4731 13.2904 6.77047 13 6 13C4.34315 13 3 14.3431 3 16C3 17.6569 4.34315 19 6 19C7.65685 19 9 17.6569 9 16C9 15.8378 8.98713 15.6787 8.96236 15.5235L6.47919 16.8779L5.52148 15.1221ZM16.5489 13.3737C15.6253 13.8851 15 14.8695 15 16C15 17.6569 16.3431 19 18 19C19.6569 19 21 17.6569 21 16C21 14.5211 19.9299 13.2921 18.5217 13.0452L18.9869 15.8356L17.0141 16.1644L16.5489 13.3737ZM15.897 9.46273L10.0244 12.666L8.49915 9H15.8199L15.897 9.46273Z" fill="#2B2D34"/>
</svg>
