<svg width="24" height="24" viewBox="0 0 24 24" fill="none" xmlns="http://www.w3.org/2000/svg">
<path fill-rule="evenodd" clip-rule="evenodd" d="M13.0275 18C13.2762 20.25 15.1837 22 17.5 22C19.9853 22 22 19.9853 22 17.5C22 17.2714 21.9829 17.0467 21.95 16.8272L21.9839 16.8211L20.2825 7.46332C20.0641 6.26241 19.149 5.33763 18 5.07519V5C18 3.34313 16.6568 1.99998 15 2L14.4721 2.00001C14.0064 2.00001 13.5471 2.10845 13.1305 2.31672L12 2.88198L10.8695 2.31673C10.4529 2.10845 9.9936 2.00001 9.52786 2.00001H9C7.34314 2.00001 6 3.34316 6 5.00001V5.07519C4.85096 5.33763 3.93589 6.26241 3.71754 7.46332L2.01613 16.8211L2.04995 16.8272C2.01705 17.0467 2 17.2714 2 17.5C2 19.9853 4.01472 22 6.5 22C8.81628 22 10.7238 20.25 10.9725 18H11V12H13V18H13.0275ZM15 4L14.4721 4.00001C14.3169 4.00001 14.1638 4.03615 14.0249 4.10558L13 4.61805V5.99998H11V4.61805L9.97508 4.10559C9.83622 4.03616 9.68311 4.00001 9.52786 4.00001H9C8.44771 4.00001 8 4.44773 8 5.00001V5.99998C8 6.55226 7.55228 6.99998 7 6.99998H6.66915C6.18587 6.99998 5.77173 7.3456 5.68528 7.82109L4.67345 13.3861C5.23165 13.1379 5.84971 13 6.5 13C7.42507 13 8.28495 13.2791 9 13.7578V11C9 10.4477 9.44772 10 10 10H14C14.5523 10 15 10.4477 15 11V13.7578C15.715 13.2791 16.5749 13 17.5 13C18.1503 13 18.7684 13.1379 19.3265 13.3861L18.3147 7.82109C18.2283 7.3456 17.8141 6.99998 17.3308 6.99998H17C16.4477 6.99998 16 6.55226 16 5.99998V5C16 4.44771 15.5523 3.99999 15 4ZM15 17.5C15 16.1193 16.1193 15 17.5 15C18.8807 15 20 16.1193 20 17.5C20 18.8807 18.8807 20 17.5 20C16.1193 20 15 18.8807 15 17.5ZM9 17.5C9 16.1193 7.88071 15 6.5 15C5.11929 15 4 16.1193 4 17.5C4 18.8807 5.11929 20 6.5 20C7.88071 20 9 18.8807 9 17.5Z" fill="#2B2D34"/>
</svg>
