<svg width="24" height="24" viewBox="0 0 24 24" fill="none" xmlns="http://www.w3.org/2000/svg">
<path fill-rule="evenodd" clip-rule="evenodd" d="M5.00001 3C5.00001 2.44772 5.44772 2 6.00001 2H10C10.5523 2 11 2.44772 11 3V5H13V3C13 2.44772 13.4477 2 14 2H18C18.5523 2 19 2.44772 19 3V5H20C20.5012 5 20.925 5.37103 20.9912 5.86784L22.9912 20.8678C23.0293 21.1536 22.9423 21.4418 22.7524 21.6587C22.5625 21.8756 22.2883 22 22 22H14C13.719 22 13.451 21.8818 13.2616 21.6743C13.0721 21.4669 12.9787 21.1893 13.0041 20.9095L13.905 11H10.095L10.9959 20.9095C11.0213 21.1893 10.9279 21.4669 10.7384 21.6743C10.549 21.8818 10.281 22 10 22H2.00001C1.71175 22 1.43751 21.8756 1.24762 21.6587C1.05774 21.4418 0.970681 21.1536 1.00878 20.8678L3.00878 5.86784C3.07502 5.37103 3.4988 5 4.00001 5H5.00001V3ZM7.00001 4V6C7.00001 6.55228 6.55229 7 6.00001 7H4.87552L3.67552 16H8.54134L8.00411 10.0905C7.97868 9.81073 8.07212 9.53313 8.26158 9.32566C8.45105 9.11819 8.71905 9 9.00001 9H15C15.281 9 15.549 9.11819 15.7384 9.32566C15.9279 9.53313 16.0213 9.81073 15.9959 10.0905L15.4587 16H20.3245L19.1245 7H18C17.4477 7 17 6.55228 17 6V4H15V6C15 6.55228 14.5523 7 14 7H10C9.44772 7 9.00001 6.55228 9.00001 6V4H7.00001ZM20.5912 18H15.2769L15.095 20H20.8578L20.5912 18ZM8.72316 18H3.40886L3.14219 20H8.90497L8.72316 18Z" fill="#2B2D34"/>
</svg>
