<svg width="24" height="24" viewBox="0 0 24 24" fill="none" xmlns="http://www.w3.org/2000/svg">
<path fill-rule="evenodd" clip-rule="evenodd" d="M4 4C4 3.44772 4.44772 3 5 3H19C19.5523 3 20 3.44772 20 4V21C20 21.4045 19.7564 21.7691 19.3827 21.9239C19.009 22.0787 18.5789 21.9931 18.2929 21.7071L12 16.4142L5.70711 21.7071C5.42111 21.9931 4.99099 22.0787 4.61732 21.9239C4.24364 21.7691 4 21.4045 4 21V4ZM6 5V18.5858L11.2929 14.2929C11.6834 13.9024 12.3166 13.9024 12.7071 14.2929L18 18.5858V5H6Z" fill="#2B2D34"/>
</svg>
