<svg width="24" height="24" viewBox="0 0 24 24" fill="none" xmlns="http://www.w3.org/2000/svg">
<path fill-rule="evenodd" clip-rule="evenodd" d="M7.84202 1.56027C7.32304 1.37138 6.7492 1.63897 6.56031 2.15795L2.11405 14.374C1.92515 14.8929 2.19274 15.4668 2.71172 15.6557L6.47049 17.0237C6.98947 17.2126 7.56331 16.9451 7.7522 16.4261L11 7.50282V16C11 16.5523 11.4477 17 12 17H20C20.5523 17 21 16.5523 21 16V2.99999C21 2.44771 20.5523 1.99999 20 1.99999H12C11.5435 1.99999 11.1585 2.30582 11.0386 2.72375L7.84202 1.56027ZM4.33545 14.1183L8.09767 3.78168L9.97706 4.46572L6.21484 14.8023L4.33545 14.1183ZM17 15V3.99999H19V15H17ZM15 3.99999V15H13V3.99999H15Z" fill="#2B2D34"/>
<path d="M2 21H5V23H7V21H17V23H19V21H22V19H2V21Z" fill="#2B2D34"/>
</svg>
