<svg width="24" height="24" viewBox="0 0 24 24" fill="none" xmlns="http://www.w3.org/2000/svg">
<path fill-rule="evenodd" clip-rule="evenodd" d="M6.12602 7C6.57006 5.27477 8.13616 4 10 4H13.6667C14.7009 4 15.5781 4.67294 15.884 5.60486C16.4978 5.22152 17.223 5 18 5C20.2091 5 22 6.79086 22 9V16C22 18.2091 20.2091 20 18 20L17.9912 20C16.878 20 14.0885 20 11.5661 19.745C10.311 19.618 9.05747 19.4222 8.09464 19.1065C7.61822 18.9503 7.14122 18.7422 6.76486 18.4474C6.61088 18.3268 6.45785 18.1779 6.32959 18H3C2.44772 18 2 17.5523 2 17V8C2 7.44772 2.44772 7 3 7H6.12602ZM8 8C8 6.89543 8.89543 6 10 6H13.6667C13.8508 6 14 6.14924 14 6.33333V11H13C12.4477 11 12 10.5523 12 10V8H10V10C10 11.6569 11.3431 13 13 13H14V16C14 16.7038 14.1818 17.3652 14.5009 17.9397C13.615 17.9038 12.671 17.8465 11.7673 17.7551C10.5502 17.632 9.47031 17.4528 8.71786 17.2061C8.33872 17.0817 8.11298 16.9623 8 16.8744V8ZM16 9V16C16 17.1046 16.8954 18 18 18C19.1046 18 20 17.1046 20 16V9C20 7.89543 19.1046 7 18 7C16.8954 7 16 7.89543 16 9ZM4 16V9H6V16H4Z" fill="#2B2D34"/>
</svg>
