<svg width="24" height="24" viewBox="0 0 24 24" fill="none" xmlns="http://www.w3.org/2000/svg">
<path fill-rule="evenodd" clip-rule="evenodd" d="M11.5144 3.12584C11.8164 2.95805 12.1836 2.95805 12.4856 3.12584L21.4856 8.12584C21.8031 8.30221 22 8.63683 22 9V11C22 11.5523 21.5523 12 21 12H3C2.44772 12 2 11.5523 2 11V9C2 8.63683 2.19689 8.30221 2.51436 8.12584L11.5144 3.12584ZM4 9.5884V10H20V9.5884L12 5.14396L4 9.5884Z" fill="#2B2D34"/>
<path d="M8.58588 19H2V17H8.58585L6.79297 15.2071L8.20718 13.7929L11.7072 17.2929C12.0977 17.6834 12.0977 18.3166 11.7072 18.7071L8.20718 22.2071L6.79297 20.7929L8.58588 19Z" fill="#2B2D34"/>
<path d="M14 15H16V21H14V15Z" fill="#2B2D34"/>
<path d="M21 21V15H19V21H21Z" fill="#2B2D34"/>
</svg>
