<svg width="24" height="24" viewBox="0 0 24 24" fill="none" xmlns="http://www.w3.org/2000/svg">
<path fill-rule="evenodd" clip-rule="evenodd" d="M9 2.5C7.89543 2.5 7 3.39543 7 4.5V6.5H3C2.44772 6.5 2 6.94772 2 7.5V19.5C2 20.0523 2.44772 20.5 3 20.5H8V18.5H4V8.5H20V10.5H22V7.5C22 6.94772 21.5523 6.5 21 6.5H17V4.5C17 3.39543 16.1046 2.5 15 2.5H9ZM15 6.5V4.5H9V6.5H15Z" fill="#2B2D34"/>
<path d="M12.2072 22.2071L21.2072 13.2071L19.793 11.7928L10.793 20.7928L12.2072 22.2071Z" fill="#2B2D34"/>
<path d="M12 12C10.8954 12 10 12.8954 10 14C10 15.1046 10.8954 16 12 16C13.1046 16 14 15.1046 14 14C14 12.8954 13.1046 12 12 12Z" fill="#2B2D34"/>
<path d="M18 20C18 18.8954 18.8954 18 20 18C21.1046 18 22 18.8954 22 20C22 21.1046 21.1046 22 20 22C18.8954 22 18 21.1046 18 20Z" fill="#2B2D34"/>
</svg>
