<svg width="24" height="24" viewBox="0 0 24 24" fill="none" xmlns="http://www.w3.org/2000/svg">
<path fill-rule="evenodd" clip-rule="evenodd" d="M10.601 10.6592L15.1259 2.51434L16.8742 3.48563L14.5825 7.61073L17.0418 9.71869L20.4 7.19999L21.6 8.79999L14.3034 14.2724C14.5166 14.9331 14.4473 15.6127 14.3556 16.0711C14.2788 16.4551 14.1656 16.7926 14.074 17.0308C14.0276 17.1514 13.9853 17.2503 13.9536 17.3212C13.9399 17.3517 13.9281 17.3772 13.9186 17.3973L13.9081 17.4227C13.8884 17.4693 13.862 17.5266 13.8273 17.5929C13.7578 17.7256 13.6555 17.8932 13.5081 18.0827C13.2118 18.4636 12.7429 18.9204 12.0145 19.3575C10.5617 20.2292 8.11653 21 4.00003 21C3.59557 21 3.23093 20.7564 3.07615 20.3827C2.92137 20.009 3.00692 19.5789 3.29292 19.2929C4.51693 18.0689 4.75086 16.6639 5.00159 15.1579L5.01364 15.0856C5.1343 14.3616 5.27714 13.5222 5.63685 12.8028C6.02203 12.0324 6.64243 11.4155 7.62191 11.0725C7.6383 11.0648 7.65733 11.0561 7.67886 11.0465C7.74976 11.0147 7.84859 10.9724 7.96917 10.926C8.20745 10.8344 8.54496 10.7212 8.92891 10.6444C9.35803 10.5586 9.98109 10.4924 10.601 10.6592ZM12.2405 11.8263L13.5911 9.39515L15.4027 10.948L13.0939 12.6796L12.2405 11.8263ZM10.2922 12.7064C10.1672 12.5821 9.87392 12.495 9.32114 12.6056C9.0801 12.6538 8.85511 12.7281 8.68713 12.7927C8.6046 12.8245 8.53936 12.8525 8.49697 12.8715L8.31626 12.9487C7.8316 13.1102 7.59498 13.3587 7.42571 13.6972C7.22291 14.1028 7.11576 14.6384 6.98642 15.4144L6.95608 15.5978C6.79773 16.5585 6.60188 17.7466 6.0001 18.9283C8.61986 18.7296 10.1351 18.1528 10.9855 17.6425C11.5071 17.3295 11.7882 17.0364 11.9294 16.8548C12.0008 16.763 12.0392 16.6963 12.0556 16.6649C12.0595 16.6574 12.0639 16.6484 12.0639 16.6484L12.1079 16.5479C12.112 16.5393 12.1191 16.5242 12.1285 16.503C12.1475 16.4607 12.1756 16.3954 12.2073 16.3129C12.2719 16.1449 12.3462 15.9199 12.3945 15.6789C12.5052 15.1251 12.4175 14.8317 12.2929 14.7071L10.2922 12.7064Z" fill="#2B2D34"/>
</svg>
