<svg width="24" height="24" viewBox="0 0 24 24" fill="none" xmlns="http://www.w3.org/2000/svg">
<path fill-rule="evenodd" clip-rule="evenodd" d="M4.43934 4.43934C4.72064 4.15804 5.10218 4 5.5 4V2C4.57174 2 3.6815 2.36875 3.02513 3.02513C2.36875 3.6815 2 4.57174 2 5.5C2 6.42826 2.36875 7.3185 3.02513 7.97487C3.6815 8.63125 4.57174 9 5.5 9H6.38197L5.47606 10.8118C5.4451 10.8737 5.41639 10.9365 5.38994 11H2V13H5.28125C5.29131 13.0342 5.30198 13.0682 5.31329 13.1021L7.59547 19.9487C8.00381 21.1737 9.15023 22 10.4415 22H13.5585C14.8498 22 15.9962 21.1737 16.4045 19.9487L18.6867 13.1021C18.698 13.0682 18.7087 13.0342 18.7188 13H22V11H18.6101C18.5836 10.9365 18.5549 10.8737 18.5239 10.8118L17.618 9H18.5C19.4283 9 20.3185 8.63125 20.9749 7.97487C21.6313 7.3185 22 6.42826 22 5.5C22 4.57174 21.6313 3.6815 20.9749 3.02513C20.3185 2.36875 19.4283 2 18.5 2V4C18.8978 4 19.2794 4.15804 19.5607 4.43934C19.842 4.72064 20 5.10218 20 5.5C20 5.89782 19.842 6.27936 19.5607 6.56066C19.2794 6.84196 18.8978 7 18.5 7H5.5C5.10218 7 4.72064 6.84196 4.43934 6.56066C4.15804 6.27936 4 5.89782 4 5.5C4 5.10218 4.15804 4.72064 4.43934 4.43934ZM14.7639 9H9.23607C8.8573 9 8.51103 9.214 8.34164 9.55279L7.26491 11.7062C7.1463 11.9435 7.12679 12.2181 7.21066 12.4697L9.49284 19.3162C9.62895 19.7246 10.0111 20 10.4415 20H13.5585C13.9889 20 14.3711 19.7246 14.5072 19.3162L16.7893 12.4697C16.8732 12.2181 16.8537 11.9435 16.7351 11.7062L15.6584 9.55279C15.489 9.214 15.1427 9 14.7639 9Z" fill="#2B2D34"/>
</svg>
