<svg width="24" height="24" viewBox="0 0 24 24" fill="none" xmlns="http://www.w3.org/2000/svg">
<path d="M20 3H4L4 5L20 5V3Z" fill="#2B2D34"/>
<path fill-rule="evenodd" clip-rule="evenodd" d="M2 20C2 20.5523 2.44772 21 3 21L21 21C21.5523 21 22 20.5523 22 20L22 8C22 7.73479 21.8946 7.48043 21.7071 7.2929C21.5196 7.10536 21.2652 7 21 7L3 7C2.44772 7 2 7.44772 2 8V20ZM6 9L18 9C18 10.1046 18.8954 11 20 11V17C18.8954 17 18 17.8954 18 19H6C6 17.8954 5.10457 17 4 17L4 11C5.10457 11 6 10.1046 6 9Z" fill="#2B2D34"/>
</svg>
