<svg width="24" height="24" viewBox="0 0 24 24" fill="none" xmlns="http://www.w3.org/2000/svg">
<path fill-rule="evenodd" clip-rule="evenodd" d="M2 8C2 4.68629 4.68629 2 8 2H16C19.3137 2 22 4.68629 22 8V10L2 10L2 8ZM8 4C5.79086 4 4 5.79086 4 8L20 8C20 5.79086 18.2091 4 16 4L8 4Z" fill="#2B2D34"/>
<path fill-rule="evenodd" clip-rule="evenodd" d="M2 16H22V18C22 20.2091 20.2091 22 18 22H6C3.79086 22 2 20.2091 2 18V16ZM4 18C4 19.1046 4.89543 20 6 20H18C19.1046 20 20 19.1046 20 18H4Z" fill="#2B2D34"/>
<path d="M11.1056 13.5652C11.6686 13.2837 12.3314 13.2837 12.8944 13.5652L14.2112 14.2236C15.3373 14.7867 16.6628 14.7867 17.7889 14.2236L18.8901 13.673C19.532 13.352 20.2967 13.3996 20.8939 13.7978L22.4453 14.832L23.5547 13.1679L22.0033 12.1337C20.8089 11.3374 19.2795 11.2422 17.9956 11.8842L16.8944 12.4347C16.3314 12.7163 15.6686 12.7163 15.1056 12.4347L13.7889 11.7764C12.6628 11.2133 11.3373 11.2133 10.2112 11.7764L8.89444 12.4347C8.33138 12.7163 7.66864 12.7163 7.10559 12.4347L6.0044 11.8842C4.72051 11.2422 3.19109 11.3374 1.99674 12.1337L0.445312 13.1679L1.55471 14.832L3.10614 13.7978C3.70331 13.3996 4.46803 13.352 5.10997 13.673L6.21116 14.2236C7.33727 14.7867 8.66276 14.7867 9.78887 14.2236L11.1056 13.5652Z" fill="#2B2D34"/>
</svg>
