<svg width="24" height="24" viewBox="0 0 24 24" fill="none" xmlns="http://www.w3.org/2000/svg">
<path fill-rule="evenodd" clip-rule="evenodd" d="M4.91789 2.91789C5.43324 2.40255 6.17477 2 7 2H17C17.8252 2 18.5668 2.40255 19.0821 2.91789C19.5975 3.43324 20 4.17477 20 5V5.4648L22.5547 7.16794C22.8329 7.3534 23 7.66564 23 7.99999V11H21V8.53517L20 7.86851V15.9781C20.0003 15.9922 20.0003 16.0063 20 16.0204V21C20 21.5523 19.5523 22 19 22H15C14.4477 22 14 21.5523 14 21H10C10 21.5523 9.55228 22 9 22H5C4.44772 22 4 21.5523 4 21V16.0199C3.99972 16.0061 3.99971 15.9924 4 15.9786V7.86851L3 8.53517V11H1V7.99999C1 7.66564 1.1671 7.3534 1.4453 7.16794L4 5.4648V5C4 4.17477 4.40255 3.43324 4.91789 2.91789ZM6 20V17.618L6.55279 17.8944C7.04677 18.1414 7.64744 17.9412 7.89443 17.4472C8.14142 16.9532 7.9412 16.3526 7.44722 16.1056L6 15.382V14.25C6.34719 14.3226 6.75251 14.4032 7.19611 14.4839C8.58894 14.7371 10.4091 15 12 15C13.5909 15 15.4111 14.7371 16.8039 14.4839C17.2475 14.4032 17.6528 14.3226 18 14.25V15.382L16.5528 16.1056C16.0588 16.3526 15.8586 16.9532 16.1056 17.4472C16.3526 17.9412 16.9532 18.1414 17.4472 17.8944L18 17.618V20H16V19H8V20H6ZM6 12.2046C6.4025 12.2929 6.94008 12.4045 7.55389 12.5161C8.91106 12.7629 10.5909 13 12 13C13.4091 13 15.0889 12.7629 16.4461 12.5161C17.0599 12.4045 17.5975 12.2929 18 12.2046V8H6V12.2046ZM6 6V5C6 4.82523 6.09745 4.56676 6.33211 4.33211C6.56676 4.09745 6.82523 4 7 4H17C17.1748 4 17.4332 4.09745 17.6679 4.33211C17.9025 4.56676 18 4.82523 18 5V6H6Z" fill="#2B2D34"/>
</svg>
