<svg width="24" height="24" viewBox="0 0 24 24" fill="none" xmlns="http://www.w3.org/2000/svg">
<path fill-rule="evenodd" clip-rule="evenodd" d="M12 2C9.90403 2 8.5 3.96932 8.5 6C8.5 8.03068 9.90403 10 12 10C14.096 10 15.5 8.03068 15.5 6C15.5 3.96932 14.096 2 12 2ZM10.5 6C10.5 4.71697 11.3345 4 12 4C12.6655 4 13.5 4.71697 13.5 6C13.5 7.28303 12.6655 8 12 8C11.3345 8 10.5 7.28303 10.5 6Z" fill="#2B2D34"/>
<path fill-rule="evenodd" clip-rule="evenodd" d="M16.5311 18.0388C15.5419 18.4785 14.3003 18.8281 13 18.9517V20H17V22H7V20H11V18.9517C9.69968 18.8281 8.45805 18.4785 7.46886 18.0388C6.8501 17.7638 6.28935 17.4356 5.86483 17.0718C5.49462 16.7544 5 16.2158 5 15.5C5 14.7368 5.35166 13.7721 5.96913 13.0003C6.61195 12.1968 7.62826 11.5 9 11.5H15C16.3717 11.5 17.3881 12.1968 18.0309 13.0003C18.6483 13.7721 19 14.7368 19 15.5C19 16.2158 18.5054 16.7544 18.1352 17.0718C17.7107 17.4356 17.1499 17.7638 16.5311 18.0388ZM7.0073 15.3965C7.03487 15.4299 7.08367 15.4823 7.16642 15.5532C7.39815 15.7519 7.7749 15.9862 8.28114 16.2112C9.29045 16.6598 10.6527 17 12 17C13.3473 17 14.7095 16.6598 15.7189 16.2112C16.2251 15.9862 16.6018 15.7519 16.8336 15.5532C16.9163 15.4823 16.9651 15.4299 16.9927 15.3965C16.9587 15.1286 16.8032 14.6673 16.4691 14.2497C16.1119 13.8032 15.6283 13.5 15 13.5H9C8.37174 13.5 7.88805 13.8032 7.53087 14.2497C7.19676 14.6673 7.0413 15.1286 7.0073 15.3965Z" fill="#2B2D34"/>
</svg>
