<svg width="24" height="24" viewBox="0 0 24 24" fill="none" xmlns="http://www.w3.org/2000/svg">
<path d="M8 4V2H6V4H8Z" fill="#2B2D34"/>
<path fill-rule="evenodd" clip-rule="evenodd" d="M8 9V6H6V9C4.34315 9 3 10.3431 3 12V14.9782C2.9997 14.9922 2.99971 15.0062 3 15.0202V18H5V16.5C6.24508 16.4999 6.92041 15.921 7.38747 15.5205L7.40061 15.5093C7.80806 15.16 8.00675 15 8.49982 15C8.9929 15 9.19158 15.16 9.59903 15.5093L9.61217 15.5205C10.0793 15.921 10.7546 16.5 11.9998 16.5C13.245 16.5 13.9204 15.921 14.3875 15.5205L14.4006 15.5093C14.8081 15.16 15.0067 15 15.4998 15C15.9929 15 16.1916 15.16 16.599 15.5093L16.6122 15.5205C17.0793 15.921 17.7546 16.5 18.9998 16.5C18.9998 16.5 18.9999 16.5 18.9998 16.5L19 18H21V15.02C21.0003 15.0062 21.0003 14.9923 21 14.9784V12C21 10.3431 19.6569 9 18 9V6H16V9H13V6H11V9H8ZM19 14.5V12C19 11.4477 18.5523 11 18 11H6C5.44772 11 5 11.4477 5 12V14.5C5.49294 14.5 5.69163 14.3399 6.09903 13.9907L6.11217 13.9795C6.57925 13.579 7.25462 13 8.49982 13C9.74502 13 10.4204 13.579 10.8875 13.9795L10.9006 13.9907C11.3081 14.34 11.5067 14.5 11.9998 14.5C12.4929 14.5 12.6916 14.34 13.099 13.9907L13.1122 13.9795C13.5792 13.579 14.2546 13 15.4998 13C16.745 13 17.4204 13.579 17.8875 13.9795L17.9006 13.9907C18.3081 14.34 18.5069 14.5 19 14.5C19.0001 14.5 18.9999 14.5 19 14.5Z" fill="#2B2D34"/>
<path d="M2 22L22 22V20L2 20V22Z" fill="#2B2D34"/>
<path d="M13 2V4H11V2H13Z" fill="#2B2D34"/>
<path d="M18 2V4H16V2H18Z" fill="#2B2D34"/>
</svg>
