<svg width="24" height="24" viewBox="0 0 24 24" fill="none" xmlns="http://www.w3.org/2000/svg">
<path d="M1.29289 4.29297L4.79289 0.792969L6.20711 2.20718L4.41421 4.00008H10V6.00008H4.41421L6.20711 7.79297L4.79289 9.20718L1.29289 5.70718C1.10536 5.51965 1 5.26529 1 5.00008C1 4.73486 1.10536 4.48051 1.29289 4.29297Z" fill="#2B2D34"/>
<path d="M19.2071 14.793L22.7071 18.293C22.8946 18.4805 23 18.7349 23 19.0001C23 19.2653 22.8946 19.5196 22.7071 19.7072L19.2071 23.2072L17.7929 21.793L19.5858 20.0001H14V18.0001H19.5858L17.7929 16.2072L19.2071 14.793Z" fill="#2B2D34"/>
<path d="M2 15C2 13.3431 3.34315 12 5 12V11H7V12C8.65685 12 10 13.3431 10 15H8C8 14.4477 7.55228 14 7 14H5C4.44772 14 4 14.4477 4 15C4 15.5523 4.44772 16 5 16H7C8.65685 16 10 17.3431 10 19C10 20.6569 8.65685 22 7 22V23H5V22C3.34315 22 2 20.6569 2 19H4C4 19.5523 4.44772 20 5 20H7C7.55228 20 8 19.5523 8 19C8 18.4477 7.55228 18 7 18H5C3.34315 18 2 16.6569 2 15Z" fill="#2B2D34"/>
<path fill-rule="evenodd" clip-rule="evenodd" d="M21.7716 2.85195C21.9224 3.21593 22 3.60603 22 4C22 4.39397 21.9224 4.78407 21.7716 5.14805C21.6209 5.51203 21.3999 5.84274 21.1213 6.12132C20.8427 6.3999 20.512 6.62087 20.1481 6.77164C19.7841 6.9224 19.394 7 19 7H16V8H20V10H16V13H14V10H13V8H14V7H13V5H14V1L19 1C19.394 1 19.7841 1.0776 20.1481 1.22836C20.512 1.37913 20.8427 1.6001 21.1213 1.87868C21.3999 2.15726 21.6209 2.48797 21.7716 2.85195ZM16 5H19C19.1313 5 19.2614 4.97413 19.3827 4.92388C19.504 4.87362 19.6142 4.79997 19.7071 4.70711C19.8 4.61425 19.8736 4.50401 19.9239 4.38268C19.9741 4.26136 20 4.13132 20 4C20 3.86868 19.9741 3.73864 19.9239 3.61732C19.8736 3.49599 19.8 3.38575 19.7071 3.29289C19.6142 3.20003 19.504 3.12637 19.3827 3.07612C19.2614 3.02587 19.1313 3 19 3H16V5Z" fill="#2B2D34"/>
</svg>
