<svg width="24" height="24" viewBox="0 0 24 24" fill="none" xmlns="http://www.w3.org/2000/svg">
<path d="M17 11V7H13V5H17V1H19V5H23V7H19V11H17Z" fill="#2B2D34"/>
<path d="M9 7H1V5H9V7Z" fill="#2B2D34"/>
<path d="M14 19H22V21H14V19Z" fill="#2B2D34"/>
<path d="M22 15L14 15V17H22V15Z" fill="#2B2D34"/>
<path fill-rule="evenodd" clip-rule="evenodd" d="M5.00012 19.4142L7.79297 22.2071L9.20718 20.7928L6.41434 18L9.20718 15.2072L7.79297 13.7929L5.00012 16.5858L2.20718 13.7928L0.792969 15.2071L3.58591 18L0.792969 20.7929L2.20718 22.2072L5.00012 19.4142Z" fill="#2B2D34"/>
</svg>
