<svg width="24" height="24" viewBox="0 0 24 24" fill="none" xmlns="http://www.w3.org/2000/svg">
<path d="M20.2933 2.29291L16.0004 6.5858V4.00001H14.0004V9.00001C14.0004 9.5523 14.4481 10 15.0004 10H20.0004V8.00001H17.4146L21.7075 3.70712L20.2933 2.29291Z" fill="#2B2D34"/>
<path fill-rule="evenodd" clip-rule="evenodd" d="M8.51686 3.58375C7.84743 2.46803 6.30771 2.27848 5.38766 3.19853L2.86594 5.72026C2.32168 6.26452 1.9629 7.04719 2.05696 7.91337C2.2473 9.66615 3.08293 13.6851 6.73853 17.2747C10.36 20.8308 14.3062 21.7098 16.0529 21.9273C16.9334 22.037 17.7369 21.6777 18.2933 21.1213L20.8019 18.6127C21.7219 17.6927 21.5324 16.153 20.4167 15.4835L17.1844 13.5442C16.3975 13.072 15.3901 13.196 14.7412 13.845L13.7148 14.8714C13.2847 14.6616 12.4547 14.1354 11.1599 12.8405C9.86503 11.5457 9.33879 10.7157 9.12903 10.2856L10.1554 9.25919C10.8044 8.61025 10.9284 7.60294 10.4562 6.81599L8.51686 3.58375ZM4.28015 7.13447L6.80188 4.61274L8.74121 7.84498L7.56292 9.02327C7.22373 9.36247 6.8883 9.98161 7.13618 10.6976C7.37633 11.3912 8.02413 12.5332 9.74566 14.2547C11.4672 15.9762 12.6091 16.624 13.3028 16.8642C14.0188 17.1121 14.6379 16.7767 14.9771 16.4375L16.1554 15.2592L19.3877 17.1985L16.8791 19.7071C16.6854 19.9008 16.4723 19.9641 16.3001 19.9426C14.8233 19.7587 11.347 18.997 8.1398 15.8477C4.92512 12.6911 4.20564 9.17426 4.04527 7.69745C4.02719 7.53091 4.08988 7.32475 4.28015 7.13447Z" fill="#2B2D34"/>
</svg>
