<svg width="24" height="24" viewBox="0 0 24 24" fill="none" xmlns="http://www.w3.org/2000/svg">
<path d="M13 15C13.5523 15 14 14.5523 14 14C14 13.4477 13.5523 13 13 13C12.4477 13 12 13.4477 12 14C12 14.5523 12.4477 15 13 15Z" fill="#2B2D34"/>
<path fill-rule="evenodd" clip-rule="evenodd" d="M3.6 2.20001C3.29698 1.97274 2.89157 1.93619 2.55279 2.10558C2.214 2.27497 2 2.62123 2 3.00001V7.00001H4V5.00001L6.4 6.80001C6.5731 6.92983 6.78363 7.00001 7 7.00001H13C13.5523 7.00001 14 7.44772 14 8.00001V9.00001L3 9C2.44772 9 2 9.44772 2 10V20C2 20.5523 2.44772 21 3 21H17C17.5523 21 18 20.5523 18 20V17.5915L20.5454 18.8907C20.8554 19.0489 21.2254 19.0346 21.5222 18.8528C21.819 18.6711 22 18.3481 22 18V11C22 10.6519 21.819 10.3289 21.5222 10.1472C21.2254 9.96542 20.8554 9.95108 20.5454 10.1093L18 11.4085V10C18 9.44772 17.5523 9 17 9L16 9.00001V8.00001C16 6.34315 14.6569 5.00001 13 5.00001H7.33333L3.6 2.20001ZM18 15.346V13.654L20 12.6331V16.3669L18 15.346ZM16 11V19H4V11H16Z" fill="#2B2D34"/>
</svg>
