<svg width="24" height="24" viewBox="0 0 24 24" fill="none" xmlns="http://www.w3.org/2000/svg">
<path d="M13 16C13.5523 16 14 15.5523 14 15C14 14.4477 13.5523 14 13 14C12.4477 14 12 14.4477 12 15C12 15.5523 12.4477 16 13 16Z" fill="#2B2D34"/>
<path fill-rule="evenodd" clip-rule="evenodd" d="M7 6H7.17071C7.58254 7.16519 8.69378 8 10 8H12C13.6569 8 15 6.65685 15 5C15 3.34315 13.6569 2 12 2H10C8.69378 2 7.58254 2.83481 7.17071 4H7C5.34315 4 4 5.34315 4 7V10H3C2.44772 10 2 10.4477 2 11V21C2 21.5523 2.44772 22 3 22H17C17.5523 22 18 21.5523 18 21V20.0501L20.4108 21.808C20.7149 22.0297 21.1178 22.062 21.4532 21.8914C21.7887 21.7208 22 21.3764 22 21V11C22 10.6237 21.7887 10.2792 21.4532 10.1086C21.1178 9.93804 20.7149 9.97026 20.4108 10.192L18 11.9499V11C18 10.4477 17.5523 10 17 10H6V7C6 6.44772 6.44772 6 7 6ZM10 4C9.44772 4 9 4.44772 9 5C9 5.55228 9.44772 6 10 6H12C12.5523 6 13 5.55228 13 5C13 4.44772 12.5523 4 12 4H10ZM16 12H4V20H16V12ZM18 17.5749L20 19.0332V12.9668L18 14.4251V17.5749Z" fill="#2B2D34"/>
</svg>
