<svg width="24" height="24" viewBox="0 0 24 24" fill="none" xmlns="http://www.w3.org/2000/svg">
<path fill-rule="evenodd" clip-rule="evenodd" d="M16.1935 2.68379C16.3031 2.355 16.5751 2.1064 16.9124 2.02677C17.2497 1.94714 17.6042 2.04785 17.8492 2.29291L22.0919 6.53555C22.337 6.78062 22.4377 7.13511 22.358 7.47241C22.2784 7.80972 22.0298 8.08175 21.701 8.19134L18.3833 9.29724C18.9134 11.0122 18.4997 12.9561 17.1421 14.3137L14.3137 17.1421C12.9562 18.4996 11.0122 18.9134 9.29726 18.3833L8.19134 21.701C8.08175 22.0298 7.80972 22.2784 7.47241 22.358C7.13511 22.4377 6.78062 22.337 6.53555 22.0919L2.29291 17.8492C2.04785 17.6042 1.94714 17.2497 2.02677 16.9124C2.1064 16.5751 2.355 16.3031 2.68379 16.1935L6.0015 15.0876C5.47137 13.3726 5.88509 11.4286 7.24265 10.071L10.0711 7.2426C11.4286 5.88505 13.3726 5.47133 15.0876 6.00144L16.1935 2.68379ZM17.1574 7.25794C17.1523 7.25281 17.1472 7.2477 17.1421 7.2426C17.137 7.23749 17.1319 7.2324 17.1268 7.22732L16.8721 6.97257L17.5792 4.85125L19.5336 6.80564L17.4122 7.51275L17.1574 7.25794ZM15.716 8.64497C14.5435 7.48525 12.6529 7.4892 11.4853 8.65681L8.65686 11.4852C7.48529 12.6568 7.48529 14.5563 8.65686 15.7279C9.82843 16.8995 11.7279 16.8995 12.8995 15.7279L15.7279 12.8995C16.8955 11.7318 16.8995 9.84122 15.7398 8.66872L15.716 8.64497ZM4.85125 17.5792L6.80564 19.5336L7.51275 17.4122L6.97257 16.8721L4.85125 17.5792Z" fill="#2B2D34"/>
</svg>
