<svg width="24" height="24" viewBox="0 0 24 24" fill="none" xmlns="http://www.w3.org/2000/svg">
<path fill-rule="evenodd" clip-rule="evenodd" d="M2 12C2 6.47715 6.47715 2 12 2C17.5228 2 22 6.47715 22 12C22 17.5228 17.5228 22 12 22C6.47715 22 2 17.5228 2 12ZM12 4C7.92038 4 4.55399 7.05369 4.06189 11H7.61016C7.6363 10.9771 7.66392 10.9531 7.69296 10.9282C7.9343 10.7214 8.27913 10.4454 8.6953 10.1679C9.49511 9.63475 10.6994 9 12 9C13.3006 9 14.5049 9.63475 15.3047 10.1679C15.7209 10.4454 16.0657 10.7214 16.307 10.9282C16.3361 10.9531 16.3637 10.9771 16.3898 11H19.9381C19.446 7.05369 16.0796 4 12 4ZM11 19.9381C7.38128 19.4869 4.51314 16.6187 4.06189 13H7.53164L9.73178 15.6402C9.92177 15.8682 10.2032 16 10.5 16H11V19.9381ZM13 19.9381C16.6187 19.4869 19.4869 16.6187 19.9381 13H16.4684L14.2682 15.6402C14.0782 15.8682 13.7968 16 13.5 16H13V19.9381ZM14.5989 12.1193C14.4762 12.0264 14.3409 11.9291 14.1953 11.8321C13.4951 11.3653 12.6994 11 12 11C11.3006 11 10.5049 11.3653 9.8047 11.8321C9.65913 11.9291 9.52376 12.0264 9.40111 12.1193L10.9684 14H13.0316L14.5989 12.1193Z" fill="#2B2D34"/>
</svg>
