<svg width="25" height="24" viewBox="0 0 25 24" fill="none" xmlns="http://www.w3.org/2000/svg">
<path d="M2.5 7C2.5 5.34315 3.84315 4 5.5 4H20.5V6.58984C20.5 6.58984 20.1423 6.94358 20 7.08586L18.5858 8.50008C18.3982 8.68761 18.2929 8.94197 18.2929 9.20718C18.2929 9.4724 18.3982 9.72675 18.5858 9.91429L18.6716 10.0001H16.5C15.9477 10.0001 15.5 10.4478 15.5 11.0001V13.0001C15.5 13.5523 15.9477 14.0001 16.5 14.0001H18.6716L18.5858 14.0859C18.3982 14.2734 18.2929 14.5278 18.2929 14.793C18.2929 15.0582 18.3982 15.3125 18.5858 15.5001L20 16.9143C20.1423 17.0566 20.5 17.4102 20.5 17.4102V20H5.5C3.84315 20 2.5 18.6569 2.5 17V10H12.5V8H2.5V7Z" fill="#2B2D34"/>
<path d="M19.2929 9.20718L21.0858 11.0001H16.5V13.0001H21.0858L19.2929 14.793L20.7071 16.2072L24.2071 12.7072C24.5976 12.3167 24.5976 11.6835 24.2071 11.293L20.7071 7.79297L19.2929 9.20718Z" fill="#2B2D34"/>
</svg>
