<svg width="24" height="24" viewBox="0 0 24 24" fill="none" xmlns="http://www.w3.org/2000/svg">
<path d="M22 3C22 2.44772 21.5523 2 21 2H3C2.44772 2 2 2.44772 2 3V12H4L4 5.91465C4.15639 5.96992 4.32468 6 4.5 6C5.32843 6 6 5.32843 6 4.5C6 4.32468 5.96992 4.15639 5.91465 4L18.0854 4C18.0301 4.15639 18 4.32468 18 4.5C18 5.32843 18.6716 6 19.5 6C19.6753 6 19.8436 5.96992 20 5.91465V12H22V3Z" fill="#2B2D34"/>
<path d="M2.29289 16.2929L5.79289 12.7929L7.20711 14.2071L5.41423 16H11V18H5.4142L7.20711 19.7929L5.79289 21.2071L2.29289 17.7071C1.90237 17.3166 1.90237 16.6834 2.29289 16.2929Z" fill="#2B2D34"/>
<path d="M16.7929 19.7929L18.5858 18H13V16H18.5858L16.7929 14.2071L18.2071 12.7929L21.7071 16.2929C22.0976 16.6834 22.0976 17.3166 21.7071 17.7071L18.2071 21.2071L16.7929 19.7929Z" fill="#2B2D34"/>
</svg>
