<svg width="24" height="24" viewBox="0 0 24 24" fill="none" xmlns="http://www.w3.org/2000/svg">
<path fill-rule="evenodd" clip-rule="evenodd" d="M2 4C2 3.44772 2.44772 3 3 3H21C21.5523 3 22 3.44772 22 4V8C22.5523 8 23 8.44772 23 9V13C23 13.5523 22.5523 14 22 14V18C22 18.5523 21.5523 19 21 19H20V14H18C17.4477 14 17 13.5523 17 13V9C17 8.44772 17.4477 8 18 8H20V5H4V13H2V4ZM19 12V10H21V12H19Z" fill="#2B2D34"/>
<path d="M3.41423 18H8V20H3.4142L5.20711 21.7929L3.79289 23.2071L0.292893 19.7071C-0.0976311 19.3166 -0.0976311 18.6834 0.292893 18.2929L3.79289 14.7929L5.20711 16.2071L3.41423 18Z" fill="#2B2D34"/>
<path d="M14.5858 20L12.7929 21.7929L14.2071 23.2071L17.7071 19.7071C18.0976 19.3166 18.0976 18.6834 17.7071 18.2929L14.2071 14.7929L12.7929 16.2071L14.5858 18H10V20H14.5858Z" fill="#2B2D34"/>
</svg>
