<svg width="24" height="24" viewBox="0 0 24 24" fill="none" xmlns="http://www.w3.org/2000/svg">
<path d="M3 3C2.44772 3 2 3.44772 2 4V9C2 9.37877 2.214 9.72504 2.55279 9.89443L4 10.618V21H6V10C6 9.62123 5.786 9.27496 5.44721 9.10557L4 8.38197V5H6V7H8V5H10V7H12V5H14V8.38197L12.5528 9.10557C12.214 9.27496 12 9.62123 12 10V12.5L14 11V10.618L15.4472 9.89443C15.786 9.72504 16 9.37877 16 9V4C16 3.44772 15.5523 3 15 3H3Z" fill="#2B2D34"/>
<path d="M8 10V14H10V10H8Z" fill="#2B2D34"/>
<path d="M15 21V18H17V21H15Z" fill="#2B2D34"/>
<path d="M10 18L9.3598 17.2318L15.3598 12.2318C15.7306 11.9227 16.2693 11.9227 16.6402 12.2318L22.6402 17.2318L22 18V21H20V17.6351L16 14.3017L12 17.635V21H10V18Z" fill="#2B2D34"/>
</svg>
