<svg width="24" height="24" viewBox="0 0 24 24" fill="none" xmlns="http://www.w3.org/2000/svg">
<path fill-rule="evenodd" clip-rule="evenodd" d="M16 6.00002C16 5.44773 16.4477 5.00002 17 5.00002H21C21.5523 5.00002 22 5.44773 22 6.00002L22 20C22 20.5523 21.5523 21 21 21H17C16.4477 21 16 20.5523 16 20V6.00002ZM18 7.00002V19H20L20 7.00002H18ZM2 14C2 13.4477 2.44772 13 3 13H7C7.55228 13 8 13.4477 8 14L8 20C8 20.5523 7.55228 21 7 21H3C2.44771 21 2 20.5523 2 20V14ZM4 15V19H6V15H4ZM9 10C9 9.44773 9.44771 9.00002 10 9.00002H14C14.5523 9.00002 15 9.44773 15 10L15 20C15 20.5523 14.5523 21 14 21L10 21C9.44771 21 9 20.5523 9 20V10ZM11 11V19H13V11H11ZM10.9999 4.41447L4.70719 10.7071L3.29298 9.29291L9.58596 3.00001L7.49992 3L7.49993 1L11.9999 1.00002C12.2652 1.00002 12.5195 1.10537 12.707 1.29291C12.8946 1.48045 12.9999 1.7348 12.9999 2.00002L12.9999 6.5L10.9999 6.5L10.9999 4.41447Z" fill="#2B2D34"/>
</svg>
