<svg width="24" height="24" viewBox="0 0 24 24" fill="none" xmlns="http://www.w3.org/2000/svg">
<path fill-rule="evenodd" clip-rule="evenodd" d="M19.6602 5.57218C18.4236 4.09845 16.8498 3.06958 15.1458 2.50651C14.6414 2.33983 14.0947 2.59665 13.9009 3.09131L10.3026 12.2781C10.1691 12.6189 10.2324 13.0053 10.4676 13.2856C10.7029 13.566 11.0724 13.6954 11.4312 13.6232L21.1033 11.6748C21.624 11.5698 21.9719 11.076 21.8953 10.5503C21.6367 8.77445 20.8968 7.04592 19.6602 5.57218ZM12.8334 11.3005L15.3972 4.75494C16.4184 5.23289 17.3543 5.93563 18.1281 6.85776C18.9018 7.77989 19.4314 8.82363 19.7247 9.91227L12.8334 11.3005Z" fill="#2B2D34"/>
<path d="M5.57181 4.33954C7.53342 2.69356 9.9415 1.92937 12.3142 2.00484L11.5274 4.01344C9.86953 4.11017 8.22735 4.72209 6.85738 5.87163C3.47279 8.71165 3.03131 13.7577 5.87133 17.1423C8.71134 20.5269 13.7574 20.9684 17.142 18.1283C18.5123 16.9785 19.4001 15.4671 19.7832 13.8508L21.8978 13.4248C21.5603 15.775 20.3895 18.0142 18.4276 19.6604C14.1968 23.2105 7.88926 22.6586 4.33924 18.4279C0.789221 14.1971 1.34106 7.88956 5.57181 4.33954Z" fill="#2B2D34"/>
</svg>
