<svg width="24" height="24" viewBox="0 0 24 24" fill="none" xmlns="http://www.w3.org/2000/svg">
<path d="M12 12.6238L8.3545 16.3L6.9081 14.843L10.554 11.1656L9.79343 10.398V8.88247L9.26524 8.3492V9.67086L8.80549 10.1347L6.95719 8.27005L6.5 8.73097C6.50329 8.38325 6.57209 7.37691 7.4184 6.53789C8.33169 5.65175 9.31799 6.05101 9.65527 6.39155L11.5027 8.25532L11.0314 8.73005L12 9.70731L12.9684 8.73005L12.4973 8.25532L14.3444 6.39155C14.6816 6.05101 15.6679 5.65175 16.5812 6.53789C17.4277 7.37691 17.4965 8.38325 17.5 8.73097L17.0428 8.27005L15.1943 10.1347L14.7348 9.67086V8.3492L14.2062 8.88247V10.398L13.4457 11.1656L17.0917 14.843L15.6455 16.3L12 12.6238Z" fill="#2B2D34"/>
<path fill-rule="evenodd" clip-rule="evenodd" d="M3 2C2.44772 2 2 2.44772 2 3V19C2 19.5523 2.44772 20 3 20H7V22C7 22.3788 7.214 22.725 7.55279 22.8944C7.89157 23.0638 8.29698 23.0273 8.6 22.8L12.3333 20H21C21.5523 20 22 19.5523 22 19V3C22 2.44772 21.5523 2 21 2H3ZM4 18V4H20V18H12C11.7836 18 11.5731 18.0702 11.4 18.2L9 20V19C9 18.4477 8.55228 18 8 18H4Z" fill="#2B2D34"/>
</svg>
