<svg width="24" height="24" viewBox="0 0 24 24" fill="none" xmlns="http://www.w3.org/2000/svg">
<path d="M9.51172 6.84668C8.9375 7.3571 8.64128 8.04297 8.62305 8.9043H10.4756C10.4984 8.51693 10.6305 8.20931 10.8721 7.98145C11.1136 7.74902 11.4303 7.63281 11.8223 7.63281C12.2096 7.63281 12.5241 7.73763 12.7656 7.94727C13.0026 8.1569 13.1211 8.42578 13.1211 8.75391C13.1211 9.07747 13.0391 9.34408 12.875 9.55371C12.7155 9.76335 12.4147 10.0003 11.9727 10.2646C11.4941 10.5472 11.1592 10.8548 10.9678 11.1875C10.7718 11.5384 10.6966 11.9782 10.7422 12.5068L10.7559 12.9033H12.5674V12.541C12.5674 12.2038 12.6471 11.9303 12.8066 11.7207C12.9661 11.5111 13.2738 11.2741 13.7295 11.0098C14.7048 10.4355 15.1924 9.66309 15.1924 8.69238C15.1924 7.90853 14.8962 7.27279 14.3037 6.78516C13.7021 6.29297 12.916 6.04688 11.9453 6.04688C10.9154 6.04688 10.1042 6.31348 9.51172 6.84668Z" fill="#2B2D34"/>
<path d="M10.8994 15.8564C11.1136 16.0661 11.3757 16.1709 11.6855 16.1709C11.9954 16.1709 12.2598 16.0661 12.4785 15.8564C12.6973 15.6514 12.8066 15.3984 12.8066 15.0977C12.8066 14.7969 12.6973 14.5417 12.4785 14.332C12.2598 14.127 11.9954 14.0244 11.6855 14.0244C11.3757 14.0244 11.1136 14.127 10.8994 14.332C10.6807 14.5417 10.5713 14.7969 10.5713 15.0977C10.5713 15.3984 10.6807 15.6514 10.8994 15.8564Z" fill="#2B2D34"/>
<path fill-rule="evenodd" clip-rule="evenodd" d="M3 2C2.44772 2 2 2.44772 2 3V19C2 19.5523 2.44772 20 3 20H7V22C7 22.3788 7.214 22.725 7.55279 22.8944C7.89157 23.0638 8.29698 23.0273 8.6 22.8L12.3333 20H21C21.5523 20 22 19.5523 22 19V3C22 2.44772 21.5523 2 21 2H3ZM4 18V4H20V18H12C11.7836 18 11.5731 18.0702 11.4 18.2L9 20V19C9 18.4477 8.55228 18 8 18H4Z" fill="#2B2D34"/>
</svg>
