<svg width="24" height="24" viewBox="0 0 24 24" fill="none" xmlns="http://www.w3.org/2000/svg">
<path d="M14.7928 16.2071L12 13.4142L9.20715 16.2071L7.79294 14.7928L10.5858 12L7.79285 9.20706L9.20706 7.79285L12 10.5858L14.7929 7.79285L16.2072 9.20706L13.4142 12L16.2071 14.7928L14.7928 16.2071Z" fill="#2B2D34"/>
<path fill-rule="evenodd" clip-rule="evenodd" d="M12 2C6.47715 2 2 6.47715 2 12C2 17.5228 6.47715 22 12 22C17.5228 22 22 17.5228 22 12C22 6.47715 17.5228 2 12 2ZM4 12C4 7.58172 7.58172 4 12 4C16.4183 4 20 7.58172 20 12C20 16.4183 16.4183 20 12 20C7.58172 20 4 16.4183 4 12Z" fill="#2B2D34"/>
</svg>
