<svg width="24" height="24" viewBox="0 0 24 24" fill="none" xmlns="http://www.w3.org/2000/svg">
<path d="M22.67 11.2518L17.18 5.32183C16.8 4.91183 16.17 4.89183 15.77 5.27183C15.36 5.65183 15.34 6.28183 15.72 6.68183L20.65 12.0018L16.02 17.0018H14.3L18.24 12.7518C18.63 12.3318 18.63 11.6818 18.24 11.2618L12.76 5.35183C12.56 5.13183 12.26 5.00183 11.96 5.00183H7.79C6.82 5.00183 6.33 6.14183 6.98 6.85183L11.75 12.0018L7.12 17.0018H4C3.45 17.0018 3 16.5518 3 16.0018V8.00183C3 7.45183 3.45 7.00183 4 7.00183H5.33V5.00183H4C2.34 5.00183 1 6.34183 1 8.00183V16.0018C1 17.6618 2.34 19.0018 4 19.0018H7.47C7.8 19.0018 8.12 18.8618 8.35 18.6218L13.78 12.7518C14.17 12.3318 14.17 11.6818 13.78 11.2618L9.84 7.01183H11.56L16.19 12.0118L11.42 17.1618C10.77 17.8618 11.27 19.0118 12.23 19.0118H16.4C16.71 19.0118 17 18.8818 17.21 18.6618L22.67 12.7618C23.06 12.3418 23.06 11.6918 22.67 11.2718V11.2518Z" fill="#2B2D34"/>
</svg>
