<svg width="24" height="24" viewBox="0 0 24 24" fill="none" xmlns="http://www.w3.org/2000/svg">
<path fill-rule="evenodd" clip-rule="evenodd" d="M11 2.99301C10.9979 2.696 10.8639 2.41512 10.634 2.22667C10.4023 2.03673 10.0977 1.96067 9.80388 2.01943L4.80388 3.01943C4.33646 3.11291 4 3.52333 4 4.00001V9.00001C4 9.55229 4.44772 10 5 10H6V12H5C3.34315 12 2 13.3431 2 15C2 15.7684 2.28885 16.4692 2.76389 17C2.28885 17.5308 2 18.2316 2 19C2 20.6569 3.34315 22 5 22H13C14.6569 22 16 20.6569 16 19C16 18.6494 15.9398 18.3128 15.8293 18H19C19.5523 18 20 17.5523 20 17V10H21C21.5523 10 22 9.55229 22 9.00001V4.00001C22 3.52333 21.6635 3.11291 21.1961 3.01943L16.1961 2.01943C15.9023 1.96067 15.5977 2.03673 15.366 2.22667C15.1361 2.41512 15.0021 2.69598 15 2.99298L14.9998 3.00039C14.9995 3.01056 14.9986 3.03011 14.9967 3.05767C14.9927 3.11311 14.9843 3.19885 14.9667 3.30436C14.9308 3.52012 14.8607 3.79251 14.7306 4.05279C14.6024 4.30917 14.4258 4.53512 14.1797 4.69921C13.9398 4.85913 13.575 5.00001 13 5.00001C12.425 5.00001 12.0602 4.85913 11.8203 4.69921C11.5742 4.53512 11.3976 4.30917 11.2694 4.05279C11.1393 3.79251 11.0692 3.52012 11.0333 3.30436C11.0157 3.19885 11.0073 3.11311 11.0033 3.05767C11.0014 3.03011 11.0005 3.01056 11.0002 3.00039L11 2.99301ZM15.8293 16H18V9.00001C18 8.44772 18.4477 8.00001 19 8.00001H20V4.81981L16.8154 4.18289C16.7468 4.42165 16.6517 4.68267 16.5194 4.94722C16.2726 5.44085 15.8867 5.9649 15.2891 6.36331C14.6852 6.76589 13.925 7.00001 13 7.00001C12.075 7.00001 11.3148 6.76589 10.7109 6.36331C10.1133 5.9649 9.72739 5.44085 9.48057 4.94722C9.3483 4.68267 9.2532 4.42165 9.18461 4.18289L6 4.81981V8.00001H7C7.55228 8.00001 8 8.44772 8 9.00001V12H13C14.6569 12 16 13.3431 16 15C16 15.3506 15.9398 15.6872 15.8293 16ZM4 19C4 18.4477 4.44772 18 5 18H13C13.5523 18 14 18.4477 14 19C14 19.5523 13.5523 20 13 20H5C4.44772 20 4 19.5523 4 19ZM5 14C4.44772 14 4 14.4477 4 15C4 15.5523 4.44772 16 5 16H13C13.5523 16 14 15.5523 14 15C14 14.4477 13.5523 14 13 14H5Z" fill="#2B2D34"/>
</svg>
