<svg width="24" height="24" viewBox="0 0 24 24" fill="none" xmlns="http://www.w3.org/2000/svg">
<path fill-rule="evenodd" clip-rule="evenodd" d="M12 6C11.4747 6 10.9546 6.10346 10.4693 6.30448C9.98396 6.5055 9.54301 6.80014 9.17157 7.17157C8.80014 7.54301 8.5055 7.98396 8.30448 8.46927C8.10346 8.95457 8 9.47471 8 10C8 10.5523 7.55229 11 7 11L6.5 11C6.04037 11 5.58525 11.0905 5.16061 11.2664C4.73597 11.4423 4.35013 11.7001 4.02513 12.0251C3.70012 12.3501 3.44231 12.736 3.26642 13.1606C3.09053 13.5852 3 14.0404 3 14.5C3 14.9596 3.09053 15.4148 3.26642 15.8394C3.44231 16.264 3.70012 16.6499 4.02513 16.9749C4.35013 17.2999 4.73597 17.5577 5.16061 17.7336C5.58525 17.9095 6.04037 18 6.5 18H18C18.394 18 18.7841 17.9224 19.1481 17.7716C19.512 17.6209 19.8427 17.3999 20.1213 17.1213C20.3999 16.8427 20.6209 16.512 20.7716 16.1481C20.9224 15.7841 21 15.394 21 15C21 14.606 20.9224 14.2159 20.7716 13.8519C20.6209 13.488 20.3999 13.1573 20.1213 12.8787C19.8427 12.6001 19.512 12.3791 19.1481 12.2284C18.7841 12.0776 18.394 12 18 12C17.7106 12 17.4232 12.0419 17.1468 12.1239C16.8042 12.2255 16.4335 12.1367 16.1743 11.8909C15.915 11.645 15.8066 11.2796 15.8899 10.9322C15.9629 10.6275 16 10.3147 16 10C16 9.47471 15.8965 8.95457 15.6955 8.46927C15.4945 7.98396 15.1999 7.54301 14.8284 7.17157C14.457 6.80014 14.016 6.5055 13.5307 6.30448C13.0454 6.10346 12.5253 6 12 6ZM9.7039 4.45672C10.4319 4.15519 11.2121 4 12 4C12.7879 4 13.5681 4.15519 14.2961 4.45672C15.0241 4.75825 15.6855 5.20021 16.2426 5.75736C16.7998 6.31451 17.2417 6.97595 17.5433 7.7039C17.8448 8.43185 18 9.21207 18 10C18.6566 10 19.3068 10.1293 19.9134 10.3806C20.52 10.6319 21.0712 11.0002 21.5355 11.4645C21.9998 11.9288 22.3681 12.48 22.6194 13.0866C22.8707 13.6932 23 14.3434 23 15C23 15.6566 22.8707 16.3068 22.6194 16.9134C22.3681 17.52 21.9998 18.0712 21.5355 18.5355C21.0712 18.9998 20.52 19.3681 19.9134 19.6194C19.3068 19.8707 18.6566 20 18 20H6.5C5.77773 20 5.06253 19.8577 4.39524 19.5813C3.72795 19.3049 3.12163 18.8998 2.61091 18.3891C2.10019 17.8784 1.69506 17.272 1.41866 16.6048C1.14226 15.9375 1 15.2223 1 14.5C1 13.7777 1.14226 13.0625 1.41866 12.3952C1.69506 11.728 2.10019 11.1216 2.61091 10.6109C3.12164 10.1002 3.72795 9.69506 4.39524 9.41866C4.93324 9.19582 5.50237 9.06017 6.08124 9.01597C6.15592 8.56681 6.28166 8.12654 6.45672 7.7039C6.75825 6.97594 7.20021 6.31451 7.75736 5.75736C8.31451 5.20021 8.97595 4.75825 9.7039 4.45672Z" fill="#2B2D34"/>
</svg>
