<svg width="24" height="24" viewBox="0 0 24 24" fill="none" xmlns="http://www.w3.org/2000/svg">
<path fill-rule="evenodd" clip-rule="evenodd" d="M5.84049 3.51493C6.06308 2.62459 6.86304 2 7.78078 2H16.2192C17.137 2 17.9369 2.6246 18.1595 3.51493L18.7808 6H20V8H4V6H5.21922L5.84049 3.51493ZM7.28078 6H16.7192L16.2192 4L7.78078 4L7.28078 6Z" fill="#2B2D34"/>
<path fill-rule="evenodd" clip-rule="evenodd" d="M6.00411 21.0905L5.00411 10.0905L6.99589 9.90946L7.91321 20H16.0868L17.0041 9.90946L18.9959 10.0905L17.9959 21.0905C17.9491 21.6056 17.5172 22 17 22H7C6.4828 22 6.05093 21.6056 6.00411 21.0905Z" fill="#2B2D34"/>
<path fill-rule="evenodd" clip-rule="evenodd" d="M12 13C11.4477 13 11 13.4477 11 14C11 14.5523 11.4477 15 12 15C12.5523 15 13 14.5523 13 14C13 13.4477 12.5523 13 12 13ZM9 14C9 12.3431 10.3431 11 12 11C13.6569 11 15 12.3431 15 14C15 15.6569 13.6569 17 12 17C10.3431 17 9 15.6569 9 14Z" fill="#2B2D34"/>
</svg>
