<svg width="24" height="24" viewBox="0 0 24 24" fill="none" xmlns="http://www.w3.org/2000/svg">
<path fill-rule="evenodd" clip-rule="evenodd" d="M0.593603 7.92292C0.415775 7.54186 0.495334 7.09027 0.792678 6.79292L3.79271 3.79289C4.09005 3.49555 4.54164 3.41599 4.9227 3.59381L11.2685 6.55519C12.3248 7.0481 12.9999 8.10821 12.9999 9.27381L12.9998 11C12.9998 11.2652 12.8945 11.5196 12.7069 11.7071L8.70701 15.7071C8.51947 15.8947 8.26511 16 7.99989 16L7.23606 16C7.7111 16.5308 7.99996 17.2317 7.99996 18H16C16 16.3432 17.3431 15 19 15C19.3506 15 19.6871 15.0602 19.9999 15.1707V13H18V11H19.9999V9.69427C19.9999 9.20543 19.6465 8.78824 19.1643 8.70788L15.9999 8.18048V13C15.9999 13.2652 15.8946 13.5196 15.707 13.7071L12.707 16.7071L11.2928 15.2929L13.9999 12.5858V7.00002C13.9999 6.70607 14.1292 6.427 14.3535 6.237C14.5778 6.04699 14.8744 5.9653 15.1643 6.01362L19.4931 6.73509C20.9397 6.97618 21.9999 8.22775 21.9999 9.69427V17.9829L22 18C22 19.6569 20.6568 21 19 21C18.1115 21 17.3132 20.6138 16.7639 20H7.23606C6.68674 20.6138 5.88846 21 4.99996 21C3.3431 21 1.99996 19.6569 1.99996 18C1.99996 16.6376 2.90818 15.4872 4.15223 15.1215C3.90901 14.8783 3.70554 14.5913 3.55499 14.2687L0.593603 7.92292ZM2.70217 7.71186L3.43556 9.2834L6.28324 6.43579L4.71165 5.70238L2.70217 7.71186ZM8.21172 7.33574L4.33552 11.2119L5.36735 13.4229C5.53165 13.775 5.885 14 6.27352 14L7.58568 14L10.9998 10.5858L10.9999 9.27376C10.9999 8.88523 10.7748 8.53186 10.4228 8.36755L8.21172 7.33574ZM19.9999 17.9901V18C19.9999 18.5523 19.5522 19 19 19C18.4477 19 18 18.5523 18 18C18 17.4477 18.4477 17 19 17C19.5489 17 19.9946 17.4424 19.9999 17.9901ZM3.99996 18C3.99996 17.4477 4.44767 17 4.99996 17C5.55224 17 5.99996 17.4477 5.99996 18C5.99996 18.5523 5.55224 19 4.99996 19C4.44767 19 3.99996 18.5523 3.99996 18Z" fill="#2B2D34"/>
</svg>
