<svg width="24" height="24" viewBox="0 0 24 24" fill="none" xmlns="http://www.w3.org/2000/svg">
<path fill-rule="evenodd" clip-rule="evenodd" d="M12 3C10.6739 3 9.40215 3.52678 8.46447 4.46447C8.27007 4.65887 8.09333 4.86763 7.93528 5.08826C7.73482 5.05008 7.5317 5.02412 7.32702 5.01071C6.56172 4.96055 5.79514 5.08711 5.08658 5.3806C4.37802 5.6741 3.74648 6.12666 3.2408 6.70327C2.73512 7.27989 2.36887 7.9651 2.17037 8.70591C1.97187 9.44671 1.94645 10.2233 2.09607 10.9755C2.2457 11.7277 2.56635 12.4354 3.03323 13.0438C3.50012 13.6523 4.10071 14.1452 4.78856 14.4844C4.85835 14.5188 4.92885 14.5515 5 14.5826V20C5 20.5523 5.44772 21 6 21H18C18.5523 21 19 20.5523 19 20V14.5826C19.0711 14.5515 19.1416 14.5188 19.2114 14.4844C19.8993 14.1452 20.4999 13.6523 20.9668 13.0438C21.4336 12.4354 21.7543 11.7277 21.9039 10.9755C22.0535 10.2233 22.0281 9.44671 21.8296 8.70591C21.6311 7.9651 21.2649 7.27989 20.7592 6.70327C20.2535 6.12666 19.622 5.6741 18.9134 5.3806C18.2049 5.08711 17.4383 4.96055 16.673 5.01071C16.4683 5.02412 16.2652 5.05008 16.0647 5.08826C15.9067 4.86763 15.7299 4.65887 15.5355 4.46447C14.5979 3.52678 13.3261 3 12 3ZM16.8993 7.00169C16.9658 7.32785 17 7.66216 17 8H15C15 7.20435 14.6839 6.44129 14.1213 5.87868C13.5587 5.31607 12.7956 5 12 5C11.2044 5 10.4413 5.31607 9.87868 5.87868C9.31607 6.44129 9 7.20435 9 8H7C7 7.66216 7.03419 7.32785 7.10066 7.00169C6.67339 6.98735 6.24759 7.06448 5.85195 7.22836C5.42681 7.40446 5.04789 7.67599 4.74448 8.02196C4.44107 8.36793 4.22132 8.77906 4.10222 9.22354C3.98312 9.66803 3.96787 10.134 4.05764 10.5853C4.14742 11.0366 4.33981 11.4612 4.61994 11.8263C4.90007 12.1914 5.26043 12.4871 5.67313 12.6906C6.08513 12.8938 6.53826 12.9996 6.99761 13L7 13V19H17V13H17.0024C17.4617 12.9996 17.9149 12.8938 18.3269 12.6906C18.7396 12.4871 19.0999 12.1914 19.3801 11.8263C19.6602 11.4612 19.8526 11.0366 19.9424 10.5853C20.0321 10.134 20.0169 9.66803 19.8978 9.22354C19.7787 8.77906 19.5589 8.36793 19.2555 8.02196C18.9521 7.67599 18.5732 7.40446 18.1481 7.22836C17.7524 7.06448 17.3266 6.98735 16.8993 7.00169Z" fill="#2B2D34"/>
<path fill-rule="evenodd" clip-rule="evenodd" d="M9 16V13H11V16H9Z" fill="#2B2D34"/>
<path fill-rule="evenodd" clip-rule="evenodd" d="M13 16V13H15V16H13Z" fill="#2B2D34"/>
</svg>
