<svg width="24" height="24" viewBox="0 0 24 24" fill="none" xmlns="http://www.w3.org/2000/svg">
<path fill-rule="evenodd" clip-rule="evenodd" d="M2 21V16H4V20H11V16H13V21C13 21.5523 12.5523 22 12 22H3C2.44772 22 2 21.5523 2 21Z" fill="#2B2D34"/>
<path fill-rule="evenodd" clip-rule="evenodd" d="M4 11.6516V12H11V11.6516C8.76245 10.707 6.23755 10.707 4 11.6516ZM3.03248 9.89125C5.87669 8.62715 9.1233 8.62715 11.9675 9.89125L12.4061 10.0862C12.7673 10.2467 13 10.6048 13 11V13C13 13.5523 12.5523 14 12 14H3C2.44772 14 2 13.5523 2 13V11C2 10.6048 2.23273 10.2467 2.59386 10.0862L3.03248 9.89125Z" fill="#2B2D34"/>
<path fill-rule="evenodd" clip-rule="evenodd" d="M14 4C13.4477 4 13 4.44772 13 5V6H15V5C15 4.44772 14.5523 4 14 4ZM15.7812 8H12C11.4477 8 11 7.55228 11 7V5C11 3.34315 12.3431 2 14 2C15.6569 2 17 3.34315 17 5V6.3741C21.8864 8.94793 23.6778 15.1473 20.7903 19.9598L19.8575 21.5145C19.6768 21.8157 19.3513 22 19 22H15V20H18.4338L19.0753 18.9308C21.4234 15.0173 19.8751 9.94883 15.7812 8Z" fill="#2B2D34"/>
</svg>
