<svg width="24" height="24" viewBox="0 0 24 24" fill="none" xmlns="http://www.w3.org/2000/svg">
<path fill-rule="evenodd" clip-rule="evenodd" d="M5 2C4.44772 2 4 2.44772 4 3V5C4 5.26522 4.10536 5.51957 4.29289 5.70711L6.29289 7.70711C6.48043 7.89464 6.73478 8 7 8H8V11C8 11.2652 8.10536 11.5196 8.29289 11.7071L10.2929 13.7071C10.4804 13.8946 10.7348 14 11 14V16H12.0028C12.3974 16.0005 12.783 16.1178 13.1111 16.3371C13.44 16.5568 13.6964 16.8692 13.8478 17.2346C13.9991 17.6001 14.0387 18.0022 13.9616 18.3902C13.8844 18.7781 13.6939 19.1345 13.4142 19.4142C13.1345 19.6939 12.7781 19.8844 12.3902 19.9616C12.0022 20.0387 11.6001 19.9991 11.2346 19.8478C10.8692 19.6964 10.5568 19.44 10.3371 19.1111C10.1173 18.7822 10 18.3956 10 18H8C8 18.7911 8.23459 19.5645 8.67412 20.2223C9.11365 20.8801 9.73836 21.3928 10.4693 21.6955C11.2002 21.9983 12.0044 22.0775 12.7804 21.9231C13.5563 21.7688 14.269 21.3878 14.8284 20.8284C15.3878 20.269 15.7688 19.5563 15.9231 18.7804C16.0775 18.0044 15.9983 17.2002 15.6955 16.4693C15.3928 15.7384 14.8801 15.1136 14.2223 14.6741C13.8465 14.423 13.433 14.2388 13 14.127V14C13.2652 14 13.5196 13.8946 13.7071 13.7071L15.7071 11.7071C15.8946 11.5196 16 11.2652 16 11V8H17C17.2652 8 17.5196 7.89464 17.7071 7.70711L19.7071 5.70711C19.8946 5.51957 20 5.26522 20 5V3C20 2.44772 19.5523 2 19 2H5ZM10 10.5858V8H14V10.5858L12.5858 12H11.4142L10 10.5858ZM6 4.58579V4H18V4.58579L16.5858 6H7.41421L6 4.58579Z" fill="#2B2D34"/>
</svg>
