<svg width="24" height="26" viewBox="0 0 24 26" fill="none" xmlns="http://www.w3.org/2000/svg">
<path d="M4.8427 0.792877L1.3427 4.29288C1.15516 4.48041 1.0498 4.73477 1.0498 4.99999C1.0498 5.2652 1.15516 5.51956 1.3427 5.70709L4.8427 9.20709L6.25691 7.79288L4.46402 5.99998H19.9995V3.99998H4.46402L6.25691 2.20709L4.8427 0.792877Z" fill="#2B2D34"/>
<path d="M19.1209 25.2071L22.6209 21.7071C22.8084 21.5196 22.9138 21.2652 22.9138 21C22.9138 20.7348 22.8084 20.4804 22.6209 20.2929L19.1209 16.7929L17.7066 18.2071L19.4995 20L3.99954 20V22L19.4995 22L17.7066 23.7929L19.1209 25.2071Z" fill="#2B2D34"/>
<path d="M14.9995 17.5C15.828 17.5 16.4995 16.8284 16.4995 16C16.4995 15.1716 15.828 14.5 14.9995 14.5C14.1711 14.5 13.4995 15.1716 13.4995 16C13.4995 16.8284 14.1711 17.5 14.9995 17.5Z" fill="#2B2D34"/>
<path d="M10.4995 10C10.4995 10.8284 9.82797 11.5 8.99954 11.5C8.17111 11.5 7.49954 10.8284 7.49954 10C7.49954 9.17157 8.17111 8.5 8.99954 8.5C9.82797 8.5 10.4995 9.17157 10.4995 10Z" fill="#2B2D34"/>
<path d="M9.20666 17.2071L16.2067 10.2071L14.7924 8.79291L7.79245 15.7929L9.20666 17.2071Z" fill="#2B2D34"/>
</svg>
