<svg width="24" height="24" viewBox="0 0 24 24" fill="none" xmlns="http://www.w3.org/2000/svg">
<path fill-rule="evenodd" clip-rule="evenodd" d="M7 16V13H9V15.5858L10.7071 17.2929L9.29289 18.7071L7.29289 16.7071C7.10536 16.5196 7 16.2652 7 16Z" fill="#2B2D34"/>
<path fill-rule="evenodd" clip-rule="evenodd" d="M8 11.5C5.51472 11.5 3.5 13.5147 3.5 16C3.5 18.4853 5.51472 20.5 8 20.5C10.4853 20.5 12.5 18.4853 12.5 16C12.5 13.5147 10.4853 11.5 8 11.5ZM1.5 16C1.5 12.4102 4.41015 9.5 8 9.5C11.5899 9.5 14.5 12.4102 14.5 16C14.5 19.5899 11.5899 22.5 8 22.5C4.41015 22.5 1.5 19.5899 1.5 16Z" fill="#2B2D34"/>
<path d="M21 2C21.5523 2 22 2.44772 22 3V15C22 15.2652 21.8946 15.5196 21.7071 15.7071C21.5196 15.8946 21.2652 16 21 16L16 16V14L18.0854 14C18.0301 13.8436 18 13.6753 18 13.5C18 12.6716 18.6716 12 19.5 12C19.6753 12 19.8436 12.0301 20 12.0854V5.91465C19.8436 5.96992 19.6753 6 19.5 6C18.6716 6 18 5.32843 18 4.5C18 4.32468 18.0301 4.15639 18.0854 4L5.91465 4C5.96992 4.15639 6 4.32468 6 4.5C6 5.32843 5.32843 6 4.5 6C4.32468 6 4.15639 5.96992 4 5.91465V9H2L2 3C2 2.44772 2.44772 2 3 2H21Z" fill="#2B2D34"/>
</svg>
