<svg width="24" height="24" viewBox="0 0 24 24" fill="none" xmlns="http://www.w3.org/2000/svg">
<path d="M1.79289 8.29285L8.79289 1.29285L10.2071 2.70706L4.91417 8H22V10H4.91426L9.70711 14.7928L8.29289 16.2071L1.79289 9.70706C1.40237 9.31654 1.40237 8.68337 1.79289 8.29285Z" fill="#2B2D34"/>
<path d="M16 15.5C16 16.3284 15.3284 17 14.5 17C13.6716 17 13 16.3284 13 15.5C13 14.6716 13.6716 14 14.5 14C15.3284 14 16 14.6716 16 15.5Z" fill="#2B2D34"/>
<path d="M20.5 23C21.3284 23 22 22.3284 22 21.5C22 20.6716 21.3284 20 20.5 20C19.6716 20 19 20.6716 19 21.5C19 22.3284 19.6716 23 20.5 23Z" fill="#2B2D34"/>
<path d="M21.7071 15.7071L14.7071 22.7071L13.2929 21.2929L20.2929 14.2929L21.7071 15.7071Z" fill="#2B2D34"/>
</svg>
