<svg width="24" height="24" viewBox="0 0 24 24" fill="none" xmlns="http://www.w3.org/2000/svg">
<path d="M22.2071 8.29285L15.2071 1.29285L13.7929 2.70706L19.0858 8H2V10H19.0857L14.2929 14.7928L15.7071 16.2071L22.2071 9.70706C22.5976 9.31654 22.5976 8.68337 22.2071 8.29285Z" fill="#2B2D34"/>
<path d="M5 15.5C5 16.3284 4.32843 17 3.5 17C2.67157 17 2 16.3284 2 15.5C2 14.6716 2.67157 14 3.5 14C4.32843 14 5 14.6716 5 15.5Z" fill="#2B2D34"/>
<path d="M9.5 23C10.3284 23 11 22.3284 11 21.5C11 20.6716 10.3284 20 9.5 20C8.67157 20 8 20.6716 8 21.5C8 22.3284 8.67157 23 9.5 23Z" fill="#2B2D34"/>
<path d="M10.7071 15.7071L3.70711 22.7071L2.29289 21.2929L9.29289 14.2929L10.7071 15.7071Z" fill="#2B2D34"/>
</svg>
