<svg width="24" height="24" viewBox="0 0 24 24" fill="none" xmlns="http://www.w3.org/2000/svg">
<path d="M12.4777 6.54591C12.3325 6.07607 11.6675 6.07607 11.5223 6.5459L11.1646 7.70335C11.0999 7.91285 10.9062 8.05573 10.6869 8.05573H9.47815C8.99988 8.05573 8.79456 8.66272 9.17462 8.95306L10.195 9.73255C10.3615 9.85975 10.431 10.0773 10.3692 10.2775L9.98972 11.5054C9.84599 11.9705 10.3841 12.3459 10.771 12.0504L11.6965 11.3433C11.8757 11.2064 12.1243 11.2064 12.3035 11.3433L13.229 12.0504C13.6159 12.3459 14.154 11.9705 14.0103 11.5054L13.6308 10.2775C13.569 10.0773 13.6385 9.85975 13.805 9.73255L14.8254 8.95305C15.2054 8.66272 15.0001 8.05573 14.5219 8.05573H13.3131C13.0938 8.05573 12.9001 7.91285 12.8354 7.70335L12.4777 6.54591Z" fill="#2B2D34"/>
<path fill-rule="evenodd" clip-rule="evenodd" d="M5 3C5 2.44772 5.44772 2 6 2H18C18.5523 2 19 2.44772 19 3V4H22C22.5523 4 23 4.44772 23 5V5.10051C23 7.22224 22.1571 9.25707 20.6569 10.7574L18.2071 13.2071C18.1792 13.235 18.1501 13.2608 18.12 13.2847C17.8018 14.0857 17.4101 14.8502 16.9662 15.5408C15.9909 17.0578 14.6081 18.4451 13 18.8684V20H17V22H7V20H11V18.8684C9.39191 18.4451 8.00906 17.0578 7.03382 15.5408C6.58989 14.8502 6.19817 14.0857 5.88002 13.2847C5.84986 13.2608 5.82076 13.235 5.79289 13.2071L3.34315 10.7574C1.84285 9.25707 1 7.22224 1 5.10051V5C1 4.44772 1.44772 4 2 4H5V3ZM5 9C5 9.2003 5.00669 9.40232 5.01974 9.60553L4.75736 9.34315C3.84637 8.43216 3.25858 7.25839 3.06778 6H5V9ZM18.9803 9.60553L19.2426 9.34315C20.1536 8.43216 20.7414 7.25839 20.9322 6H19V9C19 9.2003 18.9933 9.40232 18.9803 9.60553ZM7 4V9C7 10.7783 7.67741 12.8434 8.71618 14.4592C9.79405 16.1359 11.0331 17 12 17C12.9669 17 14.2059 16.1359 15.2838 14.4592C16.3226 12.8434 17 10.7783 17 9V4H7Z" fill="#2B2D34"/>
</svg>
