<svg width="24" height="24" viewBox="0 0 24 24" fill="none" xmlns="http://www.w3.org/2000/svg">
<g clip-path="url(#clip0_786_455)">
<path fill-rule="evenodd" clip-rule="evenodd" d="M12 24C18.6274 24 24 18.6274 24 12C24 5.37258 18.6274 0 12 0C5.37258 0 0 5.37258 0 12C0 18.6274 5.37258 24 12 24ZM12 3C8.13401 3 5 6.13401 5 10V14C5 17.866 8.13401 21 12 21C15.866 21 19 17.866 19 14V13.6923L20 13.3713V14.05C20 14.6023 20.4477 15.05 21 15.05C21.5523 15.05 22 14.6023 22 14.05V12.0244C22.0004 12.0083 22.0004 11.9923 22 11.9761V10C22 9.44772 21.5523 9 21 9C20.4477 9 20 9.44772 20 10V11.2708L19 11.5918V10C19 6.13401 15.866 3 12 3ZM17 12.2338V10C17 7.23858 14.7614 5 12 5C9.23858 5 7 7.23858 7 10V14C7 16.7614 9.23858 19 12 19C14.6479 19 16.815 16.9418 16.9888 14.3379L14.6308 15.0948C14.4158 15.8484 13.7221 16.4 12.8996 16.4C11.9055 16.4 11.0996 15.5942 11.0996 14.6C11.0996 13.6059 11.9055 12.8 12.8996 12.8C13.3228 12.8 13.712 12.9461 14.0193 13.1906L17 12.2338ZM3 9C3.55228 9 4 9.44772 4 10V14.05C4 14.6023 3.55228 15.05 3 15.05C2.44772 15.05 2 14.6023 2 14.05V10C2 9.44772 2.44772 9 3 9Z" fill="#2B2D34"/>
</g>
<defs>
<clipPath id="clip0_786_455">
<rect width="24" height="24" fill="white"/>
</clipPath>
</defs>
</svg>
