<svg width="25" height="24" viewBox="0 0 25 24" fill="none" xmlns="http://www.w3.org/2000/svg">
<path d="M4 3C3.44772 3 3 3.44772 3 4V20C3 20.5523 3.44772 21 4 21H5V23H7V21H17V23H19V21H20C20.5523 21 21 20.5523 21 20V18H19V19H5V5H19V6H21V4C21 3.44772 20.5523 3 20 3H4Z" fill="#2B2D34"/>
<path d="M8 7C7.44772 7 7 7.44772 7 8V16C7 16.5523 7.44772 17 8 17H15V15H9V13H11V11H9V9H15V7H8Z" fill="#2B2D34"/>
<path d="M19 12.5857V8H21V12.5859L22.793 10.7929L24.2072 12.2071L20.7072 15.7071C20.3167 16.0976 19.6835 16.0976 19.293 15.7071L15.793 12.2071L17.2072 10.7929L19 12.5857Z" fill="#2B2D34"/>
</svg>
