<svg width="24" height="24" viewBox="0 0 24 24" fill="none" xmlns="http://www.w3.org/2000/svg">
<path d="M11 4C11 5.10457 10.1046 6 9 6C7.89543 6 7 5.10457 7 4C7 2.89543 7.89543 2 9 2C10.1046 2 11 2.89543 11 4Z" fill="#2B2D34"/>
<path d="M8.83386 13.3935L7.01904 4.19352L8.98123 3.80646L9.80846 8H14V10H10.203L10.637 12.2H16.1112C16.5222 12.2 16.8913 12.4514 17.0418 12.8338L18.6813 17H20.0001V19H18.0001C17.5892 19 17.2201 18.7486 17.0696 18.3662L15.4301 14.2H9.81495C9.33728 14.2 8.9263 13.8622 8.83386 13.3935Z" fill="#2B2D34"/>
<path d="M6 15.5C6 14.2875 6.61575 13.2183 7.55626 12.5888L6.44374 10.9268C4.97228 11.9117 4 13.5921 4 15.5C4 18.5376 6.46243 21 9.5 21C12.5376 21 15 18.5376 15 15.5H13C13 17.433 11.433 19 9.5 19C7.567 19 6 17.433 6 15.5Z" fill="#2B2D34"/>
</svg>
