<svg width="24" height="24" viewBox="0 0 24 24" fill="none" xmlns="http://www.w3.org/2000/svg">
<path fill-rule="evenodd" clip-rule="evenodd" d="M12.6502 9.95001H8.40017V7.95001H12.6502V9.95001Z" fill="#2B2D34"/>
<path fill-rule="evenodd" clip-rule="evenodd" d="M8.02968 12.2425L6.02968 4.24254L7.96997 3.75746L9.7806 11H13.9998C14.3786 11 14.7249 11.214 14.8943 11.5528L16.6179 15H17.9998V17H15.9998C15.6211 17 15.2748 16.786 15.1054 16.4472L13.3818 13H8.99982C8.54096 13 8.14097 12.6877 8.02968 12.2425Z" fill="#2B2D34"/>
<path d="M10 4C10 5.10457 9.10457 6 8 6C6.89543 6 6 5.10457 6 4C6 2.89543 6.89543 2 8 2C9.10457 2 10 2.89543 10 4Z" fill="#2B2D34"/>
<path fill-rule="evenodd" clip-rule="evenodd" d="M7.25483 11.831C6.9893 12.0087 6.75534 12.2305 6.56364 12.4857C6.20947 12.9572 6 13.5418 6 14.1782C6 15.7366 7.26336 17 8.82178 17C10.1707 17 11.3006 16.0525 11.5782 14.786L13.5318 15.214C13.0574 17.379 11.1301 19 8.82178 19C6.15879 19 4 16.8412 4 14.1782C4 13.0939 4.35912 12.0905 4.9645 11.2846C5.29107 10.8498 5.68944 10.4721 6.14231 10.169L7.25483 11.831Z" fill="#2B2D34"/>
<path fill-rule="evenodd" clip-rule="evenodd" d="M22 22H2V20H22V22Z" fill="#2B2D34"/>
<path fill-rule="evenodd" clip-rule="evenodd" d="M17.2928 2.29289C17.6833 1.90237 18.3165 1.90237 18.707 2.29289L21.707 5.29289L20.2928 6.70711L17.9999 4.41421L15.707 6.70711L14.2928 5.29289L17.2928 2.29289Z" fill="#2B2D34"/>
<path fill-rule="evenodd" clip-rule="evenodd" d="M16.9999 10V3.5H18.9999V10H16.9999Z" fill="#2B2D34"/>
</svg>
