<svg width="24" height="24" viewBox="0 0 24 24" fill="none" xmlns="http://www.w3.org/2000/svg">
<path fill-rule="evenodd" clip-rule="evenodd" d="M11.3114 21.0606C12.035 22.3268 13.6217 22.8072 14.9261 22.155C15.4579 21.8891 15.8891 21.4579 16.155 20.9261L16.3684 20.4993C16.8146 19.6069 16.9269 18.5843 16.6849 17.6164L16.2808 16H19.0459C21.1683 16 22.6196 13.8564 21.8314 11.8858L19.4314 5.88585C18.9758 4.74688 17.8727 4.00002 16.6459 4.00002H10C9.80259 4.00002 9.60958 4.05846 9.44531 4.16797L8 5.13151V5C8 4.44772 7.55228 4 7 4H3C2.44772 4 2 4.44772 2 5V16C2 16.5523 2.44772 17 3 17H7C7.55228 17 7.99999 16.5523 8 16H8.41969L11.3114 21.0606ZM10.3028 6.00002L8 7.53521V14H9.00001C9.35887 14 9.69021 14.1923 9.86826 14.5039L13.0479 20.0683C13.2448 20.4129 13.6767 20.5437 14.0317 20.3661C14.1764 20.2938 14.2938 20.1764 14.3661 20.0317L14.5796 19.6048C14.8123 19.1395 14.8708 18.6062 14.7446 18.1015L14.2192 16H13V14H15C15 14 15 14 15 14L19.0459 14C19.7534 14 20.2372 13.2855 19.9744 12.6286L17.5744 6.62863C17.4226 6.24897 17.0549 6.00002 16.6459 6.00002H10.3028ZM4 15V6H6V15H4Z" fill="#2B2D34"/>
</svg>
