<svg width="24" height="24" viewBox="0 0 24 24" fill="none" xmlns="http://www.w3.org/2000/svg">
<path d="M18 3C18 2.44772 17.5523 2 17 2H3C2.44771 2 2 2.44772 2 3V21C2 21.5523 2.44771 22 3 22H9V20H4V4H16V9H18V3Z" fill="#2B2D34"/>
<path d="M17 13C16.2227 13 15.5001 13.2207 14.8877 13.6024L13.8298 11.9051C14.7503 11.3313 15.838 11 17 11C20.3137 11 23 13.6863 23 17C23 20.3137 20.3137 23 17 23C13.8652 23 11.2919 20.5959 11.0232 17.5309L9.86632 18.8617L8.3569 17.5496L11.1403 14.3476C11.5027 13.9308 12.1343 13.8866 12.5511 14.249L15.7531 17.0324L14.4409 18.5418L13.011 17.2988C13.1638 19.3684 14.8914 21 17 21C19.2091 21 21 19.2091 21 17C21 14.7909 19.2091 13 17 13Z" fill="#2B2D34"/>
</svg>
