<svg width="24" height="24" viewBox="0 0 24 24" fill="none" xmlns="http://www.w3.org/2000/svg">
<path d="M19 3C19 2.44772 18.5523 2 18 2H4C3.44771 2 3 2.44772 3 3V21C3 21.5523 3.44771 22 4 22H8V20H5V4H17V13H19V3Z" fill="#2B2D34"/>
<path fill-rule="evenodd" clip-rule="evenodd" d="M10 18C10 16.3431 11.3431 15 13 15C14.3062 15 15.4175 15.8348 15.8293 17H21C21.5523 17 22 17.4477 22 18V21H20V19H15.8293C15.4175 20.1652 14.3062 21 13 21C11.3431 21 10 19.6569 10 18ZM13 17C12.4477 17 12 17.4477 12 18C12 18.5523 12.4477 19 13 19C13.5523 19 14 18.5523 14 18C14 17.4477 13.5523 17 13 17Z" fill="#2B2D34"/>
</svg>
