<svg width="24" height="24" viewBox="0 0 24 24" fill="none" xmlns="http://www.w3.org/2000/svg">
<path d="M7 2C6.44772 2 6 2.44772 6 3V7H8V4H20V20H16V22H21C21.5523 22 22 21.5523 22 21V3C22 2.44772 21.5523 2 21 2H7Z" fill="#2B2D34"/>
<path d="M9 13V15.5858L10.7071 17.2929L9.29289 18.7071L7 16.4142V13H9Z" fill="#2B2D34"/>
<path fill-rule="evenodd" clip-rule="evenodd" d="M1 16C1 12.134 4.13401 9 8 9C11.866 9 15 12.134 15 16C15 19.866 11.866 23 8 23C4.13401 23 1 19.866 1 16ZM8 11C5.23858 11 3 13.2386 3 16C3 18.7614 5.23858 21 8 21C10.7614 21 13 18.7614 13 16C13 13.2386 10.7614 11 8 11Z" fill="#2B2D34"/>
</svg>
