<svg width="24" height="24" viewBox="0 0 24 24" fill="none" xmlns="http://www.w3.org/2000/svg">
<path d="M5 2C4.44772 2 4 2.44772 4 3V21C4 21.5523 4.44772 22 5 22H13V20H6V4H18V15H20V3C20 2.44772 19.5523 2 19 2H5Z" fill="#2B2D34"/>
<path d="M16 17C15.4477 17 15 17.4477 15 18V22H16C16.5523 22 17 21.5523 17 21V19H19C19.5523 19 20 18.5523 20 18V17H16Z" fill="#2B2D34"/>
<path d="M12 7C12.152 7 12.2894 7.09044 12.3495 7.23004L13.2891 9.4119L15.6546 9.63129C15.8059 9.64532 15.9344 9.74807 15.9814 9.89263C16.0283 10.0372 15.9848 10.1958 15.8706 10.2961L14.0859 11.864L14.6082 14.1814C14.6416 14.3297 14.5836 14.4837 14.4606 14.573C14.3376 14.6623 14.1733 14.6699 14.0426 14.5923L12 13.3795L9.95738 14.5923C9.82669 14.6699 9.66235 14.6623 9.53938 14.573C9.41642 14.4837 9.3584 14.3297 9.39182 14.1814L9.91413 11.864L8.12941 10.2961C8.01522 10.1958 7.97167 10.0372 8.01864 9.89263C8.06561 9.74807 8.19409 9.64532 8.34544 9.63129L10.7109 9.4119L11.6505 7.23004C11.7106 7.09044 11.848 7 12 7Z" fill="#2B2D34"/>
</svg>
