<svg width="24" height="24" viewBox="0 0 24 24" fill="none" xmlns="http://www.w3.org/2000/svg">
<path fill-rule="evenodd" clip-rule="evenodd" d="M18 3C18 2.44772 17.5523 2 17 2H3C2.44771 2 2 2.44772 2 3V21C2 21.5523 2.44771 22 3 22H7V20H4V4H16V9H18V3Z" fill="#2B2D34"/>
<path d="M16 18.5C16.8284 18.5 17.5 17.8284 17.5 17C17.5 16.1716 16.8284 15.5 16 15.5C15.1716 15.5 14.5 16.1716 14.5 17C14.5 17.8284 15.1716 18.5 16 18.5Z" fill="#2B2D34"/>
<path fill-rule="evenodd" clip-rule="evenodd" d="M16 12C14.0456 12 12.3307 12.8786 11.1299 13.8464C10.5246 14.3342 10.0211 14.867 9.65985 15.369C9.47943 15.6197 9.32389 15.8773 9.20987 16.1309C9.10249 16.3697 9 16.6744 9 17C9 17.3256 9.10249 17.6303 9.20987 17.8691C9.32389 18.1227 9.47943 18.3803 9.65985 18.631C10.0211 19.133 10.5246 19.6658 11.1299 20.1536C12.3307 21.1214 14.0456 22 16 22C17.9544 22 19.6693 21.1214 20.8701 20.1536C21.4754 19.6658 21.9789 19.133 22.3401 18.631C22.5206 18.3803 22.6761 18.1227 22.7901 17.8691C22.8975 17.6303 23 17.3256 23 17C23 16.6744 22.8975 16.3697 22.7901 16.1309C22.6761 15.8773 22.5206 15.6197 22.3401 15.369C21.9789 14.867 21.4754 14.3342 20.8701 13.8464C19.6693 12.8786 17.9544 12 16 12ZM11.0339 17.0489C11.0253 17.0297 11.0186 17.0134 11.0134 17C11.0186 16.9866 11.0253 16.9703 11.0339 16.9511C11.0798 16.8492 11.16 16.7084 11.2832 16.5373C11.5291 16.1955 11.9044 15.7908 12.3848 15.4036C13.3556 14.6214 14.6407 14 16 14C17.3593 14 18.6444 14.6214 19.6152 15.4036C20.0956 15.7908 20.4709 16.1955 20.7168 16.5373C20.84 16.7084 20.9202 16.8492 20.9661 16.9511C20.9747 16.9703 20.9814 16.9866 20.9866 17C20.9814 17.0134 20.9747 17.0297 20.9661 17.0489C20.9202 17.1508 20.84 17.2916 20.7168 17.4627C20.4709 17.8045 20.0956 18.2092 19.6152 18.5964C18.6444 19.3786 17.3593 20 16 20C14.6407 20 13.3556 19.3786 12.3848 18.5964C11.9044 18.2092 11.5291 17.8045 11.2832 17.4627C11.16 17.2916 11.0798 17.1508 11.0339 17.0489Z" fill="#2B2D34"/>
</svg>
