<svg width="24" height="24" viewBox="0 0 24 24" fill="none" xmlns="http://www.w3.org/2000/svg">
<path d="M18 3C18 2.44772 17.5523 2 17 2H3C2.44771 2 2 2.44772 2 3V21C2 21.5523 2.44771 22 3 22H11V20H4V4H16V10H18V3Z" fill="#2B2D34"/>
<path fill-rule="evenodd" clip-rule="evenodd" d="M16.6348 18.7795L18.0715 22.3714C18.2274 22.761 18.6099 23.0119 19.0294 22.9996C19.4488 22.9872 19.816 22.7143 19.9487 22.3162L23.4487 11.8162C23.5685 11.4569 23.4749 11.0607 23.2071 10.7929C22.9393 10.5251 22.5431 10.4315 22.1838 10.5513L11.6838 14.0513C11.2857 14.184 11.0128 14.5512 11.0004 14.9706C10.9881 15.3901 11.239 15.7726 11.6286 15.9285L15.2205 17.3652L13.7929 18.7929L15.2071 20.2071L16.6348 18.7795ZM17.3714 16.0715L14.9061 15.0854L20.9189 13.0811L18.9146 19.0939L17.9285 16.6286C17.8268 16.3745 17.6255 16.1732 17.3714 16.0715Z" fill="#2B2D34"/>
</svg>
