<svg width="24" height="24" viewBox="0 0 24 24" fill="none" xmlns="http://www.w3.org/2000/svg">
<path fill-rule="evenodd" clip-rule="evenodd" d="M3 20H15V22H2C1.44772 22 1 21.5523 1 21L1 3C1 2.73478 1.10536 2.48043 1.29289 2.29289C1.48043 2.10536 1.73478 2 2 2L16 2C16.5523 2 17 2.44772 17 3V8L15 8V4L3 4L3 20Z" fill="#2B2D34"/>
<path d="M4.8425 18V10.1797H6.91037C7.82346 10.1797 8.55035 10.4697 9.09104 11.0498C9.63531 11.6299 9.91281 12.4248 9.92356 13.4346V14.7021C9.92356 15.7298 9.65142 16.5373 9.10715 17.1245C8.56646 17.7082 7.81988 18 6.8674 18H4.8425ZM6.4216 11.4956V16.6895H6.89426C7.42063 16.6895 7.79123 16.5516 8.00608 16.2759C8.22092 15.9966 8.33371 15.5168 8.34445 14.8364V13.4775C8.34445 12.7471 8.2424 12.2386 8.0383 11.9521C7.8342 11.6621 7.48687 11.5099 6.99631 11.4956H6.4216Z" fill="#2B2D34"/>
<path d="M16.7876 14.7935C16.7876 15.8426 16.5387 16.6572 16.041 17.2373C15.5469 17.8174 14.8594 18.1074 13.9785 18.1074C13.1012 18.1074 12.4119 17.821 11.9106 17.248C11.4093 16.6715 11.1551 15.8659 11.148 14.8311V13.4937C11.148 12.4194 11.3968 11.5815 11.8945 10.98C12.3923 10.3748 13.0833 10.0723 13.9678 10.0723C14.8379 10.0723 15.5236 10.3695 16.0249 10.9639C16.5262 11.5547 16.7804 12.3854 16.7876 13.4561V14.7935ZM15.2031 13.4829C15.2031 12.7775 15.1029 12.2529 14.9023 11.9092C14.7018 11.5654 14.3903 11.3936 13.9678 11.3936C13.5488 11.3936 13.2391 11.5601 13.0386 11.8931C12.8381 12.2225 12.7342 12.7256 12.7271 13.4023V14.7935C12.7271 15.4774 12.8291 15.9823 13.0332 16.3081C13.2373 16.6304 13.5524 16.7915 13.9785 16.7915C14.3903 16.7915 14.6965 16.634 14.897 16.3188C15.0975 16.0002 15.1995 15.5078 15.2031 14.8418V13.4829Z" fill="#2B2D34"/>
<path d="M23.4422 15.395C23.4028 16.2866 23.1521 16.9616 22.6902 17.4199C22.2283 17.8783 21.5766 18.1074 20.7351 18.1074C19.8507 18.1074 19.1721 17.8174 18.6995 17.2373C18.2304 16.6536 17.9959 15.8229 17.9959 14.7451V13.4292C17.9959 12.355 18.2394 11.5278 18.7263 10.9478C19.2133 10.3641 19.8901 10.0723 20.7566 10.0723C21.6088 10.0723 22.2552 10.3104 22.6956 10.7866C23.1396 11.2629 23.392 11.9468 23.4529 12.8384H21.8684C21.8541 12.2869 21.7682 11.9074 21.6106 11.6997C21.4567 11.4884 21.172 11.3828 20.7566 11.3828C20.3341 11.3828 20.0351 11.5314 19.8596 11.8286C19.6842 12.1222 19.5911 12.6074 19.5804 13.2842V14.7612C19.5804 15.5382 19.6663 16.0718 19.8382 16.3618C20.0136 16.6519 20.3126 16.7969 20.7351 16.7969C21.1505 16.7969 21.437 16.6966 21.5945 16.4961C21.7521 16.292 21.8416 15.925 21.8631 15.395H23.4422Z" fill="#2B2D34"/>
</svg>
