<svg width="24" height="24" viewBox="0 0 24 24" fill="none" xmlns="http://www.w3.org/2000/svg">
<path d="M9 2H20C20.5523 2 21 2.44772 21 3V18H19V4H9V2Z" fill="#2B2D34"/>
<path d="M5 6H16C16.5523 6 17 6.44772 17 7V21C17 21.5523 16.5523 22 16 22H13V20H15V8H5V6Z" fill="#2B2D34"/>
<path fill-rule="evenodd" clip-rule="evenodd" d="M7 22V20H11V18H7V16H10C10.394 16 10.7841 15.9224 11.1481 15.7716C11.512 15.6209 11.8427 15.3999 12.1213 15.1213C12.3999 14.8427 12.6209 14.512 12.7716 14.1481C12.9224 13.7841 13 13.394 13 13C13 12.606 12.9224 12.2159 12.7716 11.8519C12.6209 11.488 12.3999 11.1573 12.1213 10.8787C11.8427 10.6001 11.512 10.3791 11.1481 10.2284C10.7841 10.0776 10.394 10 10 10H5V14H3V16H5V18H3V20H5V22H7ZM10 14C10.1313 14 10.2614 13.9741 10.3827 13.9239C10.504 13.8736 10.6142 13.8 10.7071 13.7071C10.8 13.6142 10.8736 13.504 10.9239 13.3827C10.9741 13.2614 11 13.1313 11 13C11 12.8687 10.9741 12.7386 10.9239 12.6173C10.8736 12.496 10.8 12.3858 10.7071 12.2929C10.6142 12.2 10.504 12.1264 10.3827 12.0761C10.2614 12.0259 10.1313 12 10 12H7V14H10Z" fill="#2B2D34"/>
</svg>
