<svg width="25" height="24" viewBox="0 0 25 24" fill="none" xmlns="http://www.w3.org/2000/svg">
<path d="M2.00049 20L16.0005 20V22H3.00049C2.73527 22 2.48092 21.8946 2.29338 21.7071C2.10585 21.5196 2.00049 21.2652 2.00049 21V20Z" fill="#2B2D34"/>
<path d="M18.0005 3V8H16.0005L16.0005 4L4.00049 4L4.00049 8H2.00049L2.00049 3C2.00049 2.73478 2.10584 2.48043 2.29338 2.29289C2.48092 2.10536 2.73527 2 3.00049 2H17.0005C17.5528 2 18.0005 2.44772 18.0005 3Z" fill="#2B2D34"/>
<path fill-rule="evenodd" clip-rule="evenodd" d="M11.629 17.2373C12.1267 16.6572 12.3756 15.8426 12.3756 14.7935V13.4561C12.3684 12.3854 12.1142 11.5547 11.6129 10.9639C11.1116 10.3695 10.4259 10.0723 9.55574 10.0723C8.6713 10.0723 7.98022 10.3748 7.4825 10.98C6.98478 11.5815 6.73592 12.4194 6.73592 13.4937V14.8311C6.74308 15.8659 6.99731 16.6715 7.49861 17.248C7.99992 17.821 8.68921 18.1074 9.56648 18.1074C10.4473 18.1074 11.1348 17.8174 11.629 17.2373ZM10.4903 11.9092C10.6908 12.2529 10.7911 12.7775 10.7911 13.4829V14.8418C10.7875 15.5078 10.6855 16.0002 10.4849 16.3188C10.2844 16.634 9.97827 16.7915 9.56648 16.7915C9.14038 16.7915 8.82527 16.6304 8.62117 16.3081C8.41707 15.9823 8.31502 15.4774 8.31502 14.7935V13.4023C8.32218 12.7256 8.42602 12.2225 8.62654 11.8931C8.82706 11.5601 9.1368 11.3936 9.55574 11.3936C9.97827 11.3936 10.2898 11.5654 10.4903 11.9092Z" fill="#2B2D34"/>
<path fill-rule="evenodd" clip-rule="evenodd" d="M0.980469 10.1797V18H3.00537C3.95784 18 4.70443 17.7082 5.24512 17.1245C5.78939 16.5373 6.06152 15.7298 6.06152 14.7021V13.4346C6.05078 12.4248 5.77327 11.6299 5.229 11.0498C4.68831 10.4697 3.96143 10.1797 3.04834 10.1797H0.980469ZM2.55957 16.6895V11.4956H3.13428C3.62484 11.5099 3.97217 11.6621 4.17627 11.9521C4.38037 12.2386 4.48242 12.7471 4.48242 13.4775V14.8364C4.47168 15.5168 4.35889 15.9966 4.14404 16.2759C3.9292 16.5516 3.55859 16.6895 3.03223 16.6895H2.55957Z" fill="#2B2D34"/>
<path d="M18.4801 15.395C18.4407 16.2866 18.1901 16.9616 17.7282 17.4199C17.2663 17.8783 16.6146 18.1074 15.7731 18.1074C14.8887 18.1074 14.2101 17.8174 13.7375 17.2373C13.2684 16.6536 13.0338 15.8229 13.0338 14.7451V13.4292C13.0338 12.355 13.2773 11.5278 13.7643 10.9478C14.2513 10.3641 14.9281 10.0723 15.7946 10.0723C16.6468 10.0723 17.2931 10.3104 17.7336 10.7866C18.1776 11.2629 18.43 11.9468 18.4909 12.8384H16.9064C16.8921 12.2869 16.8061 11.9074 16.6486 11.6997C16.4946 11.4884 16.21 11.3828 15.7946 11.3828C15.3721 11.3828 15.0731 11.5314 14.8976 11.8286C14.7222 12.1222 14.6291 12.6074 14.6183 13.2842V14.7612C14.6183 15.5382 14.7043 16.0718 14.8761 16.3618C15.0516 16.6519 15.3506 16.7969 15.7731 16.7969C16.1885 16.7969 16.4749 16.6966 16.6325 16.4961C16.79 16.292 16.8795 15.925 16.901 15.395H18.4801Z" fill="#2B2D34"/>
<path d="M22.6243 10.1797L21.5715 12.8652L20.5188 10.1797H18.7087L20.551 14.0576L18.6711 18H20.5027L21.5715 15.2661L22.6457 18H24.4773L22.5974 14.0576L24.4343 10.1797H22.6243Z" fill="#2B2D34"/>
</svg>
