<svg width="24" height="24" viewBox="0 0 24 24" fill="none" xmlns="http://www.w3.org/2000/svg">
<path d="M14 4H13V2H11V4H10C7.79086 4 6 5.79086 6 8V9C6 11.2091 7.79086 13 10 13H14C15.1046 13 16 13.8954 16 15V16C16 17.1046 15.1046 18 14 18H10C8.89543 18 8 17.1046 8 16H6C6 18.2091 7.79086 20 10 20H11V22H13V20H14C16.2091 20 18 18.2091 18 16V15C18 12.7909 16.2091 11 14 11H10C8.89543 11 8 10.1046 8 9V8C8 6.89543 8.89543 6 10 6H14C15.1046 6 16 6.89543 16 8H18C18 5.79086 16.2091 4 14 4Z" fill="#2B2D34"/>
</svg>
