<svg width="24" height="24" viewBox="0 0 24 24" fill="none" xmlns="http://www.w3.org/2000/svg">
<path d="M6.84089 6.3454L5.42612 4.93174C3.56521 6.79412 2.5 9.314 2.5 12C2.5 17.5228 6.97715 22 12.5 22C18.0228 22 22.5 17.5228 22.5 12C22.5 9.31327 21.4342 6.79277 19.5724 4.93027L18.1579 6.34422C19.6485 7.83539 20.5 9.84902 20.5 12C20.5 16.4183 16.9183 20 12.5 20C8.08172 20 4.5 16.4183 4.5 12C4.5 9.8496 5.351 7.83647 6.84089 6.3454Z" fill="#2B2D34"/>
<path d="M15.7929 11.2929L17.2071 12.7071L13.2071 16.7071C12.8166 17.0976 12.1834 17.0976 11.7929 16.7071L7.79289 12.7071L9.20711 11.2929L11.5 13.5858V3H13.5V13.5858L15.7929 11.2929Z" fill="#2B2D34"/>
</svg>
