<svg width="24" height="24" viewBox="0 0 24 24" fill="none" xmlns="http://www.w3.org/2000/svg">
<path d="M12.7071 2.29289C12.3166 1.90237 11.6834 1.90237 11.2929 2.29289L7.79291 5.79289L9.20712 7.20711L11 5.41421V11H5.41421L7.20711 9.20712L5.79289 7.79291L2.29289 11.2929C2.10536 11.4804 2 11.7348 2 12C2 12.2652 2.10536 12.5196 2.29289 12.7071L5.79289 16.2071L7.20711 14.7929L5.41421 13H11V18.5858L9.20712 16.7929L7.79291 18.2071L11.2929 21.7071C11.6834 22.0976 12.3166 22.0976 12.7071 21.7071L16.2071 18.2071L14.7929 16.7929L13 18.5858V13H18.5858L16.7929 14.7929L18.2071 16.2071L21.7071 12.7071C21.8946 12.5196 22 12.2652 22 12C22 11.7348 21.8946 11.4804 21.7071 11.2929L18.2071 7.79291L16.7929 9.20712L18.5858 11H13V5.41421L14.7929 7.20711L16.2071 5.79289L12.7071 2.29289Z" fill="#2B2D34"/>
</svg>
