<svg width="24" height="24" viewBox="0 0 24 24" fill="none" xmlns="http://www.w3.org/2000/svg">
<path fill-rule="evenodd" clip-rule="evenodd" d="M19 11V17H12V19H20C20.5523 19 21 18.5523 21 18V4C21 3.44772 20.5523 3 20 3H16V1H14V3H10V1H8V3H4C3.44772 3 3 3.44772 3 4V11H19ZM8 7V5H5V9H19V5H16V7H14V5H10V7H8Z" fill="#2B2D34"/>
<path d="M4.5 15C4.5 15.8284 3.82843 16.5 3 16.5C2.17157 16.5 1.5 15.8284 1.5 15C1.5 14.1716 2.17157 13.5 3 13.5C3.82843 13.5 4.5 14.1716 4.5 15Z" fill="#2B2D34"/>
<path d="M10.5 21C10.5 21.8284 9.82843 22.5 9 22.5C8.17157 22.5 7.5 21.8284 7.5 21C7.5 20.1716 8.17157 19.5 9 19.5C9.82843 19.5 10.5 20.1716 10.5 21Z" fill="#2B2D34"/>
<path d="M3.20711 22.2071L10.2071 15.2071L8.79289 13.7929L1.79289 20.7929L3.20711 22.2071Z" fill="#2B2D34"/>
<path d="M17 14C17 14.5523 16.5523 15 16 15C15.4477 15 15 14.5523 15 14C15 13.4477 15.4477 13 16 13C16.5523 13 17 13.4477 17 14Z" fill="#2B2D34"/>
</svg>
