<svg width="24" height="24" viewBox="0 0 24 24" fill="none" xmlns="http://www.w3.org/2000/svg">
<path fill-rule="evenodd" clip-rule="evenodd" d="M19 2H4V4H16.1492L13.3753 6.21913C13.1381 6.4089 13 6.69622 13 7V18H4V20H13V21C13 21.3844 13.2203 21.7348 13.5668 21.9013C13.9133 22.0678 14.3245 22.021 14.6247 21.7809L19.6247 17.7809C19.8619 17.5911 20 17.3038 20 17V3C20 2.44772 19.5523 2 19 2ZM15 7.48062L18 5.08062V16.5194L15 18.9194V7.48062Z" fill="#2B2D34"/>
<path d="M10.7071 11.7071C10.8946 11.5195 11 11.2652 11 11C11 10.7347 10.8946 10.4804 10.7071 10.2928L6.70711 6.29285L5.29289 7.70706L7.58579 9.99995L2 10V12L7.58579 12L5.29289 14.2928L6.70711 15.7071L10.7071 11.7071Z" fill="#2B2D34"/>
</svg>
