<svg width="24" height="24" viewBox="0 0 24 24" fill="none" xmlns="http://www.w3.org/2000/svg">
<path fill-rule="evenodd" clip-rule="evenodd" d="M11.9999 2C12.3297 2 12.6383 2.16262 12.8248 2.43468L14.3871 4.7143L17.038 5.49572C17.3543 5.58898 17.6043 5.83223 17.7063 6.1459C17.8082 6.45957 17.7489 6.80333 17.5478 7.06472L15.8625 9.25502L15.9385 12.0176C15.9475 12.3473 15.7935 12.6602 15.5266 12.8541C15.2598 13.048 14.9146 13.0978 14.6038 12.9873L11.9999 12.0613L9.39604 12.9873C9.08529 13.0978 8.74004 13.048 8.47321 12.8541C8.20638 12.6602 8.05231 12.3473 8.06137 12.0176L8.13735 9.25502L6.45209 7.06472C6.25096 6.80333 6.19166 6.45957 6.29358 6.1459C6.3955 5.83223 6.64553 5.58898 6.96189 5.49572L9.61272 4.7143L11.1751 2.43468C11.3615 2.16262 11.6701 2 11.9999 2ZM11.9999 4.76891L11.0614 6.13827C10.9314 6.328 10.7399 6.4671 10.5193 6.53214L8.92697 7.00154L9.9393 8.31725C10.0796 8.49954 10.1527 8.72462 10.1464 8.95454L10.1007 10.614L11.6649 10.0578C11.8816 9.98073 12.1183 9.98073 12.335 10.0578L13.8991 10.614L13.8535 8.95454C13.8471 8.72462 13.9203 8.49954 14.0605 8.31725L15.0729 7.00154L13.4805 6.53214C13.2599 6.4671 13.0684 6.328 12.9384 6.13827L11.9999 4.76891Z" fill="#2B2D34"/>
<path d="M3 3V5H5V3L3 3Z" fill="#2B2D34"/>
<path d="M19 3V5H21V3H19Z" fill="#2B2D34"/>
<path d="M20 18V20H22V18H20Z" fill="#2B2D34"/>
<path d="M2 20V18H4V20H2Z" fill="#2B2D34"/>
<path fill-rule="evenodd" clip-rule="evenodd" d="M20 12V14H22V12H24V10H22V8H20V10H18V12H20ZM20 12V10H22V12H20Z" fill="#2B2D34"/>
<path d="M2 14V12H4V14H2Z" fill="#2B2D34"/>
<path d="M4 10H6V12H4V10Z" fill="#2B2D34"/>
<path d="M2 10V8H4V10H2Z" fill="#2B2D34"/>
<path d="M2 10H0V12H2V10Z" fill="#2B2D34"/>
<path d="M11 14V22H13V14H11Z" fill="#2B2D34"/>
<path d="M18.8321 16.5547L17.8397 18.0432C17.2922 18.8645 17 19.8295 17 20.8167V22H15V20.8167C15 19.4347 15.4091 18.0836 16.1756 16.9338L17.1679 15.4453L18.8321 16.5547Z" fill="#2B2D34"/>
<path d="M6.16025 18.0432L5.16795 16.5547L6.83205 15.4453L7.82435 16.9338C8.59093 18.0836 9 19.4347 9 20.8167V22H7V20.8167C7 19.8295 6.70781 18.8645 6.16025 18.0432Z" fill="#2B2D34"/>
</svg>
