<svg width="24" height="24" viewBox="0 0 24 24" fill="none" xmlns="http://www.w3.org/2000/svg">
<path fill-rule="evenodd" clip-rule="evenodd" d="M21.4242 2.09442C21.7756 2.259 22 2.61199 22 3.00001V13C22 13.5523 21.5523 14 21 14H18V12H20V5.13505L16 8.46843V13C16 13.5523 15.5523 14 15 14H4C3.44772 14 3 13.5523 3 13V9.00002C3 8.44773 3.44772 8.00002 4 8.00002H5V3.00002C5 2.44773 5.44772 2.00002 6 2.00002H11C11.2652 2.00002 11.5196 2.10537 11.7071 2.29291L15.6068 6.19264L20.3599 2.23179C20.6579 1.98339 21.0728 1.92984 21.4242 2.09442ZM5 12V10H6C6.55228 10 7 9.5523 7 9.00002V4.00002H10.5858L14 7.41423V12H5Z" fill="#2B2D34"/>
<path fill-rule="evenodd" clip-rule="evenodd" d="M3 19C3 17.3432 4.34315 16 6 16H18C19.6569 16 21 17.3432 21 19C21 20.6569 19.6569 22 18 22H6C4.34315 22 3 20.6569 3 19ZM6 18C5.44772 18 5 18.4477 5 19C5 19.5523 5.44772 20 6 20H18C18.5523 20 19 19.5523 19 19C19 18.4477 18.5523 18 18 18H6Z" fill="#2B2D34"/>
</svg>
