<svg width="24" height="24" viewBox="0 0 24 24" fill="none" xmlns="http://www.w3.org/2000/svg">
<path d="M17 2V1H19V2C20.6569 2 22 3.34315 22 5H20C20 4.44772 19.5523 4 19 4H17C16.4477 4 16 4.44772 16 5C16 5.55228 16.4477 6 17 6H19C20.6569 6 22 7.34315 22 9C22 10.6569 20.6569 12 19 12V13H17V12C15.3431 12 14 10.6569 14 9H16C16 9.55228 16.4477 10 17 10H19C19.5523 10 20 9.55228 20 9C20 8.44772 19.5523 8 19 8H17C15.3431 8 14 6.65685 14 5C14 3.34315 15.3431 2 17 2Z" fill="#2B2D34"/>
<path d="M6.67314 13.3094C7.23533 13.0321 7.87023 12.938 8.48869 13.0401C9.10715 13.1422 9.67809 13.4354 10.1213 13.8787L11.5355 12.4645C10.7968 11.7257 9.84525 11.237 8.81448 11.0668C7.78372 10.8966 6.72554 11.0536 5.78856 11.5156C4.85158 11.9777 4.08287 12.7217 3.5904 13.643C3.36116 14.0719 3.19713 14.5292 3.10103 15H2L1 17H3.10102C3.28549 17.9038 3.71701 18.7414 4.35069 19.418C5.06485 20.1805 5.99991 20.7001 7.02455 20.9039C8.0492 21.1077 9.11195 20.9855 10.0635 20.5543C11.0151 20.1232 11.8078 19.4048 12.3301 18.5L10.5981 17.5C10.2847 18.0429 9.80908 18.4739 9.23813 18.7326C8.66717 18.9913 8.02952 19.0646 7.41473 18.9424C6.79995 18.8201 6.23891 18.5083 5.81041 18.0508C5.52566 17.7467 5.30894 17.3885 5.17157 17H8L9 15H5.17158C5.22172 14.8582 5.28269 14.7197 5.35424 14.5858C5.64973 14.033 6.11095 13.5866 6.67314 13.3094Z" fill="#2B2D34"/>
<path d="M5.27261 9.9295C5.72841 8.22844 6.73277 6.7253 8.12993 5.65323C9.52708 4.58115 11.2389 4.00006 13 4.00006V2.00006C10.7987 2.00006 8.65885 2.72643 6.9124 4.06652C5.16596 5.40661 3.91051 7.28553 3.34076 9.41187L5.27261 9.9295Z" fill="#2B2D34"/>
<path d="M17.8701 18.3468C19.2672 17.2748 20.2716 15.7716 20.7274 14.0706L22.6593 14.5882C22.0895 16.7145 20.8341 18.5934 19.0876 19.9335C17.3412 21.2736 15.2013 22 13 22V20C14.7611 20 16.4729 19.4189 17.8701 18.3468Z" fill="#2B2D34"/>
</svg>
