<svg width="24" height="24" viewBox="0 0 24 24" fill="none" xmlns="http://www.w3.org/2000/svg">
<path fill-rule="evenodd" clip-rule="evenodd" d="M2 2.90362C2 2.40457 2.40457 2 2.90362 2H6.54545V3.80725H3.80725V6.54545H2V2.90362ZM17.4545 2H21.0964C21.5954 2 22 2.40457 22 2.90362L21.9891 6.54545H20.1818L20.1928 3.80725H17.4545V2ZM3.65375 11.9999C3.65375 7.39043 7.39043 3.65375 11.9999 3.65375C16.6093 3.65375 20.346 7.39043 20.346 11.9999C20.346 16.6093 16.6093 20.346 11.9999 20.346C7.39043 20.346 3.65375 16.6093 3.65375 11.9999ZM11.9999 5.46099C8.38854 5.46099 5.46099 8.38854 5.46099 11.9999C5.46099 15.6112 8.38854 18.5387 11.9999 18.5387C15.6112 18.5387 18.5387 15.6112 18.5387 11.9999C18.5387 8.38854 15.6112 5.46099 11.9999 5.46099ZM7.78846 10.7594C7.78846 10.032 8.37815 9.44235 9.10556 9.44235C9.83297 9.44235 10.4227 10.032 10.4227 10.7594C10.4227 11.4869 9.83297 12.0765 9.10556 12.0765C8.37815 12.0765 7.78846 11.4869 7.78846 10.7594ZM13.5771 10.7594C13.5771 10.032 14.1667 9.44235 14.8942 9.44235C15.6216 9.44235 16.2113 10.032 16.2113 10.7594C16.2113 11.4869 15.6216 12.0765 14.8942 12.0765C14.1667 12.0765 13.5771 11.4869 13.5771 10.7594ZM9.55618 14.1154L9.60775 14.1721C10.2001 14.8238 11.0517 15.231 11.9997 15.231C12.9477 15.231 13.7994 14.8238 14.3917 14.1721L14.4432 14.1154L15.7807 15.3309L15.7291 15.3876C14.8087 16.4003 13.4781 17.0382 11.9997 17.0382C10.5214 17.0382 9.19072 16.4003 8.27032 15.3876L8.21875 15.3309L9.55618 14.1154ZM2 17.4545H3.80725V20.1928H6.54545V22H2.90362C2.40457 22 2 21.5954 2 21.0964V17.4545ZM20.1818 17.4545H21.9891L22 21.0964C22 21.5954 21.5954 22 21.0964 22H17.4545V20.1928H20.1928L20.1818 17.4545Z" fill="#2B2D34"/>
</svg>
