<svg width="24" height="24" viewBox="0 0 24 24" fill="none" xmlns="http://www.w3.org/2000/svg">
<path d="M22 8L12 8V6L22 6V8Z" fill="#2B2D34"/>
<path d="M14 16H16V18H14V16Z" fill="#2B2D34"/>
<path d="M12 16H10V18H12V16Z" fill="#2B2D34"/>
<path fill-rule="evenodd" clip-rule="evenodd" d="M5 8C4.44772 8 4 8.44772 4 9V20H2V22H22V20H20V13C20 12.4477 19.5523 12 19 12H10V9C10 8.44772 9.55228 8 9 8H5ZM8 12V10H6V12H8ZM6 14V20H18V14H6Z" fill="#2B2D34"/>
<path d="M10 4L21 4V2L10 2C9.47471 2 8.95457 2.10346 8.46927 2.30448C7.98396 2.5055 7.54301 2.80014 7.17157 3.17157C6.80014 3.54301 6.5055 3.98396 6.30448 4.46927C6.10346 4.95457 6 5.47471 6 6H8C8 5.73736 8.05173 5.47728 8.15224 5.23463C8.25275 4.99198 8.40007 4.7715 8.58579 4.58579C8.7715 4.40007 8.99198 4.25275 9.23463 4.15224C9.47728 4.05173 9.73736 4 10 4Z" fill="#2B2D34"/>
</svg>
