<svg width="24" height="24" viewBox="0 0 24 24" fill="none" xmlns="http://www.w3.org/2000/svg">
<path fill-rule="evenodd" clip-rule="evenodd" d="M12.0001 2C12.3995 2 12.7606 2.23765 12.9186 2.60447L15.3875 8.33763L21.603 8.9141C22.0007 8.95099 22.3383 9.22097 22.4617 9.60081C22.5851 9.98066 22.4707 10.3975 22.1707 10.6611L17.4811 14.7809L18.8535 20.8703C18.9413 21.2599 18.7889 21.6644 18.4657 21.8992C18.1426 22.1339 17.7108 22.1539 17.3674 21.95L12.0001 18.763L6.63281 21.95C6.2894 22.1539 5.85758 22.1339 5.53447 21.8992C5.21135 21.6644 5.05891 21.2599 5.14672 20.8703L6.51916 14.7809L1.82956 10.6611C1.5295 10.3975 1.41507 9.98066 1.53849 9.60081C1.6619 9.22097 1.99951 8.95099 2.39719 8.9141L8.6127 8.33763L11.0817 2.60447C11.2396 2.23765 11.6007 2 12.0001 2ZM12.0001 5.52827L10.2147 9.67405C10.07 10.0102 9.75311 10.2404 9.38865 10.2742L4.89407 10.6911L8.28523 13.6702C8.56022 13.9118 8.68125 14.2843 8.60078 14.6413L7.60833 19.0448L11.4895 16.7402C11.8043 16.5533 12.1959 16.5533 12.5107 16.7402L16.3919 19.0448L15.3994 14.6413C15.319 14.2843 15.44 13.9118 15.715 13.6702L19.1061 10.6911L14.6116 10.2742C14.2471 10.2404 13.9302 10.0102 13.7855 9.67405L12.0001 5.52827Z" fill="#2B2D34"/>
<path d="M12 17.5V4L9.5 9.5L3 10L7.5 14.5L6.5 21L12 17.5Z" fill="#2B2D34"/>
</svg>
