<svg width="24" height="24" viewBox="0 0 24 24" fill="none" xmlns="http://www.w3.org/2000/svg">
<path fill-rule="evenodd" clip-rule="evenodd" d="M12 2C12.3994 2 12.7605 2.23765 12.9184 2.60447L15.3874 8.33763L21.6029 8.9141C22.0006 8.95099 22.3382 9.22097 22.4616 9.60081C22.585 9.98066 22.4706 10.3975 22.1705 10.6611L17.4809 14.7809L18.8534 20.8703C18.9412 21.2599 18.7887 21.6644 18.4656 21.8992C18.1425 22.1339 17.7107 22.1539 17.3673 21.95L12 18.763L6.63269 21.95C6.28928 22.1539 5.85746 22.1339 5.53435 21.8992C5.21123 21.6644 5.05879 21.2599 5.1466 20.8703L6.51904 14.7809L1.82943 10.6611C1.52938 10.3975 1.41494 9.98066 1.53836 9.60081C1.66178 9.22097 1.99938 8.95099 2.39707 8.9141L8.61258 8.33763L11.0815 2.60447C11.2395 2.23765 11.6006 2 12 2ZM12 5.52827L10.2146 9.67405C10.0699 10.0102 9.75298 10.2404 9.38852 10.2742L4.89395 10.6911L8.28511 13.6702C8.5601 13.9118 8.68113 14.2843 8.60066 14.6413L7.60821 19.0448L11.4894 16.7402C11.8041 16.5533 12.1958 16.5533 12.5105 16.7402L16.3918 19.0448L15.3993 14.6413C15.3188 14.2843 15.4399 13.9118 15.7149 13.6702L19.106 10.6911L14.6114 10.2742C14.247 10.2404 13.9301 10.0102 13.7853 9.67405L12 5.52827Z" fill="#2B2D34"/>
</svg>
