<svg width="24" height="24" viewBox="0 0 24 24" fill="none" xmlns="http://www.w3.org/2000/svg">
<path fill-rule="evenodd" clip-rule="evenodd" d="M17 11.0703C17 10.0673 16.4987 9.13059 15.6641 8.5742L15.5057 8.46857C15.0473 8.16302 14.5088 7.99998 13.958 7.99998C13.2179 7.99998 12.5166 8.29345 12 8.80236C11.4834 8.29345 10.7821 7.99998 10.042 7.99998C9.49116 7.99998 8.95265 8.16302 8.49434 8.46857L8.3359 8.5742C7.5013 9.13059 7 10.0673 7 11.0703V11.0924C7 11.9575 7.37344 12.7805 8.02449 13.3502L11.3415 16.2526C11.7185 16.5825 12.2815 16.5825 12.6585 16.2526L15.9755 13.3502C16.6266 12.7805 17 11.9575 17 11.0924V11.0703ZM14.5547 10.2383C14.8329 10.4238 15 10.736 15 11.0703V11.0924C15 11.3808 14.8755 11.6551 14.6585 11.845L12 14.1712L9.34149 11.845C9.12448 11.6551 9 11.3808 9 11.0924V11.0703C9 10.736 9.1671 10.4238 9.4453 10.2383L9.60374 10.1327C9.73352 10.0461 9.88601 9.99998 10.042 9.99998C10.3061 9.99998 10.5528 10.132 10.6994 10.3518L11.1679 11.0547C11.3534 11.3329 11.6656 11.5 12 11.5C12.3344 11.5 12.6466 11.3329 12.832 11.0547L13.3006 10.3518C13.4472 10.132 13.6939 9.99998 13.958 9.99998C14.114 9.99998 14.2665 10.0461 14.3963 10.1327L14.5547 10.2383Z" fill="#2B2D34"/>
<path fill-rule="evenodd" clip-rule="evenodd" d="M3 4C2.73478 4 2.48043 4.10536 2.29289 4.29289C2.10536 4.48043 2 4.73478 2 5V19C2 19.2652 2.10536 19.5196 2.29289 19.7071C2.48043 19.8946 2.73478 20 3 20H6L6 22C6 22.3466 6.17945 22.6684 6.47427 22.8507C6.76908 23.0329 7.13722 23.0494 7.44721 22.8944L13.2361 20L21 20C21.2652 20 21.5196 19.8946 21.7071 19.7071C21.8946 19.5196 22 19.2652 22 19L22 5C22 4.44772 21.5523 4 21 4H3ZM4 18L4 6L20 6L20 18H13C12.8448 18 12.6916 18.0361 12.5528 18.1056L8 20.382L8 19C8 18.7348 7.89464 18.4804 7.70711 18.2929C7.51957 18.1054 7.26521 18 7 18L4 18Z" fill="#2B2D34"/>
</svg>
