<svg width="24" height="24" viewBox="0 0 24 24" fill="none" xmlns="http://www.w3.org/2000/svg">
<path fill-rule="evenodd" clip-rule="evenodd" d="M7.70711 3.29289C7.31658 2.90237 6.68342 2.90237 6.29289 3.29289L4.29289 5.29289C4.10536 5.48043 4 5.73478 4 6V9H2V11H4V16H2V18H4V20H6V6.41421L7 5.41421L8 6.41421V20H10V18H14V20H16V6.41421L17 5.41421L18 6.41421V20H20V18H22V16H20V11H22V9H20V6C20 5.73478 19.8946 5.48043 19.7071 5.29289L17.7071 3.29289C17.3166 2.90237 16.6834 2.90237 16.2929 3.29289L14.2929 5.29289C14.1054 5.48043 14 5.73478 14 6V9H10V6C10 5.73478 9.89464 5.48043 9.70711 5.29289L7.70711 3.29289ZM10 11V16H14V11H10Z" fill="#2B2D34"/>
</svg>
