<svg width="24" height="24" viewBox="0 0 24 24" fill="none" xmlns="http://www.w3.org/2000/svg">
<path fill-rule="evenodd" clip-rule="evenodd" d="M13.3145 3.22316C13.4327 3.0087 13.5 2.76221 13.5 2.5C13.5 1.67157 12.8284 1 12 1C11.1716 1 10.5 1.67157 10.5 2.5C10.5 2.76221 10.5673 3.0087 10.6855 3.22316C9.75355 3.54809 8.95898 4.20304 8.36284 5.02274C7.50182 6.20663 7 7.79282 7 9.5C7 11.2072 7.50182 12.7934 8.36284 13.9773C9.02498 14.8877 9.93191 15.5949 11 15.8724V18C11 18.394 10.9224 18.7841 10.7716 19.1481C10.6209 19.512 10.3999 19.8427 10.1213 20.1213C9.84274 20.3999 9.51203 20.6209 9.14805 20.7716C8.78407 20.9224 8.39397 21 8 21C7.60603 21 7.21593 20.9224 6.85195 20.7716C6.48797 20.6209 6.15726 20.3999 5.87868 20.1213C5.6001 19.8427 5.37913 19.512 5.22836 19.1481C5.0776 18.7841 5 18.394 5 18V17H7V15H5V13H3V18C3 18.6566 3.12933 19.3068 3.3806 19.9134C3.63188 20.52 4.00017 21.0712 4.46447 21.5355C4.92876 21.9998 5.47995 22.3681 6.08658 22.6194C6.69321 22.8707 7.34339 23 8 23C8.65661 23 9.30679 22.8707 9.91342 22.6194C10.52 22.3681 11.0712 21.9998 11.5355 21.5355C11.7032 21.3679 11.8584 21.1889 12 21C12.1416 21.1889 12.2968 21.3679 12.4645 21.5355C12.9288 21.9998 13.48 22.3681 14.0866 22.6194C14.6932 22.8707 15.3434 23 16 23C16.6566 23 17.3068 22.8707 17.9134 22.6194C18.52 22.3681 19.0712 21.9998 19.5355 21.5355C19.9998 21.0712 20.3681 20.52 20.6194 19.9134C20.8707 19.3068 21 18.6566 21 18V13H19V15H17V17H19V18C19 18.394 18.9224 18.7841 18.7716 19.1481C18.6209 19.512 18.3999 19.8427 18.1213 20.1213C17.8427 20.3999 17.512 20.6209 17.1481 20.7716C16.7841 20.9224 16.394 21 16 21C15.606 21 15.2159 20.9224 14.8519 20.7716C14.488 20.6209 14.1573 20.3999 13.8787 20.1213C13.6001 19.8427 13.3791 19.512 13.2284 19.1481C13.0776 18.7841 13 18.394 13 18V15.8724C14.0681 15.5949 14.975 14.8877 15.6372 13.9773C16.4982 12.7934 17 11.2072 17 9.5C17 7.79282 16.4982 6.20663 15.6372 5.02274C15.041 4.20304 14.2464 3.54809 13.3145 3.22316ZM10.6217 8.47993C10.1959 8.14184 9.80874 7.6408 9.51754 6.99939C9.65166 6.70492 9.80762 6.43653 9.98031 6.19908C10.5677 5.39139 11.2942 5 12 5C12.7058 5 13.4323 5.39139 14.0197 6.19908C14.1924 6.43653 14.3483 6.70491 14.4825 6.99936C14.1912 7.64079 13.8041 8.14183 13.3782 8.47993C12.9271 8.83803 12.4523 9 12 9C11.5477 9 11.0728 8.83803 10.6217 8.47993ZM14.6217 10.0464C14.7514 9.94341 14.8764 9.83359 14.9965 9.71745C14.9562 10.957 14.5742 12.0385 14.0197 12.8009C13.4323 13.6086 12.7058 14 12 14C11.2942 14 10.5677 13.6086 9.98031 12.8009C9.4258 12.0385 9.04378 10.957 9.00352 9.71747C9.12362 9.8336 9.24857 9.94342 9.37823 10.0464C10.1433 10.6537 11.048 11 12 11C12.952 11 13.8567 10.6537 14.6217 10.0464Z" fill="#2B2D34"/>
</svg>
