<svg width="24" height="24" viewBox="0 0 24 24" fill="none" xmlns="http://www.w3.org/2000/svg">
<path d="M11 4V0H13V4H11Z" fill="#2B2D34"/>
<path fill-rule="evenodd" clip-rule="evenodd" d="M19.9759 16.7805L17.9806 6.80388C17.8871 6.33646 17.4767 6 17 6H6.99999C6.52331 6 6.1129 6.33646 6.01941 6.80388L4.02408 16.7806L3.02985 20.7575C2.95517 21.0562 3.02228 21.3727 3.21179 21.6154C3.4013 21.8581 3.69206 22 3.99999 22H20C20.3079 22 20.5987 21.8581 20.7882 21.6154C20.9777 21.3727 21.0448 21.0562 20.9701 20.7575L19.9759 16.7805ZM13 16H17.7802L16.1802 8H7.8198L6.2198 16H11V12H13V16ZM18.2192 18H5.78077L5.28077 20H18.7192L18.2192 18Z" fill="#2B2D34"/>
<path d="M0 7H4V9H0V7Z" fill="#2B2D34"/>
<path d="M24 7L20 7V9H24V7Z" fill="#2B2D34"/>
<path d="M19.2929 0.292879L16.2929 3.29288L17.7071 4.70709L20.7071 1.70709L19.2929 0.292879Z" fill="#2B2D34"/>
<path d="M6.29289 4.70709L3.29289 1.70709L4.70711 0.292878L7.70711 3.29288L6.29289 4.70709Z" fill="#2B2D34"/>
</svg>
