<svg width="24" height="24" viewBox="0 0 24 24" fill="none" xmlns="http://www.w3.org/2000/svg">
<path fill-rule="evenodd" clip-rule="evenodd" d="M11.5735 4.18077C11.3352 4.01401 11.0362 3.95921 10.7543 4.03065C10.4724 4.10209 10.2356 4.2927 10.1056 4.55279L9.65836 5.44722C9.48897 5.786 9.1427 6.00001 8.76393 6.00001H7.33333C7.14924 6.00001 7 5.85077 7 5.66667C7 4.7462 6.25381 4.00001 5.33333 4.00001H3C2.44772 4.00001 2 4.44772 2 5.00001V19C2 19.5523 2.44772 20 3 20H21C21.5523 20 22 19.5523 22 19V13.0413C22 12.0624 21.5224 11.145 20.7204 10.5836L11.5735 4.18077ZM20 16H4V18H20V16ZM20 14V13.0413C20 12.715 19.8408 12.4092 19.5735 12.2221L17.5845 10.8298L15.7071 12.7071L14.2929 11.2929L15.9207 9.66514L14.6433 8.77096L12.7071 10.7071L11.2929 9.29291L12.9795 7.60631L11.3726 6.4815C10.8418 7.41654 9.84721 8.00001 8.76393 8.00001H7.33333C6.15784 8.00001 5.18537 7.13077 5.02363 6.00001H4V14H20Z" fill="#2B2D34"/>
</svg>
