<svg width="24" height="24" viewBox="0 0 24 24" fill="none" xmlns="http://www.w3.org/2000/svg">
<path fill-rule="evenodd" clip-rule="evenodd" d="M10.7543 5.03065C11.0362 4.95921 11.3352 5.01401 11.5735 5.18077L20.7274 11.5885C21.525 12.1468 22 13.0592 22 14.0328C22 16.7761 19.7761 19 17.0328 19H3C2.44772 19 2 18.5523 2 18V6.00001C2 5.44772 2.44772 5.00001 3 5.00001H5.33333C6.25381 5.00001 7 5.7462 7 6.66667C7 6.85077 7.14924 7.00001 7.33333 7.00001H8.76393C9.1427 7.00001 9.48897 6.786 9.65836 6.44722L10.1056 5.55279C10.2356 5.2927 10.4724 5.10209 10.7543 5.03065ZM4 7.00001V17H17.0328C18.6715 17 20 15.6715 20 14.0328C20 13.7118 19.8434 13.411 19.5805 13.227L17.5845 11.8298L15.7071 13.7071L14.2929 12.2929L15.9207 10.6651L14.6433 9.77096L12.7071 11.7071L11.2929 10.2929L12.9795 8.60631L11.3726 7.4815C10.8418 8.41654 9.84721 9.00001 8.76393 9.00001H7.33333C6.15784 9.00001 5.18537 8.13077 5.02363 7.00001H4Z" fill="#2B2D34"/>
</svg>
