<svg width="24" height="24" viewBox="0 0 24 24" fill="none" xmlns="http://www.w3.org/2000/svg">
<path d="M22 3V15C22 15.2652 21.8946 15.5196 21.7071 15.7072C21.5196 15.8947 21.2652 16 21 16H14V14H18.0854C18.0301 13.8436 18 13.6753 18 13.5C18 12.6716 18.6716 12 19.5 12C19.6753 12 19.8436 12.0301 20 12.0853V5.91467C19.8436 5.96995 19.6753 6 19.5 6C18.6716 6 18 5.32843 18 4.5C18 4.32468 18.0301 4.15639 18.0854 4H5.91465C5.96992 4.15639 6 4.32468 6 4.5C6 5.32843 5.32843 6 4.5 6C4.32468 6 4.15639 5.96995 4 5.91467L4 12H2V3C2 2.44772 2.44772 2 3 2H21C21.5523 2 22 2.44772 22 3Z" fill="#2B2D34"/>
<path d="M7 12C5.34315 12 4 13.3431 4 15C4 16.6569 5.34315 18 7 18H9C9.55228 18 10 18.4477 10 19C10 19.5523 9.55228 20 9 20H7C6.44772 20 6 19.5523 6 19H4C4 20.6569 5.34315 22 7 22V23H9V22C10.6569 22 12 20.6569 12 19C12 17.3431 10.6569 16 9 16H7C6.44772 16 6 15.5523 6 15C6 14.4477 6.44772 14 7 14H9C9.55228 14 10 14.4477 10 15H12C12 13.3431 10.6569 12 9 12V11H7V12Z" fill="#2B2D34"/>
</svg>
