<svg width="24" height="24" viewBox="0 0 24 24" fill="none" xmlns="http://www.w3.org/2000/svg">
<path d="M6.3454 17.6591L4.93174 19.0739C6.79412 20.9348 9.314 22 12 22C17.5228 22 22 17.5228 22 12C22 6.47715 17.5228 2 12 2C9.31327 2 6.79277 3.06579 4.93027 4.92759L6.34422 6.34207C7.83539 4.85147 9.84902 4 12 4C16.4183 4 20 7.58172 20 12C20 16.4183 16.4183 20 12 20C9.8496 20 7.83647 19.149 6.3454 17.6591Z" fill="#2B2D34"/>
<path d="M11.2929 8.70711L12.7071 7.29289L16.7071 11.2929C17.0976 11.6834 17.0976 12.3166 16.7071 12.7071L12.7071 16.7071L11.2929 15.2929L13.5858 13H3V11H13.5858L11.2929 8.70711Z" fill="#2B2D34"/>
</svg>
