<svg width="24" height="24" viewBox="0 0 24 24" fill="none" xmlns="http://www.w3.org/2000/svg">
<path fill-rule="evenodd" clip-rule="evenodd" d="M8 2C6.34315 2 5 3.34315 5 5V8H4C2.34315 8 1 9.34315 1 11C1 12.3062 1.83481 13.4175 3 13.8293V21C3 21.5523 3.44772 22 4 22H20C20.5523 22 21 21.5523 21 21V13.8293C22.1652 13.4175 23 12.3062 23 11C23 9.34315 21.6569 8 20 8H19V5C19 3.34315 17.6569 2 16 2H8ZM17 5C17 4.44772 16.5523 4 16 4H8C7.44772 4 7 4.44772 7 5V8.53513C8.1956 9.22675 9 10.5194 9 12V13H15V12C15 10.5194 15.8044 9.22675 17 8.53513V5ZM19 10C17.8954 10 17 10.8954 17 12V18H15V15H9V18H7V12C7 10.8954 6.10457 10 5 10H4C3.44772 10 3 10.4477 3 11C3 11.5523 3.44772 12 4 12H5V20H19V12H20C20.5523 12 21 11.5523 21 11C21 10.4477 20.5523 10 20 10H19Z" fill="#2B2D34"/>
</svg>
