<svg width="24" height="24" viewBox="0 0 24 24" fill="none" xmlns="http://www.w3.org/2000/svg">
<path d="M12 2C10.6868 2 9.38642 2.25866 8.17317 2.7612C6.95991 3.26375 5.85752 4.00035 4.92893 4.92893C4.00035 5.85752 3.26375 6.95991 2.7612 8.17317C2.25866 9.38642 2 10.6868 2 12V22H4V12C4 10.9494 4.20693 9.90914 4.60896 8.93853C5.011 7.96793 5.60028 7.08602 6.34315 6.34315C7.08601 5.60028 7.96793 5.011 8.93853 4.60896C9.90914 4.20693 10.9494 4 12 4C13.0506 4 14.0909 4.20693 15.0615 4.60896C16.0321 5.011 16.914 5.60028 17.6569 6.34315C18.3997 7.08601 18.989 7.96793 19.391 8.93853C19.7931 9.90914 20 10.9494 20 12V22H22V12C22 10.6868 21.7413 9.38642 21.2388 8.17317C20.7362 6.95991 19.9997 5.85752 19.0711 4.92893C18.1425 4.00035 17.0401 3.26375 15.8268 2.7612C14.6136 2.25866 13.3132 2 12 2Z" fill="#2B2D34"/>
<path fill-rule="evenodd" clip-rule="evenodd" d="M12 6C12 6.57797 11.7185 7.5907 10.9438 8.45259C10.2016 9.27828 8.97487 10 7 10H6V15C6 18.3137 8.68629 21 12 21C15.3137 21 18 18.3137 18 15V9.71922L17.2425 9.52986C16.7665 9.41085 15.914 8.98176 15.1849 8.29637C14.4585 7.61355 14 6.81709 14 6H12ZM12.4312 9.7896C12.6764 9.51685 12.8902 9.23104 13.0744 8.9396C13.3053 9.23967 13.5578 9.51174 13.8151 9.75363C14.4965 10.3941 15.2888 10.8971 16 11.2064V15C16 17.2091 14.2091 19 12 19C9.79086 19 8 17.2091 8 15V11.9477C10.001 11.7326 11.4543 10.8764 12.4312 9.7896Z" fill="#2B2D34"/>
</svg>
