<svg width="24" height="24" viewBox="0 0 24 24" fill="none" xmlns="http://www.w3.org/2000/svg">
<path d="M19.2769 3.14091L20.7081 1.70621L19.2921 0.293762L16.3765 3.21666L17.1976 3.91839C18.0364 4.63531 18.7179 5.51802 19.1992 6.51102C19.6804 7.50403 19.951 8.58586 19.994 9.6885C20.037 10.7911 19.8513 11.8908 19.4488 12.9182C19.0463 13.9456 18.4356 14.8787 17.655 15.6587C16.8745 16.4387 15.941 17.0488 14.9133 17.4507C13.8856 17.8525 12.7859 18.0374 11.6833 17.9937C10.5807 17.95 9.49901 17.6787 8.50632 17.1968C7.51363 16.7149 6.63137 16.0328 5.91501 15.1935L5.21199 14.3698L2.29248 17.2934L3.70769 18.7066L5.1381 17.2742C5.87585 17.9701 6.71675 18.5512 7.63289 18.996C8.69189 19.5101 9.8319 19.8325 11.0001 19.9499V21H8.00006V23H16.0001V21H13.0001V19.9499C13.9033 19.8591 14.7922 19.6455 15.6416 19.3134C16.9263 18.8111 18.0931 18.0484 19.0688 17.0734C20.0445 16.0984 20.8079 14.9321 21.311 13.6477C21.8142 12.3634 22.0462 10.9889 21.9925 9.61063C21.9388 8.23233 21.6005 6.88004 20.9989 5.63878C20.5544 4.72154 19.9732 3.87959 19.2769 3.14091Z" fill="#2B2D34"/>
<path fill-rule="evenodd" clip-rule="evenodd" d="M16.8905 13.4762C17.1511 13.1095 17.3703 12.7137 17.5433 12.2961C17.8449 11.5681 18.0001 10.7879 18.0001 10C18.0001 9.21207 17.8449 8.43185 17.5433 7.7039C17.2418 6.97594 16.7999 6.31451 16.2427 5.75736C15.6856 5.20021 15.0241 4.75825 14.2962 4.45672C13.5682 4.15519 12.788 4 12.0001 4C11.2121 4 10.4319 4.15519 9.70396 4.45672C9.28632 4.62971 8.89058 4.84892 8.52387 5.10959L7.70718 4.29291L6.29297 5.70712L7.10965 6.52381C6.84899 6.89052 6.62977 7.28626 6.45678 7.7039C6.15526 8.43185 6.00006 9.21207 6.00006 10C6.00006 10.7879 6.15526 11.5681 6.45678 12.2961C6.75831 13.0241 7.20027 13.6855 7.75742 14.2426C8.31457 14.7998 8.97601 15.2417 9.70396 15.5433C10.4319 15.8448 11.2121 16 12.0001 16C12.788 16 13.5682 15.8448 14.2962 15.5433C14.7138 15.3703 15.1095 15.1511 15.4763 14.8904L16.293 15.7071L17.7072 14.2929L16.8905 13.4762ZM12.0001 6C11.4748 6 10.9546 6.10346 10.4693 6.30448C10.2964 6.37611 10.1291 6.45963 9.96855 6.55428L15.4458 12.0315C15.5404 11.871 15.6239 11.7037 15.6956 11.5307C15.8966 11.0454 16.0001 10.5253 16.0001 10C16.0001 9.47471 15.8966 8.95457 15.6956 8.46927C15.4946 7.98396 15.1999 7.54301 14.8285 7.17157C14.4571 6.80014 14.0161 6.5055 13.5308 6.30448C13.0455 6.10346 12.5253 6 12.0001 6ZM14.0316 13.4457L8.55434 7.96849C8.45969 8.12903 8.37617 8.29633 8.30454 8.46927C8.10352 8.95457 8.00006 9.47471 8.00006 10C8.00006 10.5253 8.10352 11.0454 8.30454 11.5307C8.50556 12.016 8.8002 12.457 9.17163 12.8284C9.54307 13.1999 9.98403 13.4945 10.4693 13.6955C10.9546 13.8965 11.4748 14 12.0001 14C12.5253 14 13.0455 13.8965 13.5308 13.6955C13.7037 13.6239 13.871 13.5404 14.0316 13.4457Z" fill="#2B2D34"/>
</svg>
