<svg width="24" height="24" viewBox="0 0 24 24" fill="none" xmlns="http://www.w3.org/2000/svg">
<path fill-rule="evenodd" clip-rule="evenodd" d="M2 11C2 6.02944 6.02944 2 11 2H12C15.3643 2 18.2436 4.07671 19.4258 7.01815C20.5959 7.11812 21.6987 7.62767 22.5355 8.46447C23.4732 9.40215 24 10.6739 24 12C24 13.3261 23.4732 14.5979 22.5355 15.5355C21.6131 16.458 20.3674 16.9827 19.0647 16.9996C17.5921 19.9632 14.5339 22 11 22C6.02944 22 2 17.9706 2 13V11ZM19.801 14.8911C20.2959 14.754 20.7518 14.4908 21.1213 14.1213C21.6839 13.5587 22 12.7956 22 12C22 11.2044 21.6839 10.4413 21.1213 9.87868C20.7908 9.54811 20.391 9.30266 19.9561 9.15642C19.9851 9.43364 20 9.71508 20 10H18C18 6.68629 15.3137 4 12 4H11C7.13401 4 4 7.13401 4 11V11.899C4.58449 12.0183 5.18716 12.0323 5.77942 11.9389C6.55914 11.8158 7.29864 11.5099 7.93742 11.0462C8.57621 10.5824 9.09612 9.97404 9.45461 9.27078C9.81311 8.56752 10 7.78937 10 7H12C12 7.65661 12.1293 8.30679 12.3806 8.91342C12.6319 9.52005 13.0002 10.0712 13.4645 10.5355C13.9288 10.9998 14.48 11.3681 15.0866 11.6194C15.6932 11.8707 16.3434 12 17 12H20V13C20 13.6487 19.9314 14.2813 19.801 14.8911ZM17.9291 14H17C16.0807 14 15.1705 13.8189 14.3212 13.4672C13.4719 13.1154 12.7003 12.5998 12.0503 11.9497C11.6458 11.5453 11.2933 11.0937 11 10.6055C10.5164 11.4103 9.87488 12.1111 9.11239 12.6646C8.2181 13.3139 7.18279 13.7422 6.09119 13.9144C5.41731 14.0208 4.7338 14.0277 4.06216 13.9369C4.52001 17.3599 7.45169 20 11 20C14.5265 20 17.4439 17.3923 17.9291 14Z" fill="#2B2D34"/>
</svg>
