<svg width="24" height="24" viewBox="0 0 24 24" fill="none" xmlns="http://www.w3.org/2000/svg">
<path fill-rule="evenodd" clip-rule="evenodd" d="M8.17317 2.7612C9.38642 2.25866 10.6868 2 12 2C13.3132 2 14.6136 2.25866 15.8268 2.7612C17.0401 3.26375 18.1425 4.00035 19.0711 4.92893C19.9997 5.85752 20.7362 6.95991 21.2388 8.17317C21.4837 8.7643 21.6706 9.3761 21.798 10H23V12H20.9646C20.7219 13.6961 19.2632 15 17.5 15C16.1038 15 14.8985 14.1825 14.3368 13H9.66318C9.10145 14.1825 7.8962 15 6.5 15C4.73676 15 3.27806 13.6961 3.03544 12H1V10H2.20204C2.32939 9.3761 2.51635 8.7643 2.7612 8.17317C3.26375 6.95991 4.00035 5.85752 4.92893 4.92893C5.85752 4.00035 6.95991 3.26375 8.17317 2.7612ZM17.6569 6.34315C18.2633 6.94956 18.7673 7.64862 19.1507 8.41295C18.659 8.14944 18.0969 8 17.5 8C15.7368 8 14.2781 9.30385 14.0354 11H9.96456C9.72194 9.30385 8.26324 8 6.5 8C5.90306 8 5.34102 8.14944 4.84926 8.41295C5.23267 7.64862 5.73673 6.94956 6.34315 6.34315C7.08601 5.60028 7.96793 5.011 8.93853 4.60896C9.90914 4.20693 10.9494 4 12 4C13.0506 4 14.0909 4.20693 15.0615 4.60896C16.0321 5.011 16.914 5.60028 17.6569 6.34315ZM5 11.5C5 10.6716 5.67157 10 6.5 10C7.32843 10 8 10.6716 8 11.5C8 12.3284 7.32843 13 6.5 13C5.67157 13 5 12.3284 5 11.5ZM19 11.5C19 10.6716 18.3284 10 17.5 10C16.6716 10 16 10.6716 16 11.5C16 12.3284 16.6716 13 17.5 13C18.3284 13 19 12.3284 19 11.5Z" fill="#2B2D34"/>
<path d="M8.00001 18.9282C6.78385 18.2261 5.77395 17.2162 5.0718 16L3.33975 17C4.21744 18.5202 5.47981 19.7826 7.00001 20.6603C8.5202 21.5379 10.2446 22 12 22C13.7554 22 15.4798 21.5379 17 20.6603C18.5202 19.7826 19.7826 18.5202 20.6603 17L18.9282 16C18.2261 17.2162 17.2162 18.2261 16 18.9282C14.7839 19.6304 13.4043 20 12 20C10.5957 20 9.21616 19.6304 8.00001 18.9282Z" fill="#2B2D34"/>
<path d="M15 18V16H9V18H15Z" fill="#2B2D34"/>
</svg>
