<svg width="24" height="24" viewBox="0 0 24 24" fill="none" xmlns="http://www.w3.org/2000/svg">
<path d="M12.9296 5H2V3H12.9296C13.9327 3 14.8694 3.5013 15.4258 4.3359L18.5352 9H21C21.5523 9 22 9.44771 22 10L22 21C22 21.2652 21.8946 21.5196 21.7071 21.7071C21.5196 21.8946 21.2652 22 21 22H4C2.89543 22 2 21.1046 2 20V15H4L4 18.0854C4.15639 18.0301 4.32468 18 4.5 18C5.32843 18 6 18.6716 6 19.5C6 19.6753 5.96992 19.8436 5.91465 20L18.0854 20C18.0301 19.8436 18 19.6753 18 19.5C18 18.6716 18.6716 18 19.5 18C19.6753 18 19.8436 18.0301 20 18.0854V12.9146C19.8436 12.9699 19.6753 13 19.5 13C18.6716 13 18 12.3284 18 11.5C18 11.3247 18.0301 11.1564 18.0854 11L13 11C12.6687 11 12.2582 11.0004 11.856 11.0161C12.0972 11.2234 12.3615 11.4427 12.6306 11.6614C13.1217 12.0604 13.6145 12.4454 13.9855 12.7314C14.5551 13.1705 15.0854 13.5938 15.3237 14.3088C15.4281 14.6221 15.4908 15.0203 15.4025 15.4617C15.3127 15.9106 15.0808 16.3334 14.7071 16.7071C13.8317 17.5825 12.6251 17.4948 11.9289 17.3556C11.5449 17.2788 11.2074 17.1656 10.9691 17.074C10.3145 16.8222 9.69405 16.4841 9.05539 16.1957C8.73912 16.0528 8.40862 15.9035 8.0628 15.7427C7.15999 15.323 6.20156 14.8458 5.32775 14.2745C3.59106 13.1389 2 11.5004 2 9V8H4V9C4 10.4996 4.90894 11.6111 6.42225 12.6005C7.17344 13.0917 8.02751 13.5207 8.90595 13.9291C9.20503 14.0682 9.51429 14.208 9.82284 14.3475C10.3881 14.6031 10.951 14.8576 11.4446 15.1043L11.4521 15.1079C11.4606 15.1119 11.4758 15.119 11.4969 15.1285C11.5393 15.1475 11.6046 15.1755 11.6871 15.2073C11.8551 15.2719 12.0801 15.3462 12.3211 15.3944C12.8749 15.5052 13.1683 15.4175 13.2929 15.2929C13.4192 15.1666 13.4373 15.0894 13.4413 15.0695C13.4467 15.0422 13.4469 15.0029 13.4263 14.9412C13.4044 14.8754 13.3664 14.8085 13.3269 14.7531C13.3221 14.7464 13.3175 14.7402 13.3132 14.7345L13.2236 14.6667C13.1125 14.5824 12.9543 14.4617 12.7645 14.3154C12.3855 14.0233 11.8783 13.6271 11.3694 13.2136C10.864 12.803 10.3422 12.3634 9.94106 11.9873C9.74302 11.8017 9.55373 11.6124 9.40696 11.4381C9.33473 11.3523 9.25326 11.2473 9.18463 11.1315C9.13646 11.0502 9 10.8133 9 10.5C9 10.0578 9.23547 9.74602 9.44254 9.57108C9.63345 9.40979 9.84627 9.31952 10.001 9.26595C10.3175 9.15639 10.6931 9.10071 11.0255 9.06746C11.7004 8.99997 12.4902 8.99999 12.9812 9H16.1315L13.7617 5.4453C13.5762 5.1671 13.264 5 12.9296 5Z" fill="#2B2D34"/>
</svg>
