<svg width="24" height="24" viewBox="0 0 24 24" fill="none" xmlns="http://www.w3.org/2000/svg">
<path fill-rule="evenodd" clip-rule="evenodd" d="M3 15.0001C2.73478 15.0001 2.48043 14.8947 2.29289 14.7072C2.10536 14.5196 2 14.2653 2 14.0001L2 3.00006C2 2.73484 2.10536 2.48049 2.29289 2.29295C2.48043 2.10542 2.73478 2.00006 3 2.00006H3.9847C3.98979 2.00002 3.99489 2 4 2C4.00511 2 4.01021 2.00002 4.01531 2.00006L19.9842 2.00006C19.9895 2.00002 19.9947 2 20 2C20.0053 2 20.0105 2.00002 20.0158 2.00006L21 2.00006C21.2652 2.00006 21.5196 2.10542 21.7071 2.29295C21.8946 2.48049 22 2.73484 22 3.00006V14.0001C22 14.5523 21.5523 15.0001 21 15.0001H20.5147L16.412 20.7438C15.8488 21.5322 14.9396 22.0001 13.9708 22.0001H13V20.0001H13.9708C14.2937 20.0001 14.5968 19.8442 14.7845 19.5814L18.0569 15.0001H12V16.0001L10 16.0001V12.0001C10 11.4478 9.55228 11.0001 9 11.0001C8.44771 11.0001 8 11.4478 8 12.0001V19.0001C8 19.5523 8.44771 20.0001 9 20.0001V22.0001C7.34314 22.0001 6 20.6569 6 19.0001L6 15.0001H3ZM19.9842 13.0001L20 6C18.8955 6 18 5.1046 18 4.00006L6 4.00006C5.99997 5.1046 5.10455 6 4 6L4 13.0001L6 13.0001V12.0001C6 10.3432 7.34314 9.00006 9 9.00006C10.6569 9.00006 12 10.3432 12 12.0001V13.0001L19.9842 13.0001Z" fill="#2B2D34"/>
</svg>
