<svg width="24" height="24" viewBox="0 0 24 24" fill="none" xmlns="http://www.w3.org/2000/svg">
<path fill-rule="evenodd" clip-rule="evenodd" d="M3.09608 6.02455C2.90315 6.99446 3.00217 7.99979 3.3806 8.91342C3.75904 9.82705 4.39991 10.6079 5.22215 11.1573C5.76374 11.5192 6.368 11.77 7 11.899V19C7 19.5523 7.44772 20 8 20H11V21C11 21.5523 11.4477 22 12 22H16C16.5523 22 17 21.5523 17 21V13.899C17.632 13.77 18.2363 13.5192 18.7778 13.1573C19.6001 12.6079 20.241 11.8271 20.6194 10.9134C20.9978 9.99979 21.0968 8.99446 20.9039 8.02455C20.711 7.05465 20.2348 6.16373 19.5355 5.46447C18.8363 4.76521 17.9454 4.289 16.9754 4.09608C16.0055 3.90315 15.0002 4.00217 14.0866 4.3806C13.5717 4.59389 13.0989 4.89053 12.686 5.25602C12.5512 4.8939 12.3743 4.54677 12.1573 4.22215C11.6079 3.39991 10.827 2.75904 9.91342 2.3806C8.99979 2.00217 7.99446 1.90315 7.02455 2.09608C6.05465 2.289 5.16373 2.76521 4.46447 3.46447C3.76521 4.16373 3.289 5.05465 3.09608 6.02455ZM11 8.99563C11 8.99709 11 8.99855 11 9L11 18H9V8H7V9.82843C6.76597 9.74569 6.54188 9.63379 6.33329 9.49441C5.83994 9.16477 5.45543 8.69623 5.22836 8.14805C5.0013 7.59987 4.94189 6.99667 5.05765 6.41473C5.1734 5.83279 5.45912 5.29824 5.87868 4.87868C6.29824 4.45912 6.83279 4.1734 7.41473 4.05765C7.99667 3.94189 8.59987 4.0013 9.14805 4.22836C9.69623 4.45543 10.1648 4.83994 10.4944 5.33329C10.8241 5.82664 11 6.40666 11 7L11 8.99563ZM13 19V8.99662C13.0007 8.40445 13.1766 7.8257 13.5056 7.33329C13.8352 6.83994 14.3038 6.45543 14.8519 6.22836C15.4001 6.0013 16.0033 5.94189 16.5853 6.05765C17.1672 6.1734 17.7018 6.45912 18.1213 6.87868C18.5409 7.29824 18.8266 7.83279 18.9424 8.41473C19.0581 8.99667 18.9987 9.59987 18.7716 10.1481C18.5446 10.6962 18.1601 11.1648 17.6667 11.4944C17.4581 11.6338 17.234 11.7457 17 11.8284V10H15V20H13V19C13 19.0002 13 18.9998 13 19Z" fill="#2B2D34"/>
</svg>
