<svg width="24" height="24" viewBox="0 0 24 24" fill="none" xmlns="http://www.w3.org/2000/svg">
<path fill-rule="evenodd" clip-rule="evenodd" d="M12 2C9.87827 2 7.84344 2.84285 6.34315 4.34315C4.84286 5.84344 4 7.87827 4 10V13.1707C2.83481 13.5825 2 14.6938 2 16V18C2 19.6569 3.34315 21 5 21H7C7.55228 21 8 20.5523 8 20V14C8 13.4477 7.55228 13 7 13H6V10C6 8.4087 6.63214 6.88258 7.75736 5.75736C8.88258 4.63214 10.4087 4 12 4C13.5913 4 15.1174 4.63214 16.2426 5.75736C17.3679 6.88258 18 8.4087 18 10V13H17C16.4477 13 16 13.4477 16 14V20C16 20.5523 16.4477 21 17 21H19C20.6569 21 22 19.6569 22 18V16C22 14.6938 21.1652 13.5825 20 13.1707V10C20 7.87827 19.1571 5.84344 17.6569 4.34315C16.1566 2.84285 14.1217 2 12 2ZM5 15C4.44772 15 4 15.4477 4 16V18C4 18.5523 4.44772 19 5 19H6V15H5ZM19 15C19.5523 15 20 15.4477 20 16V18C20 18.5523 19.5523 19 19 19H18V15H19Z" fill="#2B2D34"/>
</svg>
