<svg width="24" height="24" viewBox="0 0 24 24" fill="none" xmlns="http://www.w3.org/2000/svg">
<path fill-rule="evenodd" clip-rule="evenodd" d="M9 6.82929V10H11V4C11 2.34315 9.65685 1 8 1C6.34315 1 5 2.34315 5 4C5 5.65685 6.34315 7 8 7C8.35064 7 8.68722 6.93985 9 6.82929ZM8 3C7.44772 3 7 3.44772 7 4C7 4.55228 7.44772 5 8 5C8.55228 5 9 4.55228 9 4C9 3.44772 8.55228 3 8 3Z" fill="#2B2D34"/>
<path d="M12 18C12.5523 18 13 17.5523 13 17C13 16.4477 12.5523 16 12 16C11.4477 16 11 16.4477 11 17C11 17.5523 11.4477 18 12 18Z" fill="#2B2D34"/>
<path fill-rule="evenodd" clip-rule="evenodd" d="M15 8.82929C15.3128 8.93985 15.6494 9 16 9C17.6569 9 19 7.65685 19 6C19 4.34315 17.6569 3 16 3C14.3431 3 13 4.34315 13 6V12H7V10H5V19C5 20.6569 6.34315 22 8 22H16C17.6569 22 19 20.6569 19 19V10H17V12H15V8.82929ZM15 6C15 5.44772 15.4477 5 16 5C16.5523 5 17 5.44772 17 6C17 6.55228 16.5523 7 16 7C15.4477 7 15 6.55228 15 6ZM17 14H7V19C7 19.5523 7.44772 20 8 20H16C16.5523 20 17 19.5523 17 19V14Z" fill="#2B2D34"/>
</svg>
