<svg width="24" height="24" viewBox="0 0 24 24" fill="none" xmlns="http://www.w3.org/2000/svg">
<path fill-rule="evenodd" clip-rule="evenodd" d="M7.25 4.5C5.1851 4.5 3.5 6.18673 3.5 8.28125C3.5 9.61155 4.28051 10.9835 5.51203 12.4087C7.51855 14.7306 9.84195 17.157 12 19.1486C14.158 17.157 16.4815 14.7306 18.488 12.4087C19.7195 10.9835 20.5 9.61155 20.5 8.28125C20.5 6.18673 18.8149 4.5 16.75 4.5C15.8578 4.5 15.0401 4.81294 14.3957 5.33785C13.7157 5.89171 13.3584 6.28962 13.1598 6.53348C13.1085 6.59641 13.0653 6.65221 13.0257 6.70392C13.0189 6.71293 13.0114 6.72267 13.0037 6.73287C12.9727 6.77353 12.936 6.82168 12.9045 6.86087C12.8705 6.90318 12.7937 6.99822 12.69 7.08485C12.5854 7.17215 12.3356 7.35099 11.9692 7.34379C11.6073 7.33667 11.3669 7.15203 11.2697 7.06679C11.1711 6.98026 11.0976 6.88629 11.065 6.84434C11.0131 6.77758 10.9854 6.73975 10.9593 6.70405C10.9258 6.65814 10.8948 6.61576 10.8181 6.51988C10.6249 6.27842 10.2751 5.88423 9.60428 5.33785C8.95985 4.81294 8.14219 4.5 7.25 4.5ZM1.5 8.28125C1.5 5.09455 4.06819 2.5 7.25 2.5C8.62017 2.5 9.88018 2.98308 10.8674 3.78715C11.3635 4.19128 11.7262 4.53866 11.9972 4.82886C12.2699 4.54005 12.6346 4.19285 13.1326 3.78715C14.1198 2.98308 15.3798 2.5 16.75 2.5C19.9318 2.5 22.5 5.09455 22.5 8.28125C22.5 10.3647 21.304 12.2088 20.0012 13.7163C17.8442 16.2125 15.3246 18.8321 13.0045 20.9407C12.4346 21.4586 11.5654 21.4586 10.9955 20.9407C8.67538 18.8321 6.15585 16.2125 3.99878 13.7163C2.696 12.2088 1.5 10.3647 1.5 8.28125Z" fill="#2B2D34"/>
</svg>
