<svg width="24" height="24" viewBox="0 0 24 24" fill="none" xmlns="http://www.w3.org/2000/svg">
<path d="M1.5 8.28125C1.5 5.09455 4.06819 2.5 7.25 2.5C8.62017 2.5 9.88018 2.98308 10.8674 3.78715C11.3635 4.19128 11.7262 4.53866 11.9972 4.82886C12.2699 4.54005 12.6346 4.19285 13.1326 3.78715C14.1198 2.98308 15.3798 2.5 16.75 2.5C19.9318 2.5 22.5 5.09455 22.5 8.28125C22.5 10.3647 21.304 12.2088 20.0012 13.7163C17.8442 16.2125 15.3246 18.8321 13.0045 20.9407C12.4346 21.4586 11.5654 21.4586 10.9955 20.9407C8.67538 18.8321 6.15585 16.2125 3.99878 13.7163C2.696 12.2088 1.5 10.3647 1.5 8.28125Z" fill="#2B2D34"/>
</svg>
