<svg width="24" height="24" viewBox="0 0 24 24" fill="none" xmlns="http://www.w3.org/2000/svg">
<path fill-rule="evenodd" clip-rule="evenodd" d="M7.25 2.5C4.06819 2.5 1.5 5.09455 1.5 8.28125C1.5 10.3647 2.696 12.2088 3.99878 13.7163C6.15585 16.2125 8.67538 18.8321 10.9955 20.9407C11.5654 21.4586 12.4346 21.4586 13.0045 20.9407C15.3246 18.8321 17.8442 16.2125 20.0012 13.7163C21.304 12.2088 22.5 10.3647 22.5 8.28125C22.5 5.09455 19.9318 2.5 16.75 2.5C15.3798 2.5 14.1198 2.98308 13.1326 3.78715C12.6346 4.19285 12.2699 4.54005 11.9972 4.82886C11.7262 4.53866 11.3635 4.19128 10.8674 3.78715C9.88018 2.98308 8.62017 2.5 7.25 2.5ZM3.5 8.28125C3.5 6.18673 5.1851 4.5 7.25 4.5C8.14219 4.5 8.95985 4.81294 9.60428 5.33785C10.2751 5.88423 10.6249 6.27842 10.8181 6.51988C10.8655 6.57921 10.8955 6.61806 10.9194 6.64993L9.85938 9.12332L12.3142 12.56L10.4666 15.7933L10.7364 17.9516C8.95753 16.2249 7.13156 14.2827 5.51203 12.4087C4.28051 10.9835 3.5 9.61155 3.5 8.28125ZM12.8069 18.3912C14.7276 16.5588 16.7295 14.4436 18.488 12.4087C19.7195 10.9835 20.5 9.61155 20.5 8.28125C20.5 6.18673 18.8149 4.5 16.75 4.5C15.8578 4.5 15.0401 4.81294 14.3957 5.33785C13.7157 5.89171 13.3584 6.28962 13.1598 6.53348C13.1491 6.54657 13.1388 6.55935 13.1288 6.57185L12.141 8.87668L14.6862 12.44L12.5338 16.2067L12.8069 18.3912ZM11.3405 5.61419L11.3358 5.6197L11.3365 5.61894C11.3365 5.61894 11.3386 5.61654 11.3405 5.61419Z" fill="#2B2D34"/>
</svg>
