<svg width="24" height="24" viewBox="0 0 24 24" fill="none" xmlns="http://www.w3.org/2000/svg">
<path d="M9 15C9 14.4477 9.44772 14 10 14H14C14.5523 14 15 14.4477 15 15V19H19V12.4142L12 5.41421L5 12.4142V19H9V15ZM11 16V20C11 20.5523 10.5523 21 10 21H4C3.44772 21 3 20.5523 3 20V12C3 11.7348 3.10536 11.4804 3.29289 11.2929L11.2929 3.29289C11.6834 2.90237 12.3166 2.90237 12.7071 3.29289L20.7071 11.2929C20.8946 11.4804 21 11.7348 21 12V20C21 20.5523 20.5523 21 20 21H14C13.4477 21 13 20.5523 13 20V16H11Z" fill="#2B2D34"/>
</svg>
