<svg width="24" height="24" viewBox="0 0 24 24" fill="none" xmlns="http://www.w3.org/2000/svg">
<path d="M3 2H5V4H3V2Z" fill="#2B2D34"/>
<path d="M7 2H9V4H7V2Z" fill="#2B2D34"/>
<path d="M13 2H11V4H13V2Z" fill="#2B2D34"/>
<path d="M15 2H17V4H15V2Z" fill="#2B2D34"/>
<path d="M21 2H19V4H21V2Z" fill="#2B2D34"/>
<path d="M8 16H16V14H8V16Z" fill="#2B2D34"/>
<path d="M16 12H8V10H16V12Z" fill="#2B2D34"/>
<path fill-rule="evenodd" clip-rule="evenodd" d="M4 7C4 6.44772 4.44772 6 5 6H19C19.5523 6 20 6.44772 20 7V21C20 21.5523 19.5523 22 19 22H5C4.44772 22 4 21.5523 4 21V7ZM6 8V20H10V18H14V20H18V8H6Z" fill="#2B2D34"/>
</svg>
