<svg width="24" height="24" viewBox="0 0 24 24" fill="none" xmlns="http://www.w3.org/2000/svg">
<path d="M17.6402 1.23178C17.2693 0.92274 16.7307 0.92274 16.3598 1.23178L10.3598 6.23178C10.1318 6.42177 10 6.70322 10 7V9L12 9V7.46838L17 3.30171L22 7.46838V9H21V13H19V9H17V13H16V15H22C22.5523 15 23 14.5523 23 14V9L24 9V7C24 6.70322 23.8682 6.42178 23.6402 6.23178L17.6402 1.23178Z" fill="#2B2D34"/>
<path fill-rule="evenodd" clip-rule="evenodd" d="M7.64018 8.23178C7.26934 7.92274 6.73066 7.92274 6.35982 8.23178L0.359816 13.2318C0.131824 13.4218 0 13.7032 0 14V16L1 16V21C1 21.2652 1.10536 21.5196 1.29289 21.7071C1.48043 21.8946 1.73478 22 2 22H12C12.5523 22 13 21.5523 13 21V16H14L14 14C14 13.7032 13.8682 13.4218 13.6402 13.2318L7.64018 8.23178ZM12 16V14.4684L7 10.3017L2 14.4684L2 16L3 16V20H7V16H9V20H11V16L12 16Z" fill="#2B2D34"/>
</svg>
