<svg width="24" height="24" viewBox="0 0 24 24" fill="none" xmlns="http://www.w3.org/2000/svg">
<path fill-rule="evenodd" clip-rule="evenodd" d="M6.00481 7.75964C6.06505 6.2557 6.68892 4.8258 7.75736 3.75736C8.88258 2.63214 10.4087 2 12 2C13.5913 2 15.1174 2.63214 16.2426 3.75736C17.3111 4.8258 17.9349 6.2557 17.9952 7.75964C18.2334 7.9718 18.4373 8.22147 18.5981 8.5C18.8614 8.95606 19 9.47339 19 10C19 10.5266 18.8614 11.0439 18.5981 11.5C18.3348 11.9561 17.9561 12.3348 17.5 12.5981C17.2648 12.7338 17.0134 12.8365 16.7528 12.904L13.9487 21.3162C13.8126 21.7246 13.4304 22 13 22H11C10.5696 22 10.1874 21.7246 10.0513 21.3162L7.24726 12.904C6.98664 12.8365 6.73517 12.7339 6.5 12.5981C6.04394 12.3348 5.66523 11.9561 5.40192 11.5C5.13862 11.0439 5 10.5266 5 10C5 9.47339 5.13862 8.95606 5.40192 8.5C5.56273 8.22147 5.76658 7.9718 6.00481 7.75964ZM14.8284 5.17157C15.5786 5.92172 16 6.93913 16 8C16 8.04524 16.003 8.08978 16.0088 8.13343C15.956 8.52361 16.1379 8.92492 16.5 9.13397C16.652 9.22174 16.7783 9.34798 16.866 9.5C16.9538 9.65202 17 9.82446 17 10C17 10.1755 16.9538 10.348 16.866 10.5C16.7783 10.652 16.652 10.7783 16.5 10.866C16.348 10.9538 16.1755 11 16 11C15.8245 11 15.652 10.9538 15.5 10.866C15.348 10.7783 15.2217 10.652 15.134 10.5C15.0462 10.348 15 10.1755 15 10C15 9.44771 14.5523 9 14 9C13.4477 9 13 9.44772 13 10C13 10.2652 12.8946 10.5196 12.7071 10.7071C12.5196 10.8946 12.2652 11 12 11C11.7348 11 11.4804 10.8946 11.2929 10.7071C11.1054 10.5196 11 10.2652 11 10C11 9.96548 10.9983 9.93137 10.9948 9.89776C10.9436 9.3935 10.5178 9 10 9C9.44987 9 9.0035 9.44422 9.00002 9.99353L9 10C9 10.1755 8.95379 10.348 8.86603 10.5C8.77826 10.652 8.65202 10.7783 8.5 10.866C8.34798 10.9538 8.17554 11 8 11C7.82446 11 7.65202 10.9538 7.5 10.866C7.34798 10.7783 7.22174 10.652 7.13397 10.5C7.04621 10.348 7 10.1755 7 10C7 9.82446 7.04621 9.65202 7.13397 9.5C7.22174 9.34798 7.34798 9.22174 7.5 9.13397C7.86209 8.92492 8.04398 8.52361 7.99118 8.13343C7.997 8.08978 8 8.04524 8 8C8 6.93913 8.42143 5.92172 9.17157 5.17157C9.92172 4.42143 10.9391 4 12 4C13.0609 4 14.0783 4.42143 14.8284 5.17157ZM14.5 12.5981C14.5686 12.6377 14.6386 12.6745 14.7098 12.7084L14.2041 14.2253L10.2725 15.6551L9.29023 12.7084C9.36142 12.6745 9.43141 12.6377 9.5 12.5981C9.67941 12.4945 9.84684 12.373 9.99999 12.2361C10.5485 12.7267 11.2602 13 12 13C12.7398 13 13.4515 12.7267 14 12.2361C14.1532 12.3731 14.3206 12.4945 14.5 12.5981ZM10.9051 17.5531L11.7208 20H12.2793L13.3969 16.647L10.9051 17.5531Z" fill="#2B2D34"/>
</svg>
