<svg width="24" height="24" viewBox="0 0 24 24" fill="none" xmlns="http://www.w3.org/2000/svg">
<path fill-rule="evenodd" clip-rule="evenodd" d="M11 2C8.23858 2 6 4.23858 6 7C6 9.76142 8.23858 12 11 12C13.7614 12 16 9.76142 16 7C16 4.23858 13.7614 2 11 2ZM8 7C8 5.34315 9.34315 4 11 4C12.6569 4 14 5.34315 14 7C14 8.65685 12.6569 10 11 10C9.34315 10 8 8.65685 8 7Z" fill="#2B2D34"/>
<path d="M11.5001 13C6.08967 13 3 17.5983 3 22H5C5 18.4017 7.47308 15 11.5001 15C12.7591 15 13.839 15.3234 14.7359 15.8587L15.7609 14.1413C14.5501 13.4186 13.1152 13 11.5001 13Z" fill="#2B2D34"/>
<path d="M18 19.5857V13H20V19.5859L21.793 17.7929L23.2072 19.2071L19.7072 22.7071C19.3167 23.0976 18.6835 23.0976 18.293 22.7071L14.793 19.2071L16.2072 17.7929L18 19.5857Z" fill="#2B2D34"/>
</svg>
