<svg width="24" height="24" viewBox="0 0 24 24" fill="none" xmlns="http://www.w3.org/2000/svg">
<path d="M9.52566 8.34189C9.59372 8.13771 9.78479 8 10 8H14C14.2152 8 14.4063 8.13771 14.4743 8.34189C14.5424 8.54606 14.4722 8.77087 14.3 8.9L12.3 10.4C12.1222 10.5333 11.8778 10.5333 11.7 10.4L9.7 8.9C9.52783 8.77087 9.4576 8.54606 9.52566 8.34189Z" fill="#2B2D34"/>
<path fill-rule="evenodd" clip-rule="evenodd" d="M5.28941 2.29645C5.47723 2.10674 5.7331 2 6.00006 2H18.0001C18.267 2 18.5229 2.10674 18.7107 2.29646C18.8985 2.48617 19.0027 2.74311 19 3.01005L18.9972 3.29052C18.9849 4.5479 18.9745 5.60036 18.9113 6.48426C18.843 7.43831 18.7095 8.27113 18.4081 9.02844C17.9307 10.2282 17.0875 11.0948 15.8144 12C17.0875 12.9051 17.9307 13.7718 18.4081 14.9715C18.7095 15.7288 18.8431 16.5617 18.9113 17.5157C18.9745 18.3997 18.9849 19.4521 18.9972 20.7095L19 20.99C19.0027 21.2569 18.8985 21.5138 18.7107 21.7035C18.5229 21.8933 18.267 22 18.0001 22H6C5.73304 22 5.47717 21.8933 5.28935 21.7035C5.10154 21.5138 4.99737 21.2569 5.00005 20.99L5.00282 20.7099C5.01516 19.4523 5.02549 18.3997 5.08872 17.5157C5.15697 16.5617 5.29053 15.7288 5.59192 14.9715C6.06938 13.7718 6.91258 12.9051 8.1857 12C6.91258 11.0948 6.0694 10.2282 5.59195 9.02843C5.29058 8.27112 5.15703 7.43831 5.08879 6.48425C5.02556 5.60032 5.01523 4.54788 5.00289 3.29045L5.00011 3.01004C4.99743 2.7431 5.1016 2.48617 5.28941 2.29645ZM7.01045 4C7.02135 4.93093 7.03712 5.69054 7.08369 6.34155C7.1457 7.20841 7.25862 7.80749 7.45022 8.28894C7.81333 9.20141 8.54005 9.90828 10.53 11.152C10.8224 11.3347 11 11.6552 11 12C11 12.3448 10.8224 12.6653 10.53 12.848C8.54004 14.0917 7.8133 14.7986 7.45017 15.7111C7.25857 16.1925 7.14564 16.7916 7.08363 17.6584C7.03706 18.3094 7.02129 19.0691 7.01039 20H7.5C7.60076 19.8409 7.77782 19.5449 7.98531 19.1981C8.3942 18.5145 8.92125 17.6335 9.21539 17.2133C9.65681 16.5827 10.1392 15.9382 10.5815 15.4468C10.8016 15.2022 11.024 14.9817 11.2362 14.8185C11.4252 14.6731 11.6969 14.5 12 14.5C12.3031 14.5 12.5748 14.6731 12.7638 14.8185C12.976 14.9817 13.1984 15.2022 13.4185 15.4468C13.8608 15.9382 14.3432 16.5827 14.7846 17.2133C15.0788 17.6335 15.6058 18.5145 16.0147 19.198C16.2222 19.5449 16.3992 19.8409 16.5 20H16.9897C16.9788 19.0691 16.963 18.3094 16.9164 17.6584C16.8544 16.7916 16.7415 16.1925 16.5499 15.711C16.1867 14.7986 15.46 14.0917 13.4701 12.848C13.1777 12.6653 13.0001 12.3448 13.0001 12C13.0001 11.6552 13.1777 11.3347 13.4701 11.152C15.46 9.90828 16.1867 9.20141 16.5499 8.28894C16.7415 7.80748 16.8544 7.2084 16.9164 6.34154C16.963 5.69053 16.9787 4.93093 16.9897 4H7.01045Z" fill="#2B2D34"/>
</svg>
