<svg width="24" height="24" viewBox="0 0 24 24" fill="none" xmlns="http://www.w3.org/2000/svg">
<path d="M7 9C5.34315 9 4 10.3431 4 12C4 13.6569 5.34315 15 7 15C7.43572 15 7.8816 14.8403 8.35821 14.5593C8.74455 14.3314 9.08501 14.067 9.43683 13.7938C9.53248 13.7195 9.62897 13.6446 9.72746 13.5696L10.9395 15.1605C10.8698 15.2136 10.7933 15.2731 10.7109 15.3373C10.3527 15.6162 9.88284 15.982 9.37416 16.282C8.73373 16.6597 7.92962 17 7 17C4.23858 17 2 14.7614 2 12C2 9.23858 4.23858 7 7 7C8.99704 7 10.5005 8.27447 11.4244 9.34748C11.9015 9.90144 12.267 10.4506 12.513 10.8593C12.6367 11.0648 13.1352 11.9855 13.2005 12.1093C13.4059 12.4506 13.707 12.9014 14.0911 13.3475C14.8893 14.2745 15.8859 15 17 15C18.6569 15 20 13.6569 20 12C20 10.3431 18.6569 9 17 9C16.5487 9 16.1036 9.16051 15.63 9.44424C15.2421 9.67658 14.8979 9.94951 14.5309 10.2406C14.4318 10.3192 14.331 10.399 14.2273 10.4798L12.9985 8.90187C13.073 8.84381 13.1537 8.77968 13.2397 8.71131C13.6141 8.41363 14.0895 8.03559 14.6023 7.72847C15.2517 7.33949 16.0566 7 17 7C19.7614 7 22 9.23858 22 12C22 14.7614 19.7614 17 17 17C15.003 17 13.4995 15.7255 12.5756 14.6525C12.0985 14.0986 11.733 13.5494 11.487 13.1407C11.3633 12.9352 10.8648 12.0145 10.7995 11.8907C10.5941 11.5494 10.293 11.0986 9.9089 10.6525C9.11065 9.72553 8.11407 9 7 9Z" fill="#2B2D34"/>
</svg>
