<svg width="24" height="24" viewBox="0 0 24 24" fill="none" xmlns="http://www.w3.org/2000/svg">
<path d="M6 4.11803L6.65836 4.44721C7.50294 4.86951 8.49706 4.86951 9.34164 4.44721L9.55279 4.34164C9.83431 4.20088 10.1657 4.20088 10.4472 4.34164L10.6584 4.44721C11.5029 4.86951 12.4971 4.86951 13.3416 4.44721L13.5528 4.34164C13.8343 4.20088 14.1657 4.20088 14.4472 4.34164L14.6584 4.44721C15.5029 4.8695 16.4971 4.8695 17.3416 4.44721L18 4.11803V10.5H20V3C20 2.73478 19.8946 2.48043 19.7071 2.29289C19.5196 2.10536 19.2652 2 19 2H18.4721C18.0064 2 17.5471 2.10844 17.1305 2.31672L16.4472 2.65836C16.1657 2.79912 15.8343 2.79912 15.5528 2.65836L15.3416 2.55279C14.4971 2.1305 13.5029 2.1305 12.6584 2.55279L12.4472 2.65836C12.1657 2.79912 11.8343 2.79912 11.5528 2.65836L11.3416 2.55279C10.4971 2.1305 9.50294 2.1305 8.65836 2.55279L8.44721 2.65836C8.16569 2.79912 7.83431 2.79912 7.55279 2.65836L6.8695 2.31672C6.45294 2.10844 5.9936 2 5.52786 2H5C4.44772 2 4 2.44772 4 3V21C4 21.2652 4.10536 21.5196 4.29289 21.7071C4.48043 21.8946 4.73478 22 5 22H5.52786C5.9936 22 6.45294 21.8916 6.8695 21.6833L7.55279 21.3416C7.83431 21.2009 8.16569 21.2009 8.44721 21.3416L8.51467 21.3754C9.47759 21.8568 10.6247 21.7854 11.5204 21.1882L12.0547 20.8321L10.9453 19.1679L10.411 19.5241C10.1124 19.7232 9.73007 19.747 9.4091 19.5865L9.34164 19.5528C8.49706 19.1305 7.50294 19.1305 6.65836 19.5528L6 19.882L6 4.11803Z" fill="#2B2D34"/>
<path fill-rule="evenodd" clip-rule="evenodd" d="M12 16C12 13.7909 13.7909 12 16 12C18.2091 12 20 13.7909 20 16C20 16.7418 19.7981 17.4364 19.4462 18.0319L21.7072 20.2928L20.293 21.7071L18.032 19.4461C17.4365 19.7981 16.7418 20 16 20C13.7909 20 12 18.2091 12 16ZM16 14C14.8954 14 14 14.8954 14 16C14 17.1046 14.8954 18 16 18C17.1046 18 18 17.1046 18 16C18 14.8954 17.1046 14 16 14Z" fill="#2B2D34"/>
</svg>
