<svg width="24" height="24" viewBox="0 0 24 24" fill="none" xmlns="http://www.w3.org/2000/svg">
<path fill-rule="evenodd" clip-rule="evenodd" d="M18 3C18 2.44772 17.5523 2 17 2H3C2.44771 2 2 2.44772 2 3V21C2 21.5523 2.44771 22 3 22H12V20H4V4H16V9H18V3Z" fill="#2B2D34"/>
<path fill-rule="evenodd" clip-rule="evenodd" d="M15.1808 15.4265L18.6808 10.4265L20.3192 11.5735L17.9207 15H21C21.3905 15 21.7453 15.2273 21.9085 15.5821C22.0717 15.9369 22.0134 16.3543 21.7593 16.6508L15.7593 23.6508L14.2407 22.3492L18.8258 17H16C15.6271 17 15.2852 16.7925 15.113 16.4618C14.9408 16.1311 14.9669 15.732 15.1808 15.4265Z" fill="#2B2D34"/>
</svg>
