<svg width="24" height="24" viewBox="0 0 24 24" fill="none" xmlns="http://www.w3.org/2000/svg">
<path d="M3 3H21V5H3V3Z" fill="#2B2D34"/>
<path d="M16 7H8V9H16V7Z" fill="#2B2D34"/>
<path d="M16 11H8V13H16V11Z" fill="#2B2D34"/>
<path d="M18.0031 7V18.5281C17.7645 18.4433 17.6685 18.4437 17.4666 18.4445C17.4269 18.4447 17.3831 18.4449 17.3333 18.4444C16.7167 18.4748 16.1181 18.6627 15.5947 18.9902C15.317 19.1767 14.9989 19.2944 14.6667 19.3333C14.3479 19.2947 14.043 19.1801 13.7778 18.9991C13.2432 18.6634 12.6306 18.4723 12 18.4444C11.3668 18.4716 10.7517 18.664 10.216 19.0027C9.95268 19.1823 9.64988 19.2958 9.33333 19.3333C9.01124 19.2875 8.70303 19.1719 8.43022 18.9947C7.89761 18.6667 7.29127 18.4776 6.66667 18.4444C6.61483 18.445 6.56965 18.4448 6.52895 18.4446C6.33162 18.4437 6.2393 18.4433 6.00275 18.5281V7H4L4.00002 19.5834C4.00002 20.2193 4.5155 20.7348 5.15138 20.7348C5.3676 20.7348 5.57944 20.6739 5.76267 20.5591C6.03328 20.3772 6.34302 20.2618 6.66667 20.2222C7.0013 20.2666 7.32174 20.3853 7.60444 20.5698C8.12599 20.8929 8.72066 21.0791 9.33333 21.1111C9.94646 21.0826 10.5416 20.8951 11.0604 20.5671C11.61 20.1419 12.3775 20.1419 12.9271 20.5671C13.4503 20.8956 14.0496 21.083 14.6667 21.1111C15.2931 21.0816 15.9014 20.8912 16.4329 20.5582C16.7028 20.3777 17.0111 20.2626 17.3333 20.2222C17.6575 20.259 17.9678 20.3744 18.2373 20.5582C18.3454 20.6265 18.4755 20.6911 18.6275 20.7522C19.1401 20.9579 19.7224 20.7091 19.9281 20.1965C19.9756 20.0781 20 19.9517 20 19.8241V7H18.0031Z" fill="#2B2D34"/>
</svg>
