<svg width="24" height="25" viewBox="0 0 24 25" fill="none" xmlns="http://www.w3.org/2000/svg">
<path d="M3 2.5C2.44772 2.5 2 2.94772 2 3.5V5.5C2 5.65525 2.03615 5.80836 2.10557 5.94721L2.88197 7.5L2.10557 9.05279C1.96481 9.33431 1.96481 9.66569 2.10557 9.94721L2.88197 11.5L2.10557 13.0528C1.96481 13.3343 1.96481 13.6657 2.10557 13.9472L2.88197 15.5L2.10557 17.0528C2.03615 17.1916 2 17.3448 2 17.5V18.5H4V17.7361L4.89443 15.9472C5.03519 15.6657 5.03519 15.3343 4.89443 15.0528L4.11803 13.5L4.89443 11.9472C5.03519 11.6657 5.03519 11.3343 4.89443 11.0528L4.11803 9.5L4.89443 7.94721C5.03519 7.66569 5.03519 7.33431 4.89443 7.05279L4 5.26393V4.5H18V12.5H20V3.5C20 2.94772 19.5523 2.5 19 2.5H3Z" fill="#2B2D34"/>
<path d="M4 22.5H6L6 20.5H4L4 22.5Z" fill="#2B2D34"/>
<path fill-rule="evenodd" clip-rule="evenodd" d="M8 16.5C8 15.3954 8.89543 14.5 10 14.5H12C13.1046 14.5 14 15.3954 14 16.5V20.5C14 21.6046 13.1046 22.5 12 22.5H10C8.89543 22.5 8 21.6046 8 20.5V16.5ZM12 16.5H10V20.5H12V16.5Z" fill="#2B2D34"/>
<path fill-rule="evenodd" clip-rule="evenodd" d="M18 14.5C16.8954 14.5 16 15.3954 16 16.5V20.5C16 21.6046 16.8954 22.5 18 22.5H20C21.1046 22.5 22 21.6046 22 20.5V16.5C22 15.3954 21.1046 14.5 20 14.5H18ZM18 16.5H20V20.5H18V16.5Z" fill="#2B2D34"/>
</svg>
