<svg width="24" height="24" viewBox="0 0 24 24" fill="none" xmlns="http://www.w3.org/2000/svg">
<path d="M9 17V15H15V17H9Z" fill="#2B2D34"/>
<path d="M18 11H15V13H18V11Z" fill="#2B2D34"/>
<path d="M12 13V11H14V13H12Z" fill="#2B2D34"/>
<path d="M11 11H9V13H11V11Z" fill="#2B2D34"/>
<path d="M6 11H8V13H6V11Z" fill="#2B2D34"/>
<path d="M16 17H18V15H16V17Z" fill="#2B2D34"/>
<path d="M8 17H6V15H8V17Z" fill="#2B2D34"/>
<path fill-rule="evenodd" clip-rule="evenodd" d="M13 2V1H11V2C11 2.55228 10.5523 3 10 3H9C7.34315 3 6 4.34315 6 6V7H3C2.44772 7 2 7.44772 2 8V20C2 20.5523 2.44772 21 3 21H21C21.5523 21 22 20.5523 22 20V8C22 7.44772 21.5523 7 21 7H8V6C8 5.44772 8.44772 5 9 5H10C11.6569 5 13 3.65685 13 2ZM4 9V19H20V9H4Z" fill="#2B2D34"/>
</svg>
