<svg width="24" height="24" viewBox="0 0 24 24" fill="none" xmlns="http://www.w3.org/2000/svg">
<path d="M2 5C2 3.34315 3.34315 2 5 2H16V4H5C4.44772 4 4 4.44772 4 5V6H15C15.5523 6 16 6.44772 16 7V9.5H14V8H4V20H10V22H3C2.44772 22 2 21.5523 2 21V5Z" fill="#2B2D34"/>
<path fill-rule="evenodd" clip-rule="evenodd" d="M18.616 13.0065C18.922 12.9863 19.233 13.0128 19.5406 13.0927C20.6198 13.3728 21.3439 14.2128 21.7043 15.1725C22.0648 16.1324 22.0995 17.2829 21.7872 18.4117C21.4749 19.5409 20.8527 20.5144 20.0536 21.1641C19.2572 21.8116 18.2098 22.1862 17.1354 21.9073C16.9096 21.8487 16.6974 21.7645 16.5 21.6588C16.3026 21.7645 16.0905 21.8487 15.8647 21.9073C14.7902 22.1862 13.7428 21.8116 12.9465 21.1641C12.1473 20.5144 11.5251 19.5409 11.2128 18.4117C10.9005 17.2829 10.9352 16.1324 11.2957 15.1725C11.6562 14.2128 12.3802 13.3728 13.4594 13.0927C13.767 13.0128 14.078 12.9863 14.384 13.0065H15.5V12C15.5 11.7348 15.6054 11.4804 15.7929 11.2929L17.7929 9.29291L19.2071 10.7071L17.5 12.4142V13.0065H18.616ZM19.0381 15.0285C18.9408 15.0033 18.8394 14.9946 18.7328 15.0032L18.6926 15.0065H14.3074L14.2672 15.0032C14.1606 14.9946 14.0592 15.0033 13.9619 15.0285C13.6684 15.1047 13.3627 15.3572 13.168 15.8757C12.9733 16.3942 12.9272 17.1078 13.1404 17.8785C13.3535 18.6489 13.7634 19.2507 14.2082 19.6123C14.6557 19.9761 15.064 20.0489 15.3622 19.9715C15.5166 19.9314 15.6607 19.8493 15.7929 19.7171L16.5 19.0098L17.2072 19.7171C17.3394 19.8493 17.4834 19.9314 17.6378 19.9715C17.936 20.0489 18.3443 19.9761 18.7919 19.6123C19.2366 19.2507 19.6465 18.6489 19.8596 17.8785C20.0728 17.1078 20.0268 16.3942 19.832 15.8757C19.6373 15.3572 19.3316 15.1047 19.0381 15.0285Z" fill="#2B2D34"/>
</svg>
