<svg width="24" height="24" viewBox="0 0 24 24" fill="none" xmlns="http://www.w3.org/2000/svg">
<path fill-rule="evenodd" clip-rule="evenodd" d="M5.54173 17.0442C4.24314 15.5264 3.39226 13.7763 3.29425 11.8801C3.17877 9.64555 4.11813 7.39665 6.22185 5.29292L6.24848 5.2663L6.27704 5.24174C7.44566 4.23705 8.98486 3.56072 10.5622 3.09556C12.1502 2.62723 13.8467 2.35294 15.3878 2.19288C16.9322 2.03248 18.3426 1.98461 19.3661 1.97663C19.8786 1.97263 20.2959 1.97862 20.5867 1.98568L21.05 2.00128L21.9536 2.04646L21.9988 2.95057L21.999 2.9548C22.0021 3.03732 22.0109 3.27047 22.0144 3.41339C22.0214 3.70418 22.0274 4.12148 22.0234 4.63395C22.0154 5.65743 21.9676 7.06781 21.8072 8.61222C21.6471 10.1534 21.3728 11.8498 20.9045 13.4379C20.4393 15.0152 19.763 16.5544 18.7583 17.723L18.7337 17.7516L18.7071 17.7782C16.6034 19.8819 14.3545 20.8213 12.12 20.7058C10.2238 20.6078 8.47365 19.7569 6.95594 18.4584L3.70718 21.7071L2.29297 20.2929L5.54173 17.0442ZM5.29159 11.7768C5.21221 10.241 5.82827 8.52609 7.60884 6.73445C8.47429 6.00075 9.70066 5.43478 11.1279 5.01388C12.5598 4.59158 14.1267 4.33462 15.5944 4.18218C17.0589 4.03008 18.403 3.9842 19.3817 3.97656C19.6186 3.97472 19.8336 3.97511 20.0233 3.97676C20.0249 4.16645 20.0253 4.38148 20.0235 4.61834C20.0158 5.59707 19.97 6.94114 19.8179 8.40561C19.6654 9.87335 19.4085 11.4402 18.9862 12.8721C18.5653 14.2994 17.9993 15.5257 17.2656 16.3912C15.474 18.1718 13.7591 18.7878 12.2232 18.7084C10.9184 18.641 9.61131 18.0649 8.37509 17.0392L16.2072 9.20712L14.793 7.79291L6.96087 15.625C5.93517 14.3888 5.35903 13.0817 5.29159 11.7768Z" fill="#2B2D34"/>
</svg>
