<svg width="24" height="24" viewBox="0 0 24 24" fill="none" xmlns="http://www.w3.org/2000/svg">
<path d="M13 3V1H11V3H13Z" fill="#2B2D34"/>
<path d="M8 20H11V7.0743C9.7584 7.26231 8.79444 7.77917 8.1 8.3C7.66308 8.62769 7.33662 8.95463 7.12241 9.19561C7.01565 9.31572 6.93785 9.41326 6.88918 9.47714C6.86488 9.50903 6.84794 9.5324 6.83839 9.54583L6.82964 9.5583L6.53518 10H2V8H5.51198C5.54773 7.95785 5.58626 7.91338 5.62759 7.86689C5.91338 7.54537 6.33692 7.12231 6.9 6.7C8.02917 5.85312 9.7345 5 12 5C14.2655 5 15.9708 5.85312 17.1 6.7C17.6631 7.12231 18.0866 7.54537 18.3724 7.86689C18.4137 7.91338 18.4523 7.95785 18.488 8H22V10H17.4648L17.1706 9.55858L17.1616 9.54583C17.1521 9.5324 17.1351 9.50903 17.1108 9.47714C17.0621 9.41326 16.9844 9.31572 16.8776 9.19561C16.6634 8.95463 16.3369 8.62769 15.9 8.3C15.2056 7.77917 14.2416 7.26232 13 7.0743V20H16V22H8V20Z" fill="#2B2D34"/>
<path fill-rule="evenodd" clip-rule="evenodd" d="M16 12C15.4477 12 15 12.4477 15 13C15 13.6394 15.1101 14.275 15.3263 14.8715C15.5425 15.468 15.8621 16.0179 16.2725 16.4869C16.6832 16.9562 17.178 17.3367 17.7327 17.5994C18.2881 17.8622 18.889 18 19.5 18C20.111 18 20.7119 17.8622 21.2673 17.5994C21.822 17.3367 22.3168 16.9562 22.7274 16.4869C23.1379 16.0179 23.4575 15.468 23.6737 14.8715C23.8899 14.275 24 13.6394 24 13C24 12.4477 23.5523 12 23 12H16ZM17.2066 14.19C17.1839 14.1275 17.1631 14.0641 17.144 14H21.856C21.8369 14.0641 21.8161 14.1275 21.7934 14.19C21.6578 14.5641 21.4619 14.8961 21.2223 15.1699C20.9829 15.4435 20.706 15.6523 20.4115 15.7917C20.1176 15.9308 19.8083 16 19.5 16C19.1917 16 18.8824 15.9308 18.5885 15.7917C18.294 15.6523 18.0171 15.4435 17.7777 15.1699C17.5381 14.8961 17.3422 14.5641 17.2066 14.19Z" fill="#2B2D34"/>
<path fill-rule="evenodd" clip-rule="evenodd" d="M0 13C0 12.4477 0.447715 12 1 12H8C8.55228 12 9 12.4477 9 13C9 13.6394 8.88992 14.275 8.67373 14.8715C8.45753 15.468 8.13787 16.0179 7.72745 16.4869C7.31682 16.9562 6.82203 17.3367 6.26726 17.5994C5.71193 17.8622 5.11095 18 4.5 18C3.88904 18 3.28807 17.8622 2.73274 17.5994C2.17797 17.3367 1.68318 16.9562 1.27255 16.4869C0.86213 16.0179 0.542464 15.468 0.326266 14.8715C0.110077 14.275 0 13.6394 0 13ZM2.14405 14C2.16307 14.0641 2.18392 14.1275 2.20658 14.19C2.34216 14.5641 2.53811 14.8961 2.7777 15.1699C3.01708 15.4435 3.29397 15.6523 3.58847 15.7917C3.88242 15.9308 4.1917 16 4.5 16C4.8083 16 5.11758 15.9308 5.41153 15.7917C5.70603 15.6523 5.98292 15.4435 6.2223 15.1699C6.46189 14.8961 6.65784 14.5641 6.79342 14.19C6.81608 14.1275 6.83693 14.0641 6.85595 14H2.14405Z" fill="#2B2D34"/>
</svg>
