<svg width="24" height="24" viewBox="0 0 24 24" fill="none" xmlns="http://www.w3.org/2000/svg">
<path fill-rule="evenodd" clip-rule="evenodd" d="M11.3114 2.93944C12.035 1.67321 13.6217 1.19279 14.9261 1.845C15.4579 2.11089 15.8891 2.54209 16.155 3.07388L16.3684 3.50073C16.8146 4.39312 16.9269 5.41568 16.6849 6.3836L16.2808 7.99998H19.0459C21.1683 7.99998 22.6196 10.1436 21.8314 12.1142L19.4314 18.1142C18.9758 19.2531 17.8727 20 16.6459 20H10C9.80259 20 9.60958 19.9415 9.44531 19.832L8 18.8685V19C8 19.5523 7.55228 20 7 20H3C2.44772 20 2 19.5523 2 19V8C2 7.44772 2.44772 7 3 7H7C7.55228 7 7.99999 7.4477 8 7.99998H8.41969L11.3114 2.93944ZM10.3028 18L8 16.4648V9.99998H9.00001C9.35887 9.99998 9.69021 9.80769 9.86826 9.49612L13.0479 3.93171C13.2448 3.5871 13.6767 3.45635 14.0317 3.63385C14.1764 3.70622 14.2938 3.82357 14.3661 3.9683L14.5796 4.39516C14.8123 4.86053 14.8708 5.39377 14.7446 5.89853L14.2192 8H13V10H15C15 10 15 10 15 10L19.0459 9.99998C19.7534 9.99998 20.2372 10.7145 19.9744 11.3714L17.5744 17.3714C17.4226 17.751 17.0549 18 16.6459 18H10.3028ZM4 9V18H6V9H4Z" fill="#2B2D34"/>
</svg>
