<svg width="24" height="24" viewBox="0 0 24 24" fill="none" xmlns="http://www.w3.org/2000/svg">
<path d="M4.40384 2C3.07545 2 2.00021 3.079 2 4.40666C2 5.73561 3.07523 6.8144 4.40405 6.8144C5.72922 6.8144 6.80594 5.73561 6.80594 4.40666C6.80594 3.07879 5.72901 2 4.40384 2Z" fill="#2B2D34"/>
<path d="M6.47546 8.64084H2.33041V22.0001H6.47546V8.64084Z" fill="#2B2D34"/>
<path d="M17.0279 8.30846C15.0116 8.30846 13.6595 9.41589 13.1061 10.466H13.0507V8.64065H9.07516L9.07495 21.9997H13.2164V15.3909C13.2164 13.6486 13.5476 11.961 15.704 11.961C17.8295 11.961 17.8579 13.9537 17.8579 15.5026V21.9995H22V14.6721C22 11.0753 21.2252 8.30846 17.0279 8.30846Z" fill="#2B2D34"/>
</svg>
