<svg width="24" height="24" viewBox="0 0 24 24" fill="none" xmlns="http://www.w3.org/2000/svg">
<path d="M11.293 1.29289C11.6835 0.902369 12.3167 0.902369 12.7072 1.29289L16.7072 5.29289L15.293 6.70711L13 4.41414V11H11V4.41429L8.70718 6.70711L7.29297 5.29289L11.293 1.29289Z" fill="#2B2D34"/>
<path fill-rule="evenodd" clip-rule="evenodd" d="M3 8C2.44772 8 2 8.44772 2 9V21C2 21.5523 2.44772 22 3 22H21C21.5523 22 22 21.5523 22 21V9C22 8.44772 21.5523 8 21 8H15V10H18.3337L12.0004 14.75L5.66704 10H9V8H3ZM4 11.2497V20H20V11.2503L12.6004 16.8C12.2448 17.0667 11.7559 17.0667 11.4004 16.8L4 11.2497Z" fill="#2B2D34"/>
</svg>
