<svg width="24" height="24" viewBox="0 0 24 24" fill="none" xmlns="http://www.w3.org/2000/svg">
<path fill-rule="evenodd" clip-rule="evenodd" d="M3 2C2.44772 2 2 2.44772 2 3V15C2 15.5523 2.44772 16 3 16H6V14H4V5.0449L11.3857 10.7894C11.7469 11.0702 12.2525 11.0702 12.6136 10.7894L20 5.04441V14H18V16H21C21.5523 16 22 15.5523 22 15V3C22 2.44772 21.5523 2 21 2H3ZM5.9142 4L11.9997 8.73315L18.0852 4H5.9142Z" fill="#2B2D34"/>
<path d="M13 16.4141V23H11V16.4143L8.70718 18.7071L7.29297 17.2929L11.293 13.2929C11.6835 12.9024 12.3167 12.9024 12.7072 13.2929L16.7072 17.2929L15.293 18.7071L13 16.4141Z" fill="#2B2D34"/>
</svg>
