<svg width="24" height="24" viewBox="0 0 24 24" fill="none" xmlns="http://www.w3.org/2000/svg">
<path fill-rule="evenodd" clip-rule="evenodd" d="M10.7721 1.4213C11.4943 0.859568 12.5057 0.859568 13.2279 1.4213L21.6139 7.94379C21.8575 8.13324 22 8.42455 22 8.73314V20.6331C22 21.2407 21.5075 21.7331 20.9 21.7331H3.1C2.49249 21.7331 2 21.2407 2 20.6331V8.73314C2 8.42455 2.14247 8.13324 2.38606 7.94379L10.7721 1.4213ZM4 10.7778L10.7721 16.045C11.4943 16.6067 12.5057 16.6067 13.2279 16.045L20 10.7778V19.7331H4V10.7778ZM19.3712 8.73314L12 14.4663L4.62882 8.73314L12 3L19.3712 8.73314Z" fill="#2B2D34"/>
</svg>
