<svg width="24" height="24" viewBox="0 0 24 24" fill="none" xmlns="http://www.w3.org/2000/svg">
<path fill-rule="evenodd" clip-rule="evenodd" d="M7 7C7 4.23858 9.23858 2 12 2C14.7614 2 17 4.23858 17 7C17 9.76142 14.7614 12 12 12C9.23858 12 7 9.76142 7 7ZM12 4C10.3431 4 9 5.34315 9 7C9 8.65685 10.3431 10 12 10C13.6569 10 15 8.65685 15 7C15 5.34315 13.6569 4 12 4Z" fill="#2B2D34"/>
<path d="M12 14L10 13V16L12 15L14 16V13L12 14Z" fill="#2B2D34"/>
<path d="M8.36557 13.8046C5.21005 15.3221 3.5 18.7012 3.5 21.9999H5.5C5.5 19.3265 6.89001 16.7335 9.23235 15.607L8.36557 13.8046Z" fill="#2B2D34"/>
<path d="M14.7678 15.607C17.1101 16.7334 18.5 19.3265 18.5 21.9999H20.5C20.5 18.7012 18.7901 15.3221 15.6346 13.8046L14.7678 15.607Z" fill="#2B2D34"/>
</svg>
