<svg width="24" height="24" viewBox="0 0 24 24" fill="none" xmlns="http://www.w3.org/2000/svg">
<path fill-rule="evenodd" clip-rule="evenodd" d="M15 4.94591L9.32023 3.05266C9.29867 3.04537 9.27689 3.03883 9.25493 3.03304C9.17098 3.0109 9.0853 2.99999 9 3C8.9147 2.99999 8.82902 3.0109 8.74507 3.03304C8.72311 3.03883 8.70133 3.04537 8.67977 3.05266L2.68377 5.05132C2.27543 5.18744 2 5.56958 2 6.00001V20C2 20.3215 2.15452 20.6233 2.41529 20.8113C2.67606 20.9992 3.01128 21.0503 3.31623 20.9487L9.31623 18.9487C9.72457 18.8126 10 18.4304 10 18V5.38743L14 6.72077V10H16V6.72077L20 5.38743V11H22V4.00001C22 3.67856 21.8455 3.37672 21.5847 3.18877C21.3239 3.00081 20.9887 2.94967 20.6838 3.05132L15 4.94591ZM8 5.38743V17.2792L4 18.6126V6.72077L8 5.38743Z" fill="#2B2D34"/>
<path fill-rule="evenodd" clip-rule="evenodd" d="M12 16.5C12 14.0147 14.0147 12 16.5 12C18.9853 12 21 14.0147 21 16.5C21 17.3805 20.7471 18.202 20.31 18.8957L22.7071 21.2929L21.2929 22.7071L18.8957 20.31C18.202 20.7471 17.3805 21 16.5 21C14.0147 21 12 18.9853 12 16.5ZM16.5 14C15.1193 14 14 15.1193 14 16.5C14 17.8807 15.1193 19 16.5 19C17.8807 19 19 17.8807 19 16.5C19 15.1193 17.8807 14 16.5 14Z" fill="#2B2D34"/>
</svg>
