<svg width="24" height="24" viewBox="0 0 24 24" fill="none" xmlns="http://www.w3.org/2000/svg">
<path fill-rule="evenodd" clip-rule="evenodd" d="M15.7071 2.29291L16.5 3.0858L17.7929 1.79291L19.2071 3.20712L17.9142 4.50001L18.7071 5.29291C19.0976 5.68343 19.0976 6.3166 18.7071 6.70712L17.0064 8.40787C17.6415 9.0947 18.1432 9.89499 18.4846 10.7678C18.8617 11.7317 19.0351 12.7631 18.9941 13.7973C18.9531 14.8315 18.6985 15.846 18.2462 16.7769C17.794 17.7079 17.154 18.5352 16.3665 19.2068C15.579 19.8783 14.661 20.3796 13.6703 20.6791C12.9704 20.8907 12.2448 20.9984 11.5168 21H17V23H7V21H11.4832C11.1919 20.9993 10.9004 20.9817 10.61 20.947C9.58231 20.8242 8.59118 20.49 7.69896 19.9655C6.84275 19.4621 6.09541 18.7939 5.49999 18H3V16H11V18H8.3377C8.45914 18.0853 8.58419 18.1659 8.71257 18.2414C9.36686 18.626 10.0937 18.8711 10.8473 18.9612C11.6009 19.0512 12.365 18.9843 13.0916 18.7647C13.8181 18.5451 14.4913 18.1774 15.0688 17.685C15.6463 17.1925 16.1156 16.5858 16.4472 15.9031C16.7789 15.2204 16.9656 14.4764 16.9957 13.718C17.0258 12.9596 16.8986 12.2032 16.6221 11.4964C16.3812 10.8807 16.0316 10.3141 15.5907 9.82355L10.7071 14.7071C10.3166 15.0976 9.68342 15.0976 9.29289 14.7071L6.29289 11.7071C5.90237 11.3166 5.90237 10.6834 6.29289 10.2929L14.2929 2.29291C14.6834 1.90238 15.3166 1.90238 15.7071 2.29291ZM15 4.41423L8.41421 11L10 12.5858L16.5858 6.00001L15 4.41423Z" fill="#2B2D34"/>
</svg>
