<svg width="24" height="24" viewBox="0 0 24 24" fill="none" xmlns="http://www.w3.org/2000/svg">
<path fill-rule="evenodd" clip-rule="evenodd" d="M8 5C8 2.79086 9.79086 1 12 1C14.2091 1 16 2.79086 16 5V11C16 13.2091 14.2091 15 12 15C9.79086 15 8 13.2091 8 11V5ZM12 3C10.8954 3 10 3.89543 10 5V11C10 12.1046 10.8954 13 12 13C13.1046 13 14 12.1046 14 11V5C14 3.89543 13.1046 3 12 3Z" fill="#2B2D34"/>
<path d="M13 18.9373C13.707 18.8482 14.4004 18.6649 15.0615 18.391C16.0321 17.989 16.914 17.3997 17.6569 16.6569C18.3997 15.914 18.989 15.0321 19.391 14.0615C19.7931 13.0909 20 12.0506 20 11H18C18 11.7879 17.8448 12.5681 17.5433 13.2961C17.2417 14.0241 16.7998 14.6855 16.2426 15.2426C15.6855 15.7998 15.0241 16.2417 14.2961 16.5433C13.5681 16.8448 12.7879 17 12 17C11.2121 17 10.4319 16.8448 9.7039 16.5433C8.97595 16.2417 8.31451 15.7998 7.75736 15.2426C7.20021 14.6855 6.75825 14.0241 6.45672 13.2961C6.15519 12.5681 6 11.7879 6 11H4C4 12.0506 4.20693 13.0909 4.60896 14.0615C5.011 15.0321 5.60028 15.914 6.34315 16.6569C7.08601 17.3997 7.96793 17.989 8.93853 18.391C9.59962 18.6649 10.293 18.8482 11 18.9373V21H8V23H16V21H13V18.9373Z" fill="#2B2D34"/>
</svg>
