<svg width="24" height="24" viewBox="0 0 24 24" fill="none" xmlns="http://www.w3.org/2000/svg">
<path d="M15 4H6V20H16V15H18V20C18 21.1046 17.1046 22 16 22H6C4.89543 22 4 21.1046 4 20V4C4 2.89543 4.89543 2 6 2H15V4Z" fill="#2B2D34"/>
<path d="M11 18C11.5523 18 12 17.5523 12 17C12 16.4477 11.5523 16 11 16C10.4477 16 10 16.4477 10 17C10 17.5523 10.4477 18 11 18Z" fill="#2B2D34"/>
<path d="M16.8284 5.17157C17.1999 5.543 17.4945 5.98396 17.6955 6.46926C17.8965 6.95457 18 7.47471 18 8C18 8.52528 17.8965 9.04543 17.6955 9.53073C17.4945 10.016 17.1999 10.457 16.8284 10.8284L15.4142 9.41421C15.5999 9.22849 15.7473 9.00802 15.8478 8.76536C15.9483 8.52271 16 8.26264 16 8C16 7.73735 15.9483 7.47728 15.8478 7.23463C15.7473 6.99198 15.5999 6.7715 15.4142 6.58578L16.8284 5.17157Z" fill="#2B2D34"/>
<path d="M21.391 4.93853C20.989 3.96792 20.3997 3.08601 19.6569 2.34314L18.2426 3.75735C18.7998 4.3145 19.2418 4.97594 19.5433 5.70389C19.8448 6.43185 20 7.21206 20 7.99999C20 8.78793 19.8448 9.56814 19.5433 10.2961C19.2418 11.024 18.7998 11.6855 18.2426 12.2426L19.6569 13.6568C20.3997 12.914 20.989 12.0321 21.391 11.0615C21.7931 10.0909 22 9.05057 22 7.99999C22 6.94942 21.7931 5.90913 21.391 4.93853Z" fill="#2B2D34"/>
</svg>
