<svg width="24" height="24" viewBox="0 0 24 24" fill="none" xmlns="http://www.w3.org/2000/svg">
<path d="M15 18C15 18.5523 14.5523 19 14 19C13.4477 19 13 18.5523 13 18C13 17.4477 13.4477 17 14 17C14.5523 17 15 17.4477 15 18Z" fill="#2B2D34"/>
<path fill-rule="evenodd" clip-rule="evenodd" d="M7 7C7 5.89543 7.89543 5 9 5H19C20.1046 5 21 5.89543 21 7V21C21 22.1046 20.1046 23 19 23H9C7.89543 23 7 22.1046 7 21V7ZM19 7L9 7V21H19V7Z" fill="#2B2D34"/>
<path fill-rule="evenodd" clip-rule="evenodd" d="M3 3C3 1.89543 3.89543 1 5 1H17V3H5V19H3V3Z" fill="#2B2D34"/>
</svg>
