<svg width="24" height="24" viewBox="0 0 24 24" fill="none" xmlns="http://www.w3.org/2000/svg">
<path d="M8 12.5L8 8.5H10V12.5H8Z" fill="#2B2D34"/>
<path d="M9 5.5C8.44772 5.5 8 5.94772 8 6.5C8 7.05229 8.44772 7.5 9 7.5C9.55228 7.5 10 7.05229 10 6.5C10 5.94772 9.55228 5.5 9 5.5Z" fill="#2B2D34"/>
<path fill-rule="evenodd" clip-rule="evenodd" d="M9 16C12.866 16 16 12.866 16 9C16 5.13401 12.866 2 9 2C5.13401 2 2 5.13401 2 9C2 12.866 5.13401 16 9 16ZM14 9C14 11.7614 11.7614 14 9 14C6.23858 14 4 11.7614 4 9C4 6.23858 6.23858 4 9 4C11.7614 4 14 6.23858 14 9Z" fill="#2B2D34"/>
<path d="M19 4H16V2H19C20.1046 2 21 2.89543 21 4V20C21 21.1046 20.1046 22 19 22H9C7.89543 22 7 21.1046 7 20V18H9V20H19V4Z" fill="#2B2D34"/>
<path d="M15 17C15 17.5523 14.5523 18 14 18C13.4477 18 13 17.5523 13 17C13 16.4477 13.4477 16 14 16C14.5523 16 15 16.4477 15 17Z" fill="#2B2D34"/>
</svg>
