<svg width="24" height="24" viewBox="0 0 24 24" fill="none" xmlns="http://www.w3.org/2000/svg">
<path d="M7 4H13V2H7C5.89543 2 5 2.89543 5 4V20C5 21.1046 5.89543 22 7 22H17C18.1046 22 19 21.1046 19 20V14H17V20H7V4Z" fill="#2B2D34"/>
<path d="M13 17C13 17.5523 12.5523 18 12 18C11.4477 18 11 17.5523 11 17C11 16.4477 11.4477 16 12 16C12.5523 16 13 16.4477 13 17Z" fill="#2B2D34"/>
<path d="M21.7071 7.70711C21.8946 7.51957 22 7.26522 22 7C22 6.73478 21.8946 6.48043 21.7071 6.29289L17.7071 2.29289L16.2929 3.70711L18.5858 6L13 6L13 8L18.5858 8L16.2929 10.2929L17.7071 11.7071L21.7071 7.70711Z" fill="#2B2D34"/>
</svg>
