<svg width="24" height="24" viewBox="0 0 24 24" fill="none" xmlns="http://www.w3.org/2000/svg">
<path d="M5.04072 11.1478C4.23457 11.1478 3.5292 10.9772 2.9246 10.6362C2.32774 10.2874 1.86266 9.80291 1.52935 9.1828C1.20379 8.55494 1.04102 7.83407 1.04102 7.02018C1.04102 6.20628 1.20767 5.48928 1.54098 4.86917C1.87429 4.24131 2.34324 3.75685 2.94785 3.41579C3.56021 3.06698 4.2617 2.89258 5.05234 2.89258C5.71896 2.89258 6.31969 3.0166 6.85453 3.26464C7.38938 3.51269 7.82345 3.85375 8.15676 4.28782L6.91267 5.76446C6.63362 5.41565 6.3507 5.17148 6.06389 5.03195C5.78485 4.88468 5.46704 4.81104 5.11048 4.81104C4.46712 4.81104 3.99816 5.01257 3.70361 5.41565C3.41681 5.81096 3.27341 6.34581 3.27341 7.02018C3.27341 7.69454 3.42068 8.23326 3.71523 8.63633C4.00979 9.03165 4.47487 9.22931 5.11048 9.22931C5.47479 9.22931 5.80422 9.15567 6.09878 9.0084C6.39333 8.86112 6.67238 8.62471 6.93592 8.29915L8.18002 9.77578C7.8312 10.2409 7.38163 10.5858 6.83128 10.8106C6.28868 11.0354 5.69183 11.1478 5.04072 11.1478Z" fill="#2B2D34"/>
<path d="M14.7121 4.81104L11.3519 9.15955H14.84V10.9734H8.91025V9.22931L12.2821 4.8808H9.03815V3.06698H14.7121V4.81104Z" fill="#2B2D34"/>
<path d="M22.872 10.9734L20.1047 6.83414L22.7557 3.06698H20.4419L18.2328 6.28767V3.06698H16.105V10.9734H18.2328V7.53177L20.4768 10.9734H22.872Z" fill="#2B2D34"/>
<path d="M10.942 21.0392L16.9638 15.0172L15.5496 13.603L10.942 18.2108L8.45038 15.719L7.03613 17.1332L10.942 21.0392Z" fill="#2B2D34"/>
</svg>
