<svg width="24" height="24" viewBox="0 0 24 24" fill="none" xmlns="http://www.w3.org/2000/svg">
<path fill-rule="evenodd" clip-rule="evenodd" d="M10 2C9.63973 2 9.30731 2.19379 9.1298 2.5073C8.95229 2.82081 8.95715 3.20556 9.14251 3.5145L12.1425 8.5145C12.3232 8.8157 12.6487 9 13 9H14.5109L19.3554 15.2287C20.1739 16.281 20.1868 17.7509 19.3869 18.8175C18.8286 19.5619 17.9524 20 17.0218 20H15V22H17.0218C18.5819 22 20.0509 21.2655 20.9869 20.0175C22.3279 18.2294 22.3063 15.765 20.9341 14.0008L17.0446 9H20V7H16.7662L18.8575 3.5145C19.0429 3.20556 19.0477 2.82081 18.8702 2.5073C18.6927 2.19379 18.3603 2 18 2H10ZM16.2338 4L14.4338 7H13.5662L11.7662 4H16.2338ZM4 15.5C4 13.0147 6.01472 11 8.5 11C10.9853 11 13 13.0147 13 15.5C13 17.9853 10.9853 20 8.5 20C6.01472 20 4 17.9853 4 15.5ZM8.5 9C4.91015 9 2 11.9101 2 15.5C2 19.0899 4.91015 22 8.5 22C12.0899 22 15 19.0899 15 15.5C15 11.9101 12.0899 9 8.5 9ZM7.5 12.5V15.5C7.5 15.7652 7.60536 16.0196 7.79289 16.2071L9.79289 18.2071L11.2071 16.7929L9.5 15.0858V12.5H7.5Z" fill="#2B2D34"/>
</svg>
