<svg width="24" height="24" viewBox="0 0 24 24" fill="none" xmlns="http://www.w3.org/2000/svg">
<path fill-rule="evenodd" clip-rule="evenodd" d="M4.72852 10.75C4.72852 6.88401 7.86252 3.75 11.7285 3.75C13.1046 3.75 14.3851 4.14605 15.4659 4.82998L16.5354 3.13995C15.1441 2.25952 13.4943 1.75 11.7285 1.75C6.75795 1.75 2.72852 5.77944 2.72852 10.75C2.72852 14.1964 5.01026 16.9503 7.07001 18.7526C8.12089 19.6721 9.16706 20.3908 9.94852 20.8792C10.3403 21.1241 10.6682 21.3127 10.9004 21.4413C11.0166 21.5056 11.1091 21.555 11.1738 21.589C11.2062 21.606 11.2317 21.6192 11.2498 21.6284L11.2713 21.6394L11.2777 21.6426L11.2807 21.6441C11.5622 21.7849 11.8945 21.7851 12.176 21.6443L12.1791 21.6427L12.1852 21.6397L12.2052 21.6295C12.2221 21.6208 12.2458 21.6086 12.2759 21.5928C12.3362 21.5612 12.4222 21.5154 12.5305 21.4557C12.7469 21.3364 13.053 21.1614 13.4203 20.9341C14.1531 20.4807 15.1391 19.8135 16.1472 18.9591L14.8541 17.4334C13.9409 18.2073 13.0408 18.817 12.3679 19.2334C12.1186 19.3876 11.9017 19.5146 11.7285 19.6128C11.5369 19.5041 11.2918 19.3603 11.0085 19.1833C10.29 18.7342 9.33614 18.0779 8.38702 17.2474C6.44677 15.5497 4.72852 13.3036 4.72852 10.75Z" fill="#2B2D34"/>
<path d="M16.3246 7.18201C16.9282 7.78559 17.407 8.50214 17.7336 9.29076C18.0603 10.0794 18.2284 10.9246 18.2284 11.7782C18.2284 12.6318 18.0603 13.477 17.7336 14.2656C17.407 15.0543 16.9282 15.7708 16.3246 16.3744L14.9104 14.9602C15.3283 14.5423 15.6597 14.0462 15.8859 13.5003C16.112 12.9543 16.2284 12.3691 16.2284 11.7782C16.2284 11.1873 16.112 10.6021 15.8859 10.0561C15.6597 9.51016 15.3283 9.01408 14.9104 8.59622L16.3246 7.18201Z" fill="#2B2D34"/>
<path d="M18.7995 4.65686C19.7281 5.58545 20.4646 6.68784 20.9672 7.90109C21.4697 9.11435 21.7284 10.4147 21.7284 11.7279C21.7284 13.0411 21.4697 14.3415 20.9672 15.5548C20.4646 16.768 19.7281 17.8704 18.7995 18.799L17.3853 17.3848C18.1281 16.6419 18.7174 15.76 19.1194 14.7894C19.5215 13.8188 19.7284 12.7785 19.7284 11.7279C19.7284 10.6774 19.5215 9.63707 19.1194 8.66646C18.7174 7.69586 18.1281 6.81394 17.3853 6.07107L18.7995 4.65686Z" fill="#2B2D34"/>
<path d="M14.711 11.7747C14.7045 12.5677 14.3866 13.3264 13.8258 13.8872L11.6886 11.7499L13.8606 9.64802C14.4121 10.2179 14.7175 10.9817 14.711 11.7747Z" fill="#2B2D34"/>
</svg>
