<svg width="24" height="24" viewBox="0 0 24 24" fill="none" xmlns="http://www.w3.org/2000/svg">
<path fill-rule="evenodd" clip-rule="evenodd" d="M5.70711 3.70709L4.41421 4.99998L22 5C22.5523 5 23 5.44771 23 6V20C23 20.2652 22.8946 20.5196 22.7071 20.7071C22.5196 20.8946 22.2652 21 22 21H2C1.73478 21 1.48043 20.8946 1.29289 20.7071C1.10536 20.5196 1 20.2652 1 20V11H3L3 15C3.52529 15 4.04543 15.1035 4.53073 15.3045C5.01604 15.5055 5.45699 15.8001 5.82843 16.1716C6.19986 16.543 6.4945 16.984 6.69552 17.4693C6.89654 17.9546 7 18.4747 7 19H17C17 18.4747 17.1035 17.9546 17.3045 17.4693C17.5055 16.984 17.8001 16.543 18.1716 16.1716C18.543 15.8001 18.984 15.5055 19.4693 15.3045C19.9546 15.1035 20.4747 15 21 15V11C20.4747 11 19.9546 10.8965 19.4693 10.6955C18.984 10.4945 18.543 10.1999 18.1716 9.82843C17.8001 9.45699 17.5055 9.01603 17.3045 8.53073C17.1035 8.04543 17 7.52529 17 7L4.41421 6.99998L5.70711 8.29288L4.29289 9.70709L1.29289 6.70709C0.902369 6.31657 0.902369 5.6834 1.29289 5.29288L4.29289 2.29288L5.70711 3.70709ZM4.84776 18.2346C4.94827 18.4773 5 18.7374 5 19H3L3 17C3.26264 17 3.52272 17.0517 3.76537 17.1522C4.00802 17.2527 4.2285 17.4001 4.41421 17.5858C4.59993 17.7715 4.74725 17.992 4.84776 18.2346ZM21 17C20.7374 17 20.4773 17.0517 20.2346 17.1522C19.992 17.2527 19.7715 17.4001 19.5858 17.5858C19.4001 17.7715 19.2528 17.992 19.1522 18.2346C19.0517 18.4773 19 18.7374 19 19H21L21 17ZM21 7L21 9C20.7374 9 20.4773 8.94827 20.2346 8.84776C19.992 8.74725 19.7715 8.59993 19.5858 8.41421C19.4001 8.22849 19.2528 8.00802 19.1522 7.76537C19.0517 7.52271 19 7.26264 19 7L21 7Z" fill="#2B2D34"/>
<path fill-rule="evenodd" clip-rule="evenodd" d="M7 13C7 14.2138 7.65829 15.2364 8.57157 15.9213C9.48455 16.606 10.7 17 12 17C13.3 17 14.5155 16.606 15.4284 15.9213C16.3417 15.2364 17 14.2138 17 13C17 11.7862 16.3417 10.7636 15.4284 10.0787C14.5155 9.39395 13.3 9 12 9C10.7 9 9.48455 9.39395 8.57157 10.0787C7.65829 10.7636 7 11.7862 7 13ZM12 15C11.0909 15 10.3063 14.7224 9.77157 14.3213C9.23714 13.9205 9 13.4431 9 13C9 12.5569 9.23714 12.0795 9.77157 11.6787C10.3063 11.2776 11.0909 11 12 11C12.9091 11 13.6937 11.2776 14.2284 11.6787C14.7629 12.0795 15 12.5569 15 13C15 13.4431 14.7629 13.9205 14.2284 14.3213C13.6937 14.7224 12.9091 15 12 15Z" fill="#2B2D34"/>
</svg>
