<svg width="24" height="24" viewBox="0 0 24 24" fill="none" xmlns="http://www.w3.org/2000/svg">
<path d="M15.9208 12C15.7737 11.0841 15.4267 10.2455 14.9213 9.57157C14.2364 8.65829 13.2138 8 12 8C10.7862 8 9.76364 8.65829 9.07868 9.57157C8.57326 10.2455 8.22627 11.0841 8.07919 12H10.1177C10.2355 11.5166 10.4341 11.0976 10.6787 10.7716C11.0795 10.2371 11.5569 10 12 10C12.4431 10 12.9205 10.2371 13.3213 10.7716C13.5659 11.0976 13.7645 11.5166 13.8823 12H15.9208Z" fill="#2B2D34"/>
<path fill-rule="evenodd" clip-rule="evenodd" d="M18 12V8C17.4747 8 16.9546 7.89654 16.4693 7.69552C15.984 7.4945 15.543 7.19986 15.1716 6.82843C14.8001 6.45699 14.5055 6.01604 14.3045 5.53073C14.1035 5.04543 14 4.52529 14 4H10C10 4.52529 9.89654 5.04543 9.69552 5.53073C9.4945 6.01604 9.19986 6.45699 8.82843 6.82843C8.45699 7.19986 8.01604 7.4945 7.53073 7.69552C7.04543 7.89654 6.52529 8 6 8L6 12H4L4 3C4 2.44772 4.44772 2 5 2H19C19.5523 2 20 2.44772 20 3V12H18ZM18 6V4H16C16 4.26264 16.0517 4.52272 16.1522 4.76537C16.2527 5.00802 16.4001 5.2285 16.5858 5.41421C16.7715 5.59993 16.992 5.74725 17.2346 5.84776C17.4773 5.94827 17.7374 6 18 6ZM6.76537 5.84776C6.52272 5.94827 6.26264 6 6 6V4H8C8 4.26264 7.94827 4.52272 7.84776 4.76537C7.74725 5.00802 7.59993 5.2285 7.41421 5.41421C7.2285 5.59993 7.00802 5.74725 6.76537 5.84776Z" fill="#2B2D34"/>
<path d="M5.7929 13.5858L2.29289 17.0858C2.10536 17.2733 2 17.5277 2 17.7929C2 18.0581 2.10536 18.3125 2.29289 18.5L5.79289 22L7.20711 20.5858L5.41421 18.7929H10.9497V16.7929H5.41421L7.20711 15L5.7929 13.5858Z" fill="#2B2D34"/>
<path d="M18.1568 13.5858L21.6568 17.0858C21.8444 17.2733 21.9497 17.5277 21.9497 17.7929C21.9497 18.0581 21.8444 18.3125 21.6568 18.5L18.1568 22L16.7426 20.5858L18.5355 18.7929H4.99997V16.7929H18.5355L16.7426 15L18.1568 13.5858Z" fill="#2B2D34"/>
</svg>
