<svg width="24" height="24" viewBox="0 0 24 24" fill="none" xmlns="http://www.w3.org/2000/svg">
<path d="M13.5 13C13.5 12.3096 12.9404 11.75 12.25 11.75C11.5596 11.75 11 12.3096 11 13C11 13.6904 11.5596 14.25 12.25 14.25C12.9404 14.25 13.5 13.6904 13.5 13Z" fill="#2B2D34"/>
<path fill-rule="evenodd" clip-rule="evenodd" d="M2 15C2 16.6569 3.34315 18 5 18H11V20H8V22H16V20H13V18H19C20.6569 18 22 16.6569 22 15V5C22 3.34315 20.6569 2 19 2H5C3.34315 2 2 3.34315 2 5V15ZM5 16C4.44772 16 4 15.5523 4 15L4 5C4 4.44772 4.44772 4 5 4L19 4C19.5523 4 20 4.44772 20 5V15C20 15.5523 19.5523 16 19 16H5Z" fill="#2B2D34"/>
</svg>
