<svg width="24" height="24" viewBox="0 0 24 24" fill="none" xmlns="http://www.w3.org/2000/svg">
<path fill-rule="evenodd" clip-rule="evenodd" d="M14 8.38197V7H12V5H15C19.2667 5 22 7.2 22 10C22 10.1075 21.9827 10.2143 21.9487 10.3162L20.9487 13.3162C20.8917 13.4871 20.7917 13.6346 20.6632 13.7485C20.7996 13.8557 20.9285 13.9735 21.0486 14.1011C21.5891 14.6754 21.9198 15.4153 21.9872 16.201C22.0546 16.9867 21.8546 17.7722 21.4197 18.4301C20.9849 19.0879 20.3406 19.5796 19.5913 19.8255C18.842 20.0714 18.0316 20.057 17.2915 19.7847C16.5514 19.5125 15.9249 18.9982 15.5137 18.3253C15.4491 18.2197 15.3904 18.111 15.3377 18H11C10.6212 18 10.275 17.786 10.1056 17.4472L9.31126 15.8586L8.92189 15.7612C8.97306 15.9994 9 16.2466 9 16.5C9 18.433 7.433 20 5.5 20C3.567 20 2 18.433 2 16.5C2 14.7368 3.30385 13.2781 5 13.0354V12.5352L2.4453 10.8321C2.1671 10.6466 2 10.3344 2 10V7C2 6.69206 2.14187 6.4013 2.38459 6.21179C2.6273 6.02229 2.94379 5.95517 3.24254 6.02986L7.24254 7.02986C7.41837 7.07382 7.57895 7.16473 7.70711 7.29289L9.41421 9H12.7639L14 8.38197ZM17.8308 15.1576L17.0001 16.4867C16.9976 16.7661 17.0732 17.042 17.2201 17.2823C17.3964 17.5707 17.6649 17.7911 17.9821 17.9078C18.2993 18.0245 18.6466 18.0306 18.9677 17.9252C19.2888 17.8199 19.5649 17.6091 19.7513 17.3272C19.9377 17.0452 20.0234 16.7086 19.9945 16.3719C19.9656 16.0351 19.8239 15.718 19.5923 15.4719C19.3606 15.2258 19.0526 15.0651 18.7183 15.016C18.4142 14.9713 18.1045 15.0211 17.8308 15.1576ZM16 9V7.04685C18.1241 7.255 19.2584 8.12439 19.7305 9.00001L18 9.00001L18 11L19.6126 11L19.2792 12H18C17.6552 12 17.3347 12.1776 17.152 12.47L14.9458 16H11.618L10.8944 14.5528C10.7639 14.2917 10.5257 14.1007 10.2425 14.0299L7 13.2192V12C7 11.6656 6.8329 11.3534 6.5547 11.1679L4 9.46482V8.28078L6.48875 8.90296L8.29289 10.7071C8.48043 10.8946 8.73478 11 9 11H13C13.1552 11 13.3084 10.9639 13.4472 10.8944L15.4472 9.89443C15.786 9.72504 16 9.37877 16 9ZM5.5 15C4.67157 15 4 15.6716 4 16.5C4 17.3284 4.67157 18 5.5 18C6.32843 18 7 17.3284 7 16.5C7 15.6716 6.32843 15 5.5 15Z" fill="#2B2D34"/>
</svg>
