<svg width="24" height="24" viewBox="0 0 24 24" fill="none" xmlns="http://www.w3.org/2000/svg">
<path d="M18 5C18 6.10457 17.1046 7 16 7C14.8954 7 14 6.10457 14 5C14 3.89543 14.8954 3 16 3C17.1046 3 18 3.89543 18 5Z" fill="#2B2D34"/>
<path fill-rule="evenodd" clip-rule="evenodd" d="M5 13C2.79086 13 1 14.7909 1 17C1 19.2091 2.79086 21 5 21C7.20914 21 9 19.2091 9 17C9 14.7909 7.20914 13 5 13ZM3 17C3 15.8954 3.89543 15 5 15C6.10457 15 7 15.8954 7 17C7 18.1046 6.10457 19 5 19C3.89543 19 3 18.1046 3 17Z" fill="#2B2D34"/>
<path fill-rule="evenodd" clip-rule="evenodd" d="M19 13C16.7909 13 15 14.7909 15 17C15 19.2091 16.7909 21 19 21C21.2091 21 23 19.2091 23 17C23 14.7909 21.2091 13 19 13ZM17 17C17 15.8954 17.8954 15 19 15C20.1046 15 21 15.8954 21 17C21 18.1046 20.1046 19 19 19C17.8954 19 17 18.1046 17 17Z" fill="#2B2D34"/>
<path d="M12.7071 6.79289C12.3166 6.40237 11.6834 6.40237 11.2929 6.79289L7.79289 10.2929C7.40237 10.6834 7.40237 11.3166 7.79289 11.7071L11 14.9142V20H13V14.5C13 14.2348 12.8946 13.9804 12.7071 13.7929L9.91421 11L12 8.91421L15.7929 12.7071L17.2071 11.2929L12.7071 6.79289Z" fill="#2B2D34"/>
</svg>
