<svg width="24" height="24" viewBox="0 0 24 24" fill="none" xmlns="http://www.w3.org/2000/svg">
<path fill-rule="evenodd" clip-rule="evenodd" d="M18 11C18 10.4478 17.5525 10.0002 17.0004 10C17.6281 9.16434 18 8.12561 18 7C18 4.23858 15.7614 2 13 2C11.004 2 9.28109 3.16963 8.47938 4.8609C7.79779 4.32182 6.93648 4 6 4C3.79086 4 2 5.79086 2 8C2 8.76544 2.215 9.48067 2.58791 10.0886C2.2412 10.2456 2 10.5946 2 11V20C2 20.5523 2.44772 21 3 21H17C17.5523 21 18 20.5523 18 20V19.1815L20.4405 20.8288C20.7471 21.0358 21.1428 21.0566 21.4693 20.883C21.7959 20.7095 22 20.3698 22 20V11C22 10.6302 21.7959 10.2905 21.4693 10.117C21.1428 9.94341 20.7471 9.96425 20.4405 10.1712L18 11.8185V11ZM13 4C11.3431 4 10 5.34315 10 7C10 8.65685 11.3431 10 13 10C14.6569 10 16 8.65685 16 7C16 5.34315 14.6569 4 13 4ZM18 14.2315V16.7685L20 18.1185V12.8815L18 14.2315ZM16 12H4V19H16V12ZM4 8C4 6.89543 4.89543 6 6 6C7.10457 6 8 6.89543 8 8C8 9.10457 7.10457 10 6 10C4.89543 10 4 9.10457 4 8Z" fill="#2B2D34"/>
</svg>
