<svg width="24" height="24" viewBox="0 0 24 24" fill="none" xmlns="http://www.w3.org/2000/svg">
<path fill-rule="evenodd" clip-rule="evenodd" d="M13 20V10H19C19.2652 10 19.5196 9.89464 19.7071 9.70711L21.7071 7.70711C22.0976 7.31658 22.0976 6.68342 21.7071 6.29289L19.7071 4.29289C19.5196 4.10536 19.2652 4 19 4H13V2H11V8H5C4.73478 8 4.48043 8.10536 4.29289 8.29289L2.29289 10.2929C1.90237 10.6834 1.90237 11.3166 2.29289 11.7071L4.29289 13.7071C4.48043 13.8946 4.73478 14 5 14H11V20H7V22H17V20H13ZM11 12V10H5.41421L4.41421 11L5.41421 12H11ZM18.5858 8H13V6H18.5858L19.5858 7L18.5858 8Z" fill="#2B2D34"/>
</svg>
