<svg width="24" height="24" viewBox="0 0 24 24" fill="none" xmlns="http://www.w3.org/2000/svg">
<path fill-rule="evenodd" clip-rule="evenodd" d="M17.1226 1.1337C17.6011 0.857864 18.2126 1.02213 18.4884 1.5006C20.7091 5.35255 22.7977 14.3336 18.5065 22.4667C18.2488 22.9552 17.6439 23.1422 17.1554 22.8845C16.667 22.6268 16.4799 22.0219 16.7376 21.5334C20.6388 14.1395 18.7149 5.89786 16.7557 2.49949C16.4799 2.02102 16.6442 1.40954 17.1226 1.1337ZM12.3266 3.14009C12.8016 2.85822 13.4151 3.01473 13.697 3.48967C15.5545 6.61955 17.2944 13.8889 13.7158 20.4774C13.4521 20.9627 12.845 21.1424 12.3597 20.8788C11.8744 20.6152 11.6947 20.0081 11.9583 19.5227C15.1267 13.6896 13.5619 7.1808 11.9771 4.51042C11.6952 4.03548 11.8517 3.42197 12.3266 3.14009ZM7.51372 5.19144C7.96812 4.87753 8.59096 4.99142 8.90487 5.44582C10.575 7.86337 12.1382 13.4701 8.92734 18.5486C8.63219 19.0154 8.01451 19.1546 7.5477 18.8594C7.0809 18.5643 6.94173 17.9466 7.23687 17.4798C9.91615 13.2421 8.59446 8.51523 7.25934 6.58259C6.94543 6.12819 7.05932 5.50535 7.51372 5.19144ZM3.37953 8.21587C3.81262 7.87316 4.44154 7.94642 4.78425 8.37951C5.84156 9.71563 6.829 12.7988 4.80998 15.5866C4.48603 16.0339 3.86081 16.1339 3.41351 15.81C2.96621 15.486 2.86622 14.8608 3.19017 14.4135C4.54469 12.5432 3.87979 10.4596 3.2159 9.62058C2.87318 9.18749 2.94645 8.55858 3.37953 8.21587Z" fill="#2B2D34"/>
</svg>
