<svg width="24" height="24" viewBox="0 0 24 24" fill="none" xmlns="http://www.w3.org/2000/svg">
<path d="M21.7071 6.70712L18.2071 10.2071L16.7929 8.79291L18.5858 7.00001L2 7.00001V5.00001H18.5858L16.7929 3.20712L18.2071 1.79291L21.7071 5.29291C22.0976 5.68343 22.0976 6.3166 21.7071 6.70712Z" fill="#2B2D34"/>
<path d="M4.65305 12.0621C5.04554 11.9169 5.48692 12.0315 5.75926 12.3492L10 17.2968V12H12V20C12 20.4185 11.7394 20.7927 11.3469 20.9379C10.9545 21.0831 10.5131 20.9685 10.2407 20.6508L6 15.7033V21H4V13C4 12.5815 4.26057 12.2073 4.65305 12.0621Z" fill="#2B2D34"/>
<path fill-rule="evenodd" clip-rule="evenodd" d="M14 15C14 13.3432 15.3431 12 17 12C18.6569 12 20 13.3432 20 15C20 16.6569 18.6569 18 17 18C15.3431 18 14 16.6569 14 15ZM17 14C16.4477 14 16 14.4477 16 15C16 15.5523 16.4477 16 17 16C17.5523 16 18 15.5523 18 15C18 14.4477 17.5523 14 17 14Z" fill="#2B2D34"/>
<path d="M20 21H14V19H20V21Z" fill="#2B2D34"/>
</svg>
