<svg width="24" height="24" viewBox="0 0 24 24" fill="none" xmlns="http://www.w3.org/2000/svg">
<path fill-rule="evenodd" clip-rule="evenodd" d="M18.9998 9C18.9998 7.14349 18.2623 5.36301 16.9495 4.05025C15.6367 2.7375 13.8563 2 11.9998 2C10.1432 2 8.36276 2.7375 7.05001 4.05025C5.73725 5.36301 4.9997 7.14349 4.9997 9V11.5858L3.7068 12.8787C2.53523 14.0503 2.53523 15.9497 3.7068 17.1213L4.29259 17.7071C4.48013 17.8946 4.73448 18 4.9997 18H7.99976C7.99976 19.0609 8.42118 20.0783 9.17133 20.8284C9.92147 21.5786 10.9389 22 11.9998 22C13.0606 22 14.078 21.5786 14.8282 20.8284C15.5783 20.0783 15.9998 19.0609 15.9998 18H18.9997C19.2649 18 19.5193 17.8946 19.7068 17.7071L20.2926 17.1213C21.4642 15.9497 21.4642 14.0503 20.2926 12.8787L18.9997 11.5858L18.9998 9ZM6.9997 12V9C6.9997 7.67392 7.52654 6.40215 8.46422 5.46447C9.40191 4.52678 10.6737 4 11.9998 4C13.3258 4 14.5976 4.52678 15.5353 5.46447C16.473 6.40215 16.9997 7.67392 16.9997 9V12C16.9997 12.2652 17.1051 12.5196 17.2926 12.7071L18.8784 14.2929C19.2689 14.6834 19.2689 15.3166 18.8784 15.7071L18.5855 16H5.41391L5.12102 15.7071C4.73049 15.3166 4.73049 14.6834 5.12102 14.2929L6.7068 12.7071C6.89434 12.5196 6.9997 12.2652 6.9997 12ZM9.99976 18C9.99976 18.5304 10.2105 19.0391 10.5855 19.4142C10.9606 19.7893 11.4693 20 11.9998 20C12.5302 20 13.0389 19.7893 13.414 19.4142C13.789 19.0391 13.9998 18.5304 13.9998 18H9.99976Z" fill="#2B2D34"/>
</svg>
