<svg width="24" height="24" viewBox="0 0 24 24" fill="none" xmlns="http://www.w3.org/2000/svg">
<path fill-rule="evenodd" clip-rule="evenodd" d="M10 2C8.34315 2 7 3.34315 7 5V6H3C2.44772 6 2 6.44772 2 7V11C2 11.5523 2.44772 12 3 12V21C3 21.5523 3.44772 22 4 22H20C20.5523 22 21 21.5523 21 21V12C21.5523 12 22 11.5523 22 11V7C22 6.44772 21.5523 6 21 6H17V5C17 3.34315 15.6569 2 14 2C13.2316 2 12.5308 2.28885 12 2.7639C11.4692 2.28885 10.7684 2 10 2ZM10 4C10.5523 4 11 4.44772 11 5V6H9V5C9 4.44772 9.44772 4 10 4ZM14 4C14.5523 4 15 4.44772 15 5V6H13V5C13 4.44772 13.4477 4 14 4ZM13 12H19V20H13V12ZM5 20V12H11V20H5ZM13 10V8H20V10H13ZM11 10V8H4V10H11Z" fill="#2B2D34"/>
</svg>
