<svg width="24" height="24" viewBox="0 0 24 24" fill="none" xmlns="http://www.w3.org/2000/svg">
<path d="M7 5C7 3.34315 8.34315 2 10 2C10.7684 2 11.4692 2.28885 12 2.7639C12.5308 2.28885 13.2316 2 14 2C15.6569 2 17 3.34315 17 5V6H21C21.5523 6 22 6.44772 22 7V9C22 9.55228 21.5523 10 21 10H13V6H15V5C15 4.44772 14.5523 4 14 4C13.4477 4 13 4.44772 13 5V6H11V5C11 4.44772 10.5523 4 10 4C9.44772 4 9 4.44772 9 5V6H11V10H3C2.44772 10 2 9.55228 2 9V7C2 6.44772 2.44772 6 3 6H7V5Z" fill="#2B2D34"/>
<path d="M3 12V21C3 21.5523 3.44772 22 4 22H11V12H3Z" fill="#2B2D34"/>
<path d="M13 22H20C20.5523 22 21 21.5523 21 21V12H13V22Z" fill="#2B2D34"/>
</svg>
