<svg width="24" height="24" viewBox="0 0 24 24" fill="none" xmlns="http://www.w3.org/2000/svg">
<path d="M11.2929 12.7071C11.4804 12.8946 11.7348 13 12 13C12.2652 13 12.5196 12.8946 12.7071 12.7071L16.7071 8.70711L15.2929 7.29289L13 9.58579L13 2H11L11 9.58579L8.70709 7.29289L7.29288 8.70711L11.2929 12.7071Z" fill="#2B2D34"/>
<path d="M3 5C3 4.44772 3.44772 4 4 4H9V6H5V15H19V6H15V4H20C20.5523 4 21 4.44772 21 5V16C21 16.5523 20.5523 17 20 17H4C3.44772 17 3 16.5523 3 16V5Z" fill="#2B2D34"/>
<path d="M1 20V19H23V20C23 20.5523 22.5523 21 22 21H2C1.44772 21 1 20.5523 1 20Z" fill="#2B2D34"/>
</svg>
