<svg width="24" height="24" viewBox="0 0 24 24" fill="none" xmlns="http://www.w3.org/2000/svg">
<path fill-rule="evenodd" clip-rule="evenodd" d="M14.5 1C14.0404 1 13.5852 1.09053 13.1606 1.26642C12.736 1.44231 12.3501 1.70012 12.0251 2.02513C11.7001 2.35013 11.4423 2.73597 11.2664 3.16061C11.0905 3.58525 11 4.04037 11 4.5V5H9.5C9.04037 5 8.58525 5.09053 8.16061 5.26642C7.73597 5.44231 7.35013 5.70012 7.02513 6.02513C6.70012 6.35013 6.44231 6.73597 6.26642 7.16061C6.09053 7.58525 6 8.04037 6 8.5V9H4C2.89543 9 2 9.89543 2 11V20C2 21.1046 2.89543 22 4 22H15C16.1046 22 17 21.1046 17 20V19H20C21.1046 19 22 18.1046 22 17V7C22 5.89543 21.1046 5 20 5H18V4.5C18 4.04037 17.9095 3.58525 17.7336 3.16061C17.5577 2.73597 17.2999 2.35013 16.9749 2.02513C16.6499 1.70012 16.264 1.44231 15.8394 1.26642C15.4148 1.09053 14.9596 1 14.5 1ZM8 9V8.5C8 8.30302 8.0388 8.10796 8.11418 7.92597C8.18956 7.74399 8.30005 7.57863 8.43934 7.43934C8.57863 7.30005 8.74399 7.18956 8.92597 7.11418C9.10796 7.0388 9.30302 7 9.5 7C9.69698 7 9.89204 7.0388 10.074 7.11418C10.256 7.18956 10.4214 7.30005 10.5607 7.43934C10.6999 7.57863 10.8104 7.74399 10.8858 7.92597C10.9612 8.10796 11 8.30302 11 8.5V9H8ZM11 11V13H13V11H15V20H4V11H6V13H8V11H11ZM13 9V8.5C13 8.04037 12.9095 7.58525 12.7336 7.16061C12.7111 7.10642 12.6874 7.05287 12.6623 7H20V17H17V11C17 9.89543 16.1046 9 15 9H13ZM16 5V4.5C16 4.30302 15.9612 4.10796 15.8858 3.92597C15.8104 3.74399 15.6999 3.57863 15.5607 3.43934C15.4214 3.30005 15.256 3.18956 15.074 3.11418C14.892 3.0388 14.697 3 14.5 3C14.303 3 14.108 3.0388 13.926 3.11418C13.744 3.18956 13.5786 3.30005 13.4393 3.43934C13.3001 3.57863 13.1896 3.74399 13.1142 3.92597C13.0388 4.10796 13 4.30302 13 4.5V5H16Z" fill="#2B2D34"/>
</svg>
