<svg width="24" height="24" viewBox="0 0 24 24" fill="none" xmlns="http://www.w3.org/2000/svg">
<path fill-rule="evenodd" clip-rule="evenodd" d="M8.59778 2.59269C9.67958 2.20061 10.8353 2 12 2C13.1647 2 14.3204 2.20061 15.4022 2.59269C16.484 2.98478 17.4749 3.56225 18.3154 4.29768C19.1561 5.03331 19.8312 5.91394 20.2949 6.89335C20.7588 7.87332 21 8.92942 21 10V11H20.9287C20.8399 11.3997 20.6697 11.7793 20.4262 12.1141L12.8087 22.5882C12.6206 22.8469 12.3199 23 12 23C11.6801 23 11.3794 22.8469 11.1913 22.5882L3.57379 12.1141C3.33026 11.7793 3.16011 11.3997 3.07134 11H3V10C3 8.92942 3.24122 7.87332 3.70512 6.89335C4.16876 5.91394 4.84391 5.03331 5.68464 4.29768C6.52513 3.56225 7.51597 2.98478 8.59778 2.59269ZM5.2365 11L9.59966 16.9994L8.10571 11.5215C8.0591 11.3506 8.02776 11.1761 8.01198 11H5.2365ZM10.0365 11L12 18.1994L13.9635 11L10.0365 11ZM15.988 11C15.9722 11.1761 15.9409 11.3506 15.8943 11.5215L14.4003 16.9994L18.7635 11H15.988ZM7.00165 5.80283C7.57387 5.30213 8.24655 4.88861 8.99086 4.58418C8.98033 4.60813 8.96988 4.63219 8.95953 4.65633C8.64511 5.39 8.40508 6.23764 8.24376 7.14643C8.13764 7.74418 8.06581 8.36705 8.02897 9H5.09824C5.18262 8.57352 5.32111 8.15403 5.51281 7.74908C5.85324 7.02994 6.35664 6.36721 7.00165 5.80283ZM10.213 7.496C10.1275 7.97744 10.067 8.48263 10.0328 9L13.9672 9C13.933 8.48263 13.8725 7.97744 13.787 7.496C13.6468 6.70623 13.4449 6.01052 13.2022 5.44417C12.9566 4.87122 12.6916 4.48237 12.4531 4.25189C12.2203 4.02688 12.0668 4 12 4C11.9332 4 11.7797 4.02688 11.5469 4.25189C11.3084 4.48237 11.0434 4.87122 10.7978 5.44417C10.5551 6.01052 10.3532 6.70623 10.213 7.496ZM15.7562 7.14643C15.8624 7.74418 15.9342 8.36705 15.971 9H18.9018C18.8174 8.57352 18.6789 8.15403 18.4872 7.74908C18.1468 7.02994 17.6434 6.36721 16.9983 5.80283C16.4261 5.30213 15.7535 4.88861 15.0091 4.58418C15.0197 4.60813 15.0301 4.63219 15.0405 4.65633C15.3549 5.39 15.5949 6.23764 15.7562 7.14643Z" fill="#2B2D34"/>
</svg>
