<svg width="24" height="24" viewBox="0 0 24 24" fill="none" xmlns="http://www.w3.org/2000/svg">
<path fill-rule="evenodd" clip-rule="evenodd" d="M15.1182 7.45361C14.5342 6.87809 13.7703 6.59033 12.8267 6.59033H9.00537V15.75H10.9224V12.8618H12.7314C13.7005 12.8618 14.4876 12.5741 15.0928 11.9985C15.6979 11.4188 16.0005 10.6613 16.0005 9.72607C16.0005 8.78662 15.7064 8.02913 15.1182 7.45361ZM12.3125 11.3638H10.9224V8.10742H12.3188C12.869 8.10742 13.2943 8.24707 13.5947 8.52637C13.8994 8.8099 14.0518 9.21191 14.0518 9.73242C14.0518 10.2529 13.8994 10.6549 13.5947 10.9385C13.29 11.222 12.8626 11.3638 12.3125 11.3638Z" fill="#2B2D34"/>
<path fill-rule="evenodd" clip-rule="evenodd" d="M12 2C7.02944 2 3 6.02944 3 11C3 14.3868 4.96368 17.2529 6.91789 19.2071C7.90756 20.1968 8.93174 20.9907 9.78487 21.5427C10.2107 21.8182 10.6063 22.0415 10.9442 22.2002C11.1127 22.2792 11.2794 22.3482 11.437 22.3993C11.5772 22.4447 11.7809 22.5 12 22.5C12.2191 22.5 12.4228 22.4447 12.563 22.3993C12.7206 22.3482 12.8873 22.2792 13.0558 22.2002C13.3937 22.0415 13.7893 21.8182 14.2151 21.5427C15.0683 20.9907 16.0924 20.1968 17.0821 19.2071C19.0363 17.2529 21 14.3868 21 11C21 6.02944 16.9706 2 12 2ZM5 11C5 7.13401 8.13401 4 12 4C15.866 4 19 7.13401 19 11C19 13.6132 17.4637 15.9971 15.6679 17.7929C14.7826 18.6782 13.8692 19.3843 13.1286 19.8636C12.7576 20.1036 12.4422 20.2788 12.206 20.3897C12.1207 20.4297 12.0521 20.4583 12 20.4778C11.9479 20.4583 11.8794 20.4297 11.794 20.3897C11.5578 20.2788 11.2424 20.1036 10.8714 19.8636C10.1308 19.3843 9.21744 18.6782 8.33211 17.7929C6.53632 15.9971 5 13.6132 5 11ZM11.9067 20.5081L11.9112 20.5071C11.9082 20.5078 11.9067 20.5081 11.9067 20.5081ZM12.0933 20.5081L12.0888 20.5071L12.091 20.5076L12.0933 20.5081Z" fill="#2B2D34"/>
</svg>
