<svg width="24" height="24" viewBox="0 0 24 24" fill="none" xmlns="http://www.w3.org/2000/svg">
<path d="M9.00001 5V2H7.00001V4.76393L4.10558 10.5528C3.93619 10.8916 3.97274 11.297 4.20001 11.6C5.65076 13.5343 6.32264 14.9137 6.65486 16.2425C6.99448 17.601 7.00001 18.9717 7.00001 21C7.00001 21.5523 7.44772 22 8.00001 22H12C12.5523 22 13 21.5523 13 21V13.7324C13.5978 13.3866 14 12.7403 14 12C14 10.8954 13.1046 10 12 10C10.8954 10 10 10.8954 10 12C10 12.7403 10.4022 13.3866 11 13.7324V20H8.99829C8.98934 18.4609 8.93413 17.1134 8.59515 15.7575C8.21172 14.2237 7.48265 12.7325 6.16767 10.9007L8.89443 5.44721C8.96386 5.30836 9.00001 5.15525 9.00001 5Z" fill="#2B2D34"/>
<path d="M17 2V4.76393L19.8944 10.5528C20.0638 10.8916 20.0273 11.297 19.8 11.6C18.3493 13.5343 17.6774 14.9137 17.3452 16.2425C17.0056 17.601 17.0001 18.9717 17.0001 21C17.0001 21.5523 16.5524 22 16.0001 22H15.0001V20H15.0018C15.0107 18.4609 15.0659 17.1134 15.4049 15.7575C15.7883 14.2237 16.5174 12.7325 17.8323 10.9007L15.1056 5.44721C15.0361 5.30836 15 5.15525 15 5V2H17Z" fill="#2B2D34"/>
</svg>
