<svg width="24" height="24" viewBox="0 0 24 24" fill="none" xmlns="http://www.w3.org/2000/svg">
<path fill-rule="evenodd" clip-rule="evenodd" d="M6 7C6 4.23858 8.23858 2 11 2C13.7614 2 16 4.23858 16 7C16 9.76142 13.7614 12 11 12C8.23858 12 6 9.76142 6 7ZM11 4C9.34315 4 8 5.34315 8 7C8 8.65685 9.34315 10 11 10C12.6569 10 14 8.65685 14 7C14 5.34315 12.6569 4 11 4Z" fill="#2B2D34"/>
<path d="M3 22C3 17.5983 6.08967 13 11.5001 13C12.6208 13 13.6572 13.2015 14.5941 13.5691L13.8636 15.4309C13.1657 15.1571 12.3776 15 11.5001 15C7.47308 15 5 18.4017 5 22H3Z" fill="#2B2D34"/>
<path d="M17.9991 15H20.001V17.2768L22.0068 16.1317L23 17.8682L21.0175 19L23 20.1318L22.0067 21.8683L20.001 20.7232V23H17.9991V20.7232L15.9933 21.8682L15.0001 20.1317L16.9825 19L15 17.8683L15.9932 16.1318L17.9991 17.2769V15Z" fill="#2B2D34"/>
</svg>
