<svg width="24" height="24" viewBox="0 0 24 24" fill="none" xmlns="http://www.w3.org/2000/svg">
<path fill-rule="evenodd" clip-rule="evenodd" d="M16.7804 2.0769C16.4322 2.00764 15.9449 1.99513 15.6183 1.99283C15.4394 1.99157 15.2776 1.99351 15.1606 1.99575C15.1019 1.99687 15.054 1.99808 15.0204 1.99902L14.9808 2.0002L14.9713 2.00052L14.9698 2.00056L14.9679 2.00062C14.6176 2.01153 14.2973 2.1479 14.0671 2.26634C13.8132 2.39692 13.5462 2.57142 13.2775 2.76763C12.7387 3.1611 12.1117 3.70204 11.4438 4.3236C10.1038 5.57065 8.52136 7.21543 7.01602 8.84259C5.50763 10.4731 4.06359 12.1001 2.99751 13.3184C2.46421 13.9279 2.0249 14.4357 1.71871 14.7915C1.5656 14.9694 1.44574 15.1093 1.36401 15.2049L1.27063 15.3143L1.23828 15.3523C1.23828 15.3523 1.2381 15.3525 2.00007 16.0001C2.76204 16.6477 2.76243 16.6472 2.76243 16.6472L2.79274 16.6116L2.88418 16.5045C2.96456 16.4105 3.08299 16.2723 3.23456 16.0962C3.53774 15.7439 3.97344 15.2402 4.50264 14.6354C4.64237 14.4758 4.78858 14.3091 4.94055 14.1363C5.12 14.46 5.32357 14.7707 5.54991 15.0657C6.14949 15.8471 6.8971 16.5027 7.75006 16.9952C8.60302 17.4876 9.54462 17.8073 10.5211 17.9358C10.6804 17.9568 10.8402 17.9726 11.0001 17.9833V20H4.00006V22H20.0001V20H13.0001V17.8484C13.1479 17.8183 13.2951 17.7836 13.4412 17.7444C14.3926 17.4895 15.2844 17.0497 16.0658 16.4501C16.8472 15.8506 17.5028 15.1029 17.9953 14.25C18.4877 13.397 18.8073 12.4554 18.9359 11.4789C19.0517 10.599 19.0104 9.70636 18.8146 8.84232C19.0047 8.65403 19.1762 8.44645 19.3259 8.22232C19.5765 7.8473 19.761 7.43388 19.8731 7H22.0001V5H19.873C19.8265 4.81973 19.7673 4.64238 19.6956 4.46931C19.4439 3.86158 19.0461 3.32531 18.5376 2.908C18.0292 2.4907 17.4256 2.20523 16.7804 2.0769ZM6.38154 12.5126C6.56923 12.9899 6.82314 13.4396 7.13661 13.8482C7.57631 14.4212 8.12455 14.902 8.75006 15.2631C9.37556 15.6243 10.0661 15.8587 10.7822 15.9529C11.4983 16.0472 12.2259 15.9995 12.9236 15.8126C13.6212 15.6256 14.2752 15.3031 14.8482 14.8634C15.4213 14.4237 15.9021 13.8755 16.2632 13.25C16.6243 12.6245 16.8587 11.934 16.953 11.2179C17.0115 10.7737 17.0153 10.325 16.9652 9.88186C16.6507 9.96006 16.3266 10 16.0001 10L14.0001 10V8L16.0001 8.00004C16.329 8.00004 16.6528 7.91893 16.9429 7.76389C17.2329 7.60884 17.4803 7.38466 17.663 7.11118C17.8457 6.83771 17.9582 6.5234 17.9904 6.19608C18.0227 5.86876 17.9737 5.53854 17.8478 5.23468C17.722 4.93081 17.5231 4.66268 17.2689 4.45402C17.0146 4.24537 16.7128 4.10264 16.3903 4.03847C16.2546 4.01149 15.9493 3.99521 15.6042 3.99278C15.4473 3.99167 15.3035 3.99338 15.1989 3.99539C15.1511 3.9963 15.1119 3.99727 15.0838 3.99804C15.0656 4.00499 15.0323 4.01891 14.9819 4.04484C14.8549 4.11017 14.6805 4.21964 14.457 4.38283C14.0115 4.70817 13.4509 5.1878 12.8063 5.78769C11.5213 6.98353 9.97879 8.58515 8.48412 10.2008C7.75681 10.987 7.04391 11.7731 6.38154 12.5126Z" fill="#2B2D34"/>
</svg>
