<svg width="24" height="24" viewBox="0 0 24 24" fill="none" xmlns="http://www.w3.org/2000/svg">
<path d="M6 4H14C17.3137 4 20 6.68629 20 10C20 13.3137 17.3137 16 14 16H13V18H14C18.4183 18 22 14.4183 22 10C22 5.58172 18.4183 2 14 2H8C6.89543 2 6 2.89543 6 4Z" fill="#2B2D34"/>
<path fill-rule="evenodd" clip-rule="evenodd" d="M5 19C5 18.4477 5.44771 18 6 18H7V16H6C4.34314 16 3 17.3431 3 19C3 20.6569 4.34314 22 6 22H16V20H11L11 14.9402C12.8368 14.7163 14.3769 13.8758 15.4977 12.6138C16.8058 11.1408 17.5 9.14482 17.5 7C17.5 6.44772 17.0523 6 16.5 6H3.5C2.94772 6 2.5 6.44772 2.5 7C2.5 9.14482 3.19415 11.1408 4.5023 12.6138C5.57371 13.8202 7.02833 14.6415 8.75903 14.907C8.83877 14.9193 8.9191 14.9303 9 14.9402V20H6C5.44771 20 5 19.5523 5 19ZM5.9977 11.2857C5.24329 10.4362 4.73653 9.30223 4.5647 8H15.4353C15.2635 9.30223 14.7567 10.4362 14.0023 11.2857C13.071 12.3344 11.7201 13 10 13C8.27989 13 6.92904 12.3344 5.9977 11.2857Z" fill="#2B2D34"/>
</svg>
