<svg width="24" height="24" viewBox="0 0 24 24" fill="none" xmlns="http://www.w3.org/2000/svg">
<path fill-rule="evenodd" clip-rule="evenodd" d="M8.20265 9.80322L9.73344 8.27243C10.0579 7.94796 10.1199 7.4443 9.88383 7.05083L7.94449 3.8186C7.60978 3.26073 6.83992 3.16596 6.37989 3.62598L3.85817 6.14771C3.4898 6.51608 3.28031 7.01074 3.33624 7.52576C3.51161 9.14073 4.28924 12.9085 7.72429 16.2816C11.1386 19.6342 14.8497 20.4546 16.4616 20.6553C16.9866 20.7207 17.4951 20.5108 17.8713 20.1346L20.3799 17.626C20.8399 17.166 20.7451 16.3961 20.1873 16.0614L16.955 14.122C16.5616 13.886 16.0579 13.948 15.7334 14.2724L14.2027 15.8032L13.5615 15.4905C13.0014 15.2173 12.0828 14.6129 10.7379 13.268C9.393 11.9231 8.78859 11.0045 8.51537 10.4443L8.20265 9.80322Z" fill="#2B2D34"/>
</svg>
