<svg width="24" height="24" viewBox="0 0 24 24" fill="none" xmlns="http://www.w3.org/2000/svg">
<path fill-rule="evenodd" clip-rule="evenodd" d="M3 4C2.44772 4 2 4.44772 2 5V19C2 19.5523 2.44772 20 3 20H21C21.5523 20 22 19.5523 22 19V5C22 4.44772 21.5523 4 21 4H3ZM4 13C4 13.342 4.05846 13.6801 4.17157 14H9.82843C9.94154 13.6801 10 13.342 10 13C10 12.4734 9.86138 11.9561 9.59808 11.5C9.33477 11.0439 8.95606 10.6652 8.5 10.4019C8.04394 10.1386 7.52661 10 7 10C6.47339 10 5.95606 10.1386 5.5 10.4019C5.04394 10.6652 4.66523 11.0439 4.40192 11.5C4.13862 11.9561 4 12.4734 4 13ZM12 13C12 13.3373 11.9659 13.6722 11.899 14H20V10C19.8687 10 19.7386 10.0259 19.6173 10.0761C19.496 10.1264 19.3858 10.2 19.2929 10.2929C19.2 10.3858 19.1264 10.496 19.0761 10.6173C19.0259 10.7386 19 10.8687 19 11C19 11.5523 18.5523 12 18 12C17.4477 12 17 11.5523 17 11C17 10.8687 16.9741 10.7386 16.9239 10.6173C16.8736 10.496 16.8 10.3858 16.7071 10.2929C16.6142 10.2 16.504 10.1264 16.3827 10.0761C16.2614 10.0259 16.1313 10 16 10C15.8687 10 15.7386 10.0259 15.6173 10.0761C15.496 10.1264 15.3858 10.2 15.2929 10.2929C15.2 10.3858 15.1264 10.496 15.0761 10.6173C15.0259 10.7386 15 10.8687 15 11H13C13 10.606 13.0776 10.2159 13.2284 9.85195C13.3791 9.48797 13.6001 9.15726 13.8787 8.87868C14.1573 8.6001 14.488 8.37913 14.8519 8.22836C15.2159 8.0776 15.606 8 16 8C16.394 8 16.7841 8.0776 17.1481 8.22836C17.4605 8.35779 17.7485 8.53898 18 8.76393C18.2515 8.53898 18.5395 8.35779 18.8519 8.22836C19.2159 8.0776 19.606 8 20 8V6H4V9C4.15943 8.88042 4.32635 8.77013 4.5 8.66987C5.2601 8.23103 6.12232 8 7 8C7.87768 8 8.7399 8.23103 9.5 8.66987C10.2601 9.10871 10.8913 9.7399 11.3301 10.5C11.769 11.2601 12 12.1223 12 13ZM4 16V18H20V16H4Z" fill="#2B2D34"/>
</svg>
