<svg width="24" height="24" viewBox="0 0 24 24" fill="none" xmlns="http://www.w3.org/2000/svg">
<path d="M10.9605 3.48L6.66504 1L5.66504 2.73205L7.70159 3.90785C6.90884 4.18483 6.14997 4.562 5.4443 5.03352C3.79981 6.13233 2.51809 7.69412 1.76121 9.52138C1.00433 11.3486 0.8063 13.3593 1.19215 15.2991C1.578 17.2389 2.53041 19.0208 3.92894 20.4193C5.32746 21.8178 7.10929 22.7702 9.0491 23.1561C10.9889 23.5419 12.9996 23.3439 14.8268 22.587C16.6541 21.8301 18.2159 20.5484 19.3147 18.9039C20.4135 17.2594 21 15.326 21 13.3482C21 12.7959 20.5523 12.3482 20 12.3482H12V10.3482H10V13.3482C10 13.9005 10.4477 14.3482 11 14.3482H18.9373C18.7826 15.5761 18.3444 16.7562 17.6518 17.7928C16.7727 19.1084 15.5233 20.1338 14.0615 20.7393C12.5997 21.3448 10.9911 21.5032 9.43928 21.1945C7.88743 20.8858 6.46197 20.1239 5.34315 19.0051C4.22433 17.8862 3.4624 16.4608 3.15372 14.9089C2.84504 13.3571 3.00347 11.7486 3.60897 10.2867C4.21447 8.82494 5.23985 7.57551 6.55544 6.69646C7.15952 6.29283 7.81232 5.97561 8.49493 5.75054L7.0945 8.17615L8.82655 9.17615L11.3265 4.84602C11.6027 4.36773 11.4388 3.75614 10.9605 3.48Z" fill="#2B2D34"/>
<path d="M22.7072 3.05533L14.7072 11.0553L13.293 9.64111L21.293 1.64111L22.7072 3.05533Z" fill="#2B2D34"/>
<path d="M14.75 1.84814C13.7835 1.84814 13 2.63165 13 3.59814C13 4.56464 13.7835 5.34814 14.75 5.34814C15.7165 5.34814 16.5 4.56464 16.5 3.59814C16.5 2.63165 15.7165 1.84814 14.75 1.84814Z" fill="#2B2D34"/>
<path d="M21.25 7.34814C20.2835 7.34814 19.5 8.13165 19.5 9.09814C19.5 10.0646 20.2835 10.8481 21.25 10.8481C22.2165 10.8481 23 10.0646 23 9.09814C23 8.13165 22.2165 7.34814 21.25 7.34814Z" fill="#2B2D34"/>
</svg>
