<svg width="24" height="24" viewBox="0 0 24 24" fill="none" xmlns="http://www.w3.org/2000/svg">
<path d="M14.7072 10.7072L22.7072 2.70718L21.293 1.29297L13.293 9.29297L14.7072 10.7072Z" fill="#2B2D34"/>
<path d="M13 3.25C13 2.2835 13.7835 1.5 14.75 1.5C15.7165 1.5 16.5 2.2835 16.5 3.25C16.5 4.2165 15.7165 5 14.75 5C13.7835 5 13 4.2165 13 3.25Z" fill="#2B2D34"/>
<path fill-rule="evenodd" clip-rule="evenodd" d="M11 3C9.02219 3 7.08879 3.58649 5.4443 4.6853C3.79981 5.78412 2.51809 7.3459 1.76121 9.17317C1.00433 11.0004 0.8063 13.0111 1.19215 14.9509C1.578 16.8907 2.53041 18.6725 3.92894 20.0711C5.32746 21.4696 7.10929 22.422 9.0491 22.8079C10.9889 23.1937 12.9996 22.9957 14.8268 22.2388C16.6541 21.4819 18.2159 20.2002 19.3147 18.5557C20.4135 16.9112 21 14.9778 21 13C21 12.4477 20.5523 12 20 12H12V4C12 3.44772 11.5523 3 11 3ZM6.55544 6.34824C7.59203 5.65562 8.77211 5.21744 10 5.06274V13C10 13.2652 10.1054 13.5196 10.2929 13.7071C10.4804 13.8946 10.7348 14 11 14H18.9373C18.7826 15.2279 18.3444 16.408 17.6518 17.4446C16.7727 18.7602 15.5233 19.7855 14.0615 20.391C12.5997 20.9965 10.9911 21.155 9.43928 20.8463C7.88743 20.5376 6.46197 19.7757 5.34315 18.6569C4.22433 17.538 3.4624 16.1126 3.15372 14.5607C2.84504 13.0089 3.00347 11.4003 3.60897 9.93853C4.21447 8.47672 5.23985 7.22729 6.55544 6.34824Z" fill="#2B2D34"/>
<path d="M19.5 8.75C19.5 7.7835 20.2835 7 21.25 7C22.2165 7 23 7.7835 23 8.75C23 9.7165 22.2165 10.5 21.25 10.5C20.2835 10.5 19.5 9.7165 19.5 8.75Z" fill="#2B2D34"/>
</svg>
