<svg width="24" height="24" viewBox="0 0 24 24" fill="none" xmlns="http://www.w3.org/2000/svg">
<path fill-rule="evenodd" clip-rule="evenodd" d="M8 6C8 3.79086 9.79086 2 12 2C14.2091 2 16 3.79086 16 6C16 7.86384 14.7252 9.42994 13 9.87398V18H11V9.87398C9.27477 9.42994 8 7.86384 8 6ZM12 4C10.8954 4 10 4.89543 10 6C10 7.10457 10.8954 8 12 8C13.1046 8 14 7.10457 14 6C14 4.89543 13.1046 4 12 4Z" fill="#2B2D34"/>
<path d="M9.25094 16.1926C7.58385 16.4351 6.30513 16.8761 5.5738 17.3668C5.21103 17.6102 5.06887 17.8083 5.02225 17.9139C5.00163 17.9606 4.9997 17.988 5.00002 18.0027C5.00034 18.0176 5.00363 18.0488 5.02962 18.102C5.08851 18.2223 5.25213 18.4266 5.62743 18.6684C5.99352 18.9043 6.50365 19.1384 7.15785 19.3442C8.46744 19.7563 10.1625 19.9953 11.9468 19.9999C13.7308 20.0046 15.436 19.7746 16.7638 19.3686C17.427 19.1657 17.949 18.9332 18.3279 18.6968C18.7161 18.4545 18.895 18.2453 18.9633 18.1158C18.9939 18.0579 18.9989 18.0233 18.9998 18.0075C19.0007 17.9924 18.9996 17.9676 18.9826 17.9254C18.9438 17.8292 18.8165 17.637 18.4673 17.3948C17.7617 16.9055 16.5052 16.4584 14.8471 16.2072L15.1467 14.2297C16.9407 14.5015 18.5418 15.0126 19.6071 15.7514C20.1434 16.1233 20.602 16.5935 20.8375 17.1774C21.0888 17.8005 21.045 18.4567 20.7319 19.0496C20.4387 19.605 19.9432 20.0462 19.3868 20.3935C18.821 20.7465 18.1281 21.0427 17.3487 21.2811C15.7911 21.7575 13.8807 22.005 11.9415 21.9999C10.0027 21.9948 8.10015 21.7374 6.55755 21.252C5.78566 21.0091 5.10068 20.7082 4.54418 20.3497C3.99688 19.997 3.51041 19.5475 3.23324 18.9812C2.93673 18.3753 2.9226 17.7178 3.1926 17.1062C3.44554 16.5332 3.91401 16.072 4.45945 15.706C5.54455 14.9779 7.15888 14.4759 8.96307 14.2134L9.25094 16.1926Z" fill="#2B2D34"/>
</svg>
