<svg width="24" height="24" viewBox="0 0 24 24" fill="none" xmlns="http://www.w3.org/2000/svg">
<path fill-rule="evenodd" clip-rule="evenodd" d="M10.0001 2C7.79092 2 6.00006 3.79086 6.00006 6C6.00006 6.54845 6.11092 7.07238 6.31153 7.54948C4.06486 10.6419 3.81279 14.7477 5.97751 17.6084L1.79297 21.7929L3.20718 23.2071L7.39161 19.0227C10.6414 21.4835 15.49 20.8237 18.6569 17.6568C22.08 14.2338 22.5739 8.84595 19.364 5.63601C17.6961 3.96815 15.4113 3.29939 13.1436 3.52651C12.4121 2.59804 11.2764 2 10.0001 2ZM8.00006 6C8.00006 4.89543 8.89549 4 10.0001 4C10.767 4 11.4347 4.43136 11.771 5.06939C11.917 5.34631 12.0001 5.66198 12.0001 6C12.0001 7.10457 11.1046 8 10.0001 8C9.30413 8 8.69057 7.64537 8.33086 7.10231C8.12182 6.78672 8.00006 6.4091 8.00006 6ZM6.94496 10.5307C7.1165 10.0795 7.33631 9.63468 7.60516 9.20392C8.27238 9.70336 9.10148 10 10.0001 10C12.2092 10 14.0001 8.20914 14.0001 6C14.0001 5.82499 13.9888 5.65241 13.9668 5.48301C15.4851 5.4746 16.9043 6.00477 17.9498 7.05023C20.2072 9.30763 20.068 13.4173 17.2427 16.2426C16.4043 17.081 15.4527 17.6829 14.4701 18.0558L6.94496 10.5307ZM6.48416 12.8983C6.46356 14.4396 6.99564 15.8951 8.0503 16.9497C9.10346 18.0029 10.5598 18.5344 12.1007 18.5149L6.48416 12.8983Z" fill="#2B2D34"/>
</svg>
