<svg width="24" height="24" viewBox="0 0 24 24" fill="none" xmlns="http://www.w3.org/2000/svg">
<path d="M17 3H13V1H17V3Z" fill="#2B2D34"/>
<path fill-rule="evenodd" clip-rule="evenodd" d="M4.93774 6.23603C5.35251 5.62374 6.02354 5 7.00003 5H17C17.9765 5 18.6475 5.62374 19.0623 6.23603C19.4804 6.85312 19.7655 7.6312 19.9648 8.36188C20.2791 9.5145 20.4298 10.7418 20.4801 11.4972C20.6313 11.6272 20.8115 11.7956 20.9933 11.9977C21.4291 12.4819 22 13.2986 22 14.3333V14.9768C22.0004 14.9924 22.0004 15.008 22 15.0235V21C22 21.5523 21.5523 22 21 22H17C16.4477 22 16 21.5523 16 21V20H8.00003V21C8.00003 21.5523 7.55232 22 7.00003 22H3.00003C2.44775 22 2.00003 21.5523 2.00003 21V15.0235C1.99967 15.008 1.99966 14.9924 2.00003 14.9768V14.3333C2.00003 13.2986 2.57099 12.4819 3.00674 11.9977C3.1886 11.7956 3.36875 11.6272 3.51999 11.4972C3.57022 10.7418 3.72092 9.5145 4.03527 8.36188C4.23454 7.6312 4.51971 6.85312 4.93774 6.23603ZM19.9982 14.2799L17.6838 15.0513C17.1599 15.226 16.8767 15.7923 17.0514 16.3163C17.226 16.8402 17.7923 17.1234 18.3163 16.9487L20 16.3875V20H18V18H6.00003V20H4.00003V16.3875L5.6838 16.9487C6.20774 17.1234 6.77406 16.8402 6.94871 16.3163C7.12336 15.7923 6.8402 15.226 6.31625 15.0513L4.0019 14.2799C4.02166 13.9934 4.19764 13.6642 4.49332 13.3356C4.6145 13.201 4.73762 13.087 4.84002 13H19.16C19.2624 13.087 19.3856 13.201 19.5067 13.3356C19.8024 13.6642 19.9784 13.9934 19.9982 14.2799ZM5.5732 11H18.4269C18.3579 10.3928 18.2347 9.61952 18.0353 8.88812C17.8595 8.2438 17.6447 7.70938 17.4065 7.35772C17.165 7.00126 17.0235 7 17 7H7.00003C6.97652 7 6.83505 7.00126 6.59357 7.35772C6.35535 7.70938 6.14052 8.2438 5.96479 8.88812C5.76532 9.61952 5.64218 10.3928 5.5732 11Z" fill="#2B2D34"/>
<path d="M7.00003 3H11V1H7.00003V3Z" fill="#2B2D34"/>
</svg>
