<svg width="24" height="24" viewBox="0 0 24 24" fill="none" xmlns="http://www.w3.org/2000/svg">
<path d="M12 9C12.8284 9 13.5 8.32843 13.5 7.5C13.5 6.67157 12.8284 6 12 6C11.1716 6 10.5 6.67157 10.5 7.5C10.5 8.32843 11.1716 9 12 9Z" fill="#2B2D34"/>
<path d="M23.81 8.49L20.67 4.17C20.55 4.01 20.38 3.88 20.19 3.82L12.33 1.06C12.12 0.98 11.88 0.98 11.67 1.06L3.80997 3.82C3.61997 3.89 3.44997 4.01 3.32997 4.17L0.189974 8.49C-0.0900259 8.87 -0.0600259 9.4 0.259974 9.75L3.99997 13.89V18.09C3.99997 18.25 4.03997 18.4 4.10997 18.55C4.19997 18.73 6.44997 23 12 23C17.55 23 19.8 18.73 19.89 18.54C19.96 18.4 20 18.24 20 18.08V13.88L23.74 9.75C24.06 9.4 24.09 8.87 23.81 8.49ZM18 14.3C17.14 14.56 15.24 15 12 15C8.76997 15 6.85997 14.57 5.99997 14.3V12.94C7.09997 12.61 9.44997 12 12 12C14.55 12 16.9 12.61 18 12.95V14.3ZM12 21C8.24997 21 6.44997 18.54 5.99997 17.82V16.37C7.17997 16.67 9.12997 17 12 17C14.87 17 16.82 16.67 18 16.38V17.83C17.55 18.54 15.74 21 12 21ZM19.55 11.4C19.49 11.36 19.42 11.31 19.35 11.29C19.21 11.23 15.87 10 12 10C8.12997 10 4.78997 11.23 4.64997 11.29C4.57997 11.32 4.50997 11.36 4.44997 11.4L2.28997 9.01L4.76997 5.6L12 3.06L19.23 5.6L21.71 9.01L19.55 11.4Z" fill="#2B2D34"/>
</svg>
