<svg width="24" height="24" viewBox="0 0 24 24" fill="none" xmlns="http://www.w3.org/2000/svg">
<path d="M16.4777 6.04592C16.3326 5.57608 15.6675 5.57608 15.5223 6.04592L15.1646 7.20336C15.0999 7.41287 14.9062 7.55574 14.6869 7.55574H13.4782C12.9999 7.55574 12.7946 8.16273 13.1746 8.45307L14.195 9.23256C14.3615 9.35977 14.4311 9.57731 14.3692 9.77751L13.9897 11.0054C13.846 11.4705 14.3841 11.8459 14.771 11.5504L15.6965 10.8433C15.8757 10.7065 16.1244 10.7065 16.3036 10.8433L17.2291 11.5504C17.6159 11.8459 18.154 11.4705 18.0103 11.0054L17.6309 9.77751C17.569 9.57731 17.6385 9.35977 17.805 9.23256L18.8254 8.45307C19.2055 8.16273 19.0001 7.55574 18.5219 7.55574H17.3131C17.0938 7.55574 16.9002 7.41287 16.8354 7.20337L16.4777 6.04592Z" fill="#2B2D34"/>
<path fill-rule="evenodd" clip-rule="evenodd" d="M16.692 1.27809C16.6968 1.28224 16.7099 1.29336 16.7313 1.3094C16.7763 1.34318 16.8567 1.39785 16.9722 1.4556C17.2 1.56946 17.5728 1.70003 18.1 1.70003C18.6488 1.70003 19.2337 1.55971 19.7088 1.40134C19.9404 1.32416 20.1329 1.24708 20.2655 1.19026C20.3315 1.16195 20.382 1.13897 20.4143 1.12392C20.4304 1.11641 20.4418 1.1109 20.4484 1.10773L20.4531 1.10543C20.8381 0.91315 21.3029 0.988648 21.6071 1.29292L23.7071 3.39292C24.0971 3.78289 24.0977 4.41481 23.7088 4.80546L23.7029 4.81151C23.6966 4.818 23.6858 4.82935 23.6709 4.84524C23.6412 4.87707 23.596 4.9267 23.5405 4.99144C23.4286 5.12197 23.2796 5.30839 23.1321 5.52973C22.8153 6.00492 22.6 6.50061 22.6 6.90003C22.6 7.36426 22.694 7.55209 22.836 7.83586L22.8445 7.85281C23.0478 8.25942 23.3 8.77345 23.3 9.70003C23.3 12.4653 21.6183 14.2565 20 15.3315V22C20 22.5523 19.5523 23 19 23H15C14.4477 23 14 22.5523 14 22V21H7.00003V22C7.00003 22.5523 6.55232 23 6.00003 23H2.00003C1.44775 23 1.00003 22.5523 1.00003 22V16.0235C0.999665 16.008 0.999663 15.9924 1.00003 15.9768V15.3333C1.00003 14.2986 1.57099 13.4819 2.00674 12.9977C2.18783 12.7965 2.36721 12.6286 2.51805 12.4989C2.56578 11.6811 2.71373 10.2517 3.02564 8.90014C3.22099 8.05363 3.49706 7.16235 3.89597 6.45952C4.27017 5.80022 4.93568 5 6.00003 5H8.46684L8.45952 4.99144C8.40403 4.9267 8.35884 4.87707 8.32913 4.84524C8.3143 4.82935 8.30342 4.818 8.29715 4.81151L8.29139 4.8056C7.9021 4.41498 7.90281 3.78303 8.29292 3.39292L10.3929 1.29292C10.7785 0.907391 11.4005 0.90246 11.792 1.27813C11.7968 1.28231 11.8099 1.2934 11.8313 1.3094C11.8763 1.34318 11.9567 1.39785 12.0722 1.4556C12.3 1.56946 12.6728 1.70003 13.2 1.70003C13.7488 1.70003 14.3337 1.55971 14.8088 1.40134C15.0404 1.32416 15.2329 1.24708 15.3655 1.19026C15.4315 1.16195 15.482 1.13897 15.5143 1.12392C15.5304 1.11641 15.5418 1.1109 15.5484 1.10773L15.5531 1.10543C15.9317 0.916313 16.3876 0.986237 16.692 1.27809ZM17.3163 16.648C17.5232 16.5752 17.7536 16.4884 18 16.3861V21H16V19H5.00003V21H3.00003V17.3875L4.6838 17.9487C5.20774 18.1234 5.77406 17.8402 5.94871 17.3163C6.12336 16.7923 5.8402 16.226 5.31625 16.0513L3.0019 15.2799C3.02166 14.9934 3.19764 14.6642 3.49332 14.3356C3.6145 14.201 3.73762 14.087 3.84002 14H10.4176C11.008 14.6384 11.6831 15.1463 12.3286 15.5408C13.1928 16.069 14.0487 16.4246 14.6837 16.648C15.003 16.7603 15.2707 16.8408 15.4617 16.8938C15.5573 16.9204 15.6339 16.9401 15.6884 16.9537C15.7157 16.9604 15.7375 16.9657 15.7534 16.9694L15.7728 16.9739L15.7791 16.9753L15.7823 16.976C15.9252 17.0078 16.0741 17.008 16.217 16.9762L16.2187 16.9758L16.221 16.9753L16.2273 16.9739L16.2467 16.9694C16.2626 16.9657 16.2843 16.9604 16.3116 16.9537C16.3662 16.9401 16.4428 16.9204 16.5384 16.8938C16.7293 16.8408 16.9971 16.7603 17.3163 16.648ZM8.70003 9.70003C8.70003 10.5579 8.86186 11.3219 9.13343 12H4.56191C4.62937 11.2744 4.75774 10.2888 4.97442 9.34986C5.15407 8.57137 5.378 7.90015 5.63534 7.44673C5.76283 7.22211 5.8727 7.09764 5.94759 7.03701C5.97916 7.01145 5.99813 7.00243 6.00391 7H9.39846C9.38566 7.39299 9.2954 7.57338 9.16408 7.83585L9.1556 7.85281C8.9523 8.25942 8.70003 8.77345 8.70003 9.70003ZM10.3519 4.16232C10.411 4.2432 10.4715 4.32941 10.5321 4.42033C10.9153 4.99513 11.4 5.89945 11.4 6.90003C11.4 7.8266 11.1478 8.34064 10.9445 8.74724L10.936 8.7642C10.794 9.04797 10.7 9.23579 10.7 9.70003C10.7 11.6468 11.932 12.9545 13.3715 13.8342C14.0822 14.2686 14.8014 14.5692 15.3476 14.7614C15.619 14.8569 15.8434 14.9241 15.997 14.9668L16 14.9676L16.0031 14.9668C16.1567 14.9241 16.3811 14.8569 16.6525 14.7614C17.1987 14.5692 17.9178 14.2686 18.6286 13.8342C20.0681 12.9545 21.3 11.6468 21.3 9.70003C21.3 9.23579 21.2061 9.04797 21.0641 8.7642L21.0556 8.74724C20.8523 8.34064 20.6 7.8266 20.6 6.90003C20.6 5.89945 21.0848 4.99513 21.468 4.42033C21.5286 4.32941 21.5891 4.2432 21.6481 4.16232L20.6686 3.18281C20.5682 3.22046 20.4586 3.25959 20.3413 3.29871C19.7663 3.49035 18.9513 3.70003 18.1 3.70003C17.2273 3.70003 16.5501 3.4806 16.0778 3.24445C16.0079 3.20949 15.9426 3.17426 15.882 3.13944C15.7527 3.18985 15.6045 3.2443 15.4413 3.29871C14.8663 3.49035 14.0513 3.70003 13.2 3.70003C12.3646 3.70003 11.7084 3.49898 11.2396 3.27467L10.3519 4.16232Z" fill="#2B2D34"/>
</svg>
