<svg width="24" height="24" viewBox="0 0 24 24" fill="none" xmlns="http://www.w3.org/2000/svg">
<path d="M23.8899 9.22698C23.0699 7.6 18.3899 1 11.9999 1C5.60995 1 0.929949 7.6 0.109949 9.22698C-0.100051 9.64651 -5.10216e-05 10.1581 0.339949 10.4651L3.99995 13.7395V17.9758C3.99995 18.1395 4.03995 18.293 4.10995 18.4465C4.19995 18.6307 6.44995 23 11.9999 23C17.5499 23 19.7999 18.6307 19.8899 18.4363C19.9599 18.293 19.9999 18.1293 19.9999 17.9656V13.7293L23.6599 10.4549C23.9999 10.1581 24.0999 9.64651 23.8899 9.22698ZM17.9999 14.0977C17.1399 14.3637 15.2299 14.814 11.9999 14.814C8.76995 14.814 6.85995 14.374 5.99995 14.0977V12.706C7.09995 12.3684 9.44995 11.734 11.9999 11.734C14.5499 11.734 16.8999 12.3581 17.9999 12.706V14.0977ZM11.9999 20.9535C8.24995 20.9535 6.44995 18.4363 5.99995 17.6995V16.2158C7.17995 16.5228 9.12995 16.8502 11.9999 16.8502C14.8699 16.8502 16.8199 16.5126 17.9999 16.2158V17.6995C17.5499 18.4363 15.7399 20.9535 11.9999 20.9535ZM19.7199 11.2735C19.6199 11.1609 19.4999 11.0688 19.3499 11.0074C19.2099 10.9563 15.8699 9.69767 11.9999 9.69767C8.12995 9.69767 4.78995 10.9563 4.64995 11.0177C4.49995 11.0688 4.37995 11.1609 4.27995 11.2735L2.28995 9.49302C3.55995 7.54884 7.28995 3.04651 11.9999 3.04651C16.7099 3.04651 20.4399 7.54884 21.7099 9.49302L19.7199 11.2735Z" fill="#2B2D34"/>
<path d="M12 9C12.8284 9 13.5 8.32843 13.5 7.5C13.5 6.67157 12.8284 6 12 6C11.1716 6 10.5 6.67157 10.5 7.5C10.5 8.32843 11.1716 9 12 9Z" fill="#2B2D34"/>
</svg>
