<svg width="24" height="24" viewBox="0 0 24 24" fill="none" xmlns="http://www.w3.org/2000/svg">
<path d="M8.46447 4.46447C9.40215 3.52678 10.6739 3 12 3C13.3261 3 14.5979 3.52678 15.5355 4.46447C16.4732 5.40215 17 6.67392 17 8H15C15 7.20435 14.6839 6.44129 14.1213 5.87868C13.5587 5.31607 12.7956 5 12 5C11.2044 5 10.4413 5.31607 9.87868 5.87868C9.62888 6.12848 9.40162 6.50382 9.2368 6.92874C9.07104 7.35604 9 7.75165 9 8C9 8.62844 9.19913 9.33302 9.45937 10.2178L9.47868 10.2835C9.63169 10.8032 9.80515 11.3925 9.9084 12H13V14H10V17.4722C10.7661 17.4722 11.5322 17.6481 12.236 18L12.6583 18.2112C13.5029 18.6335 14.497 18.6335 15.3416 18.2112L17.5527 17.1056L18.4472 18.8944L16.236 20C14.8284 20.7038 13.1715 20.7038 11.7639 20L11.3416 19.7889C10.497 19.3666 9.50289 19.3666 8.65831 19.7889L6.44716 20.8944L5.55273 19.1056L7.76388 18C7.84185 17.961 7.92059 17.9242 8 17.8895V14H6V12H7.87078C7.78827 11.6312 7.67227 11.2297 7.54063 10.7822L7.52132 10.7165C7.28503 9.91388 7 8.94564 7 8C7 7.44835 7.13967 6.80481 7.37217 6.20544C7.60559 5.60368 7.96412 4.96481 8.46447 4.46447Z" fill="#2B2D34"/>
</svg>
