<svg width="24" height="24" viewBox="0 0 24 24" fill="none" xmlns="http://www.w3.org/2000/svg">
<path fill-rule="evenodd" clip-rule="evenodd" d="M7 2C6.67705 2 6.37398 2.15597 6.18627 2.41876L1.18627 9.41876C0.921902 9.78888 0.940603 10.2908 1.23178 10.6402L11.2318 22.6402C11.4218 22.8682 11.7032 23 12 23C12.2968 23 12.5782 22.8682 12.7682 22.6402L22.7682 10.6402C23.0594 10.2908 23.0781 9.78888 22.8137 9.41876L17.8137 2.41876C17.626 2.15597 17.323 2 17 2H7ZM3.94319 9L7.51462 4H8.67427L7.2457 9H3.94319ZM9.32573 9L10.7543 4H13.2457L14.6743 9H9.32573ZM14.5723 11H9.4277L12 18.0738L14.5723 11ZM14.2505 17.7374L16.7004 11H19.865L14.2505 17.7374ZM16.7543 9L15.3257 4H16.4854L20.0568 9H16.7543ZM4.13504 11H7.29957L9.74953 17.7374L4.13504 11Z" fill="#2B2D34"/>
</svg>
