<svg width="24" height="24" viewBox="0 0 24 24" fill="none" xmlns="http://www.w3.org/2000/svg">
<path d="M12 1C10.2352 1 8.58629 1.50895 7.19551 2.38847L8.26447 4.07882C9.34485 3.3956 10.6247 3 12 3C15.866 3 19 6.13401 19 10V15C19 16.0945 18.7078 17.1178 18.1979 17.9993L19.9291 19.0007C20.6104 17.823 21 16.4555 21 15V10C21 5.02944 16.9706 1 12 1Z" fill="#2B2D34"/>
<path d="M4.97438 4.37453C3.73938 5.91514 3 7.87259 3 10V17H5V10C5 8.34362 5.57405 6.82406 6.53488 5.62547L4.97438 4.37453Z" fill="#2B2D34"/>
<path d="M13 23C14.8676 23 16.5882 22.3588 17.9498 21.2853L16.7114 19.7147C15.6901 20.5201 14.4025 21 13 21H12C10.3431 21 9 19.6569 9 18V10C9 8.34315 10.3431 7 12 7C13.3277 7 14.454 7.86255 14.8491 9.05788C14.967 9.52392 14.998 9.70852 15 11.7755V16H17V11H16.9976C16.9948 10.5889 16.9894 10.2663 16.9794 10C16.9829 9.5252 16.9218 9.06804 16.8046 8.63612C16.7923 8.58538 16.7793 8.53309 16.7655 8.47852L16.7594 8.48005C16.1325 6.43934 14.238 5 12 5C9.23858 5 7 7.23858 7 10V18C7 20.7614 9.23858 23 12 23H13Z" fill="#2B2D34"/>
<path d="M11 9V19H13V9H11Z" fill="#2B2D34"/>
</svg>
