<svg width="24" height="24" viewBox="0 0 24 24" fill="none" xmlns="http://www.w3.org/2000/svg">
<path fill-rule="evenodd" clip-rule="evenodd" d="M12.8575 2.4855C12.6768 2.1843 12.3513 2 12 2C11.6487 2 11.3232 2.1843 11.1425 2.4855L8.15122 7.471C8.05538 7.62445 8 7.80576 8 8V12.382L7 12.882L5.44721 12.1056C5.30836 12.0361 5.15525 12 5 12H3C2.44772 12 2 12.4477 2 13V20C2 20.5523 2.44772 21 3 21H10C10.5523 21 11 20.5523 11 20V18.618L12 18.118L13 18.618V20C13 20.5523 13.4477 21 14 21H21C21.5523 21 22 20.5523 22 20V13C22 12.4477 21.5523 12 21 12H19C18.8448 12 18.6916 12.0361 18.5528 12.1056L17 12.882L16 12.382V8C16 7.80611 15.9448 7.6251 15.8493 7.47183L12.8575 2.4855ZM13.2338 7L12 4.94365L10.7662 7H13.2338ZM14 9V12H10V9H14ZM4 19V14H4.76393L6 14.618V16H8V14.618L9.23607 14H11V15H13V14H14.7639L16 14.618V16H18V14.618L19.2361 14H20V19H15V18C15 17.6212 14.786 17.275 14.4472 17.1056L12.4472 16.1056C12.1657 15.9648 11.8343 15.9648 11.5528 16.1056L9.55279 17.1056C9.214 17.275 9 17.6212 9 18V19H4Z" fill="#2B2D34"/>
</svg>
