<svg width="24" height="24" viewBox="0 0 24 24" fill="none" xmlns="http://www.w3.org/2000/svg">
<path fill-rule="evenodd" clip-rule="evenodd" d="M11 1C11 0.447715 11.4477 0 12 0H15V2H13V4.05009C15.2849 4.27966 17.4329 5.29077 19.0711 6.92893C20.7092 8.5671 21.7203 10.7151 21.9499 13H24V15H23V19H24V21H0V19H1V15H0V13H2.05009C2.27966 10.7151 3.29077 8.5671 4.92893 6.92893C6.5671 5.29077 8.71511 4.27966 11 4.05009V1ZM18 15H21V19H18V15ZM16 15H13V19H16V15ZM8 15H11V19H8V15ZM6 15H3V19H6V15ZM19.9373 13C19.7165 11.247 18.9195 9.60577 17.6569 8.34315C16.1566 6.84285 14.1217 6 12 6C9.87827 6 7.84344 6.84285 6.34315 8.34315C5.08052 9.60577 4.28353 11.247 4.06272 13H19.9373Z" fill="#2B2D34"/>
</svg>
