<svg width="24" height="24" viewBox="0 0 24 24" fill="none" xmlns="http://www.w3.org/2000/svg">
<path fill-rule="evenodd" clip-rule="evenodd" d="M12 2C11.4747 2 10.9546 2.10346 10.4693 2.30448C9.98396 2.5055 9.54301 2.80014 9.17157 3.17157C8.80014 3.54301 8.5055 3.98396 8.30448 4.46927C8.10346 4.95457 8 5.47471 8 6V7H6C4.89543 7 4 7.89543 4 9V20C4 21.1046 4.89543 22 6 22H18C19.1046 22 20 21.1046 20 20V9C20 7.89543 19.1046 7 18 7H16V6C16 5.47471 15.8965 4.95457 15.6955 4.46927C15.4945 3.98396 15.1999 3.54301 14.8284 3.17157C14.457 2.80014 14.016 2.5055 13.5307 2.30448C13.0454 2.10346 12.5253 2 12 2ZM14 9V11H16V9H18V20H6V9H8V11H10V9H14ZM14 7V6C14 5.73736 13.9483 5.47728 13.8478 5.23463C13.7472 4.99198 13.5999 4.7715 13.4142 4.58579C13.2285 4.40007 13.008 4.25275 12.7654 4.15224C12.5227 4.05173 12.2626 4 12 4C11.7374 4 11.4773 4.05173 11.2346 4.15224C10.992 4.25275 10.7715 4.40007 10.5858 4.58579C10.4001 4.7715 10.2528 4.99198 10.1522 5.23463C10.0517 5.47728 10 5.73736 10 6V7H14Z" fill="#2B2D34"/>
</svg>
