<svg width="24" height="24" viewBox="0 0 24 24" fill="none" xmlns="http://www.w3.org/2000/svg">
<path fill-rule="evenodd" clip-rule="evenodd" d="M6 2C4.89543 2 4 2.89543 4 4V18C4 19.2776 4.79864 20.3687 5.92392 20.8012L4 23H6.5L8.25 21H16.25L17.5 23H20L18.4994 20.599C19.3964 20.0804 20 19.1107 20 18V4C20 2.89543 19.1046 2 18 2H6ZM17 19C17.5523 19 18 18.5523 18 18V17H17C16.4477 17 16 16.5523 16 16C16 15.4477 16.4477 15 17 15H18V13.3061C17.7603 13.3624 17.4914 13.4215 17.1961 13.4806C15.8982 13.7402 14.0809 14 12 14C9.91907 14 8.10177 13.7402 6.80386 13.4806C6.50861 13.4215 6.23967 13.3624 6 13.3061V15H7C7.55228 15 8 15.4477 8 16C8 16.5523 7.55228 17 7 17H6V18C6 18.5523 6.44772 19 7 19H17ZM18 7.30611V11.2462C17.6917 11.3263 17.2876 11.4227 16.8039 11.5194C15.8155 11.7171 14.5023 11.9146 13 11.9786L13 7.98024C14.6622 7.91491 16.1107 7.69766 17.1961 7.48058C17.4914 7.42153 17.7603 7.36237 18 7.30611ZM18 5.24619C17.6917 5.32626 17.2876 5.42268 16.8039 5.51942C15.6018 5.75984 13.9191 6 12 6C10.0809 6 8.39818 5.75984 7.19609 5.51942C6.7124 5.42269 6.30831 5.32627 6 5.24621V4H18V5.24619ZM6 7.30612V11.2462C6.30831 11.3263 6.7124 11.4227 7.19609 11.5194C8.18442 11.7171 9.49764 11.9146 11 11.9786L11 7.98024C9.3378 7.91491 7.88923 7.69766 6.80386 7.48058C6.50861 7.42153 6.23967 7.36238 6 7.30612Z" fill="#2B2D34"/>
</svg>
