<svg width="24" height="24" viewBox="0 0 24 24" fill="none" xmlns="http://www.w3.org/2000/svg">
<path fill-rule="evenodd" clip-rule="evenodd" d="M11 2C8.23858 2 6 4.23858 6 7C6 9.76142 8.23858 12 11 12C13.7614 12 16 9.76142 16 7C16 4.23858 13.7614 2 11 2ZM8 7C8 5.34315 9.34315 4 11 4C12.6569 4 14 5.34315 14 7C14 8.65685 12.6569 10 11 10C9.34315 10 8 8.65685 8 7Z" fill="#2B2D34"/>
<path d="M11.5001 13C6.08967 13 3 17.5983 3 22H5C5 18.4017 7.47308 15 11.5001 15C12.3776 15 13.1657 15.1571 13.8636 15.4309L14.5941 13.5691C13.6572 13.2015 12.6208 13 11.5001 13Z" fill="#2B2D34"/>
<path d="M18.0859 19.5L15.293 16.7071L16.7072 15.2929L19.5001 18.0858L22.293 15.2929L23.7072 16.7071L20.9143 19.5L23.7072 22.2929L22.293 23.7071L19.5001 20.9142L16.7072 23.7071L15.293 22.2929L18.0859 19.5Z" fill="#2B2D34"/>
</svg>
