<svg width="24" height="24" viewBox="0 0 24 24" fill="none" xmlns="http://www.w3.org/2000/svg">
<path fill-rule="evenodd" clip-rule="evenodd" d="M15 3V8C15 8.55229 14.5523 9 14 9H12V19C12 20.6569 10.6569 22 9 22C7.34315 22 6 20.6569 6 19V9H3C2.44771 9 2 8.55229 2 8V6C2 5.73478 2.10536 5.48043 2.29289 5.29289L5.29289 2.29289C5.48043 2.10536 5.73478 2 6 2H14C14.5523 2 15 2.44772 15 3ZM8 9H10V19C10 19.5523 9.55228 20 9 20C8.44772 20 8 19.5523 8 19V9ZM13 7L4 7V6.41421L6.41421 4L13 4V7Z" fill="#2B2D34"/>
<path fill-rule="evenodd" clip-rule="evenodd" d="M17 11C16.4477 11 16 11.4477 16 12V19C16 20.6569 17.3431 22 19 22C20.6569 22 22 20.6569 22 19V12C22 11.4477 21.5523 11 21 11H20V5H21V3H20V2H18V3H17V5H18V11H17ZM18 19V13H20V19C20 19.5523 19.5523 20 19 20C18.4477 20 18 19.5523 18 19Z" fill="#2B2D34"/>
</svg>
