<svg width="24" height="24" viewBox="0 0 24 24" fill="none" xmlns="http://www.w3.org/2000/svg">
<path fill-rule="evenodd" clip-rule="evenodd" d="M16.7071 2.29292C16.4211 2.00692 15.991 1.92137 15.6173 2.07615C15.2436 2.23093 15 2.59557 15 3.00003V22H17V15.6181L19.3416 14.4472C20.358 13.9391 21 12.9003 21 11.764V11.1422C21 8.22478 19.8411 5.42689 17.7782 3.36399L16.7071 2.29292ZM18.4472 12.6584L17 13.382V5.48526C18.2881 7.07909 19 9.07393 19 11.1422V11.764C19 12.1427 18.786 12.489 18.4472 12.6584Z" fill="#2B2D34"/>
<path d="M5 2.00003V8.00003C5 8.55232 5.44772 9.00003 6 9.00003H10C10.5523 9.00003 11 8.55232 11 8.00003V2.00003H13V8.00003C13 9.65688 11.6569 11 10 11H9V22H7V11H6C4.34315 11 3 9.65688 3 8.00003V2.00003H5Z" fill="#2B2D34"/>
<path d="M7 7.00003V2.00003H9V7.00003H7Z" fill="#2B2D34"/>
</svg>
