<svg width="24" height="24" viewBox="0 0 24 24" fill="none" xmlns="http://www.w3.org/2000/svg">
<path d="M10 16H14V14H10V16Z" fill="#2B2D34"/>
<path fill-rule="evenodd" clip-rule="evenodd" d="M7 2C7.82843 2 8.5 2.67157 8.5 3.5C8.5 3.94425 8.30687 4.34339 8 4.61805V6H16V4.61805C15.6931 4.34339 15.5 3.94425 15.5 3.5C15.5 2.67157 16.1716 2 17 2C17.8284 2 18.5 2.67157 18.5 3.5C18.5 3.94425 18.3069 4.34339 18 4.61805V6C19.6569 6 21 7.34315 21 9V17C21 18.3062 20.1652 19.4175 19 19.8293V22H17V20H7V22H5L5 19.8293C3.83481 19.4175 3 18.3062 3 17V9C3 7.34315 4.34315 6 6 6V4.61805C5.69313 4.34339 5.5 3.94425 5.5 3.5C5.5 2.67157 6.17157 2 7 2ZM19 9.17071C18.6872 9.06015 18.3506 9 18 9C16.3431 9 15 10.3431 15 12C15 13.6569 16.3431 15 18 15C18.3506 15 18.6872 14.9398 19 14.8293V17C19 17.5523 18.5523 18 18 18H6C5.44772 18 5 17.5523 5 17V14.8293C5.31278 14.9398 5.64936 15 6 15C7.65685 15 9 13.6569 9 12C9 10.3431 7.65685 9 6 9C5.64936 9 5.31278 9.06015 5 9.17071V9C5 8.44772 5.44772 8 6 8H18C18.5523 8 19 8.44772 19 9V9.17071ZM19 12C19 12.5523 18.5523 13 18 13C17.4477 13 17 12.5523 17 12C17 11.4477 17.4477 11 18 11C18.5523 11 19 11.4477 19 12ZM6 11C5.44772 11 5 11.4477 5 12C5 12.5523 5.44772 13 6 13C6.55228 13 7 12.5523 7 12C7 11.4477 6.55228 11 6 11Z" fill="#2B2D34"/>
</svg>
