<svg width="24" height="24" viewBox="0 0 24 24" fill="none" xmlns="http://www.w3.org/2000/svg">
<path d="M14.0706 4.27261C15.2909 4.59961 16.4165 5.21101 17.3551 6.05674C18.2937 6.90247 19.0187 7.95848 19.4707 9.13832C19.9226 10.3181 20.0887 11.5882 19.9553 12.8446C19.8219 14.101 19.3928 15.3079 18.7032 16.3665C18.0136 17.4252 17.0831 18.3054 15.9878 18.9352C14.8926 19.565 13.6637 19.9265 12.4019 19.9899C11.14 20.0534 9.88111 19.8171 8.72817 19.3004C7.57523 18.7836 6.56107 18.0012 5.76873 17.0171L4.21091 18.2714C5.20134 19.5015 6.46904 20.4796 7.91021 21.1255C9.35138 21.7714 10.925 22.0667 12.5023 21.9874C14.0796 21.9081 15.6157 21.4563 16.9848 20.669C18.3539 19.8818 19.5171 18.7815 20.3791 17.4582C21.2411 16.1349 21.7774 14.6262 21.9441 13.0558C22.1108 11.4853 21.9032 9.89768 21.3383 8.42289C20.7734 6.9481 19.8672 5.62808 18.6939 4.57092C17.5206 3.51375 16.1137 2.74951 14.5882 2.34076L14.0706 4.27261Z" fill="#2B2D34"/>
<path fill-rule="evenodd" clip-rule="evenodd" d="M9 3.00002C9.39397 3.00002 9.78407 3.07761 10.1481 3.22838C10.512 3.37914 10.8427 3.60012 11.1213 3.8787C11.3999 4.15727 11.6209 4.48799 11.7716 4.85197C11.9224 5.21594 12 5.60605 12 6.00002C12 6.39398 11.9224 6.78409 11.7716 7.14807C11.6209 7.51204 11.3999 7.84276 11.1213 8.12134C10.8427 8.39991 10.512 8.62089 10.1481 8.77166C9.78407 8.92242 9.39397 9.00002 9 9.00002H6V10H10V12H6V15H4V12H2V10H4V9.00002H2V7.00002H4V3.00002L9 3.00002ZM6 5.00002L9 5.00002C9.13132 5.00002 9.26136 5.02588 9.38268 5.07614C9.50401 5.12639 9.61425 5.20005 9.70711 5.29291C9.79996 5.38577 9.87362 5.49601 9.92388 5.61733C9.97413 5.73866 10 5.8687 10 6.00002C10 6.13134 9.97413 6.26138 9.92388 6.3827C9.87362 6.50403 9.79996 6.61427 9.70711 6.70712C9.61425 6.79998 9.50401 6.87364 9.38268 6.9239C9.26136 6.97415 9.13132 7.00002 9 7.00002H6V5.00002Z" fill="#2B2D34"/>
</svg>
