<svg width="24" height="24" viewBox="0 0 24 24" fill="none" xmlns="http://www.w3.org/2000/svg">
<path fill-rule="evenodd" clip-rule="evenodd" d="M11.7716 3.85195C11.9224 4.21593 12 4.60603 12 5C12 5.39397 11.9224 5.78407 11.7716 6.14805C11.6209 6.51203 11.3999 6.84274 11.1213 7.12132C10.8427 7.3999 10.512 7.62087 10.1481 7.77164C9.78407 7.9224 9.39397 8 9 8H6V9H10V11H6V14H4V11H2V9H4V8H2V6H4V2H9C9.39397 2 9.78407 2.0776 10.1481 2.22836C10.512 2.37913 10.8427 2.6001 11.1213 2.87868C11.3999 3.15726 11.6209 3.48797 11.7716 3.85195ZM6 6H9C9.13132 6 9.26136 5.97413 9.38268 5.92388C9.50401 5.87363 9.61425 5.79997 9.70711 5.70711C9.79996 5.61425 9.87362 5.50401 9.92388 5.38268C9.97413 5.26136 10 5.13132 10 5C10 4.86868 9.97413 4.73864 9.92388 4.61732C9.87362 4.49599 9.79996 4.38575 9.70711 4.29289C9.61425 4.20003 9.50401 4.12637 9.38268 4.07612C9.26136 4.02587 9.13132 4 9 4H6V6Z" fill="#2B2D34"/>
<path d="M20.0001 11V8.41421L14.7072 13.7071L13.293 12.2929L18.5859 7H16.0001V5H21.0001C21.2653 5 21.5197 5.10536 21.7072 5.29289C21.8947 5.48043 22.0001 5.73478 22.0001 6V11H20.0001Z" fill="#2B2D34"/>
<path d="M13.5 18.5859V16.0001H11.5L11.5 21.0001C11.5 21.5524 11.9477 22.0001 12.5 22.0001H18V20.0001H14.9142L20.2071 14.7072L18.7929 13.293L13.5 18.5859Z" fill="#2B2D34"/>
</svg>
