<svg width="24" height="24" viewBox="0 0 24 24" fill="none" xmlns="http://www.w3.org/2000/svg">
<path fill-rule="evenodd" clip-rule="evenodd" d="M11.2929 1.29289C11.5607 1.02506 11.9569 0.931535 12.3162 1.05131L18.3162 3.05131C18.645 3.16091 18.8936 3.43294 18.9732 3.77024C19.0529 4.10755 18.9522 4.46204 18.7071 4.7071L17.4142 6L20.2071 8.79289C21.9783 10.5641 21.9783 13.4359 20.2071 15.2071C18.4359 16.9783 15.5641 16.9783 13.7929 15.2071L9.04289 10.4571C7.91463 9.32884 6.08537 9.32884 4.95711 10.4571C3.82884 11.5854 3.82884 13.4146 4.9571 14.5429L7.70658 17.2924C8.09822 17.1049 8.53685 17 9 17C10.6569 17 12 18.3431 12 20C12 21.6569 10.6569 23 9 23C7.34314 23 6 21.6569 6 20C6 19.5368 6.10495 19.0982 6.29237 18.7066L3.54289 15.9571C1.63358 14.0478 1.63358 10.9522 3.5429 9.04288C5.4522 7.13358 8.5478 7.13358 10.4571 9.04289L15.2071 13.7929C16.1973 14.7831 17.8027 14.7831 18.7929 13.7929C19.7831 12.8027 19.7831 11.1973 18.7929 10.2071L16 7.41421L14.7071 8.7071C14.462 8.95217 14.1076 9.05287 13.7702 8.97325C13.4329 8.89362 13.1609 8.64502 13.0513 8.31622L11.0513 2.31622C10.9315 1.95689 11.0251 1.56072 11.2929 1.29289ZM13.5811 3.58114L14.437 6.14877L16.1488 4.43701L13.5811 3.58114ZM9 19C8.44771 19 8 19.4477 8 20C8 20.5523 8.44771 21 9 21C9.55228 21 10 20.5523 10 20C10 19.4477 9.55228 19 9 19Z" fill="#2B2D34"/>
</svg>
