<svg width="24" height="24" viewBox="0 0 24 24" fill="none" xmlns="http://www.w3.org/2000/svg">
<path d="M17 3.00003C15.9391 3.00003 14.9217 3.42146 14.1716 4.1716L15.5858 5.58582C15.9609 5.21074 16.4696 5.00003 17 5.00003C17.5304 5.00003 18.0391 5.21074 18.4142 5.58582C18.7893 5.96089 19 6.4696 19 7.00003C19 7.53046 18.7893 8.03917 18.4142 8.41424L19.8284 9.82846C20.5786 9.07831 21 8.0609 21 7.00003C21 5.93917 20.5786 4.92175 19.8284 4.1716C19.0783 3.42146 18.0609 3.00003 17 3.00003Z" fill="#2B2D34"/>
<path fill-rule="evenodd" clip-rule="evenodd" d="M12 22C14.6499 22 17.1913 20.9483 19.0662 19.0759L19.0711 19.0711C19.6735 18.4687 19.7679 17.6404 19.6826 16.9205C19.5956 16.1863 19.3058 15.3755 18.8944 14.5528C18.1757 13.1154 17.0055 11.4829 15.523 9.89122L16.9497 8.4645L15.5355 7.05029L14.1088 8.47701C12.5172 6.99457 10.8847 5.82437 9.4472 5.10563C8.62453 4.6943 7.81373 4.40446 7.07954 4.31745C6.35962 4.23213 5.53135 4.32657 4.92894 4.92898C3.05357 6.80434 2 9.34787 2 12C2 14.6522 3.05357 17.1957 4.92893 19.0711C6.8043 20.9465 9.34783 22 12 22ZM10.5858 13.4143C8.88327 11.7118 7.60235 9.96872 6.89442 8.55285C6.53799 7.83998 6.35295 7.2617 6.30348 6.84423C6.27918 6.6392 6.29148 6.50449 6.31036 6.42559C6.31936 6.38795 6.329 6.36646 6.33448 6.35618C6.33944 6.34688 6.34246 6.34388 6.34309 6.34325C6.34372 6.34262 6.34681 6.33951 6.35611 6.33455C6.36639 6.32907 6.38788 6.31943 6.42552 6.31043C6.50442 6.29155 6.63914 6.27925 6.84417 6.30355C7.26163 6.35302 7.83991 6.53805 8.55278 6.89449C9.76928 7.50274 11.2273 8.53398 12.6936 9.89217L11.2929 11.2929L12.7071 12.7071L14.1079 11.3064C15.4661 12.7727 16.4973 14.2308 17.1056 15.4473C17.462 16.1601 17.647 16.7384 17.6965 17.1559C17.7208 17.3609 17.7085 17.4956 17.6896 17.5745C17.6806 17.6122 17.671 17.6337 17.6655 17.6439C17.6605 17.6532 17.6575 17.6562 17.6569 17.6569C17.6558 17.6579 17.652 17.6612 17.6439 17.6656C17.6336 17.671 17.6121 17.6807 17.5745 17.6897C17.4956 17.7086 17.3608 17.7209 17.1558 17.6966C16.7383 17.6471 16.1601 17.4621 15.4472 17.1056C14.0313 16.3977 12.2883 15.1168 10.5858 13.4143ZM12 20C13.1723 20 14.3181 19.7427 15.3618 19.2594C15.095 19.153 14.8245 19.0304 14.5528 18.8945C12.8976 18.0669 10.9838 16.6407 9.17156 14.8285C7.35935 13.0163 5.93316 11.1025 5.10556 9.44727C4.96969 9.17552 4.84707 8.90507 4.74064 8.63824C4.2573 9.68197 4 10.8277 4 12C4 14.1218 4.84285 16.1566 6.34315 17.6569C7.84344 19.1572 9.87827 20 12 20Z" fill="#2B2D34"/>
</svg>
