<svg width="24" height="24" viewBox="0 0 24 24" fill="none" xmlns="http://www.w3.org/2000/svg">
<path d="M17.0615 2.60896C16.0909 2.20693 15.0506 2 14 2V4C14.7879 4 15.5681 4.15519 16.2961 4.45672C17.0241 4.75825 17.6855 5.20021 18.2426 5.75736C18.7998 6.31451 19.2417 6.97595 19.5433 7.7039C19.8448 8.43185 20 9.21207 20 10H22C22 8.94943 21.7931 7.90914 21.391 6.93853C20.989 5.96793 20.3997 5.08601 19.6569 4.34315C18.914 3.60028 18.0321 3.011 17.0615 2.60896Z" fill="#2B2D34"/>
<path fill-rule="evenodd" clip-rule="evenodd" d="M11 11.5858L6.05025 6.63605C5.65973 6.24552 5.0233 6.24256 4.6484 6.64811C3.84923 7.51262 3.15037 8.43256 2.68508 9.55586C2.23279 10.6478 2 11.8181 2 13C2 14.1819 2.23279 15.3522 2.68508 16.4442C3.13738 17.5361 3.80031 18.5282 4.63604 19.364C5.47177 20.1997 6.46392 20.8626 7.55585 21.3149C8.64778 21.7672 9.8181 22 11 22C12.1819 22 13.3522 21.7672 14.4442 21.3149C15.5675 20.8496 16.4874 20.1508 17.3519 19.3516C17.7574 18.9767 17.7545 18.3403 17.364 17.9498L12.4142 13L14.7071 10.7071L13.2929 9.29289L11 11.5858ZM4.53284 10.3212C4.75628 9.78179 5.04582 9.27366 5.39391 8.80813L15.1919 18.6061C14.7263 18.9542 14.2182 19.2437 13.6788 19.4672C12.8295 19.8189 11.9193 20 11 20C10.0807 20 9.1705 19.8189 8.32122 19.4672C7.47194 19.1154 6.70026 18.5998 6.05025 17.9498C5.40024 17.2997 4.88463 16.5281 4.53284 15.6788C4.18106 14.8295 4 13.9193 4 13C4 12.0808 4.18106 11.1705 4.53284 10.3212Z" fill="#2B2D34"/>
<path d="M14 6C14.5253 6 15.0454 6.10346 15.5307 6.30448C16.016 6.5055 16.457 6.80014 16.8284 7.17157C17.1999 7.54301 17.4945 7.98396 17.6955 8.46927C17.8965 8.95457 18 9.47471 18 10H16C16 9.73736 15.9483 9.47728 15.8478 9.23463C15.7472 8.99198 15.5999 8.7715 15.4142 8.58579C15.2285 8.40007 15.008 8.25275 14.7654 8.15224C14.5227 8.05173 14.2626 8 14 8V6Z" fill="#2B2D34"/>
</svg>
