<svg width="24" height="24" viewBox="0 0 24 24" fill="none" xmlns="http://www.w3.org/2000/svg">
<path fill-rule="evenodd" clip-rule="evenodd" d="M11.1095 11.4765C10.411 10.4957 10.0002 9.29583 10.0002 8C10.0002 7.76036 10.0143 7.524 10.0416 7.2917L3.57369 11.8193L2.42676 10.1808L12.4046 3.19629C13.4066 2.44504 14.6515 2 16.0002 2C19.3139 2 22.0002 4.68629 22.0002 8C22.0002 9.34872 21.5552 10.5935 20.804 11.5955L13.8195 21.5735L12.181 20.4265L16.7085 13.9586C16.4762 13.986 16.2399 14 16.0002 14C14.7044 14 13.5045 13.5892 12.5237 12.8907L5.70734 19.7071L4.29313 18.2929L11.1095 11.4765ZM12.0002 8C12.0002 5.79086 13.7911 4 16.0002 4C18.2094 4 20.0002 5.79086 20.0002 8C20.0002 10.2091 18.2094 12 16.0002 12C15.2584 12 14.5638 11.7981 13.9683 11.4462L15.7073 9.70711L14.2931 8.29289L12.5541 10.032C12.2022 9.43645 12.0002 8.74181 12.0002 8Z" fill="#2B2D34"/>
</svg>
