<svg width="24" height="24" viewBox="0 0 24 24" fill="none" xmlns="http://www.w3.org/2000/svg">
<path fill-rule="evenodd" clip-rule="evenodd" d="M6 3C6 2.44772 6.44772 2 7 2H21C21.5523 2 22 2.44772 22 3V21C22 21.5523 21.5523 22 21 22H17V20H20V4H8V10H6V3Z" fill="#2B2D34"/>
<path d="M6 14C6 15.1046 5.10457 16 4 16C2.89543 16 2 15.1046 2 14C2 12.8954 2.89543 12 4 12C5.10457 12 6 12.8954 6 14Z" fill="#2B2D34"/>
<path d="M14 20C14 21.1046 13.1046 22 12 22C10.8954 22 10 21.1046 10 20C10 18.8954 10.8954 18 12 18C13.1046 18 14 18.8954 14 20Z" fill="#2B2D34"/>
<path fill-rule="evenodd" clip-rule="evenodd" d="M13.2071 13.2071L4.20711 22.2071L2.79289 20.7929L11.7929 11.7929L13.2071 13.2071Z" fill="#2B2D34"/>
</svg>
