<svg width="24" height="24" viewBox="0 0 24 24" fill="none" xmlns="http://www.w3.org/2000/svg">
<path fill-rule="evenodd" clip-rule="evenodd" d="M7 3C6.44772 3 6 3.44772 6 4V12C6 12.5523 6.44772 13 7 13H11V17H9V16C9 15.4477 8.55228 15 8 15H4C3.44772 15 3 15.4477 3 16V20C3 20.5523 3.44772 21 4 21H8C8.55228 21 9 20.5523 9 20V19H15V20C15 20.5523 15.4477 21 16 21H20C20.5523 21 21 20.5523 21 20V16C21 15.4477 20.5523 15 20 15H16C15.4477 15 15 15.4477 15 16V17H13V13H17C17.5523 13 18 12.5523 18 12V4C18 3.44772 17.5523 3 17 3H7ZM8 11V5H16V11H8ZM5 19V17H7V19H5ZM17 17V19H19V17H17Z" fill="#2B2D34"/>
</svg>
