<svg width="24" height="24" viewBox="0 0 24 24" fill="none" xmlns="http://www.w3.org/2000/svg">
<path fill-rule="evenodd" clip-rule="evenodd" d="M15 5C15 4.44772 15.4477 4 16 4H21C21.5523 4 22 4.44772 22 5V10C22 10.5523 21.5523 11 21 11H16C15.4477 11 15 10.5523 15 10V9.11803L11 11.118V12.882L15 14.882V14C15 13.4477 15.4477 13 16 13H21C21.5523 13 22 13.4477 22 14V19C22 19.5523 21.5523 20 21 20H16C15.4477 20 15 19.5523 15 19V17.118L11 15.118V17C11 17.5523 10.5523 18 10 18H3C2.44772 18 2 17.5523 2 17V7C2 6.44772 2.44772 6 3 6H10C10.5523 6 11 6.44772 11 7V8.88196L15 6.88196V5ZM17 6V9H20V6H17ZM4 8V16H9V8H4ZM17 18V15H20V18H17Z" fill="#2B2D34"/>
</svg>
