<svg width="24" height="24" viewBox="0 0 24 24" fill="none" xmlns="http://www.w3.org/2000/svg">
<path fill-rule="evenodd" clip-rule="evenodd" d="M11.9763 4.00211C11.9516 4.00635 11.8946 4.02212 11.8048 4.08624C11.6092 4.22601 11.3445 4.53495 11.0721 5.09226C10.8065 5.6358 10.5658 6.3498 10.3792 7.21162C10.2246 7.92592 10.1158 8.70109 10.0556 9.50348C10.631 9.18275 11.294 9.00001 11.9999 9.00001C12.7826 9.00001 13.5153 9.22578 14.1332 9.61592C14.2203 9.65408 14.3077 9.69368 14.3953 9.7347C15.3906 10.2005 16.4067 10.8414 17.3601 11.5968C18.314 12.3526 19.1902 13.2112 19.9121 14.1023C20.6306 14.9892 21.1953 15.9073 21.5284 16.7834C21.854 17.6399 21.9928 18.5515 21.7163 19.3576C21.414 20.239 20.6962 20.7678 19.8248 20.947C19.0044 21.1157 18.0594 20.9816 17.1126 20.6716C16.1502 20.3565 15.1311 19.8419 14.1396 19.1868L15.242 17.5181C16.1182 18.0969 16.9766 18.5226 17.7349 18.7709C18.5089 19.0243 19.075 19.0593 19.4221 18.988C19.7182 18.9271 19.7883 18.8141 19.8245 18.7087C19.8865 18.5279 19.9038 18.1382 19.659 17.4941C19.4215 16.8696 18.9843 16.1343 18.3581 15.3612C17.7352 14.5924 16.9656 13.8359 16.1181 13.1644C16.0786 13.1331 16.039 13.102 15.9993 13.0712C15.9804 14.1506 15.5329 15.127 14.8221 15.8347C14.657 16.055 14.4796 16.2752 14.291 16.4941C13.5521 17.3517 12.653 18.176 11.6731 18.9001C10.6934 19.6241 9.64843 20.2366 8.62458 20.6804C7.60765 21.1213 6.60346 21.3992 5.70446 21.4475C4.82198 21.4948 3.9234 21.3231 3.27889 20.7246C2.59924 20.0935 2.43093 19.2069 2.56328 18.3474C2.69283 17.5062 3.11148 16.6174 3.69905 15.7596C4.29382 14.8912 5.08188 14.0251 5.9867 13.2296L7.30727 14.7317C6.50443 15.4375 5.83414 16.1816 5.34908 16.8898C4.8568 17.6085 4.60744 18.2137 4.53998 18.6518C4.47532 19.0717 4.58708 19.2101 4.63978 19.259C4.72762 19.3406 4.99106 19.4829 5.59733 19.4503C6.18709 19.4187 6.95243 19.2255 7.82909 18.8454C8.69882 18.4684 9.61301 17.9357 10.4845 17.2916C10.6663 17.1573 10.8445 17.0194 11.0183 16.8787C9.28376 16.4411 7.99992 14.8705 7.99992 13C7.99992 12.7977 8.01502 12.5984 8.04429 12.4031C7.92254 10.4918 8.05202 8.50878 8.42449 6.78841C8.63573 5.81275 8.9216 4.93762 9.27519 4.2141C9.62205 3.50437 10.0692 2.86834 10.6421 2.45897C11.2546 2.02131 11.9884 1.8671 12.7228 2.12491C13.3995 2.36249 13.9309 2.89951 14.3386 3.5271C15.1525 4.78027 15.6797 6.70991 15.8927 8.82948L13.9027 9.02943C13.7038 7.05013 13.2254 5.48507 12.6613 4.61651C12.3799 4.18323 12.1574 4.04609 12.0603 4.01199C12.0207 3.99812 11.9971 3.99852 11.9763 4.00211ZM11.9999 11C11.0211 11 10.2046 11.7042 10.0332 12.6338C10.0114 12.7518 9.99992 12.8741 9.99992 13C9.99992 14.1046 10.8954 15 11.9999 15C12.5345 15 13.0183 14.7916 13.378 14.4495C13.7623 14.0839 13.9999 13.5705 13.9999 13C13.9999 12.3055 13.6467 11.693 13.1055 11.333C12.7893 11.1226 12.4104 11 11.9999 11Z" fill="#2B2D34"/>
</svg>
