<svg width="24" height="24" viewBox="0 0 24 24" fill="none" xmlns="http://www.w3.org/2000/svg">
<path fill-rule="evenodd" clip-rule="evenodd" d="M6 7C6 4.23858 8.23858 2 11 2C13.7614 2 16 4.23858 16 7C16 9.76142 13.7614 12 11 12C8.23858 12 6 9.76142 6 7ZM11 4C9.34315 4 8 5.34315 8 7C8 8.65685 9.34315 10 11 10C12.6569 10 14 8.65685 14 7C14 5.34315 12.6569 4 11 4Z" fill="#2B2D34"/>
<path d="M3 22C3 17.5983 6.08967 13 11.5001 13V15C7.47308 15 5 18.4017 5 22H3Z" fill="#2B2D34"/>
<path fill-rule="evenodd" clip-rule="evenodd" d="M17 13C14.7909 13 13 14.7909 13 17C13 19.2091 14.7909 21 17 21C17.7418 21 18.4365 20.7981 19.032 20.4462L21.293 22.7071L22.7072 21.2929L20.4462 19.0319C20.7981 18.4364 21 17.7418 21 17C21 14.7909 19.2091 13 17 13ZM15 17C15 15.8954 15.8954 15 17 15C18.1046 15 19 15.8954 19 17C19 18.1046 18.1046 19 17 19C15.8954 19 15 18.1046 15 17Z" fill="#2B2D34"/>
</svg>
