<svg width="24" height="24" viewBox="0 0 24 24" fill="none" xmlns="http://www.w3.org/2000/svg">
<path fill-rule="evenodd" clip-rule="evenodd" d="M2 4C2 3.44772 2.44772 3 3 3H7C7.55228 3 8 3.44772 8 4V8C8 8.55228 7.55228 9 7 9H3C2.44772 9 2 8.55228 2 8V4ZM4 5V7H6V5H4Z" fill="#2B2D34"/>
<path fill-rule="evenodd" clip-rule="evenodd" d="M2 12C2 11.4477 2.44772 11 3 11H7C7.55228 11 8 11.4477 8 12V16C8 16.5523 7.55228 17 7 17H3C2.44772 17 2 16.5523 2 16V12ZM4 13V15H6V13H4Z" fill="#2B2D34"/>
<path fill-rule="evenodd" clip-rule="evenodd" d="M11.124 11.0077C10.8178 10.9695 10.5111 11.0747 10.2929 11.2929C10.0747 11.5111 9.96945 11.8178 10.0077 12.124L11.0077 20.124C11.0551 20.503 11.3142 20.8219 11.6755 20.9459C12.0367 21.0698 12.437 20.9772 12.7071 20.7071L14 19.4142L16.2929 21.7071C16.6834 22.0976 17.3166 22.0976 17.7071 21.7071L20.7071 18.7071C21.0976 18.3166 21.0976 17.6834 20.7071 17.2929L18.4142 15L19.7071 13.7071C19.9772 13.437 20.0698 13.0367 19.9459 12.6755C19.8219 12.3142 19.503 12.0551 19.124 12.0077L11.124 11.0077ZM12.7387 17.8471L12.1518 13.1518L16.8471 13.7387L16.2929 14.2929C15.9024 14.6834 15.9024 15.3166 16.2929 15.7071L18.5858 18L17 19.5858L14.7071 17.2929C14.3166 16.9024 13.6834 16.9024 13.2929 17.2929L12.7387 17.8471Z" fill="#2B2D34"/>
<path d="M22 5H10V3H22V5Z" fill="#2B2D34"/>
<path d="M10 9H18V7H10V9Z" fill="#2B2D34"/>
</svg>
