<svg width="24" height="24" viewBox="0 0 24 24" fill="none" xmlns="http://www.w3.org/2000/svg">
<path fill-rule="evenodd" clip-rule="evenodd" d="M13 3.00001C13 2.61199 12.7755 2.259 12.4242 2.09442C12.0728 1.92984 11.6579 1.98339 11.3598 2.23179L5.63795 7.00001H3C2.44772 7.00001 2 7.44773 2 8.00001V16C2 16.5523 2.44772 17 3 17H5.63795L11.3598 21.7682C11.6579 22.0166 12.0728 22.0702 12.4242 21.9056C12.7755 21.741 13 21.388 13 21V3.00001ZM6.64018 8.76823L11 5.13505V18.865L6.64018 15.2318C6.46047 15.082 6.23394 15 6 15H4V9.00001H6C6.23394 9.00001 6.46047 8.918 6.64018 8.76823Z" fill="#2B2D34"/>
<path d="M18.9999 13.4141L16.707 15.7071L15.2927 14.2929L17.5857 11.9999L15.2929 9.70711L16.7071 8.29289L18.9999 10.5857L21.2927 8.29289L22.707 9.70711L20.4141 11.9999L22.7071 14.2929L21.2929 15.7071L18.9999 13.4141Z" fill="#2B2D34"/>
</svg>
