<svg width="24" height="24" viewBox="0 0 24 24" fill="none" xmlns="http://www.w3.org/2000/svg">
<path fill-rule="evenodd" clip-rule="evenodd" d="M11.7503 2.09547C11.7039 2.14948 11.6301 2.37297 11.5864 2.59214C11.3166 3.94389 11.0156 4.89803 10.5238 5.96074C9.15793 8.91215 6.90764 10.7676 3.7655 11.5334C3.30124 11.6466 3.13758 11.7098 3.07819 11.7993C2.87687 12.1022 3.06797 12.3416 3.60926 12.4647C7.68734 13.3915 10.4774 16.3567 11.4556 20.8034C11.5184 21.089 11.5966 21.4449 11.6294 21.5943C11.6982 21.9085 11.8635 22.0472 12.0959 21.9858C12.2768 21.9379 12.3542 21.7508 12.4945 21.0221C12.7368 19.7643 13.358 18.1103 13.9925 17.0333C15.3756 14.6859 17.6041 13.0899 20.3742 12.4632C20.854 12.3546 21 12.2489 21 12.0101C21 11.7788 20.8497 11.6752 20.3421 11.5563C19.6163 11.3863 19.1512 11.2357 18.4967 10.9587C15.3727 9.63674 13.3173 6.90006 12.4872 2.95717C12.3982 2.53441 12.2894 2.14549 12.2455 2.0929C12.141 1.96787 11.8586 1.96935 11.7503 2.09547Z" fill="#2B2D34"/>
</svg>
