<svg width="24" height="24" viewBox="0 0 24 24" fill="none" xmlns="http://www.w3.org/2000/svg">
<path fill-rule="evenodd" clip-rule="evenodd" d="M12 2C10.0222 2 8.08879 2.58649 6.4443 3.6853C4.79981 4.78412 3.51809 6.3459 2.76121 8.17317C2.00433 10.0004 1.8063 12.0111 2.19215 13.9509C2.578 15.8907 3.53041 17.6725 4.92894 19.0711C6.32746 20.4696 8.10929 21.422 10.0491 21.8079C11.9889 22.1937 13.9996 21.9957 15.8268 21.2388C17.6541 20.4819 19.2159 19.2002 20.3147 17.5557C21.4135 15.9112 22 13.9778 22 12L22 11.9142C22 11.3838 21.7893 10.8751 21.4142 10.5L13.5 2.58579C13.1249 2.21071 12.6162 2 12.0858 2H12ZM12 4C12 5.05058 12.2069 6.09086 12.609 7.06147C13.011 8.03207 13.6003 8.91399 14.3431 9.65685C15.086 10.3997 15.9679 10.989 16.9385 11.391C17.9091 11.7931 18.9494 12 20 12L20 11.9142L12.0858 4H12ZM16.1732 13.2388C17.3084 13.709 18.5199 13.9657 19.7468 13.9968C19.5233 14.8639 19.1546 15.6921 18.6518 16.4446C17.7727 17.7602 16.5233 18.7855 15.0615 19.391C13.5997 19.9965 11.9911 20.155 10.4393 19.8463C8.88743 19.5376 7.46197 18.7757 6.34315 17.6569C5.22433 16.538 4.4624 15.1126 4.15372 13.5607C3.84504 12.0089 4.00347 10.4003 4.60897 8.93853C5.21447 7.47672 6.23985 6.22729 7.55544 5.34824C8.30795 4.84543 9.13607 4.47672 10.0032 4.25321C10.0343 5.48013 10.291 6.69161 10.7612 7.82683C11.2638 9.04009 12.0003 10.1425 12.9289 11.0711C13.8575 11.9997 14.9599 12.7362 16.1732 13.2388Z" fill="#2B2D34"/>
</svg>
