<svg width="24" height="24" viewBox="0 0 24 24" fill="none" xmlns="http://www.w3.org/2000/svg">
<path fill-rule="evenodd" clip-rule="evenodd" d="M3.09871 2.56681C3.26523 2.22035 3.6156 2 4.00001 2H18C18.3844 2 18.7348 2.22035 18.9013 2.56681C19.0678 2.91328 19.021 3.32453 18.7809 3.6247L16.0806 7H18C18.394 7 18.7841 7.0776 19.1481 7.22836C19.512 7.37913 19.8428 7.6001 20.1213 7.87868C20.3999 8.15726 20.6209 8.48797 20.7716 8.85195C20.9224 9.21593 21 9.60603 21 10V13H19V10C19 9.86868 18.9741 9.73864 18.9239 9.61732C18.8736 9.49599 18.8 9.38575 18.7071 9.29289C18.6143 9.20003 18.504 9.12638 18.3827 9.07612C18.2614 9.02587 18.1313 9 18 9H5.00001V7H5.91938L3.21914 3.6247C2.979 3.32453 2.93219 2.91328 3.09871 2.56681ZM15.9194 4L13.5194 7H8.48063L6.08063 4H15.9194Z" fill="#2B2D34"/>
<path d="M17 13H5.00001V11H17V13Z" fill="#2B2D34"/>
<path fill-rule="evenodd" clip-rule="evenodd" d="M5.91939 17H5.00001V15H17V17H16.0806L18.7809 20.3753C19.021 20.6755 19.0678 21.0867 18.9013 21.4332C18.7348 21.7797 18.3844 22 18 22H4.00001C3.6156 22 3.26523 21.7797 3.09871 21.4332C2.93219 21.0867 2.979 20.6755 3.21914 20.3753L5.91939 17ZM8.48063 17L6.08063 20H15.9194L13.5194 17H8.48063Z" fill="#2B2D34"/>
</svg>
