<svg width="24" height="24" viewBox="0 0 24 24" fill="none" xmlns="http://www.w3.org/2000/svg">
<path fill-rule="evenodd" clip-rule="evenodd" d="M12 3C12 2.44772 12.4477 2 13 2H16C19.3137 2 22 4.68629 22 8V10C22 12.7614 19.7614 15 17 15H9C6.23858 15 4 12.7614 4 10V8C4 6.89543 3.10457 6 2 6V4C4.20914 4 6 5.79086 6 8H12V3ZM6 10C6 11.6569 7.34315 13 9 13H17C18.6569 13 20 11.6569 20 10V8C20 5.79086 18.2091 4 16 4H14V9C14 9.55228 13.5523 10 13 10H6Z" fill="#2B2D34"/>
<path fill-rule="evenodd" clip-rule="evenodd" d="M4 19C4 17.3431 5.34315 16 7 16C8.30622 16 9.41746 16.8348 9.82929 18H15.1707C15.5825 16.8348 16.6938 16 18 16C19.6569 16 21 17.3431 21 19C21 20.6569 19.6569 22 18 22C16.6938 22 15.5825 21.1652 15.1707 20H9.82929C9.41746 21.1652 8.30622 22 7 22C5.34315 22 4 20.6569 4 19ZM7 18C6.44772 18 6 18.4477 6 19C6 19.5523 6.44772 20 7 20C7.55228 20 8 19.5523 8 19C8 18.4477 7.55228 18 7 18ZM17 19C17 18.4477 17.4477 18 18 18C18.5523 18 19 18.4477 19 19C19 19.5523 18.5523 20 18 20C17.4477 20 17 19.5523 17 19Z" fill="#2B2D34"/>
</svg>
