<svg width="24" height="24" viewBox="0 0 24 24" fill="none" xmlns="http://www.w3.org/2000/svg">
<path d="M7.29288 9.70712L11.2929 13.7071L12.7071 12.2929L8.70709 8.29291L7.29288 9.70712Z" fill="#2B2D34"/>
<path fill-rule="evenodd" clip-rule="evenodd" d="M19.7071 2.70712L17.9142 4.50002L18.7071 5.29292C18.8946 5.48046 19 5.73481 19 6.00003V7.30092L21.703 9.97303C21.893 10.1609 22 10.417 22 10.6842L21.9999 21C21.9999 21.5523 21.5522 22 20.9999 22L8.99999 22C8.4477 22 7.99999 21.5522 7.99999 21V16.4142L2.29289 10.7071C1.90237 10.3166 1.90237 9.68343 2.29289 9.29291L9.29288 2.29292C9.48042 2.10539 9.73477 2.00003 9.99999 2.00003H15C15.2652 2.00003 15.5196 2.10539 15.7071 2.29292L16.5 3.08581L18.2929 1.29291L19.7071 2.70712ZM13.5 6.0858L12.7071 5.29291L11.2929 6.70712L14.2929 9.70712L15.7071 8.29291L14.9142 7.50001L16.5 5.91423L17 6.41424V10.5858L11 16.5858L4.41421 10L10.4142 4.00003H14.5858L15.0858 4.50002L13.5 6.0858ZM9.99999 20V18.4142L10.2928 18.7071C10.6834 19.0976 11.3165 19.0976 11.7071 18.7071L12.4142 18H18V16H14.4142L18.7071 11.7071C18.8946 11.5196 19 11.2652 19 11V10.1132L20 11.1018L19.9999 20L9.99999 20Z" fill="#2B2D34"/>
</svg>
