<svg width="24" height="24" viewBox="0 0 24 24" fill="none" xmlns="http://www.w3.org/2000/svg">
<path d="M19 5H11V3H20C20.5523 3 21 3.44772 21 4V20C21 20.5523 20.5523 21 20 21H11V19H19V5Z" fill="#2B2D34"/>
<path d="M12 7H18V9H12V7Z" fill="#2B2D34"/>
<path d="M12 11H14V13H12V11Z" fill="#2B2D34"/>
<path d="M12 15H14V17H12V15Z" fill="#2B2D34"/>
<path d="M16 11H18V13H16V11Z" fill="#2B2D34"/>
<path d="M16 15H18V17H16V15Z" fill="#2B2D34"/>
<path fill-rule="evenodd" clip-rule="evenodd" d="M3 4C3 3.44772 3.44772 3 4 3H8C8.55228 3 9 3.44772 9 4V20C9 20.5523 8.55228 21 8 21H4C3.44772 21 3 20.5523 3 20V4ZM5 5V19H7V5H5Z" fill="#2B2D34"/>
<path fill-rule="evenodd" clip-rule="evenodd" d="M11 16C11 15.4477 11.4477 15 12 15H13V20C13 22.2091 11.2091 24 9 24C6.79086 24 5 22.2091 5 20H7C7 21.1046 7.89543 22 9 22C10.1046 22 11 21.1046 11 20V16Z" fill="#2B2D34"/>
</svg>
