<svg width="24" height="24" viewBox="0 0 24 24" fill="none" xmlns="http://www.w3.org/2000/svg">
<path fill-rule="evenodd" clip-rule="evenodd" d="M8 7C8 6.44772 8.44772 6 9 6H15C15.5523 6 16 6.44772 16 7V11C16 11.5523 15.5523 12 15 12H9C8.44772 12 8 11.5523 8 11V7ZM10 8V10H14V8H10Z" fill="#2B2D34"/>
<path d="M9 16H15V14H9V16Z" fill="#2B2D34"/>
<path fill-rule="evenodd" clip-rule="evenodd" d="M4 3C4 2.44772 4.44772 2 5 2H19C19.5523 2 20 2.44772 20 3V20H21V22H3V20H4V3ZM6 20H18V4H6V20Z" fill="#2B2D34"/>
</svg>
