<svg width="24" height="24" viewBox="0 0 24 24" fill="none" xmlns="http://www.w3.org/2000/svg">
<path fill-rule="evenodd" clip-rule="evenodd" d="M12 7C9.79086 7 8 8.79086 8 11C8 13.2091 9.79086 15 12 15C14.2091 15 16 13.2091 16 11C16 8.79086 14.2091 7 12 7ZM10 11C10 9.89543 10.8954 9 12 9C13.1046 9 14 9.89543 14 11C14 12.1046 13.1046 13 12 13C10.8954 13 10 12.1046 10 11Z" fill="#2B2D34"/>
<path fill-rule="evenodd" clip-rule="evenodd" d="M12 2C7.02944 2 3 6.02944 3 11C3 14.3868 4.96368 17.2529 6.91789 19.2071C7.90756 20.1968 8.93174 20.9907 9.78487 21.5427C10.2107 21.8182 10.6063 22.0415 10.9442 22.2002C11.1127 22.2792 11.2794 22.3482 11.437 22.3993C11.5772 22.4447 11.7809 22.5 12 22.5C12.2191 22.5 12.4228 22.4447 12.563 22.3993C12.7206 22.3482 12.8873 22.2792 13.0558 22.2002C13.3937 22.0415 13.7893 21.8182 14.2151 21.5427C15.0683 20.9907 16.0924 20.1968 17.0821 19.2071C19.0363 17.2529 21 14.3868 21 11C21 6.02944 16.9706 2 12 2ZM5 11C5 7.13401 8.13401 4 12 4C15.866 4 19 7.13401 19 11C19 13.6132 17.4637 15.9971 15.6679 17.7929C14.7826 18.6782 13.8692 19.3843 13.1286 19.8636C12.7576 20.1036 12.4422 20.2788 12.206 20.3897C12.1207 20.4297 12.0521 20.4583 12 20.4778C11.9479 20.4583 11.8794 20.4297 11.794 20.3897C11.5578 20.2788 11.2424 20.1036 10.8714 19.8636C10.1308 19.3843 9.21744 18.6782 8.33211 17.7929C6.53632 15.9971 5 13.6132 5 11ZM11.9067 20.5081L11.9112 20.5071C11.9082 20.5078 11.9067 20.5081 11.9067 20.5081ZM12.0933 20.5081L12.0888 20.5071L12.091 20.5076L12.0933 20.5081Z" fill="#2B2D34"/>
</svg>
