<svg width="24" height="24" viewBox="0 0 24 24" fill="none" xmlns="http://www.w3.org/2000/svg">
<path fill-rule="evenodd" clip-rule="evenodd" d="M2 3H22V5H21V17H19V15C18.9898 15.0003 18.9699 15.0012 18.9423 15.0031C18.8869 15.0071 18.8012 15.0155 18.6956 15.0331C18.4799 15.069 18.2075 15.1391 17.9472 15.2692C17.6908 15.3974 17.4649 15.574 17.3008 15.8201C17.1409 16.06 17 16.4248 17 16.9998H15C15 16.0748 15.2341 15.3146 15.6367 14.7107C15.8545 14.384 16.1099 14.1205 16.3774 13.9085L16.3415 13.8774C15.2667 12.9369 14.3467 11.3308 14.0787 8.65641C13.5233 8.85268 12.8293 8.99989 11.9999 8.99982C11.1706 8.99974 10.4767 8.8525 9.92131 8.65625C9.65338 11.3307 8.73335 12.9369 7.6585 13.8774L7.62263 13.9085C7.89008 14.1205 8.14547 14.384 8.3633 14.7107C8.76588 15.3146 9 16.0748 9 16.9998H7C7 16.4248 6.85912 16.06 6.6992 15.8201C6.53511 15.574 6.30916 15.3974 6.05279 15.2692C5.7925 15.1391 5.52011 15.069 5.30435 15.0331C5.19884 15.0155 5.11311 15.0071 5.05766 15.0031C5.03011 15.0012 5.01056 15.0003 5.00038 15L5 17H3V5H2V3ZM19 5V12.9969C18.8323 12.9646 18.7776 12.9572 18.7495 12.9534C18.7208 12.9495 18.7199 12.9494 18.655 12.9304C18.3954 12.8547 18.0313 12.6985 17.6585 12.3722C16.9391 11.7428 16 10.3084 16 6.99982C16 6.59534 15.7563 6.23069 15.3826 6.07592C15.0133 5.92297 14.5889 6.00476 14.303 6.28277L14.2946 6.29027C14.281 6.30211 14.2536 6.32523 14.2124 6.35614C14.1299 6.41805 13.9932 6.51022 13.8028 6.60547C13.4251 6.79433 12.8273 6.99989 12.0001 6.99982C11.1728 6.99974 10.5749 6.79416 10.1972 6.6053C9.91121 6.32736 8.98654 5.92298 8.61727 6.07595C8.24362 6.23075 8 6.59537 8 6.99982C8 10.3084 7.06087 11.7428 6.3415 12.3722C5.96868 12.6985 5.6046 12.8547 5.345 12.9304C5.23714 12.9619 5.05669 12.9891 5.00239 12.9973L5 12.9977V5H19Z" fill="#2B2D34"/>
<path d="M7 21V19H3V21H7Z" fill="#2B2D34"/>
<path d="M9 19H15V21H9V19Z" fill="#2B2D34"/>
<path d="M21 21V19H17V21H21Z" fill="#2B2D34"/>
</svg>
