<svg width="24" height="24" viewBox="0 0 24 24" fill="none" xmlns="http://www.w3.org/2000/svg">
<path d="M7 12C7.55228 12 8 12.4477 8 13C8 13.5523 7.55228 14 7 14C6.44772 14 6 13.5523 6 13C6 12.4477 6.44772 12 7 12Z" fill="#2B2D34"/>
<path d="M10 13C10 13.5523 10.4477 14 11 14C11.5523 14 12 13.5523 12 13C12 12.4477 11.5523 12 11 12C10.4477 12 10 12.4477 10 13Z" fill="#2B2D34"/>
<path d="M6 16C5.55278 16.8944 5.55288 16.8945 5.55298 16.8945L5.55565 16.8959L5.56142 16.8987L5.58138 16.9086C5.59834 16.9169 5.62251 16.9287 5.65314 16.9435C5.71436 16.9731 5.80165 17.0146 5.90906 17.0642C6.12314 17.163 6.42082 17.2954 6.75361 17.4285C7.0843 17.5608 7.46229 17.6989 7.83465 17.8053C8.19178 17.9073 8.61026 18 9 18C9.38974 18 9.80821 17.9073 10.1653 17.8053C10.5377 17.6989 10.9157 17.5608 11.2464 17.4285C11.5792 17.2954 11.8769 17.163 12.0909 17.0642C12.1983 17.0146 12.2856 16.9731 12.3469 16.9435C12.3775 16.9287 12.4017 16.9169 12.4186 16.9086L12.4386 16.8987L12.4443 16.8959L12.447 16.8945C12.4471 16.8945 12.4472 16.8944 12 16L11.5527 15.1056L11.5499 15.107L11.536 15.1139L11.4774 15.1424C11.4253 15.1676 11.3485 15.2041 11.2528 15.2483C11.0606 15.337 10.7958 15.4546 10.5036 15.5715C10.2093 15.6892 9.89979 15.8011 9.6159 15.8822C9.31678 15.9677 9.11026 16 9 16C8.88974 16 8.68321 15.9677 8.38409 15.8822C8.1002 15.8011 7.79069 15.6892 7.49639 15.5715C7.20418 15.4546 6.93936 15.337 6.74718 15.2483C6.65147 15.2041 6.5747 15.1676 6.52264 15.1424L6.46402 15.1139L6.45011 15.107L6.44706 15.1055C6.44713 15.1055 6.44721 15.1056 6 16Z" fill="#2B2D34"/>
<path d="M17 8C16.4477 8 16 7.55228 16 7C16 6.44772 16.4477 6 17 6C17.5523 6 18 6.44772 18 7C18 7.55228 17.5523 8 17 8Z" fill="#2B2D34"/>
<path fill-rule="evenodd" clip-rule="evenodd" d="M8 3C8 2.44772 8.44772 2 9 2H21C21.5523 2 22 2.44772 22 3V10C22 11.7131 21.4301 13.4588 20.2474 14.7894C19.1826 15.9873 17.6619 16.801 15.744 16.9681C15.4702 17.9961 14.9746 18.9712 14.2474 19.7894C13.0484 21.1383 11.2714 22 9 22C6.72864 22 4.95164 21.1383 3.75259 19.7894C2.5699 18.4588 2 16.7131 2 15V9C2 8.44772 2.44772 8 3 8H8V3ZM4 10V15C4 16.2869 4.4301 17.5412 5.24741 18.4606C6.04836 19.3617 7.27136 20 9 20C10.7286 20 11.9516 19.3617 12.7526 18.4606C13.1549 18.0081 13.4633 17.4744 13.6729 16.8957C13.8891 16.2986 14 15.6535 14 15V10H4ZM16 14.9228V12.2399C16.1678 12.2979 16.3381 12.3623 16.5036 12.4285C16.7958 12.5454 17.0606 12.663 17.2528 12.7517C17.3485 12.7959 17.4253 12.8324 17.4774 12.8576L17.536 12.8861L17.5499 12.893L17.5529 12.8945C17.5529 12.8945 17.5528 12.8944 18 12C18.4472 11.1056 18.447 11.1055 18.447 11.1055L18.4443 11.1041L18.4386 11.1013L18.4186 11.0914L18.3893 11.0771L18.3469 11.0565C18.2856 11.0269 18.1983 10.9854 18.0909 10.9358C17.8769 10.837 17.5792 10.7046 17.2464 10.5715C16.9157 10.4392 16.5377 10.3011 16.1653 10.1947C16.1115 10.1793 16.0563 10.1642 16 10.1495V9C16 8.44772 15.5523 8 15 8H13C13.5523 8 14 7.55228 14 7C14 6.44772 13.5523 6 13 6C12.4477 6 12 6.44772 12 7C12 7.55228 12.4477 8 13 8H10V4H20V10C20 11.2869 19.5699 12.5412 18.7526 13.4606C18.1158 14.177 17.2123 14.7273 16 14.9228Z" fill="#2B2D34"/>
</svg>
