<svg width="24" height="24" viewBox="0 0 24 24" fill="none" xmlns="http://www.w3.org/2000/svg">
<path d="M11.6489 2.06367C11.8753 1.97878 12.1247 1.97878 12.3511 2.06367L19 4.557V4C19 3.44772 19.4477 3 20 3C20.5523 3 21 3.44772 21 4V6C21 6.32798 20.8392 6.63511 20.5696 6.82193C20.3 7.00874 19.956 7.05149 19.6489 6.93633L12 4.068L4.35112 6.93633C4.04403 7.05149 3.69998 7.00874 3.43041 6.82193C3.16083 6.63511 3 6.32798 3 6V4C3 3.44772 3.44772 3 4 3C4.55228 3 5 3.44772 5 4V4.557L11.6489 2.06367Z" fill="#2B2D34"/>
<path d="M7 11H9V17H11V11H13V17H15V11H17V17H19V11H21V9H13V7C13 6.44772 12.5523 6 12 6C11.4477 6 11 6.44772 11 7V9H3V11H5L5 17H7L7 11Z" fill="#2B2D34"/>
<path d="M21 21V19H3V21H21Z" fill="#2B2D34"/>
</svg>
