<svg width="24" height="24" viewBox="0 0 24 24" fill="none" xmlns="http://www.w3.org/2000/svg">
<path fill-rule="evenodd" clip-rule="evenodd" d="M16.5 2C14.0147 2 12 4.01472 12 6.5C12 8.98528 14.0147 11 16.5 11C18.9853 11 21 8.98528 21 6.5C21 4.01472 18.9853 2 16.5 2ZM14 6.5C14 5.11929 15.1193 4 16.5 4C17.8807 4 19 5.11929 19 6.5C19 7.88071 17.8807 9 16.5 9C15.1193 9 14 7.88071 14 6.5Z" fill="#2B2D34"/>
<path d="M16.4998 12C14.9101 12 13.5297 12.4668 12.4224 13.2499L13.5772 14.8828C14.34 14.3434 15.3153 14 16.4998 14C19.6397 14 21.4998 16.4656 21.4998 19H23.4998C23.4998 15.5344 20.91 12 16.4998 12Z" fill="#2B2D34"/>
<path fill-rule="evenodd" clip-rule="evenodd" d="M3 8C3 5.79086 4.79086 4 7 4C9.20914 4 11 5.79086 11 8C11 10.2091 9.20914 12 7 12C4.79086 12 3 10.2091 3 8ZM7 6C5.89543 6 5 6.89543 5 8C5 9.10457 5.89543 10 7 10C8.10457 10 9 9.10457 9 8C9 6.89543 8.10457 6 7 6Z" fill="#2B2D34"/>
<path d="M7.00007 13C2.82886 13 0.5 16.6209 0.5 20H2.5C2.5 17.3791 4.25048 15 7.00007 15V13Z" fill="#2B2D34"/>
<path d="M10.5859 20H5V18H10.5859L8.29297 15.7071L9.70718 14.2929L13.7072 18.2929C14.0977 18.6834 14.0977 19.3166 13.7072 19.7071L9.70718 23.7071L8.29297 22.2929L10.5859 20Z" fill="#2B2D34"/>
</svg>
