<svg width="24" height="24" viewBox="0 0 24 24" fill="none" xmlns="http://www.w3.org/2000/svg">
<path fill-rule="evenodd" clip-rule="evenodd" d="M12 2C12.4304 2 12.8125 2.27543 12.9486 2.68377L13.3874 4H18C18.5523 4 19 4.44772 19 5V8H17V6H14.054L15.9462 11.6765C15.9479 11.6813 15.9495 11.6862 15.9511 11.6911L18.7207 20H21V22H3V20H5.27919L9.94586 6H7V8H5V5C5 4.44772 5.44772 4 6 4H10.6125L11.0513 2.68377C11.1874 2.27543 11.5695 2 12 2ZM13.3261 10.1407L12 6.16228L11.0228 9.09374L13.3261 10.1407ZM10.3868 11.0016L9.15601 14.6941L12.9483 12.1659L10.3868 11.0016ZM8.05405 18L7.38738 20H16.6125L15.9459 18H8.05405ZM15.2792 16H10.8027L14.4653 13.5583L15.2792 16Z" fill="#2B2D34"/>
</svg>
