<svg width="24" height="24" viewBox="0 0 24 24" fill="none" xmlns="http://www.w3.org/2000/svg">
<path fill-rule="evenodd" clip-rule="evenodd" d="M12 4C11.5911 4 11.2234 4.24895 11.0715 4.62861L9.32297 9H7V6H8V4H4V6H5V9H4C3.73478 9 3.48043 9.10536 3.29289 9.29289C3.10536 9.48043 3 9.73478 3 10L3 15.0505C2.38141 15.6818 2 16.5463 2 17.5C2 19.433 3.567 21 5.5 21C6.8962 21 8.10145 20.1825 8.66318 19H12.9996C13.9118 20.2144 15.3642 21 17 21C19.7614 21 22 18.7614 22 16C22 14.8742 21.6279 13.8353 21 12.9995V5C21 4.44772 20.5523 4 20 4H12ZM5 14.0354L5 11H10C10.4089 11 10.7766 10.751 10.9285 10.3714L12.677 6H19V11.416C18.3875 11.1484 17.7111 11 17 11C14.2386 11 12 13.2386 12 16C12 16.3425 12.0344 16.6769 12.1 17H8.96456C8.72194 15.3039 7.26324 14 5.5 14C5.33024 14 5.1633 14.0121 5 14.0354ZM14 16C14 14.3431 15.3431 13 17 13C18.6569 13 20 14.3431 20 16C20 17.6569 18.6569 19 17 19C15.3431 19 14 17.6569 14 16ZM4 17.5C4 16.6716 4.67157 16 5.5 16C6.32843 16 7 16.6716 7 17.5C7 18.3284 6.32843 19 5.5 19C4.67157 19 4 18.3284 4 17.5ZM17 17C17.5523 17 18 16.5523 18 16C18 15.4477 17.5523 15 17 15C16.4477 15 16 15.4477 16 16C16 16.5523 16.4477 17 17 17Z" fill="#2B2D34"/>
</svg>
