<svg width="24" height="24" viewBox="0 0 24 24" fill="none" xmlns="http://www.w3.org/2000/svg">
<path fill-rule="evenodd" clip-rule="evenodd" d="M6 3H2V7.00109C2 7.00109 2.00744 7.23357 2.01426 7.32906C2.02788 7.51971 2.05463 7.78553 2.10736 8.1019C2.21202 8.72989 2.42321 9.5825 2.85557 10.4472C3.28989 11.3158 3.95706 12.2149 4.97655 12.8946C5.78893 13.4361 6.78759 13.8133 8 13.9467V16C8 16 8.00735 16.1894 8.01373 16.2608C8.02646 16.4033 8.05112 16.5985 8.09914 16.829C8.19451 17.2867 8.38635 17.905 8.777 18.53C9.59759 19.8429 11.1802 21 14 21C16.8198 21 18.4024 19.8429 19.223 18.53C19.6036 17.9211 19.7954 17.3187 19.8933 16.8648C21.1139 16.4846 22 15.3458 22 14C22 12.3431 20.6569 11 19 11C17.3431 11 16 12.3431 16 14C16 15.2494 16.7638 16.3204 17.8499 16.7716C17.7789 16.9907 17.6759 17.2317 17.527 17.47C17.0976 18.1571 16.1802 19 14 19C11.8198 19 10.9024 18.1571 10.473 17.47C10.2386 17.095 10.118 16.7133 10.0571 16.421C10.027 16.2765 10 16 10 16V13.9467C11.2124 13.8133 12.2111 13.4361 13.0235 12.8946C14.0429 12.2149 14.7101 11.3158 15.1444 10.4472C15.5768 9.5825 15.788 8.72989 15.8926 8.1019C15.9454 7.78553 15.9721 7.51971 15.9857 7.32906C15.9926 7.23356 16 7 16 7V3H12V5H14L14 7C14 7 13.9609 7.52697 13.9199 7.7731C13.837 8.27011 13.6732 8.9175 13.3556 9.55279C13.0399 10.1842 12.5821 10.7851 11.9141 11.2304C11.2523 11.6716 10.325 12 9 12C7.67498 12 6.7477 11.6716 6.08595 11.2304C5.41793 10.7851 4.96011 10.1842 4.64443 9.55279C4.32678 8.9175 4.16298 8.27011 4.08014 7.7731C4.03912 7.52697 4 7.00109 4 7.00109V5H6V3ZM18 14C18 13.4477 18.4477 13 19 13C19.5523 13 20 13.4477 20 14C20 14.5523 19.5523 15 19 15C18.4477 15 18 14.5523 18 14Z" fill="#2B2D34"/>
</svg>
