<svg width="24" height="24" viewBox="0 0 24 24" fill="none" xmlns="http://www.w3.org/2000/svg">
<path fill-rule="evenodd" clip-rule="evenodd" d="M2 5C2 4.44772 2.44772 4 3 4H15C15.5523 4 16 4.44772 16 5V6.15288L19.4932 6.73508C20.9398 6.97617 22 8.22774 22 9.69426V18C22 19.6569 20.6569 21 19 21C18.1115 21 17.3132 20.6137 16.7639 20H7.23611C6.68679 20.6137 5.8885 21 5 21C3.34315 21 2 19.6569 2 18V5ZM14 6V15H5C4.64936 15 4.31278 15.0602 4 15.1707V6H14ZM5 19C4.44772 19 4 18.5523 4 18C4 17.4477 4.44772 17 5 17C5.55228 17 6 17.4477 6 18C6 18.5523 5.55228 19 5 19ZM20 11V9.69426C20 9.20542 19.6466 8.78823 19.1644 8.70787L16 8.18047V15H19C19.3506 15 19.6872 15.0602 20 15.1707V13H18V11H20ZM20 18C20 17.4477 19.5523 17 19 17C18.4477 17 18 17.4477 18 18C18 18.5523 18.4477 19 19 19C19.5523 19 20 18.5523 20 18ZM8 18C8 17.6494 7.93985 17.3128 7.82929 17H16.1707C16.0602 17.3128 16 17.6494 16 18H8Z" fill="#2B2D34"/>
</svg>
