<svg width="24" height="24" viewBox="0 0 24 24" fill="none" xmlns="http://www.w3.org/2000/svg">
<path fill-rule="evenodd" clip-rule="evenodd" d="M5 18C3.34315 18 2 16.6569 2 15V5C2 3.34315 3.34315 2 5 2H19C20.6569 2 22 3.34315 22 5V15C22 16.6569 20.6569 18 19 18H13V20H16V22H8V20H11V18H5ZM4 15C4 15.5523 4.44772 16 5 16H19C19.5523 16 20 15.5523 20 15V5C20 4.44772 19.5523 4 19 4L5 4C4.44772 4 4 4.44772 4 5L4 15ZM10.5735 5.68077C10.268 5.46694 9.86892 5.44083 9.53819 5.61302C9.20746 5.78522 9 6.12713 9 6.5V13.5C9 13.8729 9.20746 14.2148 9.53819 14.387C9.86892 14.5592 10.268 14.5331 10.5735 14.3192L15.5735 10.8192C15.8408 10.6321 16 10.3263 16 10C16 9.67369 15.8408 9.3679 15.5735 9.18077L10.5735 5.68077ZM13.2562 10L11 11.5793V8.42066L13.2562 10Z" fill="#2B2D34"/>
</svg>
