<svg width="24" height="24" viewBox="0 0 24 24" fill="none" xmlns="http://www.w3.org/2000/svg">
<path fill-rule="evenodd" clip-rule="evenodd" d="M12.968 1.74904C12.8537 1.30799 12.4556 1 12 1C11.5444 1 11.1463 1.30799 11.032 1.74904L7.532 15.249C7.45434 15.5486 7.51974 15.8672 7.70913 16.112C7.89851 16.3567 8.19054 16.5 8.5 16.5H11V20C11 20.2652 10.8946 20.5196 10.7071 20.7071C10.5196 20.8946 10.2652 21 10 21C9.73478 21 9.48043 20.8946 9.29289 20.7071C9.10536 20.5196 9 20.2652 9 20V19H7V20C7 20.7956 7.31607 21.5587 7.87868 22.1213C8.44129 22.6839 9.20435 23 10 23C10.7956 23 11.5587 22.6839 12.1213 22.1213C12.6839 21.5587 13 20.7957 13 20V16.5H15.5C15.8095 16.5 16.1015 16.3567 16.2909 16.112C16.4803 15.8672 16.5457 15.5486 16.468 15.249L12.968 1.74904ZM12 5.98466L14.2077 14.5H9.79232L12 5.98466Z" fill="#2B2D34"/>
</svg>
