<svg width="24" height="24" viewBox="0 0 24 24" fill="none" xmlns="http://www.w3.org/2000/svg">
<path fill-rule="evenodd" clip-rule="evenodd" d="M13 1V3.05013C13.9702 3.14763 14.9227 3.38669 15.8268 3.7612C17.0401 4.26375 18.1425 5.00035 19.0711 5.92893C19.9997 6.85752 20.7362 7.95991 21.2388 9.17317C21.7413 10.3864 22 11.6868 22 13V14H13V20C13 20.7957 12.6839 21.5587 12.1213 22.1213C11.5587 22.6839 10.7956 23 10 23C9.20435 23 8.44129 22.6839 7.87868 22.1213C7.31607 21.5587 7 20.7956 7 20V19H9V20C9 20.2652 9.10536 20.5196 9.29289 20.7071C9.48043 20.8946 9.73478 21 10 21C10.2652 21 10.5196 20.8946 10.7071 20.7071C10.8946 20.5196 11 20.2652 11 20V14H2V13C2 11.6868 2.25866 10.3864 2.7612 9.17317C3.26375 7.95991 4.00035 6.85752 4.92893 5.92893C5.85752 5.00035 6.95991 4.26375 8.17317 3.7612C9.07731 3.38669 10.0298 3.14763 11 3.05012V1H13ZM12 5C10.9494 5 9.90914 5.20693 8.93853 5.60896C7.96793 6.011 7.08601 6.60028 6.34315 7.34315C5.60028 8.08601 5.011 8.96793 4.60896 9.93853C4.33513 10.5996 4.15182 11.293 4.06275 12L19.9373 12C19.8482 11.293 19.6649 10.5996 19.391 9.93853C18.989 8.96793 18.3997 8.08601 17.6569 7.34315C16.914 6.60028 16.0321 6.011 15.0615 5.60896C14.0909 5.20693 13.0506 5 12 5Z" fill="#2B2D34"/>
</svg>
