<svg width="24" height="24" viewBox="0 0 24 24" fill="none" xmlns="http://www.w3.org/2000/svg">
<path d="M6.70025 1.79597C6.42926 1.52498 6.02723 1.4327 5.66519 1.55839C5.30314 1.68408 5.04477 2.00562 5 2.38624L4.22154 9.00308H6.23534L6.74519 4.66934L8.78604 6.71019C8.97358 6.89772 9.22793 7.00308 9.49315 7.00308H16.4931C16.7584 7.00308 17.0127 6.89772 17.2003 6.71019L19.2411 4.66934L19.9928 11.0591C19.9665 13.5123 18.2149 15.8333 15.9931 16.7753V18.9C19.2717 17.9032 21.9931 14.6427 21.9931 11.0031C21.9931 10.964 21.9909 10.925 21.9863 10.8862L20.9863 2.38624C20.9415 2.00562 20.6832 1.68408 20.3211 1.55839C19.9591 1.4327 19.557 1.52498 19.286 1.79597L16.0789 5.00308H9.90736L6.70025 1.79597Z" fill="#2B2D34"/>
<path fill-rule="evenodd" clip-rule="evenodd" d="M6.1 11C5.49249 11 5 11.4925 5 12.1V14H3.1C2.49249 14 2 14.4925 2 15.1V18.9C2 19.5075 2.49249 20 3.1 20H5V21.9C5 22.5075 5.49249 23 6.1 23H9.9C10.5075 23 11 22.5075 11 21.9V20H12.9C13.5075 20 14 19.5075 14 18.9V15.1C14 14.4925 13.5075 14 12.9 14H11V12.1C11 11.4925 10.5075 11 9.9 11H6.1ZM7 16V13H9V16H12V18H9V21H7V18H4V16L7 16Z" fill="#2B2D34"/>
</svg>
