<svg width="24" height="24" viewBox="0 0 24 24" fill="none" xmlns="http://www.w3.org/2000/svg">
<path fill-rule="evenodd" clip-rule="evenodd" d="M19.1173 11.499C19.2585 10.3689 19.0093 8.98221 17.8739 7.54039L19.4142 6H21V4.41424L21.7071 3.70712L20.2929 2.29291L19.5858 3H18V4.58582L16.4597 6.12616C15.0178 4.99067 13.6311 4.7414 12.501 4.88267C11.8645 4.96223 11.3488 5.16064 10.9903 5.33991C10.8102 5.42995 10.6667 5.51671 10.5637 5.58447C10.512 5.61843 10.4703 5.64785 10.4388 5.67085C10.423 5.68236 10.4098 5.69228 10.3992 5.70039L10.3936 5.70475L8.4 7.19997C8.18349 7.36235 8.04205 7.60555 8.00796 7.87403C7.97388 8.1425 8.05007 8.41333 8.21913 8.62466C8.60942 9.11252 8.6875 9.46113 8.6875 9.67965C8.6875 9.90565 8.60365 10.126 8.44126 10.3493C8.34847 10.4769 8.23809 10.5937 8.12407 10.6969L6.75785 9.30059C6.57105 9.10967 6.31563 9.00142 6.04853 8.99997C5.78143 8.99852 5.52485 9.10398 5.33598 9.29285L3.78231 10.8465C3.1909 11.4379 2.72997 12.1461 2.42503 12.9289C2.12016 13.7116 1.97782 14.5518 2.0028 15.4006C2.02778 16.2493 2.21949 17.0902 2.56408 17.8764C2.90865 18.6626 3.4001 19.3804 4.00983 19.9901C4.61955 20.5999 5.33736 21.0913 6.12351 21.4359C6.90971 21.7805 7.75069 21.9722 8.59933 21.9972C9.44813 22.0221 10.2884 21.8798 11.071 21.5749C11.8539 21.27 12.562 20.8091 13.1534 20.2176L14.7071 18.664C14.896 18.4751 15.0014 18.2185 15 17.9514C14.9985 17.6843 14.8903 17.4289 14.6994 17.2421L13.3031 15.8759C13.4063 15.7619 13.5231 15.6515 13.6507 15.5587C13.874 15.3963 14.0943 15.3125 14.3203 15.3125C14.5388 15.3125 14.8874 15.3906 15.3753 15.7808C15.5866 15.9499 15.8575 16.0261 16.1259 15.992C16.3944 15.9579 16.6376 15.8165 16.8 15.6L18.2952 13.6063L18.2996 13.6007C18.3077 13.5901 18.3176 13.5769 18.3291 13.5612C18.3521 13.5297 18.3815 13.4879 18.4155 13.4363C18.4833 13.3333 18.57 13.1898 18.6601 13.0097C18.8393 12.6512 19.0377 12.1355 19.1173 11.499ZM14.7071 10.7071L16.4462 8.968C17.1317 9.92211 17.2 10.7127 17.1327 11.2509C17.0873 11.6145 16.9732 11.9113 16.8712 12.1153C16.8206 12.2164 16.7746 12.2916 16.7447 12.3371C16.7298 12.3597 16.7192 12.3745 16.7143 12.3811L16.7123 12.3839L16.7 12.4L15.7547 13.6604C15.2764 13.4272 14.7963 13.3125 14.3203 13.3125C13.5619 13.3125 12.9385 13.6036 12.4743 13.9412C12.0152 14.2751 11.6779 14.6776 11.4614 14.9788C11.3509 15.1326 11.2659 15.2683 11.2071 15.3684C11.1776 15.4186 11.1544 15.4605 11.1375 15.4918C11.129 15.5074 11.1221 15.5205 11.1168 15.5307L11.11 15.544L11.1075 15.5489L11.1065 15.551L11.1056 15.5527C10.9113 15.9413 10.9901 16.4109 11.3006 16.7147L12.578 17.9646L11.7392 18.8034C11.3455 19.1972 10.8723 19.506 10.3451 19.7113C9.81773 19.9167 9.24485 20.0153 8.65817 19.998C8.07133 19.9807 7.48256 19.8479 6.92638 19.6041C6.67515 19.494 6.43316 19.3624 6.20321 19.211L8.70712 16.7071L7.29291 15.2929L4.78899 17.7968C4.63763 17.5669 4.50599 17.3248 4.39586 17.0736C4.15208 16.5174 4.01921 15.9286 4.00193 15.3418C3.98467 14.7551 4.08322 14.1822 4.28864 13.6549C4.494 13.1277 4.80278 12.6545 5.19652 12.2607L6.03534 11.4219L7.28524 12.6993C7.58907 13.0098 8.05949 13.0882 8.44806 12.894L8.44898 12.8935L8.45104 12.8925L8.456 12.8899L8.46921 12.8831C8.47945 12.8778 8.49253 12.8709 8.50819 12.8625C8.53949 12.8456 8.58131 12.8223 8.63155 12.7928C8.73163 12.734 8.86732 12.6491 9.02113 12.5385C9.32236 12.322 9.72485 11.9847 10.0587 11.5256C10.3963 11.0614 10.6875 10.438 10.6875 9.67965C10.6875 9.20362 10.5728 8.72352 10.3395 8.2453L11.6 7.29996L11.6161 7.28767L11.6188 7.28562C11.6254 7.28078 11.6403 7.27017 11.6629 7.25529C11.7083 7.2254 11.7836 7.17934 11.8847 7.12876C12.0887 7.02676 12.3855 6.91267 12.749 6.86722C13.2873 6.79994 14.0779 6.86826 15.032 7.55377L13.2929 9.29291L14.7071 10.7071Z" fill="#2B2D34"/>
</svg>
