<svg width="24" height="24" viewBox="0 0 24 24" fill="none" xmlns="http://www.w3.org/2000/svg">
<path fill-rule="evenodd" clip-rule="evenodd" d="M4.08414 10.8355C6.47717 10.5732 8.90067 10.7583 11.2302 11.384L12.4064 10.2862C12.6238 10.0832 12.8304 9.87026 13.0256 9.64819C10.9342 8.27024 8.34787 7.81881 5.89182 8.43282L4.69584 8.73182C4.40061 9.39064 4.19189 10.0967 4.08414 10.8355ZM3.27677 7.10707C2.46372 8.55348 2 10.2226 2 12C2 17.5228 6.47715 22 12 22C17.5228 22 22 17.5228 22 12C22 10.7672 21.7769 9.58653 21.3689 8.49611L21.3849 8.46575L21.3507 8.44773C19.918 4.67855 16.2718 2 12 2C8.29388 2 5.05864 4.01612 3.33123 7.01142L3.25746 7.02986L3.27677 7.10707ZM6.39347 6.29326C9.10873 5.8731 11.885 6.48552 14.1712 8.00801C14.533 7.34293 14.8114 6.63149 14.9969 5.88943L15.2925 4.7068C14.2884 4.25276 13.1737 4 12 4C9.81635 4 7.83703 4.87489 6.39347 6.29326ZM17.0766 5.8168L16.9372 6.3745C16.4224 8.43372 15.3228 10.3 13.771 11.7483L12.7585 12.6933C13.1635 13.3891 13.6129 14.0581 14.1026 14.6961L15.8362 13.2515C16.7415 12.497 17.4899 11.5721 18.0388 10.5292L19.1527 8.41287C18.6477 7.40807 17.9373 6.52433 17.0766 5.8168ZM19.9581 11.1766L19.8086 11.4607C19.1378 12.7353 18.2231 13.8658 17.1166 14.7879L15.4019 16.2168C15.9989 16.8459 16.639 17.4346 17.3169 17.9776C18.9631 16.5123 20 14.3772 20 12C20 11.722 19.9858 11.4473 19.9581 11.1766ZM15.5944 19.149C13.7012 17.5402 12.0967 15.6005 10.877 13.4321L10.8295 13.3477C9.97744 13.1124 9.11101 12.943 8.23778 12.84L8.25652 12.9899C8.53758 15.2384 9.65649 17.2981 11.3898 18.7577L12.8161 19.9589C13.8068 19.8585 14.7441 19.5774 15.5944 19.149ZM9.2874 19.5284C7.63338 17.8216 6.56923 15.6161 6.27196 13.2379L6.20722 12.72C5.48571 12.7196 4.76358 12.7641 4.04501 12.8537C4.37287 15.9444 6.46076 18.5097 9.2874 19.5284Z" fill="#2B2D34"/>
</svg>
