<svg width="24" height="24" viewBox="0 0 24 24" fill="none" xmlns="http://www.w3.org/2000/svg">
<path fill-rule="evenodd" clip-rule="evenodd" d="M14.0997 3.20006C14.5415 3.53143 14.6311 4.15823 14.2997 4.60006L13.9997 5H16.9996C18.6233 5 19.9457 6.28985 19.998 7.90078L21.7692 17.6423C21.9924 18.87 21.0493 20.0001 19.8015 20.0001H4.19784C2.95003 20.0001 2.00689 18.87 2.2301 17.6423L4.00123 7.90105C4.05344 6.29 5.37589 5 6.99963 5H9.99953L9.69957 4.60006C9.3682 4.15823 9.45775 3.53143 9.89958 3.20006C10.3414 2.86869 10.9682 2.95823 11.2996 3.40006L11.9996 4.33347L12.6997 3.40006C13.0311 2.95823 13.6579 2.86869 14.0997 3.20006ZM11.9996 7.00012C12.005 7.00012 12.0103 7.00008 12.0157 7H16.9996C17.5519 7 17.9996 7.44772 17.9996 8C17.9996 8.55228 17.5519 9 16.9996 9H6.99963C6.44735 9 5.99963 8.55228 5.99963 8C5.99963 7.44772 6.44735 7 6.99963 7H11.9836C11.9889 7.00008 11.9942 7.00012 11.9996 7.00012ZM5.53944 10.6213L4.19784 18.0001L19.8015 18.0001L18.4599 10.6213C18.0277 10.8625 17.5297 11 16.9996 11H6.99963C6.46955 11 5.97159 10.8625 5.53944 10.6213Z" fill="#2B2D34"/>
</svg>
