<svg width="24" height="24" viewBox="0 0 24 24" fill="none" xmlns="http://www.w3.org/2000/svg">
<path fill-rule="evenodd" clip-rule="evenodd" d="M12.5 4V1H10.5V4H5C3.34315 4 2 5.34315 2 7V13C2 13.9443 2.44458 14.8334 3.2 15.4L6 17.5V21C6 21.5523 6.44772 22 7 22H16C16.5523 22 17 21.5523 17 21V15.2148L20.9845 6.36027L21.0528 6.39443C21.5468 6.64142 22.1475 6.4412 22.3945 5.94722C22.6415 5.45324 22.4412 4.85257 21.9473 4.60558L19.9473 3.60558C19.4533 3.35859 18.8526 3.55881 18.6056 4.05279C18.3586 4.54677 18.5589 5.14744 19.0528 5.39443L19.1942 5.4651L17 10.3411V5C17 4.44772 16.5523 4 16 4H12.5ZM10.5 6V8H12.5V6H15V20H8V6H10.5ZM5 6H6V15L4.4 13.8C4.14819 13.6111 4 13.3148 4 13V7C4 6.44772 4.44772 6 5 6Z" fill="#2B2D34"/>
</svg>
