<svg width="24" height="24" viewBox="0 0 24 24" fill="none" xmlns="http://www.w3.org/2000/svg">
<path fill-rule="evenodd" clip-rule="evenodd" d="M8.91936 7.23245C7.32747 9.31415 6 11.8414 6 14C6 17.3137 8.68629 20 12 20C15.3137 20 18 17.3137 18 14C18 11.8414 16.6725 9.31415 15.0806 7.23245C14.3016 6.21366 13.4978 5.35218 12.8421 4.75482C12.5126 4.45459 12.2364 4.2356 12.0317 4.09867C12.0208 4.09131 12.0102 4.08433 12 4.07771C11.9898 4.08433 11.9792 4.09131 11.9683 4.09867C11.7636 4.2356 11.4874 4.45459 11.1579 4.75482C10.5022 5.35218 9.69844 6.21366 8.91936 7.23245ZM11.3411 2.15901C11.4835 2.09395 11.7222 2 12 2C12.2778 2 12.5165 2.09395 12.6589 2.15901C12.823 2.23397 12.9874 2.33165 13.144 2.43649C13.4589 2.64722 13.8155 2.93603 14.1891 3.27643C14.9397 3.96032 15.8234 4.91134 16.6694 6.01755C18.3275 8.18585 20 11.1586 20 14C20 18.4183 16.4183 22 12 22C7.58172 22 4 18.4183 4 14C4 11.1586 5.67253 8.18585 7.33064 6.01755C8.17656 4.91134 9.06028 3.96032 9.81088 3.27643C10.1845 2.93603 10.5411 2.64722 10.856 2.43649C11.0126 2.33165 11.177 2.23397 11.3411 2.15901Z" fill="#2B2D34"/>
<path fill-rule="evenodd" clip-rule="evenodd" d="M13.9319 14.5176C14.0227 14.1785 14.0227 13.8215 13.9319 13.4824L15.8637 12.9647C16.0454 13.6429 16.0454 14.3571 15.8637 15.0353C15.682 15.7135 15.3249 16.3319 14.8284 16.8284C14.3319 17.3249 13.7135 17.682 13.0353 17.8637C12.3571 18.0454 11.6429 18.0454 10.9647 17.8637L11.4824 15.9319C11.8215 16.0227 12.1785 16.0227 12.5176 15.9319C12.8567 15.841 13.166 15.6625 13.4142 15.4142C13.6625 15.166 13.841 14.8567 13.9319 14.5176Z" fill="#2B2D34"/>
</svg>
