<svg width="24" height="24" viewBox="0 0 24 24" fill="none" xmlns="http://www.w3.org/2000/svg">
<path d="M16.5 4C16.7503 4 16.9966 4.06264 17.2165 4.18223C17.4365 4.30181 17.6229 4.47452 17.759 4.68463C17.8951 4.89474 17.9764 5.13555 17.9956 5.38514C18.0147 5.63472 17.9711 5.88514 17.8688 6.11356C17.7664 6.34198 17.6084 6.54114 17.4094 6.6929C17.2103 6.84466 16.9764 6.94419 16.729 6.98241C16.4816 7.02063 16.2286 6.99634 15.993 6.91174C15.767 6.83055 15.5638 6.69631 15.4006 6.52047C15.0654 6.15931 14.517 6.09619 14.1085 6.37174C13.5421 6.75377 13.283 7.3432 13.1582 7.78493C13.0288 8.24328 13 8.69643 13 9C13 11.2091 14.7908 13 17 13H22V11H17C15.8954 11 15 10.1046 15 9C15 8.90113 15.0052 8.78752 15.0184 8.67094C15.1158 8.71645 15.2154 8.75755 15.3171 8.79406C15.8668 8.99146 16.4572 9.04814 17.0344 8.95895C17.6117 8.86977 18.1574 8.63754 18.6219 8.28344C19.0864 7.92934 19.4549 7.46462 19.6938 6.93163C19.9327 6.39865 20.0344 5.81435 19.9897 5.23199C19.945 4.64963 19.7552 4.08772 19.4377 3.59747C19.1202 3.10722 18.6851 2.70422 18.172 2.42519C17.6589 2.14617 17.0841 2 16.5 2C11.399 2 7.77421 4.4262 5.45193 6.94752C4.29326 8.20551 3.44872 9.49631 2.89048 10.5461C2.61138 11.071 2.39918 11.5444 2.25386 11.9327C2.18141 12.1262 2.12221 12.3076 2.07978 12.4698C2.04226 12.6132 1.99998 12.8067 1.99998 13H3.99998C3.99998 13.0271 3.99824 13.0444 3.99775 13.0493C3.99881 13.0434 4.00312 13.0201 4.01466 12.976C4.03547 12.8965 4.07148 12.782 4.12696 12.6337C4.2375 12.3384 4.41202 11.9446 4.65635 11.4851C5.14499 10.5662 5.8942 9.41949 6.92303 8.30248C8.97575 6.0738 12.1009 4 16.5 4Z" fill="#2B2D34"/>
<path d="M15.1055 16.4348C15.6686 16.7163 16.3313 16.7163 16.8944 16.4348L18.2111 15.7764C19.3372 15.2133 20.6627 15.2133 21.7888 15.7764L22.4472 16.1056C22.9412 16.3526 23.1414 16.9532 22.8944 17.4472C22.6474 17.9412 22.0467 18.1414 21.5528 17.8944L20.8944 17.5653C20.3313 17.2837 19.6686 17.2837 19.1055 17.5653L17.7888 18.2236C16.6627 18.7867 15.3372 18.7867 14.2111 18.2236L12.8944 17.5653C12.3313 17.2837 11.6686 17.2837 11.1055 17.5653L9.78883 18.2236C8.66272 18.7867 7.33723 18.7867 6.21112 18.2236L4.8944 17.5653C4.33135 17.2837 3.6686 17.2837 3.10555 17.5653L2.44719 17.8944C1.95321 18.1414 1.35254 17.9412 1.10555 17.4472C0.858558 16.9532 1.05878 16.3526 1.55276 16.1056L2.21112 15.7764C3.33723 15.2133 4.66272 15.2133 5.78883 15.7764L7.10555 16.4348C7.6686 16.7163 8.33135 16.7163 8.8944 16.4348L10.2111 15.7764C11.3372 15.2133 12.6627 15.2133 13.7888 15.7764L15.1055 16.4348Z" fill="#2B2D34"/>
<path d="M15.1055 20.4348C15.6686 20.7163 16.3313 20.7163 16.8944 20.4348L18.2111 19.7764C19.3372 19.2133 20.6627 19.2133 21.7888 19.7764L22.4472 20.1056C22.9412 20.3526 23.1414 20.9532 22.8944 21.4472C22.6474 21.9412 22.0467 22.1414 21.5528 21.8944L20.8944 21.5653C20.3313 21.2837 19.6686 21.2837 19.1055 21.5653L17.7888 22.2236C16.6627 22.7867 15.3372 22.7867 14.2111 22.2236L12.8944 21.5653C12.3313 21.2837 11.6686 21.2837 11.1055 21.5653L9.78883 22.2236C8.66272 22.7867 7.33723 22.7867 6.21112 22.2236L4.8944 21.5653C4.33135 21.2837 3.6686 21.2837 3.10555 21.5653L2.44719 21.8944C1.95321 22.1414 1.35254 21.9412 1.10555 21.4472C0.858558 20.9532 1.05878 20.3526 1.55276 20.1056L2.21112 19.7764C3.33723 19.2133 4.66272 19.2133 5.78883 19.7764L7.10555 20.4348C7.6686 20.7163 8.33135 20.7163 8.8944 20.4348L10.2111 19.7764C11.3372 19.2133 12.6627 19.2133 13.7888 19.7764L15.1055 20.4348Z" fill="#2B2D34"/>
<path d="M11 8C9.54112 8 8.28512 9.04741 7.49072 9.97421C7.06792 10.4675 6.71162 10.9998 6.45598 11.4928C6.22164 11.9447 5.99998 12.4988 5.99998 13H7.99998C7.99989 13.0005 7.99998 13 7.99998 13C8.00224 12.9868 8.03601 12.7904 8.23148 12.4134C8.41334 12.0627 8.68204 11.6575 9.00924 11.2758C9.71484 10.4526 10.4588 10 11 10V8Z" fill="#2B2D34"/>
</svg>
