<svg width="24" height="24" viewBox="0 0 24 24" fill="none" xmlns="http://www.w3.org/2000/svg">
<path fill-rule="evenodd" clip-rule="evenodd" d="M12 22C6.47715 22 2 17.5228 2 12C2 6.47715 6.47715 2 12 2C17.5228 2 22 6.47715 22 12C22 17.5228 17.5228 22 12 22ZM19.9381 13H15.9685C15.8812 15.0518 15.6126 17.1686 15.1634 19.3502C17.7159 18.2502 19.5815 15.8594 19.9381 13ZM12.9884 19.9395L13.0246 19.7795C13.5548 17.4343 13.8685 15.1745 13.9665 13H10.0335C10.1315 15.1745 10.4452 17.4343 10.9754 19.7795L11.0116 19.9395C11.3354 19.9795 11.6653 20 12 20C12.3347 20 12.6646 19.9795 12.9884 19.9395ZM8.83661 19.3502C6.28406 18.2502 4.41846 15.8594 4.06189 13H8.03153C8.11884 15.0518 8.38739 17.1686 8.83661 19.3502ZM19.9381 11C19.5839 8.15915 17.7401 5.78087 15.213 4.67136C15.6998 6.65869 15.9604 8.76861 15.9958 11H19.9381ZM12.9765 4.059C12.6565 4.02005 12.3306 4 12 4C11.6694 4 11.3435 4.02005 11.0235 4.059L10.9612 4.27601C10.3646 6.35356 10.0452 8.59431 10.0045 11H13.9955C13.9548 8.59431 13.6354 6.35356 13.0388 4.27601L12.9765 4.059ZM8.787 4.67136C8.30025 6.65869 8.03964 8.76861 8.00419 11H4.06189C4.41614 8.15915 6.25991 5.78087 8.787 4.67136Z" fill="#2B2D34"/>
</svg>
