<svg width="24" height="24" viewBox="0 0 24 24" fill="none" xmlns="http://www.w3.org/2000/svg">
<path fill-rule="evenodd" clip-rule="evenodd" d="M2 2V4H3V21C3 21.5523 3.44772 22 4 22H8C8.55228 22 9 21.5517 9 20.9994V20H15V20.9994C15 21.5517 15.4477 22 16 22H20C20.5523 22 21 21.5523 21 21V4H22V2H2ZM15 18V16.7721C14.6053 16.5894 14.26 16.3155 13.9703 16.0209C13.445 15.4866 12.987 14.7712 12.602 13.9857L14.398 13.1055C14.7278 13.7785 15.0735 14.2903 15.3964 14.6186C15.7311 14.959 15.9357 15 16 15H19V4H13V7C13 9.14424 12.4689 11.5278 11.6691 13.3939C11.2697 14.3261 10.7818 15.1795 10.2186 15.8179C9.88733 16.1933 9.47851 16.5508 9 16.7724V18H15ZM11 4H5V15H8C8.07527 15 8.32422 14.9419 8.71891 14.4946C9.09317 14.0705 9.48035 13.4239 9.83085 12.6061C10.5311 10.9722 11 8.85576 11 7V4ZM7 17V20H5V17H7ZM17 20V17H19V20H17Z" fill="#2B2D34"/>
</svg>
