<svg width="24" height="24" viewBox="0 0 24 24" fill="none" xmlns="http://www.w3.org/2000/svg">
<path d="M11.9287 1C16.347 1 19.9287 4.58167 19.9287 9V22H16.9287C15.2719 22 13.9287 20.6569 13.9287 19V13.4648C13.3404 13.8052 12.6573 14 11.9287 14C9.71957 14 7.92871 12.2091 7.92871 10V8H9.92871V10C9.92871 11.1046 10.8241 12 11.9287 12C13.0333 12 13.9287 11 13.9287 9.58252C13.8672 9.55579 13.7844 9.52795 13.6854 9.49475C12.8628 9.21899 10.9287 8.57043 10.9287 5C10.9287 4.9375 12.9287 5 12.9287 5C12.9287 8 15.5348 8 15.9287 8V19C15.9287 19.5523 16.3764 20 16.9287 20H17.9287V9C17.9287 5.68628 15.2424 3 11.9287 3C8.61499 3 5.92871 5.68628 5.92871 9V15H3.92871V9C3.92871 4.58167 7.51044 1 11.9287 1Z" fill="#2B2D34"/>
<path d="M11.9285 16H11.2582C10.009 16 8.99137 16 8.16308 16.0899C7.27454 16.1864 6.5035 16.3992 5.80523 16.8789C5.12575 17.3458 4.66186 17.9688 4.25356 18.7368C3.86244 19.4724 3.48451 20.4173 3.02061 21.5771L3 21.6286L4.85695 22.3714C5.34645 21.1477 5.68527 20.3043 6.01948 19.6757C6.3423 19.0685 6.6185 18.7467 6.93778 18.5274C7.36598 18.2375 7.87203 18.1333 8.37898 18.0782C9.08675 18.0014 9.99563 18 11.3136 18H11.9285V16Z" fill="#2B2D34"/>
</svg>
