<svg width="24" height="24" viewBox="0 0 24 24" fill="none" xmlns="http://www.w3.org/2000/svg">
<path fill-rule="evenodd" clip-rule="evenodd" d="M12 22C17.5228 22 22 17.5228 22 12C22 6.47715 17.5228 2 12 2C6.47715 2 2 6.47715 2 12C2 17.5228 6.47715 22 12 22ZM11 4.27967C10.4318 4.59631 9.85487 5.19244 9.33862 6.12168C8.64763 7.36548 8.15924 9.06477 8.0325 11H11V4.27967ZM13 4.27967V11H15.9675C15.8408 9.06477 15.3524 7.36548 14.6614 6.12168C14.1451 5.19244 13.5682 4.59631 13 4.27967ZM11 13H8.0325C8.15924 14.9352 8.64763 16.6345 9.33862 17.8783C9.85487 18.8076 10.4318 19.4037 11 19.7203V13ZM13 19.7203V13H15.9675C15.8408 14.9352 15.3524 16.6345 14.6614 17.8783C14.1451 18.8076 13.5682 19.4037 13 19.7203ZM7.44453 5.42283C6.65497 6.95491 6.15066 8.89199 6.02876 11H4.06189C4.34981 8.69112 5.62162 6.68779 7.44453 5.42283ZM6.02876 13H4.06189C4.34981 15.3089 5.62162 17.3122 7.44453 18.5772C6.65497 17.0451 6.15067 15.108 6.02876 13ZM16.5555 18.5772C17.345 17.0451 17.8493 15.108 17.9712 13H19.9381C19.6502 15.3089 18.3784 17.3122 16.5555 18.5772ZM16.5555 5.42283C18.3784 6.68779 19.6502 8.69112 19.9381 11H17.9712C17.8493 8.89199 17.345 6.95491 16.5555 5.42283Z" fill="#2B2D34"/>
</svg>
