<svg width="48" height="48" viewBox="0 0 48 48" fill="none" xmlns="http://www.w3.org/2000/svg">
<path fill-rule="evenodd" clip-rule="evenodd" d="M10.0875 19.5366L2.13893 11.5382L0.0125819 13.6779L0 13.6652C0 12.2915 0.402621 7.56911 4.17405 3.86904C8.39528 -0.274154 12.6228 2.15036 14.0792 3.61266L21.7321 11.3167L19.8354 13.2253L24 17.4159L28.1646 13.2253L26.2679 11.3167L33.9208 3.61583C35.3772 2.15352 39.6047 -0.270988 43.8259 3.87221C47.5974 7.56911 48 12.2947 48 13.6684L47.9874 13.681L45.8611 11.5414L37.9124 19.5397L35.7232 17.3368V12.07L33.471 14.3362V20.7077L30.3664 23.8317L46.4587 40.0247L40.0891 46.4341L23.9969 30.2411L7.90459 46.4341L1.53499 40.0247L17.6273 23.8317L14.5227 20.7077V14.3362L12.2705 12.07V17.3368L10.0813 19.5397L10.0875 19.5366Z" fill="#2B2D33"/>
</svg>
