<svg width="48" height="48" viewBox="0 0 48 48" fill="none" xmlns="http://www.w3.org/2000/svg">
<g clip-path="url(#clip0_3054_90648)">
<path fill-rule="evenodd" clip-rule="evenodd" d="M10.0875 19.5366L2.13893 11.5382L0.0125819 13.6778L0 13.6652C0 12.2915 0.402621 7.56906 4.17405 3.86898C8.39528 -0.274218 12.6228 2.1503 14.0792 3.61261L21.7321 11.3166L19.8354 13.2252L24 17.4159L28.1646 13.2252L26.2679 11.3166L33.9208 3.61577C35.3772 2.15346 39.6047 -0.271053 43.826 3.87215C47.5974 7.56906 48 12.2947 48 13.6683L47.9874 13.681L45.8611 11.5413L37.9124 19.5397L35.7232 17.3368V12.0699L33.471 14.3362V20.7077L30.3664 23.8317L46.4587 40.0247L40.0891 46.4341L23.9969 30.2411L7.90459 46.4341L1.53499 40.0247L17.6273 23.8317L14.5227 20.7077V14.3362L12.2705 12.0699V17.3368L10.0813 19.5397L10.0875 19.5366Z" fill="white"/>
</g>
<defs>
<clipPath id="clip0_3054_90648">
<rect width="48" height="48" fill="white"/>
</clipPath>
</defs>
</svg>
