<svg width="48" height="48" viewBox="0 0 48 48" fill="none" xmlns="http://www.w3.org/2000/svg">
<g clip-path="url(#clip0_3054_90651)">
<g clip-path="url(#clip1_3054_90651)">
<path d="M48 0H0V48H48V0Z" fill="#FEE600"/>
<path fill-rule="evenodd" clip-rule="evenodd" d="M34.7105 20.5879L40.8269 14.4715L42.4627 16.1073L42.4729 16.0971C42.4729 15.0472 42.1647 11.4336 39.2623 8.60568C36.011 5.43571 32.7598 7.29163 31.6388 8.40925L25.7459 14.3021L27.2055 15.7618L23.9983 18.969L20.7911 15.7618L22.2508 14.3021L16.3579 8.40925C15.2369 7.29163 11.9856 5.43571 8.73435 8.60568C5.83193 11.4336 5.52374 15.0472 5.52374 16.0971L5.5339 16.1073L7.16969 14.4715L13.2861 20.5879L14.9693 18.9047V14.8745L16.7033 16.6085V21.482L19.0909 23.8696L6.70571 36.2549L11.6097 41.1588L23.9949 28.7736L36.3802 41.1588L41.2841 36.2549L28.8989 23.8696L31.2865 21.482V16.6085L33.0205 14.8745V18.9047L34.7037 20.5879H34.7105Z" fill="#2B2D33"/>
</g>
</g>
<defs>
<clipPath id="clip0_3054_90651">
<rect width="48" height="48" fill="white"/>
</clipPath>
<clipPath id="clip1_3054_90651">
<rect width="48" height="48" fill="white"/>
</clipPath>
</defs>
</svg>
